%TF.GenerationSoftware,KiCad,Pcbnew,7.0.2*%
%TF.CreationDate,2024-03-21T19:14:15+01:00*%
%TF.ProjectId,Support_TTGO,53757070-6f72-4745-9f54-54474f2e6b69,rev?*%
%TF.SameCoordinates,Original*%
%TF.FileFunction,Legend,Top*%
%TF.FilePolarity,Positive*%
%FSLAX46Y46*%
G04 Gerber Fmt 4.6, Leading zero omitted, Abs format (unit mm)*
G04 Created by KiCad (PCBNEW 7.0.2) date 2024-03-21 19:14:15*
%MOMM*%
%LPD*%
G01*
G04 APERTURE LIST*
%ADD10C,0.500000*%
%ADD11C,0.010000*%
%ADD12C,0.100000*%
%ADD13C,0.120000*%
G04 APERTURE END LIST*
D10*
X131968571Y-82692857D02*
X130968571Y-81264285D01*
X130254285Y-82692857D02*
X130254285Y-79692857D01*
X130254285Y-79692857D02*
X131397142Y-79692857D01*
X131397142Y-79692857D02*
X131682857Y-79835714D01*
X131682857Y-79835714D02*
X131825714Y-79978571D01*
X131825714Y-79978571D02*
X131968571Y-80264285D01*
X131968571Y-80264285D02*
X131968571Y-80692857D01*
X131968571Y-80692857D02*
X131825714Y-80978571D01*
X131825714Y-80978571D02*
X131682857Y-81121428D01*
X131682857Y-81121428D02*
X131397142Y-81264285D01*
X131397142Y-81264285D02*
X130254285Y-81264285D01*
X134540000Y-82692857D02*
X134540000Y-81121428D01*
X134540000Y-81121428D02*
X134397142Y-80835714D01*
X134397142Y-80835714D02*
X134111428Y-80692857D01*
X134111428Y-80692857D02*
X133540000Y-80692857D01*
X133540000Y-80692857D02*
X133254285Y-80835714D01*
X134540000Y-82550000D02*
X134254285Y-82692857D01*
X134254285Y-82692857D02*
X133540000Y-82692857D01*
X133540000Y-82692857D02*
X133254285Y-82550000D01*
X133254285Y-82550000D02*
X133111428Y-82264285D01*
X133111428Y-82264285D02*
X133111428Y-81978571D01*
X133111428Y-81978571D02*
X133254285Y-81692857D01*
X133254285Y-81692857D02*
X133540000Y-81550000D01*
X133540000Y-81550000D02*
X134254285Y-81550000D01*
X134254285Y-81550000D02*
X134540000Y-81407142D01*
X135540000Y-80692857D02*
X136682857Y-80692857D01*
X135968571Y-79692857D02*
X135968571Y-82264285D01*
X135968571Y-82264285D02*
X136111428Y-82550000D01*
X136111428Y-82550000D02*
X136397143Y-82692857D01*
X136397143Y-82692857D02*
X136682857Y-82692857D01*
X138968572Y-82692857D02*
X138968572Y-81121428D01*
X138968572Y-81121428D02*
X138825714Y-80835714D01*
X138825714Y-80835714D02*
X138540000Y-80692857D01*
X138540000Y-80692857D02*
X137968572Y-80692857D01*
X137968572Y-80692857D02*
X137682857Y-80835714D01*
X138968572Y-82550000D02*
X138682857Y-82692857D01*
X138682857Y-82692857D02*
X137968572Y-82692857D01*
X137968572Y-82692857D02*
X137682857Y-82550000D01*
X137682857Y-82550000D02*
X137540000Y-82264285D01*
X137540000Y-82264285D02*
X137540000Y-81978571D01*
X137540000Y-81978571D02*
X137682857Y-81692857D01*
X137682857Y-81692857D02*
X137968572Y-81550000D01*
X137968572Y-81550000D02*
X138682857Y-81550000D01*
X138682857Y-81550000D02*
X138968572Y-81407142D01*
X140397143Y-82692857D02*
X140397143Y-80692857D01*
X140397143Y-80978571D02*
X140540000Y-80835714D01*
X140540000Y-80835714D02*
X140825715Y-80692857D01*
X140825715Y-80692857D02*
X141254286Y-80692857D01*
X141254286Y-80692857D02*
X141540000Y-80835714D01*
X141540000Y-80835714D02*
X141682858Y-81121428D01*
X141682858Y-81121428D02*
X141682858Y-82692857D01*
X141682858Y-81121428D02*
X141825715Y-80835714D01*
X141825715Y-80835714D02*
X142111429Y-80692857D01*
X142111429Y-80692857D02*
X142540000Y-80692857D01*
X142540000Y-80692857D02*
X142825715Y-80835714D01*
X142825715Y-80835714D02*
X142968572Y-81121428D01*
X142968572Y-81121428D02*
X142968572Y-82692857D01*
X145682858Y-80692857D02*
X145682858Y-82692857D01*
X144397143Y-80692857D02*
X144397143Y-82264285D01*
X144397143Y-82264285D02*
X144540000Y-82550000D01*
X144540000Y-82550000D02*
X144825715Y-82692857D01*
X144825715Y-82692857D02*
X145254286Y-82692857D01*
X145254286Y-82692857D02*
X145540000Y-82550000D01*
X145540000Y-82550000D02*
X145682858Y-82407142D01*
X146968572Y-82550000D02*
X147254286Y-82692857D01*
X147254286Y-82692857D02*
X147825715Y-82692857D01*
X147825715Y-82692857D02*
X148111429Y-82550000D01*
X148111429Y-82550000D02*
X148254286Y-82264285D01*
X148254286Y-82264285D02*
X148254286Y-82121428D01*
X148254286Y-82121428D02*
X148111429Y-81835714D01*
X148111429Y-81835714D02*
X147825715Y-81692857D01*
X147825715Y-81692857D02*
X147397144Y-81692857D01*
X147397144Y-81692857D02*
X147111429Y-81550000D01*
X147111429Y-81550000D02*
X146968572Y-81264285D01*
X146968572Y-81264285D02*
X146968572Y-81121428D01*
X146968572Y-81121428D02*
X147111429Y-80835714D01*
X147111429Y-80835714D02*
X147397144Y-80692857D01*
X147397144Y-80692857D02*
X147825715Y-80692857D01*
X147825715Y-80692857D02*
X148111429Y-80835714D01*
X150682857Y-82550000D02*
X150397143Y-82692857D01*
X150397143Y-82692857D02*
X149825715Y-82692857D01*
X149825715Y-82692857D02*
X149540000Y-82550000D01*
X149540000Y-82550000D02*
X149397143Y-82264285D01*
X149397143Y-82264285D02*
X149397143Y-81121428D01*
X149397143Y-81121428D02*
X149540000Y-80835714D01*
X149540000Y-80835714D02*
X149825715Y-80692857D01*
X149825715Y-80692857D02*
X150397143Y-80692857D01*
X150397143Y-80692857D02*
X150682857Y-80835714D01*
X150682857Y-80835714D02*
X150825715Y-81121428D01*
X150825715Y-81121428D02*
X150825715Y-81407142D01*
X150825715Y-81407142D02*
X149397143Y-81692857D01*
%TO.C,G\u002A\u002A\u002A*%
D11*
X120475534Y-68205802D02*
X120587353Y-68206494D01*
X120672578Y-68208291D01*
X120738481Y-68211945D01*
X120792332Y-68218211D01*
X120841403Y-68227842D01*
X120892965Y-68241594D01*
X120931047Y-68253033D01*
X121173861Y-68343451D01*
X121398314Y-68460593D01*
X121608041Y-68606620D01*
X121780961Y-68758463D01*
X121919956Y-68901346D01*
X122031161Y-69034945D01*
X122117814Y-69163544D01*
X122181929Y-69288600D01*
X122212268Y-69356412D01*
X122252522Y-69443854D01*
X122297682Y-69540156D01*
X122342734Y-69634548D01*
X122347394Y-69644200D01*
X122390359Y-69733508D01*
X122432425Y-69821720D01*
X122469220Y-69899622D01*
X122496373Y-69957996D01*
X122499997Y-69965933D01*
X122579523Y-70140149D01*
X122647046Y-70286167D01*
X122704033Y-70406856D01*
X122751955Y-70505091D01*
X122792279Y-70583743D01*
X122826474Y-70645684D01*
X122856010Y-70693786D01*
X122882355Y-70730922D01*
X122904990Y-70757818D01*
X122981667Y-70841162D01*
X123049400Y-70815558D01*
X123157197Y-70777595D01*
X123276521Y-70740188D01*
X123397886Y-70705934D01*
X123511808Y-70677434D01*
X123608801Y-70657285D01*
X123650776Y-70650794D01*
X123748350Y-70638269D01*
X123817230Y-70628750D01*
X123862349Y-70621236D01*
X123888642Y-70614725D01*
X123901043Y-70608217D01*
X123904485Y-70600707D01*
X123904534Y-70599274D01*
X123895186Y-70576742D01*
X123870432Y-70535423D01*
X123835207Y-70482219D01*
X123794446Y-70424034D01*
X123753084Y-70367772D01*
X123716056Y-70320335D01*
X123688296Y-70288628D01*
X123675726Y-70279199D01*
X123654315Y-70291697D01*
X123625067Y-70322633D01*
X123618194Y-70331556D01*
X123555380Y-70388957D01*
X123471796Y-70423008D01*
X123395086Y-70431600D01*
X123347187Y-70427170D01*
X123308459Y-70409418D01*
X123264888Y-70371644D01*
X123260480Y-70367263D01*
X123204374Y-70291805D01*
X123179870Y-70207403D01*
X123185893Y-70110216D01*
X123186971Y-70104981D01*
X123212915Y-70038961D01*
X123260190Y-69993285D01*
X123331762Y-69966186D01*
X123430593Y-69955895D01*
X123437138Y-69955778D01*
X123504103Y-69953289D01*
X123562842Y-69948409D01*
X123599734Y-69942384D01*
X123636766Y-69920549D01*
X123647083Y-69886792D01*
X123633240Y-69846226D01*
X123597791Y-69803964D01*
X123543292Y-69765119D01*
X123501099Y-69745010D01*
X123440389Y-69705990D01*
X123387909Y-69646436D01*
X123353084Y-69578562D01*
X123344922Y-69542600D01*
X123351339Y-69466193D01*
X123382606Y-69395238D01*
X123416949Y-69356001D01*
X123479268Y-69323611D01*
X123556080Y-69312578D01*
X123635331Y-69323228D01*
X123693900Y-69348505D01*
X123738842Y-69389398D01*
X123780027Y-69448499D01*
X123809618Y-69512409D01*
X123819867Y-69563919D01*
X123834929Y-69602956D01*
X123872716Y-69635136D01*
X123922128Y-69651891D01*
X123934843Y-69652666D01*
X123963778Y-69646391D01*
X123966223Y-69623996D01*
X123965949Y-69623033D01*
X123940149Y-69523201D01*
X123928889Y-69446483D01*
X123932231Y-69385375D01*
X123950235Y-69332376D01*
X123968536Y-69300682D01*
X124020294Y-69249615D01*
X124086533Y-69223193D01*
X124157959Y-69221944D01*
X124225278Y-69246394D01*
X124268965Y-69283655D01*
X124300351Y-69335810D01*
X124310816Y-69399580D01*
X124310934Y-69409273D01*
X124305059Y-69466234D01*
X124289969Y-69520963D01*
X124269468Y-69563602D01*
X124247359Y-69584295D01*
X124243156Y-69584933D01*
X124223169Y-69597691D01*
X124200054Y-69626131D01*
X124182749Y-69664698D01*
X124190191Y-69699247D01*
X124191793Y-69702331D01*
X124213943Y-69731427D01*
X124235546Y-69730679D01*
X124259316Y-69698803D01*
X124276599Y-69662224D01*
X124321859Y-69588254D01*
X124381975Y-69544355D01*
X124458335Y-69529522D01*
X124460261Y-69529515D01*
X124543428Y-69543072D01*
X124607221Y-69580588D01*
X124648005Y-69637326D01*
X124662145Y-69708550D01*
X124650411Y-69777210D01*
X124614630Y-69840885D01*
X124552807Y-69889319D01*
X124463334Y-69924542D01*
X124403126Y-69944104D01*
X124371172Y-69961745D01*
X124362281Y-69980885D01*
X124364082Y-69989912D01*
X124381656Y-69993995D01*
X124422112Y-69979781D01*
X124449878Y-69965994D01*
X124543804Y-69930854D01*
X124616652Y-69923600D01*
X124673355Y-69926675D01*
X124712605Y-69940194D01*
X124750579Y-69970591D01*
X124761360Y-69981173D01*
X124799667Y-70026440D01*
X124816314Y-70069564D01*
X124818934Y-70105889D01*
X124803840Y-70180621D01*
X124762218Y-70239884D01*
X124699552Y-70279252D01*
X124621330Y-70294301D01*
X124587489Y-70292587D01*
X124549838Y-70289540D01*
X124541981Y-70293732D01*
X124555277Y-70303390D01*
X124580495Y-70320262D01*
X124626295Y-70352665D01*
X124686103Y-70395894D01*
X124751409Y-70443812D01*
X124833273Y-70506869D01*
X124890242Y-70558484D01*
X124926532Y-70604521D01*
X124946358Y-70650844D01*
X124953938Y-70703314D01*
X124954484Y-70726226D01*
X124938663Y-70821624D01*
X124892724Y-70922521D01*
X124819393Y-71026157D01*
X124721399Y-71129772D01*
X124601466Y-71230607D01*
X124462322Y-71325902D01*
X124306694Y-71412898D01*
X124247961Y-71441280D01*
X124171842Y-71474948D01*
X124099421Y-71504084D01*
X124040794Y-71524766D01*
X124014990Y-71531794D01*
X123944456Y-71547561D01*
X123868246Y-71566634D01*
X123794171Y-71586799D01*
X123730039Y-71605847D01*
X123683662Y-71621565D01*
X123663151Y-71631409D01*
X123661936Y-71649034D01*
X123683893Y-71677777D01*
X123730258Y-71718605D01*
X123802265Y-71772486D01*
X123901153Y-71840387D01*
X124028156Y-71923275D01*
X124071399Y-71950874D01*
X124232992Y-72056515D01*
X124367419Y-72151500D01*
X124478326Y-72239229D01*
X124569358Y-72323106D01*
X124644162Y-72406530D01*
X124706381Y-72492904D01*
X124759663Y-72585629D01*
X124766843Y-72599763D01*
X124807803Y-72689239D01*
X124844894Y-72783976D01*
X124872663Y-72869587D01*
X124879982Y-72898239D01*
X124896956Y-73003042D01*
X124907214Y-73133252D01*
X124910718Y-73281078D01*
X124907430Y-73438726D01*
X124897315Y-73598403D01*
X124883931Y-73725133D01*
X124872768Y-73815910D01*
X124866351Y-73879260D01*
X124864648Y-73921282D01*
X124867626Y-73948078D01*
X124875254Y-73965748D01*
X124882610Y-73975139D01*
X124912214Y-73994480D01*
X124950059Y-73990928D01*
X125000966Y-73963145D01*
X125044973Y-73930159D01*
X125075899Y-73906398D01*
X125102771Y-73891344D01*
X125134132Y-73883267D01*
X125178525Y-73880437D01*
X125244492Y-73881123D01*
X125282285Y-73882085D01*
X125453934Y-73886638D01*
X125598168Y-73759000D01*
X125547218Y-73684485D01*
X125507437Y-73602427D01*
X125495951Y-73520415D01*
X125509852Y-73443832D01*
X125546232Y-73378063D01*
X125602184Y-73328492D01*
X125674801Y-73300503D01*
X125755559Y-73298668D01*
X125810285Y-73314459D01*
X125857159Y-73341409D01*
X125861445Y-73345177D01*
X125901841Y-73401567D01*
X125932282Y-73480331D01*
X125949461Y-73570639D01*
X125951601Y-73640632D01*
X125953318Y-73709246D01*
X125969187Y-73752872D01*
X126003666Y-73778972D01*
X126041330Y-73790826D01*
X126067026Y-73793415D01*
X126090318Y-73784179D01*
X126118083Y-73758062D01*
X126157200Y-73710006D01*
X126164999Y-73699907D01*
X126206755Y-73648456D01*
X126244240Y-73607161D01*
X126270017Y-73584152D01*
X126271870Y-73583059D01*
X126313426Y-73570462D01*
X126374517Y-73562581D01*
X126440951Y-73561055D01*
X126455935Y-73561805D01*
X126504885Y-73579257D01*
X126554926Y-73619255D01*
X126596161Y-73672307D01*
X126615232Y-73714544D01*
X126624673Y-73758011D01*
X126621012Y-73796460D01*
X126602231Y-73845375D01*
X126596616Y-73857492D01*
X126554073Y-73928472D01*
X126500504Y-73976502D01*
X126428484Y-74006346D01*
X126340758Y-74021705D01*
X126251455Y-74037345D01*
X126194492Y-74061309D01*
X126169294Y-74093965D01*
X126172319Y-74128561D01*
X126199892Y-74162456D01*
X126252501Y-74179071D01*
X126332421Y-74179054D01*
X126345840Y-74177769D01*
X126408890Y-74176864D01*
X126460264Y-74192749D01*
X126485754Y-74207045D01*
X126537554Y-74245571D01*
X126566553Y-74288141D01*
X126578549Y-74346004D01*
X126580000Y-74389935D01*
X126568401Y-74465565D01*
X126531526Y-74520068D01*
X126466257Y-74557909D01*
X126461467Y-74559711D01*
X126383164Y-74572535D01*
X126306303Y-74552362D01*
X126229754Y-74498822D01*
X126206926Y-74476455D01*
X126151196Y-74422926D01*
X126113425Y-74397514D01*
X126093084Y-74399958D01*
X126088934Y-74418316D01*
X126102555Y-74440805D01*
X126136823Y-74468674D01*
X126154109Y-74479263D01*
X126220716Y-74535758D01*
X126255709Y-74590866D01*
X126286600Y-74680631D01*
X126286699Y-74758322D01*
X126256223Y-74822792D01*
X126203656Y-74868062D01*
X126128816Y-74896990D01*
X126055729Y-74895069D01*
X125988490Y-74865235D01*
X125931195Y-74810422D01*
X125887939Y-74733568D01*
X125862819Y-74637608D01*
X125860934Y-74622372D01*
X125853164Y-74560531D01*
X125843167Y-74526875D01*
X125825925Y-74515841D01*
X125796419Y-74521863D01*
X125776770Y-74529047D01*
X125753812Y-74540194D01*
X125740788Y-74557404D01*
X125734904Y-74589244D01*
X125733367Y-74644280D01*
X125733334Y-74662230D01*
X125726534Y-74751368D01*
X125703592Y-74816379D01*
X125660691Y-74864679D01*
X125614146Y-74893871D01*
X125539569Y-74916389D01*
X125469793Y-74905977D01*
X125407877Y-74863526D01*
X125376825Y-74824658D01*
X125347207Y-74750900D01*
X125347197Y-74670502D01*
X125375461Y-74590594D01*
X125430667Y-74518303D01*
X125434870Y-74514305D01*
X125462939Y-74479404D01*
X125463738Y-74455699D01*
X125442025Y-74443370D01*
X125402556Y-74442598D01*
X125350085Y-74453563D01*
X125289370Y-74476445D01*
X125232804Y-74506640D01*
X125167644Y-74546460D01*
X125089187Y-74594071D01*
X125013213Y-74639900D01*
X125005200Y-74644712D01*
X124896879Y-74710555D01*
X124814241Y-74762918D01*
X124753290Y-74804628D01*
X124710030Y-74838515D01*
X124680464Y-74867406D01*
X124667498Y-74883712D01*
X124640982Y-74925977D01*
X124636258Y-74957413D01*
X124654144Y-74991452D01*
X124675696Y-75018271D01*
X124727880Y-75060947D01*
X124812972Y-75104431D01*
X124857729Y-75122589D01*
X124966538Y-75172417D01*
X125054816Y-75233114D01*
X125127019Y-75309874D01*
X125187604Y-75407891D01*
X125241025Y-75532360D01*
X125262688Y-75594657D01*
X125309861Y-75784117D01*
X125334646Y-75997793D01*
X125336986Y-76234438D01*
X125316821Y-76492803D01*
X125308145Y-76561466D01*
X125260424Y-76796020D01*
X125181680Y-77031181D01*
X125074080Y-77260828D01*
X125037456Y-77326088D01*
X124997244Y-77389904D01*
X124960755Y-77432569D01*
X124918243Y-77464000D01*
X124883537Y-77482721D01*
X124833330Y-77505092D01*
X124785655Y-77518421D01*
X124728662Y-77524885D01*
X124650505Y-77526661D01*
X124644413Y-77526666D01*
X124567909Y-77525513D01*
X124513045Y-77520302D01*
X124467628Y-77508404D01*
X124419460Y-77487191D01*
X124389504Y-77471726D01*
X124318825Y-77425867D01*
X124234050Y-77357030D01*
X124140270Y-77270149D01*
X124042576Y-77170152D01*
X123946058Y-77061972D01*
X123868826Y-76967372D01*
X123715922Y-76757221D01*
X123588626Y-76552151D01*
X123487727Y-76354066D01*
X123414017Y-76164865D01*
X123368286Y-75986450D01*
X123351324Y-75820723D01*
X123354924Y-75731733D01*
X123370731Y-75635504D01*
X123400344Y-75553938D01*
X123448751Y-75477510D01*
X123520938Y-75396694D01*
X123540329Y-75377551D01*
X123589198Y-75327724D01*
X123626952Y-75284697D01*
X123648000Y-75255055D01*
X123650534Y-75247734D01*
X123636645Y-75214605D01*
X123595791Y-75163979D01*
X123529190Y-75097137D01*
X123438059Y-75015360D01*
X123394559Y-74978374D01*
X123326599Y-74923160D01*
X123255243Y-74868214D01*
X123186248Y-74817627D01*
X123125367Y-74775489D01*
X123078357Y-74745892D01*
X123050973Y-74732924D01*
X123048840Y-74732666D01*
X123031319Y-74726091D01*
X122988346Y-74707929D01*
X122925338Y-74680527D01*
X122847713Y-74646231D01*
X122794764Y-74622600D01*
X122679157Y-74572547D01*
X122588865Y-74538102D01*
X122519546Y-74518516D01*
X122466862Y-74513040D01*
X122426470Y-74520926D01*
X122394030Y-74541426D01*
X122383517Y-74551691D01*
X122346729Y-74590849D01*
X122456941Y-74590850D01*
X122545741Y-74598286D01*
X122609440Y-74622943D01*
X122653911Y-74668339D01*
X122680657Y-74724948D01*
X122695116Y-74786540D01*
X122689031Y-74843467D01*
X122686491Y-74852644D01*
X122658209Y-74907192D01*
X122610270Y-74939947D01*
X122540350Y-74951552D01*
X122446125Y-74942652D01*
X122397502Y-74932668D01*
X122344370Y-74922122D01*
X122314241Y-74922019D01*
X122297780Y-74932742D01*
X122294869Y-74936901D01*
X122279719Y-74983089D01*
X122294103Y-75020364D01*
X122319641Y-75036848D01*
X122381244Y-75073402D01*
X122417590Y-75128674D01*
X122431121Y-75206671D01*
X122431334Y-75220152D01*
X122428737Y-75277636D01*
X122417041Y-75316588D01*
X122390390Y-75352188D01*
X122373761Y-75369359D01*
X122323951Y-75409989D01*
X122276445Y-75425972D01*
X122259461Y-75426870D01*
X122183471Y-75411112D01*
X122118842Y-75367993D01*
X122070894Y-75303473D01*
X122044949Y-75223515D01*
X122041867Y-75183074D01*
X122038754Y-75143157D01*
X122031074Y-75122627D01*
X122029167Y-75121902D01*
X122004197Y-75117723D01*
X121978367Y-75111460D01*
X121956735Y-75107961D01*
X121945362Y-75117243D01*
X121940967Y-75146580D01*
X121940267Y-75195968D01*
X121934482Y-75262831D01*
X121913152Y-75306610D01*
X121870316Y-75333738D01*
X121800010Y-75350644D01*
X121796334Y-75351231D01*
X121741715Y-75353889D01*
X121695440Y-75338034D01*
X121669334Y-75321883D01*
X121633193Y-75293701D01*
X121614602Y-75263882D01*
X121606652Y-75218846D01*
X121605017Y-75195482D01*
X121600529Y-75144209D01*
X121590927Y-75117013D01*
X121570328Y-75104115D01*
X121546635Y-75098440D01*
X121478422Y-75078357D01*
X121437839Y-75047029D01*
X121418911Y-74997429D01*
X121415334Y-74943942D01*
X121419484Y-74878946D01*
X121433699Y-74836853D01*
X121448101Y-74818432D01*
X121486814Y-74792712D01*
X121543000Y-74768830D01*
X121600537Y-74752898D01*
X121629422Y-74749694D01*
X121651503Y-74735973D01*
X121659055Y-74722815D01*
X121668545Y-74691548D01*
X121661327Y-74685824D01*
X121651302Y-74691012D01*
X121614574Y-74697189D01*
X121563452Y-74687023D01*
X121510797Y-74664275D01*
X121476663Y-74639961D01*
X121448131Y-74606401D01*
X121435059Y-74566487D01*
X121432267Y-74515217D01*
X121442460Y-74437941D01*
X121472246Y-74385919D01*
X121520433Y-74360978D01*
X121533867Y-74359273D01*
X121613417Y-74357624D01*
X121671128Y-74367299D01*
X121717903Y-74390964D01*
X121742119Y-74410206D01*
X121799150Y-74460280D01*
X121873942Y-74423851D01*
X121915693Y-74402832D01*
X121944155Y-74383680D01*
X121965165Y-74358693D01*
X121984562Y-74320168D01*
X122008184Y-74260402D01*
X122018495Y-74233133D01*
X122069362Y-74107982D01*
X122116901Y-74012308D01*
X122163505Y-73942208D01*
X122211565Y-73893777D01*
X122237269Y-73876246D01*
X122308383Y-73834570D01*
X122484158Y-73894564D01*
X122556522Y-73917079D01*
X122642374Y-73940408D01*
X122734966Y-73963109D01*
X122827546Y-73983740D01*
X122913365Y-74000860D01*
X122985671Y-74013027D01*
X123037715Y-74018800D01*
X123060739Y-74017687D01*
X123060619Y-74002549D01*
X123042892Y-73968855D01*
X123014657Y-73928334D01*
X122935699Y-73797261D01*
X122884914Y-73648812D01*
X122862637Y-73484902D01*
X122869205Y-73307444D01*
X122886519Y-73198284D01*
X122901324Y-73128540D01*
X122915028Y-73070839D01*
X122925540Y-73033704D01*
X122928900Y-73025583D01*
X122937290Y-73001684D01*
X122950204Y-72953144D01*
X122965444Y-72888516D01*
X122972870Y-72854614D01*
X122988023Y-72780166D01*
X122995530Y-72728709D01*
X122995680Y-72690310D01*
X122988763Y-72655036D01*
X122979542Y-72625918D01*
X122956126Y-72578726D01*
X122919623Y-72527226D01*
X122877439Y-72479708D01*
X122836978Y-72444463D01*
X122805645Y-72429779D01*
X122804303Y-72429733D01*
X122788407Y-72444112D01*
X122774718Y-72476300D01*
X122762225Y-72508384D01*
X122737350Y-72563285D01*
X122703466Y-72633842D01*
X122663946Y-72712894D01*
X122655607Y-72729201D01*
X122577011Y-72871475D01*
X122501831Y-72983031D01*
X122426922Y-73066378D01*
X122349137Y-73124024D01*
X122265331Y-73158476D01*
X122172358Y-73172242D01*
X122101403Y-73171005D01*
X122052499Y-73165010D01*
X122004694Y-73152535D01*
X121952810Y-73130938D01*
X121891668Y-73097574D01*
X121816089Y-73049802D01*
X121720895Y-72984978D01*
X121677800Y-72954833D01*
X121619566Y-72916462D01*
X121568254Y-72887227D01*
X121532544Y-72871924D01*
X121525728Y-72870752D01*
X121491925Y-72876630D01*
X121440670Y-72892554D01*
X121402430Y-72907202D01*
X121350270Y-72931512D01*
X121325885Y-72951013D01*
X121324354Y-72969729D01*
X121324782Y-72970702D01*
X121339676Y-73027084D01*
X121344264Y-73098525D01*
X121338687Y-73169348D01*
X121323083Y-73223875D01*
X121322529Y-73224965D01*
X121279270Y-73276762D01*
X121218292Y-73310020D01*
X121148268Y-73324335D01*
X121077868Y-73319303D01*
X121015763Y-73294523D01*
X120970625Y-73249590D01*
X120966086Y-73241538D01*
X120945726Y-73171220D01*
X120944046Y-73080045D01*
X120961069Y-72975418D01*
X120965264Y-72958919D01*
X120978103Y-72907209D01*
X120980205Y-72876910D01*
X120969791Y-72856774D01*
X120945846Y-72836152D01*
X120910978Y-72812530D01*
X120886261Y-72802279D01*
X120885777Y-72802266D01*
X120865031Y-72812968D01*
X120828803Y-72840676D01*
X120795306Y-72870000D01*
X120747276Y-72910315D01*
X120707867Y-72930764D01*
X120663950Y-72937439D01*
X120649479Y-72937670D01*
X120564616Y-72923365D01*
X120494999Y-72884093D01*
X120445558Y-72825075D01*
X120421224Y-72751531D01*
X120421486Y-72696246D01*
X120444300Y-72623676D01*
X120491738Y-72569839D01*
X120565387Y-72533773D01*
X120666836Y-72514518D01*
X120727875Y-72510910D01*
X120784405Y-72506983D01*
X120815113Y-72497294D01*
X120827891Y-72479292D01*
X120828101Y-72478516D01*
X120824103Y-72453565D01*
X120792013Y-72438927D01*
X120789056Y-72438256D01*
X120728146Y-72413098D01*
X120664229Y-72368399D01*
X120610870Y-72314149D01*
X120599824Y-72298845D01*
X120578740Y-72249383D01*
X120568876Y-72191830D01*
X120568779Y-72186760D01*
X120583955Y-72121731D01*
X120624281Y-72067708D01*
X120681597Y-72029569D01*
X120747747Y-72012191D01*
X120814572Y-72020454D01*
X120833350Y-72028567D01*
X120880843Y-72059155D01*
X120920992Y-72101208D01*
X120961729Y-72163636D01*
X120975670Y-72188433D01*
X121001284Y-72230357D01*
X121022148Y-72256299D01*
X121028985Y-72260399D01*
X121039848Y-72257553D01*
X121039039Y-72244953D01*
X121024208Y-72216506D01*
X120993003Y-72166121D01*
X120992000Y-72164539D01*
X120955677Y-72097014D01*
X120943077Y-72039974D01*
X120952657Y-71981354D01*
X120964518Y-71949506D01*
X121004409Y-71895085D01*
X121067972Y-71863852D01*
X121153445Y-71856634D01*
X121161541Y-71857145D01*
X121218133Y-71868206D01*
X121258616Y-71894901D01*
X121285969Y-71941927D01*
X121303175Y-72013984D01*
X121311712Y-72093833D01*
X121317706Y-72163333D01*
X121324364Y-72205566D01*
X121333724Y-72227103D01*
X121347819Y-72234516D01*
X121355433Y-72234999D01*
X121374024Y-72231358D01*
X121388213Y-72216268D01*
X121400855Y-72183483D01*
X121414806Y-72126757D01*
X121423405Y-72086308D01*
X121447956Y-72041007D01*
X121494984Y-72002107D01*
X121553128Y-71977388D01*
X121589444Y-71972596D01*
X121672215Y-71985943D01*
X121733604Y-72023635D01*
X121770590Y-72081779D01*
X121780150Y-72156479D01*
X121771563Y-72207261D01*
X121755899Y-72249131D01*
X121729746Y-72286903D01*
X121687119Y-72327127D01*
X121622038Y-72376355D01*
X121608100Y-72386238D01*
X121561685Y-72418944D01*
X121678074Y-72458205D01*
X121774857Y-72484778D01*
X121859123Y-72496090D01*
X121924791Y-72491751D01*
X121960420Y-72476299D01*
X121973065Y-72457782D01*
X121982717Y-72421774D01*
X121990229Y-72363191D01*
X121996454Y-72276945D01*
X121997732Y-72253805D01*
X122024953Y-72033982D01*
X122082304Y-71828078D01*
X122160982Y-71652912D01*
X122210241Y-71561890D01*
X122102460Y-71271912D01*
X122044026Y-71109765D01*
X121990872Y-70950914D01*
X121940483Y-70787043D01*
X121890348Y-70609836D01*
X121837954Y-70410978D01*
X121815305Y-70321533D01*
X121733070Y-70022166D01*
X121644493Y-69755330D01*
X121549117Y-69520203D01*
X121446486Y-69315963D01*
X121336143Y-69141789D01*
X121217633Y-68996861D01*
X121090497Y-68880356D01*
X120969247Y-68799641D01*
X120865219Y-68749165D01*
X120756503Y-68713383D01*
X120633550Y-68689829D01*
X120491645Y-68676333D01*
X120315618Y-68677741D01*
X120138483Y-68701981D01*
X119966942Y-68746918D01*
X119807699Y-68810416D01*
X119667454Y-68890339D01*
X119566643Y-68971066D01*
X119471162Y-69075091D01*
X119396976Y-69187478D01*
X119338564Y-69317646D01*
X119307131Y-69413875D01*
X119287506Y-69487416D01*
X119274860Y-69553893D01*
X119268962Y-69621138D01*
X119269585Y-69696985D01*
X119276500Y-69789267D01*
X119289477Y-69905816D01*
X119292128Y-69927460D01*
X119295981Y-69979242D01*
X119288014Y-70013519D01*
X119263302Y-70045943D01*
X119250845Y-70058693D01*
X119189889Y-70100804D01*
X119127001Y-70111465D01*
X119066881Y-70092437D01*
X119014233Y-70045482D01*
X118973758Y-69972360D01*
X118966753Y-69952303D01*
X118955868Y-69900195D01*
X118946576Y-69822415D01*
X118939178Y-69727129D01*
X118933975Y-69622507D01*
X118931271Y-69516717D01*
X118931365Y-69417927D01*
X118934562Y-69334307D01*
X118941161Y-69274024D01*
X118941605Y-69271666D01*
X118963183Y-69190696D01*
X118997371Y-69094971D01*
X119038578Y-68998297D01*
X119081210Y-68914478D01*
X119096833Y-68888537D01*
X119141480Y-68829595D01*
X119206440Y-68757456D01*
X119284673Y-68678885D01*
X119369134Y-68600647D01*
X119452780Y-68529509D01*
X119528570Y-68472235D01*
X119534300Y-68468307D01*
X119711313Y-68365227D01*
X119906908Y-68281974D01*
X120027932Y-68243886D01*
X120084787Y-68229403D01*
X120137766Y-68219004D01*
X120194213Y-68212064D01*
X120261470Y-68207960D01*
X120346881Y-68206065D01*
X120457789Y-68205755D01*
X120475534Y-68205802D01*
G36*
X120475534Y-68205802D02*
G01*
X120587353Y-68206494D01*
X120672578Y-68208291D01*
X120738481Y-68211945D01*
X120792332Y-68218211D01*
X120841403Y-68227842D01*
X120892965Y-68241594D01*
X120931047Y-68253033D01*
X121173861Y-68343451D01*
X121398314Y-68460593D01*
X121608041Y-68606620D01*
X121780961Y-68758463D01*
X121919956Y-68901346D01*
X122031161Y-69034945D01*
X122117814Y-69163544D01*
X122181929Y-69288600D01*
X122212268Y-69356412D01*
X122252522Y-69443854D01*
X122297682Y-69540156D01*
X122342734Y-69634548D01*
X122347394Y-69644200D01*
X122390359Y-69733508D01*
X122432425Y-69821720D01*
X122469220Y-69899622D01*
X122496373Y-69957996D01*
X122499997Y-69965933D01*
X122579523Y-70140149D01*
X122647046Y-70286167D01*
X122704033Y-70406856D01*
X122751955Y-70505091D01*
X122792279Y-70583743D01*
X122826474Y-70645684D01*
X122856010Y-70693786D01*
X122882355Y-70730922D01*
X122904990Y-70757818D01*
X122981667Y-70841162D01*
X123049400Y-70815558D01*
X123157197Y-70777595D01*
X123276521Y-70740188D01*
X123397886Y-70705934D01*
X123511808Y-70677434D01*
X123608801Y-70657285D01*
X123650776Y-70650794D01*
X123748350Y-70638269D01*
X123817230Y-70628750D01*
X123862349Y-70621236D01*
X123888642Y-70614725D01*
X123901043Y-70608217D01*
X123904485Y-70600707D01*
X123904534Y-70599274D01*
X123895186Y-70576742D01*
X123870432Y-70535423D01*
X123835207Y-70482219D01*
X123794446Y-70424034D01*
X123753084Y-70367772D01*
X123716056Y-70320335D01*
X123688296Y-70288628D01*
X123675726Y-70279199D01*
X123654315Y-70291697D01*
X123625067Y-70322633D01*
X123618194Y-70331556D01*
X123555380Y-70388957D01*
X123471796Y-70423008D01*
X123395086Y-70431600D01*
X123347187Y-70427170D01*
X123308459Y-70409418D01*
X123264888Y-70371644D01*
X123260480Y-70367263D01*
X123204374Y-70291805D01*
X123179870Y-70207403D01*
X123185893Y-70110216D01*
X123186971Y-70104981D01*
X123212915Y-70038961D01*
X123260190Y-69993285D01*
X123331762Y-69966186D01*
X123430593Y-69955895D01*
X123437138Y-69955778D01*
X123504103Y-69953289D01*
X123562842Y-69948409D01*
X123599734Y-69942384D01*
X123636766Y-69920549D01*
X123647083Y-69886792D01*
X123633240Y-69846226D01*
X123597791Y-69803964D01*
X123543292Y-69765119D01*
X123501099Y-69745010D01*
X123440389Y-69705990D01*
X123387909Y-69646436D01*
X123353084Y-69578562D01*
X123344922Y-69542600D01*
X123351339Y-69466193D01*
X123382606Y-69395238D01*
X123416949Y-69356001D01*
X123479268Y-69323611D01*
X123556080Y-69312578D01*
X123635331Y-69323228D01*
X123693900Y-69348505D01*
X123738842Y-69389398D01*
X123780027Y-69448499D01*
X123809618Y-69512409D01*
X123819867Y-69563919D01*
X123834929Y-69602956D01*
X123872716Y-69635136D01*
X123922128Y-69651891D01*
X123934843Y-69652666D01*
X123963778Y-69646391D01*
X123966223Y-69623996D01*
X123965949Y-69623033D01*
X123940149Y-69523201D01*
X123928889Y-69446483D01*
X123932231Y-69385375D01*
X123950235Y-69332376D01*
X123968536Y-69300682D01*
X124020294Y-69249615D01*
X124086533Y-69223193D01*
X124157959Y-69221944D01*
X124225278Y-69246394D01*
X124268965Y-69283655D01*
X124300351Y-69335810D01*
X124310816Y-69399580D01*
X124310934Y-69409273D01*
X124305059Y-69466234D01*
X124289969Y-69520963D01*
X124269468Y-69563602D01*
X124247359Y-69584295D01*
X124243156Y-69584933D01*
X124223169Y-69597691D01*
X124200054Y-69626131D01*
X124182749Y-69664698D01*
X124190191Y-69699247D01*
X124191793Y-69702331D01*
X124213943Y-69731427D01*
X124235546Y-69730679D01*
X124259316Y-69698803D01*
X124276599Y-69662224D01*
X124321859Y-69588254D01*
X124381975Y-69544355D01*
X124458335Y-69529522D01*
X124460261Y-69529515D01*
X124543428Y-69543072D01*
X124607221Y-69580588D01*
X124648005Y-69637326D01*
X124662145Y-69708550D01*
X124650411Y-69777210D01*
X124614630Y-69840885D01*
X124552807Y-69889319D01*
X124463334Y-69924542D01*
X124403126Y-69944104D01*
X124371172Y-69961745D01*
X124362281Y-69980885D01*
X124364082Y-69989912D01*
X124381656Y-69993995D01*
X124422112Y-69979781D01*
X124449878Y-69965994D01*
X124543804Y-69930854D01*
X124616652Y-69923600D01*
X124673355Y-69926675D01*
X124712605Y-69940194D01*
X124750579Y-69970591D01*
X124761360Y-69981173D01*
X124799667Y-70026440D01*
X124816314Y-70069564D01*
X124818934Y-70105889D01*
X124803840Y-70180621D01*
X124762218Y-70239884D01*
X124699552Y-70279252D01*
X124621330Y-70294301D01*
X124587489Y-70292587D01*
X124549838Y-70289540D01*
X124541981Y-70293732D01*
X124555277Y-70303390D01*
X124580495Y-70320262D01*
X124626295Y-70352665D01*
X124686103Y-70395894D01*
X124751409Y-70443812D01*
X124833273Y-70506869D01*
X124890242Y-70558484D01*
X124926532Y-70604521D01*
X124946358Y-70650844D01*
X124953938Y-70703314D01*
X124954484Y-70726226D01*
X124938663Y-70821624D01*
X124892724Y-70922521D01*
X124819393Y-71026157D01*
X124721399Y-71129772D01*
X124601466Y-71230607D01*
X124462322Y-71325902D01*
X124306694Y-71412898D01*
X124247961Y-71441280D01*
X124171842Y-71474948D01*
X124099421Y-71504084D01*
X124040794Y-71524766D01*
X124014990Y-71531794D01*
X123944456Y-71547561D01*
X123868246Y-71566634D01*
X123794171Y-71586799D01*
X123730039Y-71605847D01*
X123683662Y-71621565D01*
X123663151Y-71631409D01*
X123661936Y-71649034D01*
X123683893Y-71677777D01*
X123730258Y-71718605D01*
X123802265Y-71772486D01*
X123901153Y-71840387D01*
X124028156Y-71923275D01*
X124071399Y-71950874D01*
X124232992Y-72056515D01*
X124367419Y-72151500D01*
X124478326Y-72239229D01*
X124569358Y-72323106D01*
X124644162Y-72406530D01*
X124706381Y-72492904D01*
X124759663Y-72585629D01*
X124766843Y-72599763D01*
X124807803Y-72689239D01*
X124844894Y-72783976D01*
X124872663Y-72869587D01*
X124879982Y-72898239D01*
X124896956Y-73003042D01*
X124907214Y-73133252D01*
X124910718Y-73281078D01*
X124907430Y-73438726D01*
X124897315Y-73598403D01*
X124883931Y-73725133D01*
X124872768Y-73815910D01*
X124866351Y-73879260D01*
X124864648Y-73921282D01*
X124867626Y-73948078D01*
X124875254Y-73965748D01*
X124882610Y-73975139D01*
X124912214Y-73994480D01*
X124950059Y-73990928D01*
X125000966Y-73963145D01*
X125044973Y-73930159D01*
X125075899Y-73906398D01*
X125102771Y-73891344D01*
X125134132Y-73883267D01*
X125178525Y-73880437D01*
X125244492Y-73881123D01*
X125282285Y-73882085D01*
X125453934Y-73886638D01*
X125598168Y-73759000D01*
X125547218Y-73684485D01*
X125507437Y-73602427D01*
X125495951Y-73520415D01*
X125509852Y-73443832D01*
X125546232Y-73378063D01*
X125602184Y-73328492D01*
X125674801Y-73300503D01*
X125755559Y-73298668D01*
X125810285Y-73314459D01*
X125857159Y-73341409D01*
X125861445Y-73345177D01*
X125901841Y-73401567D01*
X125932282Y-73480331D01*
X125949461Y-73570639D01*
X125951601Y-73640632D01*
X125953318Y-73709246D01*
X125969187Y-73752872D01*
X126003666Y-73778972D01*
X126041330Y-73790826D01*
X126067026Y-73793415D01*
X126090318Y-73784179D01*
X126118083Y-73758062D01*
X126157200Y-73710006D01*
X126164999Y-73699907D01*
X126206755Y-73648456D01*
X126244240Y-73607161D01*
X126270017Y-73584152D01*
X126271870Y-73583059D01*
X126313426Y-73570462D01*
X126374517Y-73562581D01*
X126440951Y-73561055D01*
X126455935Y-73561805D01*
X126504885Y-73579257D01*
X126554926Y-73619255D01*
X126596161Y-73672307D01*
X126615232Y-73714544D01*
X126624673Y-73758011D01*
X126621012Y-73796460D01*
X126602231Y-73845375D01*
X126596616Y-73857492D01*
X126554073Y-73928472D01*
X126500504Y-73976502D01*
X126428484Y-74006346D01*
X126340758Y-74021705D01*
X126251455Y-74037345D01*
X126194492Y-74061309D01*
X126169294Y-74093965D01*
X126172319Y-74128561D01*
X126199892Y-74162456D01*
X126252501Y-74179071D01*
X126332421Y-74179054D01*
X126345840Y-74177769D01*
X126408890Y-74176864D01*
X126460264Y-74192749D01*
X126485754Y-74207045D01*
X126537554Y-74245571D01*
X126566553Y-74288141D01*
X126578549Y-74346004D01*
X126580000Y-74389935D01*
X126568401Y-74465565D01*
X126531526Y-74520068D01*
X126466257Y-74557909D01*
X126461467Y-74559711D01*
X126383164Y-74572535D01*
X126306303Y-74552362D01*
X126229754Y-74498822D01*
X126206926Y-74476455D01*
X126151196Y-74422926D01*
X126113425Y-74397514D01*
X126093084Y-74399958D01*
X126088934Y-74418316D01*
X126102555Y-74440805D01*
X126136823Y-74468674D01*
X126154109Y-74479263D01*
X126220716Y-74535758D01*
X126255709Y-74590866D01*
X126286600Y-74680631D01*
X126286699Y-74758322D01*
X126256223Y-74822792D01*
X126203656Y-74868062D01*
X126128816Y-74896990D01*
X126055729Y-74895069D01*
X125988490Y-74865235D01*
X125931195Y-74810422D01*
X125887939Y-74733568D01*
X125862819Y-74637608D01*
X125860934Y-74622372D01*
X125853164Y-74560531D01*
X125843167Y-74526875D01*
X125825925Y-74515841D01*
X125796419Y-74521863D01*
X125776770Y-74529047D01*
X125753812Y-74540194D01*
X125740788Y-74557404D01*
X125734904Y-74589244D01*
X125733367Y-74644280D01*
X125733334Y-74662230D01*
X125726534Y-74751368D01*
X125703592Y-74816379D01*
X125660691Y-74864679D01*
X125614146Y-74893871D01*
X125539569Y-74916389D01*
X125469793Y-74905977D01*
X125407877Y-74863526D01*
X125376825Y-74824658D01*
X125347207Y-74750900D01*
X125347197Y-74670502D01*
X125375461Y-74590594D01*
X125430667Y-74518303D01*
X125434870Y-74514305D01*
X125462939Y-74479404D01*
X125463738Y-74455699D01*
X125442025Y-74443370D01*
X125402556Y-74442598D01*
X125350085Y-74453563D01*
X125289370Y-74476445D01*
X125232804Y-74506640D01*
X125167644Y-74546460D01*
X125089187Y-74594071D01*
X125013213Y-74639900D01*
X125005200Y-74644712D01*
X124896879Y-74710555D01*
X124814241Y-74762918D01*
X124753290Y-74804628D01*
X124710030Y-74838515D01*
X124680464Y-74867406D01*
X124667498Y-74883712D01*
X124640982Y-74925977D01*
X124636258Y-74957413D01*
X124654144Y-74991452D01*
X124675696Y-75018271D01*
X124727880Y-75060947D01*
X124812972Y-75104431D01*
X124857729Y-75122589D01*
X124966538Y-75172417D01*
X125054816Y-75233114D01*
X125127019Y-75309874D01*
X125187604Y-75407891D01*
X125241025Y-75532360D01*
X125262688Y-75594657D01*
X125309861Y-75784117D01*
X125334646Y-75997793D01*
X125336986Y-76234438D01*
X125316821Y-76492803D01*
X125308145Y-76561466D01*
X125260424Y-76796020D01*
X125181680Y-77031181D01*
X125074080Y-77260828D01*
X125037456Y-77326088D01*
X124997244Y-77389904D01*
X124960755Y-77432569D01*
X124918243Y-77464000D01*
X124883537Y-77482721D01*
X124833330Y-77505092D01*
X124785655Y-77518421D01*
X124728662Y-77524885D01*
X124650505Y-77526661D01*
X124644413Y-77526666D01*
X124567909Y-77525513D01*
X124513045Y-77520302D01*
X124467628Y-77508404D01*
X124419460Y-77487191D01*
X124389504Y-77471726D01*
X124318825Y-77425867D01*
X124234050Y-77357030D01*
X124140270Y-77270149D01*
X124042576Y-77170152D01*
X123946058Y-77061972D01*
X123868826Y-76967372D01*
X123715922Y-76757221D01*
X123588626Y-76552151D01*
X123487727Y-76354066D01*
X123414017Y-76164865D01*
X123368286Y-75986450D01*
X123351324Y-75820723D01*
X123354924Y-75731733D01*
X123370731Y-75635504D01*
X123400344Y-75553938D01*
X123448751Y-75477510D01*
X123520938Y-75396694D01*
X123540329Y-75377551D01*
X123589198Y-75327724D01*
X123626952Y-75284697D01*
X123648000Y-75255055D01*
X123650534Y-75247734D01*
X123636645Y-75214605D01*
X123595791Y-75163979D01*
X123529190Y-75097137D01*
X123438059Y-75015360D01*
X123394559Y-74978374D01*
X123326599Y-74923160D01*
X123255243Y-74868214D01*
X123186248Y-74817627D01*
X123125367Y-74775489D01*
X123078357Y-74745892D01*
X123050973Y-74732924D01*
X123048840Y-74732666D01*
X123031319Y-74726091D01*
X122988346Y-74707929D01*
X122925338Y-74680527D01*
X122847713Y-74646231D01*
X122794764Y-74622600D01*
X122679157Y-74572547D01*
X122588865Y-74538102D01*
X122519546Y-74518516D01*
X122466862Y-74513040D01*
X122426470Y-74520926D01*
X122394030Y-74541426D01*
X122383517Y-74551691D01*
X122346729Y-74590849D01*
X122456941Y-74590850D01*
X122545741Y-74598286D01*
X122609440Y-74622943D01*
X122653911Y-74668339D01*
X122680657Y-74724948D01*
X122695116Y-74786540D01*
X122689031Y-74843467D01*
X122686491Y-74852644D01*
X122658209Y-74907192D01*
X122610270Y-74939947D01*
X122540350Y-74951552D01*
X122446125Y-74942652D01*
X122397502Y-74932668D01*
X122344370Y-74922122D01*
X122314241Y-74922019D01*
X122297780Y-74932742D01*
X122294869Y-74936901D01*
X122279719Y-74983089D01*
X122294103Y-75020364D01*
X122319641Y-75036848D01*
X122381244Y-75073402D01*
X122417590Y-75128674D01*
X122431121Y-75206671D01*
X122431334Y-75220152D01*
X122428737Y-75277636D01*
X122417041Y-75316588D01*
X122390390Y-75352188D01*
X122373761Y-75369359D01*
X122323951Y-75409989D01*
X122276445Y-75425972D01*
X122259461Y-75426870D01*
X122183471Y-75411112D01*
X122118842Y-75367993D01*
X122070894Y-75303473D01*
X122044949Y-75223515D01*
X122041867Y-75183074D01*
X122038754Y-75143157D01*
X122031074Y-75122627D01*
X122029167Y-75121902D01*
X122004197Y-75117723D01*
X121978367Y-75111460D01*
X121956735Y-75107961D01*
X121945362Y-75117243D01*
X121940967Y-75146580D01*
X121940267Y-75195968D01*
X121934482Y-75262831D01*
X121913152Y-75306610D01*
X121870316Y-75333738D01*
X121800010Y-75350644D01*
X121796334Y-75351231D01*
X121741715Y-75353889D01*
X121695440Y-75338034D01*
X121669334Y-75321883D01*
X121633193Y-75293701D01*
X121614602Y-75263882D01*
X121606652Y-75218846D01*
X121605017Y-75195482D01*
X121600529Y-75144209D01*
X121590927Y-75117013D01*
X121570328Y-75104115D01*
X121546635Y-75098440D01*
X121478422Y-75078357D01*
X121437839Y-75047029D01*
X121418911Y-74997429D01*
X121415334Y-74943942D01*
X121419484Y-74878946D01*
X121433699Y-74836853D01*
X121448101Y-74818432D01*
X121486814Y-74792712D01*
X121543000Y-74768830D01*
X121600537Y-74752898D01*
X121629422Y-74749694D01*
X121651503Y-74735973D01*
X121659055Y-74722815D01*
X121668545Y-74691548D01*
X121661327Y-74685824D01*
X121651302Y-74691012D01*
X121614574Y-74697189D01*
X121563452Y-74687023D01*
X121510797Y-74664275D01*
X121476663Y-74639961D01*
X121448131Y-74606401D01*
X121435059Y-74566487D01*
X121432267Y-74515217D01*
X121442460Y-74437941D01*
X121472246Y-74385919D01*
X121520433Y-74360978D01*
X121533867Y-74359273D01*
X121613417Y-74357624D01*
X121671128Y-74367299D01*
X121717903Y-74390964D01*
X121742119Y-74410206D01*
X121799150Y-74460280D01*
X121873942Y-74423851D01*
X121915693Y-74402832D01*
X121944155Y-74383680D01*
X121965165Y-74358693D01*
X121984562Y-74320168D01*
X122008184Y-74260402D01*
X122018495Y-74233133D01*
X122069362Y-74107982D01*
X122116901Y-74012308D01*
X122163505Y-73942208D01*
X122211565Y-73893777D01*
X122237269Y-73876246D01*
X122308383Y-73834570D01*
X122484158Y-73894564D01*
X122556522Y-73917079D01*
X122642374Y-73940408D01*
X122734966Y-73963109D01*
X122827546Y-73983740D01*
X122913365Y-74000860D01*
X122985671Y-74013027D01*
X123037715Y-74018800D01*
X123060739Y-74017687D01*
X123060619Y-74002549D01*
X123042892Y-73968855D01*
X123014657Y-73928334D01*
X122935699Y-73797261D01*
X122884914Y-73648812D01*
X122862637Y-73484902D01*
X122869205Y-73307444D01*
X122886519Y-73198284D01*
X122901324Y-73128540D01*
X122915028Y-73070839D01*
X122925540Y-73033704D01*
X122928900Y-73025583D01*
X122937290Y-73001684D01*
X122950204Y-72953144D01*
X122965444Y-72888516D01*
X122972870Y-72854614D01*
X122988023Y-72780166D01*
X122995530Y-72728709D01*
X122995680Y-72690310D01*
X122988763Y-72655036D01*
X122979542Y-72625918D01*
X122956126Y-72578726D01*
X122919623Y-72527226D01*
X122877439Y-72479708D01*
X122836978Y-72444463D01*
X122805645Y-72429779D01*
X122804303Y-72429733D01*
X122788407Y-72444112D01*
X122774718Y-72476300D01*
X122762225Y-72508384D01*
X122737350Y-72563285D01*
X122703466Y-72633842D01*
X122663946Y-72712894D01*
X122655607Y-72729201D01*
X122577011Y-72871475D01*
X122501831Y-72983031D01*
X122426922Y-73066378D01*
X122349137Y-73124024D01*
X122265331Y-73158476D01*
X122172358Y-73172242D01*
X122101403Y-73171005D01*
X122052499Y-73165010D01*
X122004694Y-73152535D01*
X121952810Y-73130938D01*
X121891668Y-73097574D01*
X121816089Y-73049802D01*
X121720895Y-72984978D01*
X121677800Y-72954833D01*
X121619566Y-72916462D01*
X121568254Y-72887227D01*
X121532544Y-72871924D01*
X121525728Y-72870752D01*
X121491925Y-72876630D01*
X121440670Y-72892554D01*
X121402430Y-72907202D01*
X121350270Y-72931512D01*
X121325885Y-72951013D01*
X121324354Y-72969729D01*
X121324782Y-72970702D01*
X121339676Y-73027084D01*
X121344264Y-73098525D01*
X121338687Y-73169348D01*
X121323083Y-73223875D01*
X121322529Y-73224965D01*
X121279270Y-73276762D01*
X121218292Y-73310020D01*
X121148268Y-73324335D01*
X121077868Y-73319303D01*
X121015763Y-73294523D01*
X120970625Y-73249590D01*
X120966086Y-73241538D01*
X120945726Y-73171220D01*
X120944046Y-73080045D01*
X120961069Y-72975418D01*
X120965264Y-72958919D01*
X120978103Y-72907209D01*
X120980205Y-72876910D01*
X120969791Y-72856774D01*
X120945846Y-72836152D01*
X120910978Y-72812530D01*
X120886261Y-72802279D01*
X120885777Y-72802266D01*
X120865031Y-72812968D01*
X120828803Y-72840676D01*
X120795306Y-72870000D01*
X120747276Y-72910315D01*
X120707867Y-72930764D01*
X120663950Y-72937439D01*
X120649479Y-72937670D01*
X120564616Y-72923365D01*
X120494999Y-72884093D01*
X120445558Y-72825075D01*
X120421224Y-72751531D01*
X120421486Y-72696246D01*
X120444300Y-72623676D01*
X120491738Y-72569839D01*
X120565387Y-72533773D01*
X120666836Y-72514518D01*
X120727875Y-72510910D01*
X120784405Y-72506983D01*
X120815113Y-72497294D01*
X120827891Y-72479292D01*
X120828101Y-72478516D01*
X120824103Y-72453565D01*
X120792013Y-72438927D01*
X120789056Y-72438256D01*
X120728146Y-72413098D01*
X120664229Y-72368399D01*
X120610870Y-72314149D01*
X120599824Y-72298845D01*
X120578740Y-72249383D01*
X120568876Y-72191830D01*
X120568779Y-72186760D01*
X120583955Y-72121731D01*
X120624281Y-72067708D01*
X120681597Y-72029569D01*
X120747747Y-72012191D01*
X120814572Y-72020454D01*
X120833350Y-72028567D01*
X120880843Y-72059155D01*
X120920992Y-72101208D01*
X120961729Y-72163636D01*
X120975670Y-72188433D01*
X121001284Y-72230357D01*
X121022148Y-72256299D01*
X121028985Y-72260399D01*
X121039848Y-72257553D01*
X121039039Y-72244953D01*
X121024208Y-72216506D01*
X120993003Y-72166121D01*
X120992000Y-72164539D01*
X120955677Y-72097014D01*
X120943077Y-72039974D01*
X120952657Y-71981354D01*
X120964518Y-71949506D01*
X121004409Y-71895085D01*
X121067972Y-71863852D01*
X121153445Y-71856634D01*
X121161541Y-71857145D01*
X121218133Y-71868206D01*
X121258616Y-71894901D01*
X121285969Y-71941927D01*
X121303175Y-72013984D01*
X121311712Y-72093833D01*
X121317706Y-72163333D01*
X121324364Y-72205566D01*
X121333724Y-72227103D01*
X121347819Y-72234516D01*
X121355433Y-72234999D01*
X121374024Y-72231358D01*
X121388213Y-72216268D01*
X121400855Y-72183483D01*
X121414806Y-72126757D01*
X121423405Y-72086308D01*
X121447956Y-72041007D01*
X121494984Y-72002107D01*
X121553128Y-71977388D01*
X121589444Y-71972596D01*
X121672215Y-71985943D01*
X121733604Y-72023635D01*
X121770590Y-72081779D01*
X121780150Y-72156479D01*
X121771563Y-72207261D01*
X121755899Y-72249131D01*
X121729746Y-72286903D01*
X121687119Y-72327127D01*
X121622038Y-72376355D01*
X121608100Y-72386238D01*
X121561685Y-72418944D01*
X121678074Y-72458205D01*
X121774857Y-72484778D01*
X121859123Y-72496090D01*
X121924791Y-72491751D01*
X121960420Y-72476299D01*
X121973065Y-72457782D01*
X121982717Y-72421774D01*
X121990229Y-72363191D01*
X121996454Y-72276945D01*
X121997732Y-72253805D01*
X122024953Y-72033982D01*
X122082304Y-71828078D01*
X122160982Y-71652912D01*
X122210241Y-71561890D01*
X122102460Y-71271912D01*
X122044026Y-71109765D01*
X121990872Y-70950914D01*
X121940483Y-70787043D01*
X121890348Y-70609836D01*
X121837954Y-70410978D01*
X121815305Y-70321533D01*
X121733070Y-70022166D01*
X121644493Y-69755330D01*
X121549117Y-69520203D01*
X121446486Y-69315963D01*
X121336143Y-69141789D01*
X121217633Y-68996861D01*
X121090497Y-68880356D01*
X120969247Y-68799641D01*
X120865219Y-68749165D01*
X120756503Y-68713383D01*
X120633550Y-68689829D01*
X120491645Y-68676333D01*
X120315618Y-68677741D01*
X120138483Y-68701981D01*
X119966942Y-68746918D01*
X119807699Y-68810416D01*
X119667454Y-68890339D01*
X119566643Y-68971066D01*
X119471162Y-69075091D01*
X119396976Y-69187478D01*
X119338564Y-69317646D01*
X119307131Y-69413875D01*
X119287506Y-69487416D01*
X119274860Y-69553893D01*
X119268962Y-69621138D01*
X119269585Y-69696985D01*
X119276500Y-69789267D01*
X119289477Y-69905816D01*
X119292128Y-69927460D01*
X119295981Y-69979242D01*
X119288014Y-70013519D01*
X119263302Y-70045943D01*
X119250845Y-70058693D01*
X119189889Y-70100804D01*
X119127001Y-70111465D01*
X119066881Y-70092437D01*
X119014233Y-70045482D01*
X118973758Y-69972360D01*
X118966753Y-69952303D01*
X118955868Y-69900195D01*
X118946576Y-69822415D01*
X118939178Y-69727129D01*
X118933975Y-69622507D01*
X118931271Y-69516717D01*
X118931365Y-69417927D01*
X118934562Y-69334307D01*
X118941161Y-69274024D01*
X118941605Y-69271666D01*
X118963183Y-69190696D01*
X118997371Y-69094971D01*
X119038578Y-68998297D01*
X119081210Y-68914478D01*
X119096833Y-68888537D01*
X119141480Y-68829595D01*
X119206440Y-68757456D01*
X119284673Y-68678885D01*
X119369134Y-68600647D01*
X119452780Y-68529509D01*
X119528570Y-68472235D01*
X119534300Y-68468307D01*
X119711313Y-68365227D01*
X119906908Y-68281974D01*
X120027932Y-68243886D01*
X120084787Y-68229403D01*
X120137766Y-68219004D01*
X120194213Y-68212064D01*
X120261470Y-68207960D01*
X120346881Y-68206065D01*
X120457789Y-68205755D01*
X120475534Y-68205802D01*
G37*
D12*
%TO.C,J3*%
X161020000Y-106710000D02*
X161020000Y-96710000D01*
X173020000Y-106710000D02*
X161020000Y-106710000D01*
X161020000Y-96710000D02*
X173020000Y-96710000D01*
X173020000Y-96710000D02*
X173020000Y-106710000D01*
D13*
%TO.C,J1*%
X123970000Y-82170000D02*
X125300000Y-82170000D01*
X123970000Y-83500000D02*
X123970000Y-82170000D01*
X123970000Y-84770000D02*
X123970000Y-107690000D01*
X123970000Y-84770000D02*
X126630000Y-84770000D01*
X123970000Y-107690000D02*
X126630000Y-107690000D01*
X126630000Y-84770000D02*
X126630000Y-107690000D01*
%TO.C, *%
X156830000Y-84770000D02*
X156830000Y-107690000D01*
X154170000Y-107690000D02*
X156830000Y-107690000D01*
X154170000Y-84770000D02*
X156830000Y-84770000D01*
X154170000Y-84770000D02*
X154170000Y-107690000D01*
X154170000Y-83500000D02*
X154170000Y-82170000D01*
X154170000Y-82170000D02*
X155500000Y-82170000D01*
D12*
%TO.C,J8*%
X160940000Y-79110000D02*
X160940000Y-69110000D01*
X172940000Y-79110000D02*
X160940000Y-79110000D01*
X160940000Y-69110000D02*
X172940000Y-69110000D01*
X172940000Y-69110000D02*
X172940000Y-79110000D01*
%TO.C,J7*%
X120180000Y-70510000D02*
X120180000Y-80510000D01*
X108180000Y-70510000D02*
X120180000Y-70510000D01*
X120180000Y-80510000D02*
X108180000Y-80510000D01*
X108180000Y-80510000D02*
X108180000Y-70510000D01*
%TO.C,J4*%
X161000000Y-92860000D02*
X161000000Y-82860000D01*
X173000000Y-92860000D02*
X161000000Y-92860000D01*
X161000000Y-82860000D02*
X173000000Y-82860000D01*
X173000000Y-82860000D02*
X173000000Y-92860000D01*
%TO.C,J6*%
X120220000Y-84150000D02*
X120220000Y-94150000D01*
X108220000Y-84150000D02*
X120220000Y-84150000D01*
X120220000Y-94150000D02*
X108220000Y-94150000D01*
X108220000Y-94150000D02*
X108220000Y-84150000D01*
%TO.C,J5*%
X120290000Y-97960000D02*
X120290000Y-107960000D01*
X108290000Y-97960000D02*
X120290000Y-97960000D01*
X120290000Y-107960000D02*
X108290000Y-107960000D01*
X108290000Y-107960000D02*
X108290000Y-97960000D01*
%TD*%
M02*
