%TF.GenerationSoftware,KiCad,Pcbnew,7.0.2*%
%TF.CreationDate,2024-03-21T19:14:15+01:00*%
%TF.ProjectId,Support_TTGO,53757070-6f72-4745-9f54-54474f2e6b69,rev?*%
%TF.SameCoordinates,Original*%
%TF.FileFunction,Soldermask,Bot*%
%TF.FilePolarity,Negative*%
%FSLAX46Y46*%
G04 Gerber Fmt 4.6, Leading zero omitted, Abs format (unit mm)*
G04 Created by KiCad (PCBNEW 7.0.2) date 2024-03-21 19:14:15*
%MOMM*%
%LPD*%
G01*
G04 APERTURE LIST*
G04 Aperture macros list*
%AMRoundRect*
0 Rectangle with rounded corners*
0 $1 Rounding radius*
0 $2 $3 $4 $5 $6 $7 $8 $9 X,Y pos of 4 corners*
0 Add a 4 corners polygon primitive as box body*
4,1,4,$2,$3,$4,$5,$6,$7,$8,$9,$2,$3,0*
0 Add four circle primitives for the rounded corners*
1,1,$1+$1,$2,$3*
1,1,$1+$1,$4,$5*
1,1,$1+$1,$6,$7*
1,1,$1+$1,$8,$9*
0 Add four rect primitives between the rounded corners*
20,1,$1+$1,$2,$3,$4,$5,0*
20,1,$1+$1,$4,$5,$6,$7,0*
20,1,$1+$1,$6,$7,$8,$9,0*
20,1,$1+$1,$8,$9,$2,$3,0*%
G04 Aperture macros list end*
%ADD10C,1.500000*%
%ADD11R,1.700000X1.700000*%
%ADD12O,1.700000X1.700000*%
%ADD13RoundRect,0.200000X0.275000X-0.200000X0.275000X0.200000X-0.275000X0.200000X-0.275000X-0.200000X0*%
G04 APERTURE END LIST*
D10*
%TO.C,J3*%
X168320000Y-105460000D03*
X168320000Y-102960000D03*
X168320000Y-100460000D03*
X168320000Y-97960000D03*
%TD*%
D11*
%TO.C,J1*%
X125300000Y-83500000D03*
D12*
X125300000Y-86040000D03*
X125300000Y-88580000D03*
X125300000Y-91120000D03*
X125300000Y-93660000D03*
X125300000Y-96200000D03*
X125300000Y-98740000D03*
X125300000Y-101280000D03*
X125300000Y-103820000D03*
X125300000Y-106360000D03*
%TD*%
%TO.C, *%
X155500000Y-106360000D03*
X155500000Y-103820000D03*
X155500000Y-101280000D03*
X155500000Y-98740000D03*
X155500000Y-96200000D03*
X155500000Y-93660000D03*
X155500000Y-91120000D03*
X155500000Y-88580000D03*
X155500000Y-86040000D03*
D11*
X155500000Y-83500000D03*
%TD*%
D10*
%TO.C,J8*%
X168240000Y-77860000D03*
X168240000Y-75360000D03*
X168240000Y-72860000D03*
X168240000Y-70360000D03*
%TD*%
%TO.C,J7*%
X112880000Y-71760000D03*
X112880000Y-74260000D03*
X112880000Y-76760000D03*
X112880000Y-79260000D03*
%TD*%
%TO.C,J4*%
X168300000Y-91610000D03*
X168300000Y-89110000D03*
X168300000Y-86610000D03*
X168300000Y-84110000D03*
%TD*%
%TO.C,J6*%
X112920000Y-85400000D03*
X112920000Y-87900000D03*
X112920000Y-90400000D03*
X112920000Y-92900000D03*
%TD*%
%TO.C,J5*%
X112990000Y-99210000D03*
X112990000Y-101710000D03*
X112990000Y-104210000D03*
X112990000Y-106710000D03*
%TD*%
D13*
%TO.C,R1*%
X115150000Y-75805000D03*
X115150000Y-74155000D03*
%TD*%
M02*
