%TF.GenerationSoftware,KiCad,Pcbnew,7.0.2*%
%TF.CreationDate,2024-03-21T19:14:15+01:00*%
%TF.ProjectId,Support_TTGO,53757070-6f72-4745-9f54-54474f2e6b69,rev?*%
%TF.SameCoordinates,Original*%
%TF.FileFunction,Copper,L2,Bot*%
%TF.FilePolarity,Positive*%
%FSLAX46Y46*%
G04 Gerber Fmt 4.6, Leading zero omitted, Abs format (unit mm)*
G04 Created by KiCad (PCBNEW 7.0.2) date 2024-03-21 19:14:15*
%MOMM*%
%LPD*%
G01*
G04 APERTURE LIST*
G04 Aperture macros list*
%AMRoundRect*
0 Rectangle with rounded corners*
0 $1 Rounding radius*
0 $2 $3 $4 $5 $6 $7 $8 $9 X,Y pos of 4 corners*
0 Add a 4 corners polygon primitive as box body*
4,1,4,$2,$3,$4,$5,$6,$7,$8,$9,$2,$3,0*
0 Add four circle primitives for the rounded corners*
1,1,$1+$1,$2,$3*
1,1,$1+$1,$4,$5*
1,1,$1+$1,$6,$7*
1,1,$1+$1,$8,$9*
0 Add four rect primitives between the rounded corners*
20,1,$1+$1,$2,$3,$4,$5,0*
20,1,$1+$1,$4,$5,$6,$7,0*
20,1,$1+$1,$6,$7,$8,$9,0*
20,1,$1+$1,$8,$9,$2,$3,0*%
G04 Aperture macros list end*
%TA.AperFunction,ComponentPad*%
%ADD10C,1.500000*%
%TD*%
%TA.AperFunction,ComponentPad*%
%ADD11R,1.700000X1.700000*%
%TD*%
%TA.AperFunction,ComponentPad*%
%ADD12O,1.700000X1.700000*%
%TD*%
%TA.AperFunction,SMDPad,CuDef*%
%ADD13RoundRect,0.200000X0.275000X-0.200000X0.275000X0.200000X-0.275000X0.200000X-0.275000X-0.200000X0*%
%TD*%
%TA.AperFunction,Conductor*%
%ADD14C,0.500000*%
%TD*%
G04 APERTURE END LIST*
D10*
%TO.P,J3,1,Pin_1*%
%TO.N,GND*%
X168320000Y-105460000D03*
%TO.P,J3,2,Pin_2*%
%TO.N,IO_14*%
X168320000Y-102960000D03*
%TO.P,J3,3,Pin_3*%
%TO.N,IO_13*%
X168320000Y-100460000D03*
%TO.P,J3,4,Pin_4*%
%TO.N,PMU_DC_DC5*%
X168320000Y-97960000D03*
%TD*%
D11*
%TO.P,J1,1,Pin_1*%
%TO.N,IO_37*%
X125300000Y-83500000D03*
D12*
%TO.P,J1,2,Pin_2*%
%TO.N,IO_36*%
X125300000Y-86040000D03*
%TO.P,J1,3,Pin_3*%
%TO.N,unconnected-(J1-Pin_3-Pad3)*%
X125300000Y-88580000D03*
%TO.P,J1,4,Pin_4*%
%TO.N,unconnected-(J1-Pin_4-Pad4)*%
X125300000Y-91120000D03*
%TO.P,J1,5,Pin_5*%
%TO.N,unconnected-(J1-Pin_5-Pad5)*%
X125300000Y-93660000D03*
%TO.P,J1,6,Pin_6*%
%TO.N,IO_48*%
X125300000Y-96200000D03*
%TO.P,J1,7,Pin_7*%
%TO.N,IO_47*%
X125300000Y-98740000D03*
%TO.P,J1,8,Pin_8*%
%TO.N,IO_21*%
X125300000Y-101280000D03*
%TO.P,J1,9,Pin_9*%
%TO.N,GND*%
X125300000Y-103820000D03*
%TO.P,J1,10,Pin_10*%
%TO.N,unconnected-(J1-Pin_10-Pad10)*%
X125300000Y-106360000D03*
%TD*%
%TO.P, ,10,Pin_10*%
%TO.N,PMU_DC_DC5*%
X155500000Y-106360000D03*
%TO.P, ,9,Pin_9*%
%TO.N,GND*%
X155500000Y-103820000D03*
%TO.P, ,8,Pin_8*%
%TO.N,IO_14*%
X155500000Y-101280000D03*
%TO.P, ,7,Pin_7*%
%TO.N,IO_13*%
X155500000Y-98740000D03*
%TO.P, ,6,Pin_6*%
%TO.N,IO_12*%
X155500000Y-96200000D03*
%TO.P, ,5,Pin_5*%
%TO.N,IO_11*%
X155500000Y-93660000D03*
%TO.P, ,4,Pin_4*%
%TO.N,IO_10*%
X155500000Y-91120000D03*
%TO.P, ,3,Pin_3*%
%TO.N,IO_09*%
X155500000Y-88580000D03*
%TO.P, ,2,Pin_2*%
%TO.N,unconnected-(J2-Pin_2-Pad2)*%
X155500000Y-86040000D03*
D11*
%TO.P, ,1,Pin_1*%
%TO.N,unconnected-(J2-Pin_1-Pad1)*%
X155500000Y-83500000D03*
%TD*%
D10*
%TO.P,J8,1,Pin_1*%
%TO.N,GND*%
X168240000Y-77860000D03*
%TO.P,J8,2,Pin_2*%
%TO.N,IO_10*%
X168240000Y-75360000D03*
%TO.P,J8,3,Pin_3*%
%TO.N,IO_09*%
X168240000Y-72860000D03*
%TO.P,J8,4,Pin_4*%
%TO.N,PMU_DC_DC5*%
X168240000Y-70360000D03*
%TD*%
%TO.P,J7,1,Pin_1*%
%TO.N,GND*%
X112880000Y-71760000D03*
%TO.P,J7,2,Pin_2*%
%TO.N,IO_37*%
X112880000Y-74260000D03*
%TO.P,J7,3,Pin_3*%
%TO.N,PMU_DC_DC5*%
X112880000Y-76760000D03*
%TO.P,J7,4*%
%TO.N,N/C*%
X112880000Y-79260000D03*
%TD*%
%TO.P,J4,1,Pin_1*%
%TO.N,GND*%
X168300000Y-91610000D03*
%TO.P,J4,2,Pin_2*%
%TO.N,IO_12*%
X168300000Y-89110000D03*
%TO.P,J4,3,Pin_3*%
%TO.N,IO_11*%
X168300000Y-86610000D03*
%TO.P,J4,4,Pin_4*%
%TO.N,PMU_DC_DC5*%
X168300000Y-84110000D03*
%TD*%
%TO.P,J6,1,Pin_1*%
%TO.N,GND*%
X112920000Y-85400000D03*
%TO.P,J6,2,Pin_2*%
%TO.N,IO_36*%
X112920000Y-87900000D03*
%TO.P,J6,3,Pin_3*%
%TO.N,IO_48*%
X112920000Y-90400000D03*
%TO.P,J6,4,Pin_4*%
%TO.N,PMU_DC_DC5*%
X112920000Y-92900000D03*
%TD*%
%TO.P,J5,1,Pin_1*%
%TO.N,GND*%
X112990000Y-99210000D03*
%TO.P,J5,2,Pin_2*%
%TO.N,IO_47*%
X112990000Y-101710000D03*
%TO.P,J5,3,Pin_3*%
%TO.N,IO_21*%
X112990000Y-104210000D03*
%TO.P,J5,4,Pin_4*%
%TO.N,PMU_DC_DC5*%
X112990000Y-106710000D03*
%TD*%
D13*
%TO.P,R1,1*%
%TO.N,PMU_DC_DC5*%
X115150000Y-75805000D03*
%TO.P,R1,2*%
%TO.N,IO_37*%
X115150000Y-74155000D03*
%TD*%
D14*
%TO.N,PMU_DC_DC5*%
X155540000Y-106400000D02*
X162490000Y-106400000D01*
X162490000Y-106400000D02*
X165970000Y-102920000D01*
X155500000Y-106360000D02*
X155540000Y-106400000D01*
X165970000Y-102920000D02*
X165970000Y-75760000D01*
%TO.N,IO_37*%
X112880000Y-73710000D02*
X112880000Y-74260000D01*
X114760000Y-73120000D02*
X113470000Y-73120000D01*
X115150000Y-74155000D02*
X115150000Y-73510000D01*
X115150000Y-73510000D02*
X114760000Y-73120000D01*
X113470000Y-73120000D02*
X112880000Y-73710000D01*
%TO.N,PMU_DC_DC5*%
X168300000Y-84110000D02*
X166160000Y-84110000D01*
X165970000Y-75760000D02*
X165970000Y-71210000D01*
X165970000Y-80280000D02*
X165970000Y-75760000D01*
X165980000Y-97960000D02*
X168320000Y-97960000D01*
X115580000Y-76760000D02*
X116040000Y-77220000D01*
X116040000Y-80280000D02*
X165970000Y-80280000D01*
X116040000Y-92480000D02*
X116040000Y-105510000D01*
X115150000Y-76750000D02*
X115140000Y-76760000D01*
X165970000Y-97950000D02*
X165980000Y-97960000D01*
X115980000Y-92890000D02*
X116040000Y-92950000D01*
X112880000Y-76760000D02*
X115140000Y-76760000D01*
X112920000Y-92900000D02*
X112930000Y-92890000D01*
X115140000Y-76760000D02*
X115580000Y-76760000D01*
X166820000Y-70360000D02*
X168240000Y-70360000D01*
X165970000Y-71210000D02*
X166820000Y-70360000D01*
X115150000Y-75805000D02*
X115150000Y-76750000D01*
X114840000Y-106710000D02*
X112990000Y-106710000D01*
X116040000Y-77220000D02*
X116040000Y-92480000D01*
X116040000Y-105510000D02*
X114840000Y-106710000D01*
X166160000Y-84110000D02*
X165970000Y-84300000D01*
X112930000Y-92890000D02*
X115980000Y-92890000D01*
%TD*%
%TA.AperFunction,Conductor*%
%TO.N,GND*%
G36*
X126005394Y-67970971D02*
G01*
X126045519Y-67974482D01*
X126171780Y-67986919D01*
X126191682Y-67990540D01*
X126256467Y-68007899D01*
X126260203Y-68008966D01*
X126351570Y-68036682D01*
X126367959Y-68042952D01*
X126433867Y-68073686D01*
X126439867Y-68076685D01*
X126482639Y-68099548D01*
X126519046Y-68119008D01*
X126531715Y-68126791D01*
X126592889Y-68169625D01*
X126600430Y-68175346D01*
X126668455Y-68231172D01*
X126677472Y-68239345D01*
X126730653Y-68292526D01*
X126738826Y-68301543D01*
X126794652Y-68369568D01*
X126800373Y-68377109D01*
X126843207Y-68438283D01*
X126850990Y-68450952D01*
X126893304Y-68530114D01*
X126896328Y-68536163D01*
X126927041Y-68602027D01*
X126933319Y-68618436D01*
X126961008Y-68709713D01*
X126962123Y-68713616D01*
X126979454Y-68778298D01*
X126983082Y-68798237D01*
X126995523Y-68924554D01*
X126997207Y-68943801D01*
X126999030Y-68964638D01*
X126999500Y-68975406D01*
X126999500Y-77382902D01*
X126994926Y-77398478D01*
X126998903Y-77438858D01*
X126999500Y-77451012D01*
X126999500Y-77537533D01*
X127010628Y-77600645D01*
X127009311Y-77612448D01*
X127015263Y-77632067D01*
X127018717Y-77646522D01*
X127029899Y-77709938D01*
X127034143Y-77721598D01*
X127058163Y-77787592D01*
X127058992Y-77800641D01*
X127067129Y-77815864D01*
X127074289Y-77831899D01*
X127089774Y-77874441D01*
X127089776Y-77874447D01*
X127138578Y-77958974D01*
X127142056Y-77973311D01*
X127151793Y-77985176D01*
X127163325Y-78001837D01*
X127179926Y-78030590D01*
X127189372Y-78044560D01*
X127191255Y-78048084D01*
X127209702Y-78064661D01*
X127248914Y-78111393D01*
X127255485Y-78126408D01*
X127265932Y-78134982D01*
X127282254Y-78151126D01*
X127289837Y-78160163D01*
X127298872Y-78167744D01*
X127315018Y-78184067D01*
X127319147Y-78189098D01*
X127338606Y-78201085D01*
X127385337Y-78240297D01*
X127395234Y-78255172D01*
X127405438Y-78260627D01*
X127419408Y-78270072D01*
X127423942Y-78272690D01*
X127423945Y-78272692D01*
X127448165Y-78286676D01*
X127464826Y-78298207D01*
X127471770Y-78303905D01*
X127491019Y-78311417D01*
X127575555Y-78360225D01*
X127618105Y-78375712D01*
X127634141Y-78382872D01*
X127644334Y-78388320D01*
X127662401Y-78391834D01*
X127740062Y-78420101D01*
X127803476Y-78431282D01*
X127817939Y-78434738D01*
X127832541Y-78439167D01*
X127849350Y-78439370D01*
X127912468Y-78450500D01*
X127912469Y-78450500D01*
X127998997Y-78450500D01*
X128011151Y-78451097D01*
X128044302Y-78454362D01*
X128067096Y-78450500D01*
X152932903Y-78450500D01*
X152948476Y-78455073D01*
X152988848Y-78451097D01*
X153001002Y-78450500D01*
X153087530Y-78450500D01*
X153087532Y-78450500D01*
X153150646Y-78439371D01*
X153162444Y-78440687D01*
X153182055Y-78434738D01*
X153196511Y-78431284D01*
X153259938Y-78420101D01*
X153337592Y-78391836D01*
X153350638Y-78391007D01*
X153365854Y-78382874D01*
X153381890Y-78375713D01*
X153424445Y-78360225D01*
X153508976Y-78311420D01*
X153523310Y-78307942D01*
X153535172Y-78298208D01*
X153551834Y-78286676D01*
X153576055Y-78272692D01*
X153576055Y-78272691D01*
X153580586Y-78270076D01*
X153594564Y-78260625D01*
X153598082Y-78258744D01*
X153614658Y-78240300D01*
X153661395Y-78201083D01*
X153676407Y-78194513D01*
X153684977Y-78184071D01*
X153701121Y-78167750D01*
X153710163Y-78160163D01*
X153717750Y-78151121D01*
X153734071Y-78134977D01*
X153739099Y-78130850D01*
X153751082Y-78111397D01*
X153790297Y-78064661D01*
X153805172Y-78054764D01*
X153810625Y-78044564D01*
X153820076Y-78030586D01*
X153831961Y-78010000D01*
X153836676Y-78001834D01*
X153848208Y-77985172D01*
X153853903Y-77978231D01*
X153861418Y-77958979D01*
X153910225Y-77874445D01*
X153925713Y-77831890D01*
X153932874Y-77815854D01*
X153938319Y-77805666D01*
X153941835Y-77787595D01*
X153970101Y-77709938D01*
X153981284Y-77646511D01*
X153984738Y-77632055D01*
X153989166Y-77617458D01*
X153989370Y-77600649D01*
X154000500Y-77537532D01*
X154000500Y-77451002D01*
X154001097Y-77438848D01*
X154004362Y-77405696D01*
X154000500Y-77382903D01*
X154000500Y-68975412D01*
X154000972Y-68964605D01*
X154004475Y-68924564D01*
X154016919Y-68798215D01*
X154020539Y-68778322D01*
X154037908Y-68713498D01*
X154038956Y-68709828D01*
X154066685Y-68618419D01*
X154072948Y-68602049D01*
X154103700Y-68536102D01*
X154106670Y-68530161D01*
X154149012Y-68450944D01*
X154156786Y-68438289D01*
X154199639Y-68377089D01*
X154205330Y-68369587D01*
X154261191Y-68301521D01*
X154269325Y-68292547D01*
X154322547Y-68239325D01*
X154331521Y-68231191D01*
X154399587Y-68175330D01*
X154407089Y-68169639D01*
X154468289Y-68126786D01*
X154480944Y-68119012D01*
X154560161Y-68076670D01*
X154566102Y-68073700D01*
X154632049Y-68042948D01*
X154648419Y-68036685D01*
X154739828Y-68008956D01*
X154743498Y-68007908D01*
X154808318Y-67990540D01*
X154828221Y-67986918D01*
X154954471Y-67974483D01*
X154994640Y-67970968D01*
X155005402Y-67970500D01*
X173074587Y-67970500D01*
X173085394Y-67970971D01*
X173125519Y-67974482D01*
X173251780Y-67986919D01*
X173271682Y-67990540D01*
X173336467Y-68007899D01*
X173340203Y-68008966D01*
X173431570Y-68036682D01*
X173447959Y-68042952D01*
X173513867Y-68073686D01*
X173519867Y-68076685D01*
X173562639Y-68099548D01*
X173599046Y-68119008D01*
X173611715Y-68126791D01*
X173672889Y-68169625D01*
X173680430Y-68175346D01*
X173748455Y-68231172D01*
X173757472Y-68239345D01*
X173810653Y-68292526D01*
X173818826Y-68301543D01*
X173874652Y-68369568D01*
X173880373Y-68377109D01*
X173923207Y-68438283D01*
X173930990Y-68450952D01*
X173973304Y-68530114D01*
X173976328Y-68536163D01*
X174007041Y-68602027D01*
X174013319Y-68618436D01*
X174041008Y-68709713D01*
X174042123Y-68713616D01*
X174059454Y-68778298D01*
X174063082Y-68798237D01*
X174075523Y-68924554D01*
X174077207Y-68943801D01*
X174079030Y-68964638D01*
X174079500Y-68975406D01*
X174079500Y-107994583D01*
X174079028Y-108005393D01*
X174075523Y-108045445D01*
X174063082Y-108171764D01*
X174059455Y-108191696D01*
X174042123Y-108256382D01*
X174041008Y-108260285D01*
X174013319Y-108351562D01*
X174007041Y-108367971D01*
X173976328Y-108433835D01*
X173973304Y-108439884D01*
X173930990Y-108519046D01*
X173923207Y-108531715D01*
X173880373Y-108592889D01*
X173874652Y-108600430D01*
X173818826Y-108668455D01*
X173810653Y-108677472D01*
X173757472Y-108730653D01*
X173748455Y-108738826D01*
X173680430Y-108794652D01*
X173672889Y-108800373D01*
X173611715Y-108843207D01*
X173599046Y-108850990D01*
X173519884Y-108893304D01*
X173513835Y-108896328D01*
X173447971Y-108927041D01*
X173431562Y-108933319D01*
X173340285Y-108961008D01*
X173336382Y-108962123D01*
X173271700Y-108979454D01*
X173251761Y-108983082D01*
X173125445Y-108995523D01*
X173106131Y-108997213D01*
X173085360Y-108999031D01*
X173074594Y-108999500D01*
X154505416Y-108999500D01*
X154494606Y-108999028D01*
X154454554Y-108995523D01*
X154328234Y-108983082D01*
X154308302Y-108979455D01*
X154243616Y-108962123D01*
X154239713Y-108961008D01*
X154148436Y-108933319D01*
X154132027Y-108927041D01*
X154066163Y-108896328D01*
X154060114Y-108893304D01*
X153980952Y-108850990D01*
X153968283Y-108843207D01*
X153907109Y-108800373D01*
X153899568Y-108794652D01*
X153831543Y-108738826D01*
X153822526Y-108730653D01*
X153769345Y-108677472D01*
X153761172Y-108668455D01*
X153705346Y-108600430D01*
X153699625Y-108592889D01*
X153656791Y-108531715D01*
X153649008Y-108519046D01*
X153629548Y-108482639D01*
X153606685Y-108439867D01*
X153603686Y-108433867D01*
X153572952Y-108367959D01*
X153566682Y-108351570D01*
X153538966Y-108260203D01*
X153537899Y-108256467D01*
X153520541Y-108191685D01*
X153516918Y-108171773D01*
X153504476Y-108045444D01*
X153503601Y-108035449D01*
X153500968Y-108005360D01*
X153500500Y-107994597D01*
X153500500Y-85067095D01*
X153505073Y-85051521D01*
X153501097Y-85011149D01*
X153500500Y-84998996D01*
X153500500Y-84912468D01*
X153500499Y-84912467D01*
X153489371Y-84849352D01*
X153490687Y-84837551D01*
X153484738Y-84817939D01*
X153481282Y-84803475D01*
X153479575Y-84793795D01*
X153470101Y-84740062D01*
X153441835Y-84662404D01*
X153441006Y-84649359D01*
X153432872Y-84634141D01*
X153425712Y-84618105D01*
X153410225Y-84575555D01*
X153361419Y-84491021D01*
X153357941Y-84476687D01*
X153348207Y-84464826D01*
X153336676Y-84448165D01*
X153322692Y-84423945D01*
X153322690Y-84423942D01*
X153320072Y-84419408D01*
X153310627Y-84405438D01*
X153308745Y-84401918D01*
X153290297Y-84385337D01*
X153251085Y-84338606D01*
X153244513Y-84323591D01*
X153234067Y-84315018D01*
X153217744Y-84298872D01*
X153210163Y-84289837D01*
X153201126Y-84282254D01*
X153184982Y-84265932D01*
X153180856Y-84260905D01*
X153161393Y-84248914D01*
X153114661Y-84209702D01*
X153104763Y-84194825D01*
X153094560Y-84189372D01*
X153080590Y-84179926D01*
X153051837Y-84163325D01*
X153035176Y-84151793D01*
X153028235Y-84146097D01*
X153008974Y-84138578D01*
X152924447Y-84089776D01*
X152924446Y-84089775D01*
X152924445Y-84089775D01*
X152881899Y-84074289D01*
X152865864Y-84067129D01*
X152855670Y-84061680D01*
X152837592Y-84058163D01*
X152786577Y-84039595D01*
X152759938Y-84029899D01*
X152696530Y-84018718D01*
X152682067Y-84015263D01*
X152667462Y-84010832D01*
X152650645Y-84010628D01*
X152587533Y-83999500D01*
X152587532Y-83999500D01*
X152501012Y-83999500D01*
X152488858Y-83998903D01*
X152455817Y-83995648D01*
X152432952Y-83999527D01*
X128567150Y-84009471D01*
X128551612Y-84004915D01*
X128511133Y-84008903D01*
X128498978Y-84009500D01*
X128413340Y-84009500D01*
X128351814Y-84020348D01*
X128339854Y-84019014D01*
X128319870Y-84025076D01*
X128305408Y-84028531D01*
X128242660Y-84039595D01*
X128166733Y-84067230D01*
X128153481Y-84068072D01*
X128137900Y-84076400D01*
X128121861Y-84083562D01*
X128079799Y-84098871D01*
X127997000Y-84146675D01*
X127982443Y-84150205D01*
X127970274Y-84160193D01*
X127953613Y-84171724D01*
X127925078Y-84188199D01*
X127911255Y-84197544D01*
X127907517Y-84199541D01*
X127890698Y-84218258D01*
X127846007Y-84255759D01*
X127830765Y-84262429D01*
X127821955Y-84273165D01*
X127805812Y-84289486D01*
X127796935Y-84296935D01*
X127789486Y-84305812D01*
X127773165Y-84321955D01*
X127767926Y-84326254D01*
X127755759Y-84346007D01*
X127718258Y-84390698D01*
X127703165Y-84400739D01*
X127697544Y-84411255D01*
X127688199Y-84425078D01*
X127671724Y-84453613D01*
X127660193Y-84470274D01*
X127654306Y-84477447D01*
X127646675Y-84497000D01*
X127598871Y-84579799D01*
X127583562Y-84621861D01*
X127576400Y-84637900D01*
X127570801Y-84648373D01*
X127567230Y-84666733D01*
X127539595Y-84742660D01*
X127528531Y-84805408D01*
X127525076Y-84819870D01*
X127520555Y-84834772D01*
X127520348Y-84851814D01*
X127509500Y-84913339D01*
X127509500Y-84998973D01*
X127508903Y-85011128D01*
X127505635Y-85044301D01*
X127509500Y-85067106D01*
X127509500Y-107984584D01*
X127509028Y-107995393D01*
X127505523Y-108035449D01*
X127492900Y-108163610D01*
X127489273Y-108183543D01*
X127471786Y-108248804D01*
X127470672Y-108252705D01*
X127442614Y-108345201D01*
X127436336Y-108361610D01*
X127405322Y-108428121D01*
X127402297Y-108434171D01*
X127359445Y-108514340D01*
X127351662Y-108527009D01*
X127308392Y-108588805D01*
X127302671Y-108596346D01*
X127246140Y-108665230D01*
X127237967Y-108674247D01*
X127184247Y-108727967D01*
X127175230Y-108736140D01*
X127106346Y-108792671D01*
X127098805Y-108798392D01*
X127037009Y-108841662D01*
X127024340Y-108849445D01*
X126944171Y-108892297D01*
X126938121Y-108895322D01*
X126871610Y-108926336D01*
X126855201Y-108932614D01*
X126762705Y-108960672D01*
X126758804Y-108961786D01*
X126693547Y-108979272D01*
X126673608Y-108982900D01*
X126545450Y-108995523D01*
X126531967Y-108996703D01*
X126505360Y-108999031D01*
X126494595Y-108999500D01*
X108215416Y-108999500D01*
X108204606Y-108999028D01*
X108164554Y-108995523D01*
X108038234Y-108983082D01*
X108018302Y-108979455D01*
X107953616Y-108962123D01*
X107949713Y-108961008D01*
X107858436Y-108933319D01*
X107842027Y-108927041D01*
X107776163Y-108896328D01*
X107770114Y-108893304D01*
X107690952Y-108850990D01*
X107678283Y-108843207D01*
X107617109Y-108800373D01*
X107609568Y-108794652D01*
X107541543Y-108738826D01*
X107532526Y-108730653D01*
X107479345Y-108677472D01*
X107471172Y-108668455D01*
X107415346Y-108600430D01*
X107409625Y-108592889D01*
X107366791Y-108531715D01*
X107359008Y-108519046D01*
X107339548Y-108482639D01*
X107316685Y-108439867D01*
X107313686Y-108433867D01*
X107282952Y-108367959D01*
X107276682Y-108351570D01*
X107248966Y-108260203D01*
X107247899Y-108256467D01*
X107230541Y-108191685D01*
X107226918Y-108171773D01*
X107214476Y-108045444D01*
X107213601Y-108035449D01*
X107210968Y-108005360D01*
X107210500Y-107994597D01*
X107210500Y-79259999D01*
X111624722Y-79259999D01*
X111643792Y-79477974D01*
X111657598Y-79529500D01*
X111700425Y-79689330D01*
X111792898Y-79887639D01*
X111918402Y-80066877D01*
X112073123Y-80221598D01*
X112252361Y-80347102D01*
X112450670Y-80439575D01*
X112662023Y-80496207D01*
X112807340Y-80508920D01*
X112879999Y-80515277D01*
X112879999Y-80515276D01*
X112880000Y-80515277D01*
X113097977Y-80496207D01*
X113309330Y-80439575D01*
X113507639Y-80347102D01*
X113686877Y-80221598D01*
X113841598Y-80066877D01*
X113967102Y-79887639D01*
X114059575Y-79689330D01*
X114116207Y-79477977D01*
X114135277Y-79260000D01*
X114116207Y-79042023D01*
X114059575Y-78830670D01*
X113967102Y-78632362D01*
X113841598Y-78453123D01*
X113686877Y-78298402D01*
X113507639Y-78172898D01*
X113399306Y-78122381D01*
X113346868Y-78076210D01*
X113327716Y-78009016D01*
X113347932Y-77942135D01*
X113399307Y-77897618D01*
X113507639Y-77847102D01*
X113686877Y-77721598D01*
X113841598Y-77566877D01*
X113844050Y-77563374D01*
X113898629Y-77519750D01*
X113945624Y-77510500D01*
X115052279Y-77510500D01*
X115076294Y-77510500D01*
X115094264Y-77511809D01*
X115096115Y-77512080D01*
X115118023Y-77515289D01*
X115154694Y-77512080D01*
X115223191Y-77525846D01*
X115273375Y-77574461D01*
X115289500Y-77635608D01*
X115289500Y-80254554D01*
X115289290Y-80261764D01*
X115285668Y-80323933D01*
X115287616Y-80334975D01*
X115289500Y-80356509D01*
X115289500Y-92015500D01*
X115269815Y-92082539D01*
X115217011Y-92128294D01*
X115165500Y-92139500D01*
X113978622Y-92139500D01*
X113911583Y-92119815D01*
X113890506Y-92099557D01*
X113889270Y-92100794D01*
X113726880Y-91938405D01*
X113726880Y-91938404D01*
X113726877Y-91938402D01*
X113547639Y-91812898D01*
X113495111Y-91788403D01*
X113439306Y-91762381D01*
X113386867Y-91716208D01*
X113367716Y-91649014D01*
X113387932Y-91582133D01*
X113439306Y-91537618D01*
X113547639Y-91487102D01*
X113726877Y-91361598D01*
X113881598Y-91206877D01*
X114007102Y-91027639D01*
X114099575Y-90829330D01*
X114156207Y-90617977D01*
X114175277Y-90400000D01*
X114156207Y-90182023D01*
X114099575Y-89970670D01*
X114007102Y-89772362D01*
X113881598Y-89593123D01*
X113726877Y-89438402D01*
X113547639Y-89312898D01*
X113439306Y-89262381D01*
X113386868Y-89216210D01*
X113367716Y-89149016D01*
X113387932Y-89082135D01*
X113439307Y-89037618D01*
X113547639Y-88987102D01*
X113726877Y-88861598D01*
X113881598Y-88706877D01*
X114007102Y-88527639D01*
X114099575Y-88329330D01*
X114156207Y-88117977D01*
X114175277Y-87900000D01*
X114156207Y-87682023D01*
X114099575Y-87470670D01*
X114007102Y-87272362D01*
X113881598Y-87093123D01*
X113726877Y-86938402D01*
X113547639Y-86812898D01*
X113495921Y-86788781D01*
X113438714Y-86762105D01*
X113386275Y-86715932D01*
X113367123Y-86648739D01*
X113387339Y-86581858D01*
X113438715Y-86537340D01*
X113547388Y-86486665D01*
X113609572Y-86443124D01*
X113052534Y-85886086D01*
X113062315Y-85884680D01*
X113193100Y-85824952D01*
X113301761Y-85730798D01*
X113379493Y-85609844D01*
X113403076Y-85529524D01*
X113963124Y-86089572D01*
X114006667Y-86027385D01*
X114099102Y-85829159D01*
X114155712Y-85617886D01*
X114174775Y-85400000D01*
X114155712Y-85182113D01*
X114099102Y-84970840D01*
X114006667Y-84772615D01*
X113963123Y-84710428D01*
X113403076Y-85270475D01*
X113379493Y-85190156D01*
X113301761Y-85069202D01*
X113193100Y-84975048D01*
X113062315Y-84915320D01*
X113052534Y-84913913D01*
X113609572Y-84356875D01*
X113609571Y-84356873D01*
X113547386Y-84313331D01*
X113349161Y-84220898D01*
X113137886Y-84164287D01*
X112919999Y-84145224D01*
X112702113Y-84164287D01*
X112490840Y-84220897D01*
X112292611Y-84313333D01*
X112230428Y-84356874D01*
X112230427Y-84356875D01*
X112787466Y-84913913D01*
X112777685Y-84915320D01*
X112646900Y-84975048D01*
X112538239Y-85069202D01*
X112460507Y-85190156D01*
X112436923Y-85270475D01*
X111876875Y-84710427D01*
X111876874Y-84710428D01*
X111833333Y-84772611D01*
X111740897Y-84970840D01*
X111684287Y-85182113D01*
X111665224Y-85400000D01*
X111684287Y-85617886D01*
X111740898Y-85829161D01*
X111833331Y-86027386D01*
X111876873Y-86089571D01*
X111876875Y-86089572D01*
X112436923Y-85529523D01*
X112460507Y-85609844D01*
X112538239Y-85730798D01*
X112646900Y-85824952D01*
X112777685Y-85884680D01*
X112787466Y-85886086D01*
X112230426Y-86443124D01*
X112230427Y-86443125D01*
X112292612Y-86486667D01*
X112401284Y-86537341D01*
X112453724Y-86583513D01*
X112472876Y-86650706D01*
X112452661Y-86717587D01*
X112401286Y-86762105D01*
X112292359Y-86812899D01*
X112113122Y-86938402D01*
X111958402Y-87093122D01*
X111832898Y-87272361D01*
X111740425Y-87470668D01*
X111683792Y-87682025D01*
X111664722Y-87899999D01*
X111683792Y-88117974D01*
X111740425Y-88329331D01*
X111790261Y-88436205D01*
X111832898Y-88527639D01*
X111958402Y-88706877D01*
X112113123Y-88861598D01*
X112292361Y-88987102D01*
X112400693Y-89037618D01*
X112453132Y-89083790D01*
X112472284Y-89150984D01*
X112452068Y-89217865D01*
X112400693Y-89262382D01*
X112292361Y-89312898D01*
X112113122Y-89438402D01*
X111958402Y-89593122D01*
X111832898Y-89772361D01*
X111740425Y-89970668D01*
X111683792Y-90182025D01*
X111664722Y-90400000D01*
X111683792Y-90617974D01*
X111694071Y-90656337D01*
X111740425Y-90829330D01*
X111832898Y-91027639D01*
X111958402Y-91206877D01*
X112113123Y-91361598D01*
X112292361Y-91487102D01*
X112400691Y-91537617D01*
X112400693Y-91537618D01*
X112453132Y-91583790D01*
X112472284Y-91650984D01*
X112452068Y-91717865D01*
X112400693Y-91762382D01*
X112292361Y-91812898D01*
X112113122Y-91938402D01*
X111958402Y-92093122D01*
X111832898Y-92272361D01*
X111740425Y-92470668D01*
X111683792Y-92682025D01*
X111664722Y-92900000D01*
X111683792Y-93117974D01*
X111704789Y-93196337D01*
X111740425Y-93329330D01*
X111832898Y-93527639D01*
X111958402Y-93706877D01*
X112113123Y-93861598D01*
X112292361Y-93987102D01*
X112490670Y-94079575D01*
X112702023Y-94136207D01*
X112920000Y-94155277D01*
X113137977Y-94136207D01*
X113349330Y-94079575D01*
X113547639Y-93987102D01*
X113726877Y-93861598D01*
X113881598Y-93706877D01*
X113891052Y-93693374D01*
X113945630Y-93649751D01*
X113992626Y-93640500D01*
X115165500Y-93640500D01*
X115232539Y-93660185D01*
X115278294Y-93712989D01*
X115289500Y-93764500D01*
X115289500Y-105147769D01*
X115269815Y-105214808D01*
X115253181Y-105235450D01*
X114565451Y-105923181D01*
X114504128Y-105956666D01*
X114477770Y-105959500D01*
X114055624Y-105959500D01*
X113988585Y-105939815D01*
X113954047Y-105906621D01*
X113951595Y-105903119D01*
X113796880Y-105748405D01*
X113796877Y-105748402D01*
X113617639Y-105622898D01*
X113509306Y-105572381D01*
X113456868Y-105526210D01*
X113437716Y-105459016D01*
X113457932Y-105392135D01*
X113509307Y-105347618D01*
X113617639Y-105297102D01*
X113796877Y-105171598D01*
X113951598Y-105016877D01*
X114077102Y-104837639D01*
X114169575Y-104639330D01*
X114226207Y-104427977D01*
X114245277Y-104210000D01*
X114226207Y-103992023D01*
X114169575Y-103780670D01*
X114077102Y-103582362D01*
X113951598Y-103403123D01*
X113796877Y-103248402D01*
X113617639Y-103122898D01*
X113509306Y-103072381D01*
X113456868Y-103026210D01*
X113437716Y-102959016D01*
X113457932Y-102892135D01*
X113509307Y-102847618D01*
X113617639Y-102797102D01*
X113796877Y-102671598D01*
X113951598Y-102516877D01*
X114077102Y-102337639D01*
X114169575Y-102139330D01*
X114226207Y-101927977D01*
X114245277Y-101710000D01*
X114226207Y-101492023D01*
X114169575Y-101280670D01*
X114077102Y-101082362D01*
X113951598Y-100903123D01*
X113796877Y-100748402D01*
X113617639Y-100622898D01*
X113565921Y-100598781D01*
X113508714Y-100572105D01*
X113456275Y-100525932D01*
X113437123Y-100458739D01*
X113457339Y-100391858D01*
X113508715Y-100347340D01*
X113617388Y-100296665D01*
X113679572Y-100253124D01*
X113122534Y-99696086D01*
X113132315Y-99694680D01*
X113263100Y-99634952D01*
X113371761Y-99540798D01*
X113449493Y-99419844D01*
X113473076Y-99339524D01*
X114033124Y-99899572D01*
X114076667Y-99837385D01*
X114169102Y-99639159D01*
X114225712Y-99427886D01*
X114244775Y-99210000D01*
X114225712Y-98992113D01*
X114169102Y-98780840D01*
X114076667Y-98582615D01*
X114033123Y-98520428D01*
X113473076Y-99080475D01*
X113449493Y-99000156D01*
X113371761Y-98879202D01*
X113263100Y-98785048D01*
X113132315Y-98725320D01*
X113122534Y-98723913D01*
X113679572Y-98166875D01*
X113679571Y-98166873D01*
X113617386Y-98123331D01*
X113419161Y-98030898D01*
X113207886Y-97974287D01*
X112990000Y-97955224D01*
X112772113Y-97974287D01*
X112560840Y-98030897D01*
X112362611Y-98123333D01*
X112300428Y-98166874D01*
X112300427Y-98166875D01*
X112857466Y-98723913D01*
X112847685Y-98725320D01*
X112716900Y-98785048D01*
X112608239Y-98879202D01*
X112530507Y-99000156D01*
X112506923Y-99080475D01*
X111946875Y-98520427D01*
X111946874Y-98520428D01*
X111903333Y-98582611D01*
X111810897Y-98780840D01*
X111754287Y-98992113D01*
X111735224Y-99210000D01*
X111754287Y-99427886D01*
X111810898Y-99639161D01*
X111903331Y-99837386D01*
X111946873Y-99899571D01*
X111946875Y-99899572D01*
X112506923Y-99339523D01*
X112530507Y-99419844D01*
X112608239Y-99540798D01*
X112716900Y-99634952D01*
X112847685Y-99694680D01*
X112857466Y-99696086D01*
X112300426Y-100253124D01*
X112300427Y-100253125D01*
X112362612Y-100296667D01*
X112471284Y-100347341D01*
X112523724Y-100393513D01*
X112542876Y-100460706D01*
X112522661Y-100527587D01*
X112471286Y-100572105D01*
X112362359Y-100622899D01*
X112183122Y-100748402D01*
X112028402Y-100903122D01*
X111902898Y-101082361D01*
X111810425Y-101280668D01*
X111753792Y-101492025D01*
X111734722Y-101709999D01*
X111753792Y-101927974D01*
X111810425Y-102139331D01*
X111860261Y-102246205D01*
X111902898Y-102337639D01*
X112028402Y-102516877D01*
X112183123Y-102671598D01*
X112362361Y-102797102D01*
X112470693Y-102847618D01*
X112523132Y-102893790D01*
X112542284Y-102960984D01*
X112522068Y-103027865D01*
X112470693Y-103072382D01*
X112362361Y-103122898D01*
X112183122Y-103248402D01*
X112028402Y-103403122D01*
X111902898Y-103582361D01*
X111810425Y-103780668D01*
X111753792Y-103992025D01*
X111734722Y-104210000D01*
X111753792Y-104427974D01*
X111753793Y-104427977D01*
X111810425Y-104639330D01*
X111902898Y-104837639D01*
X112028402Y-105016877D01*
X112183123Y-105171598D01*
X112362361Y-105297102D01*
X112470693Y-105347618D01*
X112523132Y-105393790D01*
X112542284Y-105460984D01*
X112522068Y-105527865D01*
X112470693Y-105572382D01*
X112362361Y-105622898D01*
X112183122Y-105748402D01*
X112028402Y-105903122D01*
X111902898Y-106082361D01*
X111810425Y-106280668D01*
X111753792Y-106492025D01*
X111734722Y-106710000D01*
X111753792Y-106927974D01*
X111810425Y-107139331D01*
X111853358Y-107231401D01*
X111902898Y-107337639D01*
X112028402Y-107516877D01*
X112183123Y-107671598D01*
X112362361Y-107797102D01*
X112560670Y-107889575D01*
X112772023Y-107946207D01*
X112917341Y-107958920D01*
X112989999Y-107965277D01*
X112989999Y-107965276D01*
X112990000Y-107965277D01*
X113207977Y-107946207D01*
X113419330Y-107889575D01*
X113617639Y-107797102D01*
X113796877Y-107671598D01*
X113951598Y-107516877D01*
X113954050Y-107513374D01*
X114008629Y-107469750D01*
X114055624Y-107460500D01*
X114776294Y-107460500D01*
X114794264Y-107461809D01*
X114798320Y-107462402D01*
X114818023Y-107465289D01*
X114867368Y-107460972D01*
X114878176Y-107460500D01*
X114880100Y-107460500D01*
X114883709Y-107460500D01*
X114914550Y-107456894D01*
X114918031Y-107456539D01*
X114992797Y-107449999D01*
X114992797Y-107449998D01*
X114994052Y-107449889D01*
X115013062Y-107445674D01*
X115014250Y-107445241D01*
X115014255Y-107445241D01*
X115084820Y-107419557D01*
X115088095Y-107418419D01*
X115159334Y-107394814D01*
X115159336Y-107394812D01*
X115160536Y-107394415D01*
X115178063Y-107385929D01*
X115179112Y-107385238D01*
X115179117Y-107385237D01*
X115241806Y-107344005D01*
X115244798Y-107342099D01*
X115308656Y-107302712D01*
X115308656Y-107302711D01*
X115309729Y-107302050D01*
X115324824Y-107289753D01*
X115325692Y-107288832D01*
X115325696Y-107288830D01*
X115377185Y-107234253D01*
X115379631Y-107231735D01*
X116251366Y-106359999D01*
X123944340Y-106359999D01*
X123964936Y-106595407D01*
X123991813Y-106695712D01*
X124026097Y-106823663D01*
X124125965Y-107037830D01*
X124261505Y-107231401D01*
X124428599Y-107398495D01*
X124622170Y-107534035D01*
X124836337Y-107633903D01*
X125064592Y-107695063D01*
X125300000Y-107715659D01*
X125535408Y-107695063D01*
X125763663Y-107633903D01*
X125977830Y-107534035D01*
X126171401Y-107398495D01*
X126338495Y-107231401D01*
X126474035Y-107037830D01*
X126573903Y-106823663D01*
X126635063Y-106595408D01*
X126655659Y-106360000D01*
X126635063Y-106124592D01*
X126573903Y-105896337D01*
X126474035Y-105682171D01*
X126338495Y-105488599D01*
X126171401Y-105321505D01*
X125985402Y-105191267D01*
X125941780Y-105136692D01*
X125934587Y-105067193D01*
X125966109Y-105004839D01*
X125985405Y-104988119D01*
X126171078Y-104858109D01*
X126338106Y-104691081D01*
X126473600Y-104497576D01*
X126573430Y-104283492D01*
X126630636Y-104070000D01*
X125733686Y-104070000D01*
X125759493Y-104029844D01*
X125800000Y-103891889D01*
X125800000Y-103748111D01*
X125759493Y-103610156D01*
X125733686Y-103570000D01*
X126630636Y-103570000D01*
X126630635Y-103569999D01*
X126573430Y-103356507D01*
X126473599Y-103142421D01*
X126338109Y-102948921D01*
X126171081Y-102781893D01*
X125985404Y-102651880D01*
X125941780Y-102597303D01*
X125934587Y-102527804D01*
X125966109Y-102465450D01*
X125985399Y-102448734D01*
X126171401Y-102318495D01*
X126338495Y-102151401D01*
X126474035Y-101957830D01*
X126573903Y-101743663D01*
X126635063Y-101515408D01*
X126655659Y-101280000D01*
X126635063Y-101044592D01*
X126573903Y-100816337D01*
X126474035Y-100602171D01*
X126338495Y-100408599D01*
X126171401Y-100241505D01*
X125985839Y-100111573D01*
X125942215Y-100056997D01*
X125935023Y-99987498D01*
X125966545Y-99925144D01*
X125985831Y-99908432D01*
X126171401Y-99778495D01*
X126338495Y-99611401D01*
X126474035Y-99417830D01*
X126573903Y-99203663D01*
X126635063Y-98975408D01*
X126655659Y-98740000D01*
X126635063Y-98504592D01*
X126573903Y-98276337D01*
X126474035Y-98062171D01*
X126338495Y-97868599D01*
X126171401Y-97701505D01*
X125985839Y-97571573D01*
X125942215Y-97516997D01*
X125935023Y-97447498D01*
X125966545Y-97385144D01*
X125985831Y-97368432D01*
X126171401Y-97238495D01*
X126338495Y-97071401D01*
X126474035Y-96877830D01*
X126573903Y-96663663D01*
X126635063Y-96435408D01*
X126655659Y-96200000D01*
X126635063Y-95964592D01*
X126573903Y-95736337D01*
X126474035Y-95522171D01*
X126338495Y-95328599D01*
X126171401Y-95161505D01*
X125985839Y-95031573D01*
X125942216Y-94976998D01*
X125935022Y-94907500D01*
X125966545Y-94845145D01*
X125985837Y-94828428D01*
X126171401Y-94698495D01*
X126338495Y-94531401D01*
X126474035Y-94337830D01*
X126573903Y-94123663D01*
X126635063Y-93895408D01*
X126655659Y-93660000D01*
X126635063Y-93424592D01*
X126573903Y-93196337D01*
X126474035Y-92982171D01*
X126338495Y-92788599D01*
X126171401Y-92621505D01*
X125985839Y-92491573D01*
X125942215Y-92436997D01*
X125935023Y-92367498D01*
X125966545Y-92305144D01*
X125985831Y-92288432D01*
X126171401Y-92158495D01*
X126338495Y-91991401D01*
X126474035Y-91797830D01*
X126573903Y-91583663D01*
X126635063Y-91355408D01*
X126655659Y-91120000D01*
X126635063Y-90884592D01*
X126573903Y-90656337D01*
X126474035Y-90442171D01*
X126338495Y-90248599D01*
X126171401Y-90081505D01*
X125985839Y-89951573D01*
X125942216Y-89896998D01*
X125935022Y-89827500D01*
X125966545Y-89765145D01*
X125985837Y-89748428D01*
X126171401Y-89618495D01*
X126338495Y-89451401D01*
X126474035Y-89257830D01*
X126573903Y-89043663D01*
X126635063Y-88815408D01*
X126655659Y-88580000D01*
X126635063Y-88344592D01*
X126573903Y-88116337D01*
X126474035Y-87902171D01*
X126338495Y-87708599D01*
X126171401Y-87541505D01*
X125985839Y-87411573D01*
X125942215Y-87356997D01*
X125935023Y-87287498D01*
X125966545Y-87225144D01*
X125985831Y-87208432D01*
X126171401Y-87078495D01*
X126338495Y-86911401D01*
X126474035Y-86717830D01*
X126573903Y-86503663D01*
X126635063Y-86275408D01*
X126655659Y-86040000D01*
X126635063Y-85804592D01*
X126573903Y-85576337D01*
X126474035Y-85362171D01*
X126338495Y-85168599D01*
X126216568Y-85046673D01*
X126183084Y-84985350D01*
X126188068Y-84915658D01*
X126229940Y-84859725D01*
X126260915Y-84842810D01*
X126392331Y-84793796D01*
X126507546Y-84707546D01*
X126593796Y-84592331D01*
X126644091Y-84457483D01*
X126650500Y-84397873D01*
X126650499Y-82602128D01*
X126644091Y-82542517D01*
X126593796Y-82407669D01*
X126507546Y-82292454D01*
X126392331Y-82206204D01*
X126257483Y-82155909D01*
X126197873Y-82149500D01*
X126194550Y-82149500D01*
X124405439Y-82149500D01*
X124405420Y-82149500D01*
X124402128Y-82149501D01*
X124398848Y-82149853D01*
X124398840Y-82149854D01*
X124342515Y-82155909D01*
X124207669Y-82206204D01*
X124092454Y-82292454D01*
X124006204Y-82407668D01*
X123955910Y-82542515D01*
X123955909Y-82542517D01*
X123949500Y-82602127D01*
X123949500Y-82605448D01*
X123949500Y-82605449D01*
X123949500Y-84394560D01*
X123949500Y-84394578D01*
X123949501Y-84397872D01*
X123949853Y-84401152D01*
X123949854Y-84401159D01*
X123955909Y-84457484D01*
X123963355Y-84477447D01*
X124006204Y-84592331D01*
X124092454Y-84707546D01*
X124207669Y-84793796D01*
X124319907Y-84835658D01*
X124339082Y-84842810D01*
X124395016Y-84884681D01*
X124419433Y-84950146D01*
X124404581Y-85018419D01*
X124383431Y-85046673D01*
X124261503Y-85168601D01*
X124125965Y-85362170D01*
X124026097Y-85576336D01*
X123964936Y-85804592D01*
X123944340Y-86040000D01*
X123964936Y-86275407D01*
X123996184Y-86392025D01*
X124026097Y-86503663D01*
X124125965Y-86717830D01*
X124261505Y-86911401D01*
X124428599Y-87078495D01*
X124614160Y-87208426D01*
X124657783Y-87263002D01*
X124664976Y-87332501D01*
X124633454Y-87394855D01*
X124614159Y-87411575D01*
X124428595Y-87541508D01*
X124261505Y-87708598D01*
X124125965Y-87902170D01*
X124026097Y-88116336D01*
X123964936Y-88344592D01*
X123944340Y-88579999D01*
X123964936Y-88815407D01*
X123985466Y-88892025D01*
X124026097Y-89043663D01*
X124125965Y-89257830D01*
X124261505Y-89451401D01*
X124428599Y-89618495D01*
X124614160Y-89748426D01*
X124657783Y-89803002D01*
X124664976Y-89872501D01*
X124633454Y-89934855D01*
X124614160Y-89951574D01*
X124442754Y-90071594D01*
X124428595Y-90081508D01*
X124261505Y-90248598D01*
X124125965Y-90442170D01*
X124026097Y-90656336D01*
X123964936Y-90884592D01*
X123944340Y-91120000D01*
X123964936Y-91355407D01*
X123976927Y-91400156D01*
X124026097Y-91583663D01*
X124125965Y-91797830D01*
X124261505Y-91991401D01*
X124428599Y-92158495D01*
X124614160Y-92288426D01*
X124657783Y-92343002D01*
X124664976Y-92412501D01*
X124633454Y-92474855D01*
X124614159Y-92491575D01*
X124428595Y-92621508D01*
X124261505Y-92788598D01*
X124125965Y-92982170D01*
X124026097Y-93196336D01*
X123964936Y-93424592D01*
X123944340Y-93659999D01*
X123964936Y-93895407D01*
X123989506Y-93987102D01*
X124026097Y-94123663D01*
X124125965Y-94337830D01*
X124261505Y-94531401D01*
X124428599Y-94698495D01*
X124614160Y-94828426D01*
X124657783Y-94883002D01*
X124664976Y-94952501D01*
X124633454Y-95014855D01*
X124614159Y-95031575D01*
X124428595Y-95161508D01*
X124261505Y-95328598D01*
X124125965Y-95522170D01*
X124026097Y-95736336D01*
X123964936Y-95964592D01*
X123944340Y-96200000D01*
X123964936Y-96435407D01*
X124009709Y-96602501D01*
X124026097Y-96663663D01*
X124125965Y-96877830D01*
X124261505Y-97071401D01*
X124428599Y-97238495D01*
X124614160Y-97368426D01*
X124657783Y-97423002D01*
X124664976Y-97492501D01*
X124633454Y-97554855D01*
X124614159Y-97571575D01*
X124428595Y-97701508D01*
X124261505Y-97868598D01*
X124125965Y-98062170D01*
X124026097Y-98276336D01*
X123964936Y-98504592D01*
X123944340Y-98740000D01*
X123964936Y-98975407D01*
X124008533Y-99138111D01*
X124026097Y-99203663D01*
X124125965Y-99417830D01*
X124261505Y-99611401D01*
X124428599Y-99778495D01*
X124614160Y-99908426D01*
X124657783Y-99963002D01*
X124664976Y-100032501D01*
X124633454Y-100094855D01*
X124614159Y-100111575D01*
X124428595Y-100241508D01*
X124261505Y-100408598D01*
X124125965Y-100602170D01*
X124026097Y-100816336D01*
X123964936Y-101044592D01*
X123944340Y-101279999D01*
X123964936Y-101515407D01*
X123998207Y-101639575D01*
X124026097Y-101743663D01*
X124125965Y-101957830D01*
X124261505Y-102151401D01*
X124428599Y-102318495D01*
X124614596Y-102448732D01*
X124658219Y-102503307D01*
X124665412Y-102572806D01*
X124633890Y-102635160D01*
X124614595Y-102651880D01*
X124428919Y-102781892D01*
X124261890Y-102948921D01*
X124126400Y-103142421D01*
X124026569Y-103356507D01*
X123969364Y-103569999D01*
X123969364Y-103570000D01*
X124866314Y-103570000D01*
X124840507Y-103610156D01*
X124800000Y-103748111D01*
X124800000Y-103891889D01*
X124840507Y-104029844D01*
X124866314Y-104070000D01*
X123969364Y-104070000D01*
X124026569Y-104283492D01*
X124126399Y-104497576D01*
X124261893Y-104691081D01*
X124428918Y-104858106D01*
X124614595Y-104988119D01*
X124658219Y-105042696D01*
X124665412Y-105112195D01*
X124633890Y-105174549D01*
X124614595Y-105191269D01*
X124428595Y-105321508D01*
X124261505Y-105488598D01*
X124125965Y-105682170D01*
X124026097Y-105896336D01*
X123964936Y-106124592D01*
X123944340Y-106359999D01*
X116251366Y-106359999D01*
X116525638Y-106085727D01*
X116539256Y-106073957D01*
X116558530Y-106059610D01*
X116590372Y-106021661D01*
X116597686Y-106013681D01*
X116598267Y-106013099D01*
X116601590Y-106009777D01*
X116620837Y-105985433D01*
X116623031Y-105982738D01*
X116671302Y-105925214D01*
X116671303Y-105925210D01*
X116672119Y-105924239D01*
X116682575Y-105907825D01*
X116683109Y-105906679D01*
X116683111Y-105906677D01*
X116714816Y-105838682D01*
X116716369Y-105835475D01*
X116750040Y-105768433D01*
X116750040Y-105768429D01*
X116750610Y-105767296D01*
X116756999Y-105748917D01*
X116757256Y-105747673D01*
X116772431Y-105674171D01*
X116773186Y-105670767D01*
X116790500Y-105597721D01*
X116790500Y-105597717D01*
X116790790Y-105596494D01*
X116792769Y-105577123D01*
X116792732Y-105575859D01*
X116792733Y-105575856D01*
X116790552Y-105500888D01*
X116790500Y-105497283D01*
X116790500Y-93013705D01*
X116791809Y-92995735D01*
X116791961Y-92994691D01*
X116795289Y-92971977D01*
X116790972Y-92922629D01*
X116790500Y-92911823D01*
X116790500Y-81154500D01*
X116810185Y-81087461D01*
X116862989Y-81041706D01*
X116914500Y-81030500D01*
X165095500Y-81030500D01*
X165162539Y-81050185D01*
X165208294Y-81102989D01*
X165219500Y-81154500D01*
X165219500Y-84210655D01*
X165217229Y-84232879D01*
X165219448Y-84309129D01*
X165219500Y-84312735D01*
X165219500Y-97886294D01*
X165218191Y-97904264D01*
X165214711Y-97928023D01*
X165217508Y-97960000D01*
X165219028Y-97977368D01*
X165219500Y-97988175D01*
X165219500Y-102557770D01*
X165199815Y-102624809D01*
X165183181Y-102645451D01*
X162215451Y-105613181D01*
X162154128Y-105646666D01*
X162127770Y-105649500D01*
X156715709Y-105649500D01*
X156648670Y-105629815D01*
X156614134Y-105596623D01*
X156545849Y-105499102D01*
X156538495Y-105488599D01*
X156371401Y-105321505D01*
X156185402Y-105191267D01*
X156141780Y-105136692D01*
X156134587Y-105067193D01*
X156166109Y-105004839D01*
X156185405Y-104988119D01*
X156371078Y-104858109D01*
X156538106Y-104691081D01*
X156673600Y-104497576D01*
X156773430Y-104283492D01*
X156830636Y-104070000D01*
X155933686Y-104070000D01*
X155959493Y-104029844D01*
X156000000Y-103891889D01*
X156000000Y-103748111D01*
X155959493Y-103610156D01*
X155933686Y-103570000D01*
X156830636Y-103570000D01*
X156830635Y-103569999D01*
X156773430Y-103356507D01*
X156673599Y-103142421D01*
X156538109Y-102948921D01*
X156371081Y-102781893D01*
X156185404Y-102651880D01*
X156141780Y-102597303D01*
X156134587Y-102527804D01*
X156166109Y-102465450D01*
X156185399Y-102448734D01*
X156371401Y-102318495D01*
X156538495Y-102151401D01*
X156674035Y-101957830D01*
X156773903Y-101743663D01*
X156835063Y-101515408D01*
X156855659Y-101280000D01*
X156835063Y-101044592D01*
X156773903Y-100816337D01*
X156674035Y-100602171D01*
X156538495Y-100408599D01*
X156371401Y-100241505D01*
X156185839Y-100111573D01*
X156142215Y-100056997D01*
X156135023Y-99987498D01*
X156166545Y-99925144D01*
X156185831Y-99908432D01*
X156371401Y-99778495D01*
X156538495Y-99611401D01*
X156674035Y-99417830D01*
X156773903Y-99203663D01*
X156835063Y-98975408D01*
X156855659Y-98740000D01*
X156835063Y-98504592D01*
X156773903Y-98276337D01*
X156674035Y-98062171D01*
X156538495Y-97868599D01*
X156371401Y-97701505D01*
X156185839Y-97571573D01*
X156142216Y-97516998D01*
X156135022Y-97447500D01*
X156166545Y-97385145D01*
X156185837Y-97368428D01*
X156371401Y-97238495D01*
X156538495Y-97071401D01*
X156674035Y-96877830D01*
X156773903Y-96663663D01*
X156835063Y-96435408D01*
X156855659Y-96200000D01*
X156835063Y-95964592D01*
X156773903Y-95736337D01*
X156674035Y-95522171D01*
X156538495Y-95328599D01*
X156371401Y-95161505D01*
X156185839Y-95031573D01*
X156142215Y-94976997D01*
X156135023Y-94907498D01*
X156166545Y-94845144D01*
X156185831Y-94828432D01*
X156371401Y-94698495D01*
X156538495Y-94531401D01*
X156674035Y-94337830D01*
X156773903Y-94123663D01*
X156835063Y-93895408D01*
X156855659Y-93660000D01*
X156835063Y-93424592D01*
X156773903Y-93196337D01*
X156674035Y-92982171D01*
X156538495Y-92788599D01*
X156371401Y-92621505D01*
X156185839Y-92491573D01*
X156142216Y-92436998D01*
X156135022Y-92367500D01*
X156166545Y-92305145D01*
X156185837Y-92288428D01*
X156371401Y-92158495D01*
X156538495Y-91991401D01*
X156674035Y-91797830D01*
X156773903Y-91583663D01*
X156835063Y-91355408D01*
X156855659Y-91120000D01*
X156835063Y-90884592D01*
X156773903Y-90656337D01*
X156674035Y-90442171D01*
X156538495Y-90248599D01*
X156371401Y-90081505D01*
X156185839Y-89951573D01*
X156142215Y-89896997D01*
X156135023Y-89827498D01*
X156166545Y-89765144D01*
X156185831Y-89748432D01*
X156371401Y-89618495D01*
X156538495Y-89451401D01*
X156674035Y-89257830D01*
X156773903Y-89043663D01*
X156835063Y-88815408D01*
X156855659Y-88580000D01*
X156847116Y-88482361D01*
X156835063Y-88344592D01*
X156830974Y-88329330D01*
X156773903Y-88116337D01*
X156674035Y-87902171D01*
X156538495Y-87708599D01*
X156371401Y-87541505D01*
X156185839Y-87411573D01*
X156142216Y-87356998D01*
X156135022Y-87287500D01*
X156166545Y-87225145D01*
X156185837Y-87208428D01*
X156371401Y-87078495D01*
X156538495Y-86911401D01*
X156674035Y-86717830D01*
X156773903Y-86503663D01*
X156835063Y-86275408D01*
X156855659Y-86040000D01*
X156835063Y-85804592D01*
X156773903Y-85576337D01*
X156674035Y-85362171D01*
X156538495Y-85168599D01*
X156416568Y-85046672D01*
X156383084Y-84985350D01*
X156388068Y-84915658D01*
X156429940Y-84859725D01*
X156460915Y-84842810D01*
X156592331Y-84793796D01*
X156707546Y-84707546D01*
X156793796Y-84592331D01*
X156844091Y-84457483D01*
X156850500Y-84397873D01*
X156850499Y-82602128D01*
X156844091Y-82542517D01*
X156793796Y-82407669D01*
X156707546Y-82292454D01*
X156592331Y-82206204D01*
X156457483Y-82155909D01*
X156397873Y-82149500D01*
X156394550Y-82149500D01*
X154605439Y-82149500D01*
X154605420Y-82149500D01*
X154602128Y-82149501D01*
X154598848Y-82149853D01*
X154598840Y-82149854D01*
X154542515Y-82155909D01*
X154407669Y-82206204D01*
X154292454Y-82292454D01*
X154206204Y-82407668D01*
X154155910Y-82542515D01*
X154155909Y-82542517D01*
X154149500Y-82602127D01*
X154149500Y-82605448D01*
X154149500Y-82605449D01*
X154149500Y-84394560D01*
X154149500Y-84394578D01*
X154149501Y-84397872D01*
X154149853Y-84401152D01*
X154149854Y-84401159D01*
X154155909Y-84457484D01*
X154163355Y-84477447D01*
X154206204Y-84592331D01*
X154292454Y-84707546D01*
X154407669Y-84793796D01*
X154519907Y-84835658D01*
X154539082Y-84842810D01*
X154595016Y-84884681D01*
X154619433Y-84950146D01*
X154604581Y-85018419D01*
X154583431Y-85046673D01*
X154461503Y-85168601D01*
X154325965Y-85362170D01*
X154226097Y-85576336D01*
X154164936Y-85804592D01*
X154144340Y-86040000D01*
X154164936Y-86275407D01*
X154196184Y-86392025D01*
X154226097Y-86503663D01*
X154325965Y-86717830D01*
X154461505Y-86911401D01*
X154628599Y-87078495D01*
X154814160Y-87208426D01*
X154857783Y-87263002D01*
X154864976Y-87332501D01*
X154833454Y-87394855D01*
X154814159Y-87411575D01*
X154628595Y-87541508D01*
X154461505Y-87708598D01*
X154325965Y-87902170D01*
X154226097Y-88116336D01*
X154164936Y-88344592D01*
X154144340Y-88579999D01*
X154164936Y-88815407D01*
X154185466Y-88892025D01*
X154226097Y-89043663D01*
X154325965Y-89257830D01*
X154461505Y-89451401D01*
X154628599Y-89618495D01*
X154814160Y-89748426D01*
X154857783Y-89803002D01*
X154864976Y-89872501D01*
X154833454Y-89934855D01*
X154814160Y-89951574D01*
X154642754Y-90071594D01*
X154628595Y-90081508D01*
X154461505Y-90248598D01*
X154325965Y-90442170D01*
X154226097Y-90656336D01*
X154164936Y-90884592D01*
X154144340Y-91119999D01*
X154164936Y-91355407D01*
X154176927Y-91400156D01*
X154226097Y-91583663D01*
X154325965Y-91797830D01*
X154461505Y-91991401D01*
X154628599Y-92158495D01*
X154814160Y-92288426D01*
X154857783Y-92343002D01*
X154864976Y-92412501D01*
X154833454Y-92474855D01*
X154814159Y-92491575D01*
X154628595Y-92621508D01*
X154461505Y-92788598D01*
X154325965Y-92982170D01*
X154226097Y-93196336D01*
X154164936Y-93424592D01*
X154144340Y-93660000D01*
X154164936Y-93895407D01*
X154189506Y-93987102D01*
X154226097Y-94123663D01*
X154325965Y-94337830D01*
X154461505Y-94531401D01*
X154628599Y-94698495D01*
X154814160Y-94828426D01*
X154857783Y-94883002D01*
X154864976Y-94952501D01*
X154833454Y-95014855D01*
X154814159Y-95031575D01*
X154628595Y-95161508D01*
X154461505Y-95328598D01*
X154325965Y-95522170D01*
X154226097Y-95736336D01*
X154164936Y-95964592D01*
X154144340Y-96200000D01*
X154164936Y-96435407D01*
X154209709Y-96602502D01*
X154226097Y-96663663D01*
X154325965Y-96877830D01*
X154461505Y-97071401D01*
X154628599Y-97238495D01*
X154814160Y-97368426D01*
X154857783Y-97423002D01*
X154864976Y-97492501D01*
X154833454Y-97554855D01*
X154814159Y-97571575D01*
X154628595Y-97701508D01*
X154461505Y-97868598D01*
X154325965Y-98062170D01*
X154226097Y-98276336D01*
X154164936Y-98504592D01*
X154144340Y-98740000D01*
X154164936Y-98975407D01*
X154208533Y-99138111D01*
X154226097Y-99203663D01*
X154325965Y-99417830D01*
X154461505Y-99611401D01*
X154628599Y-99778495D01*
X154814160Y-99908426D01*
X154857783Y-99963002D01*
X154864976Y-100032501D01*
X154833454Y-100094855D01*
X154814159Y-100111575D01*
X154628595Y-100241508D01*
X154461505Y-100408598D01*
X154325965Y-100602170D01*
X154226097Y-100816336D01*
X154164936Y-101044592D01*
X154144340Y-101279999D01*
X154164936Y-101515407D01*
X154198207Y-101639575D01*
X154226097Y-101743663D01*
X154325965Y-101957830D01*
X154461505Y-102151401D01*
X154628599Y-102318495D01*
X154814596Y-102448732D01*
X154858219Y-102503307D01*
X154865412Y-102572806D01*
X154833890Y-102635160D01*
X154814595Y-102651880D01*
X154628919Y-102781892D01*
X154461890Y-102948921D01*
X154326400Y-103142421D01*
X154226569Y-103356507D01*
X154169364Y-103569999D01*
X154169364Y-103570000D01*
X155066314Y-103570000D01*
X155040507Y-103610156D01*
X155000000Y-103748111D01*
X155000000Y-103891889D01*
X155040507Y-104029844D01*
X155066314Y-104070000D01*
X154169364Y-104070000D01*
X154226569Y-104283492D01*
X154326399Y-104497576D01*
X154461893Y-104691081D01*
X154628918Y-104858106D01*
X154814595Y-104988119D01*
X154858219Y-105042696D01*
X154865412Y-105112195D01*
X154833890Y-105174549D01*
X154814595Y-105191269D01*
X154628595Y-105321508D01*
X154461505Y-105488598D01*
X154325965Y-105682170D01*
X154226097Y-105896336D01*
X154164936Y-106124592D01*
X154144340Y-106360000D01*
X154164936Y-106595407D01*
X154191813Y-106695712D01*
X154226097Y-106823663D01*
X154325965Y-107037830D01*
X154461505Y-107231401D01*
X154628599Y-107398495D01*
X154822170Y-107534035D01*
X155036337Y-107633903D01*
X155264592Y-107695062D01*
X155264592Y-107695063D01*
X155499999Y-107715659D01*
X155499999Y-107715658D01*
X155500000Y-107715659D01*
X155735408Y-107695063D01*
X155963663Y-107633903D01*
X156177830Y-107534035D01*
X156371401Y-107398495D01*
X156538495Y-107231401D01*
X156558119Y-107203374D01*
X156612696Y-107159751D01*
X156659693Y-107150500D01*
X162426294Y-107150500D01*
X162444264Y-107151809D01*
X162448320Y-107152402D01*
X162468023Y-107155289D01*
X162517368Y-107150972D01*
X162528176Y-107150500D01*
X162530100Y-107150500D01*
X162533709Y-107150500D01*
X162564550Y-107146894D01*
X162568031Y-107146539D01*
X162642797Y-107139999D01*
X162642797Y-107139998D01*
X162644052Y-107139889D01*
X162663062Y-107135674D01*
X162664250Y-107135241D01*
X162664255Y-107135241D01*
X162734820Y-107109557D01*
X162738095Y-107108419D01*
X162809334Y-107084814D01*
X162809336Y-107084812D01*
X162810536Y-107084415D01*
X162828063Y-107075929D01*
X162829112Y-107075238D01*
X162829117Y-107075237D01*
X162891806Y-107034005D01*
X162894798Y-107032099D01*
X162958656Y-106992712D01*
X162958656Y-106992711D01*
X162959729Y-106992050D01*
X162974824Y-106979753D01*
X162975692Y-106978832D01*
X162975696Y-106978830D01*
X163027185Y-106924253D01*
X163029631Y-106921735D01*
X166455638Y-103495727D01*
X166469256Y-103483957D01*
X166488530Y-103469610D01*
X166520372Y-103431661D01*
X166527686Y-103423681D01*
X166528267Y-103423099D01*
X166531590Y-103419777D01*
X166550837Y-103395433D01*
X166553031Y-103392738D01*
X166601302Y-103335214D01*
X166601303Y-103335210D01*
X166602119Y-103334239D01*
X166612575Y-103317825D01*
X166613109Y-103316679D01*
X166613111Y-103316677D01*
X166644816Y-103248682D01*
X166646369Y-103245475D01*
X166680040Y-103178433D01*
X166680040Y-103178429D01*
X166680610Y-103177296D01*
X166686999Y-103158917D01*
X166690405Y-103142421D01*
X166702431Y-103084171D01*
X166703186Y-103080767D01*
X166720500Y-103007721D01*
X166720500Y-103007717D01*
X166720790Y-103006494D01*
X166722769Y-102987123D01*
X166722732Y-102985859D01*
X166722733Y-102985856D01*
X166720552Y-102910888D01*
X166720500Y-102907283D01*
X166720500Y-98834500D01*
X166740185Y-98767461D01*
X166792989Y-98721706D01*
X166844500Y-98710500D01*
X167254376Y-98710500D01*
X167321415Y-98730185D01*
X167355949Y-98763374D01*
X167358402Y-98766877D01*
X167513123Y-98921598D01*
X167692361Y-99047102D01*
X167800693Y-99097618D01*
X167853132Y-99143790D01*
X167872284Y-99210984D01*
X167852068Y-99277865D01*
X167800693Y-99322382D01*
X167692361Y-99372898D01*
X167513122Y-99498402D01*
X167358402Y-99653122D01*
X167232898Y-99832361D01*
X167140425Y-100030668D01*
X167083792Y-100242025D01*
X167064722Y-100460000D01*
X167083792Y-100677974D01*
X167140425Y-100889331D01*
X167190261Y-100996205D01*
X167232898Y-101087639D01*
X167358402Y-101266877D01*
X167513123Y-101421598D01*
X167692361Y-101547102D01*
X167800693Y-101597618D01*
X167853132Y-101643790D01*
X167872284Y-101710984D01*
X167852068Y-101777865D01*
X167800693Y-101822382D01*
X167692361Y-101872898D01*
X167513122Y-101998402D01*
X167358402Y-102153122D01*
X167232898Y-102332361D01*
X167140425Y-102530668D01*
X167083792Y-102742025D01*
X167064722Y-102960000D01*
X167083792Y-103177974D01*
X167140425Y-103389331D01*
X167156443Y-103423681D01*
X167232898Y-103587639D01*
X167358402Y-103766877D01*
X167513123Y-103921598D01*
X167692361Y-104047102D01*
X167801285Y-104097894D01*
X167853724Y-104144066D01*
X167872876Y-104211260D01*
X167852660Y-104278141D01*
X167801285Y-104322658D01*
X167692612Y-104373333D01*
X167630428Y-104416874D01*
X167630427Y-104416875D01*
X168187467Y-104973913D01*
X168177685Y-104975320D01*
X168046900Y-105035048D01*
X167938239Y-105129202D01*
X167860507Y-105250156D01*
X167836923Y-105330475D01*
X167276875Y-104770427D01*
X167276874Y-104770428D01*
X167233333Y-104832611D01*
X167140897Y-105030840D01*
X167084287Y-105242113D01*
X167065224Y-105460000D01*
X167084287Y-105677886D01*
X167140898Y-105889161D01*
X167233331Y-106087386D01*
X167276873Y-106149571D01*
X167276875Y-106149572D01*
X167836923Y-105589523D01*
X167860507Y-105669844D01*
X167938239Y-105790798D01*
X168046900Y-105884952D01*
X168177685Y-105944680D01*
X168187466Y-105946086D01*
X167630426Y-106503124D01*
X167630427Y-106503125D01*
X167692610Y-106546666D01*
X167890840Y-106639102D01*
X168102113Y-106695712D01*
X168320000Y-106714775D01*
X168537886Y-106695712D01*
X168749159Y-106639102D01*
X168947385Y-106546667D01*
X169009572Y-106503124D01*
X168452534Y-105946086D01*
X168462315Y-105944680D01*
X168593100Y-105884952D01*
X168701761Y-105790798D01*
X168779493Y-105669844D01*
X168803076Y-105589524D01*
X169363124Y-106149572D01*
X169406667Y-106087385D01*
X169499102Y-105889159D01*
X169555712Y-105677886D01*
X169574775Y-105459999D01*
X169555712Y-105242113D01*
X169499102Y-105030840D01*
X169406667Y-104832615D01*
X169363123Y-104770428D01*
X168803076Y-105330475D01*
X168779493Y-105250156D01*
X168701761Y-105129202D01*
X168593100Y-105035048D01*
X168462315Y-104975320D01*
X168452533Y-104973913D01*
X169009572Y-104416874D01*
X169009571Y-104416873D01*
X168947386Y-104373331D01*
X168838716Y-104322658D01*
X168786276Y-104276486D01*
X168767124Y-104209293D01*
X168787340Y-104142411D01*
X168838715Y-104097894D01*
X168947639Y-104047102D01*
X169126877Y-103921598D01*
X169281598Y-103766877D01*
X169407102Y-103587639D01*
X169499575Y-103389330D01*
X169556207Y-103177977D01*
X169575277Y-102960000D01*
X169556207Y-102742023D01*
X169499575Y-102530670D01*
X169407102Y-102332362D01*
X169281598Y-102153123D01*
X169126877Y-101998402D01*
X168947639Y-101872898D01*
X168839306Y-101822381D01*
X168786868Y-101776210D01*
X168767716Y-101709016D01*
X168787932Y-101642135D01*
X168839307Y-101597618D01*
X168947639Y-101547102D01*
X169126877Y-101421598D01*
X169281598Y-101266877D01*
X169407102Y-101087639D01*
X169499575Y-100889330D01*
X169556207Y-100677977D01*
X169575277Y-100460000D01*
X169556207Y-100242023D01*
X169499575Y-100030670D01*
X169407102Y-99832362D01*
X169281598Y-99653123D01*
X169126877Y-99498402D01*
X168947639Y-99372898D01*
X168839306Y-99322381D01*
X168786868Y-99276210D01*
X168767716Y-99209016D01*
X168787932Y-99142135D01*
X168839307Y-99097618D01*
X168947639Y-99047102D01*
X169126877Y-98921598D01*
X169281598Y-98766877D01*
X169407102Y-98587639D01*
X169499575Y-98389330D01*
X169556207Y-98177977D01*
X169575277Y-97960000D01*
X169556207Y-97742023D01*
X169499575Y-97530670D01*
X169407102Y-97332362D01*
X169281598Y-97153123D01*
X169126877Y-96998402D01*
X168947639Y-96872898D01*
X168856205Y-96830261D01*
X168749331Y-96780425D01*
X168537974Y-96723792D01*
X168320000Y-96704722D01*
X168102025Y-96723792D01*
X167890668Y-96780425D01*
X167692361Y-96872898D01*
X167513121Y-96998403D01*
X167358404Y-97153119D01*
X167355953Y-97156621D01*
X167301377Y-97200247D01*
X167254376Y-97209500D01*
X166844500Y-97209500D01*
X166777461Y-97189815D01*
X166731706Y-97137011D01*
X166720500Y-97085500D01*
X166720500Y-84984500D01*
X166740185Y-84917461D01*
X166792989Y-84871706D01*
X166844500Y-84860500D01*
X167234376Y-84860500D01*
X167301415Y-84880185D01*
X167335949Y-84913374D01*
X167338402Y-84916877D01*
X167493123Y-85071598D01*
X167672361Y-85197102D01*
X167780693Y-85247618D01*
X167833132Y-85293790D01*
X167852284Y-85360984D01*
X167832068Y-85427865D01*
X167780693Y-85472382D01*
X167672361Y-85522898D01*
X167493122Y-85648402D01*
X167338402Y-85803122D01*
X167212898Y-85982361D01*
X167120425Y-86180668D01*
X167063792Y-86392025D01*
X167044722Y-86609999D01*
X167063792Y-86827974D01*
X167120425Y-87039331D01*
X167145509Y-87093123D01*
X167212898Y-87237639D01*
X167338402Y-87416877D01*
X167493123Y-87571598D01*
X167672361Y-87697102D01*
X167780693Y-87747618D01*
X167833132Y-87793790D01*
X167852284Y-87860984D01*
X167832068Y-87927865D01*
X167780693Y-87972382D01*
X167672361Y-88022898D01*
X167493122Y-88148402D01*
X167338402Y-88303122D01*
X167212898Y-88482361D01*
X167120425Y-88680668D01*
X167063792Y-88892025D01*
X167044722Y-89109999D01*
X167063792Y-89327974D01*
X167120425Y-89539331D01*
X167145509Y-89593123D01*
X167212898Y-89737639D01*
X167338402Y-89916877D01*
X167493123Y-90071598D01*
X167672361Y-90197102D01*
X167781285Y-90247894D01*
X167833724Y-90294066D01*
X167852876Y-90361260D01*
X167832660Y-90428141D01*
X167781285Y-90472658D01*
X167672612Y-90523333D01*
X167610428Y-90566874D01*
X167610427Y-90566875D01*
X168167467Y-91123913D01*
X168157685Y-91125320D01*
X168026900Y-91185048D01*
X167918239Y-91279202D01*
X167840507Y-91400156D01*
X167816923Y-91480475D01*
X167256875Y-90920427D01*
X167256874Y-90920428D01*
X167213333Y-90982611D01*
X167120897Y-91180840D01*
X167064287Y-91392113D01*
X167045224Y-91609999D01*
X167064287Y-91827886D01*
X167120898Y-92039161D01*
X167213331Y-92237386D01*
X167256873Y-92299571D01*
X167256875Y-92299572D01*
X167816923Y-91739523D01*
X167840507Y-91819844D01*
X167918239Y-91940798D01*
X168026900Y-92034952D01*
X168157685Y-92094680D01*
X168167466Y-92096086D01*
X167610426Y-92653124D01*
X167610427Y-92653125D01*
X167672610Y-92696666D01*
X167870840Y-92789102D01*
X168082113Y-92845712D01*
X168300000Y-92864775D01*
X168517886Y-92845712D01*
X168729159Y-92789102D01*
X168927385Y-92696667D01*
X168989572Y-92653124D01*
X168432534Y-92096086D01*
X168442315Y-92094680D01*
X168573100Y-92034952D01*
X168681761Y-91940798D01*
X168759493Y-91819844D01*
X168783076Y-91739524D01*
X169343124Y-92299572D01*
X169386667Y-92237385D01*
X169479102Y-92039159D01*
X169535712Y-91827886D01*
X169554775Y-91609999D01*
X169535712Y-91392113D01*
X169479102Y-91180840D01*
X169386667Y-90982615D01*
X169343123Y-90920428D01*
X168783076Y-91480475D01*
X168759493Y-91400156D01*
X168681761Y-91279202D01*
X168573100Y-91185048D01*
X168442315Y-91125320D01*
X168432533Y-91123913D01*
X168989572Y-90566874D01*
X168989571Y-90566873D01*
X168927386Y-90523331D01*
X168818716Y-90472658D01*
X168766276Y-90426486D01*
X168747124Y-90359293D01*
X168767340Y-90292411D01*
X168818715Y-90247894D01*
X168927639Y-90197102D01*
X169106877Y-90071598D01*
X169261598Y-89916877D01*
X169387102Y-89737639D01*
X169479575Y-89539330D01*
X169536207Y-89327977D01*
X169555277Y-89110000D01*
X169536207Y-88892023D01*
X169479575Y-88680670D01*
X169387102Y-88482362D01*
X169261598Y-88303123D01*
X169106877Y-88148402D01*
X168927639Y-88022898D01*
X168819306Y-87972381D01*
X168766868Y-87926210D01*
X168747716Y-87859016D01*
X168767932Y-87792135D01*
X168819307Y-87747618D01*
X168927639Y-87697102D01*
X169106877Y-87571598D01*
X169261598Y-87416877D01*
X169387102Y-87237639D01*
X169479575Y-87039330D01*
X169536207Y-86827977D01*
X169555277Y-86610000D01*
X169536207Y-86392023D01*
X169479575Y-86180670D01*
X169387102Y-85982362D01*
X169261598Y-85803123D01*
X169106877Y-85648402D01*
X168927639Y-85522898D01*
X168819306Y-85472381D01*
X168766868Y-85426210D01*
X168747716Y-85359016D01*
X168767932Y-85292135D01*
X168819307Y-85247618D01*
X168927639Y-85197102D01*
X169106877Y-85071598D01*
X169261598Y-84916877D01*
X169387102Y-84737639D01*
X169479575Y-84539330D01*
X169536207Y-84327977D01*
X169555277Y-84110000D01*
X169536207Y-83892023D01*
X169479575Y-83680670D01*
X169387102Y-83482362D01*
X169261598Y-83303123D01*
X169106877Y-83148402D01*
X168927639Y-83022898D01*
X168836205Y-82980261D01*
X168729331Y-82930425D01*
X168517974Y-82873792D01*
X168299999Y-82854722D01*
X168082025Y-82873792D01*
X167870668Y-82930425D01*
X167672361Y-83022898D01*
X167493121Y-83148403D01*
X167338404Y-83303119D01*
X167335953Y-83306621D01*
X167281377Y-83350247D01*
X167234376Y-83359500D01*
X166844500Y-83359500D01*
X166777461Y-83339815D01*
X166731706Y-83287011D01*
X166720500Y-83235500D01*
X166720500Y-80305444D01*
X166720710Y-80298233D01*
X166724331Y-80236065D01*
X166722384Y-80225023D01*
X166720500Y-80203490D01*
X166720500Y-71572228D01*
X166740185Y-71505189D01*
X166756814Y-71484552D01*
X167089931Y-71151435D01*
X167151252Y-71117952D01*
X167220944Y-71122936D01*
X167270158Y-71159778D01*
X167270731Y-71159206D01*
X167274713Y-71163188D01*
X167276877Y-71164808D01*
X167278304Y-71166779D01*
X167278401Y-71166876D01*
X167278402Y-71166877D01*
X167433123Y-71321598D01*
X167612361Y-71447102D01*
X167720693Y-71497618D01*
X167773132Y-71543790D01*
X167792284Y-71610984D01*
X167772068Y-71677865D01*
X167720693Y-71722382D01*
X167612361Y-71772898D01*
X167433122Y-71898402D01*
X167278402Y-72053122D01*
X167152898Y-72232361D01*
X167060425Y-72430668D01*
X167003792Y-72642025D01*
X166984722Y-72859999D01*
X167003792Y-73077974D01*
X167060425Y-73289331D01*
X167082624Y-73336936D01*
X167152898Y-73487639D01*
X167278402Y-73666877D01*
X167433123Y-73821598D01*
X167612361Y-73947102D01*
X167720693Y-73997618D01*
X167773132Y-74043790D01*
X167792284Y-74110984D01*
X167772068Y-74177865D01*
X167720693Y-74222382D01*
X167612361Y-74272898D01*
X167433122Y-74398402D01*
X167278402Y-74553122D01*
X167152898Y-74732361D01*
X167060425Y-74930668D01*
X167003792Y-75142025D01*
X166984722Y-75359999D01*
X167003792Y-75577974D01*
X167060425Y-75789331D01*
X167105270Y-75885500D01*
X167152898Y-75987639D01*
X167278402Y-76166877D01*
X167433123Y-76321598D01*
X167612361Y-76447102D01*
X167721285Y-76497894D01*
X167773724Y-76544066D01*
X167792876Y-76611260D01*
X167772660Y-76678141D01*
X167721285Y-76722658D01*
X167612612Y-76773333D01*
X167550428Y-76816874D01*
X167550427Y-76816875D01*
X168107467Y-77373913D01*
X168097685Y-77375320D01*
X167966900Y-77435048D01*
X167858239Y-77529202D01*
X167780507Y-77650156D01*
X167756923Y-77730475D01*
X167196875Y-77170427D01*
X167196874Y-77170428D01*
X167153333Y-77232611D01*
X167060897Y-77430840D01*
X167004287Y-77642113D01*
X166985224Y-77860000D01*
X167004287Y-78077886D01*
X167060898Y-78289161D01*
X167153331Y-78487386D01*
X167196873Y-78549571D01*
X167196875Y-78549572D01*
X167756923Y-77989523D01*
X167780507Y-78069844D01*
X167858239Y-78190798D01*
X167966900Y-78284952D01*
X168097685Y-78344680D01*
X168107466Y-78346086D01*
X167550426Y-78903124D01*
X167550427Y-78903125D01*
X167612610Y-78946666D01*
X167810840Y-79039102D01*
X168022113Y-79095712D01*
X168240000Y-79114775D01*
X168457886Y-79095712D01*
X168669159Y-79039102D01*
X168867385Y-78946667D01*
X168929572Y-78903124D01*
X168372534Y-78346086D01*
X168382315Y-78344680D01*
X168513100Y-78284952D01*
X168621761Y-78190798D01*
X168699493Y-78069844D01*
X168723076Y-77989524D01*
X169283124Y-78549572D01*
X169326667Y-78487385D01*
X169419102Y-78289159D01*
X169475712Y-78077886D01*
X169494775Y-77860000D01*
X169475712Y-77642113D01*
X169419102Y-77430840D01*
X169326667Y-77232615D01*
X169283123Y-77170428D01*
X168723076Y-77730475D01*
X168699493Y-77650156D01*
X168621761Y-77529202D01*
X168513100Y-77435048D01*
X168382315Y-77375320D01*
X168372533Y-77373913D01*
X168929572Y-76816874D01*
X168929571Y-76816873D01*
X168867386Y-76773331D01*
X168758716Y-76722658D01*
X168706276Y-76676486D01*
X168687124Y-76609293D01*
X168707340Y-76542411D01*
X168758715Y-76497894D01*
X168867639Y-76447102D01*
X169046877Y-76321598D01*
X169201598Y-76166877D01*
X169327102Y-75987639D01*
X169419575Y-75789330D01*
X169476207Y-75577977D01*
X169495277Y-75360000D01*
X169476207Y-75142023D01*
X169419575Y-74930670D01*
X169327102Y-74732362D01*
X169201598Y-74553123D01*
X169046877Y-74398402D01*
X168867639Y-74272898D01*
X168759306Y-74222381D01*
X168706868Y-74176210D01*
X168687716Y-74109016D01*
X168707932Y-74042135D01*
X168759307Y-73997618D01*
X168867639Y-73947102D01*
X169046877Y-73821598D01*
X169201598Y-73666877D01*
X169327102Y-73487639D01*
X169419575Y-73289330D01*
X169476207Y-73077977D01*
X169495277Y-72860000D01*
X169476207Y-72642023D01*
X169419575Y-72430670D01*
X169327102Y-72232362D01*
X169201598Y-72053123D01*
X169046877Y-71898402D01*
X168867639Y-71772898D01*
X168759306Y-71722381D01*
X168706868Y-71676210D01*
X168687716Y-71609016D01*
X168707932Y-71542135D01*
X168759307Y-71497618D01*
X168867639Y-71447102D01*
X169046877Y-71321598D01*
X169201598Y-71166877D01*
X169327102Y-70987639D01*
X169419575Y-70789330D01*
X169476207Y-70577977D01*
X169495277Y-70360000D01*
X169476207Y-70142023D01*
X169419575Y-69930670D01*
X169327102Y-69732362D01*
X169201598Y-69553123D01*
X169046877Y-69398402D01*
X168867639Y-69272898D01*
X168776205Y-69230261D01*
X168669331Y-69180425D01*
X168457974Y-69123792D01*
X168240000Y-69104722D01*
X168022025Y-69123792D01*
X167810668Y-69180425D01*
X167612361Y-69272898D01*
X167433121Y-69398403D01*
X167278404Y-69553119D01*
X167275953Y-69556621D01*
X167221377Y-69600247D01*
X167174376Y-69609500D01*
X166883707Y-69609500D01*
X166865738Y-69608191D01*
X166841977Y-69604711D01*
X166792631Y-69609028D01*
X166781824Y-69609500D01*
X166776291Y-69609500D01*
X166772730Y-69609916D01*
X166772715Y-69609917D01*
X166745501Y-69613098D01*
X166741916Y-69613464D01*
X166665961Y-69620109D01*
X166646921Y-69624330D01*
X166575232Y-69650421D01*
X166571831Y-69651603D01*
X166499474Y-69675580D01*
X166481927Y-69684075D01*
X166418221Y-69725975D01*
X166415181Y-69727912D01*
X166350280Y-69767944D01*
X166335165Y-69780256D01*
X166282832Y-69835725D01*
X166280320Y-69838311D01*
X165484359Y-70634271D01*
X165470728Y-70646051D01*
X165451470Y-70660388D01*
X165419635Y-70698328D01*
X165412338Y-70706292D01*
X165410972Y-70707657D01*
X165410950Y-70707681D01*
X165408409Y-70710223D01*
X165406173Y-70713050D01*
X165406171Y-70713053D01*
X165389176Y-70734546D01*
X165386902Y-70737337D01*
X165337894Y-70795744D01*
X165327418Y-70812187D01*
X165295192Y-70881294D01*
X165293622Y-70884536D01*
X165259393Y-70952692D01*
X165252996Y-70971098D01*
X165237573Y-71045788D01*
X165236793Y-71049305D01*
X165219208Y-71123506D01*
X165217229Y-71142879D01*
X165219448Y-71219129D01*
X165219500Y-71222735D01*
X165219500Y-79405500D01*
X165199815Y-79472539D01*
X165147011Y-79518294D01*
X165095500Y-79529500D01*
X116914500Y-79529500D01*
X116847461Y-79509815D01*
X116801706Y-79457011D01*
X116790500Y-79405500D01*
X116790500Y-77283705D01*
X116791809Y-77265735D01*
X116791980Y-77264564D01*
X116795289Y-77241977D01*
X116790971Y-77192633D01*
X116790500Y-77181827D01*
X116790500Y-77179901D01*
X116790500Y-77176291D01*
X116786894Y-77145443D01*
X116786537Y-77141956D01*
X116779998Y-77067203D01*
X116779888Y-77065943D01*
X116775674Y-77046936D01*
X116775241Y-77045745D01*
X116749569Y-76975211D01*
X116748422Y-76971913D01*
X116724814Y-76900665D01*
X116724812Y-76900662D01*
X116724415Y-76899463D01*
X116715929Y-76881936D01*
X116715237Y-76880884D01*
X116715237Y-76880883D01*
X116674025Y-76818224D01*
X116672106Y-76815212D01*
X116632048Y-76750267D01*
X116619750Y-76735172D01*
X116564290Y-76682848D01*
X116561703Y-76680335D01*
X116155729Y-76274361D01*
X116143949Y-76260731D01*
X116135896Y-76249913D01*
X116111651Y-76184388D01*
X116116973Y-76138975D01*
X116119086Y-76132196D01*
X116125500Y-76061616D01*
X116125500Y-75548384D01*
X116119086Y-75477804D01*
X116068478Y-75315394D01*
X115980472Y-75169815D01*
X115980471Y-75169813D01*
X115878339Y-75067681D01*
X115844854Y-75006358D01*
X115849838Y-74936666D01*
X115878339Y-74892319D01*
X115980471Y-74790186D01*
X116015427Y-74732362D01*
X116068478Y-74644606D01*
X116119086Y-74482196D01*
X116125500Y-74411616D01*
X116125500Y-73898384D01*
X116119086Y-73827804D01*
X116068478Y-73665394D01*
X115980472Y-73519815D01*
X115928825Y-73468168D01*
X115895342Y-73406848D01*
X115892981Y-73391302D01*
X115889998Y-73357203D01*
X115889888Y-73355943D01*
X115885674Y-73336936D01*
X115871649Y-73298402D01*
X115859569Y-73265211D01*
X115858422Y-73261913D01*
X115834814Y-73190665D01*
X115834812Y-73190662D01*
X115834415Y-73189463D01*
X115825929Y-73171936D01*
X115825237Y-73170884D01*
X115825237Y-73170883D01*
X115784025Y-73108224D01*
X115782106Y-73105212D01*
X115742048Y-73040267D01*
X115729750Y-73025172D01*
X115674290Y-72972848D01*
X115671703Y-72970335D01*
X115335728Y-72634360D01*
X115323946Y-72620727D01*
X115309609Y-72601469D01*
X115271666Y-72569631D01*
X115263691Y-72562323D01*
X115262329Y-72560961D01*
X115259777Y-72558409D01*
X115235444Y-72539169D01*
X115232647Y-72536890D01*
X115174251Y-72487890D01*
X115157821Y-72477422D01*
X115088691Y-72445186D01*
X115085447Y-72443615D01*
X115017306Y-72409394D01*
X114998903Y-72402997D01*
X114924211Y-72387574D01*
X114920692Y-72386794D01*
X114846490Y-72369208D01*
X114827121Y-72367229D01*
X114750869Y-72369448D01*
X114747263Y-72369500D01*
X114169649Y-72369500D01*
X114102610Y-72349815D01*
X114056855Y-72297011D01*
X114046911Y-72227853D01*
X114057267Y-72193096D01*
X114059101Y-72189161D01*
X114115712Y-71977886D01*
X114134775Y-71760000D01*
X114115712Y-71542113D01*
X114059102Y-71330840D01*
X113966667Y-71132615D01*
X113923123Y-71070428D01*
X113363076Y-71630475D01*
X113339493Y-71550156D01*
X113261761Y-71429202D01*
X113153100Y-71335048D01*
X113022315Y-71275320D01*
X113012534Y-71273913D01*
X113569572Y-70716875D01*
X113569571Y-70716873D01*
X113507386Y-70673331D01*
X113309161Y-70580898D01*
X113097886Y-70524287D01*
X112880000Y-70505224D01*
X112662113Y-70524287D01*
X112450840Y-70580897D01*
X112252611Y-70673333D01*
X112190428Y-70716874D01*
X112190427Y-70716875D01*
X112747466Y-71273913D01*
X112737685Y-71275320D01*
X112606900Y-71335048D01*
X112498239Y-71429202D01*
X112420507Y-71550156D01*
X112396923Y-71630475D01*
X111836875Y-71070427D01*
X111836874Y-71070428D01*
X111793333Y-71132611D01*
X111700897Y-71330840D01*
X111644287Y-71542113D01*
X111625224Y-71760000D01*
X111644287Y-71977886D01*
X111700898Y-72189161D01*
X111793331Y-72387386D01*
X111836873Y-72449571D01*
X111836875Y-72449572D01*
X112396923Y-71889523D01*
X112420507Y-71969844D01*
X112498239Y-72090798D01*
X112606900Y-72184952D01*
X112737685Y-72244680D01*
X112747466Y-72246086D01*
X112190426Y-72803124D01*
X112190427Y-72803125D01*
X112252612Y-72846667D01*
X112361284Y-72897341D01*
X112413724Y-72943513D01*
X112432876Y-73010706D01*
X112412661Y-73077587D01*
X112361286Y-73122105D01*
X112252359Y-73172899D01*
X112073122Y-73298402D01*
X111918402Y-73453122D01*
X111792898Y-73632361D01*
X111700425Y-73830668D01*
X111643792Y-74042025D01*
X111624722Y-74260000D01*
X111643792Y-74477974D01*
X111700425Y-74689331D01*
X111720491Y-74732362D01*
X111792898Y-74887639D01*
X111918402Y-75066877D01*
X112073123Y-75221598D01*
X112252361Y-75347102D01*
X112360693Y-75397618D01*
X112413132Y-75443790D01*
X112432284Y-75510984D01*
X112412068Y-75577865D01*
X112360693Y-75622382D01*
X112252361Y-75672898D01*
X112073122Y-75798402D01*
X111918402Y-75953122D01*
X111792898Y-76132361D01*
X111700425Y-76330668D01*
X111643792Y-76542025D01*
X111624722Y-76760000D01*
X111643792Y-76977974D01*
X111700425Y-77189331D01*
X111736053Y-77265735D01*
X111792898Y-77387639D01*
X111918402Y-77566877D01*
X112073123Y-77721598D01*
X112252361Y-77847102D01*
X112360693Y-77897618D01*
X112413132Y-77943790D01*
X112432284Y-78010984D01*
X112412068Y-78077865D01*
X112360693Y-78122382D01*
X112252361Y-78172898D01*
X112073122Y-78298402D01*
X111918402Y-78453122D01*
X111792898Y-78632361D01*
X111700425Y-78830668D01*
X111643792Y-79042025D01*
X111624722Y-79259999D01*
X107210500Y-79259999D01*
X107210500Y-68975409D01*
X107210972Y-68964603D01*
X107214482Y-68924479D01*
X107226919Y-68798215D01*
X107230539Y-68778322D01*
X107247908Y-68713498D01*
X107248956Y-68709828D01*
X107276685Y-68618419D01*
X107282948Y-68602049D01*
X107313700Y-68536102D01*
X107316670Y-68530161D01*
X107359012Y-68450944D01*
X107366786Y-68438289D01*
X107409639Y-68377089D01*
X107415330Y-68369587D01*
X107471191Y-68301521D01*
X107479325Y-68292547D01*
X107532547Y-68239325D01*
X107541521Y-68231191D01*
X107609587Y-68175330D01*
X107617089Y-68169639D01*
X107678289Y-68126786D01*
X107690944Y-68119012D01*
X107770161Y-68076670D01*
X107776102Y-68073700D01*
X107842049Y-68042948D01*
X107858419Y-68036685D01*
X107949828Y-68008956D01*
X107953498Y-68007908D01*
X108018318Y-67990540D01*
X108038221Y-67986918D01*
X108164471Y-67974483D01*
X108204640Y-67970968D01*
X108215402Y-67970500D01*
X125994587Y-67970500D01*
X126005394Y-67970971D01*
G37*
%TD.AperFunction*%
%TD*%
M02*
