%TF.GenerationSoftware,KiCad,Pcbnew,7.0.2*%
%TF.CreationDate,2024-03-21T19:14:15+01:00*%
%TF.ProjectId,Support_TTGO,53757070-6f72-4745-9f54-54474f2e6b69,rev?*%
%TF.SameCoordinates,Original*%
%TF.FileFunction,Profile,NP*%
%FSLAX46Y46*%
G04 Gerber Fmt 4.6, Leading zero omitted, Abs format (unit mm)*
G04 Created by KiCad (PCBNEW 7.0.2) date 2024-03-21 19:14:15*
%MOMM*%
%LPD*%
G01*
G04 APERTURE LIST*
%TA.AperFunction,Profile*%
%ADD10C,0.100000*%
%TD*%
G04 APERTURE END LIST*
D10*
X173080000Y-109000000D02*
G75*
G03*
X174080000Y-108000000I0J1000000D01*
G01*
X153500000Y-108000000D02*
G75*
G03*
X154500000Y-109000000I1000000J0D01*
G01*
X153500000Y-85000000D02*
G75*
G03*
X152500000Y-84000000I-1000000J0D01*
G01*
X128500000Y-84010000D02*
G75*
G03*
X127510000Y-85000000I0J-990000D01*
G01*
X126500000Y-109000000D02*
G75*
G03*
X127510000Y-107990000I0J1010000D01*
G01*
X107210000Y-108000000D02*
G75*
G03*
X108210000Y-109000000I1000000J0D01*
G01*
X155000000Y-67970000D02*
G75*
G03*
X154000000Y-68970000I0J-1000000D01*
G01*
X153000000Y-78450000D02*
G75*
G03*
X154000000Y-77450000I0J1000000D01*
G01*
X127000000Y-77450000D02*
G75*
G03*
X128000000Y-78450000I1000000J0D01*
G01*
X127000000Y-68970000D02*
G75*
G03*
X126000000Y-67970000I-1000000J0D01*
G01*
X174080000Y-68970000D02*
G75*
G03*
X173080000Y-67970000I-1000000J0D01*
G01*
X108210000Y-67970000D02*
G75*
G03*
X107210000Y-68970000I0J-1000000D01*
G01*
X155000000Y-67970000D02*
X173080000Y-67970000D01*
X152500000Y-84000000D02*
X128500000Y-84010000D01*
X153500000Y-85000000D02*
X153500000Y-108000000D01*
X174080000Y-68970000D02*
X174080000Y-108000000D01*
X153000000Y-78450000D02*
X128000000Y-78450000D01*
X127000000Y-77450000D02*
X127000000Y-68970000D01*
X154000000Y-68970000D02*
X154000000Y-77450000D01*
X154500000Y-109000000D02*
X173080000Y-109000000D01*
X107210000Y-68970000D02*
X107210000Y-108000000D01*
X127510000Y-85000000D02*
X127510000Y-107990000D01*
X126500000Y-109000000D02*
X108210000Y-109000000D01*
X108210000Y-67970000D02*
X126000000Y-67970000D01*
M02*
