M48
; DRILL file {KiCad 7.0.2} date Thu Mar 21 19:14:17 2024
; FORMAT={-:-/ absolute / metric / decimal}
; #@! TF.CreationDate,2024-03-21T19:14:17+01:00
; #@! TF.GenerationSoftware,Kicad,Pcbnew,7.0.2
; #@! TF.FileFunction,Plated,1,2,PTH
FMAT,2
METRIC
; #@! TA.AperFunction,Plated,PTH,ComponentDrill
T1C1.000
%
G90
G05
T1
X112.88Y-71.76
X112.88Y-74.26
X112.88Y-76.76
X112.88Y-79.26
X112.92Y-85.4
X112.92Y-87.9
X112.92Y-90.4
X112.92Y-92.9
X112.99Y-99.21
X112.99Y-101.71
X112.99Y-104.21
X112.99Y-106.71
X125.3Y-83.5
X125.3Y-86.04
X125.3Y-88.58
X125.3Y-91.12
X125.3Y-93.66
X125.3Y-96.2
X125.3Y-98.74
X125.3Y-101.28
X125.3Y-103.82
X125.3Y-106.36
X155.5Y-83.5
X155.5Y-86.04
X155.5Y-88.58
X155.5Y-91.12
X155.5Y-93.66
X155.5Y-96.2
X155.5Y-98.74
X155.5Y-101.28
X155.5Y-103.82
X155.5Y-106.36
X168.24Y-70.36
X168.24Y-72.86
X168.24Y-75.36
X168.24Y-77.86
X168.3Y-84.11
X168.3Y-86.61
X168.3Y-89.11
X168.3Y-91.61
X168.32Y-97.96
X168.32Y-100.46
X168.32Y-102.96
X168.32Y-105.46
T0
M30
