M48
; DRILL file {KiCad 7.0.2} date Fri Mar 22 11:27:17 2024
; FORMAT={-:-/ absolute / metric / decimal}
; #@! TF.CreationDate,2024-03-22T11:27:17+01:00
; #@! TF.GenerationSoftware,Kicad,Pcbnew,7.0.2
; #@! TF.FileFunction,Plated,1,2,PTH
FMAT,2
METRIC
; #@! TA.AperFunction,Plated,PTH,ComponentDrill
T1C1.000
%
G90
G05
T1
X113.55Y-71.58
X113.55Y-74.08
X113.55Y-76.58
X113.55Y-79.08
X113.6Y-85.33
X113.6Y-87.83
X113.6Y-90.33
X113.6Y-92.83
X113.68Y-99.17
X113.68Y-101.67
X113.68Y-104.17
X113.68Y-106.67
X126.41Y-83.57
X126.41Y-86.11
X126.41Y-88.65
X126.41Y-91.19
X126.41Y-93.73
X126.41Y-96.27
X126.41Y-98.81
X126.41Y-101.35
X126.41Y-103.89
X126.41Y-106.43
X156.61Y-83.57
X156.61Y-86.11
X156.61Y-88.65
X156.61Y-91.19
X156.61Y-93.73
X156.61Y-96.27
X156.61Y-98.81
X156.61Y-101.35
X156.61Y-103.89
X156.61Y-106.43
X169.01Y-97.83
X169.01Y-100.33
X169.01Y-102.83
X169.01Y-105.33
X169.03Y-70.27
X169.03Y-72.77
X169.03Y-75.27
X169.03Y-77.77
X169.03Y-84.07
X169.03Y-86.57
X169.03Y-89.07
X169.03Y-91.57
T0
M30
