%TF.GenerationSoftware,KiCad,Pcbnew,7.0.2*%
%TF.CreationDate,2024-03-24T23:04:52+01:00*%
%TF.ProjectId,Support_TTGO_invers_,53757070-6f72-4745-9f54-54474f5f696e,rev?*%
%TF.SameCoordinates,Original*%
%TF.FileFunction,Copper,L2,Bot*%
%TF.FilePolarity,Positive*%
%FSLAX46Y46*%
G04 Gerber Fmt 4.6, Leading zero omitted, Abs format (unit mm)*
G04 Created by KiCad (PCBNEW 7.0.2) date 2024-03-24 23:04:52*
%MOMM*%
%LPD*%
G01*
G04 APERTURE LIST*
G04 Aperture macros list*
%AMRoundRect*
0 Rectangle with rounded corners*
0 $1 Rounding radius*
0 $2 $3 $4 $5 $6 $7 $8 $9 X,Y pos of 4 corners*
0 Add a 4 corners polygon primitive as box body*
4,1,4,$2,$3,$4,$5,$6,$7,$8,$9,$2,$3,0*
0 Add four circle primitives for the rounded corners*
1,1,$1+$1,$2,$3*
1,1,$1+$1,$4,$5*
1,1,$1+$1,$6,$7*
1,1,$1+$1,$8,$9*
0 Add four rect primitives between the rounded corners*
20,1,$1+$1,$2,$3,$4,$5,0*
20,1,$1+$1,$4,$5,$6,$7,0*
20,1,$1+$1,$6,$7,$8,$9,0*
20,1,$1+$1,$8,$9,$2,$3,0*%
%AMFreePoly0*
4,1,19,0.500000,-0.750000,0.000000,-0.750000,0.000000,-0.744911,-0.071157,-0.744911,-0.207708,-0.704816,-0.327430,-0.627875,-0.420627,-0.520320,-0.479746,-0.390866,-0.500000,-0.250000,-0.500000,0.250000,-0.479746,0.390866,-0.420627,0.520320,-0.327430,0.627875,-0.207708,0.704816,-0.071157,0.744911,0.000000,0.744911,0.000000,0.750000,0.500000,0.750000,0.500000,-0.750000,0.500000,-0.750000,
$1*%
%AMFreePoly1*
4,1,19,0.000000,0.744911,0.071157,0.744911,0.207708,0.704816,0.327430,0.627875,0.420627,0.520320,0.479746,0.390866,0.500000,0.250000,0.500000,-0.250000,0.479746,-0.390866,0.420627,-0.520320,0.327430,-0.627875,0.207708,-0.704816,0.071157,-0.744911,0.000000,-0.744911,0.000000,-0.750000,-0.500000,-0.750000,-0.500000,0.750000,0.000000,0.750000,0.000000,0.744911,0.000000,0.744911,
$1*%
G04 Aperture macros list end*
%TA.AperFunction,SMDPad,CuDef*%
%ADD10RoundRect,0.150000X0.150000X-0.587500X0.150000X0.587500X-0.150000X0.587500X-0.150000X-0.587500X0*%
%TD*%
%TA.AperFunction,ComponentPad*%
%ADD11RoundRect,0.250000X-0.350000X-0.625000X0.350000X-0.625000X0.350000X0.625000X-0.350000X0.625000X0*%
%TD*%
%TA.AperFunction,ComponentPad*%
%ADD12O,1.200000X1.750000*%
%TD*%
%TA.AperFunction,SMDPad,CuDef*%
%ADD13RoundRect,0.200000X0.275000X-0.200000X0.275000X0.200000X-0.275000X0.200000X-0.275000X-0.200000X0*%
%TD*%
%TA.AperFunction,SMDPad,CuDef*%
%ADD14FreePoly0,270.000000*%
%TD*%
%TA.AperFunction,SMDPad,CuDef*%
%ADD15FreePoly1,270.000000*%
%TD*%
%TA.AperFunction,ComponentPad*%
%ADD16C,1.500000*%
%TD*%
%TA.AperFunction,ComponentPad*%
%ADD17R,1.700000X1.700000*%
%TD*%
%TA.AperFunction,ComponentPad*%
%ADD18O,1.700000X1.700000*%
%TD*%
%TA.AperFunction,SMDPad,CuDef*%
%ADD19RoundRect,0.200000X-0.200000X-0.275000X0.200000X-0.275000X0.200000X0.275000X-0.200000X0.275000X0*%
%TD*%
%TA.AperFunction,ViaPad*%
%ADD20C,0.650000*%
%TD*%
%TA.AperFunction,Conductor*%
%ADD21C,0.500000*%
%TD*%
G04 APERTURE END LIST*
D10*
%TO.P,Q1,1*%
%TO.N,IO_46*%
X121820000Y-75297500D03*
%TO.P,Q1,2*%
%TO.N,GND*%
X119920000Y-75297500D03*
%TO.P,Q1,3*%
%TO.N,Net-(J9-Pin_1)*%
X120870000Y-73422500D03*
%TD*%
D11*
%TO.P,J9,1,Pin_1*%
%TO.N,Net-(J9-Pin_1)*%
X123560000Y-70150000D03*
D12*
%TO.P,J9,2,Pin_2*%
%TO.N,Net-(J9-Pin_2)*%
X125560000Y-70150000D03*
%TD*%
D13*
%TO.P,R2,1*%
%TO.N,PMU_DC_DC5*%
X124090000Y-75465000D03*
%TO.P,R2,2*%
%TO.N,Net-(J9-Pin_2)*%
X124090000Y-73815000D03*
%TD*%
D14*
%TO.P,JP1,1,A*%
%TO.N,Net-(J9-Pin_2)*%
X126090000Y-74030000D03*
D15*
%TO.P,JP1,2,B*%
%TO.N,PMU_DC_DC5*%
X126090000Y-75330000D03*
%TD*%
D16*
%TO.P,J3,1,Pin_1*%
%TO.N,GND*%
X113680000Y-99170000D03*
%TO.P,J3,2,Pin_2*%
%TO.N,IO_13*%
X113680000Y-101670000D03*
%TO.P,J3,3,Pin_3*%
%TO.N,IO_14*%
X113680000Y-104170000D03*
%TO.P,J3,4,Pin_4*%
%TO.N,PMU_DC_DC5*%
X113680000Y-106670000D03*
%TD*%
D17*
%TO.P,J1,1,Pin_1*%
%TO.N,unconnected-(J1-Pin_1-Pad1)*%
X126410000Y-83570000D03*
D18*
%TO.P,J1,2,Pin_2*%
%TO.N,IO_46*%
X126410000Y-86110000D03*
%TO.P,J1,3,Pin_3*%
%TO.N,IO_09*%
X126410000Y-88650000D03*
%TO.P,J1,4,Pin_4*%
%TO.N,IO_10*%
X126410000Y-91190000D03*
%TO.P,J1,5,Pin_5*%
%TO.N,IO_11*%
X126410000Y-93730000D03*
%TO.P,J1,6,Pin_6*%
%TO.N,IO_12*%
X126410000Y-96270000D03*
%TO.P,J1,7,Pin_7*%
%TO.N,IO_13*%
X126410000Y-98810000D03*
%TO.P,J1,8,Pin_8*%
%TO.N,IO_14*%
X126410000Y-101350000D03*
%TO.P,J1,9,Pin_9*%
%TO.N,GND*%
X126410000Y-103890000D03*
%TO.P,J1,10,Pin_10*%
%TO.N,PMU_DC_DC5*%
X126410000Y-106430000D03*
%TD*%
D16*
%TO.P,J8,1,Pin_1*%
%TO.N,GND*%
X113550000Y-71580000D03*
%TO.P,J8,2,Pin_2*%
%TO.N,IO_09*%
X113550000Y-74080000D03*
%TO.P,J8,3,Pin_3*%
%TO.N,IO_10*%
X113550000Y-76580000D03*
%TO.P,J8,4,Pin_4*%
%TO.N,PMU_DC_DC5*%
X113550000Y-79080000D03*
%TD*%
D17*
%TO.P,J2,1,Pin_1*%
%TO.N,IO_37*%
X156610000Y-83570000D03*
D18*
%TO.P,J2,2,Pin_2*%
%TO.N,IO_36*%
X156610000Y-86110000D03*
%TO.P,J2,3,Pin_3*%
%TO.N,unconnected-(J2-Pin_3-Pad3)*%
X156610000Y-88650000D03*
%TO.P,J2,4,Pin_4*%
%TO.N,unconnected-(J2-Pin_4-Pad4)*%
X156610000Y-91190000D03*
%TO.P,J2,5,Pin_5*%
%TO.N,unconnected-(J2-Pin_5-Pad5)*%
X156610000Y-93730000D03*
%TO.P,J2,6,Pin_6*%
%TO.N,IO_48*%
X156610000Y-96270000D03*
%TO.P,J2,7,Pin_7*%
%TO.N,IO_47*%
X156610000Y-98810000D03*
%TO.P,J2,8,Pin_8*%
%TO.N,IO_21*%
X156610000Y-101350000D03*
%TO.P,J2,9,Pin_9*%
%TO.N,GND*%
X156610000Y-103890000D03*
%TO.P,J2,10,Pin_10*%
%TO.N,unconnected-(J2-Pin_10-Pad10)*%
X156610000Y-106430000D03*
%TD*%
D16*
%TO.P,J7,1,Pin_1*%
%TO.N,GND*%
X169030000Y-77770000D03*
%TO.P,J7,2,Pin_2*%
%TO.N,IO_37*%
X169030000Y-75270000D03*
%TO.P,J7,3,Pin_3*%
%TO.N,PMU_DC_DC5*%
X169030000Y-72770000D03*
%TO.P,J7,4*%
%TO.N,N/C*%
X169030000Y-70270000D03*
%TD*%
%TO.P,J4,1,Pin_1*%
%TO.N,GND*%
X113600000Y-85330000D03*
%TO.P,J4,2,Pin_2*%
%TO.N,IO_11*%
X113600000Y-87830000D03*
%TO.P,J4,3,Pin_3*%
%TO.N,IO_12*%
X113600000Y-90330000D03*
%TO.P,J4,4,Pin_4*%
%TO.N,PMU_DC_DC5*%
X113600000Y-92830000D03*
%TD*%
%TO.P,J6,1,Pin_1*%
%TO.N,GND*%
X169030000Y-91570000D03*
%TO.P,J6,2,Pin_2*%
%TO.N,IO_48*%
X169030000Y-89070000D03*
%TO.P,J6,3,Pin_3*%
%TO.N,IO_36*%
X169030000Y-86570000D03*
%TO.P,J6,4,Pin_4*%
%TO.N,PMU_DC_DC5*%
X169030000Y-84070000D03*
%TD*%
%TO.P,J5,1,Pin_1*%
%TO.N,GND*%
X169010000Y-105330000D03*
%TO.P,J5,2,Pin_2*%
%TO.N,IO_21*%
X169010000Y-102830000D03*
%TO.P,J5,3,Pin_3*%
%TO.N,IO_47*%
X169010000Y-100330000D03*
%TO.P,J5,4,Pin_4*%
%TO.N,PMU_DC_DC5*%
X169010000Y-97830000D03*
%TD*%
D19*
%TO.P,R1,1*%
%TO.N,PMU_DC_DC5*%
X165625000Y-75270000D03*
%TO.P,R1,2*%
%TO.N,IO_37*%
X167275000Y-75270000D03*
%TD*%
D20*
%TO.N,GND*%
X163310000Y-88790000D03*
X119890000Y-73970000D03*
%TO.N,IO_46*%
X121820001Y-77659999D03*
%TD*%
D21*
%TO.N,PMU_DC_DC5*%
X126090000Y-75330000D02*
X126090000Y-76800000D01*
X125890000Y-77000000D02*
X126090000Y-76800000D01*
X124090000Y-77000000D02*
X125890000Y-77000000D01*
X124090000Y-77000000D02*
X124090000Y-79070000D01*
X124090000Y-75465000D02*
X124090000Y-77000000D01*
%TO.N,Net-(J9-Pin_2)*%
X126090000Y-72780000D02*
X125730000Y-72420000D01*
X126090000Y-74030000D02*
X126090000Y-72780000D01*
X125560000Y-72250000D02*
X125730000Y-72420000D01*
X125560000Y-70150000D02*
X125560000Y-72250000D01*
X124580000Y-72420000D02*
X125730000Y-72420000D01*
X124090000Y-72910000D02*
X124580000Y-72420000D01*
X124090000Y-73815000D02*
X124090000Y-72910000D01*
%TO.N,Net-(J9-Pin_1)*%
X120870000Y-71320000D02*
X120870000Y-73422500D01*
X122040000Y-70150000D02*
X120870000Y-71320000D01*
X123560000Y-70150000D02*
X122040000Y-70150000D01*
%TO.N,IO_46*%
X121820000Y-77659998D02*
X121820001Y-77659999D01*
X121820000Y-75297500D02*
X121820000Y-77659998D01*
%TO.N,PMU_DC_DC5*%
X124100000Y-79080000D02*
X113550000Y-79080000D01*
X125090000Y-79080000D02*
X124100000Y-79080000D01*
X124090000Y-79070000D02*
X124100000Y-79080000D01*
%TO.N,IO_46*%
X121780000Y-75555000D02*
X121770000Y-75565000D01*
%TO.N,IO_37*%
X167275000Y-75270000D02*
X169030000Y-75270000D01*
%TO.N,PMU_DC_DC5*%
X165960000Y-84070000D02*
X165960000Y-96140000D01*
X169030000Y-72770000D02*
X165260000Y-72770000D01*
X164180000Y-80790000D02*
X164180000Y-81430000D01*
X169030000Y-84070000D02*
X165960000Y-84070000D01*
X116030000Y-92840000D02*
X116030000Y-79100000D01*
X113680000Y-106670000D02*
X115500000Y-106670000D01*
X117210000Y-104960000D02*
X116030000Y-103780000D01*
X165960000Y-83210000D02*
X165960000Y-84070000D01*
X164180000Y-81430000D02*
X165960000Y-83210000D01*
X116030000Y-79100000D02*
X116010000Y-79080000D01*
X164180000Y-75270000D02*
X164180000Y-80790000D01*
X113600000Y-92830000D02*
X116020000Y-92830000D01*
X118610000Y-106360000D02*
X117210000Y-104960000D01*
X116030000Y-97950000D02*
X116020000Y-97960000D01*
X167650000Y-97830000D02*
X169010000Y-97830000D01*
X116030000Y-103780000D02*
X116030000Y-92840000D01*
X115500000Y-106670000D02*
X117210000Y-104960000D01*
X116020000Y-92830000D02*
X116030000Y-92840000D01*
X165260000Y-72770000D02*
X164180000Y-73850000D01*
X165960000Y-96140000D02*
X167650000Y-97830000D01*
X156190000Y-80790000D02*
X153250000Y-83730000D01*
X129740000Y-83730000D02*
X125090000Y-79080000D01*
X165625000Y-75270000D02*
X164180000Y-75270000D01*
X164180000Y-80790000D02*
X156190000Y-80790000D01*
X164180000Y-73850000D02*
X164180000Y-75270000D01*
X153250000Y-83730000D02*
X129740000Y-83730000D01*
X126500000Y-106360000D02*
X118610000Y-106360000D01*
%TD*%
%TA.AperFunction,Conductor*%
%TO.N,GND*%
G36*
X124032876Y-79832769D02*
G01*
X124034140Y-79832732D01*
X124034144Y-79832733D01*
X124109110Y-79830552D01*
X124112716Y-79830500D01*
X124727770Y-79830500D01*
X124794809Y-79850185D01*
X124815451Y-79866819D01*
X126956451Y-82007819D01*
X126989936Y-82069142D01*
X126984952Y-82138834D01*
X126943080Y-82194767D01*
X126877616Y-82219184D01*
X126868770Y-82219500D01*
X125515439Y-82219500D01*
X125515420Y-82219500D01*
X125512128Y-82219501D01*
X125508848Y-82219853D01*
X125508840Y-82219854D01*
X125452515Y-82225909D01*
X125317669Y-82276204D01*
X125202454Y-82362454D01*
X125116204Y-82477668D01*
X125065910Y-82612515D01*
X125065909Y-82612517D01*
X125059500Y-82672127D01*
X125059500Y-82675448D01*
X125059500Y-82675449D01*
X125059500Y-84464560D01*
X125059500Y-84464578D01*
X125059501Y-84467872D01*
X125059853Y-84471152D01*
X125059854Y-84471159D01*
X125062883Y-84499331D01*
X125065909Y-84527483D01*
X125116204Y-84662331D01*
X125202454Y-84777546D01*
X125317669Y-84863796D01*
X125428271Y-84905048D01*
X125449082Y-84912810D01*
X125505016Y-84954681D01*
X125529433Y-85020146D01*
X125514581Y-85088419D01*
X125493431Y-85116673D01*
X125371503Y-85238601D01*
X125235965Y-85432170D01*
X125136097Y-85646336D01*
X125074936Y-85874592D01*
X125054340Y-86109999D01*
X125074936Y-86345407D01*
X125107608Y-86467340D01*
X125136097Y-86573663D01*
X125235965Y-86787830D01*
X125371505Y-86981401D01*
X125538599Y-87148495D01*
X125724160Y-87278426D01*
X125767783Y-87333002D01*
X125774976Y-87402501D01*
X125743454Y-87464855D01*
X125724159Y-87481575D01*
X125538595Y-87611508D01*
X125371505Y-87778598D01*
X125235965Y-87972170D01*
X125136097Y-88186336D01*
X125074936Y-88414592D01*
X125054340Y-88650000D01*
X125074936Y-88885407D01*
X125108207Y-89009575D01*
X125136097Y-89113663D01*
X125235965Y-89327830D01*
X125371505Y-89521401D01*
X125538599Y-89688495D01*
X125724160Y-89818426D01*
X125767783Y-89873002D01*
X125774976Y-89942501D01*
X125743454Y-90004855D01*
X125724158Y-90021575D01*
X125594986Y-90112023D01*
X125538595Y-90151508D01*
X125371505Y-90318598D01*
X125235965Y-90512170D01*
X125136097Y-90726336D01*
X125074936Y-90954592D01*
X125054340Y-91189999D01*
X125074936Y-91425407D01*
X125113680Y-91570000D01*
X125136097Y-91653663D01*
X125235965Y-91867830D01*
X125371505Y-92061401D01*
X125538599Y-92228495D01*
X125724160Y-92358426D01*
X125767783Y-92413002D01*
X125774976Y-92482501D01*
X125743454Y-92544855D01*
X125724158Y-92561575D01*
X125588355Y-92656666D01*
X125538595Y-92691508D01*
X125371505Y-92858598D01*
X125235965Y-93052170D01*
X125136097Y-93266336D01*
X125074936Y-93494592D01*
X125054340Y-93730000D01*
X125074936Y-93965407D01*
X125107055Y-94085277D01*
X125136097Y-94193663D01*
X125235965Y-94407830D01*
X125371505Y-94601401D01*
X125538599Y-94768495D01*
X125724160Y-94898426D01*
X125767783Y-94953002D01*
X125774976Y-95022501D01*
X125743454Y-95084855D01*
X125724159Y-95101575D01*
X125538595Y-95231508D01*
X125371505Y-95398598D01*
X125235965Y-95592170D01*
X125136097Y-95806336D01*
X125074936Y-96034592D01*
X125054340Y-96269999D01*
X125074936Y-96505407D01*
X125113794Y-96650425D01*
X125136097Y-96733663D01*
X125235965Y-96947830D01*
X125371505Y-97141401D01*
X125538599Y-97308495D01*
X125724160Y-97438426D01*
X125767783Y-97493002D01*
X125774976Y-97562501D01*
X125743454Y-97624855D01*
X125724159Y-97641575D01*
X125538595Y-97771508D01*
X125371505Y-97938598D01*
X125235965Y-98132170D01*
X125136097Y-98346336D01*
X125074936Y-98574592D01*
X125054340Y-98810000D01*
X125074936Y-99045407D01*
X125108321Y-99170000D01*
X125136097Y-99273663D01*
X125235965Y-99487830D01*
X125371505Y-99681401D01*
X125538599Y-99848495D01*
X125724160Y-99978426D01*
X125767783Y-100033002D01*
X125774976Y-100102501D01*
X125743454Y-100164855D01*
X125724158Y-100181575D01*
X125544548Y-100307340D01*
X125538595Y-100311508D01*
X125371505Y-100478598D01*
X125235965Y-100672170D01*
X125136097Y-100886336D01*
X125074936Y-101114592D01*
X125054340Y-101350000D01*
X125074936Y-101585407D01*
X125117136Y-101742898D01*
X125136097Y-101813663D01*
X125235965Y-102027830D01*
X125371505Y-102221401D01*
X125538599Y-102388495D01*
X125724596Y-102518732D01*
X125768219Y-102573307D01*
X125775412Y-102642806D01*
X125743890Y-102705160D01*
X125724595Y-102721880D01*
X125538919Y-102851892D01*
X125371890Y-103018921D01*
X125236400Y-103212421D01*
X125136569Y-103426507D01*
X125079364Y-103639999D01*
X125079364Y-103640000D01*
X125976314Y-103640000D01*
X125950507Y-103680156D01*
X125910000Y-103818111D01*
X125910000Y-103961889D01*
X125950507Y-104099844D01*
X125976314Y-104140000D01*
X125079364Y-104140000D01*
X125136569Y-104353492D01*
X125236399Y-104567576D01*
X125371893Y-104761081D01*
X125538918Y-104928106D01*
X125724595Y-105058119D01*
X125768219Y-105112696D01*
X125775412Y-105182195D01*
X125743890Y-105244549D01*
X125724595Y-105261269D01*
X125538595Y-105391508D01*
X125363833Y-105566270D01*
X125362494Y-105564931D01*
X125318312Y-105600248D01*
X125271313Y-105609500D01*
X118972230Y-105609500D01*
X118905191Y-105589815D01*
X118884549Y-105573181D01*
X117758678Y-104447310D01*
X117753728Y-104442064D01*
X117712325Y-104395540D01*
X117703142Y-104389110D01*
X117686584Y-104375216D01*
X116816819Y-103505451D01*
X116783334Y-103444128D01*
X116780500Y-103417770D01*
X116780500Y-98039338D01*
X116782769Y-98017124D01*
X116782732Y-98015859D01*
X116782733Y-98015856D01*
X116780549Y-97940820D01*
X116780500Y-97937352D01*
X116780499Y-92903704D01*
X116781809Y-92885735D01*
X116781980Y-92884564D01*
X116785289Y-92861977D01*
X116780971Y-92812633D01*
X116780500Y-92801827D01*
X116780500Y-92744937D01*
X116780499Y-92744928D01*
X116780500Y-79954500D01*
X116800185Y-79887461D01*
X116852989Y-79841706D01*
X116904500Y-79830500D01*
X124010663Y-79830500D01*
X124032876Y-79832769D01*
G37*
%TD.AperFunction*%
%TA.AperFunction,Conductor*%
G36*
X127005394Y-67970971D02*
G01*
X127045519Y-67974482D01*
X127171780Y-67986919D01*
X127191682Y-67990540D01*
X127256467Y-68007899D01*
X127260203Y-68008966D01*
X127351570Y-68036682D01*
X127367959Y-68042952D01*
X127433867Y-68073686D01*
X127439867Y-68076685D01*
X127482639Y-68099548D01*
X127519046Y-68119008D01*
X127531715Y-68126791D01*
X127592889Y-68169625D01*
X127600430Y-68175346D01*
X127668455Y-68231172D01*
X127677472Y-68239345D01*
X127730653Y-68292526D01*
X127738826Y-68301543D01*
X127794652Y-68369568D01*
X127800373Y-68377109D01*
X127843207Y-68438283D01*
X127850990Y-68450952D01*
X127893304Y-68530114D01*
X127896328Y-68536163D01*
X127927041Y-68602027D01*
X127933319Y-68618436D01*
X127961008Y-68709713D01*
X127962123Y-68713616D01*
X127979454Y-68778298D01*
X127983082Y-68798237D01*
X127995523Y-68924554D01*
X127997207Y-68943801D01*
X127999030Y-68964638D01*
X127999500Y-68975406D01*
X127999500Y-79922902D01*
X127994926Y-79938478D01*
X127998903Y-79978858D01*
X127999500Y-79991012D01*
X127999500Y-80077533D01*
X128010628Y-80140645D01*
X128009311Y-80152448D01*
X128015263Y-80172067D01*
X128018717Y-80186522D01*
X128029899Y-80249938D01*
X128036122Y-80267035D01*
X128058163Y-80327592D01*
X128058992Y-80340641D01*
X128067129Y-80355864D01*
X128074289Y-80371899D01*
X128089774Y-80414441D01*
X128089776Y-80414447D01*
X128138578Y-80498974D01*
X128142056Y-80513311D01*
X128151793Y-80525176D01*
X128163325Y-80541837D01*
X128179926Y-80570590D01*
X128189372Y-80584560D01*
X128191255Y-80588084D01*
X128209702Y-80604661D01*
X128248914Y-80651393D01*
X128255485Y-80666408D01*
X128265932Y-80674982D01*
X128282254Y-80691126D01*
X128289837Y-80700163D01*
X128298872Y-80707744D01*
X128315018Y-80724067D01*
X128319147Y-80729098D01*
X128338606Y-80741085D01*
X128385337Y-80780297D01*
X128395234Y-80795172D01*
X128405438Y-80800627D01*
X128419408Y-80810072D01*
X128423942Y-80812690D01*
X128423945Y-80812692D01*
X128448165Y-80826676D01*
X128464826Y-80838207D01*
X128471770Y-80843905D01*
X128491019Y-80851417D01*
X128575555Y-80900225D01*
X128618105Y-80915712D01*
X128634141Y-80922872D01*
X128644334Y-80928320D01*
X128662401Y-80931834D01*
X128740062Y-80960101D01*
X128803476Y-80971282D01*
X128817939Y-80974738D01*
X128832541Y-80979167D01*
X128849350Y-80979370D01*
X128912468Y-80990500D01*
X128912469Y-80990500D01*
X128998997Y-80990500D01*
X129011151Y-80991097D01*
X129044302Y-80994362D01*
X129067096Y-80990500D01*
X153932903Y-80990500D01*
X153948476Y-80995073D01*
X153988848Y-80991097D01*
X154001002Y-80990500D01*
X154087530Y-80990500D01*
X154087532Y-80990500D01*
X154150646Y-80979371D01*
X154162444Y-80980687D01*
X154182055Y-80974738D01*
X154196511Y-80971284D01*
X154259938Y-80960101D01*
X154337592Y-80931836D01*
X154350638Y-80931007D01*
X154365854Y-80922874D01*
X154381890Y-80915713D01*
X154424445Y-80900225D01*
X154508976Y-80851420D01*
X154523310Y-80847942D01*
X154535172Y-80838208D01*
X154551834Y-80826676D01*
X154576055Y-80812692D01*
X154576055Y-80812691D01*
X154580586Y-80810076D01*
X154594564Y-80800625D01*
X154598082Y-80798744D01*
X154614658Y-80780300D01*
X154661395Y-80741083D01*
X154676407Y-80734513D01*
X154684977Y-80724071D01*
X154701121Y-80707750D01*
X154710163Y-80700163D01*
X154717750Y-80691121D01*
X154734071Y-80674977D01*
X154739099Y-80670850D01*
X154751082Y-80651397D01*
X154790297Y-80604661D01*
X154805172Y-80594764D01*
X154810625Y-80584564D01*
X154820076Y-80570586D01*
X154822692Y-80566055D01*
X154836676Y-80541834D01*
X154848208Y-80525172D01*
X154853903Y-80518231D01*
X154861418Y-80498979D01*
X154910225Y-80414445D01*
X154925713Y-80371890D01*
X154932874Y-80355854D01*
X154938319Y-80345666D01*
X154941835Y-80327595D01*
X154970101Y-80249938D01*
X154981284Y-80186511D01*
X154984738Y-80172055D01*
X154989166Y-80157458D01*
X154989370Y-80140649D01*
X155000500Y-80077532D01*
X155000500Y-79991002D01*
X155001097Y-79978848D01*
X155004362Y-79945696D01*
X155000500Y-79922903D01*
X155000500Y-68975409D01*
X155000972Y-68964603D01*
X155004482Y-68924479D01*
X155016919Y-68798215D01*
X155020539Y-68778322D01*
X155037908Y-68713498D01*
X155038956Y-68709828D01*
X155066685Y-68618419D01*
X155072948Y-68602049D01*
X155103700Y-68536102D01*
X155106670Y-68530161D01*
X155149012Y-68450944D01*
X155156786Y-68438289D01*
X155199639Y-68377089D01*
X155205330Y-68369587D01*
X155261191Y-68301521D01*
X155269325Y-68292547D01*
X155322547Y-68239325D01*
X155331521Y-68231191D01*
X155399587Y-68175330D01*
X155407089Y-68169639D01*
X155468289Y-68126786D01*
X155480944Y-68119012D01*
X155560161Y-68076670D01*
X155566102Y-68073700D01*
X155632049Y-68042948D01*
X155648419Y-68036685D01*
X155739828Y-68008956D01*
X155743498Y-68007908D01*
X155808318Y-67990540D01*
X155828221Y-67986918D01*
X155954471Y-67974483D01*
X155994640Y-67970968D01*
X156005402Y-67970500D01*
X173784587Y-67970500D01*
X173795394Y-67970971D01*
X173835519Y-67974482D01*
X173961780Y-67986919D01*
X173981682Y-67990540D01*
X174046467Y-68007899D01*
X174050203Y-68008966D01*
X174141570Y-68036682D01*
X174157959Y-68042952D01*
X174223867Y-68073686D01*
X174229867Y-68076685D01*
X174272639Y-68099548D01*
X174309046Y-68119008D01*
X174321715Y-68126791D01*
X174382889Y-68169625D01*
X174390430Y-68175346D01*
X174458455Y-68231172D01*
X174467472Y-68239345D01*
X174520653Y-68292526D01*
X174528826Y-68301543D01*
X174584652Y-68369568D01*
X174590373Y-68377109D01*
X174633207Y-68438283D01*
X174640990Y-68450952D01*
X174683304Y-68530114D01*
X174686328Y-68536163D01*
X174717041Y-68602027D01*
X174723319Y-68618436D01*
X174751008Y-68709713D01*
X174752123Y-68713616D01*
X174769454Y-68778298D01*
X174773082Y-68798237D01*
X174785523Y-68924554D01*
X174787207Y-68943801D01*
X174789030Y-68964638D01*
X174789500Y-68975406D01*
X174789500Y-107994583D01*
X174789028Y-108005393D01*
X174785523Y-108045445D01*
X174773082Y-108171764D01*
X174769455Y-108191696D01*
X174752123Y-108256382D01*
X174751008Y-108260285D01*
X174723319Y-108351562D01*
X174717041Y-108367971D01*
X174686328Y-108433835D01*
X174683304Y-108439884D01*
X174640990Y-108519046D01*
X174633207Y-108531715D01*
X174590373Y-108592889D01*
X174584652Y-108600430D01*
X174528826Y-108668455D01*
X174520653Y-108677472D01*
X174467472Y-108730653D01*
X174458455Y-108738826D01*
X174390430Y-108794652D01*
X174382889Y-108800373D01*
X174321715Y-108843207D01*
X174309046Y-108850990D01*
X174229884Y-108893304D01*
X174223835Y-108896328D01*
X174157971Y-108927041D01*
X174141562Y-108933319D01*
X174050285Y-108961008D01*
X174046382Y-108962123D01*
X173981700Y-108979454D01*
X173961761Y-108983082D01*
X173835445Y-108995523D01*
X173816131Y-108997213D01*
X173795360Y-108999031D01*
X173784594Y-108999500D01*
X155505415Y-108999500D01*
X155494606Y-108999028D01*
X155454550Y-108995523D01*
X155326388Y-108982900D01*
X155306455Y-108979273D01*
X155241194Y-108961786D01*
X155237293Y-108960672D01*
X155144797Y-108932614D01*
X155128388Y-108926336D01*
X155116117Y-108920614D01*
X155061864Y-108895315D01*
X155055840Y-108892303D01*
X154978548Y-108850990D01*
X154975658Y-108849445D01*
X154962989Y-108841662D01*
X154901193Y-108798392D01*
X154893652Y-108792671D01*
X154824768Y-108736140D01*
X154815751Y-108727967D01*
X154762031Y-108674247D01*
X154753858Y-108665230D01*
X154697327Y-108596346D01*
X154691606Y-108588805D01*
X154648336Y-108527009D01*
X154640556Y-108514346D01*
X154597680Y-108434130D01*
X154594697Y-108428164D01*
X154563657Y-108361598D01*
X154557384Y-108345201D01*
X154529326Y-108252705D01*
X154528212Y-108248804D01*
X154512910Y-108191696D01*
X154510724Y-108183538D01*
X154507100Y-108163618D01*
X154494473Y-108035415D01*
X154490968Y-107995359D01*
X154490500Y-107984598D01*
X154490500Y-87607101D01*
X154495074Y-87591522D01*
X154491097Y-87551142D01*
X154490500Y-87538987D01*
X154490500Y-87453342D01*
X154485855Y-87426998D01*
X154479651Y-87391813D01*
X154480984Y-87379854D01*
X154474924Y-87359874D01*
X154471469Y-87345410D01*
X154460647Y-87284035D01*
X154460405Y-87282660D01*
X154432768Y-87206731D01*
X154431927Y-87193485D01*
X154423603Y-87177912D01*
X154416443Y-87161877D01*
X154401127Y-87119797D01*
X154398678Y-87115556D01*
X154353325Y-87037001D01*
X154349794Y-87022448D01*
X154339811Y-87010284D01*
X154328281Y-86993624D01*
X154314470Y-86969702D01*
X154314468Y-86969700D01*
X154311800Y-86965078D01*
X154302451Y-86951249D01*
X154300455Y-86947516D01*
X154281739Y-86930695D01*
X154259307Y-86903962D01*
X154244239Y-86886004D01*
X154237570Y-86870766D01*
X154226837Y-86861958D01*
X154210512Y-86845810D01*
X154203064Y-86836933D01*
X154194187Y-86829485D01*
X154178040Y-86813161D01*
X154173744Y-86807927D01*
X154153992Y-86795758D01*
X154144540Y-86787827D01*
X154109303Y-86758259D01*
X154099262Y-86743167D01*
X154088749Y-86737548D01*
X154074925Y-86728201D01*
X154062968Y-86721298D01*
X154046381Y-86711721D01*
X154029720Y-86700190D01*
X154022551Y-86694307D01*
X154002997Y-86686674D01*
X153920205Y-86638874D01*
X153920204Y-86638873D01*
X153920203Y-86638873D01*
X153878126Y-86623558D01*
X153862092Y-86616398D01*
X153851621Y-86610801D01*
X153833266Y-86607230D01*
X153810632Y-86598992D01*
X153757340Y-86579595D01*
X153729709Y-86574723D01*
X153694588Y-86568530D01*
X153680128Y-86565075D01*
X153665232Y-86560556D01*
X153648183Y-86560348D01*
X153586659Y-86549500D01*
X153586658Y-86549500D01*
X153501021Y-86549500D01*
X153488866Y-86548903D01*
X153455585Y-86545624D01*
X153432848Y-86549471D01*
X152743791Y-86549184D01*
X129567051Y-86539527D01*
X129551433Y-86534934D01*
X129511137Y-86538903D01*
X129498983Y-86539500D01*
X129412466Y-86539500D01*
X129349352Y-86550628D01*
X129337550Y-86549311D01*
X129317927Y-86555264D01*
X129303466Y-86558719D01*
X129240062Y-86569899D01*
X129162407Y-86598163D01*
X129149355Y-86598992D01*
X129134129Y-86607131D01*
X129118089Y-86614293D01*
X129075556Y-86629774D01*
X128991024Y-86678579D01*
X128976686Y-86682057D01*
X128964817Y-86691798D01*
X128948156Y-86703329D01*
X128919415Y-86719922D01*
X128905444Y-86729368D01*
X128901921Y-86731250D01*
X128885338Y-86749702D01*
X128838605Y-86788915D01*
X128823589Y-86795486D01*
X128815015Y-86805934D01*
X128798873Y-86822254D01*
X128789836Y-86829836D01*
X128782254Y-86838873D01*
X128765934Y-86855015D01*
X128760905Y-86859142D01*
X128748915Y-86878605D01*
X128709702Y-86925338D01*
X128694824Y-86935236D01*
X128689368Y-86945444D01*
X128679922Y-86959415D01*
X128663329Y-86988156D01*
X128651798Y-87004817D01*
X128646096Y-87011764D01*
X128638579Y-87031024D01*
X128589774Y-87115556D01*
X128574293Y-87158089D01*
X128567131Y-87174129D01*
X128561680Y-87184325D01*
X128558163Y-87202407D01*
X128529899Y-87280062D01*
X128518719Y-87343466D01*
X128515264Y-87357927D01*
X128510831Y-87372540D01*
X128510628Y-87389352D01*
X128499500Y-87452465D01*
X128499500Y-87538982D01*
X128498903Y-87551136D01*
X128495636Y-87584303D01*
X128499499Y-87607101D01*
X128499499Y-107994583D01*
X128499027Y-108005390D01*
X128495523Y-108045442D01*
X128483082Y-108171764D01*
X128479455Y-108191696D01*
X128462123Y-108256382D01*
X128461008Y-108260285D01*
X128433319Y-108351562D01*
X128427041Y-108367971D01*
X128396328Y-108433835D01*
X128393304Y-108439884D01*
X128350990Y-108519046D01*
X128343207Y-108531715D01*
X128300373Y-108592889D01*
X128294652Y-108600430D01*
X128238826Y-108668455D01*
X128230653Y-108677472D01*
X128177472Y-108730653D01*
X128168455Y-108738826D01*
X128100430Y-108794652D01*
X128092889Y-108800373D01*
X128031715Y-108843207D01*
X128019046Y-108850990D01*
X127939884Y-108893304D01*
X127933835Y-108896328D01*
X127867971Y-108927041D01*
X127851562Y-108933319D01*
X127760285Y-108961008D01*
X127756382Y-108962123D01*
X127691700Y-108979454D01*
X127671761Y-108983082D01*
X127545445Y-108995523D01*
X127526131Y-108997213D01*
X127505360Y-108999031D01*
X127494594Y-108999500D01*
X108925416Y-108999500D01*
X108914606Y-108999028D01*
X108874554Y-108995523D01*
X108748234Y-108983082D01*
X108728302Y-108979455D01*
X108663616Y-108962123D01*
X108659713Y-108961008D01*
X108568436Y-108933319D01*
X108552027Y-108927041D01*
X108486163Y-108896328D01*
X108480114Y-108893304D01*
X108400952Y-108850990D01*
X108388283Y-108843207D01*
X108327109Y-108800373D01*
X108319568Y-108794652D01*
X108251543Y-108738826D01*
X108242526Y-108730653D01*
X108189345Y-108677472D01*
X108181172Y-108668455D01*
X108125346Y-108600430D01*
X108119625Y-108592889D01*
X108076791Y-108531715D01*
X108069008Y-108519046D01*
X108049548Y-108482639D01*
X108026685Y-108439867D01*
X108023686Y-108433867D01*
X107992952Y-108367959D01*
X107986682Y-108351570D01*
X107958966Y-108260203D01*
X107957899Y-108256467D01*
X107940541Y-108191685D01*
X107936918Y-108171773D01*
X107924476Y-108045442D01*
X107923598Y-108035415D01*
X107920968Y-108005360D01*
X107920500Y-107994597D01*
X107920500Y-79080000D01*
X112294722Y-79080000D01*
X112313792Y-79297974D01*
X112313793Y-79297977D01*
X112370425Y-79509330D01*
X112462898Y-79707639D01*
X112588402Y-79886877D01*
X112743123Y-80041598D01*
X112922361Y-80167102D01*
X113120670Y-80259575D01*
X113332023Y-80316207D01*
X113462158Y-80327592D01*
X113549999Y-80335277D01*
X113549999Y-80335276D01*
X113550000Y-80335277D01*
X113767977Y-80316207D01*
X113979330Y-80259575D01*
X114177639Y-80167102D01*
X114356877Y-80041598D01*
X114511598Y-79886877D01*
X114514050Y-79883374D01*
X114568629Y-79839750D01*
X114615624Y-79830500D01*
X115155500Y-79830500D01*
X115222539Y-79850185D01*
X115268294Y-79902989D01*
X115279500Y-79954500D01*
X115279500Y-91955500D01*
X115259815Y-92022539D01*
X115207011Y-92068294D01*
X115155500Y-92079500D01*
X114665624Y-92079500D01*
X114598585Y-92059815D01*
X114564047Y-92026621D01*
X114561595Y-92023119D01*
X114406880Y-91868405D01*
X114406877Y-91868402D01*
X114227639Y-91742898D01*
X114119306Y-91692381D01*
X114066868Y-91646210D01*
X114047716Y-91579016D01*
X114067932Y-91512135D01*
X114119307Y-91467618D01*
X114227639Y-91417102D01*
X114406877Y-91291598D01*
X114561598Y-91136877D01*
X114687102Y-90957639D01*
X114779575Y-90759330D01*
X114836207Y-90547977D01*
X114855277Y-90330000D01*
X114854279Y-90318598D01*
X114836207Y-90112025D01*
X114836207Y-90112023D01*
X114779575Y-89900670D01*
X114687102Y-89702362D01*
X114561598Y-89523123D01*
X114406877Y-89368402D01*
X114227639Y-89242898D01*
X114119306Y-89192381D01*
X114066868Y-89146210D01*
X114047716Y-89079016D01*
X114067932Y-89012135D01*
X114119307Y-88967618D01*
X114227639Y-88917102D01*
X114406877Y-88791598D01*
X114561598Y-88636877D01*
X114687102Y-88457639D01*
X114779575Y-88259330D01*
X114836207Y-88047977D01*
X114855277Y-87830000D01*
X114836207Y-87612023D01*
X114779575Y-87400670D01*
X114687102Y-87202362D01*
X114561598Y-87023123D01*
X114406877Y-86868402D01*
X114227639Y-86742898D01*
X114172761Y-86717308D01*
X114118714Y-86692105D01*
X114066275Y-86645932D01*
X114047123Y-86578739D01*
X114067339Y-86511858D01*
X114118715Y-86467340D01*
X114227388Y-86416665D01*
X114289572Y-86373124D01*
X113732534Y-85816086D01*
X113742315Y-85814680D01*
X113873100Y-85754952D01*
X113981761Y-85660798D01*
X114059493Y-85539844D01*
X114083076Y-85459524D01*
X114643124Y-86019572D01*
X114686667Y-85957385D01*
X114779102Y-85759159D01*
X114835712Y-85547886D01*
X114854775Y-85330000D01*
X114835712Y-85112113D01*
X114779102Y-84900840D01*
X114686667Y-84702615D01*
X114643123Y-84640427D01*
X114083076Y-85200474D01*
X114059493Y-85120156D01*
X113981761Y-84999202D01*
X113873100Y-84905048D01*
X113742315Y-84845320D01*
X113732534Y-84843913D01*
X114289572Y-84286875D01*
X114289571Y-84286873D01*
X114227386Y-84243331D01*
X114029161Y-84150898D01*
X113817886Y-84094287D01*
X113599999Y-84075224D01*
X113382113Y-84094287D01*
X113170840Y-84150897D01*
X112972611Y-84243333D01*
X112910428Y-84286874D01*
X112910427Y-84286875D01*
X113467466Y-84843913D01*
X113457685Y-84845320D01*
X113326900Y-84905048D01*
X113218239Y-84999202D01*
X113140507Y-85120156D01*
X113116923Y-85200475D01*
X112556875Y-84640427D01*
X112556874Y-84640428D01*
X112513333Y-84702611D01*
X112420897Y-84900840D01*
X112364287Y-85112113D01*
X112345224Y-85330000D01*
X112364287Y-85547886D01*
X112420898Y-85759161D01*
X112513331Y-85957386D01*
X112556873Y-86019571D01*
X112556875Y-86019572D01*
X113116923Y-85459523D01*
X113140507Y-85539844D01*
X113218239Y-85660798D01*
X113326900Y-85754952D01*
X113457685Y-85814680D01*
X113467466Y-85816086D01*
X112910426Y-86373124D01*
X112910427Y-86373125D01*
X112972612Y-86416667D01*
X113081284Y-86467341D01*
X113133724Y-86513513D01*
X113152876Y-86580706D01*
X113132661Y-86647587D01*
X113081286Y-86692105D01*
X112972359Y-86742899D01*
X112793122Y-86868402D01*
X112638402Y-87023122D01*
X112512898Y-87202361D01*
X112420425Y-87400668D01*
X112363792Y-87612025D01*
X112344722Y-87830000D01*
X112363792Y-88047974D01*
X112420425Y-88259331D01*
X112470261Y-88366205D01*
X112512898Y-88457639D01*
X112638402Y-88636877D01*
X112793123Y-88791598D01*
X112972361Y-88917102D01*
X113080693Y-88967618D01*
X113133132Y-89013790D01*
X113152284Y-89080984D01*
X113132068Y-89147865D01*
X113080693Y-89192382D01*
X112972361Y-89242898D01*
X112793122Y-89368402D01*
X112638402Y-89523122D01*
X112512898Y-89702361D01*
X112420425Y-89900668D01*
X112363792Y-90112025D01*
X112344722Y-90329999D01*
X112363792Y-90547974D01*
X112411584Y-90726337D01*
X112420425Y-90759330D01*
X112512898Y-90957639D01*
X112638402Y-91136877D01*
X112793123Y-91291598D01*
X112972361Y-91417102D01*
X113080693Y-91467618D01*
X113133132Y-91513790D01*
X113152284Y-91580984D01*
X113132068Y-91647865D01*
X113080693Y-91692382D01*
X112972361Y-91742898D01*
X112793122Y-91868402D01*
X112638402Y-92023122D01*
X112512898Y-92202361D01*
X112420425Y-92400668D01*
X112363792Y-92612025D01*
X112344722Y-92829999D01*
X112363792Y-93047974D01*
X112364916Y-93052170D01*
X112420425Y-93259330D01*
X112512898Y-93457639D01*
X112638402Y-93636877D01*
X112793123Y-93791598D01*
X112972361Y-93917102D01*
X113170670Y-94009575D01*
X113382023Y-94066207D01*
X113600000Y-94085277D01*
X113817977Y-94066207D01*
X114029330Y-94009575D01*
X114227639Y-93917102D01*
X114406877Y-93791598D01*
X114561598Y-93636877D01*
X114564050Y-93633374D01*
X114618629Y-93589750D01*
X114665624Y-93580500D01*
X115155500Y-93580500D01*
X115222539Y-93600185D01*
X115268294Y-93652989D01*
X115279500Y-93704500D01*
X115279499Y-97822225D01*
X115276938Y-97847297D01*
X115267266Y-97894141D01*
X115272369Y-98069512D01*
X115275275Y-98080356D01*
X115279500Y-98112450D01*
X115279500Y-103716294D01*
X115278191Y-103734264D01*
X115274711Y-103758023D01*
X115279028Y-103807368D01*
X115279500Y-103818175D01*
X115279500Y-103823709D01*
X115279916Y-103827272D01*
X115279917Y-103827282D01*
X115283098Y-103854496D01*
X115283464Y-103858082D01*
X115290109Y-103934041D01*
X115294329Y-103953071D01*
X115294758Y-103954251D01*
X115294759Y-103954255D01*
X115320413Y-104024742D01*
X115321582Y-104028107D01*
X115345580Y-104100524D01*
X115354075Y-104118072D01*
X115395979Y-104181784D01*
X115397889Y-104184782D01*
X115434005Y-104243333D01*
X115437952Y-104249732D01*
X115450253Y-104264830D01*
X115451168Y-104265693D01*
X115451170Y-104265696D01*
X115503378Y-104314952D01*
X115505708Y-104317150D01*
X115508294Y-104319662D01*
X116060951Y-104872319D01*
X116094435Y-104933641D01*
X116089451Y-105003333D01*
X116060950Y-105047680D01*
X115225451Y-105883181D01*
X115164128Y-105916666D01*
X115137770Y-105919500D01*
X114745624Y-105919500D01*
X114678585Y-105899815D01*
X114644047Y-105866621D01*
X114641595Y-105863119D01*
X114486880Y-105708405D01*
X114486877Y-105708402D01*
X114307639Y-105582898D01*
X114199306Y-105532381D01*
X114146868Y-105486210D01*
X114127716Y-105419016D01*
X114147932Y-105352135D01*
X114199307Y-105307618D01*
X114307639Y-105257102D01*
X114486877Y-105131598D01*
X114641598Y-104976877D01*
X114767102Y-104797639D01*
X114859575Y-104599330D01*
X114916207Y-104387977D01*
X114935277Y-104170000D01*
X114916207Y-103952023D01*
X114859575Y-103740670D01*
X114767102Y-103542362D01*
X114641598Y-103363123D01*
X114486877Y-103208402D01*
X114307639Y-103082898D01*
X114199306Y-103032381D01*
X114146868Y-102986210D01*
X114127716Y-102919016D01*
X114147932Y-102852135D01*
X114199307Y-102807618D01*
X114307639Y-102757102D01*
X114486877Y-102631598D01*
X114641598Y-102476877D01*
X114767102Y-102297639D01*
X114859575Y-102099330D01*
X114916207Y-101887977D01*
X114935277Y-101670000D01*
X114916207Y-101452023D01*
X114859575Y-101240670D01*
X114767102Y-101042362D01*
X114641598Y-100863123D01*
X114486877Y-100708402D01*
X114307639Y-100582898D01*
X114232751Y-100547977D01*
X114198714Y-100532105D01*
X114146275Y-100485932D01*
X114127123Y-100418739D01*
X114147339Y-100351858D01*
X114198715Y-100307340D01*
X114307388Y-100256665D01*
X114369572Y-100213124D01*
X113812534Y-99656086D01*
X113822315Y-99654680D01*
X113953100Y-99594952D01*
X114061761Y-99500798D01*
X114139493Y-99379844D01*
X114163076Y-99299524D01*
X114723124Y-99859572D01*
X114766667Y-99797385D01*
X114859102Y-99599159D01*
X114915712Y-99387886D01*
X114934775Y-99170000D01*
X114915712Y-98952113D01*
X114859102Y-98740840D01*
X114766667Y-98542615D01*
X114723123Y-98480427D01*
X114163076Y-99040474D01*
X114139493Y-98960156D01*
X114061761Y-98839202D01*
X113953100Y-98745048D01*
X113822315Y-98685320D01*
X113812534Y-98683913D01*
X114369572Y-98126875D01*
X114369571Y-98126873D01*
X114307386Y-98083331D01*
X114109161Y-97990898D01*
X113897886Y-97934287D01*
X113680000Y-97915224D01*
X113462113Y-97934287D01*
X113250840Y-97990897D01*
X113052611Y-98083333D01*
X112990428Y-98126874D01*
X112990427Y-98126875D01*
X113547466Y-98683913D01*
X113537685Y-98685320D01*
X113406900Y-98745048D01*
X113298239Y-98839202D01*
X113220507Y-98960156D01*
X113196923Y-99040475D01*
X112636875Y-98480427D01*
X112636874Y-98480428D01*
X112593333Y-98542611D01*
X112500897Y-98740840D01*
X112444287Y-98952113D01*
X112425224Y-99170000D01*
X112444287Y-99387886D01*
X112500898Y-99599161D01*
X112593331Y-99797386D01*
X112636873Y-99859571D01*
X112636875Y-99859572D01*
X113196923Y-99299523D01*
X113220507Y-99379844D01*
X113298239Y-99500798D01*
X113406900Y-99594952D01*
X113537685Y-99654680D01*
X113547466Y-99656086D01*
X112990426Y-100213124D01*
X112990427Y-100213125D01*
X113052612Y-100256667D01*
X113161284Y-100307341D01*
X113213724Y-100353513D01*
X113232876Y-100420706D01*
X113212661Y-100487587D01*
X113161286Y-100532105D01*
X113052359Y-100582899D01*
X112873122Y-100708402D01*
X112718402Y-100863122D01*
X112592898Y-101042361D01*
X112500425Y-101240668D01*
X112443792Y-101452025D01*
X112424722Y-101670000D01*
X112443792Y-101887974D01*
X112481266Y-102027830D01*
X112500425Y-102099330D01*
X112592898Y-102297639D01*
X112718402Y-102476877D01*
X112873123Y-102631598D01*
X113052361Y-102757102D01*
X113160693Y-102807618D01*
X113213132Y-102853790D01*
X113232284Y-102920984D01*
X113212068Y-102987865D01*
X113160693Y-103032382D01*
X113052361Y-103082898D01*
X112873122Y-103208402D01*
X112718402Y-103363122D01*
X112592898Y-103542361D01*
X112500425Y-103740668D01*
X112443792Y-103952025D01*
X112424722Y-104169999D01*
X112443792Y-104387974D01*
X112491916Y-104567576D01*
X112500425Y-104599330D01*
X112592898Y-104797639D01*
X112718402Y-104976877D01*
X112873123Y-105131598D01*
X113052361Y-105257102D01*
X113160693Y-105307618D01*
X113213132Y-105353790D01*
X113232284Y-105420984D01*
X113212068Y-105487865D01*
X113160693Y-105532382D01*
X113052361Y-105582898D01*
X112873122Y-105708402D01*
X112718402Y-105863122D01*
X112592898Y-106042361D01*
X112500425Y-106240668D01*
X112443792Y-106452025D01*
X112424722Y-106669999D01*
X112443792Y-106887974D01*
X112500425Y-107099331D01*
X112543498Y-107191701D01*
X112592898Y-107297639D01*
X112718402Y-107476877D01*
X112873123Y-107631598D01*
X113052361Y-107757102D01*
X113250670Y-107849575D01*
X113462023Y-107906207D01*
X113680000Y-107925277D01*
X113897977Y-107906207D01*
X114109330Y-107849575D01*
X114307639Y-107757102D01*
X114486877Y-107631598D01*
X114641598Y-107476877D01*
X114644050Y-107473374D01*
X114698629Y-107429750D01*
X114745624Y-107420500D01*
X115436294Y-107420500D01*
X115454264Y-107421809D01*
X115458320Y-107422402D01*
X115478023Y-107425289D01*
X115527368Y-107420972D01*
X115538176Y-107420500D01*
X115540100Y-107420500D01*
X115543709Y-107420500D01*
X115574550Y-107416894D01*
X115578031Y-107416539D01*
X115652797Y-107409999D01*
X115652797Y-107409998D01*
X115654052Y-107409889D01*
X115673062Y-107405674D01*
X115674250Y-107405241D01*
X115674255Y-107405241D01*
X115744820Y-107379557D01*
X115748095Y-107378419D01*
X115819334Y-107354814D01*
X115819336Y-107354812D01*
X115820536Y-107354415D01*
X115838063Y-107345929D01*
X115839112Y-107345238D01*
X115839117Y-107345237D01*
X115901806Y-107304005D01*
X115904798Y-107302099D01*
X115968656Y-107262712D01*
X115968656Y-107262711D01*
X115969729Y-107262050D01*
X115984824Y-107249753D01*
X115985692Y-107248832D01*
X115985696Y-107248830D01*
X116037185Y-107194253D01*
X116039631Y-107191735D01*
X117122318Y-106109047D01*
X117183641Y-106075563D01*
X117253333Y-106080547D01*
X117297680Y-106109048D01*
X118034269Y-106845637D01*
X118046051Y-106859270D01*
X118060390Y-106878531D01*
X118098338Y-106910373D01*
X118106313Y-106917681D01*
X118110223Y-106921591D01*
X118134556Y-106940830D01*
X118137335Y-106943095D01*
X118195752Y-106992113D01*
X118212179Y-107002578D01*
X118281320Y-107034819D01*
X118284567Y-107036391D01*
X118352699Y-107070609D01*
X118371087Y-107077000D01*
X118372323Y-107077255D01*
X118372327Y-107077257D01*
X118445895Y-107092447D01*
X118449242Y-107093189D01*
X118522279Y-107110500D01*
X118522281Y-107110500D01*
X118523509Y-107110791D01*
X118542878Y-107112770D01*
X118544140Y-107112733D01*
X118544144Y-107112734D01*
X118616533Y-107110627D01*
X118619131Y-107110552D01*
X118622737Y-107110500D01*
X125173285Y-107110500D01*
X125240324Y-107130185D01*
X125274859Y-107163376D01*
X125371505Y-107301401D01*
X125538599Y-107468495D01*
X125732170Y-107604035D01*
X125946337Y-107703903D01*
X126174592Y-107765063D01*
X126410000Y-107785659D01*
X126645408Y-107765063D01*
X126873663Y-107703903D01*
X127087830Y-107604035D01*
X127281401Y-107468495D01*
X127448495Y-107301401D01*
X127584035Y-107107830D01*
X127683903Y-106893663D01*
X127745063Y-106665408D01*
X127765659Y-106430000D01*
X127745063Y-106194592D01*
X127683903Y-105966337D01*
X127584035Y-105752171D01*
X127448495Y-105558599D01*
X127281401Y-105391505D01*
X127095402Y-105261267D01*
X127051780Y-105206692D01*
X127044587Y-105137193D01*
X127076109Y-105074839D01*
X127095405Y-105058119D01*
X127281078Y-104928109D01*
X127448106Y-104761081D01*
X127583600Y-104567576D01*
X127683430Y-104353492D01*
X127740636Y-104140000D01*
X126843686Y-104140000D01*
X126869493Y-104099844D01*
X126910000Y-103961889D01*
X126910000Y-103818111D01*
X126869493Y-103680156D01*
X126843686Y-103640000D01*
X127740636Y-103640000D01*
X127740635Y-103639999D01*
X127683430Y-103426507D01*
X127583599Y-103212421D01*
X127448109Y-103018921D01*
X127281081Y-102851893D01*
X127095404Y-102721880D01*
X127051780Y-102667303D01*
X127044587Y-102597804D01*
X127076109Y-102535450D01*
X127095399Y-102518734D01*
X127281401Y-102388495D01*
X127448495Y-102221401D01*
X127584035Y-102027830D01*
X127683903Y-101813663D01*
X127745063Y-101585408D01*
X127765659Y-101350000D01*
X127745063Y-101114592D01*
X127683903Y-100886337D01*
X127584035Y-100672171D01*
X127448495Y-100478599D01*
X127281401Y-100311505D01*
X127095839Y-100181573D01*
X127052216Y-100126998D01*
X127045022Y-100057500D01*
X127076545Y-99995145D01*
X127095837Y-99978428D01*
X127281401Y-99848495D01*
X127448495Y-99681401D01*
X127584035Y-99487830D01*
X127683903Y-99273663D01*
X127745063Y-99045408D01*
X127765659Y-98810000D01*
X127745778Y-98582770D01*
X127745063Y-98574592D01*
X127726570Y-98505575D01*
X127683903Y-98346337D01*
X127584035Y-98132171D01*
X127448495Y-97938599D01*
X127281401Y-97771505D01*
X127095839Y-97641573D01*
X127052216Y-97586998D01*
X127045022Y-97517500D01*
X127076545Y-97455145D01*
X127095837Y-97438428D01*
X127281401Y-97308495D01*
X127448495Y-97141401D01*
X127584035Y-96947830D01*
X127683903Y-96733663D01*
X127745063Y-96505408D01*
X127765659Y-96270000D01*
X127745063Y-96034592D01*
X127683903Y-95806337D01*
X127584035Y-95592171D01*
X127448495Y-95398599D01*
X127281401Y-95231505D01*
X127095839Y-95101573D01*
X127052216Y-95046998D01*
X127045022Y-94977500D01*
X127076545Y-94915145D01*
X127095837Y-94898428D01*
X127281401Y-94768495D01*
X127448495Y-94601401D01*
X127584035Y-94407830D01*
X127683903Y-94193663D01*
X127745063Y-93965408D01*
X127765659Y-93730000D01*
X127745063Y-93494592D01*
X127683903Y-93266337D01*
X127584035Y-93052171D01*
X127448495Y-92858599D01*
X127281401Y-92691505D01*
X127095839Y-92561573D01*
X127052216Y-92506998D01*
X127045022Y-92437500D01*
X127076545Y-92375145D01*
X127095837Y-92358428D01*
X127281401Y-92228495D01*
X127448495Y-92061401D01*
X127584035Y-91867830D01*
X127683903Y-91653663D01*
X127745063Y-91425408D01*
X127765659Y-91190000D01*
X127761011Y-91136880D01*
X127745063Y-90954592D01*
X127725191Y-90880427D01*
X127683903Y-90726337D01*
X127584035Y-90512171D01*
X127448495Y-90318599D01*
X127281401Y-90151505D01*
X127095839Y-90021573D01*
X127052216Y-89966998D01*
X127045022Y-89897500D01*
X127076545Y-89835145D01*
X127095837Y-89818428D01*
X127281401Y-89688495D01*
X127448495Y-89521401D01*
X127584035Y-89327830D01*
X127683903Y-89113663D01*
X127745063Y-88885408D01*
X127765659Y-88650000D01*
X127745063Y-88414592D01*
X127683903Y-88186337D01*
X127584035Y-87972171D01*
X127448495Y-87778599D01*
X127281401Y-87611505D01*
X127095839Y-87481573D01*
X127052216Y-87426998D01*
X127045022Y-87357500D01*
X127076545Y-87295145D01*
X127095837Y-87278428D01*
X127281401Y-87148495D01*
X127448495Y-86981401D01*
X127584035Y-86787830D01*
X127683903Y-86573663D01*
X127745063Y-86345408D01*
X127765659Y-86110000D01*
X127745063Y-85874592D01*
X127683903Y-85646337D01*
X127584035Y-85432171D01*
X127448495Y-85238599D01*
X127326568Y-85116673D01*
X127293084Y-85055350D01*
X127298068Y-84985658D01*
X127339940Y-84929725D01*
X127370915Y-84912810D01*
X127502331Y-84863796D01*
X127617546Y-84777546D01*
X127703796Y-84662331D01*
X127754091Y-84527483D01*
X127760500Y-84467873D01*
X127760499Y-83111228D01*
X127780184Y-83044190D01*
X127832987Y-82998435D01*
X127902146Y-82988491D01*
X127965702Y-83017516D01*
X127972180Y-83023548D01*
X129164269Y-84215637D01*
X129176051Y-84229270D01*
X129190390Y-84248531D01*
X129228338Y-84280373D01*
X129236313Y-84287681D01*
X129240223Y-84291591D01*
X129264556Y-84310830D01*
X129267335Y-84313095D01*
X129325752Y-84362113D01*
X129342179Y-84372578D01*
X129411320Y-84404819D01*
X129414567Y-84406391D01*
X129482699Y-84440609D01*
X129501087Y-84447000D01*
X129502323Y-84447255D01*
X129502327Y-84447257D01*
X129575895Y-84462447D01*
X129579242Y-84463189D01*
X129652279Y-84480500D01*
X129652281Y-84480500D01*
X129653509Y-84480791D01*
X129672878Y-84482770D01*
X129674140Y-84482733D01*
X129674144Y-84482734D01*
X129746533Y-84480627D01*
X129749131Y-84480552D01*
X129752737Y-84480500D01*
X153186294Y-84480500D01*
X153204264Y-84481809D01*
X153208320Y-84482402D01*
X153228023Y-84485289D01*
X153277368Y-84480972D01*
X153288176Y-84480500D01*
X153290100Y-84480500D01*
X153293709Y-84480500D01*
X153324550Y-84476894D01*
X153328031Y-84476539D01*
X153402797Y-84469999D01*
X153402797Y-84469998D01*
X153404052Y-84469889D01*
X153423062Y-84465674D01*
X153424250Y-84465241D01*
X153424255Y-84465241D01*
X153494820Y-84439557D01*
X153498095Y-84438419D01*
X153569334Y-84414814D01*
X153569336Y-84414812D01*
X153570536Y-84414415D01*
X153588063Y-84405929D01*
X153589112Y-84405238D01*
X153589117Y-84405237D01*
X153651806Y-84364005D01*
X153654798Y-84362099D01*
X153718656Y-84322712D01*
X153718656Y-84322711D01*
X153719729Y-84322050D01*
X153734824Y-84309753D01*
X153735692Y-84308832D01*
X153735696Y-84308830D01*
X153787184Y-84254254D01*
X153789630Y-84251736D01*
X155047821Y-82993545D01*
X155109142Y-82960062D01*
X155178834Y-82965046D01*
X155234767Y-83006918D01*
X155259184Y-83072382D01*
X155259500Y-83081228D01*
X155259500Y-84464560D01*
X155259500Y-84464578D01*
X155259501Y-84467872D01*
X155259853Y-84471152D01*
X155259854Y-84471159D01*
X155262883Y-84499331D01*
X155265909Y-84527483D01*
X155316204Y-84662331D01*
X155402454Y-84777546D01*
X155517669Y-84863796D01*
X155628271Y-84905048D01*
X155649082Y-84912810D01*
X155705016Y-84954681D01*
X155729433Y-85020146D01*
X155714581Y-85088419D01*
X155693431Y-85116673D01*
X155571503Y-85238601D01*
X155435965Y-85432170D01*
X155336097Y-85646336D01*
X155274936Y-85874592D01*
X155254340Y-86110000D01*
X155274936Y-86345407D01*
X155307608Y-86467340D01*
X155336097Y-86573663D01*
X155435965Y-86787830D01*
X155571505Y-86981401D01*
X155738599Y-87148495D01*
X155924160Y-87278426D01*
X155967783Y-87333002D01*
X155974976Y-87402501D01*
X155943454Y-87464855D01*
X155924159Y-87481575D01*
X155738595Y-87611508D01*
X155571505Y-87778598D01*
X155435965Y-87972170D01*
X155336097Y-88186336D01*
X155274936Y-88414592D01*
X155254340Y-88650000D01*
X155274936Y-88885407D01*
X155308207Y-89009575D01*
X155336097Y-89113663D01*
X155435965Y-89327830D01*
X155571505Y-89521401D01*
X155738599Y-89688495D01*
X155924160Y-89818426D01*
X155967783Y-89873002D01*
X155974976Y-89942501D01*
X155943454Y-90004855D01*
X155924158Y-90021575D01*
X155794986Y-90112023D01*
X155738595Y-90151508D01*
X155571505Y-90318598D01*
X155435965Y-90512170D01*
X155336097Y-90726336D01*
X155274936Y-90954592D01*
X155254340Y-91189999D01*
X155274936Y-91425407D01*
X155313680Y-91570000D01*
X155336097Y-91653663D01*
X155435965Y-91867830D01*
X155571505Y-92061401D01*
X155738599Y-92228495D01*
X155924160Y-92358426D01*
X155967783Y-92413002D01*
X155974976Y-92482501D01*
X155943454Y-92544855D01*
X155924158Y-92561575D01*
X155788355Y-92656666D01*
X155738595Y-92691508D01*
X155571505Y-92858598D01*
X155435965Y-93052170D01*
X155336097Y-93266336D01*
X155274936Y-93494592D01*
X155254340Y-93729999D01*
X155274936Y-93965407D01*
X155307055Y-94085277D01*
X155336097Y-94193663D01*
X155435965Y-94407830D01*
X155571505Y-94601401D01*
X155738599Y-94768495D01*
X155924160Y-94898426D01*
X155967783Y-94953002D01*
X155974976Y-95022501D01*
X155943454Y-95084855D01*
X155924159Y-95101575D01*
X155738595Y-95231508D01*
X155571505Y-95398598D01*
X155435965Y-95592170D01*
X155336097Y-95806336D01*
X155274936Y-96034592D01*
X155254340Y-96270000D01*
X155274936Y-96505407D01*
X155313794Y-96650425D01*
X155336097Y-96733663D01*
X155435965Y-96947830D01*
X155571505Y-97141401D01*
X155738599Y-97308495D01*
X155924160Y-97438426D01*
X155967783Y-97493002D01*
X155974976Y-97562501D01*
X155943454Y-97624855D01*
X155924159Y-97641575D01*
X155738595Y-97771508D01*
X155571505Y-97938598D01*
X155435965Y-98132170D01*
X155336097Y-98346336D01*
X155274936Y-98574592D01*
X155254340Y-98810000D01*
X155274936Y-99045407D01*
X155308321Y-99170000D01*
X155336097Y-99273663D01*
X155435965Y-99487830D01*
X155571505Y-99681401D01*
X155738599Y-99848495D01*
X155924160Y-99978426D01*
X155967783Y-100033002D01*
X155974976Y-100102501D01*
X155943454Y-100164855D01*
X155924158Y-100181575D01*
X155744548Y-100307340D01*
X155738595Y-100311508D01*
X155571505Y-100478598D01*
X155435965Y-100672170D01*
X155336097Y-100886336D01*
X155274936Y-101114592D01*
X155254340Y-101350000D01*
X155274936Y-101585407D01*
X155317136Y-101742898D01*
X155336097Y-101813663D01*
X155435965Y-102027830D01*
X155571505Y-102221401D01*
X155738599Y-102388495D01*
X155924596Y-102518732D01*
X155968219Y-102573307D01*
X155975412Y-102642806D01*
X155943890Y-102705160D01*
X155924595Y-102721880D01*
X155738919Y-102851892D01*
X155571890Y-103018921D01*
X155436400Y-103212421D01*
X155336569Y-103426507D01*
X155279364Y-103639999D01*
X155279364Y-103640000D01*
X156176314Y-103640000D01*
X156150507Y-103680156D01*
X156110000Y-103818111D01*
X156110000Y-103961889D01*
X156150507Y-104099844D01*
X156176314Y-104140000D01*
X155279364Y-104140000D01*
X155336569Y-104353492D01*
X155436399Y-104567576D01*
X155571893Y-104761081D01*
X155738918Y-104928106D01*
X155924595Y-105058119D01*
X155968219Y-105112696D01*
X155975412Y-105182195D01*
X155943890Y-105244549D01*
X155924595Y-105261269D01*
X155738595Y-105391508D01*
X155571505Y-105558598D01*
X155435965Y-105752170D01*
X155336097Y-105966336D01*
X155274936Y-106194592D01*
X155254340Y-106429999D01*
X155274936Y-106665407D01*
X155276167Y-106670000D01*
X155336097Y-106893663D01*
X155435965Y-107107830D01*
X155571505Y-107301401D01*
X155738599Y-107468495D01*
X155932170Y-107604035D01*
X156146337Y-107703903D01*
X156374592Y-107765063D01*
X156610000Y-107785659D01*
X156845408Y-107765063D01*
X157073663Y-107703903D01*
X157287830Y-107604035D01*
X157481401Y-107468495D01*
X157648495Y-107301401D01*
X157784035Y-107107830D01*
X157883903Y-106893663D01*
X157945063Y-106665408D01*
X157965659Y-106430000D01*
X157964492Y-106416667D01*
X157945063Y-106194592D01*
X157914505Y-106080547D01*
X157883903Y-105966337D01*
X157784035Y-105752171D01*
X157648495Y-105558599D01*
X157481401Y-105391505D01*
X157295402Y-105261267D01*
X157251780Y-105206692D01*
X157244587Y-105137193D01*
X157276109Y-105074839D01*
X157295405Y-105058119D01*
X157481078Y-104928109D01*
X157648106Y-104761081D01*
X157783600Y-104567576D01*
X157883430Y-104353492D01*
X157940636Y-104140000D01*
X157043686Y-104140000D01*
X157069493Y-104099844D01*
X157110000Y-103961889D01*
X157110000Y-103818111D01*
X157069493Y-103680156D01*
X157043686Y-103640000D01*
X157940636Y-103640000D01*
X157940635Y-103639999D01*
X157883430Y-103426507D01*
X157783599Y-103212421D01*
X157648109Y-103018921D01*
X157481081Y-102851893D01*
X157295404Y-102721880D01*
X157251780Y-102667303D01*
X157244587Y-102597804D01*
X157276109Y-102535450D01*
X157295399Y-102518734D01*
X157481401Y-102388495D01*
X157648495Y-102221401D01*
X157784035Y-102027830D01*
X157883903Y-101813663D01*
X157945063Y-101585408D01*
X157965659Y-101350000D01*
X157945063Y-101114592D01*
X157883903Y-100886337D01*
X157784035Y-100672171D01*
X157648495Y-100478599D01*
X157481401Y-100311505D01*
X157295839Y-100181573D01*
X157252216Y-100126998D01*
X157245022Y-100057500D01*
X157276545Y-99995145D01*
X157295837Y-99978428D01*
X157481401Y-99848495D01*
X157648495Y-99681401D01*
X157784035Y-99487830D01*
X157883903Y-99273663D01*
X157945063Y-99045408D01*
X157965659Y-98810000D01*
X157945063Y-98574592D01*
X157883903Y-98346337D01*
X157784035Y-98132171D01*
X157648495Y-97938599D01*
X157481401Y-97771505D01*
X157295839Y-97641573D01*
X157252216Y-97586998D01*
X157245022Y-97517500D01*
X157276545Y-97455145D01*
X157295837Y-97438428D01*
X157481401Y-97308495D01*
X157648495Y-97141401D01*
X157784035Y-96947830D01*
X157883903Y-96733663D01*
X157945063Y-96505408D01*
X157965659Y-96270000D01*
X157945063Y-96034592D01*
X157883903Y-95806337D01*
X157784035Y-95592171D01*
X157648495Y-95398599D01*
X157481401Y-95231505D01*
X157295839Y-95101573D01*
X157252216Y-95046998D01*
X157245022Y-94977500D01*
X157276545Y-94915145D01*
X157295837Y-94898428D01*
X157481401Y-94768495D01*
X157648495Y-94601401D01*
X157784035Y-94407830D01*
X157883903Y-94193663D01*
X157945063Y-93965408D01*
X157965659Y-93730000D01*
X157945063Y-93494592D01*
X157883903Y-93266337D01*
X157784035Y-93052171D01*
X157648495Y-92858599D01*
X157481401Y-92691505D01*
X157295839Y-92561573D01*
X157252216Y-92506998D01*
X157245022Y-92437500D01*
X157276545Y-92375145D01*
X157295837Y-92358428D01*
X157481401Y-92228495D01*
X157648495Y-92061401D01*
X157784035Y-91867830D01*
X157883903Y-91653663D01*
X157945063Y-91425408D01*
X157965659Y-91190000D01*
X157961011Y-91136880D01*
X157945063Y-90954592D01*
X157925191Y-90880427D01*
X157883903Y-90726337D01*
X157784035Y-90512171D01*
X157648495Y-90318599D01*
X157481401Y-90151505D01*
X157295839Y-90021573D01*
X157252216Y-89966998D01*
X157245022Y-89897500D01*
X157276545Y-89835145D01*
X157295837Y-89818428D01*
X157481401Y-89688495D01*
X157648495Y-89521401D01*
X157784035Y-89327830D01*
X157883903Y-89113663D01*
X157945063Y-88885408D01*
X157965659Y-88650000D01*
X157945063Y-88414592D01*
X157883903Y-88186337D01*
X157784035Y-87972171D01*
X157648495Y-87778599D01*
X157481401Y-87611505D01*
X157295839Y-87481573D01*
X157252216Y-87426998D01*
X157245022Y-87357500D01*
X157276545Y-87295145D01*
X157295837Y-87278428D01*
X157481401Y-87148495D01*
X157648495Y-86981401D01*
X157784035Y-86787830D01*
X157883903Y-86573663D01*
X157945063Y-86345408D01*
X157965659Y-86110000D01*
X157945063Y-85874592D01*
X157883903Y-85646337D01*
X157784035Y-85432171D01*
X157648495Y-85238599D01*
X157526569Y-85116673D01*
X157493084Y-85055350D01*
X157498068Y-84985658D01*
X157539940Y-84929725D01*
X157570915Y-84912810D01*
X157702331Y-84863796D01*
X157817546Y-84777546D01*
X157903796Y-84662331D01*
X157954091Y-84527483D01*
X157960500Y-84467873D01*
X157960499Y-82672128D01*
X157954091Y-82612517D01*
X157903796Y-82477669D01*
X157817546Y-82362454D01*
X157702331Y-82276204D01*
X157567483Y-82225909D01*
X157507873Y-82219500D01*
X157504551Y-82219500D01*
X156121229Y-82219500D01*
X156054190Y-82199815D01*
X156008435Y-82147011D01*
X155998491Y-82077853D01*
X156027516Y-82014297D01*
X156033548Y-82007819D01*
X156206543Y-81834825D01*
X156464548Y-81576819D01*
X156525872Y-81543334D01*
X156552230Y-81540500D01*
X163334728Y-81540500D01*
X163401767Y-81560185D01*
X163447522Y-81612989D01*
X163451250Y-81622091D01*
X163470399Y-81674704D01*
X163471582Y-81678107D01*
X163495580Y-81750524D01*
X163504075Y-81768072D01*
X163545979Y-81831784D01*
X163547889Y-81834782D01*
X163587288Y-81898656D01*
X163587952Y-81899732D01*
X163600253Y-81914830D01*
X163601168Y-81915693D01*
X163601170Y-81915696D01*
X163655709Y-81967151D01*
X163658296Y-81969664D01*
X164429976Y-82741344D01*
X165173181Y-83484548D01*
X165206666Y-83545871D01*
X165209500Y-83572229D01*
X165209500Y-84044554D01*
X165209290Y-84051764D01*
X165205668Y-84113933D01*
X165207616Y-84124975D01*
X165209500Y-84146509D01*
X165209500Y-96076294D01*
X165208191Y-96094264D01*
X165204711Y-96118023D01*
X165209028Y-96167368D01*
X165209500Y-96178175D01*
X165209500Y-96183709D01*
X165209916Y-96187272D01*
X165209917Y-96187282D01*
X165213098Y-96214496D01*
X165213464Y-96218082D01*
X165220109Y-96294041D01*
X165224329Y-96313071D01*
X165224758Y-96314251D01*
X165224759Y-96314255D01*
X165250413Y-96384742D01*
X165251582Y-96388107D01*
X165275580Y-96460524D01*
X165284075Y-96478072D01*
X165325979Y-96541784D01*
X165327889Y-96544782D01*
X165367288Y-96608656D01*
X165367952Y-96609732D01*
X165380253Y-96624830D01*
X165381168Y-96625693D01*
X165381170Y-96625696D01*
X165435708Y-96677150D01*
X165438295Y-96679663D01*
X167074269Y-98315637D01*
X167086051Y-98329270D01*
X167100390Y-98348531D01*
X167138338Y-98380373D01*
X167146313Y-98387681D01*
X167150223Y-98391591D01*
X167174556Y-98410830D01*
X167177335Y-98413095D01*
X167235752Y-98462113D01*
X167252179Y-98472578D01*
X167321320Y-98504819D01*
X167324567Y-98506391D01*
X167392699Y-98540609D01*
X167411087Y-98547000D01*
X167412323Y-98547255D01*
X167412327Y-98547257D01*
X167485895Y-98562447D01*
X167489242Y-98563189D01*
X167562279Y-98580500D01*
X167562281Y-98580500D01*
X167563509Y-98580791D01*
X167582878Y-98582770D01*
X167584140Y-98582733D01*
X167584144Y-98582734D01*
X167656533Y-98580627D01*
X167659131Y-98580552D01*
X167662737Y-98580500D01*
X167944376Y-98580500D01*
X168011415Y-98600185D01*
X168045949Y-98633374D01*
X168048402Y-98636877D01*
X168203123Y-98791598D01*
X168382361Y-98917102D01*
X168474691Y-98960156D01*
X168490693Y-98967618D01*
X168543132Y-99013790D01*
X168562284Y-99080984D01*
X168542068Y-99147865D01*
X168490693Y-99192382D01*
X168382361Y-99242898D01*
X168203122Y-99368402D01*
X168048402Y-99523122D01*
X167922898Y-99702361D01*
X167830425Y-99900668D01*
X167773792Y-100112025D01*
X167754722Y-100330000D01*
X167773792Y-100547974D01*
X167816779Y-100708405D01*
X167830425Y-100759330D01*
X167922898Y-100957639D01*
X168048402Y-101136877D01*
X168203123Y-101291598D01*
X168382361Y-101417102D01*
X168457254Y-101452025D01*
X168490693Y-101467618D01*
X168543132Y-101513790D01*
X168562284Y-101580984D01*
X168542068Y-101647865D01*
X168490693Y-101692382D01*
X168382361Y-101742898D01*
X168203122Y-101868402D01*
X168048402Y-102023122D01*
X167922898Y-102202361D01*
X167830425Y-102400668D01*
X167773792Y-102612025D01*
X167754722Y-102830000D01*
X167773792Y-103047974D01*
X167817855Y-103212421D01*
X167830425Y-103259330D01*
X167922898Y-103457639D01*
X168048402Y-103636877D01*
X168203123Y-103791598D01*
X168382361Y-103917102D01*
X168478407Y-103961889D01*
X168491285Y-103967894D01*
X168543724Y-104014066D01*
X168562876Y-104081260D01*
X168542660Y-104148141D01*
X168491285Y-104192658D01*
X168382612Y-104243333D01*
X168320428Y-104286874D01*
X168320427Y-104286875D01*
X168877466Y-104843913D01*
X168867685Y-104845320D01*
X168736900Y-104905048D01*
X168628239Y-104999202D01*
X168550507Y-105120156D01*
X168526923Y-105200475D01*
X167966875Y-104640427D01*
X167966874Y-104640428D01*
X167923333Y-104702611D01*
X167830897Y-104900840D01*
X167774287Y-105112113D01*
X167755224Y-105329999D01*
X167774287Y-105547886D01*
X167830898Y-105759161D01*
X167923331Y-105957386D01*
X167966873Y-106019571D01*
X167966875Y-106019572D01*
X168526923Y-105459523D01*
X168550507Y-105539844D01*
X168628239Y-105660798D01*
X168736900Y-105754952D01*
X168867685Y-105814680D01*
X168877466Y-105816086D01*
X168320426Y-106373124D01*
X168320427Y-106373125D01*
X168382610Y-106416666D01*
X168580840Y-106509102D01*
X168792113Y-106565712D01*
X169010000Y-106584775D01*
X169227886Y-106565712D01*
X169439159Y-106509102D01*
X169637385Y-106416667D01*
X169699572Y-106373124D01*
X169142534Y-105816086D01*
X169152315Y-105814680D01*
X169283100Y-105754952D01*
X169391761Y-105660798D01*
X169469493Y-105539844D01*
X169493076Y-105459524D01*
X170053124Y-106019572D01*
X170096667Y-105957385D01*
X170189102Y-105759159D01*
X170245712Y-105547886D01*
X170264775Y-105329999D01*
X170245712Y-105112113D01*
X170189102Y-104900840D01*
X170096667Y-104702615D01*
X170053123Y-104640428D01*
X169493076Y-105200475D01*
X169469493Y-105120156D01*
X169391761Y-104999202D01*
X169283100Y-104905048D01*
X169152315Y-104845320D01*
X169142534Y-104843913D01*
X169699572Y-104286875D01*
X169699571Y-104286873D01*
X169637386Y-104243331D01*
X169528716Y-104192658D01*
X169476276Y-104146486D01*
X169457124Y-104079293D01*
X169477340Y-104012411D01*
X169528715Y-103967894D01*
X169637639Y-103917102D01*
X169816877Y-103791598D01*
X169971598Y-103636877D01*
X170097102Y-103457639D01*
X170189575Y-103259330D01*
X170246207Y-103047977D01*
X170265277Y-102830000D01*
X170246207Y-102612023D01*
X170189575Y-102400670D01*
X170097102Y-102202362D01*
X169971598Y-102023123D01*
X169816877Y-101868402D01*
X169637639Y-101742898D01*
X169529306Y-101692381D01*
X169476868Y-101646210D01*
X169457716Y-101579016D01*
X169477932Y-101512135D01*
X169529307Y-101467618D01*
X169637639Y-101417102D01*
X169816877Y-101291598D01*
X169971598Y-101136877D01*
X170097102Y-100957639D01*
X170189575Y-100759330D01*
X170246207Y-100547977D01*
X170265277Y-100330000D01*
X170246207Y-100112023D01*
X170189575Y-99900670D01*
X170097102Y-99702362D01*
X169971598Y-99523123D01*
X169816877Y-99368402D01*
X169637639Y-99242898D01*
X169529306Y-99192381D01*
X169476868Y-99146210D01*
X169457716Y-99079016D01*
X169477932Y-99012135D01*
X169529307Y-98967618D01*
X169545309Y-98960156D01*
X169637639Y-98917102D01*
X169816877Y-98791598D01*
X169971598Y-98636877D01*
X170097102Y-98457639D01*
X170189575Y-98259330D01*
X170246207Y-98047977D01*
X170265277Y-97830000D01*
X170260159Y-97771505D01*
X170248792Y-97641575D01*
X170246207Y-97612023D01*
X170189575Y-97400670D01*
X170097102Y-97202362D01*
X169971598Y-97023123D01*
X169816877Y-96868402D01*
X169637639Y-96742898D01*
X169546205Y-96700261D01*
X169439331Y-96650425D01*
X169227974Y-96593792D01*
X169010000Y-96574722D01*
X168792025Y-96593792D01*
X168580668Y-96650425D01*
X168382361Y-96742898D01*
X168203125Y-96868400D01*
X168064126Y-97007398D01*
X168002802Y-97040882D01*
X167933111Y-97035897D01*
X167888764Y-97007397D01*
X166746819Y-95865451D01*
X166713334Y-95804128D01*
X166710500Y-95777770D01*
X166710500Y-84944500D01*
X166730185Y-84877461D01*
X166782989Y-84831706D01*
X166834500Y-84820500D01*
X167964376Y-84820500D01*
X168031415Y-84840185D01*
X168065949Y-84873374D01*
X168068402Y-84876877D01*
X168223123Y-85031598D01*
X168402361Y-85157102D01*
X168510693Y-85207618D01*
X168563132Y-85253790D01*
X168582284Y-85320984D01*
X168562068Y-85387865D01*
X168510693Y-85432382D01*
X168402361Y-85482898D01*
X168223122Y-85608402D01*
X168068402Y-85763122D01*
X167942898Y-85942361D01*
X167850425Y-86140668D01*
X167793792Y-86352025D01*
X167774722Y-86570000D01*
X167793792Y-86787974D01*
X167850425Y-86999331D01*
X167865204Y-87031024D01*
X167942898Y-87197639D01*
X168068402Y-87376877D01*
X168223123Y-87531598D01*
X168402361Y-87657102D01*
X168510693Y-87707618D01*
X168563132Y-87753790D01*
X168582284Y-87820984D01*
X168562068Y-87887865D01*
X168510693Y-87932382D01*
X168402361Y-87982898D01*
X168223122Y-88108402D01*
X168068402Y-88263122D01*
X167942898Y-88442361D01*
X167850425Y-88640668D01*
X167793792Y-88852025D01*
X167774722Y-89070000D01*
X167793792Y-89287974D01*
X167850425Y-89499331D01*
X167900261Y-89606205D01*
X167942898Y-89697639D01*
X168068402Y-89876877D01*
X168223123Y-90031598D01*
X168402361Y-90157102D01*
X168511285Y-90207894D01*
X168563724Y-90254066D01*
X168582876Y-90321260D01*
X168562660Y-90388141D01*
X168511285Y-90432658D01*
X168402612Y-90483333D01*
X168340428Y-90526874D01*
X168340427Y-90526875D01*
X168897466Y-91083913D01*
X168887685Y-91085320D01*
X168756900Y-91145048D01*
X168648239Y-91239202D01*
X168570507Y-91360156D01*
X168546923Y-91440475D01*
X167986875Y-90880427D01*
X167986874Y-90880428D01*
X167943333Y-90942611D01*
X167850897Y-91140840D01*
X167794287Y-91352113D01*
X167775224Y-91569999D01*
X167794287Y-91787886D01*
X167850898Y-91999161D01*
X167943331Y-92197386D01*
X167986873Y-92259571D01*
X167986875Y-92259572D01*
X168546923Y-91699523D01*
X168570507Y-91779844D01*
X168648239Y-91900798D01*
X168756900Y-91994952D01*
X168887685Y-92054680D01*
X168897466Y-92056086D01*
X168340426Y-92613124D01*
X168340427Y-92613125D01*
X168402610Y-92656666D01*
X168600840Y-92749102D01*
X168812113Y-92805712D01*
X169030000Y-92824775D01*
X169247886Y-92805712D01*
X169459159Y-92749102D01*
X169657385Y-92656667D01*
X169719572Y-92613124D01*
X169162534Y-92056086D01*
X169172315Y-92054680D01*
X169303100Y-91994952D01*
X169411761Y-91900798D01*
X169489493Y-91779844D01*
X169513076Y-91699524D01*
X170073124Y-92259572D01*
X170116667Y-92197385D01*
X170209102Y-91999159D01*
X170265712Y-91787886D01*
X170284775Y-91569999D01*
X170265712Y-91352113D01*
X170209102Y-91140840D01*
X170116667Y-90942615D01*
X170073123Y-90880428D01*
X169513076Y-91440475D01*
X169489493Y-91360156D01*
X169411761Y-91239202D01*
X169303100Y-91145048D01*
X169172315Y-91085320D01*
X169162534Y-91083913D01*
X169719572Y-90526875D01*
X169719571Y-90526873D01*
X169657386Y-90483331D01*
X169548716Y-90432658D01*
X169496276Y-90386486D01*
X169477124Y-90319293D01*
X169497340Y-90252411D01*
X169548715Y-90207894D01*
X169657639Y-90157102D01*
X169836877Y-90031598D01*
X169991598Y-89876877D01*
X170117102Y-89697639D01*
X170209575Y-89499330D01*
X170266207Y-89287977D01*
X170285277Y-89070000D01*
X170266207Y-88852023D01*
X170209575Y-88640670D01*
X170117102Y-88442362D01*
X169991598Y-88263123D01*
X169836877Y-88108402D01*
X169657639Y-87982898D01*
X169549306Y-87932381D01*
X169496868Y-87886210D01*
X169477716Y-87819016D01*
X169497932Y-87752135D01*
X169549307Y-87707618D01*
X169657639Y-87657102D01*
X169836877Y-87531598D01*
X169991598Y-87376877D01*
X170117102Y-87197639D01*
X170209575Y-86999330D01*
X170266207Y-86787977D01*
X170285277Y-86570000D01*
X170266207Y-86352023D01*
X170209575Y-86140670D01*
X170117102Y-85942362D01*
X169991598Y-85763123D01*
X169836877Y-85608402D01*
X169657639Y-85482898D01*
X169549306Y-85432381D01*
X169496868Y-85386210D01*
X169477716Y-85319016D01*
X169497932Y-85252135D01*
X169549307Y-85207618D01*
X169657639Y-85157102D01*
X169836877Y-85031598D01*
X169991598Y-84876877D01*
X170117102Y-84697639D01*
X170209575Y-84499330D01*
X170266207Y-84287977D01*
X170285277Y-84070000D01*
X170266207Y-83852023D01*
X170209575Y-83640670D01*
X170117102Y-83442362D01*
X169991598Y-83263123D01*
X169836877Y-83108402D01*
X169657639Y-82982898D01*
X169566205Y-82940261D01*
X169459331Y-82890425D01*
X169247974Y-82833792D01*
X169030000Y-82814722D01*
X168812025Y-82833792D01*
X168600668Y-82890425D01*
X168402361Y-82982898D01*
X168223121Y-83108403D01*
X168068404Y-83263119D01*
X168065953Y-83266621D01*
X168011377Y-83310247D01*
X167964376Y-83319500D01*
X166836571Y-83319500D01*
X166769532Y-83299815D01*
X166723777Y-83247011D01*
X166713043Y-83206307D01*
X166710972Y-83182634D01*
X166710500Y-83171827D01*
X166710500Y-83169901D01*
X166710500Y-83166291D01*
X166706894Y-83135443D01*
X166706537Y-83131956D01*
X166699998Y-83057203D01*
X166699888Y-83055943D01*
X166695674Y-83036935D01*
X166695241Y-83035745D01*
X166669567Y-82965207D01*
X166668399Y-82961844D01*
X166662215Y-82943181D01*
X166644814Y-82890666D01*
X166644811Y-82890662D01*
X166644416Y-82889468D01*
X166635929Y-82871936D01*
X166635237Y-82870884D01*
X166635237Y-82870883D01*
X166593999Y-82808184D01*
X166592087Y-82805181D01*
X166552050Y-82740270D01*
X166539750Y-82725172D01*
X166484290Y-82672848D01*
X166481703Y-82670335D01*
X164966819Y-81155451D01*
X164933334Y-81094128D01*
X164930500Y-81067770D01*
X164930500Y-80815444D01*
X164930710Y-80808233D01*
X164934331Y-80746065D01*
X164932384Y-80735023D01*
X164930500Y-80713490D01*
X164930500Y-76284472D01*
X164950185Y-76217433D01*
X165002989Y-76171678D01*
X165072147Y-76161734D01*
X165118647Y-76178354D01*
X165135394Y-76188478D01*
X165297804Y-76239086D01*
X165368384Y-76245500D01*
X165371203Y-76245500D01*
X165878797Y-76245500D01*
X165881616Y-76245500D01*
X165952196Y-76239086D01*
X166114606Y-76188478D01*
X166260185Y-76100472D01*
X166296894Y-76063763D01*
X166362319Y-75998339D01*
X166423642Y-75964854D01*
X166493334Y-75969838D01*
X166537681Y-75998339D01*
X166639813Y-76100471D01*
X166639815Y-76100472D01*
X166785394Y-76188478D01*
X166947804Y-76239086D01*
X167018384Y-76245500D01*
X167021203Y-76245500D01*
X167528797Y-76245500D01*
X167531616Y-76245500D01*
X167602196Y-76239086D01*
X167764606Y-76188478D01*
X167910185Y-76100472D01*
X167913407Y-76097249D01*
X167974729Y-76063763D01*
X168044420Y-76068745D01*
X168088771Y-76097247D01*
X168223123Y-76231598D01*
X168402361Y-76357102D01*
X168500108Y-76402682D01*
X168511285Y-76407894D01*
X168563724Y-76454066D01*
X168582876Y-76521260D01*
X168562660Y-76588141D01*
X168511285Y-76632658D01*
X168402612Y-76683333D01*
X168340428Y-76726874D01*
X168340427Y-76726875D01*
X168897467Y-77283913D01*
X168887685Y-77285320D01*
X168756900Y-77345048D01*
X168648239Y-77439202D01*
X168570507Y-77560156D01*
X168546923Y-77640475D01*
X167986875Y-77080427D01*
X167986874Y-77080428D01*
X167943333Y-77142611D01*
X167850897Y-77340840D01*
X167794287Y-77552113D01*
X167775224Y-77769999D01*
X167794287Y-77987886D01*
X167850898Y-78199161D01*
X167943331Y-78397386D01*
X167986873Y-78459571D01*
X167986875Y-78459572D01*
X168546923Y-77899523D01*
X168570507Y-77979844D01*
X168648239Y-78100798D01*
X168756900Y-78194952D01*
X168887685Y-78254680D01*
X168897466Y-78256086D01*
X168340426Y-78813124D01*
X168340427Y-78813125D01*
X168402610Y-78856666D01*
X168600840Y-78949102D01*
X168812113Y-79005712D01*
X169030000Y-79024775D01*
X169247886Y-79005712D01*
X169459159Y-78949102D01*
X169657385Y-78856667D01*
X169719572Y-78813124D01*
X169162534Y-78256086D01*
X169172315Y-78254680D01*
X169303100Y-78194952D01*
X169411761Y-78100798D01*
X169489493Y-77979844D01*
X169513076Y-77899524D01*
X170073124Y-78459572D01*
X170116667Y-78397385D01*
X170209102Y-78199159D01*
X170265712Y-77987886D01*
X170284775Y-77769999D01*
X170265712Y-77552113D01*
X170209102Y-77340840D01*
X170116667Y-77142615D01*
X170073123Y-77080428D01*
X169513076Y-77640475D01*
X169489493Y-77560156D01*
X169411761Y-77439202D01*
X169303100Y-77345048D01*
X169172315Y-77285320D01*
X169162533Y-77283913D01*
X169719572Y-76726874D01*
X169719571Y-76726873D01*
X169657386Y-76683331D01*
X169548716Y-76632658D01*
X169496276Y-76586486D01*
X169477124Y-76519293D01*
X169497340Y-76452411D01*
X169548715Y-76407894D01*
X169559892Y-76402682D01*
X169657639Y-76357102D01*
X169836877Y-76231598D01*
X169991598Y-76076877D01*
X170117102Y-75897639D01*
X170209575Y-75699330D01*
X170266207Y-75487977D01*
X170285277Y-75270000D01*
X170266207Y-75052023D01*
X170209575Y-74840670D01*
X170117102Y-74642362D01*
X169991598Y-74463123D01*
X169836877Y-74308402D01*
X169657639Y-74182898D01*
X169549306Y-74132381D01*
X169496868Y-74086210D01*
X169477716Y-74019016D01*
X169497932Y-73952135D01*
X169549307Y-73907618D01*
X169657639Y-73857102D01*
X169836877Y-73731598D01*
X169991598Y-73576877D01*
X170117102Y-73397639D01*
X170209575Y-73199330D01*
X170266207Y-72987977D01*
X170285277Y-72770000D01*
X170284709Y-72763513D01*
X170272784Y-72627203D01*
X170266207Y-72552023D01*
X170209575Y-72340670D01*
X170117102Y-72142362D01*
X169991598Y-71963123D01*
X169836877Y-71808402D01*
X169657639Y-71682898D01*
X169549306Y-71632381D01*
X169496868Y-71586210D01*
X169477716Y-71519016D01*
X169497932Y-71452135D01*
X169549307Y-71407618D01*
X169657639Y-71357102D01*
X169836877Y-71231598D01*
X169991598Y-71076877D01*
X170117102Y-70897639D01*
X170209575Y-70699330D01*
X170266207Y-70487977D01*
X170285277Y-70270000D01*
X170266207Y-70052023D01*
X170209575Y-69840670D01*
X170117102Y-69642362D01*
X169991598Y-69463123D01*
X169836877Y-69308402D01*
X169657639Y-69182898D01*
X169550982Y-69133163D01*
X169459331Y-69090425D01*
X169247974Y-69033792D01*
X169030000Y-69014722D01*
X168812025Y-69033792D01*
X168600668Y-69090425D01*
X168402361Y-69182898D01*
X168223122Y-69308402D01*
X168068402Y-69463122D01*
X167942898Y-69642361D01*
X167850425Y-69840668D01*
X167793792Y-70052025D01*
X167774722Y-70270000D01*
X167793792Y-70487974D01*
X167850425Y-70699331D01*
X167871382Y-70744272D01*
X167942898Y-70897639D01*
X168068402Y-71076877D01*
X168223123Y-71231598D01*
X168402361Y-71357102D01*
X168510693Y-71407618D01*
X168563132Y-71453790D01*
X168582284Y-71520984D01*
X168562068Y-71587865D01*
X168510693Y-71632382D01*
X168402361Y-71682898D01*
X168223121Y-71808403D01*
X168068404Y-71963119D01*
X168065953Y-71966621D01*
X168011377Y-72010247D01*
X167964376Y-72019500D01*
X165323706Y-72019500D01*
X165305736Y-72018191D01*
X165291853Y-72016157D01*
X165281977Y-72014711D01*
X165281976Y-72014711D01*
X165232631Y-72019028D01*
X165221824Y-72019500D01*
X165216291Y-72019500D01*
X165212730Y-72019916D01*
X165212715Y-72019917D01*
X165185501Y-72023098D01*
X165181916Y-72023464D01*
X165105961Y-72030109D01*
X165086921Y-72034330D01*
X165015232Y-72060421D01*
X165011831Y-72061603D01*
X164939474Y-72085580D01*
X164921927Y-72094075D01*
X164858221Y-72135975D01*
X164855181Y-72137912D01*
X164790280Y-72177944D01*
X164775165Y-72190256D01*
X164722832Y-72245725D01*
X164720320Y-72248311D01*
X163694359Y-73274272D01*
X163680726Y-73286054D01*
X163661468Y-73300390D01*
X163629635Y-73338328D01*
X163622338Y-73346292D01*
X163620972Y-73347657D01*
X163620950Y-73347681D01*
X163618409Y-73350223D01*
X163616173Y-73353050D01*
X163616171Y-73353053D01*
X163599176Y-73374546D01*
X163596902Y-73377337D01*
X163547894Y-73435744D01*
X163537418Y-73452187D01*
X163505192Y-73521294D01*
X163503622Y-73524536D01*
X163469393Y-73592692D01*
X163462996Y-73611098D01*
X163447573Y-73685788D01*
X163446793Y-73689305D01*
X163429208Y-73763506D01*
X163427229Y-73782879D01*
X163429448Y-73859129D01*
X163429500Y-73862735D01*
X163429500Y-75244554D01*
X163429290Y-75251764D01*
X163425668Y-75313933D01*
X163427616Y-75324975D01*
X163429500Y-75346509D01*
X163429500Y-79915500D01*
X163409815Y-79982539D01*
X163357011Y-80028294D01*
X163305500Y-80039500D01*
X156253706Y-80039500D01*
X156235736Y-80038191D01*
X156221853Y-80036157D01*
X156211977Y-80034711D01*
X156211976Y-80034711D01*
X156162631Y-80039028D01*
X156151824Y-80039500D01*
X156146291Y-80039500D01*
X156142730Y-80039916D01*
X156142715Y-80039917D01*
X156115501Y-80043098D01*
X156111916Y-80043464D01*
X156035961Y-80050109D01*
X156016921Y-80054330D01*
X155945232Y-80080421D01*
X155941831Y-80081603D01*
X155869474Y-80105580D01*
X155851927Y-80114075D01*
X155788221Y-80155975D01*
X155785181Y-80157912D01*
X155720280Y-80197944D01*
X155705164Y-80210257D01*
X155652831Y-80265726D01*
X155650319Y-80268312D01*
X152975451Y-82943181D01*
X152914128Y-82976666D01*
X152887770Y-82979500D01*
X130102230Y-82979500D01*
X130035191Y-82959815D01*
X130014549Y-82943181D01*
X125665728Y-78594360D01*
X125653946Y-78580727D01*
X125639609Y-78561469D01*
X125601666Y-78529631D01*
X125593691Y-78522323D01*
X125592329Y-78520961D01*
X125589777Y-78518409D01*
X125565444Y-78499169D01*
X125562647Y-78496890D01*
X125504251Y-78447890D01*
X125487821Y-78437422D01*
X125418691Y-78405186D01*
X125415447Y-78403615D01*
X125347306Y-78369394D01*
X125328903Y-78362997D01*
X125254211Y-78347574D01*
X125250692Y-78346794D01*
X125176490Y-78329208D01*
X125157121Y-78327229D01*
X125080869Y-78329448D01*
X125077263Y-78329500D01*
X124964500Y-78329500D01*
X124897461Y-78309815D01*
X124851706Y-78257011D01*
X124840500Y-78205500D01*
X124840500Y-77874500D01*
X124860185Y-77807461D01*
X124912989Y-77761706D01*
X124964500Y-77750500D01*
X125826294Y-77750500D01*
X125844264Y-77751809D01*
X125848320Y-77752402D01*
X125868023Y-77755289D01*
X125917368Y-77750972D01*
X125928176Y-77750500D01*
X125930100Y-77750500D01*
X125933709Y-77750500D01*
X125964550Y-77746894D01*
X125968031Y-77746539D01*
X126042797Y-77739999D01*
X126042797Y-77739998D01*
X126044052Y-77739889D01*
X126063062Y-77735674D01*
X126064250Y-77735241D01*
X126064255Y-77735241D01*
X126134820Y-77709557D01*
X126138095Y-77708419D01*
X126209334Y-77684814D01*
X126209336Y-77684812D01*
X126210536Y-77684415D01*
X126228063Y-77675929D01*
X126229112Y-77675238D01*
X126229117Y-77675237D01*
X126291806Y-77634005D01*
X126294798Y-77632099D01*
X126358656Y-77592712D01*
X126358656Y-77592711D01*
X126359729Y-77592050D01*
X126374824Y-77579753D01*
X126375692Y-77578832D01*
X126375696Y-77578830D01*
X126427184Y-77524254D01*
X126429630Y-77521736D01*
X126575642Y-77375724D01*
X126589260Y-77363954D01*
X126608530Y-77349610D01*
X126640366Y-77311667D01*
X126647680Y-77303688D01*
X126648264Y-77303103D01*
X126651591Y-77299777D01*
X126670833Y-77275439D01*
X126673090Y-77272670D01*
X126687853Y-77255075D01*
X126721302Y-77215214D01*
X126721303Y-77215211D01*
X126722115Y-77214244D01*
X126732573Y-77197827D01*
X126733106Y-77196682D01*
X126733111Y-77196677D01*
X126764833Y-77128646D01*
X126766362Y-77125488D01*
X126800040Y-77058433D01*
X126800040Y-77058432D01*
X126800612Y-77057294D01*
X126807000Y-77038915D01*
X126807255Y-77037675D01*
X126807257Y-77037673D01*
X126822435Y-76964157D01*
X126823200Y-76960708D01*
X126840500Y-76887721D01*
X126840500Y-76887718D01*
X126840791Y-76886491D01*
X126842770Y-76867121D01*
X126842733Y-76865858D01*
X126842734Y-76865855D01*
X126840550Y-76790800D01*
X126840499Y-76787331D01*
X126840499Y-76271465D01*
X126860184Y-76204427D01*
X126897459Y-76167151D01*
X126944226Y-76137097D01*
X127052887Y-76042943D01*
X127052890Y-76042940D01*
X127147139Y-75934170D01*
X127224871Y-75813216D01*
X127284658Y-75682300D01*
X127325165Y-75544345D01*
X127345647Y-75401889D01*
X127345647Y-74830000D01*
X127340500Y-74758039D01*
X127329544Y-74720730D01*
X127325784Y-74668150D01*
X127345647Y-74530000D01*
X127345647Y-73958111D01*
X127325165Y-73815655D01*
X127284658Y-73677700D01*
X127224871Y-73546784D01*
X127147139Y-73425830D01*
X127147136Y-73425826D01*
X127052887Y-73317057D01*
X126944226Y-73222903D01*
X126944223Y-73222901D01*
X126897460Y-73192848D01*
X126851706Y-73140044D01*
X126840500Y-73088533D01*
X126840500Y-72843705D01*
X126841809Y-72825735D01*
X126842315Y-72822279D01*
X126845289Y-72801977D01*
X126840972Y-72752629D01*
X126840500Y-72741823D01*
X126840500Y-72739901D01*
X126840500Y-72736291D01*
X126836903Y-72705520D01*
X126836536Y-72701929D01*
X126829889Y-72625949D01*
X126825672Y-72606930D01*
X126818515Y-72587267D01*
X126799591Y-72535273D01*
X126798408Y-72531868D01*
X126791886Y-72512187D01*
X126774814Y-72460666D01*
X126774812Y-72460663D01*
X126774415Y-72459464D01*
X126765929Y-72441936D01*
X126765237Y-72440884D01*
X126765237Y-72440883D01*
X126724001Y-72378188D01*
X126722086Y-72375181D01*
X126682047Y-72310267D01*
X126669751Y-72295173D01*
X126614258Y-72242817D01*
X126611672Y-72240304D01*
X126346818Y-71975450D01*
X126313333Y-71914127D01*
X126310500Y-71887778D01*
X126310500Y-71282285D01*
X126330185Y-71215245D01*
X126344757Y-71196716D01*
X126389151Y-71150156D01*
X126428986Y-71108378D01*
X126542613Y-70931572D01*
X126620725Y-70736457D01*
X126660500Y-70530085D01*
X126660500Y-69822575D01*
X126645528Y-69665782D01*
X126586316Y-69464125D01*
X126490011Y-69277318D01*
X126422618Y-69191622D01*
X126360093Y-69112115D01*
X126201254Y-68974479D01*
X126019245Y-68869396D01*
X125820633Y-68800655D01*
X125612603Y-68770746D01*
X125612602Y-68770746D01*
X125533794Y-68774500D01*
X125402669Y-68780746D01*
X125198419Y-68830297D01*
X125007247Y-68917602D01*
X124836049Y-69039512D01*
X124738249Y-69142082D01*
X124677739Y-69177017D01*
X124607949Y-69173692D01*
X124551035Y-69133163D01*
X124542967Y-69121608D01*
X124502711Y-69056342D01*
X124378657Y-68932288D01*
X124229334Y-68840186D01*
X124062797Y-68785000D01*
X123963141Y-68774819D01*
X123963122Y-68774818D01*
X123960009Y-68774500D01*
X123956860Y-68774500D01*
X123163141Y-68774500D01*
X123163121Y-68774500D01*
X123159992Y-68774501D01*
X123156860Y-68774820D01*
X123156858Y-68774821D01*
X123057203Y-68785000D01*
X122890665Y-68840186D01*
X122741342Y-68932288D01*
X122617288Y-69056342D01*
X122525186Y-69205665D01*
X122525186Y-69205666D01*
X122495530Y-69295164D01*
X122489121Y-69314504D01*
X122449348Y-69371949D01*
X122384833Y-69398772D01*
X122371415Y-69399500D01*
X122103706Y-69399500D01*
X122085736Y-69398191D01*
X122071853Y-69396157D01*
X122061977Y-69394711D01*
X122061976Y-69394711D01*
X122012631Y-69399028D01*
X122001824Y-69399500D01*
X121996291Y-69399500D01*
X121992730Y-69399916D01*
X121992715Y-69399917D01*
X121965501Y-69403098D01*
X121961916Y-69403464D01*
X121885961Y-69410109D01*
X121866921Y-69414330D01*
X121795232Y-69440421D01*
X121791831Y-69441603D01*
X121719474Y-69465580D01*
X121701927Y-69474075D01*
X121638221Y-69515975D01*
X121635181Y-69517912D01*
X121570280Y-69557944D01*
X121555165Y-69570256D01*
X121502832Y-69625725D01*
X121500320Y-69628311D01*
X120384359Y-70744272D01*
X120370726Y-70756054D01*
X120351468Y-70770390D01*
X120319635Y-70808328D01*
X120312338Y-70816292D01*
X120310972Y-70817657D01*
X120310950Y-70817681D01*
X120308409Y-70820223D01*
X120306173Y-70823050D01*
X120306171Y-70823053D01*
X120289176Y-70844546D01*
X120286902Y-70847337D01*
X120237894Y-70905744D01*
X120227418Y-70922187D01*
X120195192Y-70991294D01*
X120193622Y-70994536D01*
X120159393Y-71062692D01*
X120152996Y-71081098D01*
X120137574Y-71155787D01*
X120136794Y-71159306D01*
X120119210Y-71233499D01*
X120117229Y-71252890D01*
X120119447Y-71329130D01*
X120119499Y-71332735D01*
X120119499Y-72552675D01*
X120114575Y-72587270D01*
X120072402Y-72732427D01*
X120069691Y-72766871D01*
X120069690Y-72766886D01*
X120069500Y-72769306D01*
X120069500Y-74075694D01*
X120069690Y-74078114D01*
X120069691Y-74078128D01*
X120072402Y-74112572D01*
X120118254Y-74270394D01*
X120118255Y-74270396D01*
X120118256Y-74270398D01*
X120152733Y-74328695D01*
X120170000Y-74391814D01*
X120170000Y-75047500D01*
X120720000Y-75047500D01*
X120720000Y-74784500D01*
X120739685Y-74717461D01*
X120792489Y-74671706D01*
X120844000Y-74660500D01*
X120895500Y-74660500D01*
X120962539Y-74680185D01*
X121008294Y-74732989D01*
X121019500Y-74784500D01*
X121019500Y-75475655D01*
X121017229Y-75497881D01*
X121019447Y-75574130D01*
X121019499Y-75577735D01*
X121019499Y-75948248D01*
X121019500Y-75948273D01*
X121019500Y-75950694D01*
X121019690Y-75953113D01*
X121019691Y-75953128D01*
X121022402Y-75987572D01*
X121064576Y-76132732D01*
X121069500Y-76167327D01*
X121069500Y-77278787D01*
X121063431Y-77317104D01*
X121008094Y-77487419D01*
X121008093Y-77487423D01*
X120989954Y-77659999D01*
X121008093Y-77832575D01*
X121008094Y-77832578D01*
X121061714Y-77997609D01*
X121145945Y-78143500D01*
X121162418Y-78211400D01*
X121139566Y-78277427D01*
X121084645Y-78320617D01*
X121038558Y-78329500D01*
X116099343Y-78329500D01*
X116077121Y-78327229D01*
X116000869Y-78329448D01*
X115997263Y-78329500D01*
X114615624Y-78329500D01*
X114548585Y-78309815D01*
X114514047Y-78276621D01*
X114511595Y-78273119D01*
X114356880Y-78118405D01*
X114356877Y-78118402D01*
X114177639Y-77992898D01*
X114069306Y-77942381D01*
X114016868Y-77896210D01*
X113997716Y-77829016D01*
X114017932Y-77762135D01*
X114069307Y-77717618D01*
X114087844Y-77708974D01*
X114177639Y-77667102D01*
X114356877Y-77541598D01*
X114511598Y-77386877D01*
X114637102Y-77207639D01*
X114729575Y-77009330D01*
X114786207Y-76797977D01*
X114805277Y-76580000D01*
X114786207Y-76362023D01*
X114729575Y-76150670D01*
X114637102Y-75952362D01*
X114511598Y-75773123D01*
X114356877Y-75618402D01*
X114255619Y-75547500D01*
X119120000Y-75547500D01*
X119120000Y-75948196D01*
X119120191Y-75953076D01*
X119122900Y-75987493D01*
X119168717Y-76145197D01*
X119252317Y-76286557D01*
X119368442Y-76402682D01*
X119509799Y-76486280D01*
X119667511Y-76532099D01*
X119670000Y-76532295D01*
X119670000Y-75547500D01*
X120170000Y-75547500D01*
X120170000Y-76532295D01*
X120172488Y-76532099D01*
X120330200Y-76486280D01*
X120471557Y-76402682D01*
X120587682Y-76286557D01*
X120671282Y-76145197D01*
X120717099Y-75987493D01*
X120719808Y-75953076D01*
X120720000Y-75948196D01*
X120720000Y-75547500D01*
X120170000Y-75547500D01*
X119670000Y-75547500D01*
X119120000Y-75547500D01*
X114255619Y-75547500D01*
X114177639Y-75492898D01*
X114125111Y-75468403D01*
X114069306Y-75442381D01*
X114016867Y-75396208D01*
X113997716Y-75329014D01*
X114017932Y-75262133D01*
X114069306Y-75217618D01*
X114177639Y-75167102D01*
X114348448Y-75047500D01*
X119120000Y-75047500D01*
X119670000Y-75047500D01*
X119670000Y-74062703D01*
X119667512Y-74062900D01*
X119509799Y-74108719D01*
X119368442Y-74192317D01*
X119252317Y-74308442D01*
X119168717Y-74449802D01*
X119122900Y-74607506D01*
X119120191Y-74641923D01*
X119120000Y-74646803D01*
X119120000Y-75047500D01*
X114348448Y-75047500D01*
X114356877Y-75041598D01*
X114511598Y-74886877D01*
X114637102Y-74707639D01*
X114729575Y-74509330D01*
X114786207Y-74297977D01*
X114805277Y-74080000D01*
X114786207Y-73862023D01*
X114729575Y-73650670D01*
X114637102Y-73452362D01*
X114511598Y-73273123D01*
X114356877Y-73118402D01*
X114177639Y-72992898D01*
X114125921Y-72968781D01*
X114068714Y-72942105D01*
X114016275Y-72895932D01*
X113997123Y-72828739D01*
X114017339Y-72761858D01*
X114068715Y-72717340D01*
X114177388Y-72666665D01*
X114239572Y-72623124D01*
X113682534Y-72066086D01*
X113692315Y-72064680D01*
X113823100Y-72004952D01*
X113931761Y-71910798D01*
X114009493Y-71789844D01*
X114033076Y-71709524D01*
X114593124Y-72269572D01*
X114636667Y-72207385D01*
X114729102Y-72009159D01*
X114785712Y-71797886D01*
X114804775Y-71580000D01*
X114785712Y-71362113D01*
X114729102Y-71150840D01*
X114636667Y-70952615D01*
X114593123Y-70890428D01*
X114033076Y-71450475D01*
X114009493Y-71370156D01*
X113931761Y-71249202D01*
X113823100Y-71155048D01*
X113692315Y-71095320D01*
X113682532Y-71093913D01*
X114239572Y-70536874D01*
X114239571Y-70536873D01*
X114177386Y-70493331D01*
X113979161Y-70400898D01*
X113767886Y-70344287D01*
X113550000Y-70325224D01*
X113332113Y-70344287D01*
X113120840Y-70400897D01*
X112922611Y-70493333D01*
X112860428Y-70536874D01*
X112860427Y-70536876D01*
X113417464Y-71093913D01*
X113407685Y-71095320D01*
X113276900Y-71155048D01*
X113168239Y-71249202D01*
X113090507Y-71370156D01*
X113066923Y-71450475D01*
X112506875Y-70890427D01*
X112506874Y-70890428D01*
X112463333Y-70952611D01*
X112370897Y-71150840D01*
X112314287Y-71362113D01*
X112295224Y-71580000D01*
X112314287Y-71797886D01*
X112370898Y-72009161D01*
X112463331Y-72207386D01*
X112506873Y-72269571D01*
X112506875Y-72269572D01*
X113066923Y-71709523D01*
X113090507Y-71789844D01*
X113168239Y-71910798D01*
X113276900Y-72004952D01*
X113407685Y-72064680D01*
X113417466Y-72066086D01*
X112860426Y-72623124D01*
X112860427Y-72623125D01*
X112922612Y-72666667D01*
X113031284Y-72717341D01*
X113083724Y-72763513D01*
X113102876Y-72830706D01*
X113082661Y-72897587D01*
X113031286Y-72942105D01*
X112922359Y-72992899D01*
X112743122Y-73118402D01*
X112588402Y-73273122D01*
X112462898Y-73452361D01*
X112370425Y-73650668D01*
X112313792Y-73862025D01*
X112294722Y-74080000D01*
X112313792Y-74297974D01*
X112370425Y-74509331D01*
X112416168Y-74607427D01*
X112462898Y-74707639D01*
X112588402Y-74886877D01*
X112743123Y-75041598D01*
X112922361Y-75167102D01*
X113004867Y-75205575D01*
X113030693Y-75217618D01*
X113083132Y-75263790D01*
X113102284Y-75330984D01*
X113082068Y-75397865D01*
X113030693Y-75442382D01*
X112922361Y-75492898D01*
X112743122Y-75618402D01*
X112588402Y-75773122D01*
X112462898Y-75952361D01*
X112370425Y-76150668D01*
X112313792Y-76362025D01*
X112294722Y-76580000D01*
X112313792Y-76797974D01*
X112370425Y-77009331D01*
X112420261Y-77116205D01*
X112462898Y-77207639D01*
X112588402Y-77386877D01*
X112743123Y-77541598D01*
X112922361Y-77667102D01*
X113012156Y-77708974D01*
X113030693Y-77717618D01*
X113083132Y-77763790D01*
X113102284Y-77830984D01*
X113082068Y-77897865D01*
X113030693Y-77942382D01*
X112922361Y-77992898D01*
X112743122Y-78118402D01*
X112588402Y-78273122D01*
X112462898Y-78452361D01*
X112370425Y-78650668D01*
X112313792Y-78862025D01*
X112294722Y-79080000D01*
X107920500Y-79080000D01*
X107920500Y-68975412D01*
X107920972Y-68964605D01*
X107924475Y-68924564D01*
X107936919Y-68798215D01*
X107940539Y-68778322D01*
X107957908Y-68713498D01*
X107958956Y-68709828D01*
X107986685Y-68618419D01*
X107992948Y-68602049D01*
X108023700Y-68536102D01*
X108026670Y-68530161D01*
X108069012Y-68450944D01*
X108076786Y-68438289D01*
X108119639Y-68377089D01*
X108125330Y-68369587D01*
X108181191Y-68301521D01*
X108189325Y-68292547D01*
X108242547Y-68239325D01*
X108251521Y-68231191D01*
X108319587Y-68175330D01*
X108327089Y-68169639D01*
X108388289Y-68126786D01*
X108400944Y-68119012D01*
X108480161Y-68076670D01*
X108486102Y-68073700D01*
X108552049Y-68042948D01*
X108568419Y-68036685D01*
X108659828Y-68008956D01*
X108663498Y-68007908D01*
X108728318Y-67990540D01*
X108748221Y-67986918D01*
X108874471Y-67974483D01*
X108914640Y-67970968D01*
X108925402Y-67970500D01*
X126994587Y-67970500D01*
X127005394Y-67970971D01*
G37*
%TD.AperFunction*%
%TD*%
M02*
