%TF.GenerationSoftware,KiCad,Pcbnew,7.0.2*%
%TF.CreationDate,2024-04-10T14:05:27+02:00*%
%TF.ProjectId,Support_TTGO_invers_,53757070-6f72-4745-9f54-54474f5f696e,rev?*%
%TF.SameCoordinates,Original*%
%TF.FileFunction,Copper,L1,Top*%
%TF.FilePolarity,Positive*%
%FSLAX46Y46*%
G04 Gerber Fmt 4.6, Leading zero omitted, Abs format (unit mm)*
G04 Created by KiCad (PCBNEW 7.0.2) date 2024-04-10 14:05:27*
%MOMM*%
%LPD*%
G01*
G04 APERTURE LIST*
G04 Aperture macros list*
%AMRoundRect*
0 Rectangle with rounded corners*
0 $1 Rounding radius*
0 $2 $3 $4 $5 $6 $7 $8 $9 X,Y pos of 4 corners*
0 Add a 4 corners polygon primitive as box body*
4,1,4,$2,$3,$4,$5,$6,$7,$8,$9,$2,$3,0*
0 Add four circle primitives for the rounded corners*
1,1,$1+$1,$2,$3*
1,1,$1+$1,$4,$5*
1,1,$1+$1,$6,$7*
1,1,$1+$1,$8,$9*
0 Add four rect primitives between the rounded corners*
20,1,$1+$1,$2,$3,$4,$5,0*
20,1,$1+$1,$4,$5,$6,$7,0*
20,1,$1+$1,$6,$7,$8,$9,0*
20,1,$1+$1,$8,$9,$2,$3,0*%
G04 Aperture macros list end*
%TA.AperFunction,ComponentPad*%
%ADD10RoundRect,0.250000X0.625000X-0.350000X0.625000X0.350000X-0.625000X0.350000X-0.625000X-0.350000X0*%
%TD*%
%TA.AperFunction,ComponentPad*%
%ADD11O,1.750000X1.200000*%
%TD*%
%TA.AperFunction,ComponentPad*%
%ADD12O,1.700000X1.700000*%
%TD*%
%TA.AperFunction,ComponentPad*%
%ADD13R,1.700000X1.700000*%
%TD*%
%TA.AperFunction,SMDPad,CuDef*%
%ADD14RoundRect,0.200000X-0.275000X0.200000X-0.275000X-0.200000X0.275000X-0.200000X0.275000X0.200000X0*%
%TD*%
%TA.AperFunction,SMDPad,CuDef*%
%ADD15RoundRect,0.150000X-0.587500X-0.150000X0.587500X-0.150000X0.587500X0.150000X-0.587500X0.150000X0*%
%TD*%
%TA.AperFunction,ComponentPad*%
%ADD16RoundRect,0.250000X0.350000X0.625000X-0.350000X0.625000X-0.350000X-0.625000X0.350000X-0.625000X0*%
%TD*%
%TA.AperFunction,ComponentPad*%
%ADD17O,1.200000X1.750000*%
%TD*%
%TA.AperFunction,ComponentPad*%
%ADD18C,1.500000*%
%TD*%
%TA.AperFunction,ViaPad*%
%ADD19C,0.800000*%
%TD*%
%TA.AperFunction,Conductor*%
%ADD20C,0.500000*%
%TD*%
%TA.AperFunction,Conductor*%
%ADD21C,0.250000*%
%TD*%
G04 APERTURE END LIST*
D10*
%TO.P,J9,1,Pin_1*%
%TO.N,GND*%
X172550000Y-80090000D03*
D11*
%TO.P,J9,2,Pin_2*%
%TO.N,N/C*%
X172550000Y-78090000D03*
%TD*%
D12*
%TO.P,J10,2,Pin_2*%
%TO.N,IO_01*%
X156610000Y-73410000D03*
D13*
%TO.P,J10,1,Pin_1*%
%TO.N,IO_02*%
X156610000Y-75950000D03*
%TD*%
%TO.P,J1,1,Pin_1*%
%TO.N,unconnected-(J1-Pin_1-Pad1)*%
X126410000Y-83570000D03*
D12*
%TO.P,J1,2,Pin_2*%
%TO.N,unconnected-(J1-Pin_2-Pad2)*%
X126410000Y-86110000D03*
%TO.P,J1,3,Pin_3*%
%TO.N,IO_09*%
X126410000Y-88650000D03*
%TO.P,J1,4,Pin_4*%
%TO.N,IO_10*%
X126410000Y-91190000D03*
%TO.P,J1,5,Pin_5*%
%TO.N,IO_11*%
X126410000Y-93730000D03*
%TO.P,J1,6,Pin_6*%
%TO.N,IO_12*%
X126410000Y-96270000D03*
%TO.P,J1,7,Pin_7*%
%TO.N,IO_13*%
X126410000Y-98810000D03*
%TO.P,J1,8,Pin_8*%
%TO.N,IO_14*%
X126410000Y-101350000D03*
%TO.P,J1,9,Pin_9*%
%TO.N,GND*%
X126410000Y-103890000D03*
%TO.P,J1,10,Pin_10*%
%TO.N,PMU_DC_DC5*%
X126410000Y-106430000D03*
%TD*%
D14*
%TO.P,R1,1*%
%TO.N,PMU_DC_DC5*%
X163620000Y-86735000D03*
%TO.P,R1,2*%
%TO.N,IO_21*%
X163620000Y-88385000D03*
%TD*%
D13*
%TO.P,J2,1,Pin_1*%
%TO.N,unconnected-(J2-Pin_1-Pad1)*%
X156610000Y-83570000D03*
D12*
%TO.P,J2,2,Pin_2*%
%TO.N,unconnected-(J2-Pin_2-Pad2)*%
X156610000Y-86110000D03*
%TO.P,J2,3,Pin_3*%
%TO.N,unconnected-(J2-Pin_3-Pad3)*%
X156610000Y-88650000D03*
%TO.P,J2,4,Pin_4*%
%TO.N,unconnected-(J2-Pin_4-Pad4)*%
X156610000Y-91190000D03*
%TO.P,J2,5,Pin_5*%
%TO.N,unconnected-(J2-Pin_5-Pad5)*%
X156610000Y-93730000D03*
%TO.P,J2,6,Pin_6*%
%TO.N,IO_48*%
X156610000Y-96270000D03*
%TO.P,J2,7,Pin_7*%
%TO.N,IO_47*%
X156610000Y-98810000D03*
%TO.P,J2,8,Pin_8*%
%TO.N,IO_21*%
X156610000Y-101350000D03*
%TO.P,J2,9,Pin_9*%
%TO.N,GND*%
X156610000Y-103890000D03*
%TO.P,J2,10,Pin_10*%
%TO.N,unconnected-(J2-Pin_10-Pad10)*%
X156610000Y-106430000D03*
%TD*%
D15*
%TO.P,Q1,1*%
%TO.N,IO_01*%
X160642500Y-74070000D03*
%TO.P,Q1,2*%
%TO.N,GND*%
X160642500Y-75970000D03*
%TO.P,Q1,3*%
%TO.N,Net-(J9-Pin_2)*%
X162517500Y-75020000D03*
%TD*%
D16*
%TO.P,J11,1,Pin_1*%
%TO.N,IO_02*%
X170960000Y-70610000D03*
D17*
%TO.P,J11,2,Pin_2*%
%TO.N,GND*%
X168960000Y-70610000D03*
%TD*%
D18*
%TO.P,J3,4,Pin_4*%
%TO.N,GND*%
X113630000Y-97590000D03*
%TO.P,J3,3,Pin_3*%
%TO.N,IO_13*%
X113630000Y-100090000D03*
%TO.P,J3,2,Pin_2*%
%TO.N,IO_14*%
X113630000Y-102590000D03*
%TO.P,J3,1,Pin_1*%
%TO.N,PMU_DC_DC5*%
X113630000Y-105090000D03*
%TD*%
D16*
%TO.P,J9,1,Pin_1*%
%TO.N,PMU_DC_DC5*%
X163850000Y-70600000D03*
D17*
%TO.P,J9,2,Pin_2*%
%TO.N,Net-(J9-Pin_2)*%
X161850000Y-70600000D03*
%TD*%
D18*
%TO.P,J8,1,Pin_1*%
%TO.N,PMU_DC_DC5*%
X113710000Y-78060000D03*
%TO.P,J8,2,Pin_2*%
%TO.N,IO_10*%
X113710000Y-75560000D03*
%TO.P,J8,3,Pin_3*%
%TO.N,IO_09*%
X113710000Y-73060000D03*
%TO.P,J8,4,Pin_4*%
%TO.N,GND*%
X113710000Y-70560000D03*
%TD*%
%TO.P,J7,1,Pin_1*%
%TO.N,PMU_DC_DC5*%
X168980000Y-85370000D03*
%TO.P,J7,2,Pin_2*%
%TO.N,IO_21*%
X168980000Y-87870000D03*
%TO.P,J7,3,Pin_3*%
%TO.N,GND*%
X168980000Y-90370000D03*
%TO.P,J7,4*%
%TO.N,N/C*%
X168980000Y-92870000D03*
%TD*%
%TO.P,J4,1,Pin_1*%
%TO.N,PMU_DC_DC5*%
X113670000Y-91420000D03*
%TO.P,J4,2,Pin_2*%
%TO.N,IO_12*%
X113670000Y-88920000D03*
%TO.P,J4,3,Pin_3*%
%TO.N,IO_11*%
X113670000Y-86420000D03*
%TO.P,J4,4,Pin_4*%
%TO.N,GND*%
X113670000Y-83920000D03*
%TD*%
%TO.P,J5,1,Pin_1*%
%TO.N,PMU_DC_DC5*%
X169010000Y-98620000D03*
%TO.P,J5,2,Pin_2*%
%TO.N,IO_48*%
X169010000Y-101120000D03*
%TO.P,J5,3,Pin_3*%
%TO.N,IO_47*%
X169010000Y-103620000D03*
%TO.P,J5,4,Pin_4*%
%TO.N,GND*%
X169010000Y-106120000D03*
%TD*%
D19*
%TO.N,IO_21*%
X163470000Y-97380000D03*
%TD*%
D20*
%TO.N,IO_09*%
X115360000Y-73060000D02*
X113710000Y-73060000D01*
X117290000Y-82220000D02*
X117290000Y-74990000D01*
X123650000Y-88580000D02*
X117290000Y-82220000D01*
X126500000Y-88580000D02*
X123650000Y-88580000D01*
X117290000Y-74990000D02*
X115360000Y-73060000D01*
%TO.N,IO_21*%
X163580000Y-97270000D02*
X163470000Y-97380000D01*
X163580000Y-89730000D02*
X163580000Y-97270000D01*
%TO.N,PMU_DC_DC5*%
X164400000Y-77360000D02*
X168980000Y-81940000D01*
X164400000Y-73130000D02*
X164400000Y-77360000D01*
X163850000Y-72580000D02*
X164400000Y-73130000D01*
X168980000Y-81940000D02*
X168980000Y-85370000D01*
X163850000Y-70600000D02*
X163850000Y-72580000D01*
%TO.N,Net-(J9-Pin_2)*%
X161850000Y-72640000D02*
X161850000Y-70600000D01*
X162517500Y-75020000D02*
X162517500Y-73307500D01*
X162517500Y-73307500D02*
X161850000Y-72640000D01*
D21*
%TO.N,IO_01*%
X158820000Y-74070000D02*
X160642500Y-74070000D01*
X158160000Y-73410000D02*
X158820000Y-74070000D01*
X156610000Y-73410000D02*
X158160000Y-73410000D01*
D20*
%TO.N,IO_48*%
X165190000Y-101120000D02*
X169010000Y-101120000D01*
X160340000Y-96270000D02*
X165190000Y-101120000D01*
X156610000Y-96270000D02*
X160340000Y-96270000D01*
%TO.N,IO_47*%
X165190000Y-103620000D02*
X160310000Y-98740000D01*
X169010000Y-103620000D02*
X165190000Y-103620000D01*
X160310000Y-98740000D02*
X156700000Y-98740000D01*
%TO.N,IO_21*%
X164910000Y-89730000D02*
X163580000Y-89730000D01*
X163580000Y-89730000D02*
X163580000Y-88425000D01*
X163580000Y-88425000D02*
X163620000Y-88385000D01*
X166770000Y-87870000D02*
X164910000Y-89730000D01*
X168980000Y-87870000D02*
X166770000Y-87870000D01*
%TO.N,IO_10*%
X115260000Y-75560000D02*
X113710000Y-75560000D01*
X126500000Y-91120000D02*
X124380756Y-91120000D01*
X116260000Y-82999244D02*
X116260000Y-76560000D01*
X124380756Y-91120000D02*
X116260000Y-82999244D01*
X116260000Y-76560000D02*
X115260000Y-75560000D01*
%TO.N,IO_11*%
X122380000Y-93660000D02*
X115140000Y-86420000D01*
X126500000Y-93660000D02*
X122380000Y-93660000D01*
X115140000Y-86420000D02*
X113670000Y-86420000D01*
%TO.N,IO_12*%
X126500000Y-96200000D02*
X122710000Y-96200000D01*
X115430000Y-88920000D02*
X113670000Y-88920000D01*
X122710000Y-96200000D02*
X115430000Y-88920000D01*
%TO.N,IO_13*%
X119860000Y-98780000D02*
X118550000Y-100090000D01*
X126460000Y-98780000D02*
X119860000Y-98780000D01*
X118550000Y-100090000D02*
X113630000Y-100090000D01*
X126500000Y-98740000D02*
X126460000Y-98780000D01*
%TO.N,IO_14*%
X126500000Y-101280000D02*
X118960000Y-101280000D01*
X118960000Y-101280000D02*
X117650000Y-102590000D01*
X117650000Y-102590000D02*
X113630000Y-102590000D01*
%TO.N,PMU_DC_DC5*%
X163620000Y-86180000D02*
X164430000Y-85370000D01*
X164430000Y-85370000D02*
X168980000Y-85370000D01*
X163620000Y-86735000D02*
X163620000Y-86180000D01*
%TD*%
%TA.AperFunction,Conductor*%
%TO.N,GND*%
G36*
X127005394Y-67970971D02*
G01*
X127045519Y-67974482D01*
X127171780Y-67986919D01*
X127191682Y-67990540D01*
X127256467Y-68007899D01*
X127260203Y-68008966D01*
X127351570Y-68036682D01*
X127367959Y-68042952D01*
X127433867Y-68073686D01*
X127439867Y-68076685D01*
X127482639Y-68099548D01*
X127519046Y-68119008D01*
X127531715Y-68126791D01*
X127592889Y-68169625D01*
X127600430Y-68175346D01*
X127668455Y-68231172D01*
X127677472Y-68239345D01*
X127730653Y-68292526D01*
X127738826Y-68301543D01*
X127794652Y-68369568D01*
X127800373Y-68377109D01*
X127843207Y-68438283D01*
X127850990Y-68450952D01*
X127893304Y-68530114D01*
X127896328Y-68536163D01*
X127927041Y-68602027D01*
X127933319Y-68618436D01*
X127961008Y-68709713D01*
X127962123Y-68713616D01*
X127979454Y-68778298D01*
X127983082Y-68798237D01*
X127995523Y-68924554D01*
X127997207Y-68943801D01*
X127999030Y-68964638D01*
X127999500Y-68975406D01*
X127999500Y-79922902D01*
X127994926Y-79938478D01*
X127998903Y-79978858D01*
X127999500Y-79991012D01*
X127999500Y-80077533D01*
X128010628Y-80140645D01*
X128009311Y-80152448D01*
X128015263Y-80172067D01*
X128018719Y-80186531D01*
X128029899Y-80249937D01*
X128058163Y-80327592D01*
X128058992Y-80340641D01*
X128067129Y-80355864D01*
X128074289Y-80371899D01*
X128080885Y-80390019D01*
X128089776Y-80414447D01*
X128138578Y-80498974D01*
X128142056Y-80513311D01*
X128151793Y-80525176D01*
X128163325Y-80541837D01*
X128179926Y-80570590D01*
X128189372Y-80584560D01*
X128191255Y-80588084D01*
X128209702Y-80604661D01*
X128248914Y-80651393D01*
X128255485Y-80666408D01*
X128265932Y-80674982D01*
X128282254Y-80691126D01*
X128289837Y-80700163D01*
X128298872Y-80707744D01*
X128315018Y-80724067D01*
X128319147Y-80729098D01*
X128338606Y-80741085D01*
X128385337Y-80780297D01*
X128395234Y-80795172D01*
X128405438Y-80800627D01*
X128419408Y-80810072D01*
X128423942Y-80812690D01*
X128423945Y-80812692D01*
X128448165Y-80826676D01*
X128464826Y-80838207D01*
X128471770Y-80843905D01*
X128491019Y-80851417D01*
X128575555Y-80900225D01*
X128618105Y-80915712D01*
X128634141Y-80922872D01*
X128644334Y-80928320D01*
X128662401Y-80931834D01*
X128740062Y-80960101D01*
X128803476Y-80971282D01*
X128817939Y-80974738D01*
X128832541Y-80979167D01*
X128849350Y-80979370D01*
X128912468Y-80990500D01*
X128912469Y-80990500D01*
X128998997Y-80990500D01*
X129011151Y-80991097D01*
X129044302Y-80994362D01*
X129067096Y-80990500D01*
X153932903Y-80990500D01*
X153948476Y-80995073D01*
X153988848Y-80991097D01*
X154001002Y-80990500D01*
X154087530Y-80990500D01*
X154087532Y-80990500D01*
X154150646Y-80979371D01*
X154162444Y-80980687D01*
X154182055Y-80974738D01*
X154196511Y-80971284D01*
X154259938Y-80960101D01*
X154337592Y-80931836D01*
X154350638Y-80931007D01*
X154365854Y-80922874D01*
X154381890Y-80915713D01*
X154424445Y-80900225D01*
X154508976Y-80851420D01*
X154523310Y-80847942D01*
X154535172Y-80838208D01*
X154551834Y-80826676D01*
X154576055Y-80812692D01*
X154576055Y-80812691D01*
X154580586Y-80810076D01*
X154594564Y-80800625D01*
X154598082Y-80798744D01*
X154614658Y-80780300D01*
X154661395Y-80741083D01*
X154676407Y-80734513D01*
X154684977Y-80724071D01*
X154701121Y-80707750D01*
X154710163Y-80700163D01*
X154717750Y-80691121D01*
X154734071Y-80674977D01*
X154739099Y-80670850D01*
X154751082Y-80651397D01*
X154790297Y-80604661D01*
X154805172Y-80594764D01*
X154810625Y-80584564D01*
X154820076Y-80570586D01*
X154822692Y-80566055D01*
X154836676Y-80541834D01*
X154848208Y-80525172D01*
X154853903Y-80518231D01*
X154861418Y-80498979D01*
X154910225Y-80414445D01*
X154925713Y-80371890D01*
X154932874Y-80355854D01*
X154938319Y-80345666D01*
X154941835Y-80327595D01*
X154970101Y-80249938D01*
X154981284Y-80186511D01*
X154984738Y-80172055D01*
X154989166Y-80157458D01*
X154989370Y-80140649D01*
X155000500Y-80077532D01*
X155000500Y-79991002D01*
X155001097Y-79978848D01*
X155004362Y-79945696D01*
X155000500Y-79922903D01*
X155000500Y-68975409D01*
X155000972Y-68964603D01*
X155004482Y-68924479D01*
X155016919Y-68798215D01*
X155020539Y-68778322D01*
X155037908Y-68713498D01*
X155038956Y-68709828D01*
X155066685Y-68618419D01*
X155072948Y-68602049D01*
X155103700Y-68536102D01*
X155106670Y-68530161D01*
X155149012Y-68450944D01*
X155156786Y-68438289D01*
X155199639Y-68377089D01*
X155205330Y-68369587D01*
X155261191Y-68301521D01*
X155269325Y-68292547D01*
X155322547Y-68239325D01*
X155331521Y-68231191D01*
X155399587Y-68175330D01*
X155407089Y-68169639D01*
X155468289Y-68126786D01*
X155480944Y-68119012D01*
X155560161Y-68076670D01*
X155566102Y-68073700D01*
X155632049Y-68042948D01*
X155648419Y-68036685D01*
X155739828Y-68008956D01*
X155743498Y-68007908D01*
X155808318Y-67990540D01*
X155828221Y-67986918D01*
X155954471Y-67974483D01*
X155994640Y-67970968D01*
X156005402Y-67970500D01*
X173784587Y-67970500D01*
X173795394Y-67970971D01*
X173835519Y-67974482D01*
X173961780Y-67986919D01*
X173981682Y-67990540D01*
X174046467Y-68007899D01*
X174050203Y-68008966D01*
X174141570Y-68036682D01*
X174157959Y-68042952D01*
X174223867Y-68073686D01*
X174229867Y-68076685D01*
X174272639Y-68099548D01*
X174309046Y-68119008D01*
X174321715Y-68126791D01*
X174382889Y-68169625D01*
X174390430Y-68175346D01*
X174458455Y-68231172D01*
X174467472Y-68239345D01*
X174520653Y-68292526D01*
X174528826Y-68301543D01*
X174584652Y-68369568D01*
X174590373Y-68377109D01*
X174633207Y-68438283D01*
X174640990Y-68450952D01*
X174683304Y-68530114D01*
X174686328Y-68536163D01*
X174717041Y-68602027D01*
X174723319Y-68618436D01*
X174751008Y-68709713D01*
X174752123Y-68713616D01*
X174769454Y-68778298D01*
X174773082Y-68798237D01*
X174785523Y-68924554D01*
X174787207Y-68943801D01*
X174789030Y-68964638D01*
X174789500Y-68975406D01*
X174789500Y-107994583D01*
X174789028Y-108005393D01*
X174785523Y-108045445D01*
X174773082Y-108171764D01*
X174769455Y-108191696D01*
X174752123Y-108256382D01*
X174751008Y-108260285D01*
X174723319Y-108351562D01*
X174717041Y-108367971D01*
X174686328Y-108433835D01*
X174683304Y-108439884D01*
X174640990Y-108519046D01*
X174633207Y-108531715D01*
X174590373Y-108592889D01*
X174584652Y-108600430D01*
X174528826Y-108668455D01*
X174520653Y-108677472D01*
X174467472Y-108730653D01*
X174458455Y-108738826D01*
X174390430Y-108794652D01*
X174382889Y-108800373D01*
X174321715Y-108843207D01*
X174309046Y-108850990D01*
X174229884Y-108893304D01*
X174223835Y-108896328D01*
X174157971Y-108927041D01*
X174141562Y-108933319D01*
X174050285Y-108961008D01*
X174046382Y-108962123D01*
X173981700Y-108979454D01*
X173961761Y-108983082D01*
X173835445Y-108995523D01*
X173816131Y-108997213D01*
X173795360Y-108999031D01*
X173784594Y-108999500D01*
X155505415Y-108999500D01*
X155494606Y-108999028D01*
X155454550Y-108995523D01*
X155326388Y-108982900D01*
X155306455Y-108979273D01*
X155241194Y-108961786D01*
X155237293Y-108960672D01*
X155144797Y-108932614D01*
X155128388Y-108926336D01*
X155116117Y-108920614D01*
X155061864Y-108895315D01*
X155055840Y-108892303D01*
X154978548Y-108850990D01*
X154975658Y-108849445D01*
X154962989Y-108841662D01*
X154901193Y-108798392D01*
X154893652Y-108792671D01*
X154824768Y-108736140D01*
X154815751Y-108727967D01*
X154762031Y-108674247D01*
X154753858Y-108665230D01*
X154697327Y-108596346D01*
X154691606Y-108588805D01*
X154648336Y-108527009D01*
X154640556Y-108514346D01*
X154597680Y-108434130D01*
X154594697Y-108428164D01*
X154563657Y-108361598D01*
X154557384Y-108345201D01*
X154529326Y-108252705D01*
X154528212Y-108248804D01*
X154512910Y-108191696D01*
X154510724Y-108183538D01*
X154507100Y-108163618D01*
X154494473Y-108035415D01*
X154490968Y-107995359D01*
X154490500Y-107984598D01*
X154490500Y-106429999D01*
X155254340Y-106429999D01*
X155274936Y-106665407D01*
X155313565Y-106809571D01*
X155336097Y-106893663D01*
X155435965Y-107107830D01*
X155571505Y-107301401D01*
X155738599Y-107468495D01*
X155932170Y-107604035D01*
X156146337Y-107703903D01*
X156374592Y-107765063D01*
X156610000Y-107785659D01*
X156845408Y-107765063D01*
X157073663Y-107703903D01*
X157287830Y-107604035D01*
X157481401Y-107468495D01*
X157648495Y-107301401D01*
X157784035Y-107107830D01*
X157883903Y-106893663D01*
X157945063Y-106665408D01*
X157965659Y-106430000D01*
X157945063Y-106194592D01*
X157883903Y-105966337D01*
X157784035Y-105752171D01*
X157648495Y-105558599D01*
X157481401Y-105391505D01*
X157295402Y-105261267D01*
X157251780Y-105206692D01*
X157244587Y-105137193D01*
X157276109Y-105074839D01*
X157295405Y-105058119D01*
X157481078Y-104928109D01*
X157648106Y-104761081D01*
X157783600Y-104567576D01*
X157883430Y-104353492D01*
X157940636Y-104140000D01*
X157043686Y-104140000D01*
X157069493Y-104099844D01*
X157110000Y-103961889D01*
X157110000Y-103818111D01*
X157069493Y-103680156D01*
X157043686Y-103640000D01*
X157940636Y-103640000D01*
X157940635Y-103639999D01*
X157883430Y-103426507D01*
X157783599Y-103212421D01*
X157648109Y-103018921D01*
X157481081Y-102851893D01*
X157295404Y-102721880D01*
X157251780Y-102667303D01*
X157244587Y-102597804D01*
X157276109Y-102535450D01*
X157295399Y-102518734D01*
X157481401Y-102388495D01*
X157648495Y-102221401D01*
X157784035Y-102027830D01*
X157883903Y-101813663D01*
X157945063Y-101585408D01*
X157965659Y-101350000D01*
X157945063Y-101114592D01*
X157883903Y-100886337D01*
X157784035Y-100672171D01*
X157648495Y-100478599D01*
X157481401Y-100311505D01*
X157295839Y-100181573D01*
X157252216Y-100126998D01*
X157245022Y-100057500D01*
X157276545Y-99995145D01*
X157295837Y-99978428D01*
X157481401Y-99848495D01*
X157648495Y-99681401D01*
X157745140Y-99543376D01*
X157799717Y-99499752D01*
X157846715Y-99490500D01*
X159947770Y-99490500D01*
X160014809Y-99510185D01*
X160035451Y-99526819D01*
X164614267Y-104105634D01*
X164626048Y-104119266D01*
X164640389Y-104138529D01*
X164678339Y-104170373D01*
X164686314Y-104177681D01*
X164690223Y-104181590D01*
X164693055Y-104183829D01*
X164693065Y-104183838D01*
X164714542Y-104200819D01*
X164717298Y-104203063D01*
X164774786Y-104251302D01*
X164774788Y-104251303D01*
X164775757Y-104252116D01*
X164792177Y-104262576D01*
X164793321Y-104263109D01*
X164793323Y-104263111D01*
X164861357Y-104294835D01*
X164864456Y-104296335D01*
X164931567Y-104330040D01*
X164932704Y-104330611D01*
X164951084Y-104336998D01*
X164952321Y-104337253D01*
X164952327Y-104337256D01*
X165025862Y-104352439D01*
X165029209Y-104353181D01*
X165102279Y-104370500D01*
X165102281Y-104370500D01*
X165103505Y-104370790D01*
X165122876Y-104372769D01*
X165124140Y-104372732D01*
X165124144Y-104372733D01*
X165199110Y-104370552D01*
X165202716Y-104370500D01*
X167944376Y-104370500D01*
X168011415Y-104390185D01*
X168045949Y-104423374D01*
X168048402Y-104426877D01*
X168203123Y-104581598D01*
X168382361Y-104707102D01*
X168491285Y-104757894D01*
X168543724Y-104804066D01*
X168562876Y-104871260D01*
X168542660Y-104938141D01*
X168491285Y-104982658D01*
X168382612Y-105033333D01*
X168320428Y-105076874D01*
X168320427Y-105076875D01*
X168877466Y-105633913D01*
X168867685Y-105635320D01*
X168736900Y-105695048D01*
X168628239Y-105789202D01*
X168550507Y-105910156D01*
X168526923Y-105990474D01*
X167966876Y-105430427D01*
X167966874Y-105430428D01*
X167923333Y-105492611D01*
X167830897Y-105690840D01*
X167774287Y-105902113D01*
X167755224Y-106120000D01*
X167774287Y-106337886D01*
X167830898Y-106549161D01*
X167923331Y-106747386D01*
X167966873Y-106809571D01*
X167966874Y-106809572D01*
X168526923Y-106249523D01*
X168550507Y-106329844D01*
X168628239Y-106450798D01*
X168736900Y-106544952D01*
X168867685Y-106604680D01*
X168877466Y-106606086D01*
X168320426Y-107163124D01*
X168320427Y-107163125D01*
X168382610Y-107206666D01*
X168580840Y-107299102D01*
X168792113Y-107355712D01*
X169010000Y-107374775D01*
X169227886Y-107355712D01*
X169439159Y-107299102D01*
X169637385Y-107206667D01*
X169699572Y-107163124D01*
X169142534Y-106606086D01*
X169152315Y-106604680D01*
X169283100Y-106544952D01*
X169391761Y-106450798D01*
X169469493Y-106329844D01*
X169493076Y-106249524D01*
X170053124Y-106809572D01*
X170096667Y-106747385D01*
X170189102Y-106549159D01*
X170245712Y-106337886D01*
X170264775Y-106120000D01*
X170245712Y-105902113D01*
X170189102Y-105690840D01*
X170096667Y-105492615D01*
X170053123Y-105430428D01*
X169493076Y-105990475D01*
X169469493Y-105910156D01*
X169391761Y-105789202D01*
X169283100Y-105695048D01*
X169152315Y-105635320D01*
X169142534Y-105633913D01*
X169699572Y-105076875D01*
X169699571Y-105076873D01*
X169637386Y-105033331D01*
X169528716Y-104982658D01*
X169476276Y-104936486D01*
X169457124Y-104869293D01*
X169477340Y-104802411D01*
X169528715Y-104757894D01*
X169637639Y-104707102D01*
X169816877Y-104581598D01*
X169971598Y-104426877D01*
X170097102Y-104247639D01*
X170189575Y-104049330D01*
X170246207Y-103837977D01*
X170265277Y-103620000D01*
X170246207Y-103402023D01*
X170189575Y-103190670D01*
X170097102Y-102992362D01*
X169971598Y-102813123D01*
X169816877Y-102658402D01*
X169637639Y-102532898D01*
X169529306Y-102482381D01*
X169476868Y-102436210D01*
X169457716Y-102369016D01*
X169477932Y-102302135D01*
X169529307Y-102257618D01*
X169637639Y-102207102D01*
X169816877Y-102081598D01*
X169971598Y-101926877D01*
X170097102Y-101747639D01*
X170189575Y-101549330D01*
X170246207Y-101337977D01*
X170265277Y-101120000D01*
X170246207Y-100902023D01*
X170189575Y-100690670D01*
X170097102Y-100492362D01*
X169971598Y-100313123D01*
X169816877Y-100158402D01*
X169637639Y-100032898D01*
X169529306Y-99982381D01*
X169476868Y-99936210D01*
X169457716Y-99869016D01*
X169477932Y-99802135D01*
X169529307Y-99757618D01*
X169637639Y-99707102D01*
X169816877Y-99581598D01*
X169971598Y-99426877D01*
X170097102Y-99247639D01*
X170189575Y-99049330D01*
X170246207Y-98837977D01*
X170265277Y-98620000D01*
X170246207Y-98402023D01*
X170189575Y-98190670D01*
X170097102Y-97992362D01*
X169971598Y-97813123D01*
X169816877Y-97658402D01*
X169637639Y-97532898D01*
X169546205Y-97490261D01*
X169439331Y-97440425D01*
X169227974Y-97383792D01*
X169010000Y-97364722D01*
X168792025Y-97383792D01*
X168580668Y-97440425D01*
X168382361Y-97532898D01*
X168203122Y-97658402D01*
X168048402Y-97813122D01*
X167922898Y-97992361D01*
X167830425Y-98190668D01*
X167773792Y-98402025D01*
X167754722Y-98620000D01*
X167773792Y-98837974D01*
X167817983Y-99002898D01*
X167830425Y-99049330D01*
X167922898Y-99247639D01*
X168048402Y-99426877D01*
X168203123Y-99581598D01*
X168382361Y-99707102D01*
X168490693Y-99757618D01*
X168543132Y-99803790D01*
X168562284Y-99870984D01*
X168542068Y-99937865D01*
X168490693Y-99982382D01*
X168382361Y-100032898D01*
X168203121Y-100158403D01*
X168048404Y-100313119D01*
X168045953Y-100316621D01*
X167991377Y-100360247D01*
X167944376Y-100369500D01*
X165552229Y-100369500D01*
X165485190Y-100349815D01*
X165464548Y-100333181D01*
X163600137Y-98468770D01*
X163566652Y-98407447D01*
X163571636Y-98337755D01*
X163613508Y-98281822D01*
X163662034Y-98259799D01*
X163749803Y-98241144D01*
X163922730Y-98164151D01*
X164005418Y-98104075D01*
X164075870Y-98052889D01*
X164087475Y-98040001D01*
X164202533Y-97912216D01*
X164297179Y-97748284D01*
X164355674Y-97568256D01*
X164375460Y-97380000D01*
X164355674Y-97191744D01*
X164339317Y-97141401D01*
X164336569Y-97132943D01*
X164330500Y-97094626D01*
X164330500Y-90604500D01*
X164350185Y-90537461D01*
X164402989Y-90491706D01*
X164454500Y-90480500D01*
X164846294Y-90480500D01*
X164864264Y-90481809D01*
X164868320Y-90482402D01*
X164888023Y-90485289D01*
X164937368Y-90480972D01*
X164948176Y-90480500D01*
X164950100Y-90480500D01*
X164953709Y-90480500D01*
X164984550Y-90476894D01*
X164988031Y-90476539D01*
X165062797Y-90469999D01*
X165062797Y-90469998D01*
X165064052Y-90469889D01*
X165083062Y-90465674D01*
X165084250Y-90465241D01*
X165084255Y-90465241D01*
X165154820Y-90439557D01*
X165158095Y-90438419D01*
X165229334Y-90414814D01*
X165229336Y-90414812D01*
X165230536Y-90414415D01*
X165248063Y-90405929D01*
X165249112Y-90405238D01*
X165249117Y-90405237D01*
X165311806Y-90364005D01*
X165314798Y-90362099D01*
X165378656Y-90322712D01*
X165378656Y-90322711D01*
X165379729Y-90322050D01*
X165394824Y-90309753D01*
X165395692Y-90308832D01*
X165395696Y-90308830D01*
X165447185Y-90254253D01*
X165449631Y-90251735D01*
X167044547Y-88656819D01*
X167105871Y-88623334D01*
X167132229Y-88620500D01*
X167914376Y-88620500D01*
X167981415Y-88640185D01*
X168015949Y-88673374D01*
X168017926Y-88676198D01*
X168018402Y-88676877D01*
X168173123Y-88831598D01*
X168352361Y-88957102D01*
X168461285Y-89007894D01*
X168513724Y-89054066D01*
X168532876Y-89121260D01*
X168512660Y-89188141D01*
X168461285Y-89232658D01*
X168352612Y-89283333D01*
X168290428Y-89326874D01*
X168290427Y-89326875D01*
X168847466Y-89883913D01*
X168837685Y-89885320D01*
X168706900Y-89945048D01*
X168598239Y-90039202D01*
X168520507Y-90160156D01*
X168496923Y-90240475D01*
X167936875Y-89680427D01*
X167936874Y-89680428D01*
X167893333Y-89742611D01*
X167800897Y-89940840D01*
X167744287Y-90152113D01*
X167725224Y-90369999D01*
X167744287Y-90587886D01*
X167800898Y-90799161D01*
X167893331Y-90997386D01*
X167936873Y-91059571D01*
X167936875Y-91059572D01*
X168496923Y-90499523D01*
X168520507Y-90579844D01*
X168598239Y-90700798D01*
X168706900Y-90794952D01*
X168837685Y-90854680D01*
X168847466Y-90856086D01*
X168290426Y-91413124D01*
X168290427Y-91413125D01*
X168352612Y-91456667D01*
X168461284Y-91507341D01*
X168513724Y-91553513D01*
X168532876Y-91620706D01*
X168512661Y-91687587D01*
X168461286Y-91732105D01*
X168352359Y-91782899D01*
X168173122Y-91908402D01*
X168018402Y-92063122D01*
X167892898Y-92242361D01*
X167800425Y-92440668D01*
X167743792Y-92652025D01*
X167724722Y-92870000D01*
X167743792Y-93087974D01*
X167791584Y-93266337D01*
X167800425Y-93299330D01*
X167892898Y-93497639D01*
X168018402Y-93676877D01*
X168173123Y-93831598D01*
X168352361Y-93957102D01*
X168550670Y-94049575D01*
X168762023Y-94106207D01*
X168980000Y-94125277D01*
X169197977Y-94106207D01*
X169409330Y-94049575D01*
X169607639Y-93957102D01*
X169786877Y-93831598D01*
X169941598Y-93676877D01*
X170067102Y-93497639D01*
X170159575Y-93299330D01*
X170216207Y-93087977D01*
X170235277Y-92870000D01*
X170234279Y-92858598D01*
X170216207Y-92652025D01*
X170216207Y-92652023D01*
X170159575Y-92440670D01*
X170067102Y-92242362D01*
X169941598Y-92063123D01*
X169786877Y-91908402D01*
X169607639Y-91782898D01*
X169539881Y-91751302D01*
X169498714Y-91732105D01*
X169446275Y-91685932D01*
X169427123Y-91618739D01*
X169447339Y-91551858D01*
X169498715Y-91507340D01*
X169607388Y-91456665D01*
X169669572Y-91413124D01*
X169112534Y-90856086D01*
X169122315Y-90854680D01*
X169253100Y-90794952D01*
X169361761Y-90700798D01*
X169439493Y-90579844D01*
X169463077Y-90499523D01*
X170023124Y-91059572D01*
X170066667Y-90997385D01*
X170159102Y-90799159D01*
X170215712Y-90587886D01*
X170234775Y-90369999D01*
X170215712Y-90152113D01*
X170159102Y-89940840D01*
X170066667Y-89742615D01*
X170023123Y-89680427D01*
X169463076Y-90240474D01*
X169439493Y-90160156D01*
X169361761Y-90039202D01*
X169253100Y-89945048D01*
X169122315Y-89885320D01*
X169112534Y-89883913D01*
X169669572Y-89326875D01*
X169669571Y-89326873D01*
X169607386Y-89283331D01*
X169498716Y-89232658D01*
X169446276Y-89186486D01*
X169427124Y-89119293D01*
X169447340Y-89052411D01*
X169498715Y-89007894D01*
X169607639Y-88957102D01*
X169786877Y-88831598D01*
X169941598Y-88676877D01*
X170067102Y-88497639D01*
X170159575Y-88299330D01*
X170216207Y-88087977D01*
X170235277Y-87870000D01*
X170216207Y-87652023D01*
X170159575Y-87440670D01*
X170067102Y-87242362D01*
X169941598Y-87063123D01*
X169786877Y-86908402D01*
X169607639Y-86782898D01*
X169499306Y-86732381D01*
X169446868Y-86686210D01*
X169427716Y-86619016D01*
X169447932Y-86552135D01*
X169499307Y-86507618D01*
X169607639Y-86457102D01*
X169786877Y-86331598D01*
X169941598Y-86176877D01*
X170067102Y-85997639D01*
X170159575Y-85799330D01*
X170216207Y-85587977D01*
X170235277Y-85370000D01*
X170216207Y-85152023D01*
X170159575Y-84940670D01*
X170067102Y-84742362D01*
X169941598Y-84563123D01*
X169786877Y-84408402D01*
X169783374Y-84405949D01*
X169739750Y-84351371D01*
X169730500Y-84304376D01*
X169730500Y-83162530D01*
X169730500Y-82003691D01*
X169731809Y-81985732D01*
X169735289Y-81961977D01*
X169730971Y-81912633D01*
X169730500Y-81901827D01*
X169730500Y-81899901D01*
X169730500Y-81896291D01*
X169726894Y-81865443D01*
X169726537Y-81861956D01*
X169719998Y-81787203D01*
X169719888Y-81785943D01*
X169715674Y-81766935D01*
X169715241Y-81765745D01*
X169689567Y-81695207D01*
X169688399Y-81691844D01*
X169664814Y-81620666D01*
X169664811Y-81620662D01*
X169664416Y-81619468D01*
X169655929Y-81601936D01*
X169655237Y-81600884D01*
X169655237Y-81600883D01*
X169613999Y-81538184D01*
X169612087Y-81535181D01*
X169572050Y-81470270D01*
X169559750Y-81455172D01*
X169504290Y-81402848D01*
X169501703Y-81400335D01*
X166138765Y-78037396D01*
X171170746Y-78037396D01*
X171180746Y-78247330D01*
X171230297Y-78451580D01*
X171317602Y-78642752D01*
X171427845Y-78797566D01*
X171439514Y-78813952D01*
X171542456Y-78912107D01*
X171577391Y-78972615D01*
X171574066Y-79042405D01*
X171533538Y-79099319D01*
X171521984Y-79107387D01*
X171456654Y-79147683D01*
X171332683Y-79271654D01*
X171240642Y-79420877D01*
X171185493Y-79587303D01*
X171175319Y-79686890D01*
X171175000Y-79693168D01*
X171175000Y-79840000D01*
X172270440Y-79840000D01*
X172231722Y-79882059D01*
X172181449Y-79996670D01*
X172171114Y-80121395D01*
X172201837Y-80242719D01*
X172265394Y-80340000D01*
X171175001Y-80340000D01*
X171175001Y-80486829D01*
X171175321Y-80493111D01*
X171185493Y-80592695D01*
X171240642Y-80759122D01*
X171332683Y-80908345D01*
X171456654Y-81032316D01*
X171605877Y-81124357D01*
X171772303Y-81179506D01*
X171871890Y-81189680D01*
X171878168Y-81189999D01*
X172299999Y-81189999D01*
X172300000Y-81189998D01*
X172300000Y-80370617D01*
X172369052Y-80424363D01*
X172487424Y-80465000D01*
X172581073Y-80465000D01*
X172673446Y-80449586D01*
X172783514Y-80390019D01*
X172799999Y-80372111D01*
X172799999Y-81189998D01*
X172800000Y-81189999D01*
X173221829Y-81189999D01*
X173228111Y-81189678D01*
X173327695Y-81179506D01*
X173494122Y-81124357D01*
X173643345Y-81032316D01*
X173767316Y-80908345D01*
X173859357Y-80759122D01*
X173914506Y-80592696D01*
X173924680Y-80493109D01*
X173925000Y-80486831D01*
X173925000Y-80340000D01*
X172829560Y-80340000D01*
X172868278Y-80297941D01*
X172918551Y-80183330D01*
X172928886Y-80058605D01*
X172898163Y-79937281D01*
X172834606Y-79840000D01*
X173924999Y-79840000D01*
X173924999Y-79693170D01*
X173924678Y-79686888D01*
X173914506Y-79587304D01*
X173859357Y-79420877D01*
X173767316Y-79271654D01*
X173643346Y-79147684D01*
X173579841Y-79108514D01*
X173533117Y-79056566D01*
X173521894Y-78987603D01*
X173549738Y-78923521D01*
X173568281Y-78905509D01*
X173587886Y-78890092D01*
X173725519Y-78731256D01*
X173830604Y-78549244D01*
X173899344Y-78350633D01*
X173929254Y-78142602D01*
X173919254Y-77932670D01*
X173869704Y-77728424D01*
X173855843Y-77698072D01*
X173782397Y-77537247D01*
X173696797Y-77417040D01*
X173660486Y-77366048D01*
X173508378Y-77221014D01*
X173476257Y-77200371D01*
X173331574Y-77107387D01*
X173169067Y-77042330D01*
X173136457Y-77029275D01*
X173136456Y-77029274D01*
X173136454Y-77029274D01*
X172930086Y-76989500D01*
X172930085Y-76989500D01*
X172222575Y-76989500D01*
X172219645Y-76989779D01*
X172219619Y-76989781D01*
X172065784Y-77004471D01*
X171864126Y-77063683D01*
X171677315Y-77159990D01*
X171512115Y-77289906D01*
X171374479Y-77448745D01*
X171269396Y-77630754D01*
X171200655Y-77829366D01*
X171170746Y-78037396D01*
X166138765Y-78037396D01*
X165186819Y-77085450D01*
X165153334Y-77024127D01*
X165150500Y-76997769D01*
X165150500Y-73193705D01*
X165151809Y-73175735D01*
X165151980Y-73174564D01*
X165155289Y-73151977D01*
X165150971Y-73102633D01*
X165150500Y-73091827D01*
X165150500Y-73089901D01*
X165150500Y-73086291D01*
X165146898Y-73055478D01*
X165146534Y-73051915D01*
X165144285Y-73026211D01*
X165139998Y-72977202D01*
X165139888Y-72975942D01*
X165135674Y-72956935D01*
X165130470Y-72942636D01*
X165109571Y-72885217D01*
X165108424Y-72881917D01*
X165084814Y-72810665D01*
X165084812Y-72810662D01*
X165084415Y-72809463D01*
X165075929Y-72791936D01*
X165075237Y-72790884D01*
X165075237Y-72790883D01*
X165033994Y-72728176D01*
X165032099Y-72725201D01*
X164992711Y-72661344D01*
X164992047Y-72660267D01*
X164979748Y-72645170D01*
X164924274Y-72592833D01*
X164921687Y-72590320D01*
X164636819Y-72305451D01*
X164603334Y-72244128D01*
X164600500Y-72217770D01*
X164600500Y-71928957D01*
X164620185Y-71861918D01*
X164659402Y-71823419D01*
X164668656Y-71817712D01*
X164792712Y-71693656D01*
X164884814Y-71544334D01*
X164939999Y-71377797D01*
X164950500Y-71275009D01*
X164950500Y-70934450D01*
X167860000Y-70934450D01*
X167860281Y-70940359D01*
X167874964Y-71094120D01*
X167934149Y-71295687D01*
X168030412Y-71482412D01*
X168160269Y-71647538D01*
X168319036Y-71785111D01*
X168500963Y-71890146D01*
X168699485Y-71958855D01*
X168710000Y-71960366D01*
X168710000Y-70890617D01*
X168779052Y-70944363D01*
X168897424Y-70985000D01*
X168991073Y-70985000D01*
X169083446Y-70969586D01*
X169193514Y-70910019D01*
X169209999Y-70892110D01*
X169210000Y-71956257D01*
X169321410Y-71929229D01*
X169512505Y-71841960D01*
X169683624Y-71720105D01*
X169781479Y-71617478D01*
X169841987Y-71582543D01*
X169911778Y-71585867D01*
X169968692Y-71626395D01*
X169976761Y-71637951D01*
X170017288Y-71703657D01*
X170141342Y-71827711D01*
X170141344Y-71827712D01*
X170290666Y-71919814D01*
X170402016Y-71956712D01*
X170457202Y-71974999D01*
X170556858Y-71985180D01*
X170556859Y-71985180D01*
X170559991Y-71985500D01*
X171360008Y-71985499D01*
X171462797Y-71974999D01*
X171629334Y-71919814D01*
X171778656Y-71827712D01*
X171902712Y-71703656D01*
X171994814Y-71554334D01*
X172049999Y-71387797D01*
X172060500Y-71285009D01*
X172060499Y-69934992D01*
X172049999Y-69832203D01*
X171994814Y-69665666D01*
X171903039Y-69516874D01*
X171902711Y-69516342D01*
X171778657Y-69392288D01*
X171629334Y-69300186D01*
X171462797Y-69245000D01*
X171363141Y-69234819D01*
X171363122Y-69234818D01*
X171360009Y-69234500D01*
X171356860Y-69234500D01*
X170563141Y-69234500D01*
X170563121Y-69234500D01*
X170559992Y-69234501D01*
X170556860Y-69234820D01*
X170556858Y-69234821D01*
X170457203Y-69245000D01*
X170290665Y-69300186D01*
X170141342Y-69392288D01*
X170017287Y-69516343D01*
X169977905Y-69580192D01*
X169925957Y-69626917D01*
X169856995Y-69638138D01*
X169792913Y-69610295D01*
X169774897Y-69591748D01*
X169759728Y-69572460D01*
X169600963Y-69434888D01*
X169419036Y-69329853D01*
X169220511Y-69261143D01*
X169210000Y-69259631D01*
X169209999Y-69259631D01*
X169209999Y-70329382D01*
X169140948Y-70275637D01*
X169022576Y-70235000D01*
X168928927Y-70235000D01*
X168836554Y-70250414D01*
X168726486Y-70309981D01*
X168710000Y-70327889D01*
X168710000Y-69263740D01*
X168598593Y-69290768D01*
X168407494Y-69378039D01*
X168236378Y-69499892D01*
X168091407Y-69651933D01*
X167977833Y-69828655D01*
X167899755Y-70023685D01*
X167860000Y-70229962D01*
X167860000Y-70360000D01*
X168680440Y-70360000D01*
X168641722Y-70402059D01*
X168591449Y-70516670D01*
X168581114Y-70641395D01*
X168611837Y-70762719D01*
X168675394Y-70860000D01*
X167860000Y-70860000D01*
X167860000Y-70934450D01*
X164950500Y-70934450D01*
X164950499Y-69924992D01*
X164939999Y-69822203D01*
X164884814Y-69655666D01*
X164798880Y-69516344D01*
X164792711Y-69506342D01*
X164668657Y-69382288D01*
X164519334Y-69290186D01*
X164352797Y-69235000D01*
X164253141Y-69224819D01*
X164253122Y-69224818D01*
X164250009Y-69224500D01*
X164246860Y-69224500D01*
X163453141Y-69224500D01*
X163453121Y-69224500D01*
X163449992Y-69224501D01*
X163446860Y-69224820D01*
X163446858Y-69224821D01*
X163347203Y-69235000D01*
X163180665Y-69290186D01*
X163031342Y-69382288D01*
X162907289Y-69506341D01*
X162868185Y-69569740D01*
X162816237Y-69616464D01*
X162747274Y-69627687D01*
X162683192Y-69599843D01*
X162665175Y-69581294D01*
X162664308Y-69580192D01*
X162650092Y-69562114D01*
X162597883Y-69516874D01*
X162491254Y-69424479D01*
X162309245Y-69319396D01*
X162110633Y-69250655D01*
X161902603Y-69220746D01*
X161902602Y-69220746D01*
X161823794Y-69224500D01*
X161692669Y-69230746D01*
X161488419Y-69280297D01*
X161297247Y-69367602D01*
X161126050Y-69489512D01*
X161126048Y-69489513D01*
X161126048Y-69489514D01*
X161056824Y-69562114D01*
X160981013Y-69641623D01*
X160867387Y-69818425D01*
X160789274Y-70013545D01*
X160749499Y-70219913D01*
X160749500Y-70578605D01*
X160749500Y-70927425D01*
X160749779Y-70930355D01*
X160749781Y-70930380D01*
X160764471Y-71084215D01*
X160823683Y-71285873D01*
X160919990Y-71472684D01*
X161049907Y-71637886D01*
X161056701Y-71643773D01*
X161094477Y-71702550D01*
X161099500Y-71737487D01*
X161099500Y-72576294D01*
X161098191Y-72594264D01*
X161094711Y-72618023D01*
X161098057Y-72656275D01*
X161099028Y-72667368D01*
X161099500Y-72678175D01*
X161099500Y-72683709D01*
X161099916Y-72687272D01*
X161099917Y-72687282D01*
X161103098Y-72714496D01*
X161103464Y-72718082D01*
X161110109Y-72794041D01*
X161114329Y-72813071D01*
X161114758Y-72814251D01*
X161114759Y-72814255D01*
X161140413Y-72884742D01*
X161141582Y-72888107D01*
X161165580Y-72960524D01*
X161174075Y-72978072D01*
X161215979Y-73041784D01*
X161217916Y-73044825D01*
X161239861Y-73080403D01*
X161258302Y-73147795D01*
X161237380Y-73214459D01*
X161183738Y-73259228D01*
X161134323Y-73269500D01*
X159989306Y-73269500D01*
X159986886Y-73269690D01*
X159986871Y-73269691D01*
X159952427Y-73272402D01*
X159794602Y-73318255D01*
X159653134Y-73401919D01*
X159646873Y-73408181D01*
X159585550Y-73441666D01*
X159559192Y-73444500D01*
X159130452Y-73444500D01*
X159063413Y-73424815D01*
X159042771Y-73408181D01*
X158660802Y-73026211D01*
X158647906Y-73010113D01*
X158596775Y-72962098D01*
X158593978Y-72959387D01*
X158577227Y-72942636D01*
X158574471Y-72939880D01*
X158571290Y-72937412D01*
X158562422Y-72929837D01*
X158530582Y-72899938D01*
X158513024Y-72890285D01*
X158496764Y-72879604D01*
X158480936Y-72867327D01*
X158440851Y-72849980D01*
X158430361Y-72844841D01*
X158392091Y-72823802D01*
X158372691Y-72818821D01*
X158354284Y-72812519D01*
X158335897Y-72804562D01*
X158292758Y-72797729D01*
X158281324Y-72795361D01*
X158239019Y-72784500D01*
X158218984Y-72784500D01*
X158199586Y-72782973D01*
X158192162Y-72781797D01*
X158179805Y-72779840D01*
X158179804Y-72779840D01*
X158146751Y-72782964D01*
X158136325Y-72783950D01*
X158124656Y-72784500D01*
X157885226Y-72784500D01*
X157818187Y-72764815D01*
X157783651Y-72731623D01*
X157774170Y-72718082D01*
X157648495Y-72538599D01*
X157481401Y-72371505D01*
X157287830Y-72235965D01*
X157073663Y-72136097D01*
X157012501Y-72119709D01*
X156845407Y-72074936D01*
X156610000Y-72054340D01*
X156374592Y-72074936D01*
X156146336Y-72136097D01*
X155932170Y-72235965D01*
X155738598Y-72371505D01*
X155571505Y-72538598D01*
X155435965Y-72732170D01*
X155336097Y-72946336D01*
X155274936Y-73174592D01*
X155254340Y-73409999D01*
X155274936Y-73645407D01*
X155319173Y-73810500D01*
X155336097Y-73873663D01*
X155435965Y-74087830D01*
X155571505Y-74281401D01*
X155571507Y-74281403D01*
X155571508Y-74281404D01*
X155693430Y-74403326D01*
X155726915Y-74464649D01*
X155721931Y-74534341D01*
X155680059Y-74590274D01*
X155649083Y-74607189D01*
X155517669Y-74656204D01*
X155402454Y-74742454D01*
X155316204Y-74857668D01*
X155265909Y-74992516D01*
X155260302Y-75044671D01*
X155259500Y-75052127D01*
X155259500Y-75055448D01*
X155259500Y-75055449D01*
X155259500Y-76844560D01*
X155259500Y-76844578D01*
X155259501Y-76847872D01*
X155265909Y-76907483D01*
X155316204Y-77042331D01*
X155402454Y-77157546D01*
X155517669Y-77243796D01*
X155652517Y-77294091D01*
X155712127Y-77300500D01*
X157507872Y-77300499D01*
X157567483Y-77294091D01*
X157702331Y-77243796D01*
X157817546Y-77157546D01*
X157903796Y-77042331D01*
X157954091Y-76907483D01*
X157960500Y-76847873D01*
X157960499Y-76220000D01*
X159407704Y-76220000D01*
X159407900Y-76222488D01*
X159453719Y-76380200D01*
X159537317Y-76521557D01*
X159653442Y-76637682D01*
X159794802Y-76721282D01*
X159952506Y-76767099D01*
X159986923Y-76769808D01*
X159991803Y-76770000D01*
X160392500Y-76770000D01*
X160392500Y-76220000D01*
X160892500Y-76220000D01*
X160892500Y-76770000D01*
X161293197Y-76770000D01*
X161298076Y-76769808D01*
X161332493Y-76767099D01*
X161490197Y-76721282D01*
X161631557Y-76637682D01*
X161747682Y-76521557D01*
X161831280Y-76380200D01*
X161877099Y-76222488D01*
X161877295Y-76220000D01*
X160892500Y-76220000D01*
X160392500Y-76220000D01*
X159407704Y-76220000D01*
X157960499Y-76220000D01*
X157960499Y-75719999D01*
X159407704Y-75719999D01*
X159407705Y-75720000D01*
X160392500Y-75720000D01*
X160392500Y-75170000D01*
X159991803Y-75170000D01*
X159986923Y-75170191D01*
X159952506Y-75172900D01*
X159794802Y-75218717D01*
X159653442Y-75302317D01*
X159537317Y-75418442D01*
X159453719Y-75559799D01*
X159407900Y-75717511D01*
X159407704Y-75719999D01*
X157960499Y-75719999D01*
X157960499Y-75052128D01*
X157954091Y-74992517D01*
X157903796Y-74857669D01*
X157817546Y-74742454D01*
X157702331Y-74656204D01*
X157632131Y-74630021D01*
X157570916Y-74607189D01*
X157514983Y-74565317D01*
X157490566Y-74499853D01*
X157505418Y-74431580D01*
X157526563Y-74403332D01*
X157648495Y-74281401D01*
X157768959Y-74109359D01*
X157823534Y-74065737D01*
X157893032Y-74058543D01*
X157955387Y-74090066D01*
X157958213Y-74092804D01*
X158319196Y-74453787D01*
X158332096Y-74469888D01*
X158383223Y-74517900D01*
X158386020Y-74520611D01*
X158405529Y-74540120D01*
X158408709Y-74542587D01*
X158417571Y-74550155D01*
X158449418Y-74580062D01*
X158458730Y-74585181D01*
X158466972Y-74589712D01*
X158483236Y-74600396D01*
X158490344Y-74605909D01*
X158499064Y-74612673D01*
X158523909Y-74623424D01*
X158539152Y-74630021D01*
X158549631Y-74635154D01*
X158587908Y-74656197D01*
X158607306Y-74661177D01*
X158625708Y-74667477D01*
X158644104Y-74675438D01*
X158687261Y-74682273D01*
X158698664Y-74684634D01*
X158740981Y-74695500D01*
X158761016Y-74695500D01*
X158780413Y-74697026D01*
X158800196Y-74700160D01*
X158843674Y-74696050D01*
X158855344Y-74695500D01*
X159559192Y-74695500D01*
X159626231Y-74715185D01*
X159646873Y-74731819D01*
X159653135Y-74738081D01*
X159784458Y-74815745D01*
X159794602Y-74821744D01*
X159952427Y-74867597D01*
X159952431Y-74867598D01*
X159989306Y-74870500D01*
X161155500Y-74870500D01*
X161222539Y-74890185D01*
X161268294Y-74942989D01*
X161279500Y-74994500D01*
X161279500Y-75046000D01*
X161259815Y-75113039D01*
X161207011Y-75158794D01*
X161155500Y-75170000D01*
X160892500Y-75170000D01*
X160892500Y-75720000D01*
X161548185Y-75720000D01*
X161611306Y-75737268D01*
X161669602Y-75771744D01*
X161827427Y-75817597D01*
X161827431Y-75817598D01*
X161864306Y-75820500D01*
X161866751Y-75820500D01*
X163168249Y-75820500D01*
X163170694Y-75820500D01*
X163207569Y-75817598D01*
X163365398Y-75771744D01*
X163462382Y-75714387D01*
X163530102Y-75697206D01*
X163596365Y-75719366D01*
X163640128Y-75773831D01*
X163649500Y-75821121D01*
X163649500Y-77296294D01*
X163648191Y-77314264D01*
X163644711Y-77338023D01*
X163649028Y-77387368D01*
X163649500Y-77398175D01*
X163649500Y-77403709D01*
X163649916Y-77407272D01*
X163649917Y-77407282D01*
X163653098Y-77434496D01*
X163653464Y-77438082D01*
X163660109Y-77514041D01*
X163664329Y-77533071D01*
X163664758Y-77534251D01*
X163664759Y-77534255D01*
X163690413Y-77604742D01*
X163691582Y-77608107D01*
X163715580Y-77680524D01*
X163724075Y-77698072D01*
X163765979Y-77761784D01*
X163767889Y-77764782D01*
X163807288Y-77828656D01*
X163807952Y-77829732D01*
X163820253Y-77844830D01*
X163821168Y-77845693D01*
X163821170Y-77845696D01*
X163875709Y-77897151D01*
X163878296Y-77899664D01*
X166037237Y-80058605D01*
X168193181Y-82214548D01*
X168226666Y-82275871D01*
X168229500Y-82302229D01*
X168229500Y-84304376D01*
X168209815Y-84371415D01*
X168176626Y-84405949D01*
X168173122Y-84408402D01*
X168018404Y-84563119D01*
X168015953Y-84566621D01*
X167961377Y-84610247D01*
X167914376Y-84619500D01*
X164493706Y-84619500D01*
X164475736Y-84618191D01*
X164461853Y-84616157D01*
X164451977Y-84614711D01*
X164451976Y-84614711D01*
X164402631Y-84619028D01*
X164391824Y-84619500D01*
X164386291Y-84619500D01*
X164382730Y-84619916D01*
X164382715Y-84619917D01*
X164355501Y-84623098D01*
X164351916Y-84623464D01*
X164275961Y-84630109D01*
X164256921Y-84634330D01*
X164185232Y-84660421D01*
X164181831Y-84661603D01*
X164109479Y-84685579D01*
X164091925Y-84694077D01*
X164028228Y-84735970D01*
X164025190Y-84737905D01*
X163960281Y-84777943D01*
X163945164Y-84790256D01*
X163892848Y-84845708D01*
X163890336Y-84848294D01*
X163134358Y-85604272D01*
X163120727Y-85616053D01*
X163101468Y-85630391D01*
X163069635Y-85668328D01*
X163062338Y-85676292D01*
X163060972Y-85677657D01*
X163060950Y-85677681D01*
X163058409Y-85680223D01*
X163056173Y-85683050D01*
X163056171Y-85683053D01*
X163039176Y-85704546D01*
X163036902Y-85707337D01*
X162987894Y-85765744D01*
X162977418Y-85782187D01*
X162945192Y-85851294D01*
X162943622Y-85854536D01*
X162909393Y-85922692D01*
X162902996Y-85941099D01*
X162898729Y-85961764D01*
X162865894Y-86023438D01*
X162864973Y-86024369D01*
X162789527Y-86099815D01*
X162701523Y-86245392D01*
X162650913Y-86407806D01*
X162646434Y-86457102D01*
X162644500Y-86478384D01*
X162644500Y-86991616D01*
X162644754Y-86994420D01*
X162644755Y-86994424D01*
X162650913Y-87062193D01*
X162651203Y-87063123D01*
X162701522Y-87224606D01*
X162736617Y-87282660D01*
X162783294Y-87359874D01*
X162789528Y-87370185D01*
X162891662Y-87472319D01*
X162925146Y-87533640D01*
X162920162Y-87603332D01*
X162891662Y-87647680D01*
X162789527Y-87749815D01*
X162701523Y-87895392D01*
X162650913Y-88057806D01*
X162645569Y-88116621D01*
X162644500Y-88128384D01*
X162644500Y-88641616D01*
X162644754Y-88644420D01*
X162644755Y-88644424D01*
X162650913Y-88712193D01*
X162650914Y-88712196D01*
X162701522Y-88874606D01*
X162708052Y-88885408D01*
X162789527Y-89020185D01*
X162793178Y-89023835D01*
X162826665Y-89085157D01*
X162829500Y-89111519D01*
X162829500Y-89704554D01*
X162829290Y-89711764D01*
X162825668Y-89773933D01*
X162827616Y-89784975D01*
X162829500Y-89806509D01*
X162829500Y-96697971D01*
X162809815Y-96765010D01*
X162797650Y-96780943D01*
X162737466Y-96847783D01*
X162642820Y-97011715D01*
X162582796Y-97196453D01*
X162543359Y-97254129D01*
X162479000Y-97281327D01*
X162410154Y-97269412D01*
X162377184Y-97245816D01*
X160915728Y-95784360D01*
X160903946Y-95770727D01*
X160889609Y-95751469D01*
X160851666Y-95719631D01*
X160843691Y-95712323D01*
X160842329Y-95710961D01*
X160839777Y-95708409D01*
X160815444Y-95689169D01*
X160812647Y-95686890D01*
X160754251Y-95637890D01*
X160737821Y-95627422D01*
X160668691Y-95595186D01*
X160665447Y-95593615D01*
X160597306Y-95559394D01*
X160578903Y-95552997D01*
X160504211Y-95537574D01*
X160500692Y-95536794D01*
X160426490Y-95519208D01*
X160407121Y-95517229D01*
X160330869Y-95519448D01*
X160327263Y-95519500D01*
X157797701Y-95519500D01*
X157730662Y-95499815D01*
X157696126Y-95466623D01*
X157653866Y-95406270D01*
X157648495Y-95398599D01*
X157648493Y-95398598D01*
X157481402Y-95231505D01*
X157383883Y-95163222D01*
X157295839Y-95101573D01*
X157252216Y-95046998D01*
X157245022Y-94977500D01*
X157276545Y-94915145D01*
X157295837Y-94898428D01*
X157481401Y-94768495D01*
X157648495Y-94601401D01*
X157784035Y-94407830D01*
X157883903Y-94193663D01*
X157945063Y-93965408D01*
X157965659Y-93730000D01*
X157961011Y-93676880D01*
X157945063Y-93494592D01*
X157945062Y-93494592D01*
X157883903Y-93266337D01*
X157784035Y-93052171D01*
X157648495Y-92858599D01*
X157481401Y-92691505D01*
X157295839Y-92561573D01*
X157252216Y-92506998D01*
X157245022Y-92437500D01*
X157276545Y-92375145D01*
X157295837Y-92358428D01*
X157481401Y-92228495D01*
X157648495Y-92061401D01*
X157784035Y-91867830D01*
X157883903Y-91653663D01*
X157945063Y-91425408D01*
X157965659Y-91190000D01*
X157948219Y-90990670D01*
X157945063Y-90954592D01*
X157918292Y-90854680D01*
X157883903Y-90726337D01*
X157784035Y-90512171D01*
X157648495Y-90318599D01*
X157481401Y-90151505D01*
X157295839Y-90021573D01*
X157252216Y-89966998D01*
X157245022Y-89897500D01*
X157276545Y-89835145D01*
X157295837Y-89818428D01*
X157481401Y-89688495D01*
X157648495Y-89521401D01*
X157784035Y-89327830D01*
X157883903Y-89113663D01*
X157945063Y-88885408D01*
X157965659Y-88650000D01*
X157945063Y-88414592D01*
X157883903Y-88186337D01*
X157784035Y-87972171D01*
X157648495Y-87778599D01*
X157481401Y-87611505D01*
X157295839Y-87481573D01*
X157252216Y-87426998D01*
X157245022Y-87357500D01*
X157276545Y-87295145D01*
X157295837Y-87278428D01*
X157481401Y-87148495D01*
X157648495Y-86981401D01*
X157784035Y-86787830D01*
X157883903Y-86573663D01*
X157945063Y-86345408D01*
X157965659Y-86110000D01*
X157945063Y-85874592D01*
X157883903Y-85646337D01*
X157784035Y-85432171D01*
X157648495Y-85238599D01*
X157526569Y-85116673D01*
X157493084Y-85055350D01*
X157498068Y-84985658D01*
X157539940Y-84929725D01*
X157570915Y-84912810D01*
X157702331Y-84863796D01*
X157817546Y-84777546D01*
X157903796Y-84662331D01*
X157954091Y-84527483D01*
X157960500Y-84467873D01*
X157960499Y-82672128D01*
X157954091Y-82612517D01*
X157903796Y-82477669D01*
X157817546Y-82362454D01*
X157702331Y-82276204D01*
X157567483Y-82225909D01*
X157507873Y-82219500D01*
X157504550Y-82219500D01*
X155715439Y-82219500D01*
X155715420Y-82219500D01*
X155712128Y-82219501D01*
X155708848Y-82219853D01*
X155708840Y-82219854D01*
X155652515Y-82225909D01*
X155517669Y-82276204D01*
X155402454Y-82362454D01*
X155316204Y-82477668D01*
X155265910Y-82612515D01*
X155265909Y-82612517D01*
X155259500Y-82672127D01*
X155259500Y-82675448D01*
X155259500Y-82675449D01*
X155259500Y-84464560D01*
X155259500Y-84464578D01*
X155259501Y-84467872D01*
X155259853Y-84471152D01*
X155259854Y-84471159D01*
X155265909Y-84527484D01*
X155291056Y-84594906D01*
X155316204Y-84662331D01*
X155402454Y-84777546D01*
X155517669Y-84863796D01*
X155629907Y-84905658D01*
X155649082Y-84912810D01*
X155705016Y-84954681D01*
X155729433Y-85020146D01*
X155714581Y-85088419D01*
X155693431Y-85116673D01*
X155571503Y-85238601D01*
X155435965Y-85432170D01*
X155336097Y-85646336D01*
X155274936Y-85874592D01*
X155254340Y-86110000D01*
X155274936Y-86345407D01*
X155319709Y-86512501D01*
X155336097Y-86573663D01*
X155435965Y-86787830D01*
X155571505Y-86981401D01*
X155738599Y-87148495D01*
X155924160Y-87278426D01*
X155967783Y-87333002D01*
X155974976Y-87402501D01*
X155943454Y-87464855D01*
X155924158Y-87481575D01*
X155750272Y-87603332D01*
X155738595Y-87611508D01*
X155571505Y-87778598D01*
X155435965Y-87972170D01*
X155336097Y-88186336D01*
X155274936Y-88414592D01*
X155254340Y-88650000D01*
X155274936Y-88885407D01*
X155311050Y-89020185D01*
X155336097Y-89113663D01*
X155435965Y-89327830D01*
X155571505Y-89521401D01*
X155738599Y-89688495D01*
X155924160Y-89818426D01*
X155967783Y-89873002D01*
X155974976Y-89942501D01*
X155943454Y-90004855D01*
X155924158Y-90021575D01*
X155806744Y-90103790D01*
X155738595Y-90151508D01*
X155571505Y-90318598D01*
X155435965Y-90512170D01*
X155336097Y-90726336D01*
X155274936Y-90954592D01*
X155254340Y-91189999D01*
X155274936Y-91425407D01*
X155308819Y-91551858D01*
X155336097Y-91653663D01*
X155435965Y-91867830D01*
X155571505Y-92061401D01*
X155738599Y-92228495D01*
X155924160Y-92358426D01*
X155967783Y-92413002D01*
X155974976Y-92482501D01*
X155943454Y-92544855D01*
X155924158Y-92561575D01*
X155794986Y-92652023D01*
X155738595Y-92691508D01*
X155571505Y-92858598D01*
X155435965Y-93052170D01*
X155336097Y-93266336D01*
X155274936Y-93494592D01*
X155254340Y-93729999D01*
X155274936Y-93965407D01*
X155317773Y-94125277D01*
X155336097Y-94193663D01*
X155435965Y-94407830D01*
X155571505Y-94601401D01*
X155738599Y-94768495D01*
X155924160Y-94898426D01*
X155967783Y-94953002D01*
X155974976Y-95022501D01*
X155943454Y-95084855D01*
X155924159Y-95101575D01*
X155738595Y-95231508D01*
X155571505Y-95398598D01*
X155435965Y-95592170D01*
X155336097Y-95806336D01*
X155274936Y-96034592D01*
X155254340Y-96270000D01*
X155274936Y-96505407D01*
X155286048Y-96546876D01*
X155336097Y-96733663D01*
X155435965Y-96947830D01*
X155571505Y-97141401D01*
X155738599Y-97308495D01*
X155924160Y-97438426D01*
X155967783Y-97493002D01*
X155974976Y-97562501D01*
X155943454Y-97624855D01*
X155924159Y-97641575D01*
X155738595Y-97771508D01*
X155571505Y-97938598D01*
X155435965Y-98132170D01*
X155336097Y-98346336D01*
X155274936Y-98574592D01*
X155254340Y-98810000D01*
X155274936Y-99045407D01*
X155319709Y-99212502D01*
X155336097Y-99273663D01*
X155435965Y-99487830D01*
X155571505Y-99681401D01*
X155738599Y-99848495D01*
X155924160Y-99978426D01*
X155967783Y-100033002D01*
X155974976Y-100102501D01*
X155943454Y-100164855D01*
X155924159Y-100181575D01*
X155738595Y-100311508D01*
X155571505Y-100478598D01*
X155435965Y-100672170D01*
X155336097Y-100886336D01*
X155274936Y-101114592D01*
X155254340Y-101350000D01*
X155274936Y-101585407D01*
X155299661Y-101677681D01*
X155336097Y-101813663D01*
X155435965Y-102027830D01*
X155571505Y-102221401D01*
X155738599Y-102388495D01*
X155924596Y-102518732D01*
X155968219Y-102573307D01*
X155975412Y-102642806D01*
X155943890Y-102705160D01*
X155924595Y-102721880D01*
X155738919Y-102851892D01*
X155571890Y-103018921D01*
X155436400Y-103212421D01*
X155336569Y-103426507D01*
X155279364Y-103639999D01*
X155279364Y-103640000D01*
X156176314Y-103640000D01*
X156150507Y-103680156D01*
X156110000Y-103818111D01*
X156110000Y-103961889D01*
X156150507Y-104099844D01*
X156176314Y-104140000D01*
X155279364Y-104140000D01*
X155336569Y-104353492D01*
X155436399Y-104567576D01*
X155571893Y-104761081D01*
X155738918Y-104928106D01*
X155924595Y-105058119D01*
X155968219Y-105112696D01*
X155975412Y-105182195D01*
X155943890Y-105244549D01*
X155924595Y-105261269D01*
X155738595Y-105391508D01*
X155571505Y-105558598D01*
X155435965Y-105752170D01*
X155336097Y-105966336D01*
X155274936Y-106194592D01*
X155254340Y-106429999D01*
X154490500Y-106429999D01*
X154490500Y-87607101D01*
X154495074Y-87591522D01*
X154491097Y-87551142D01*
X154490500Y-87538987D01*
X154490500Y-87453342D01*
X154485855Y-87426998D01*
X154479651Y-87391813D01*
X154480984Y-87379854D01*
X154474924Y-87359874D01*
X154471469Y-87345410D01*
X154462606Y-87295145D01*
X154460405Y-87282660D01*
X154432768Y-87206731D01*
X154431927Y-87193485D01*
X154423603Y-87177912D01*
X154416443Y-87161877D01*
X154401127Y-87119797D01*
X154398678Y-87115556D01*
X154353325Y-87037001D01*
X154349794Y-87022448D01*
X154339811Y-87010284D01*
X154328281Y-86993624D01*
X154314470Y-86969702D01*
X154314468Y-86969700D01*
X154311800Y-86965078D01*
X154302451Y-86951249D01*
X154300455Y-86947516D01*
X154281739Y-86930695D01*
X154277244Y-86925338D01*
X154244239Y-86886004D01*
X154237570Y-86870766D01*
X154226837Y-86861958D01*
X154210512Y-86845810D01*
X154203064Y-86836933D01*
X154194187Y-86829485D01*
X154178040Y-86813161D01*
X154173744Y-86807927D01*
X154153992Y-86795758D01*
X154144540Y-86787827D01*
X154109303Y-86758259D01*
X154099262Y-86743167D01*
X154088749Y-86737548D01*
X154074925Y-86728201D01*
X154062968Y-86721298D01*
X154046381Y-86711721D01*
X154029720Y-86700190D01*
X154022551Y-86694307D01*
X154002997Y-86686674D01*
X153920205Y-86638874D01*
X153920204Y-86638873D01*
X153920203Y-86638873D01*
X153878126Y-86623558D01*
X153862092Y-86616398D01*
X153851621Y-86610801D01*
X153833266Y-86607230D01*
X153810632Y-86598992D01*
X153757340Y-86579595D01*
X153739350Y-86576423D01*
X153694588Y-86568530D01*
X153680128Y-86565075D01*
X153665232Y-86560556D01*
X153648183Y-86560348D01*
X153586659Y-86549500D01*
X153586658Y-86549500D01*
X153501021Y-86549500D01*
X153488866Y-86548903D01*
X153455585Y-86545624D01*
X153432848Y-86549471D01*
X152743791Y-86549184D01*
X129567051Y-86539527D01*
X129551433Y-86534934D01*
X129511137Y-86538903D01*
X129498983Y-86539500D01*
X129412466Y-86539500D01*
X129349352Y-86550628D01*
X129337550Y-86549311D01*
X129317927Y-86555264D01*
X129303466Y-86558719D01*
X129240062Y-86569899D01*
X129162407Y-86598163D01*
X129149355Y-86598992D01*
X129134129Y-86607131D01*
X129118089Y-86614293D01*
X129075556Y-86629774D01*
X128991024Y-86678579D01*
X128976686Y-86682057D01*
X128964817Y-86691798D01*
X128948156Y-86703329D01*
X128919415Y-86719922D01*
X128905444Y-86729368D01*
X128901921Y-86731250D01*
X128885338Y-86749702D01*
X128838605Y-86788915D01*
X128823589Y-86795486D01*
X128815015Y-86805934D01*
X128798873Y-86822254D01*
X128789836Y-86829836D01*
X128782254Y-86838873D01*
X128765934Y-86855015D01*
X128760905Y-86859142D01*
X128748915Y-86878605D01*
X128709702Y-86925338D01*
X128694824Y-86935236D01*
X128689368Y-86945444D01*
X128679922Y-86959415D01*
X128663329Y-86988156D01*
X128651798Y-87004817D01*
X128646096Y-87011764D01*
X128638579Y-87031024D01*
X128589774Y-87115556D01*
X128574293Y-87158089D01*
X128567131Y-87174129D01*
X128561680Y-87184325D01*
X128558163Y-87202407D01*
X128529899Y-87280062D01*
X128518719Y-87343466D01*
X128515264Y-87357927D01*
X128510831Y-87372540D01*
X128510628Y-87389352D01*
X128499500Y-87452465D01*
X128499500Y-87538982D01*
X128498903Y-87551136D01*
X128495636Y-87584303D01*
X128499499Y-87607101D01*
X128499499Y-107994583D01*
X128499027Y-108005390D01*
X128495523Y-108045442D01*
X128483082Y-108171764D01*
X128479455Y-108191696D01*
X128462123Y-108256382D01*
X128461008Y-108260285D01*
X128433319Y-108351562D01*
X128427041Y-108367971D01*
X128396328Y-108433835D01*
X128393304Y-108439884D01*
X128350990Y-108519046D01*
X128343207Y-108531715D01*
X128300373Y-108592889D01*
X128294652Y-108600430D01*
X128238826Y-108668455D01*
X128230653Y-108677472D01*
X128177472Y-108730653D01*
X128168455Y-108738826D01*
X128100430Y-108794652D01*
X128092889Y-108800373D01*
X128031715Y-108843207D01*
X128019046Y-108850990D01*
X127939884Y-108893304D01*
X127933835Y-108896328D01*
X127867971Y-108927041D01*
X127851562Y-108933319D01*
X127760285Y-108961008D01*
X127756382Y-108962123D01*
X127691700Y-108979454D01*
X127671761Y-108983082D01*
X127545445Y-108995523D01*
X127526131Y-108997213D01*
X127505360Y-108999031D01*
X127494594Y-108999500D01*
X108925416Y-108999500D01*
X108914606Y-108999028D01*
X108874554Y-108995523D01*
X108748234Y-108983082D01*
X108728302Y-108979455D01*
X108663616Y-108962123D01*
X108659713Y-108961008D01*
X108568436Y-108933319D01*
X108552027Y-108927041D01*
X108486163Y-108896328D01*
X108480114Y-108893304D01*
X108400952Y-108850990D01*
X108388283Y-108843207D01*
X108327109Y-108800373D01*
X108319568Y-108794652D01*
X108251543Y-108738826D01*
X108242526Y-108730653D01*
X108189345Y-108677472D01*
X108181172Y-108668455D01*
X108125346Y-108600430D01*
X108119625Y-108592889D01*
X108076791Y-108531715D01*
X108069008Y-108519046D01*
X108049548Y-108482639D01*
X108026685Y-108439867D01*
X108023686Y-108433867D01*
X107992952Y-108367959D01*
X107986682Y-108351570D01*
X107958966Y-108260203D01*
X107957899Y-108256467D01*
X107940541Y-108191685D01*
X107936918Y-108171773D01*
X107924476Y-108045442D01*
X107923598Y-108035415D01*
X107920968Y-108005360D01*
X107920500Y-107994597D01*
X107920500Y-105090000D01*
X112374722Y-105090000D01*
X112393792Y-105307974D01*
X112443266Y-105492615D01*
X112450425Y-105519330D01*
X112542898Y-105717639D01*
X112668402Y-105896877D01*
X112823123Y-106051598D01*
X113002361Y-106177102D01*
X113200670Y-106269575D01*
X113412023Y-106326207D01*
X113545518Y-106337886D01*
X113629999Y-106345277D01*
X113629999Y-106345276D01*
X113630000Y-106345277D01*
X113847977Y-106326207D01*
X114059330Y-106269575D01*
X114257639Y-106177102D01*
X114436877Y-106051598D01*
X114591598Y-105896877D01*
X114717102Y-105717639D01*
X114809575Y-105519330D01*
X114866207Y-105307977D01*
X114885277Y-105090000D01*
X114866207Y-104872023D01*
X114809575Y-104660670D01*
X114717102Y-104462362D01*
X114591598Y-104283123D01*
X114436877Y-104128402D01*
X114257639Y-104002898D01*
X114149306Y-103952381D01*
X114096868Y-103906210D01*
X114077716Y-103839016D01*
X114097932Y-103772135D01*
X114149307Y-103727618D01*
X114257639Y-103677102D01*
X114436877Y-103551598D01*
X114591598Y-103396877D01*
X114594050Y-103393374D01*
X114648629Y-103349750D01*
X114695624Y-103340500D01*
X117586294Y-103340500D01*
X117604264Y-103341809D01*
X117608320Y-103342402D01*
X117628023Y-103345289D01*
X117677368Y-103340972D01*
X117688176Y-103340500D01*
X117690100Y-103340500D01*
X117693709Y-103340500D01*
X117724550Y-103336894D01*
X117728031Y-103336539D01*
X117802797Y-103329999D01*
X117802797Y-103329998D01*
X117804052Y-103329889D01*
X117823062Y-103325674D01*
X117824250Y-103325241D01*
X117824255Y-103325241D01*
X117894820Y-103299557D01*
X117898095Y-103298419D01*
X117969334Y-103274814D01*
X117969336Y-103274812D01*
X117970536Y-103274415D01*
X117988063Y-103265929D01*
X117989112Y-103265238D01*
X117989117Y-103265237D01*
X118051806Y-103224005D01*
X118054798Y-103222099D01*
X118118656Y-103182712D01*
X118118656Y-103182711D01*
X118119729Y-103182050D01*
X118134824Y-103169753D01*
X118135692Y-103168832D01*
X118135696Y-103168830D01*
X118187184Y-103114254D01*
X118189629Y-103111737D01*
X119234548Y-102066819D01*
X119295872Y-102033334D01*
X119322230Y-102030500D01*
X125173285Y-102030500D01*
X125240324Y-102050185D01*
X125274859Y-102083376D01*
X125371505Y-102221401D01*
X125538599Y-102388495D01*
X125724596Y-102518732D01*
X125768219Y-102573307D01*
X125775412Y-102642806D01*
X125743890Y-102705160D01*
X125724595Y-102721880D01*
X125538919Y-102851892D01*
X125371890Y-103018921D01*
X125236400Y-103212421D01*
X125136569Y-103426507D01*
X125079364Y-103639999D01*
X125079364Y-103640000D01*
X125976314Y-103640000D01*
X125950507Y-103680156D01*
X125910000Y-103818111D01*
X125910000Y-103961889D01*
X125950507Y-104099844D01*
X125976314Y-104140000D01*
X125079364Y-104140000D01*
X125136569Y-104353492D01*
X125236399Y-104567576D01*
X125371893Y-104761081D01*
X125538918Y-104928106D01*
X125724595Y-105058119D01*
X125768219Y-105112696D01*
X125775412Y-105182195D01*
X125743890Y-105244549D01*
X125724595Y-105261269D01*
X125538595Y-105391508D01*
X125371505Y-105558598D01*
X125235965Y-105752170D01*
X125136097Y-105966336D01*
X125074936Y-106194592D01*
X125054340Y-106430000D01*
X125074936Y-106665407D01*
X125113565Y-106809571D01*
X125136097Y-106893663D01*
X125235965Y-107107830D01*
X125371505Y-107301401D01*
X125538599Y-107468495D01*
X125732170Y-107604035D01*
X125946337Y-107703903D01*
X126174592Y-107765063D01*
X126410000Y-107785659D01*
X126645408Y-107765063D01*
X126873663Y-107703903D01*
X127087830Y-107604035D01*
X127281401Y-107468495D01*
X127448495Y-107301401D01*
X127584035Y-107107830D01*
X127683903Y-106893663D01*
X127745063Y-106665408D01*
X127765659Y-106430000D01*
X127745063Y-106194592D01*
X127683903Y-105966337D01*
X127584035Y-105752171D01*
X127448495Y-105558599D01*
X127281401Y-105391505D01*
X127095402Y-105261267D01*
X127051780Y-105206692D01*
X127044587Y-105137193D01*
X127076109Y-105074839D01*
X127095405Y-105058119D01*
X127281078Y-104928109D01*
X127448106Y-104761081D01*
X127583600Y-104567576D01*
X127683430Y-104353492D01*
X127740636Y-104140000D01*
X126843686Y-104140000D01*
X126869493Y-104099844D01*
X126910000Y-103961889D01*
X126910000Y-103818111D01*
X126869493Y-103680156D01*
X126843686Y-103640000D01*
X127740636Y-103640000D01*
X127740635Y-103639999D01*
X127683430Y-103426507D01*
X127583599Y-103212421D01*
X127448109Y-103018921D01*
X127281081Y-102851893D01*
X127095404Y-102721880D01*
X127051780Y-102667303D01*
X127044587Y-102597804D01*
X127076109Y-102535450D01*
X127095399Y-102518734D01*
X127281401Y-102388495D01*
X127448495Y-102221401D01*
X127584035Y-102027830D01*
X127683903Y-101813663D01*
X127745063Y-101585408D01*
X127765659Y-101350000D01*
X127745063Y-101114592D01*
X127683903Y-100886337D01*
X127584035Y-100672171D01*
X127448495Y-100478599D01*
X127281401Y-100311505D01*
X127095839Y-100181573D01*
X127052216Y-100126998D01*
X127045022Y-100057500D01*
X127076545Y-99995145D01*
X127095837Y-99978428D01*
X127281401Y-99848495D01*
X127448495Y-99681401D01*
X127584035Y-99487830D01*
X127683903Y-99273663D01*
X127745063Y-99045408D01*
X127765659Y-98810000D01*
X127745063Y-98574592D01*
X127683903Y-98346337D01*
X127584035Y-98132171D01*
X127448495Y-97938599D01*
X127281401Y-97771505D01*
X127095839Y-97641573D01*
X127052216Y-97586998D01*
X127045022Y-97517500D01*
X127076545Y-97455145D01*
X127095837Y-97438428D01*
X127281401Y-97308495D01*
X127448495Y-97141401D01*
X127584035Y-96947830D01*
X127683903Y-96733663D01*
X127745063Y-96505408D01*
X127765659Y-96270000D01*
X127745063Y-96034592D01*
X127683903Y-95806337D01*
X127584035Y-95592171D01*
X127448495Y-95398599D01*
X127281401Y-95231505D01*
X127095839Y-95101573D01*
X127052216Y-95046998D01*
X127045022Y-94977500D01*
X127076545Y-94915145D01*
X127095837Y-94898428D01*
X127281401Y-94768495D01*
X127448495Y-94601401D01*
X127584035Y-94407830D01*
X127683903Y-94193663D01*
X127745063Y-93965408D01*
X127765659Y-93730000D01*
X127745063Y-93494592D01*
X127683903Y-93266337D01*
X127584035Y-93052171D01*
X127448495Y-92858599D01*
X127281401Y-92691505D01*
X127095839Y-92561573D01*
X127052216Y-92506998D01*
X127045022Y-92437500D01*
X127076545Y-92375145D01*
X127095837Y-92358428D01*
X127281401Y-92228495D01*
X127448495Y-92061401D01*
X127584035Y-91867830D01*
X127683903Y-91653663D01*
X127745063Y-91425408D01*
X127765659Y-91190000D01*
X127748219Y-90990670D01*
X127745063Y-90954592D01*
X127718292Y-90854680D01*
X127683903Y-90726337D01*
X127584035Y-90512171D01*
X127448495Y-90318599D01*
X127281401Y-90151505D01*
X127095839Y-90021573D01*
X127052216Y-89966998D01*
X127045022Y-89897500D01*
X127076545Y-89835145D01*
X127095837Y-89818428D01*
X127281401Y-89688495D01*
X127448495Y-89521401D01*
X127584035Y-89327830D01*
X127683903Y-89113663D01*
X127745063Y-88885408D01*
X127765659Y-88650000D01*
X127745063Y-88414592D01*
X127683903Y-88186337D01*
X127584035Y-87972171D01*
X127448495Y-87778599D01*
X127281401Y-87611505D01*
X127095839Y-87481573D01*
X127052216Y-87426998D01*
X127045022Y-87357500D01*
X127076545Y-87295145D01*
X127095837Y-87278428D01*
X127281401Y-87148495D01*
X127448495Y-86981401D01*
X127584035Y-86787830D01*
X127683903Y-86573663D01*
X127745063Y-86345408D01*
X127765659Y-86110000D01*
X127755828Y-85997639D01*
X127745063Y-85874592D01*
X127738820Y-85851294D01*
X127683903Y-85646337D01*
X127584035Y-85432171D01*
X127448495Y-85238599D01*
X127326568Y-85116673D01*
X127293084Y-85055350D01*
X127298068Y-84985658D01*
X127339940Y-84929725D01*
X127370915Y-84912810D01*
X127502331Y-84863796D01*
X127617546Y-84777546D01*
X127703796Y-84662331D01*
X127754091Y-84527483D01*
X127760500Y-84467873D01*
X127760499Y-82672128D01*
X127754091Y-82612517D01*
X127703796Y-82477669D01*
X127617546Y-82362454D01*
X127502331Y-82276204D01*
X127367483Y-82225909D01*
X127307873Y-82219500D01*
X127304550Y-82219500D01*
X125515439Y-82219500D01*
X125515420Y-82219500D01*
X125512128Y-82219501D01*
X125508848Y-82219853D01*
X125508840Y-82219854D01*
X125452515Y-82225909D01*
X125317669Y-82276204D01*
X125202454Y-82362454D01*
X125116204Y-82477668D01*
X125065910Y-82612515D01*
X125065909Y-82612517D01*
X125059500Y-82672127D01*
X125059500Y-82675448D01*
X125059500Y-82675449D01*
X125059500Y-84464560D01*
X125059500Y-84464578D01*
X125059501Y-84467872D01*
X125059853Y-84471152D01*
X125059854Y-84471159D01*
X125065909Y-84527484D01*
X125091056Y-84594906D01*
X125116204Y-84662331D01*
X125202454Y-84777546D01*
X125317669Y-84863796D01*
X125429907Y-84905658D01*
X125449082Y-84912810D01*
X125505016Y-84954681D01*
X125529433Y-85020146D01*
X125514581Y-85088419D01*
X125493431Y-85116673D01*
X125371503Y-85238601D01*
X125235965Y-85432170D01*
X125136097Y-85646336D01*
X125074936Y-85874592D01*
X125054340Y-86109999D01*
X125074936Y-86345407D01*
X125119709Y-86512501D01*
X125136097Y-86573663D01*
X125235965Y-86787830D01*
X125371505Y-86981401D01*
X125538599Y-87148495D01*
X125724160Y-87278426D01*
X125767783Y-87333002D01*
X125774976Y-87402501D01*
X125743454Y-87464855D01*
X125724158Y-87481575D01*
X125550272Y-87603332D01*
X125538595Y-87611508D01*
X125363833Y-87786270D01*
X125362494Y-87784931D01*
X125318312Y-87820248D01*
X125271313Y-87829500D01*
X124012230Y-87829500D01*
X123945191Y-87809815D01*
X123924549Y-87793181D01*
X118076819Y-81945451D01*
X118043334Y-81884128D01*
X118040500Y-81857770D01*
X118040500Y-78489330D01*
X118040500Y-75053691D01*
X118041809Y-75035732D01*
X118045289Y-75011977D01*
X118040971Y-74962633D01*
X118040500Y-74951827D01*
X118040500Y-74949901D01*
X118040500Y-74946291D01*
X118036894Y-74915443D01*
X118036537Y-74911956D01*
X118029998Y-74837203D01*
X118029888Y-74835943D01*
X118025674Y-74816935D01*
X118015803Y-74789815D01*
X117999567Y-74745207D01*
X117998399Y-74741844D01*
X117997152Y-74738080D01*
X117974814Y-74670666D01*
X117974811Y-74670662D01*
X117974416Y-74669468D01*
X117965929Y-74651936D01*
X117965237Y-74650884D01*
X117965237Y-74650883D01*
X117923999Y-74588184D01*
X117922087Y-74585181D01*
X117882050Y-74520270D01*
X117869750Y-74505172D01*
X117814290Y-74452848D01*
X117811703Y-74450335D01*
X115935728Y-72574360D01*
X115923946Y-72560727D01*
X115909609Y-72541469D01*
X115871666Y-72509631D01*
X115863691Y-72502323D01*
X115862329Y-72500961D01*
X115859777Y-72498409D01*
X115835444Y-72479169D01*
X115832647Y-72476890D01*
X115774251Y-72427890D01*
X115757821Y-72417422D01*
X115688691Y-72385186D01*
X115685447Y-72383615D01*
X115617306Y-72349394D01*
X115598903Y-72342997D01*
X115597673Y-72342743D01*
X115524206Y-72327572D01*
X115520692Y-72326794D01*
X115446490Y-72309208D01*
X115427121Y-72307229D01*
X115350869Y-72309448D01*
X115347263Y-72309500D01*
X114775624Y-72309500D01*
X114708585Y-72289815D01*
X114674047Y-72256621D01*
X114671595Y-72253119D01*
X114516880Y-72098405D01*
X114516877Y-72098402D01*
X114337639Y-71972898D01*
X114243991Y-71929229D01*
X114228714Y-71922105D01*
X114176275Y-71875932D01*
X114157123Y-71808739D01*
X114177339Y-71741858D01*
X114228715Y-71697340D01*
X114337388Y-71646665D01*
X114399572Y-71603124D01*
X113842534Y-71046086D01*
X113852315Y-71044680D01*
X113983100Y-70984952D01*
X114091761Y-70890798D01*
X114169493Y-70769844D01*
X114193076Y-70689524D01*
X114753124Y-71249572D01*
X114796667Y-71187385D01*
X114889102Y-70989159D01*
X114945712Y-70777886D01*
X114964775Y-70560000D01*
X114945712Y-70342113D01*
X114889102Y-70130840D01*
X114796667Y-69932615D01*
X114753123Y-69870428D01*
X114193076Y-70430475D01*
X114169493Y-70350156D01*
X114091761Y-70229202D01*
X113983100Y-70135048D01*
X113852315Y-70075320D01*
X113842534Y-70073913D01*
X114399572Y-69516875D01*
X114399571Y-69516873D01*
X114337386Y-69473331D01*
X114139161Y-69380898D01*
X113927886Y-69324287D01*
X113710000Y-69305224D01*
X113492113Y-69324287D01*
X113280840Y-69380897D01*
X113082611Y-69473333D01*
X113020428Y-69516874D01*
X113020427Y-69516875D01*
X113577466Y-70073913D01*
X113567685Y-70075320D01*
X113436900Y-70135048D01*
X113328239Y-70229202D01*
X113250507Y-70350156D01*
X113226923Y-70430475D01*
X112666875Y-69870427D01*
X112666874Y-69870428D01*
X112623333Y-69932611D01*
X112530897Y-70130840D01*
X112474287Y-70342113D01*
X112455224Y-70560000D01*
X112474287Y-70777886D01*
X112530898Y-70989161D01*
X112623331Y-71187386D01*
X112666873Y-71249571D01*
X112666875Y-71249572D01*
X113226923Y-70689523D01*
X113250507Y-70769844D01*
X113328239Y-70890798D01*
X113436900Y-70984952D01*
X113567685Y-71044680D01*
X113577466Y-71046086D01*
X113020426Y-71603124D01*
X113020427Y-71603125D01*
X113082612Y-71646667D01*
X113191284Y-71697341D01*
X113243724Y-71743513D01*
X113262876Y-71810706D01*
X113242661Y-71877587D01*
X113191286Y-71922105D01*
X113082359Y-71972899D01*
X112903122Y-72098402D01*
X112748402Y-72253122D01*
X112622898Y-72432361D01*
X112530425Y-72630668D01*
X112473792Y-72842025D01*
X112454722Y-73060000D01*
X112473792Y-73277974D01*
X112530425Y-73489331D01*
X112580261Y-73596205D01*
X112622898Y-73687639D01*
X112748402Y-73866877D01*
X112903123Y-74021598D01*
X113082361Y-74147102D01*
X113190693Y-74197618D01*
X113243132Y-74243790D01*
X113262284Y-74310984D01*
X113242068Y-74377865D01*
X113190693Y-74422382D01*
X113082361Y-74472898D01*
X112903122Y-74598402D01*
X112748402Y-74753122D01*
X112622898Y-74932361D01*
X112530425Y-75130668D01*
X112473792Y-75342025D01*
X112454722Y-75560000D01*
X112473792Y-75777974D01*
X112485135Y-75820308D01*
X112530425Y-75989330D01*
X112622898Y-76187639D01*
X112748402Y-76366877D01*
X112903123Y-76521598D01*
X113082361Y-76647102D01*
X113190693Y-76697618D01*
X113243132Y-76743790D01*
X113262284Y-76810984D01*
X113242068Y-76877865D01*
X113190693Y-76922382D01*
X113082361Y-76972898D01*
X112903122Y-77098402D01*
X112748402Y-77253122D01*
X112622898Y-77432361D01*
X112530425Y-77630668D01*
X112473792Y-77842025D01*
X112454722Y-78059999D01*
X112473792Y-78277974D01*
X112473793Y-78277977D01*
X112530425Y-78489330D01*
X112622898Y-78687639D01*
X112748402Y-78866877D01*
X112903123Y-79021598D01*
X113082361Y-79147102D01*
X113280670Y-79239575D01*
X113492023Y-79296207D01*
X113637340Y-79308920D01*
X113709999Y-79315277D01*
X113709999Y-79315276D01*
X113710000Y-79315277D01*
X113927977Y-79296207D01*
X114139330Y-79239575D01*
X114337639Y-79147102D01*
X114516877Y-79021598D01*
X114671598Y-78866877D01*
X114797102Y-78687639D01*
X114889575Y-78489330D01*
X114946207Y-78277977D01*
X114965277Y-78060000D01*
X114963299Y-78037396D01*
X114946528Y-77845696D01*
X114946207Y-77842023D01*
X114889575Y-77630670D01*
X114797102Y-77432362D01*
X114671598Y-77253123D01*
X114516877Y-77098402D01*
X114337639Y-76972898D01*
X114229306Y-76922381D01*
X114176868Y-76876210D01*
X114157716Y-76809016D01*
X114177932Y-76742135D01*
X114229307Y-76697618D01*
X114337639Y-76647102D01*
X114516877Y-76521598D01*
X114671598Y-76366877D01*
X114674050Y-76363374D01*
X114728629Y-76319750D01*
X114775624Y-76310500D01*
X114897770Y-76310500D01*
X114964809Y-76330185D01*
X114985451Y-76346819D01*
X115473181Y-76834548D01*
X115506666Y-76895871D01*
X115509500Y-76922229D01*
X115509500Y-82935538D01*
X115508191Y-82953508D01*
X115504711Y-82977267D01*
X115509028Y-83026612D01*
X115509500Y-83037419D01*
X115509500Y-83042953D01*
X115509916Y-83046516D01*
X115509917Y-83046526D01*
X115513098Y-83073740D01*
X115513464Y-83077326D01*
X115520109Y-83153285D01*
X115524329Y-83172315D01*
X115524758Y-83173495D01*
X115524759Y-83173499D01*
X115550413Y-83243986D01*
X115551582Y-83247351D01*
X115575580Y-83319768D01*
X115584075Y-83337316D01*
X115625979Y-83401028D01*
X115627889Y-83404026D01*
X115667288Y-83467900D01*
X115667952Y-83468976D01*
X115680253Y-83484074D01*
X115681168Y-83484937D01*
X115681170Y-83484940D01*
X115735709Y-83536395D01*
X115738296Y-83538908D01*
X123805023Y-91605634D01*
X123816804Y-91619266D01*
X123831145Y-91638529D01*
X123869095Y-91670373D01*
X123877070Y-91677681D01*
X123880979Y-91681590D01*
X123883811Y-91683829D01*
X123883821Y-91683838D01*
X123905298Y-91700819D01*
X123908054Y-91703063D01*
X123965542Y-91751302D01*
X123965544Y-91751303D01*
X123966513Y-91752116D01*
X123982933Y-91762576D01*
X123984077Y-91763109D01*
X123984079Y-91763111D01*
X124052113Y-91794835D01*
X124055212Y-91796335D01*
X124122323Y-91830040D01*
X124123460Y-91830611D01*
X124141840Y-91836998D01*
X124143077Y-91837253D01*
X124143083Y-91837256D01*
X124216618Y-91852439D01*
X124219965Y-91853181D01*
X124293035Y-91870500D01*
X124293037Y-91870500D01*
X124294261Y-91870790D01*
X124313632Y-91872769D01*
X124314896Y-91872732D01*
X124314900Y-91872733D01*
X124389866Y-91870552D01*
X124393472Y-91870500D01*
X125173285Y-91870500D01*
X125240324Y-91890185D01*
X125274859Y-91923376D01*
X125371505Y-92061401D01*
X125538599Y-92228495D01*
X125724160Y-92358426D01*
X125767783Y-92413002D01*
X125774976Y-92482501D01*
X125743454Y-92544855D01*
X125724158Y-92561575D01*
X125594986Y-92652023D01*
X125538595Y-92691508D01*
X125363833Y-92866270D01*
X125362494Y-92864931D01*
X125318312Y-92900248D01*
X125271313Y-92909500D01*
X122742230Y-92909500D01*
X122675191Y-92889815D01*
X122654549Y-92873181D01*
X115715728Y-85934360D01*
X115703946Y-85920727D01*
X115689609Y-85901469D01*
X115651666Y-85869631D01*
X115643691Y-85862323D01*
X115642329Y-85860961D01*
X115639777Y-85858409D01*
X115615444Y-85839169D01*
X115612647Y-85836890D01*
X115554251Y-85787890D01*
X115537821Y-85777422D01*
X115468691Y-85745186D01*
X115465447Y-85743615D01*
X115397306Y-85709394D01*
X115378903Y-85702997D01*
X115304211Y-85687574D01*
X115300692Y-85686794D01*
X115226490Y-85669208D01*
X115207121Y-85667229D01*
X115130869Y-85669448D01*
X115127263Y-85669500D01*
X114735624Y-85669500D01*
X114668585Y-85649815D01*
X114634047Y-85616621D01*
X114633649Y-85616053D01*
X114631598Y-85613123D01*
X114631597Y-85613122D01*
X114631595Y-85613119D01*
X114476880Y-85458405D01*
X114476877Y-85458402D01*
X114297639Y-85332898D01*
X114245921Y-85308781D01*
X114188714Y-85282105D01*
X114136275Y-85235932D01*
X114117123Y-85168739D01*
X114137339Y-85101858D01*
X114188715Y-85057340D01*
X114297388Y-85006665D01*
X114359572Y-84963124D01*
X113802534Y-84406086D01*
X113812315Y-84404680D01*
X113943100Y-84344952D01*
X114051761Y-84250798D01*
X114129493Y-84129844D01*
X114153076Y-84049524D01*
X114713124Y-84609572D01*
X114756667Y-84547385D01*
X114849102Y-84349159D01*
X114905712Y-84137886D01*
X114924775Y-83920000D01*
X114905712Y-83702113D01*
X114849102Y-83490840D01*
X114756667Y-83292615D01*
X114713123Y-83230428D01*
X114153076Y-83790475D01*
X114129493Y-83710156D01*
X114051761Y-83589202D01*
X113943100Y-83495048D01*
X113812315Y-83435320D01*
X113802534Y-83433913D01*
X114359572Y-82876875D01*
X114359571Y-82876873D01*
X114297386Y-82833331D01*
X114099161Y-82740898D01*
X113887886Y-82684287D01*
X113670000Y-82665224D01*
X113452113Y-82684287D01*
X113240840Y-82740897D01*
X113042611Y-82833333D01*
X112980428Y-82876874D01*
X112980427Y-82876875D01*
X113537466Y-83433913D01*
X113527685Y-83435320D01*
X113396900Y-83495048D01*
X113288239Y-83589202D01*
X113210507Y-83710156D01*
X113186923Y-83790475D01*
X112626875Y-83230427D01*
X112626874Y-83230428D01*
X112583333Y-83292611D01*
X112490897Y-83490840D01*
X112434287Y-83702113D01*
X112415224Y-83920000D01*
X112434287Y-84137886D01*
X112490898Y-84349161D01*
X112583331Y-84547386D01*
X112626873Y-84609571D01*
X112626875Y-84609572D01*
X113186923Y-84049523D01*
X113210507Y-84129844D01*
X113288239Y-84250798D01*
X113396900Y-84344952D01*
X113527685Y-84404680D01*
X113537466Y-84406086D01*
X112980426Y-84963124D01*
X112980427Y-84963125D01*
X113042612Y-85006667D01*
X113151284Y-85057341D01*
X113203724Y-85103513D01*
X113222876Y-85170706D01*
X113202661Y-85237587D01*
X113151286Y-85282105D01*
X113042359Y-85332899D01*
X112863122Y-85458402D01*
X112708402Y-85613122D01*
X112582898Y-85792361D01*
X112490425Y-85990668D01*
X112433792Y-86202025D01*
X112414722Y-86420000D01*
X112433792Y-86637974D01*
X112490425Y-86849331D01*
X112504076Y-86878605D01*
X112582898Y-87047639D01*
X112708402Y-87226877D01*
X112863123Y-87381598D01*
X113042361Y-87507102D01*
X113136805Y-87551142D01*
X113150693Y-87557618D01*
X113203132Y-87603790D01*
X113222284Y-87670984D01*
X113202068Y-87737865D01*
X113150693Y-87782382D01*
X113042361Y-87832898D01*
X112863122Y-87958402D01*
X112708402Y-88113122D01*
X112582898Y-88292361D01*
X112490425Y-88490668D01*
X112433792Y-88702025D01*
X112414722Y-88920000D01*
X112433792Y-89137974D01*
X112490425Y-89349331D01*
X112540261Y-89456205D01*
X112582898Y-89547639D01*
X112708402Y-89726877D01*
X112863123Y-89881598D01*
X113042361Y-90007102D01*
X113111200Y-90039202D01*
X113150693Y-90057618D01*
X113203132Y-90103790D01*
X113222284Y-90170984D01*
X113202068Y-90237865D01*
X113150693Y-90282382D01*
X113042361Y-90332898D01*
X112863122Y-90458402D01*
X112708402Y-90613122D01*
X112582898Y-90792361D01*
X112490425Y-90990668D01*
X112433792Y-91202025D01*
X112414722Y-91419999D01*
X112433792Y-91637974D01*
X112490425Y-91849331D01*
X112509476Y-91890185D01*
X112582898Y-92047639D01*
X112708402Y-92226877D01*
X112863123Y-92381598D01*
X113042361Y-92507102D01*
X113240670Y-92599575D01*
X113452023Y-92656207D01*
X113670000Y-92675277D01*
X113887977Y-92656207D01*
X114099330Y-92599575D01*
X114297639Y-92507102D01*
X114476877Y-92381598D01*
X114631598Y-92226877D01*
X114757102Y-92047639D01*
X114849575Y-91849330D01*
X114906207Y-91637977D01*
X114925277Y-91420000D01*
X114924675Y-91413124D01*
X114906207Y-91202025D01*
X114906207Y-91202023D01*
X114849575Y-90990670D01*
X114757102Y-90792362D01*
X114631598Y-90613123D01*
X114476877Y-90458402D01*
X114297639Y-90332898D01*
X114189306Y-90282381D01*
X114136868Y-90236210D01*
X114117716Y-90169016D01*
X114137932Y-90102135D01*
X114189307Y-90057618D01*
X114297639Y-90007102D01*
X114476877Y-89881598D01*
X114631598Y-89726877D01*
X114634050Y-89723374D01*
X114688629Y-89679750D01*
X114735624Y-89670500D01*
X115067770Y-89670500D01*
X115134809Y-89690185D01*
X115155451Y-89706819D01*
X122134269Y-96685637D01*
X122146051Y-96699270D01*
X122160390Y-96718531D01*
X122198338Y-96750373D01*
X122206313Y-96757681D01*
X122210223Y-96761591D01*
X122234556Y-96780830D01*
X122237335Y-96783095D01*
X122295752Y-96832113D01*
X122312179Y-96842578D01*
X122381320Y-96874819D01*
X122384567Y-96876391D01*
X122452699Y-96910609D01*
X122471087Y-96917000D01*
X122472323Y-96917255D01*
X122472327Y-96917257D01*
X122545856Y-96932438D01*
X122549290Y-96933200D01*
X122595416Y-96944133D01*
X122623506Y-96950791D01*
X122642879Y-96952770D01*
X122644141Y-96952733D01*
X122644145Y-96952734D01*
X122716534Y-96950627D01*
X122719132Y-96950552D01*
X122722738Y-96950500D01*
X125173285Y-96950500D01*
X125240324Y-96970185D01*
X125274859Y-97003376D01*
X125371505Y-97141401D01*
X125538599Y-97308495D01*
X125724160Y-97438426D01*
X125767783Y-97493002D01*
X125774976Y-97562501D01*
X125743454Y-97624855D01*
X125724159Y-97641575D01*
X125538595Y-97771508D01*
X125371505Y-97938598D01*
X125344880Y-97976623D01*
X125290304Y-98020248D01*
X125243305Y-98029500D01*
X119923706Y-98029500D01*
X119905736Y-98028191D01*
X119891853Y-98026157D01*
X119881977Y-98024711D01*
X119881976Y-98024711D01*
X119832631Y-98029028D01*
X119821824Y-98029500D01*
X119816291Y-98029500D01*
X119812730Y-98029916D01*
X119812715Y-98029917D01*
X119785501Y-98033098D01*
X119781916Y-98033464D01*
X119705961Y-98040109D01*
X119686921Y-98044330D01*
X119615232Y-98070421D01*
X119611831Y-98071603D01*
X119539474Y-98095580D01*
X119521927Y-98104075D01*
X119458221Y-98145975D01*
X119455181Y-98147912D01*
X119390280Y-98187944D01*
X119375165Y-98200256D01*
X119322832Y-98255725D01*
X119320320Y-98258311D01*
X118275451Y-99303181D01*
X118214128Y-99336666D01*
X118187770Y-99339500D01*
X114695624Y-99339500D01*
X114628585Y-99319815D01*
X114594047Y-99286621D01*
X114591595Y-99283119D01*
X114436880Y-99128405D01*
X114436877Y-99128402D01*
X114257639Y-99002898D01*
X114205921Y-98978781D01*
X114148714Y-98952105D01*
X114096275Y-98905932D01*
X114077123Y-98838739D01*
X114097339Y-98771858D01*
X114148715Y-98727340D01*
X114257388Y-98676665D01*
X114319572Y-98633124D01*
X113762534Y-98076086D01*
X113772315Y-98074680D01*
X113903100Y-98014952D01*
X114011761Y-97920798D01*
X114089493Y-97799844D01*
X114113076Y-97719524D01*
X114673124Y-98279572D01*
X114716667Y-98217385D01*
X114809102Y-98019159D01*
X114865712Y-97807886D01*
X114884775Y-97590000D01*
X114865712Y-97372113D01*
X114809102Y-97160840D01*
X114716667Y-96962615D01*
X114673123Y-96900428D01*
X114113076Y-97460475D01*
X114089493Y-97380156D01*
X114011761Y-97259202D01*
X113903100Y-97165048D01*
X113772315Y-97105320D01*
X113762532Y-97103913D01*
X114319572Y-96546874D01*
X114319571Y-96546873D01*
X114257386Y-96503331D01*
X114059161Y-96410898D01*
X113847886Y-96354287D01*
X113630000Y-96335224D01*
X113412113Y-96354287D01*
X113200840Y-96410897D01*
X113002611Y-96503333D01*
X112940428Y-96546874D01*
X112940427Y-96546876D01*
X113497464Y-97103913D01*
X113487685Y-97105320D01*
X113356900Y-97165048D01*
X113248239Y-97259202D01*
X113170507Y-97380156D01*
X113146923Y-97460474D01*
X112586876Y-96900427D01*
X112586874Y-96900428D01*
X112543333Y-96962611D01*
X112450897Y-97160840D01*
X112394287Y-97372113D01*
X112375224Y-97590000D01*
X112394287Y-97807886D01*
X112450898Y-98019161D01*
X112543331Y-98217386D01*
X112586873Y-98279571D01*
X112586874Y-98279572D01*
X113146923Y-97719523D01*
X113170507Y-97799844D01*
X113248239Y-97920798D01*
X113356900Y-98014952D01*
X113487685Y-98074680D01*
X113497466Y-98076086D01*
X112940426Y-98633124D01*
X112940427Y-98633125D01*
X113002612Y-98676667D01*
X113111284Y-98727341D01*
X113163724Y-98773513D01*
X113182876Y-98840706D01*
X113162661Y-98907587D01*
X113111286Y-98952105D01*
X113002359Y-99002899D01*
X112823122Y-99128402D01*
X112668402Y-99283122D01*
X112542898Y-99462361D01*
X112450425Y-99660668D01*
X112393792Y-99872025D01*
X112374722Y-100089999D01*
X112393792Y-100307974D01*
X112443198Y-100492361D01*
X112450425Y-100519330D01*
X112542898Y-100717639D01*
X112668402Y-100896877D01*
X112823123Y-101051598D01*
X113002361Y-101177102D01*
X113110693Y-101227618D01*
X113163132Y-101273790D01*
X113182284Y-101340984D01*
X113162068Y-101407865D01*
X113110693Y-101452382D01*
X113002361Y-101502898D01*
X112823122Y-101628402D01*
X112668402Y-101783122D01*
X112542898Y-101962361D01*
X112450425Y-102160668D01*
X112393792Y-102372025D01*
X112374722Y-102589999D01*
X112393792Y-102807974D01*
X112443198Y-102992361D01*
X112450425Y-103019330D01*
X112542898Y-103217639D01*
X112668402Y-103396877D01*
X112823123Y-103551598D01*
X113002361Y-103677102D01*
X113110693Y-103727618D01*
X113163132Y-103773790D01*
X113182284Y-103840984D01*
X113162068Y-103907865D01*
X113110693Y-103952382D01*
X113002361Y-104002898D01*
X112823122Y-104128402D01*
X112668402Y-104283122D01*
X112542898Y-104462361D01*
X112450425Y-104660668D01*
X112393792Y-104872025D01*
X112374722Y-105090000D01*
X107920500Y-105090000D01*
X107920500Y-68975412D01*
X107920972Y-68964605D01*
X107924475Y-68924564D01*
X107936919Y-68798215D01*
X107940539Y-68778322D01*
X107957908Y-68713498D01*
X107958956Y-68709828D01*
X107986685Y-68618419D01*
X107992948Y-68602049D01*
X108023700Y-68536102D01*
X108026670Y-68530161D01*
X108069012Y-68450944D01*
X108076786Y-68438289D01*
X108119639Y-68377089D01*
X108125330Y-68369587D01*
X108181191Y-68301521D01*
X108189325Y-68292547D01*
X108242547Y-68239325D01*
X108251521Y-68231191D01*
X108319587Y-68175330D01*
X108327089Y-68169639D01*
X108388289Y-68126786D01*
X108400944Y-68119012D01*
X108480161Y-68076670D01*
X108486102Y-68073700D01*
X108552049Y-68042948D01*
X108568419Y-68036685D01*
X108659828Y-68008956D01*
X108663498Y-68007908D01*
X108728318Y-67990540D01*
X108748221Y-67986918D01*
X108874471Y-67974483D01*
X108914640Y-67970968D01*
X108925402Y-67970500D01*
X126994587Y-67970500D01*
X127005394Y-67970971D01*
G37*
%TD.AperFunction*%
%TD*%
M02*
