M48
; DRILL file {KiCad 7.0.2} date Wed Apr 10 14:05:30 2024
; FORMAT={-:-/ absolute / metric / decimal}
; #@! TF.CreationDate,2024-04-10T14:05:30+02:00
; #@! TF.GenerationSoftware,Kicad,Pcbnew,7.0.2
; #@! TF.FileFunction,Plated,1,2,PTH
FMAT,2
METRIC
; #@! TA.AperFunction,Plated,PTH,ViaDrill
T1C0.400
; #@! TA.AperFunction,Plated,PTH,ComponentDrill
T2C0.750
; #@! TA.AperFunction,Plated,PTH,ComponentDrill
T3C1.000
%
G90
G05
T1
X163.47Y-97.38
T2
X161.85Y-70.6
X163.85Y-70.6
X168.96Y-70.61
X170.96Y-70.61
X172.55Y-78.09
X172.55Y-80.09
T3
X113.63Y-97.59
X113.63Y-100.09
X113.63Y-102.59
X113.63Y-105.09
X113.67Y-83.92
X113.67Y-86.42
X113.67Y-88.92
X113.67Y-91.42
X113.71Y-70.56
X113.71Y-73.06
X113.71Y-75.56
X113.71Y-78.06
X126.41Y-83.57
X126.41Y-86.11
X126.41Y-88.65
X126.41Y-91.19
X126.41Y-93.73
X126.41Y-96.27
X126.41Y-98.81
X126.41Y-101.35
X126.41Y-103.89
X126.41Y-106.43
X156.61Y-73.41
X156.61Y-75.95
X156.61Y-83.57
X156.61Y-86.11
X156.61Y-88.65
X156.61Y-91.19
X156.61Y-93.73
X156.61Y-96.27
X156.61Y-98.81
X156.61Y-101.35
X156.61Y-103.89
X156.61Y-106.43
X168.98Y-85.37
X168.98Y-87.87
X168.98Y-90.37
X168.98Y-92.87
X169.01Y-98.62
X169.01Y-101.12
X169.01Y-103.62
X169.01Y-106.12
T0
M30
