%TF.GenerationSoftware,KiCad,Pcbnew,7.0.2*%
%TF.CreationDate,2024-03-24T23:04:52+01:00*%
%TF.ProjectId,Support_TTGO_invers_,53757070-6f72-4745-9f54-54474f5f696e,rev?*%
%TF.SameCoordinates,Original*%
%TF.FileFunction,Legend,Top*%
%TF.FilePolarity,Positive*%
%FSLAX46Y46*%
G04 Gerber Fmt 4.6, Leading zero omitted, Abs format (unit mm)*
G04 Created by KiCad (PCBNEW 7.0.2) date 2024-03-24 23:04:52*
%MOMM*%
%LPD*%
G01*
G04 APERTURE LIST*
%ADD10C,0.250000*%
%ADD11C,0.150000*%
%ADD12C,0.100000*%
%ADD13C,0.500000*%
%ADD14C,0.120000*%
G04 APERTURE END LIST*
D10*
X127297619Y-75805714D02*
X127297619Y-76281904D01*
X127297619Y-76281904D02*
X126297619Y-76281904D01*
X127250000Y-75091428D02*
X127297619Y-75186666D01*
X127297619Y-75186666D02*
X127297619Y-75377142D01*
X127297619Y-75377142D02*
X127250000Y-75472380D01*
X127250000Y-75472380D02*
X127154761Y-75519999D01*
X127154761Y-75519999D02*
X126773809Y-75519999D01*
X126773809Y-75519999D02*
X126678571Y-75472380D01*
X126678571Y-75472380D02*
X126630952Y-75377142D01*
X126630952Y-75377142D02*
X126630952Y-75186666D01*
X126630952Y-75186666D02*
X126678571Y-75091428D01*
X126678571Y-75091428D02*
X126773809Y-75043809D01*
X126773809Y-75043809D02*
X126869047Y-75043809D01*
X126869047Y-75043809D02*
X126964285Y-75519999D01*
X127297619Y-74186666D02*
X126297619Y-74186666D01*
X127250000Y-74186666D02*
X127297619Y-74281904D01*
X127297619Y-74281904D02*
X127297619Y-74472380D01*
X127297619Y-74472380D02*
X127250000Y-74567618D01*
X127250000Y-74567618D02*
X127202380Y-74615237D01*
X127202380Y-74615237D02*
X127107142Y-74662856D01*
X127107142Y-74662856D02*
X126821428Y-74662856D01*
X126821428Y-74662856D02*
X126726190Y-74615237D01*
X126726190Y-74615237D02*
X126678571Y-74567618D01*
X126678571Y-74567618D02*
X126630952Y-74472380D01*
X126630952Y-74472380D02*
X126630952Y-74281904D01*
X126630952Y-74281904D02*
X126678571Y-74186666D01*
D11*
X121919523Y-73646190D02*
X121843333Y-73608095D01*
X121843333Y-73608095D02*
X121729047Y-73608095D01*
X121729047Y-73608095D02*
X121614761Y-73646190D01*
X121614761Y-73646190D02*
X121538571Y-73722380D01*
X121538571Y-73722380D02*
X121500476Y-73798571D01*
X121500476Y-73798571D02*
X121462380Y-73950952D01*
X121462380Y-73950952D02*
X121462380Y-74065238D01*
X121462380Y-74065238D02*
X121500476Y-74217619D01*
X121500476Y-74217619D02*
X121538571Y-74293809D01*
X121538571Y-74293809D02*
X121614761Y-74370000D01*
X121614761Y-74370000D02*
X121729047Y-74408095D01*
X121729047Y-74408095D02*
X121805238Y-74408095D01*
X121805238Y-74408095D02*
X121919523Y-74370000D01*
X121919523Y-74370000D02*
X121957619Y-74331904D01*
X121957619Y-74331904D02*
X121957619Y-74065238D01*
X121957619Y-74065238D02*
X121805238Y-74065238D01*
X122300476Y-73874761D02*
X122300476Y-74408095D01*
X122300476Y-73950952D02*
X122338571Y-73912857D01*
X122338571Y-73912857D02*
X122414761Y-73874761D01*
X122414761Y-73874761D02*
X122529047Y-73874761D01*
X122529047Y-73874761D02*
X122605238Y-73912857D01*
X122605238Y-73912857D02*
X122643333Y-73989047D01*
X122643333Y-73989047D02*
X122643333Y-74408095D01*
X123367143Y-74408095D02*
X123367143Y-73608095D01*
X123367143Y-74370000D02*
X123290952Y-74408095D01*
X123290952Y-74408095D02*
X123138571Y-74408095D01*
X123138571Y-74408095D02*
X123062381Y-74370000D01*
X123062381Y-74370000D02*
X123024286Y-74331904D01*
X123024286Y-74331904D02*
X122986190Y-74255714D01*
X122986190Y-74255714D02*
X122986190Y-74027142D01*
X122986190Y-74027142D02*
X123024286Y-73950952D01*
X123024286Y-73950952D02*
X123062381Y-73912857D01*
X123062381Y-73912857D02*
X123138571Y-73874761D01*
X123138571Y-73874761D02*
X123290952Y-73874761D01*
X123290952Y-73874761D02*
X123367143Y-73912857D01*
X121957619Y-75627904D02*
X121919523Y-75666000D01*
X121919523Y-75666000D02*
X121805238Y-75704095D01*
X121805238Y-75704095D02*
X121729047Y-75704095D01*
X121729047Y-75704095D02*
X121614761Y-75666000D01*
X121614761Y-75666000D02*
X121538571Y-75589809D01*
X121538571Y-75589809D02*
X121500476Y-75513619D01*
X121500476Y-75513619D02*
X121462380Y-75361238D01*
X121462380Y-75361238D02*
X121462380Y-75246952D01*
X121462380Y-75246952D02*
X121500476Y-75094571D01*
X121500476Y-75094571D02*
X121538571Y-75018380D01*
X121538571Y-75018380D02*
X121614761Y-74942190D01*
X121614761Y-74942190D02*
X121729047Y-74904095D01*
X121729047Y-74904095D02*
X121805238Y-74904095D01*
X121805238Y-74904095D02*
X121919523Y-74942190D01*
X121919523Y-74942190D02*
X121957619Y-74980285D01*
X122414761Y-75704095D02*
X122338571Y-75666000D01*
X122338571Y-75666000D02*
X122300476Y-75589809D01*
X122300476Y-75589809D02*
X122300476Y-74904095D01*
X122719524Y-75704095D02*
X122719524Y-74904095D01*
X122795714Y-75399333D02*
X123024286Y-75704095D01*
X123024286Y-75170761D02*
X122719524Y-75475523D01*
X121500476Y-77000095D02*
X121500476Y-76200095D01*
X121500476Y-76200095D02*
X121690952Y-76200095D01*
X121690952Y-76200095D02*
X121805238Y-76238190D01*
X121805238Y-76238190D02*
X121881428Y-76314380D01*
X121881428Y-76314380D02*
X121919523Y-76390571D01*
X121919523Y-76390571D02*
X121957619Y-76542952D01*
X121957619Y-76542952D02*
X121957619Y-76657238D01*
X121957619Y-76657238D02*
X121919523Y-76809619D01*
X121919523Y-76809619D02*
X121881428Y-76885809D01*
X121881428Y-76885809D02*
X121805238Y-76962000D01*
X121805238Y-76962000D02*
X121690952Y-77000095D01*
X121690952Y-77000095D02*
X121500476Y-77000095D01*
X122643333Y-77000095D02*
X122643333Y-76581047D01*
X122643333Y-76581047D02*
X122605238Y-76504857D01*
X122605238Y-76504857D02*
X122529047Y-76466761D01*
X122529047Y-76466761D02*
X122376666Y-76466761D01*
X122376666Y-76466761D02*
X122300476Y-76504857D01*
X122643333Y-76962000D02*
X122567142Y-77000095D01*
X122567142Y-77000095D02*
X122376666Y-77000095D01*
X122376666Y-77000095D02*
X122300476Y-76962000D01*
X122300476Y-76962000D02*
X122262380Y-76885809D01*
X122262380Y-76885809D02*
X122262380Y-76809619D01*
X122262380Y-76809619D02*
X122300476Y-76733428D01*
X122300476Y-76733428D02*
X122376666Y-76695333D01*
X122376666Y-76695333D02*
X122567142Y-76695333D01*
X122567142Y-76695333D02*
X122643333Y-76657238D01*
X122910000Y-76466761D02*
X123214762Y-76466761D01*
X123024286Y-76200095D02*
X123024286Y-76885809D01*
X123024286Y-76885809D02*
X123062381Y-76962000D01*
X123062381Y-76962000D02*
X123138571Y-77000095D01*
X123138571Y-77000095D02*
X123214762Y-77000095D01*
X123824286Y-77000095D02*
X123824286Y-76581047D01*
X123824286Y-76581047D02*
X123786191Y-76504857D01*
X123786191Y-76504857D02*
X123710000Y-76466761D01*
X123710000Y-76466761D02*
X123557619Y-76466761D01*
X123557619Y-76466761D02*
X123481429Y-76504857D01*
X123824286Y-76962000D02*
X123748095Y-77000095D01*
X123748095Y-77000095D02*
X123557619Y-77000095D01*
X123557619Y-77000095D02*
X123481429Y-76962000D01*
X123481429Y-76962000D02*
X123443333Y-76885809D01*
X123443333Y-76885809D02*
X123443333Y-76809619D01*
X123443333Y-76809619D02*
X123481429Y-76733428D01*
X123481429Y-76733428D02*
X123557619Y-76695333D01*
X123557619Y-76695333D02*
X123748095Y-76695333D01*
X123748095Y-76695333D02*
X123824286Y-76657238D01*
X121386190Y-78792095D02*
X121652857Y-79592095D01*
X121652857Y-79592095D02*
X121919523Y-78792095D01*
X122529047Y-79554000D02*
X122452856Y-79592095D01*
X122452856Y-79592095D02*
X122300475Y-79592095D01*
X122300475Y-79592095D02*
X122224285Y-79554000D01*
X122224285Y-79554000D02*
X122186190Y-79515904D01*
X122186190Y-79515904D02*
X122148094Y-79439714D01*
X122148094Y-79439714D02*
X122148094Y-79211142D01*
X122148094Y-79211142D02*
X122186190Y-79134952D01*
X122186190Y-79134952D02*
X122224285Y-79096857D01*
X122224285Y-79096857D02*
X122300475Y-79058761D01*
X122300475Y-79058761D02*
X122452856Y-79058761D01*
X122452856Y-79058761D02*
X122529047Y-79096857D01*
X123214761Y-79554000D02*
X123138570Y-79592095D01*
X123138570Y-79592095D02*
X122986189Y-79592095D01*
X122986189Y-79592095D02*
X122909999Y-79554000D01*
X122909999Y-79554000D02*
X122871904Y-79515904D01*
X122871904Y-79515904D02*
X122833808Y-79439714D01*
X122833808Y-79439714D02*
X122833808Y-79211142D01*
X122833808Y-79211142D02*
X122871904Y-79134952D01*
X122871904Y-79134952D02*
X122909999Y-79096857D01*
X122909999Y-79096857D02*
X122986189Y-79058761D01*
X122986189Y-79058761D02*
X123138570Y-79058761D01*
X123138570Y-79058761D02*
X123214761Y-79096857D01*
X158819048Y-83326095D02*
X159085715Y-84126095D01*
X159085715Y-84126095D02*
X159352381Y-83326095D01*
X159961905Y-84088000D02*
X159885714Y-84126095D01*
X159885714Y-84126095D02*
X159733333Y-84126095D01*
X159733333Y-84126095D02*
X159657143Y-84088000D01*
X159657143Y-84088000D02*
X159619048Y-84049904D01*
X159619048Y-84049904D02*
X159580952Y-83973714D01*
X159580952Y-83973714D02*
X159580952Y-83745142D01*
X159580952Y-83745142D02*
X159619048Y-83668952D01*
X159619048Y-83668952D02*
X159657143Y-83630857D01*
X159657143Y-83630857D02*
X159733333Y-83592761D01*
X159733333Y-83592761D02*
X159885714Y-83592761D01*
X159885714Y-83592761D02*
X159961905Y-83630857D01*
X160647619Y-84088000D02*
X160571428Y-84126095D01*
X160571428Y-84126095D02*
X160419047Y-84126095D01*
X160419047Y-84126095D02*
X160342857Y-84088000D01*
X160342857Y-84088000D02*
X160304762Y-84049904D01*
X160304762Y-84049904D02*
X160266666Y-83973714D01*
X160266666Y-83973714D02*
X160266666Y-83745142D01*
X160266666Y-83745142D02*
X160304762Y-83668952D01*
X160304762Y-83668952D02*
X160342857Y-83630857D01*
X160342857Y-83630857D02*
X160419047Y-83592761D01*
X160419047Y-83592761D02*
X160571428Y-83592761D01*
X160571428Y-83592761D02*
X160647619Y-83630857D01*
X158285713Y-86718095D02*
X158285713Y-85918095D01*
X158285713Y-85918095D02*
X158476189Y-85918095D01*
X158476189Y-85918095D02*
X158590475Y-85956190D01*
X158590475Y-85956190D02*
X158666665Y-86032380D01*
X158666665Y-86032380D02*
X158704760Y-86108571D01*
X158704760Y-86108571D02*
X158742856Y-86260952D01*
X158742856Y-86260952D02*
X158742856Y-86375238D01*
X158742856Y-86375238D02*
X158704760Y-86527619D01*
X158704760Y-86527619D02*
X158666665Y-86603809D01*
X158666665Y-86603809D02*
X158590475Y-86680000D01*
X158590475Y-86680000D02*
X158476189Y-86718095D01*
X158476189Y-86718095D02*
X158285713Y-86718095D01*
X159428570Y-86718095D02*
X159428570Y-86299047D01*
X159428570Y-86299047D02*
X159390475Y-86222857D01*
X159390475Y-86222857D02*
X159314284Y-86184761D01*
X159314284Y-86184761D02*
X159161903Y-86184761D01*
X159161903Y-86184761D02*
X159085713Y-86222857D01*
X159428570Y-86680000D02*
X159352379Y-86718095D01*
X159352379Y-86718095D02*
X159161903Y-86718095D01*
X159161903Y-86718095D02*
X159085713Y-86680000D01*
X159085713Y-86680000D02*
X159047617Y-86603809D01*
X159047617Y-86603809D02*
X159047617Y-86527619D01*
X159047617Y-86527619D02*
X159085713Y-86451428D01*
X159085713Y-86451428D02*
X159161903Y-86413333D01*
X159161903Y-86413333D02*
X159352379Y-86413333D01*
X159352379Y-86413333D02*
X159428570Y-86375238D01*
X159695237Y-86184761D02*
X159999999Y-86184761D01*
X159809523Y-85918095D02*
X159809523Y-86603809D01*
X159809523Y-86603809D02*
X159847618Y-86680000D01*
X159847618Y-86680000D02*
X159923808Y-86718095D01*
X159923808Y-86718095D02*
X159999999Y-86718095D01*
X160609523Y-86718095D02*
X160609523Y-86299047D01*
X160609523Y-86299047D02*
X160571428Y-86222857D01*
X160571428Y-86222857D02*
X160495237Y-86184761D01*
X160495237Y-86184761D02*
X160342856Y-86184761D01*
X160342856Y-86184761D02*
X160266666Y-86222857D01*
X160609523Y-86680000D02*
X160533332Y-86718095D01*
X160533332Y-86718095D02*
X160342856Y-86718095D01*
X160342856Y-86718095D02*
X160266666Y-86680000D01*
X160266666Y-86680000D02*
X160228570Y-86603809D01*
X160228570Y-86603809D02*
X160228570Y-86527619D01*
X160228570Y-86527619D02*
X160266666Y-86451428D01*
X160266666Y-86451428D02*
X160342856Y-86413333D01*
X160342856Y-86413333D02*
X160533332Y-86413333D01*
X160533332Y-86413333D02*
X160609523Y-86375238D01*
X159580952Y-89233904D02*
X159542856Y-89272000D01*
X159542856Y-89272000D02*
X159428571Y-89310095D01*
X159428571Y-89310095D02*
X159352380Y-89310095D01*
X159352380Y-89310095D02*
X159238094Y-89272000D01*
X159238094Y-89272000D02*
X159161904Y-89195809D01*
X159161904Y-89195809D02*
X159123809Y-89119619D01*
X159123809Y-89119619D02*
X159085713Y-88967238D01*
X159085713Y-88967238D02*
X159085713Y-88852952D01*
X159085713Y-88852952D02*
X159123809Y-88700571D01*
X159123809Y-88700571D02*
X159161904Y-88624380D01*
X159161904Y-88624380D02*
X159238094Y-88548190D01*
X159238094Y-88548190D02*
X159352380Y-88510095D01*
X159352380Y-88510095D02*
X159428571Y-88510095D01*
X159428571Y-88510095D02*
X159542856Y-88548190D01*
X159542856Y-88548190D02*
X159580952Y-88586285D01*
X160038094Y-89310095D02*
X159961904Y-89272000D01*
X159961904Y-89272000D02*
X159923809Y-89195809D01*
X159923809Y-89195809D02*
X159923809Y-88510095D01*
X160342857Y-89310095D02*
X160342857Y-88510095D01*
X160419047Y-89005333D02*
X160647619Y-89310095D01*
X160647619Y-88776761D02*
X160342857Y-89081523D01*
X159161903Y-91140190D02*
X159085713Y-91102095D01*
X159085713Y-91102095D02*
X158971427Y-91102095D01*
X158971427Y-91102095D02*
X158857141Y-91140190D01*
X158857141Y-91140190D02*
X158780951Y-91216380D01*
X158780951Y-91216380D02*
X158742856Y-91292571D01*
X158742856Y-91292571D02*
X158704760Y-91444952D01*
X158704760Y-91444952D02*
X158704760Y-91559238D01*
X158704760Y-91559238D02*
X158742856Y-91711619D01*
X158742856Y-91711619D02*
X158780951Y-91787809D01*
X158780951Y-91787809D02*
X158857141Y-91864000D01*
X158857141Y-91864000D02*
X158971427Y-91902095D01*
X158971427Y-91902095D02*
X159047618Y-91902095D01*
X159047618Y-91902095D02*
X159161903Y-91864000D01*
X159161903Y-91864000D02*
X159199999Y-91825904D01*
X159199999Y-91825904D02*
X159199999Y-91559238D01*
X159199999Y-91559238D02*
X159047618Y-91559238D01*
X159542856Y-91368761D02*
X159542856Y-91902095D01*
X159542856Y-91444952D02*
X159580951Y-91406857D01*
X159580951Y-91406857D02*
X159657141Y-91368761D01*
X159657141Y-91368761D02*
X159771427Y-91368761D01*
X159771427Y-91368761D02*
X159847618Y-91406857D01*
X159847618Y-91406857D02*
X159885713Y-91483047D01*
X159885713Y-91483047D02*
X159885713Y-91902095D01*
X160609523Y-91902095D02*
X160609523Y-91102095D01*
X160609523Y-91864000D02*
X160533332Y-91902095D01*
X160533332Y-91902095D02*
X160380951Y-91902095D01*
X160380951Y-91902095D02*
X160304761Y-91864000D01*
X160304761Y-91864000D02*
X160266666Y-91825904D01*
X160266666Y-91825904D02*
X160228570Y-91749714D01*
X160228570Y-91749714D02*
X160228570Y-91521142D01*
X160228570Y-91521142D02*
X160266666Y-91444952D01*
X160266666Y-91444952D02*
X160304761Y-91406857D01*
X160304761Y-91406857D02*
X160380951Y-91368761D01*
X160380951Y-91368761D02*
X160533332Y-91368761D01*
X160533332Y-91368761D02*
X160609523Y-91406857D01*
D12*
X155446095Y-77180000D02*
X155446095Y-76722857D01*
X156246095Y-76951429D02*
X155446095Y-76951429D01*
X156208000Y-76151428D02*
X156246095Y-76227619D01*
X156246095Y-76227619D02*
X156246095Y-76380000D01*
X156246095Y-76380000D02*
X156208000Y-76456190D01*
X156208000Y-76456190D02*
X156131809Y-76494286D01*
X156131809Y-76494286D02*
X155827047Y-76494286D01*
X155827047Y-76494286D02*
X155750857Y-76456190D01*
X155750857Y-76456190D02*
X155712761Y-76380000D01*
X155712761Y-76380000D02*
X155712761Y-76227619D01*
X155712761Y-76227619D02*
X155750857Y-76151428D01*
X155750857Y-76151428D02*
X155827047Y-76113333D01*
X155827047Y-76113333D02*
X155903238Y-76113333D01*
X155903238Y-76113333D02*
X155979428Y-76494286D01*
X156246095Y-75770476D02*
X155712761Y-75770476D01*
X155788952Y-75770476D02*
X155750857Y-75732381D01*
X155750857Y-75732381D02*
X155712761Y-75656191D01*
X155712761Y-75656191D02*
X155712761Y-75541905D01*
X155712761Y-75541905D02*
X155750857Y-75465714D01*
X155750857Y-75465714D02*
X155827047Y-75427619D01*
X155827047Y-75427619D02*
X156246095Y-75427619D01*
X155827047Y-75427619D02*
X155750857Y-75389524D01*
X155750857Y-75389524D02*
X155712761Y-75313333D01*
X155712761Y-75313333D02*
X155712761Y-75199048D01*
X155712761Y-75199048D02*
X155750857Y-75122857D01*
X155750857Y-75122857D02*
X155827047Y-75084762D01*
X155827047Y-75084762D02*
X156246095Y-75084762D01*
X155712761Y-74703809D02*
X156512761Y-74703809D01*
X155750857Y-74703809D02*
X155712761Y-74627619D01*
X155712761Y-74627619D02*
X155712761Y-74475238D01*
X155712761Y-74475238D02*
X155750857Y-74399047D01*
X155750857Y-74399047D02*
X155788952Y-74360952D01*
X155788952Y-74360952D02*
X155865142Y-74322857D01*
X155865142Y-74322857D02*
X156093714Y-74322857D01*
X156093714Y-74322857D02*
X156169904Y-74360952D01*
X156169904Y-74360952D02*
X156208000Y-74399047D01*
X156208000Y-74399047D02*
X156246095Y-74475238D01*
X156246095Y-74475238D02*
X156246095Y-74627619D01*
X156246095Y-74627619D02*
X156208000Y-74703809D01*
X156208000Y-73675237D02*
X156246095Y-73751428D01*
X156246095Y-73751428D02*
X156246095Y-73903809D01*
X156246095Y-73903809D02*
X156208000Y-73979999D01*
X156208000Y-73979999D02*
X156131809Y-74018095D01*
X156131809Y-74018095D02*
X155827047Y-74018095D01*
X155827047Y-74018095D02*
X155750857Y-73979999D01*
X155750857Y-73979999D02*
X155712761Y-73903809D01*
X155712761Y-73903809D02*
X155712761Y-73751428D01*
X155712761Y-73751428D02*
X155750857Y-73675237D01*
X155750857Y-73675237D02*
X155827047Y-73637142D01*
X155827047Y-73637142D02*
X155903238Y-73637142D01*
X155903238Y-73637142D02*
X155979428Y-74018095D01*
X156246095Y-73294285D02*
X155712761Y-73294285D01*
X155865142Y-73294285D02*
X155788952Y-73256190D01*
X155788952Y-73256190D02*
X155750857Y-73218095D01*
X155750857Y-73218095D02*
X155712761Y-73141904D01*
X155712761Y-73141904D02*
X155712761Y-73065714D01*
X156246095Y-72456190D02*
X155827047Y-72456190D01*
X155827047Y-72456190D02*
X155750857Y-72494285D01*
X155750857Y-72494285D02*
X155712761Y-72570476D01*
X155712761Y-72570476D02*
X155712761Y-72722857D01*
X155712761Y-72722857D02*
X155750857Y-72799047D01*
X156208000Y-72456190D02*
X156246095Y-72532381D01*
X156246095Y-72532381D02*
X156246095Y-72722857D01*
X156246095Y-72722857D02*
X156208000Y-72799047D01*
X156208000Y-72799047D02*
X156131809Y-72837143D01*
X156131809Y-72837143D02*
X156055619Y-72837143D01*
X156055619Y-72837143D02*
X155979428Y-72799047D01*
X155979428Y-72799047D02*
X155941333Y-72722857D01*
X155941333Y-72722857D02*
X155941333Y-72532381D01*
X155941333Y-72532381D02*
X155903238Y-72456190D01*
X155712761Y-72189523D02*
X155712761Y-71884761D01*
X155446095Y-72075237D02*
X156131809Y-72075237D01*
X156131809Y-72075237D02*
X156208000Y-72037142D01*
X156208000Y-72037142D02*
X156246095Y-71960952D01*
X156246095Y-71960952D02*
X156246095Y-71884761D01*
X155712761Y-71275237D02*
X156246095Y-71275237D01*
X155712761Y-71618094D02*
X156131809Y-71618094D01*
X156131809Y-71618094D02*
X156208000Y-71579999D01*
X156208000Y-71579999D02*
X156246095Y-71503809D01*
X156246095Y-71503809D02*
X156246095Y-71389523D01*
X156246095Y-71389523D02*
X156208000Y-71313332D01*
X156208000Y-71313332D02*
X156169904Y-71275237D01*
X156246095Y-70894284D02*
X155712761Y-70894284D01*
X155865142Y-70894284D02*
X155788952Y-70856189D01*
X155788952Y-70856189D02*
X155750857Y-70818094D01*
X155750857Y-70818094D02*
X155712761Y-70741903D01*
X155712761Y-70741903D02*
X155712761Y-70665713D01*
X156208000Y-70094284D02*
X156246095Y-70170475D01*
X156246095Y-70170475D02*
X156246095Y-70322856D01*
X156246095Y-70322856D02*
X156208000Y-70399046D01*
X156208000Y-70399046D02*
X156131809Y-70437142D01*
X156131809Y-70437142D02*
X155827047Y-70437142D01*
X155827047Y-70437142D02*
X155750857Y-70399046D01*
X155750857Y-70399046D02*
X155712761Y-70322856D01*
X155712761Y-70322856D02*
X155712761Y-70170475D01*
X155712761Y-70170475D02*
X155750857Y-70094284D01*
X155750857Y-70094284D02*
X155827047Y-70056189D01*
X155827047Y-70056189D02*
X155903238Y-70056189D01*
X155903238Y-70056189D02*
X155979428Y-70437142D01*
X157542095Y-76094285D02*
X156742095Y-76094285D01*
X156742095Y-76094285D02*
X156742095Y-75903809D01*
X156742095Y-75903809D02*
X156780190Y-75789523D01*
X156780190Y-75789523D02*
X156856380Y-75713333D01*
X156856380Y-75713333D02*
X156932571Y-75675238D01*
X156932571Y-75675238D02*
X157084952Y-75637142D01*
X157084952Y-75637142D02*
X157199238Y-75637142D01*
X157199238Y-75637142D02*
X157351619Y-75675238D01*
X157351619Y-75675238D02*
X157427809Y-75713333D01*
X157427809Y-75713333D02*
X157504000Y-75789523D01*
X157504000Y-75789523D02*
X157542095Y-75903809D01*
X157542095Y-75903809D02*
X157542095Y-76094285D01*
X157504000Y-75332381D02*
X157542095Y-75218095D01*
X157542095Y-75218095D02*
X157542095Y-75027619D01*
X157542095Y-75027619D02*
X157504000Y-74951428D01*
X157504000Y-74951428D02*
X157465904Y-74913333D01*
X157465904Y-74913333D02*
X157389714Y-74875238D01*
X157389714Y-74875238D02*
X157313523Y-74875238D01*
X157313523Y-74875238D02*
X157237333Y-74913333D01*
X157237333Y-74913333D02*
X157199238Y-74951428D01*
X157199238Y-74951428D02*
X157161142Y-75027619D01*
X157161142Y-75027619D02*
X157123047Y-75180000D01*
X157123047Y-75180000D02*
X157084952Y-75256190D01*
X157084952Y-75256190D02*
X157046857Y-75294285D01*
X157046857Y-75294285D02*
X156970666Y-75332381D01*
X156970666Y-75332381D02*
X156894476Y-75332381D01*
X156894476Y-75332381D02*
X156818285Y-75294285D01*
X156818285Y-75294285D02*
X156780190Y-75256190D01*
X156780190Y-75256190D02*
X156742095Y-75180000D01*
X156742095Y-75180000D02*
X156742095Y-74989523D01*
X156742095Y-74989523D02*
X156780190Y-74875238D01*
X157542095Y-74113333D02*
X157542095Y-74570476D01*
X157542095Y-74341904D02*
X156742095Y-74341904D01*
X156742095Y-74341904D02*
X156856380Y-74418095D01*
X156856380Y-74418095D02*
X156932571Y-74494285D01*
X156932571Y-74494285D02*
X156970666Y-74570476D01*
X157084952Y-73656190D02*
X157046857Y-73732380D01*
X157046857Y-73732380D02*
X157008761Y-73770475D01*
X157008761Y-73770475D02*
X156932571Y-73808571D01*
X156932571Y-73808571D02*
X156894476Y-73808571D01*
X156894476Y-73808571D02*
X156818285Y-73770475D01*
X156818285Y-73770475D02*
X156780190Y-73732380D01*
X156780190Y-73732380D02*
X156742095Y-73656190D01*
X156742095Y-73656190D02*
X156742095Y-73503809D01*
X156742095Y-73503809D02*
X156780190Y-73427618D01*
X156780190Y-73427618D02*
X156818285Y-73389523D01*
X156818285Y-73389523D02*
X156894476Y-73351428D01*
X156894476Y-73351428D02*
X156932571Y-73351428D01*
X156932571Y-73351428D02*
X157008761Y-73389523D01*
X157008761Y-73389523D02*
X157046857Y-73427618D01*
X157046857Y-73427618D02*
X157084952Y-73503809D01*
X157084952Y-73503809D02*
X157084952Y-73656190D01*
X157084952Y-73656190D02*
X157123047Y-73732380D01*
X157123047Y-73732380D02*
X157161142Y-73770475D01*
X157161142Y-73770475D02*
X157237333Y-73808571D01*
X157237333Y-73808571D02*
X157389714Y-73808571D01*
X157389714Y-73808571D02*
X157465904Y-73770475D01*
X157465904Y-73770475D02*
X157504000Y-73732380D01*
X157504000Y-73732380D02*
X157542095Y-73656190D01*
X157542095Y-73656190D02*
X157542095Y-73503809D01*
X157542095Y-73503809D02*
X157504000Y-73427618D01*
X157504000Y-73427618D02*
X157465904Y-73389523D01*
X157465904Y-73389523D02*
X157389714Y-73351428D01*
X157389714Y-73351428D02*
X157237333Y-73351428D01*
X157237333Y-73351428D02*
X157161142Y-73389523D01*
X157161142Y-73389523D02*
X157123047Y-73427618D01*
X157123047Y-73427618D02*
X157084952Y-73503809D01*
X157123047Y-72741904D02*
X157161142Y-72627618D01*
X157161142Y-72627618D02*
X157199238Y-72589523D01*
X157199238Y-72589523D02*
X157275428Y-72551427D01*
X157275428Y-72551427D02*
X157389714Y-72551427D01*
X157389714Y-72551427D02*
X157465904Y-72589523D01*
X157465904Y-72589523D02*
X157504000Y-72627618D01*
X157504000Y-72627618D02*
X157542095Y-72703808D01*
X157542095Y-72703808D02*
X157542095Y-73008570D01*
X157542095Y-73008570D02*
X156742095Y-73008570D01*
X156742095Y-73008570D02*
X156742095Y-72741904D01*
X156742095Y-72741904D02*
X156780190Y-72665713D01*
X156780190Y-72665713D02*
X156818285Y-72627618D01*
X156818285Y-72627618D02*
X156894476Y-72589523D01*
X156894476Y-72589523D02*
X156970666Y-72589523D01*
X156970666Y-72589523D02*
X157046857Y-72627618D01*
X157046857Y-72627618D02*
X157084952Y-72665713D01*
X157084952Y-72665713D02*
X157123047Y-72741904D01*
X157123047Y-72741904D02*
X157123047Y-73008570D01*
X156818285Y-72246666D02*
X156780190Y-72208570D01*
X156780190Y-72208570D02*
X156742095Y-72132380D01*
X156742095Y-72132380D02*
X156742095Y-71941904D01*
X156742095Y-71941904D02*
X156780190Y-71865713D01*
X156780190Y-71865713D02*
X156818285Y-71827618D01*
X156818285Y-71827618D02*
X156894476Y-71789523D01*
X156894476Y-71789523D02*
X156970666Y-71789523D01*
X156970666Y-71789523D02*
X157084952Y-71827618D01*
X157084952Y-71827618D02*
X157542095Y-72284761D01*
X157542095Y-72284761D02*
X157542095Y-71789523D01*
X156742095Y-71294284D02*
X156742095Y-71218094D01*
X156742095Y-71218094D02*
X156780190Y-71141903D01*
X156780190Y-71141903D02*
X156818285Y-71103808D01*
X156818285Y-71103808D02*
X156894476Y-71065713D01*
X156894476Y-71065713D02*
X157046857Y-71027618D01*
X157046857Y-71027618D02*
X157237333Y-71027618D01*
X157237333Y-71027618D02*
X157389714Y-71065713D01*
X157389714Y-71065713D02*
X157465904Y-71103808D01*
X157465904Y-71103808D02*
X157504000Y-71141903D01*
X157504000Y-71141903D02*
X157542095Y-71218094D01*
X157542095Y-71218094D02*
X157542095Y-71294284D01*
X157542095Y-71294284D02*
X157504000Y-71370475D01*
X157504000Y-71370475D02*
X157465904Y-71408570D01*
X157465904Y-71408570D02*
X157389714Y-71446665D01*
X157389714Y-71446665D02*
X157237333Y-71484761D01*
X157237333Y-71484761D02*
X157046857Y-71484761D01*
X157046857Y-71484761D02*
X156894476Y-71446665D01*
X156894476Y-71446665D02*
X156818285Y-71408570D01*
X156818285Y-71408570D02*
X156780190Y-71370475D01*
X156780190Y-71370475D02*
X156742095Y-71294284D01*
D11*
X121979523Y-98484190D02*
X121903333Y-98446095D01*
X121903333Y-98446095D02*
X121789047Y-98446095D01*
X121789047Y-98446095D02*
X121674761Y-98484190D01*
X121674761Y-98484190D02*
X121598571Y-98560380D01*
X121598571Y-98560380D02*
X121560476Y-98636571D01*
X121560476Y-98636571D02*
X121522380Y-98788952D01*
X121522380Y-98788952D02*
X121522380Y-98903238D01*
X121522380Y-98903238D02*
X121560476Y-99055619D01*
X121560476Y-99055619D02*
X121598571Y-99131809D01*
X121598571Y-99131809D02*
X121674761Y-99208000D01*
X121674761Y-99208000D02*
X121789047Y-99246095D01*
X121789047Y-99246095D02*
X121865238Y-99246095D01*
X121865238Y-99246095D02*
X121979523Y-99208000D01*
X121979523Y-99208000D02*
X122017619Y-99169904D01*
X122017619Y-99169904D02*
X122017619Y-98903238D01*
X122017619Y-98903238D02*
X121865238Y-98903238D01*
X122360476Y-98712761D02*
X122360476Y-99246095D01*
X122360476Y-98788952D02*
X122398571Y-98750857D01*
X122398571Y-98750857D02*
X122474761Y-98712761D01*
X122474761Y-98712761D02*
X122589047Y-98712761D01*
X122589047Y-98712761D02*
X122665238Y-98750857D01*
X122665238Y-98750857D02*
X122703333Y-98827047D01*
X122703333Y-98827047D02*
X122703333Y-99246095D01*
X123427143Y-99246095D02*
X123427143Y-98446095D01*
X123427143Y-99208000D02*
X123350952Y-99246095D01*
X123350952Y-99246095D02*
X123198571Y-99246095D01*
X123198571Y-99246095D02*
X123122381Y-99208000D01*
X123122381Y-99208000D02*
X123084286Y-99169904D01*
X123084286Y-99169904D02*
X123046190Y-99093714D01*
X123046190Y-99093714D02*
X123046190Y-98865142D01*
X123046190Y-98865142D02*
X123084286Y-98788952D01*
X123084286Y-98788952D02*
X123122381Y-98750857D01*
X123122381Y-98750857D02*
X123198571Y-98712761D01*
X123198571Y-98712761D02*
X123350952Y-98712761D01*
X123350952Y-98712761D02*
X123427143Y-98750857D01*
X122017619Y-101761904D02*
X121979523Y-101800000D01*
X121979523Y-101800000D02*
X121865238Y-101838095D01*
X121865238Y-101838095D02*
X121789047Y-101838095D01*
X121789047Y-101838095D02*
X121674761Y-101800000D01*
X121674761Y-101800000D02*
X121598571Y-101723809D01*
X121598571Y-101723809D02*
X121560476Y-101647619D01*
X121560476Y-101647619D02*
X121522380Y-101495238D01*
X121522380Y-101495238D02*
X121522380Y-101380952D01*
X121522380Y-101380952D02*
X121560476Y-101228571D01*
X121560476Y-101228571D02*
X121598571Y-101152380D01*
X121598571Y-101152380D02*
X121674761Y-101076190D01*
X121674761Y-101076190D02*
X121789047Y-101038095D01*
X121789047Y-101038095D02*
X121865238Y-101038095D01*
X121865238Y-101038095D02*
X121979523Y-101076190D01*
X121979523Y-101076190D02*
X122017619Y-101114285D01*
X122474761Y-101838095D02*
X122398571Y-101800000D01*
X122398571Y-101800000D02*
X122360476Y-101723809D01*
X122360476Y-101723809D02*
X122360476Y-101038095D01*
X122779524Y-101838095D02*
X122779524Y-101038095D01*
X122855714Y-101533333D02*
X123084286Y-101838095D01*
X123084286Y-101304761D02*
X122779524Y-101609523D01*
X121560476Y-104430095D02*
X121560476Y-103630095D01*
X121560476Y-103630095D02*
X121750952Y-103630095D01*
X121750952Y-103630095D02*
X121865238Y-103668190D01*
X121865238Y-103668190D02*
X121941428Y-103744380D01*
X121941428Y-103744380D02*
X121979523Y-103820571D01*
X121979523Y-103820571D02*
X122017619Y-103972952D01*
X122017619Y-103972952D02*
X122017619Y-104087238D01*
X122017619Y-104087238D02*
X121979523Y-104239619D01*
X121979523Y-104239619D02*
X121941428Y-104315809D01*
X121941428Y-104315809D02*
X121865238Y-104392000D01*
X121865238Y-104392000D02*
X121750952Y-104430095D01*
X121750952Y-104430095D02*
X121560476Y-104430095D01*
X122703333Y-104430095D02*
X122703333Y-104011047D01*
X122703333Y-104011047D02*
X122665238Y-103934857D01*
X122665238Y-103934857D02*
X122589047Y-103896761D01*
X122589047Y-103896761D02*
X122436666Y-103896761D01*
X122436666Y-103896761D02*
X122360476Y-103934857D01*
X122703333Y-104392000D02*
X122627142Y-104430095D01*
X122627142Y-104430095D02*
X122436666Y-104430095D01*
X122436666Y-104430095D02*
X122360476Y-104392000D01*
X122360476Y-104392000D02*
X122322380Y-104315809D01*
X122322380Y-104315809D02*
X122322380Y-104239619D01*
X122322380Y-104239619D02*
X122360476Y-104163428D01*
X122360476Y-104163428D02*
X122436666Y-104125333D01*
X122436666Y-104125333D02*
X122627142Y-104125333D01*
X122627142Y-104125333D02*
X122703333Y-104087238D01*
X122970000Y-103896761D02*
X123274762Y-103896761D01*
X123084286Y-103630095D02*
X123084286Y-104315809D01*
X123084286Y-104315809D02*
X123122381Y-104392000D01*
X123122381Y-104392000D02*
X123198571Y-104430095D01*
X123198571Y-104430095D02*
X123274762Y-104430095D01*
X123884286Y-104430095D02*
X123884286Y-104011047D01*
X123884286Y-104011047D02*
X123846191Y-103934857D01*
X123846191Y-103934857D02*
X123770000Y-103896761D01*
X123770000Y-103896761D02*
X123617619Y-103896761D01*
X123617619Y-103896761D02*
X123541429Y-103934857D01*
X123884286Y-104392000D02*
X123808095Y-104430095D01*
X123808095Y-104430095D02*
X123617619Y-104430095D01*
X123617619Y-104430095D02*
X123541429Y-104392000D01*
X123541429Y-104392000D02*
X123503333Y-104315809D01*
X123503333Y-104315809D02*
X123503333Y-104239619D01*
X123503333Y-104239619D02*
X123541429Y-104163428D01*
X123541429Y-104163428D02*
X123617619Y-104125333D01*
X123617619Y-104125333D02*
X123808095Y-104125333D01*
X123808095Y-104125333D02*
X123884286Y-104087238D01*
X121446190Y-106222095D02*
X121712857Y-107022095D01*
X121712857Y-107022095D02*
X121979523Y-106222095D01*
X122589047Y-106984000D02*
X122512856Y-107022095D01*
X122512856Y-107022095D02*
X122360475Y-107022095D01*
X122360475Y-107022095D02*
X122284285Y-106984000D01*
X122284285Y-106984000D02*
X122246190Y-106945904D01*
X122246190Y-106945904D02*
X122208094Y-106869714D01*
X122208094Y-106869714D02*
X122208094Y-106641142D01*
X122208094Y-106641142D02*
X122246190Y-106564952D01*
X122246190Y-106564952D02*
X122284285Y-106526857D01*
X122284285Y-106526857D02*
X122360475Y-106488761D01*
X122360475Y-106488761D02*
X122512856Y-106488761D01*
X122512856Y-106488761D02*
X122589047Y-106526857D01*
X123274761Y-106984000D02*
X123198570Y-107022095D01*
X123198570Y-107022095D02*
X123046189Y-107022095D01*
X123046189Y-107022095D02*
X122969999Y-106984000D01*
X122969999Y-106984000D02*
X122931904Y-106945904D01*
X122931904Y-106945904D02*
X122893808Y-106869714D01*
X122893808Y-106869714D02*
X122893808Y-106641142D01*
X122893808Y-106641142D02*
X122931904Y-106564952D01*
X122931904Y-106564952D02*
X122969999Y-106526857D01*
X122969999Y-106526857D02*
X123046189Y-106488761D01*
X123046189Y-106488761D02*
X123198570Y-106488761D01*
X123198570Y-106488761D02*
X123274761Y-106526857D01*
X159099048Y-72148095D02*
X159365715Y-72948095D01*
X159365715Y-72948095D02*
X159632381Y-72148095D01*
X160241905Y-72910000D02*
X160165714Y-72948095D01*
X160165714Y-72948095D02*
X160013333Y-72948095D01*
X160013333Y-72948095D02*
X159937143Y-72910000D01*
X159937143Y-72910000D02*
X159899048Y-72871904D01*
X159899048Y-72871904D02*
X159860952Y-72795714D01*
X159860952Y-72795714D02*
X159860952Y-72567142D01*
X159860952Y-72567142D02*
X159899048Y-72490952D01*
X159899048Y-72490952D02*
X159937143Y-72452857D01*
X159937143Y-72452857D02*
X160013333Y-72414761D01*
X160013333Y-72414761D02*
X160165714Y-72414761D01*
X160165714Y-72414761D02*
X160241905Y-72452857D01*
X160927619Y-72910000D02*
X160851428Y-72948095D01*
X160851428Y-72948095D02*
X160699047Y-72948095D01*
X160699047Y-72948095D02*
X160622857Y-72910000D01*
X160622857Y-72910000D02*
X160584762Y-72871904D01*
X160584762Y-72871904D02*
X160546666Y-72795714D01*
X160546666Y-72795714D02*
X160546666Y-72567142D01*
X160546666Y-72567142D02*
X160584762Y-72490952D01*
X160584762Y-72490952D02*
X160622857Y-72452857D01*
X160622857Y-72452857D02*
X160699047Y-72414761D01*
X160699047Y-72414761D02*
X160851428Y-72414761D01*
X160851428Y-72414761D02*
X160927619Y-72452857D01*
X158565713Y-75540095D02*
X158565713Y-74740095D01*
X158565713Y-74740095D02*
X158756189Y-74740095D01*
X158756189Y-74740095D02*
X158870475Y-74778190D01*
X158870475Y-74778190D02*
X158946665Y-74854380D01*
X158946665Y-74854380D02*
X158984760Y-74930571D01*
X158984760Y-74930571D02*
X159022856Y-75082952D01*
X159022856Y-75082952D02*
X159022856Y-75197238D01*
X159022856Y-75197238D02*
X158984760Y-75349619D01*
X158984760Y-75349619D02*
X158946665Y-75425809D01*
X158946665Y-75425809D02*
X158870475Y-75502000D01*
X158870475Y-75502000D02*
X158756189Y-75540095D01*
X158756189Y-75540095D02*
X158565713Y-75540095D01*
X159708570Y-75540095D02*
X159708570Y-75121047D01*
X159708570Y-75121047D02*
X159670475Y-75044857D01*
X159670475Y-75044857D02*
X159594284Y-75006761D01*
X159594284Y-75006761D02*
X159441903Y-75006761D01*
X159441903Y-75006761D02*
X159365713Y-75044857D01*
X159708570Y-75502000D02*
X159632379Y-75540095D01*
X159632379Y-75540095D02*
X159441903Y-75540095D01*
X159441903Y-75540095D02*
X159365713Y-75502000D01*
X159365713Y-75502000D02*
X159327617Y-75425809D01*
X159327617Y-75425809D02*
X159327617Y-75349619D01*
X159327617Y-75349619D02*
X159365713Y-75273428D01*
X159365713Y-75273428D02*
X159441903Y-75235333D01*
X159441903Y-75235333D02*
X159632379Y-75235333D01*
X159632379Y-75235333D02*
X159708570Y-75197238D01*
X159975237Y-75006761D02*
X160279999Y-75006761D01*
X160089523Y-74740095D02*
X160089523Y-75425809D01*
X160089523Y-75425809D02*
X160127618Y-75502000D01*
X160127618Y-75502000D02*
X160203808Y-75540095D01*
X160203808Y-75540095D02*
X160279999Y-75540095D01*
X160889523Y-75540095D02*
X160889523Y-75121047D01*
X160889523Y-75121047D02*
X160851428Y-75044857D01*
X160851428Y-75044857D02*
X160775237Y-75006761D01*
X160775237Y-75006761D02*
X160622856Y-75006761D01*
X160622856Y-75006761D02*
X160546666Y-75044857D01*
X160889523Y-75502000D02*
X160813332Y-75540095D01*
X160813332Y-75540095D02*
X160622856Y-75540095D01*
X160622856Y-75540095D02*
X160546666Y-75502000D01*
X160546666Y-75502000D02*
X160508570Y-75425809D01*
X160508570Y-75425809D02*
X160508570Y-75349619D01*
X160508570Y-75349619D02*
X160546666Y-75273428D01*
X160546666Y-75273428D02*
X160622856Y-75235333D01*
X160622856Y-75235333D02*
X160813332Y-75235333D01*
X160813332Y-75235333D02*
X160889523Y-75197238D01*
X159441903Y-77370190D02*
X159365713Y-77332095D01*
X159365713Y-77332095D02*
X159251427Y-77332095D01*
X159251427Y-77332095D02*
X159137141Y-77370190D01*
X159137141Y-77370190D02*
X159060951Y-77446380D01*
X159060951Y-77446380D02*
X159022856Y-77522571D01*
X159022856Y-77522571D02*
X158984760Y-77674952D01*
X158984760Y-77674952D02*
X158984760Y-77789238D01*
X158984760Y-77789238D02*
X159022856Y-77941619D01*
X159022856Y-77941619D02*
X159060951Y-78017809D01*
X159060951Y-78017809D02*
X159137141Y-78094000D01*
X159137141Y-78094000D02*
X159251427Y-78132095D01*
X159251427Y-78132095D02*
X159327618Y-78132095D01*
X159327618Y-78132095D02*
X159441903Y-78094000D01*
X159441903Y-78094000D02*
X159479999Y-78055904D01*
X159479999Y-78055904D02*
X159479999Y-77789238D01*
X159479999Y-77789238D02*
X159327618Y-77789238D01*
X159822856Y-77598761D02*
X159822856Y-78132095D01*
X159822856Y-77674952D02*
X159860951Y-77636857D01*
X159860951Y-77636857D02*
X159937141Y-77598761D01*
X159937141Y-77598761D02*
X160051427Y-77598761D01*
X160051427Y-77598761D02*
X160127618Y-77636857D01*
X160127618Y-77636857D02*
X160165713Y-77713047D01*
X160165713Y-77713047D02*
X160165713Y-78132095D01*
X160889523Y-78132095D02*
X160889523Y-77332095D01*
X160889523Y-78094000D02*
X160813332Y-78132095D01*
X160813332Y-78132095D02*
X160660951Y-78132095D01*
X160660951Y-78132095D02*
X160584761Y-78094000D01*
X160584761Y-78094000D02*
X160546666Y-78055904D01*
X160546666Y-78055904D02*
X160508570Y-77979714D01*
X160508570Y-77979714D02*
X160508570Y-77751142D01*
X160508570Y-77751142D02*
X160546666Y-77674952D01*
X160546666Y-77674952D02*
X160584761Y-77636857D01*
X160584761Y-77636857D02*
X160660951Y-77598761D01*
X160660951Y-77598761D02*
X160813332Y-77598761D01*
X160813332Y-77598761D02*
X160889523Y-77636857D01*
X158749048Y-97276095D02*
X159015715Y-98076095D01*
X159015715Y-98076095D02*
X159282381Y-97276095D01*
X159891905Y-98038000D02*
X159815714Y-98076095D01*
X159815714Y-98076095D02*
X159663333Y-98076095D01*
X159663333Y-98076095D02*
X159587143Y-98038000D01*
X159587143Y-98038000D02*
X159549048Y-97999904D01*
X159549048Y-97999904D02*
X159510952Y-97923714D01*
X159510952Y-97923714D02*
X159510952Y-97695142D01*
X159510952Y-97695142D02*
X159549048Y-97618952D01*
X159549048Y-97618952D02*
X159587143Y-97580857D01*
X159587143Y-97580857D02*
X159663333Y-97542761D01*
X159663333Y-97542761D02*
X159815714Y-97542761D01*
X159815714Y-97542761D02*
X159891905Y-97580857D01*
X160577619Y-98038000D02*
X160501428Y-98076095D01*
X160501428Y-98076095D02*
X160349047Y-98076095D01*
X160349047Y-98076095D02*
X160272857Y-98038000D01*
X160272857Y-98038000D02*
X160234762Y-97999904D01*
X160234762Y-97999904D02*
X160196666Y-97923714D01*
X160196666Y-97923714D02*
X160196666Y-97695142D01*
X160196666Y-97695142D02*
X160234762Y-97618952D01*
X160234762Y-97618952D02*
X160272857Y-97580857D01*
X160272857Y-97580857D02*
X160349047Y-97542761D01*
X160349047Y-97542761D02*
X160501428Y-97542761D01*
X160501428Y-97542761D02*
X160577619Y-97580857D01*
X158215713Y-100668095D02*
X158215713Y-99868095D01*
X158215713Y-99868095D02*
X158406189Y-99868095D01*
X158406189Y-99868095D02*
X158520475Y-99906190D01*
X158520475Y-99906190D02*
X158596665Y-99982380D01*
X158596665Y-99982380D02*
X158634760Y-100058571D01*
X158634760Y-100058571D02*
X158672856Y-100210952D01*
X158672856Y-100210952D02*
X158672856Y-100325238D01*
X158672856Y-100325238D02*
X158634760Y-100477619D01*
X158634760Y-100477619D02*
X158596665Y-100553809D01*
X158596665Y-100553809D02*
X158520475Y-100630000D01*
X158520475Y-100630000D02*
X158406189Y-100668095D01*
X158406189Y-100668095D02*
X158215713Y-100668095D01*
X159358570Y-100668095D02*
X159358570Y-100249047D01*
X159358570Y-100249047D02*
X159320475Y-100172857D01*
X159320475Y-100172857D02*
X159244284Y-100134761D01*
X159244284Y-100134761D02*
X159091903Y-100134761D01*
X159091903Y-100134761D02*
X159015713Y-100172857D01*
X159358570Y-100630000D02*
X159282379Y-100668095D01*
X159282379Y-100668095D02*
X159091903Y-100668095D01*
X159091903Y-100668095D02*
X159015713Y-100630000D01*
X159015713Y-100630000D02*
X158977617Y-100553809D01*
X158977617Y-100553809D02*
X158977617Y-100477619D01*
X158977617Y-100477619D02*
X159015713Y-100401428D01*
X159015713Y-100401428D02*
X159091903Y-100363333D01*
X159091903Y-100363333D02*
X159282379Y-100363333D01*
X159282379Y-100363333D02*
X159358570Y-100325238D01*
X159625237Y-100134761D02*
X159929999Y-100134761D01*
X159739523Y-99868095D02*
X159739523Y-100553809D01*
X159739523Y-100553809D02*
X159777618Y-100630000D01*
X159777618Y-100630000D02*
X159853808Y-100668095D01*
X159853808Y-100668095D02*
X159929999Y-100668095D01*
X160539523Y-100668095D02*
X160539523Y-100249047D01*
X160539523Y-100249047D02*
X160501428Y-100172857D01*
X160501428Y-100172857D02*
X160425237Y-100134761D01*
X160425237Y-100134761D02*
X160272856Y-100134761D01*
X160272856Y-100134761D02*
X160196666Y-100172857D01*
X160539523Y-100630000D02*
X160463332Y-100668095D01*
X160463332Y-100668095D02*
X160272856Y-100668095D01*
X160272856Y-100668095D02*
X160196666Y-100630000D01*
X160196666Y-100630000D02*
X160158570Y-100553809D01*
X160158570Y-100553809D02*
X160158570Y-100477619D01*
X160158570Y-100477619D02*
X160196666Y-100401428D01*
X160196666Y-100401428D02*
X160272856Y-100363333D01*
X160272856Y-100363333D02*
X160463332Y-100363333D01*
X160463332Y-100363333D02*
X160539523Y-100325238D01*
X159510952Y-103183904D02*
X159472856Y-103222000D01*
X159472856Y-103222000D02*
X159358571Y-103260095D01*
X159358571Y-103260095D02*
X159282380Y-103260095D01*
X159282380Y-103260095D02*
X159168094Y-103222000D01*
X159168094Y-103222000D02*
X159091904Y-103145809D01*
X159091904Y-103145809D02*
X159053809Y-103069619D01*
X159053809Y-103069619D02*
X159015713Y-102917238D01*
X159015713Y-102917238D02*
X159015713Y-102802952D01*
X159015713Y-102802952D02*
X159053809Y-102650571D01*
X159053809Y-102650571D02*
X159091904Y-102574380D01*
X159091904Y-102574380D02*
X159168094Y-102498190D01*
X159168094Y-102498190D02*
X159282380Y-102460095D01*
X159282380Y-102460095D02*
X159358571Y-102460095D01*
X159358571Y-102460095D02*
X159472856Y-102498190D01*
X159472856Y-102498190D02*
X159510952Y-102536285D01*
X159968094Y-103260095D02*
X159891904Y-103222000D01*
X159891904Y-103222000D02*
X159853809Y-103145809D01*
X159853809Y-103145809D02*
X159853809Y-102460095D01*
X160272857Y-103260095D02*
X160272857Y-102460095D01*
X160349047Y-102955333D02*
X160577619Y-103260095D01*
X160577619Y-102726761D02*
X160272857Y-103031523D01*
X159091903Y-105090190D02*
X159015713Y-105052095D01*
X159015713Y-105052095D02*
X158901427Y-105052095D01*
X158901427Y-105052095D02*
X158787141Y-105090190D01*
X158787141Y-105090190D02*
X158710951Y-105166380D01*
X158710951Y-105166380D02*
X158672856Y-105242571D01*
X158672856Y-105242571D02*
X158634760Y-105394952D01*
X158634760Y-105394952D02*
X158634760Y-105509238D01*
X158634760Y-105509238D02*
X158672856Y-105661619D01*
X158672856Y-105661619D02*
X158710951Y-105737809D01*
X158710951Y-105737809D02*
X158787141Y-105814000D01*
X158787141Y-105814000D02*
X158901427Y-105852095D01*
X158901427Y-105852095D02*
X158977618Y-105852095D01*
X158977618Y-105852095D02*
X159091903Y-105814000D01*
X159091903Y-105814000D02*
X159129999Y-105775904D01*
X159129999Y-105775904D02*
X159129999Y-105509238D01*
X159129999Y-105509238D02*
X158977618Y-105509238D01*
X159472856Y-105318761D02*
X159472856Y-105852095D01*
X159472856Y-105394952D02*
X159510951Y-105356857D01*
X159510951Y-105356857D02*
X159587141Y-105318761D01*
X159587141Y-105318761D02*
X159701427Y-105318761D01*
X159701427Y-105318761D02*
X159777618Y-105356857D01*
X159777618Y-105356857D02*
X159815713Y-105433047D01*
X159815713Y-105433047D02*
X159815713Y-105852095D01*
X160539523Y-105852095D02*
X160539523Y-105052095D01*
X160539523Y-105814000D02*
X160463332Y-105852095D01*
X160463332Y-105852095D02*
X160310951Y-105852095D01*
X160310951Y-105852095D02*
X160234761Y-105814000D01*
X160234761Y-105814000D02*
X160196666Y-105775904D01*
X160196666Y-105775904D02*
X160158570Y-105699714D01*
X160158570Y-105699714D02*
X160158570Y-105471142D01*
X160158570Y-105471142D02*
X160196666Y-105394952D01*
X160196666Y-105394952D02*
X160234761Y-105356857D01*
X160234761Y-105356857D02*
X160310951Y-105318761D01*
X160310951Y-105318761D02*
X160463332Y-105318761D01*
X160463332Y-105318761D02*
X160539523Y-105356857D01*
X122009523Y-84814190D02*
X121933333Y-84776095D01*
X121933333Y-84776095D02*
X121819047Y-84776095D01*
X121819047Y-84776095D02*
X121704761Y-84814190D01*
X121704761Y-84814190D02*
X121628571Y-84890380D01*
X121628571Y-84890380D02*
X121590476Y-84966571D01*
X121590476Y-84966571D02*
X121552380Y-85118952D01*
X121552380Y-85118952D02*
X121552380Y-85233238D01*
X121552380Y-85233238D02*
X121590476Y-85385619D01*
X121590476Y-85385619D02*
X121628571Y-85461809D01*
X121628571Y-85461809D02*
X121704761Y-85538000D01*
X121704761Y-85538000D02*
X121819047Y-85576095D01*
X121819047Y-85576095D02*
X121895238Y-85576095D01*
X121895238Y-85576095D02*
X122009523Y-85538000D01*
X122009523Y-85538000D02*
X122047619Y-85499904D01*
X122047619Y-85499904D02*
X122047619Y-85233238D01*
X122047619Y-85233238D02*
X121895238Y-85233238D01*
X122390476Y-85042761D02*
X122390476Y-85576095D01*
X122390476Y-85118952D02*
X122428571Y-85080857D01*
X122428571Y-85080857D02*
X122504761Y-85042761D01*
X122504761Y-85042761D02*
X122619047Y-85042761D01*
X122619047Y-85042761D02*
X122695238Y-85080857D01*
X122695238Y-85080857D02*
X122733333Y-85157047D01*
X122733333Y-85157047D02*
X122733333Y-85576095D01*
X123457143Y-85576095D02*
X123457143Y-84776095D01*
X123457143Y-85538000D02*
X123380952Y-85576095D01*
X123380952Y-85576095D02*
X123228571Y-85576095D01*
X123228571Y-85576095D02*
X123152381Y-85538000D01*
X123152381Y-85538000D02*
X123114286Y-85499904D01*
X123114286Y-85499904D02*
X123076190Y-85423714D01*
X123076190Y-85423714D02*
X123076190Y-85195142D01*
X123076190Y-85195142D02*
X123114286Y-85118952D01*
X123114286Y-85118952D02*
X123152381Y-85080857D01*
X123152381Y-85080857D02*
X123228571Y-85042761D01*
X123228571Y-85042761D02*
X123380952Y-85042761D01*
X123380952Y-85042761D02*
X123457143Y-85080857D01*
X122047619Y-88091904D02*
X122009523Y-88130000D01*
X122009523Y-88130000D02*
X121895238Y-88168095D01*
X121895238Y-88168095D02*
X121819047Y-88168095D01*
X121819047Y-88168095D02*
X121704761Y-88130000D01*
X121704761Y-88130000D02*
X121628571Y-88053809D01*
X121628571Y-88053809D02*
X121590476Y-87977619D01*
X121590476Y-87977619D02*
X121552380Y-87825238D01*
X121552380Y-87825238D02*
X121552380Y-87710952D01*
X121552380Y-87710952D02*
X121590476Y-87558571D01*
X121590476Y-87558571D02*
X121628571Y-87482380D01*
X121628571Y-87482380D02*
X121704761Y-87406190D01*
X121704761Y-87406190D02*
X121819047Y-87368095D01*
X121819047Y-87368095D02*
X121895238Y-87368095D01*
X121895238Y-87368095D02*
X122009523Y-87406190D01*
X122009523Y-87406190D02*
X122047619Y-87444285D01*
X122504761Y-88168095D02*
X122428571Y-88130000D01*
X122428571Y-88130000D02*
X122390476Y-88053809D01*
X122390476Y-88053809D02*
X122390476Y-87368095D01*
X122809524Y-88168095D02*
X122809524Y-87368095D01*
X122885714Y-87863333D02*
X123114286Y-88168095D01*
X123114286Y-87634761D02*
X122809524Y-87939523D01*
X121590476Y-90760095D02*
X121590476Y-89960095D01*
X121590476Y-89960095D02*
X121780952Y-89960095D01*
X121780952Y-89960095D02*
X121895238Y-89998190D01*
X121895238Y-89998190D02*
X121971428Y-90074380D01*
X121971428Y-90074380D02*
X122009523Y-90150571D01*
X122009523Y-90150571D02*
X122047619Y-90302952D01*
X122047619Y-90302952D02*
X122047619Y-90417238D01*
X122047619Y-90417238D02*
X122009523Y-90569619D01*
X122009523Y-90569619D02*
X121971428Y-90645809D01*
X121971428Y-90645809D02*
X121895238Y-90722000D01*
X121895238Y-90722000D02*
X121780952Y-90760095D01*
X121780952Y-90760095D02*
X121590476Y-90760095D01*
X122733333Y-90760095D02*
X122733333Y-90341047D01*
X122733333Y-90341047D02*
X122695238Y-90264857D01*
X122695238Y-90264857D02*
X122619047Y-90226761D01*
X122619047Y-90226761D02*
X122466666Y-90226761D01*
X122466666Y-90226761D02*
X122390476Y-90264857D01*
X122733333Y-90722000D02*
X122657142Y-90760095D01*
X122657142Y-90760095D02*
X122466666Y-90760095D01*
X122466666Y-90760095D02*
X122390476Y-90722000D01*
X122390476Y-90722000D02*
X122352380Y-90645809D01*
X122352380Y-90645809D02*
X122352380Y-90569619D01*
X122352380Y-90569619D02*
X122390476Y-90493428D01*
X122390476Y-90493428D02*
X122466666Y-90455333D01*
X122466666Y-90455333D02*
X122657142Y-90455333D01*
X122657142Y-90455333D02*
X122733333Y-90417238D01*
X123000000Y-90226761D02*
X123304762Y-90226761D01*
X123114286Y-89960095D02*
X123114286Y-90645809D01*
X123114286Y-90645809D02*
X123152381Y-90722000D01*
X123152381Y-90722000D02*
X123228571Y-90760095D01*
X123228571Y-90760095D02*
X123304762Y-90760095D01*
X123914286Y-90760095D02*
X123914286Y-90341047D01*
X123914286Y-90341047D02*
X123876191Y-90264857D01*
X123876191Y-90264857D02*
X123800000Y-90226761D01*
X123800000Y-90226761D02*
X123647619Y-90226761D01*
X123647619Y-90226761D02*
X123571429Y-90264857D01*
X123914286Y-90722000D02*
X123838095Y-90760095D01*
X123838095Y-90760095D02*
X123647619Y-90760095D01*
X123647619Y-90760095D02*
X123571429Y-90722000D01*
X123571429Y-90722000D02*
X123533333Y-90645809D01*
X123533333Y-90645809D02*
X123533333Y-90569619D01*
X123533333Y-90569619D02*
X123571429Y-90493428D01*
X123571429Y-90493428D02*
X123647619Y-90455333D01*
X123647619Y-90455333D02*
X123838095Y-90455333D01*
X123838095Y-90455333D02*
X123914286Y-90417238D01*
X121476190Y-92552095D02*
X121742857Y-93352095D01*
X121742857Y-93352095D02*
X122009523Y-92552095D01*
X122619047Y-93314000D02*
X122542856Y-93352095D01*
X122542856Y-93352095D02*
X122390475Y-93352095D01*
X122390475Y-93352095D02*
X122314285Y-93314000D01*
X122314285Y-93314000D02*
X122276190Y-93275904D01*
X122276190Y-93275904D02*
X122238094Y-93199714D01*
X122238094Y-93199714D02*
X122238094Y-92971142D01*
X122238094Y-92971142D02*
X122276190Y-92894952D01*
X122276190Y-92894952D02*
X122314285Y-92856857D01*
X122314285Y-92856857D02*
X122390475Y-92818761D01*
X122390475Y-92818761D02*
X122542856Y-92818761D01*
X122542856Y-92818761D02*
X122619047Y-92856857D01*
X123304761Y-93314000D02*
X123228570Y-93352095D01*
X123228570Y-93352095D02*
X123076189Y-93352095D01*
X123076189Y-93352095D02*
X122999999Y-93314000D01*
X122999999Y-93314000D02*
X122961904Y-93275904D01*
X122961904Y-93275904D02*
X122923808Y-93199714D01*
X122923808Y-93199714D02*
X122923808Y-92971142D01*
X122923808Y-92971142D02*
X122961904Y-92894952D01*
X122961904Y-92894952D02*
X122999999Y-92856857D01*
X122999999Y-92856857D02*
X123076189Y-92818761D01*
X123076189Y-92818761D02*
X123228570Y-92818761D01*
X123228570Y-92818761D02*
X123304761Y-92856857D01*
D13*
X132981427Y-85012857D02*
X131981427Y-83584285D01*
X131267141Y-85012857D02*
X131267141Y-82012857D01*
X131267141Y-82012857D02*
X132409998Y-82012857D01*
X132409998Y-82012857D02*
X132695713Y-82155714D01*
X132695713Y-82155714D02*
X132838570Y-82298571D01*
X132838570Y-82298571D02*
X132981427Y-82584285D01*
X132981427Y-82584285D02*
X132981427Y-83012857D01*
X132981427Y-83012857D02*
X132838570Y-83298571D01*
X132838570Y-83298571D02*
X132695713Y-83441428D01*
X132695713Y-83441428D02*
X132409998Y-83584285D01*
X132409998Y-83584285D02*
X131267141Y-83584285D01*
X135552856Y-85012857D02*
X135552856Y-83441428D01*
X135552856Y-83441428D02*
X135409998Y-83155714D01*
X135409998Y-83155714D02*
X135124284Y-83012857D01*
X135124284Y-83012857D02*
X134552856Y-83012857D01*
X134552856Y-83012857D02*
X134267141Y-83155714D01*
X135552856Y-84870000D02*
X135267141Y-85012857D01*
X135267141Y-85012857D02*
X134552856Y-85012857D01*
X134552856Y-85012857D02*
X134267141Y-84870000D01*
X134267141Y-84870000D02*
X134124284Y-84584285D01*
X134124284Y-84584285D02*
X134124284Y-84298571D01*
X134124284Y-84298571D02*
X134267141Y-84012857D01*
X134267141Y-84012857D02*
X134552856Y-83870000D01*
X134552856Y-83870000D02*
X135267141Y-83870000D01*
X135267141Y-83870000D02*
X135552856Y-83727142D01*
X136552856Y-83012857D02*
X137695713Y-83012857D01*
X136981427Y-82012857D02*
X136981427Y-84584285D01*
X136981427Y-84584285D02*
X137124284Y-84870000D01*
X137124284Y-84870000D02*
X137409999Y-85012857D01*
X137409999Y-85012857D02*
X137695713Y-85012857D01*
X139981428Y-85012857D02*
X139981428Y-83441428D01*
X139981428Y-83441428D02*
X139838570Y-83155714D01*
X139838570Y-83155714D02*
X139552856Y-83012857D01*
X139552856Y-83012857D02*
X138981428Y-83012857D01*
X138981428Y-83012857D02*
X138695713Y-83155714D01*
X139981428Y-84870000D02*
X139695713Y-85012857D01*
X139695713Y-85012857D02*
X138981428Y-85012857D01*
X138981428Y-85012857D02*
X138695713Y-84870000D01*
X138695713Y-84870000D02*
X138552856Y-84584285D01*
X138552856Y-84584285D02*
X138552856Y-84298571D01*
X138552856Y-84298571D02*
X138695713Y-84012857D01*
X138695713Y-84012857D02*
X138981428Y-83870000D01*
X138981428Y-83870000D02*
X139695713Y-83870000D01*
X139695713Y-83870000D02*
X139981428Y-83727142D01*
X141409999Y-85012857D02*
X141409999Y-83012857D01*
X141409999Y-83298571D02*
X141552856Y-83155714D01*
X141552856Y-83155714D02*
X141838571Y-83012857D01*
X141838571Y-83012857D02*
X142267142Y-83012857D01*
X142267142Y-83012857D02*
X142552856Y-83155714D01*
X142552856Y-83155714D02*
X142695714Y-83441428D01*
X142695714Y-83441428D02*
X142695714Y-85012857D01*
X142695714Y-83441428D02*
X142838571Y-83155714D01*
X142838571Y-83155714D02*
X143124285Y-83012857D01*
X143124285Y-83012857D02*
X143552856Y-83012857D01*
X143552856Y-83012857D02*
X143838571Y-83155714D01*
X143838571Y-83155714D02*
X143981428Y-83441428D01*
X143981428Y-83441428D02*
X143981428Y-85012857D01*
X146695714Y-83012857D02*
X146695714Y-85012857D01*
X145409999Y-83012857D02*
X145409999Y-84584285D01*
X145409999Y-84584285D02*
X145552856Y-84870000D01*
X145552856Y-84870000D02*
X145838571Y-85012857D01*
X145838571Y-85012857D02*
X146267142Y-85012857D01*
X146267142Y-85012857D02*
X146552856Y-84870000D01*
X146552856Y-84870000D02*
X146695714Y-84727142D01*
X147981428Y-84870000D02*
X148267142Y-85012857D01*
X148267142Y-85012857D02*
X148838571Y-85012857D01*
X148838571Y-85012857D02*
X149124285Y-84870000D01*
X149124285Y-84870000D02*
X149267142Y-84584285D01*
X149267142Y-84584285D02*
X149267142Y-84441428D01*
X149267142Y-84441428D02*
X149124285Y-84155714D01*
X149124285Y-84155714D02*
X148838571Y-84012857D01*
X148838571Y-84012857D02*
X148410000Y-84012857D01*
X148410000Y-84012857D02*
X148124285Y-83870000D01*
X148124285Y-83870000D02*
X147981428Y-83584285D01*
X147981428Y-83584285D02*
X147981428Y-83441428D01*
X147981428Y-83441428D02*
X148124285Y-83155714D01*
X148124285Y-83155714D02*
X148410000Y-83012857D01*
X148410000Y-83012857D02*
X148838571Y-83012857D01*
X148838571Y-83012857D02*
X149124285Y-83155714D01*
X151695713Y-84870000D02*
X151409999Y-85012857D01*
X151409999Y-85012857D02*
X150838571Y-85012857D01*
X150838571Y-85012857D02*
X150552856Y-84870000D01*
X150552856Y-84870000D02*
X150409999Y-84584285D01*
X150409999Y-84584285D02*
X150409999Y-83441428D01*
X150409999Y-83441428D02*
X150552856Y-83155714D01*
X150552856Y-83155714D02*
X150838571Y-83012857D01*
X150838571Y-83012857D02*
X151409999Y-83012857D01*
X151409999Y-83012857D02*
X151695713Y-83155714D01*
X151695713Y-83155714D02*
X151838571Y-83441428D01*
X151838571Y-83441428D02*
X151838571Y-83727142D01*
X151838571Y-83727142D02*
X150409999Y-84012857D01*
D14*
%TO.C,J9*%
X122960000Y-68140000D02*
X122960000Y-68340000D01*
X122110000Y-72450000D02*
X127010000Y-72450000D01*
X127010000Y-72450000D02*
X127010000Y-68950000D01*
X121500000Y-70950000D02*
X122110000Y-70950000D01*
X124660000Y-71950000D02*
X124660000Y-72450000D01*
X124060000Y-68340000D02*
X124060000Y-68950000D01*
X122110000Y-68950000D02*
X122110000Y-72450000D01*
X123260000Y-68340000D02*
X123260000Y-68140000D01*
X121500000Y-68340000D02*
X121500000Y-73060000D01*
X127620000Y-68340000D02*
X121500000Y-68340000D01*
X124060000Y-68950000D02*
X122110000Y-68950000D01*
X127620000Y-70950000D02*
X127010000Y-70950000D01*
X127010000Y-68950000D02*
X125060000Y-68950000D01*
X121500000Y-69650000D02*
X122110000Y-69650000D01*
X124560000Y-72450000D02*
X124560000Y-71950000D01*
X124460000Y-71950000D02*
X124660000Y-71950000D01*
X127620000Y-73060000D02*
X127620000Y-68340000D01*
X123260000Y-68240000D02*
X122960000Y-68240000D01*
X125060000Y-68950000D02*
X125060000Y-68340000D01*
X121200000Y-68040000D02*
X121200000Y-69290000D01*
X122450000Y-68040000D02*
X121200000Y-68040000D01*
X121500000Y-73060000D02*
X127620000Y-73060000D01*
X127620000Y-69650000D02*
X127010000Y-69650000D01*
X123260000Y-68140000D02*
X122960000Y-68140000D01*
X124460000Y-72450000D02*
X124460000Y-71950000D01*
D12*
%TO.C,J3*%
X120980000Y-97920000D02*
X120980000Y-107920000D01*
X108980000Y-97920000D02*
X120980000Y-97920000D01*
X120980000Y-107920000D02*
X108980000Y-107920000D01*
X108980000Y-107920000D02*
X108980000Y-97920000D01*
D14*
%TO.C,J1*%
X125080000Y-82240000D02*
X126410000Y-82240000D01*
X125080000Y-83570000D02*
X125080000Y-82240000D01*
X125080000Y-84840000D02*
X125080000Y-107760000D01*
X125080000Y-84840000D02*
X127740000Y-84840000D01*
X125080000Y-107760000D02*
X127740000Y-107760000D01*
X127740000Y-84840000D02*
X127740000Y-107760000D01*
D12*
%TO.C,J8*%
X120850000Y-70330000D02*
X120850000Y-80330000D01*
X108850000Y-70330000D02*
X120850000Y-70330000D01*
X120850000Y-80330000D02*
X108850000Y-80330000D01*
X108850000Y-80330000D02*
X108850000Y-70330000D01*
D14*
%TO.C,J2*%
X155280000Y-82240000D02*
X156610000Y-82240000D01*
X155280000Y-83570000D02*
X155280000Y-82240000D01*
X155280000Y-84840000D02*
X155280000Y-107760000D01*
X155280000Y-84840000D02*
X157940000Y-84840000D01*
X155280000Y-107760000D02*
X157940000Y-107760000D01*
X157940000Y-84840000D02*
X157940000Y-107760000D01*
D12*
%TO.C,J7*%
X161730000Y-79020000D02*
X161730000Y-69020000D01*
X173730000Y-79020000D02*
X161730000Y-79020000D01*
X161730000Y-69020000D02*
X173730000Y-69020000D01*
X173730000Y-69020000D02*
X173730000Y-79020000D01*
%TO.C,J4*%
X120900000Y-84080000D02*
X120900000Y-94080000D01*
X108900000Y-84080000D02*
X120900000Y-84080000D01*
X120900000Y-94080000D02*
X108900000Y-94080000D01*
X108900000Y-94080000D02*
X108900000Y-84080000D01*
%TO.C,J6*%
X161730000Y-92820000D02*
X161730000Y-82820000D01*
X173730000Y-92820000D02*
X161730000Y-92820000D01*
X161730000Y-82820000D02*
X173730000Y-82820000D01*
X173730000Y-82820000D02*
X173730000Y-92820000D01*
%TO.C,J5*%
X161710000Y-106580000D02*
X161710000Y-96580000D01*
X173710000Y-106580000D02*
X161710000Y-106580000D01*
X161710000Y-96580000D02*
X173710000Y-96580000D01*
X173710000Y-96580000D02*
X173710000Y-106580000D01*
%TD*%
M02*
