%TF.GenerationSoftware,KiCad,Pcbnew,7.0.2*%
%TF.CreationDate,2024-03-24T23:04:52+01:00*%
%TF.ProjectId,Support_TTGO_invers_,53757070-6f72-4745-9f54-54474f5f696e,rev?*%
%TF.SameCoordinates,Original*%
%TF.FileFunction,Legend,Bot*%
%TF.FilePolarity,Positive*%
%FSLAX46Y46*%
G04 Gerber Fmt 4.6, Leading zero omitted, Abs format (unit mm)*
G04 Created by KiCad (PCBNEW 7.0.2) date 2024-03-24 23:04:52*
%MOMM*%
%LPD*%
G01*
G04 APERTURE LIST*
%ADD10C,0.150000*%
%ADD11C,0.500000*%
%ADD12C,0.120000*%
%ADD13C,0.010000*%
G04 APERTURE END LIST*
D10*
X110678096Y-84754190D02*
X110754286Y-84716095D01*
X110754286Y-84716095D02*
X110868572Y-84716095D01*
X110868572Y-84716095D02*
X110982858Y-84754190D01*
X110982858Y-84754190D02*
X111059048Y-84830380D01*
X111059048Y-84830380D02*
X111097143Y-84906571D01*
X111097143Y-84906571D02*
X111135239Y-85058952D01*
X111135239Y-85058952D02*
X111135239Y-85173238D01*
X111135239Y-85173238D02*
X111097143Y-85325619D01*
X111097143Y-85325619D02*
X111059048Y-85401809D01*
X111059048Y-85401809D02*
X110982858Y-85478000D01*
X110982858Y-85478000D02*
X110868572Y-85516095D01*
X110868572Y-85516095D02*
X110792381Y-85516095D01*
X110792381Y-85516095D02*
X110678096Y-85478000D01*
X110678096Y-85478000D02*
X110640000Y-85439904D01*
X110640000Y-85439904D02*
X110640000Y-85173238D01*
X110640000Y-85173238D02*
X110792381Y-85173238D01*
X110297143Y-84982761D02*
X110297143Y-85516095D01*
X110297143Y-85058952D02*
X110259048Y-85020857D01*
X110259048Y-85020857D02*
X110182858Y-84982761D01*
X110182858Y-84982761D02*
X110068572Y-84982761D01*
X110068572Y-84982761D02*
X109992381Y-85020857D01*
X109992381Y-85020857D02*
X109954286Y-85097047D01*
X109954286Y-85097047D02*
X109954286Y-85516095D01*
X109230476Y-85516095D02*
X109230476Y-84716095D01*
X109230476Y-85478000D02*
X109306667Y-85516095D01*
X109306667Y-85516095D02*
X109459048Y-85516095D01*
X109459048Y-85516095D02*
X109535238Y-85478000D01*
X109535238Y-85478000D02*
X109573333Y-85439904D01*
X109573333Y-85439904D02*
X109611429Y-85363714D01*
X109611429Y-85363714D02*
X109611429Y-85135142D01*
X109611429Y-85135142D02*
X109573333Y-85058952D01*
X109573333Y-85058952D02*
X109535238Y-85020857D01*
X109535238Y-85020857D02*
X109459048Y-84982761D01*
X109459048Y-84982761D02*
X109306667Y-84982761D01*
X109306667Y-84982761D02*
X109230476Y-85020857D01*
X110259047Y-88031904D02*
X110297143Y-88070000D01*
X110297143Y-88070000D02*
X110411428Y-88108095D01*
X110411428Y-88108095D02*
X110487619Y-88108095D01*
X110487619Y-88108095D02*
X110601905Y-88070000D01*
X110601905Y-88070000D02*
X110678095Y-87993809D01*
X110678095Y-87993809D02*
X110716190Y-87917619D01*
X110716190Y-87917619D02*
X110754286Y-87765238D01*
X110754286Y-87765238D02*
X110754286Y-87650952D01*
X110754286Y-87650952D02*
X110716190Y-87498571D01*
X110716190Y-87498571D02*
X110678095Y-87422380D01*
X110678095Y-87422380D02*
X110601905Y-87346190D01*
X110601905Y-87346190D02*
X110487619Y-87308095D01*
X110487619Y-87308095D02*
X110411428Y-87308095D01*
X110411428Y-87308095D02*
X110297143Y-87346190D01*
X110297143Y-87346190D02*
X110259047Y-87384285D01*
X109801905Y-88108095D02*
X109878095Y-88070000D01*
X109878095Y-88070000D02*
X109916190Y-87993809D01*
X109916190Y-87993809D02*
X109916190Y-87308095D01*
X109497142Y-88108095D02*
X109497142Y-87308095D01*
X109420952Y-87803333D02*
X109192380Y-88108095D01*
X109192380Y-87574761D02*
X109497142Y-87879523D01*
X111554286Y-90700095D02*
X111554286Y-89900095D01*
X111554286Y-89900095D02*
X111363810Y-89900095D01*
X111363810Y-89900095D02*
X111249524Y-89938190D01*
X111249524Y-89938190D02*
X111173334Y-90014380D01*
X111173334Y-90014380D02*
X111135239Y-90090571D01*
X111135239Y-90090571D02*
X111097143Y-90242952D01*
X111097143Y-90242952D02*
X111097143Y-90357238D01*
X111097143Y-90357238D02*
X111135239Y-90509619D01*
X111135239Y-90509619D02*
X111173334Y-90585809D01*
X111173334Y-90585809D02*
X111249524Y-90662000D01*
X111249524Y-90662000D02*
X111363810Y-90700095D01*
X111363810Y-90700095D02*
X111554286Y-90700095D01*
X110411429Y-90700095D02*
X110411429Y-90281047D01*
X110411429Y-90281047D02*
X110449524Y-90204857D01*
X110449524Y-90204857D02*
X110525715Y-90166761D01*
X110525715Y-90166761D02*
X110678096Y-90166761D01*
X110678096Y-90166761D02*
X110754286Y-90204857D01*
X110411429Y-90662000D02*
X110487620Y-90700095D01*
X110487620Y-90700095D02*
X110678096Y-90700095D01*
X110678096Y-90700095D02*
X110754286Y-90662000D01*
X110754286Y-90662000D02*
X110792382Y-90585809D01*
X110792382Y-90585809D02*
X110792382Y-90509619D01*
X110792382Y-90509619D02*
X110754286Y-90433428D01*
X110754286Y-90433428D02*
X110678096Y-90395333D01*
X110678096Y-90395333D02*
X110487620Y-90395333D01*
X110487620Y-90395333D02*
X110411429Y-90357238D01*
X110144762Y-90166761D02*
X109840000Y-90166761D01*
X110030476Y-89900095D02*
X110030476Y-90585809D01*
X110030476Y-90585809D02*
X109992381Y-90662000D01*
X109992381Y-90662000D02*
X109916191Y-90700095D01*
X109916191Y-90700095D02*
X109840000Y-90700095D01*
X109230476Y-90700095D02*
X109230476Y-90281047D01*
X109230476Y-90281047D02*
X109268571Y-90204857D01*
X109268571Y-90204857D02*
X109344762Y-90166761D01*
X109344762Y-90166761D02*
X109497143Y-90166761D01*
X109497143Y-90166761D02*
X109573333Y-90204857D01*
X109230476Y-90662000D02*
X109306667Y-90700095D01*
X109306667Y-90700095D02*
X109497143Y-90700095D01*
X109497143Y-90700095D02*
X109573333Y-90662000D01*
X109573333Y-90662000D02*
X109611429Y-90585809D01*
X109611429Y-90585809D02*
X109611429Y-90509619D01*
X109611429Y-90509619D02*
X109573333Y-90433428D01*
X109573333Y-90433428D02*
X109497143Y-90395333D01*
X109497143Y-90395333D02*
X109306667Y-90395333D01*
X109306667Y-90395333D02*
X109230476Y-90357238D01*
X111020951Y-92492095D02*
X110754284Y-93292095D01*
X110754284Y-93292095D02*
X110487618Y-92492095D01*
X109878094Y-93254000D02*
X109954285Y-93292095D01*
X109954285Y-93292095D02*
X110106666Y-93292095D01*
X110106666Y-93292095D02*
X110182856Y-93254000D01*
X110182856Y-93254000D02*
X110220951Y-93215904D01*
X110220951Y-93215904D02*
X110259047Y-93139714D01*
X110259047Y-93139714D02*
X110259047Y-92911142D01*
X110259047Y-92911142D02*
X110220951Y-92834952D01*
X110220951Y-92834952D02*
X110182856Y-92796857D01*
X110182856Y-92796857D02*
X110106666Y-92758761D01*
X110106666Y-92758761D02*
X109954285Y-92758761D01*
X109954285Y-92758761D02*
X109878094Y-92796857D01*
X109192380Y-93254000D02*
X109268571Y-93292095D01*
X109268571Y-93292095D02*
X109420952Y-93292095D01*
X109420952Y-93292095D02*
X109497142Y-93254000D01*
X109497142Y-93254000D02*
X109535237Y-93215904D01*
X109535237Y-93215904D02*
X109573333Y-93139714D01*
X109573333Y-93139714D02*
X109573333Y-92911142D01*
X109573333Y-92911142D02*
X109535237Y-92834952D01*
X109535237Y-92834952D02*
X109497142Y-92796857D01*
X109497142Y-92796857D02*
X109420952Y-92758761D01*
X109420952Y-92758761D02*
X109268571Y-92758761D01*
X109268571Y-92758761D02*
X109192380Y-92796857D01*
X173090951Y-72198095D02*
X172824284Y-72998095D01*
X172824284Y-72998095D02*
X172557618Y-72198095D01*
X171948094Y-72960000D02*
X172024285Y-72998095D01*
X172024285Y-72998095D02*
X172176666Y-72998095D01*
X172176666Y-72998095D02*
X172252856Y-72960000D01*
X172252856Y-72960000D02*
X172290951Y-72921904D01*
X172290951Y-72921904D02*
X172329047Y-72845714D01*
X172329047Y-72845714D02*
X172329047Y-72617142D01*
X172329047Y-72617142D02*
X172290951Y-72540952D01*
X172290951Y-72540952D02*
X172252856Y-72502857D01*
X172252856Y-72502857D02*
X172176666Y-72464761D01*
X172176666Y-72464761D02*
X172024285Y-72464761D01*
X172024285Y-72464761D02*
X171948094Y-72502857D01*
X171262380Y-72960000D02*
X171338571Y-72998095D01*
X171338571Y-72998095D02*
X171490952Y-72998095D01*
X171490952Y-72998095D02*
X171567142Y-72960000D01*
X171567142Y-72960000D02*
X171605237Y-72921904D01*
X171605237Y-72921904D02*
X171643333Y-72845714D01*
X171643333Y-72845714D02*
X171643333Y-72617142D01*
X171643333Y-72617142D02*
X171605237Y-72540952D01*
X171605237Y-72540952D02*
X171567142Y-72502857D01*
X171567142Y-72502857D02*
X171490952Y-72464761D01*
X171490952Y-72464761D02*
X171338571Y-72464761D01*
X171338571Y-72464761D02*
X171262380Y-72502857D01*
X173624286Y-75590095D02*
X173624286Y-74790095D01*
X173624286Y-74790095D02*
X173433810Y-74790095D01*
X173433810Y-74790095D02*
X173319524Y-74828190D01*
X173319524Y-74828190D02*
X173243334Y-74904380D01*
X173243334Y-74904380D02*
X173205239Y-74980571D01*
X173205239Y-74980571D02*
X173167143Y-75132952D01*
X173167143Y-75132952D02*
X173167143Y-75247238D01*
X173167143Y-75247238D02*
X173205239Y-75399619D01*
X173205239Y-75399619D02*
X173243334Y-75475809D01*
X173243334Y-75475809D02*
X173319524Y-75552000D01*
X173319524Y-75552000D02*
X173433810Y-75590095D01*
X173433810Y-75590095D02*
X173624286Y-75590095D01*
X172481429Y-75590095D02*
X172481429Y-75171047D01*
X172481429Y-75171047D02*
X172519524Y-75094857D01*
X172519524Y-75094857D02*
X172595715Y-75056761D01*
X172595715Y-75056761D02*
X172748096Y-75056761D01*
X172748096Y-75056761D02*
X172824286Y-75094857D01*
X172481429Y-75552000D02*
X172557620Y-75590095D01*
X172557620Y-75590095D02*
X172748096Y-75590095D01*
X172748096Y-75590095D02*
X172824286Y-75552000D01*
X172824286Y-75552000D02*
X172862382Y-75475809D01*
X172862382Y-75475809D02*
X172862382Y-75399619D01*
X172862382Y-75399619D02*
X172824286Y-75323428D01*
X172824286Y-75323428D02*
X172748096Y-75285333D01*
X172748096Y-75285333D02*
X172557620Y-75285333D01*
X172557620Y-75285333D02*
X172481429Y-75247238D01*
X172214762Y-75056761D02*
X171910000Y-75056761D01*
X172100476Y-74790095D02*
X172100476Y-75475809D01*
X172100476Y-75475809D02*
X172062381Y-75552000D01*
X172062381Y-75552000D02*
X171986191Y-75590095D01*
X171986191Y-75590095D02*
X171910000Y-75590095D01*
X171300476Y-75590095D02*
X171300476Y-75171047D01*
X171300476Y-75171047D02*
X171338571Y-75094857D01*
X171338571Y-75094857D02*
X171414762Y-75056761D01*
X171414762Y-75056761D02*
X171567143Y-75056761D01*
X171567143Y-75056761D02*
X171643333Y-75094857D01*
X171300476Y-75552000D02*
X171376667Y-75590095D01*
X171376667Y-75590095D02*
X171567143Y-75590095D01*
X171567143Y-75590095D02*
X171643333Y-75552000D01*
X171643333Y-75552000D02*
X171681429Y-75475809D01*
X171681429Y-75475809D02*
X171681429Y-75399619D01*
X171681429Y-75399619D02*
X171643333Y-75323428D01*
X171643333Y-75323428D02*
X171567143Y-75285333D01*
X171567143Y-75285333D02*
X171376667Y-75285333D01*
X171376667Y-75285333D02*
X171300476Y-75247238D01*
X172748096Y-77420190D02*
X172824286Y-77382095D01*
X172824286Y-77382095D02*
X172938572Y-77382095D01*
X172938572Y-77382095D02*
X173052858Y-77420190D01*
X173052858Y-77420190D02*
X173129048Y-77496380D01*
X173129048Y-77496380D02*
X173167143Y-77572571D01*
X173167143Y-77572571D02*
X173205239Y-77724952D01*
X173205239Y-77724952D02*
X173205239Y-77839238D01*
X173205239Y-77839238D02*
X173167143Y-77991619D01*
X173167143Y-77991619D02*
X173129048Y-78067809D01*
X173129048Y-78067809D02*
X173052858Y-78144000D01*
X173052858Y-78144000D02*
X172938572Y-78182095D01*
X172938572Y-78182095D02*
X172862381Y-78182095D01*
X172862381Y-78182095D02*
X172748096Y-78144000D01*
X172748096Y-78144000D02*
X172710000Y-78105904D01*
X172710000Y-78105904D02*
X172710000Y-77839238D01*
X172710000Y-77839238D02*
X172862381Y-77839238D01*
X172367143Y-77648761D02*
X172367143Y-78182095D01*
X172367143Y-77724952D02*
X172329048Y-77686857D01*
X172329048Y-77686857D02*
X172252858Y-77648761D01*
X172252858Y-77648761D02*
X172138572Y-77648761D01*
X172138572Y-77648761D02*
X172062381Y-77686857D01*
X172062381Y-77686857D02*
X172024286Y-77763047D01*
X172024286Y-77763047D02*
X172024286Y-78182095D01*
X171300476Y-78182095D02*
X171300476Y-77382095D01*
X171300476Y-78144000D02*
X171376667Y-78182095D01*
X171376667Y-78182095D02*
X171529048Y-78182095D01*
X171529048Y-78182095D02*
X171605238Y-78144000D01*
X171605238Y-78144000D02*
X171643333Y-78105904D01*
X171643333Y-78105904D02*
X171681429Y-78029714D01*
X171681429Y-78029714D02*
X171681429Y-77801142D01*
X171681429Y-77801142D02*
X171643333Y-77724952D01*
X171643333Y-77724952D02*
X171605238Y-77686857D01*
X171605238Y-77686857D02*
X171529048Y-77648761D01*
X171529048Y-77648761D02*
X171376667Y-77648761D01*
X171376667Y-77648761D02*
X171300476Y-77686857D01*
X124279523Y-86036095D02*
X124279523Y-85236095D01*
X123746190Y-85236095D02*
X123593809Y-85236095D01*
X123593809Y-85236095D02*
X123517619Y-85274190D01*
X123517619Y-85274190D02*
X123441428Y-85350380D01*
X123441428Y-85350380D02*
X123403333Y-85502761D01*
X123403333Y-85502761D02*
X123403333Y-85769428D01*
X123403333Y-85769428D02*
X123441428Y-85921809D01*
X123441428Y-85921809D02*
X123517619Y-85998000D01*
X123517619Y-85998000D02*
X123593809Y-86036095D01*
X123593809Y-86036095D02*
X123746190Y-86036095D01*
X123746190Y-86036095D02*
X123822381Y-85998000D01*
X123822381Y-85998000D02*
X123898571Y-85921809D01*
X123898571Y-85921809D02*
X123936667Y-85769428D01*
X123936667Y-85769428D02*
X123936667Y-85502761D01*
X123936667Y-85502761D02*
X123898571Y-85350380D01*
X123898571Y-85350380D02*
X123822381Y-85274190D01*
X123822381Y-85274190D02*
X123746190Y-85236095D01*
X123250953Y-86112285D02*
X122641429Y-86112285D01*
X122108095Y-85502761D02*
X122108095Y-86036095D01*
X122298571Y-85198000D02*
X122489048Y-85769428D01*
X122489048Y-85769428D02*
X121993809Y-85769428D01*
X121346190Y-85236095D02*
X121498571Y-85236095D01*
X121498571Y-85236095D02*
X121574762Y-85274190D01*
X121574762Y-85274190D02*
X121612857Y-85312285D01*
X121612857Y-85312285D02*
X121689047Y-85426571D01*
X121689047Y-85426571D02*
X121727143Y-85578952D01*
X121727143Y-85578952D02*
X121727143Y-85883714D01*
X121727143Y-85883714D02*
X121689047Y-85959904D01*
X121689047Y-85959904D02*
X121650952Y-85998000D01*
X121650952Y-85998000D02*
X121574762Y-86036095D01*
X121574762Y-86036095D02*
X121422381Y-86036095D01*
X121422381Y-86036095D02*
X121346190Y-85998000D01*
X121346190Y-85998000D02*
X121308095Y-85959904D01*
X121308095Y-85959904D02*
X121270000Y-85883714D01*
X121270000Y-85883714D02*
X121270000Y-85693238D01*
X121270000Y-85693238D02*
X121308095Y-85617047D01*
X121308095Y-85617047D02*
X121346190Y-85578952D01*
X121346190Y-85578952D02*
X121422381Y-85540857D01*
X121422381Y-85540857D02*
X121574762Y-85540857D01*
X121574762Y-85540857D02*
X121650952Y-85578952D01*
X121650952Y-85578952D02*
X121689047Y-85617047D01*
X121689047Y-85617047D02*
X121727143Y-85693238D01*
X124279523Y-88628095D02*
X124279523Y-87828095D01*
X123746190Y-87828095D02*
X123593809Y-87828095D01*
X123593809Y-87828095D02*
X123517619Y-87866190D01*
X123517619Y-87866190D02*
X123441428Y-87942380D01*
X123441428Y-87942380D02*
X123403333Y-88094761D01*
X123403333Y-88094761D02*
X123403333Y-88361428D01*
X123403333Y-88361428D02*
X123441428Y-88513809D01*
X123441428Y-88513809D02*
X123517619Y-88590000D01*
X123517619Y-88590000D02*
X123593809Y-88628095D01*
X123593809Y-88628095D02*
X123746190Y-88628095D01*
X123746190Y-88628095D02*
X123822381Y-88590000D01*
X123822381Y-88590000D02*
X123898571Y-88513809D01*
X123898571Y-88513809D02*
X123936667Y-88361428D01*
X123936667Y-88361428D02*
X123936667Y-88094761D01*
X123936667Y-88094761D02*
X123898571Y-87942380D01*
X123898571Y-87942380D02*
X123822381Y-87866190D01*
X123822381Y-87866190D02*
X123746190Y-87828095D01*
X123250953Y-88704285D02*
X122641429Y-88704285D01*
X122298571Y-87828095D02*
X122222381Y-87828095D01*
X122222381Y-87828095D02*
X122146190Y-87866190D01*
X122146190Y-87866190D02*
X122108095Y-87904285D01*
X122108095Y-87904285D02*
X122070000Y-87980476D01*
X122070000Y-87980476D02*
X122031905Y-88132857D01*
X122031905Y-88132857D02*
X122031905Y-88323333D01*
X122031905Y-88323333D02*
X122070000Y-88475714D01*
X122070000Y-88475714D02*
X122108095Y-88551904D01*
X122108095Y-88551904D02*
X122146190Y-88590000D01*
X122146190Y-88590000D02*
X122222381Y-88628095D01*
X122222381Y-88628095D02*
X122298571Y-88628095D01*
X122298571Y-88628095D02*
X122374762Y-88590000D01*
X122374762Y-88590000D02*
X122412857Y-88551904D01*
X122412857Y-88551904D02*
X122450952Y-88475714D01*
X122450952Y-88475714D02*
X122489048Y-88323333D01*
X122489048Y-88323333D02*
X122489048Y-88132857D01*
X122489048Y-88132857D02*
X122450952Y-87980476D01*
X122450952Y-87980476D02*
X122412857Y-87904285D01*
X122412857Y-87904285D02*
X122374762Y-87866190D01*
X122374762Y-87866190D02*
X122298571Y-87828095D01*
X121650952Y-88628095D02*
X121498571Y-88628095D01*
X121498571Y-88628095D02*
X121422381Y-88590000D01*
X121422381Y-88590000D02*
X121384285Y-88551904D01*
X121384285Y-88551904D02*
X121308095Y-88437619D01*
X121308095Y-88437619D02*
X121270000Y-88285238D01*
X121270000Y-88285238D02*
X121270000Y-87980476D01*
X121270000Y-87980476D02*
X121308095Y-87904285D01*
X121308095Y-87904285D02*
X121346190Y-87866190D01*
X121346190Y-87866190D02*
X121422381Y-87828095D01*
X121422381Y-87828095D02*
X121574762Y-87828095D01*
X121574762Y-87828095D02*
X121650952Y-87866190D01*
X121650952Y-87866190D02*
X121689047Y-87904285D01*
X121689047Y-87904285D02*
X121727143Y-87980476D01*
X121727143Y-87980476D02*
X121727143Y-88170952D01*
X121727143Y-88170952D02*
X121689047Y-88247142D01*
X121689047Y-88247142D02*
X121650952Y-88285238D01*
X121650952Y-88285238D02*
X121574762Y-88323333D01*
X121574762Y-88323333D02*
X121422381Y-88323333D01*
X121422381Y-88323333D02*
X121346190Y-88285238D01*
X121346190Y-88285238D02*
X121308095Y-88247142D01*
X121308095Y-88247142D02*
X121270000Y-88170952D01*
X124279523Y-91220095D02*
X124279523Y-90420095D01*
X123746190Y-90420095D02*
X123593809Y-90420095D01*
X123593809Y-90420095D02*
X123517619Y-90458190D01*
X123517619Y-90458190D02*
X123441428Y-90534380D01*
X123441428Y-90534380D02*
X123403333Y-90686761D01*
X123403333Y-90686761D02*
X123403333Y-90953428D01*
X123403333Y-90953428D02*
X123441428Y-91105809D01*
X123441428Y-91105809D02*
X123517619Y-91182000D01*
X123517619Y-91182000D02*
X123593809Y-91220095D01*
X123593809Y-91220095D02*
X123746190Y-91220095D01*
X123746190Y-91220095D02*
X123822381Y-91182000D01*
X123822381Y-91182000D02*
X123898571Y-91105809D01*
X123898571Y-91105809D02*
X123936667Y-90953428D01*
X123936667Y-90953428D02*
X123936667Y-90686761D01*
X123936667Y-90686761D02*
X123898571Y-90534380D01*
X123898571Y-90534380D02*
X123822381Y-90458190D01*
X123822381Y-90458190D02*
X123746190Y-90420095D01*
X123250953Y-91296285D02*
X122641429Y-91296285D01*
X122031905Y-91220095D02*
X122489048Y-91220095D01*
X122260476Y-91220095D02*
X122260476Y-90420095D01*
X122260476Y-90420095D02*
X122336667Y-90534380D01*
X122336667Y-90534380D02*
X122412857Y-90610571D01*
X122412857Y-90610571D02*
X122489048Y-90648666D01*
X121536666Y-90420095D02*
X121460476Y-90420095D01*
X121460476Y-90420095D02*
X121384285Y-90458190D01*
X121384285Y-90458190D02*
X121346190Y-90496285D01*
X121346190Y-90496285D02*
X121308095Y-90572476D01*
X121308095Y-90572476D02*
X121270000Y-90724857D01*
X121270000Y-90724857D02*
X121270000Y-90915333D01*
X121270000Y-90915333D02*
X121308095Y-91067714D01*
X121308095Y-91067714D02*
X121346190Y-91143904D01*
X121346190Y-91143904D02*
X121384285Y-91182000D01*
X121384285Y-91182000D02*
X121460476Y-91220095D01*
X121460476Y-91220095D02*
X121536666Y-91220095D01*
X121536666Y-91220095D02*
X121612857Y-91182000D01*
X121612857Y-91182000D02*
X121650952Y-91143904D01*
X121650952Y-91143904D02*
X121689047Y-91067714D01*
X121689047Y-91067714D02*
X121727143Y-90915333D01*
X121727143Y-90915333D02*
X121727143Y-90724857D01*
X121727143Y-90724857D02*
X121689047Y-90572476D01*
X121689047Y-90572476D02*
X121650952Y-90496285D01*
X121650952Y-90496285D02*
X121612857Y-90458190D01*
X121612857Y-90458190D02*
X121536666Y-90420095D01*
X124279523Y-93812095D02*
X124279523Y-93012095D01*
X123746190Y-93012095D02*
X123593809Y-93012095D01*
X123593809Y-93012095D02*
X123517619Y-93050190D01*
X123517619Y-93050190D02*
X123441428Y-93126380D01*
X123441428Y-93126380D02*
X123403333Y-93278761D01*
X123403333Y-93278761D02*
X123403333Y-93545428D01*
X123403333Y-93545428D02*
X123441428Y-93697809D01*
X123441428Y-93697809D02*
X123517619Y-93774000D01*
X123517619Y-93774000D02*
X123593809Y-93812095D01*
X123593809Y-93812095D02*
X123746190Y-93812095D01*
X123746190Y-93812095D02*
X123822381Y-93774000D01*
X123822381Y-93774000D02*
X123898571Y-93697809D01*
X123898571Y-93697809D02*
X123936667Y-93545428D01*
X123936667Y-93545428D02*
X123936667Y-93278761D01*
X123936667Y-93278761D02*
X123898571Y-93126380D01*
X123898571Y-93126380D02*
X123822381Y-93050190D01*
X123822381Y-93050190D02*
X123746190Y-93012095D01*
X123250953Y-93888285D02*
X122641429Y-93888285D01*
X122031905Y-93812095D02*
X122489048Y-93812095D01*
X122260476Y-93812095D02*
X122260476Y-93012095D01*
X122260476Y-93012095D02*
X122336667Y-93126380D01*
X122336667Y-93126380D02*
X122412857Y-93202571D01*
X122412857Y-93202571D02*
X122489048Y-93240666D01*
X121270000Y-93812095D02*
X121727143Y-93812095D01*
X121498571Y-93812095D02*
X121498571Y-93012095D01*
X121498571Y-93012095D02*
X121574762Y-93126380D01*
X121574762Y-93126380D02*
X121650952Y-93202571D01*
X121650952Y-93202571D02*
X121727143Y-93240666D01*
X124279523Y-96404095D02*
X124279523Y-95604095D01*
X123746190Y-95604095D02*
X123593809Y-95604095D01*
X123593809Y-95604095D02*
X123517619Y-95642190D01*
X123517619Y-95642190D02*
X123441428Y-95718380D01*
X123441428Y-95718380D02*
X123403333Y-95870761D01*
X123403333Y-95870761D02*
X123403333Y-96137428D01*
X123403333Y-96137428D02*
X123441428Y-96289809D01*
X123441428Y-96289809D02*
X123517619Y-96366000D01*
X123517619Y-96366000D02*
X123593809Y-96404095D01*
X123593809Y-96404095D02*
X123746190Y-96404095D01*
X123746190Y-96404095D02*
X123822381Y-96366000D01*
X123822381Y-96366000D02*
X123898571Y-96289809D01*
X123898571Y-96289809D02*
X123936667Y-96137428D01*
X123936667Y-96137428D02*
X123936667Y-95870761D01*
X123936667Y-95870761D02*
X123898571Y-95718380D01*
X123898571Y-95718380D02*
X123822381Y-95642190D01*
X123822381Y-95642190D02*
X123746190Y-95604095D01*
X123250953Y-96480285D02*
X122641429Y-96480285D01*
X122031905Y-96404095D02*
X122489048Y-96404095D01*
X122260476Y-96404095D02*
X122260476Y-95604095D01*
X122260476Y-95604095D02*
X122336667Y-95718380D01*
X122336667Y-95718380D02*
X122412857Y-95794571D01*
X122412857Y-95794571D02*
X122489048Y-95832666D01*
X121727143Y-95680285D02*
X121689047Y-95642190D01*
X121689047Y-95642190D02*
X121612857Y-95604095D01*
X121612857Y-95604095D02*
X121422381Y-95604095D01*
X121422381Y-95604095D02*
X121346190Y-95642190D01*
X121346190Y-95642190D02*
X121308095Y-95680285D01*
X121308095Y-95680285D02*
X121270000Y-95756476D01*
X121270000Y-95756476D02*
X121270000Y-95832666D01*
X121270000Y-95832666D02*
X121308095Y-95946952D01*
X121308095Y-95946952D02*
X121765238Y-96404095D01*
X121765238Y-96404095D02*
X121270000Y-96404095D01*
X124279523Y-98996095D02*
X124279523Y-98196095D01*
X123746190Y-98196095D02*
X123593809Y-98196095D01*
X123593809Y-98196095D02*
X123517619Y-98234190D01*
X123517619Y-98234190D02*
X123441428Y-98310380D01*
X123441428Y-98310380D02*
X123403333Y-98462761D01*
X123403333Y-98462761D02*
X123403333Y-98729428D01*
X123403333Y-98729428D02*
X123441428Y-98881809D01*
X123441428Y-98881809D02*
X123517619Y-98958000D01*
X123517619Y-98958000D02*
X123593809Y-98996095D01*
X123593809Y-98996095D02*
X123746190Y-98996095D01*
X123746190Y-98996095D02*
X123822381Y-98958000D01*
X123822381Y-98958000D02*
X123898571Y-98881809D01*
X123898571Y-98881809D02*
X123936667Y-98729428D01*
X123936667Y-98729428D02*
X123936667Y-98462761D01*
X123936667Y-98462761D02*
X123898571Y-98310380D01*
X123898571Y-98310380D02*
X123822381Y-98234190D01*
X123822381Y-98234190D02*
X123746190Y-98196095D01*
X123250953Y-99072285D02*
X122641429Y-99072285D01*
X122031905Y-98996095D02*
X122489048Y-98996095D01*
X122260476Y-98996095D02*
X122260476Y-98196095D01*
X122260476Y-98196095D02*
X122336667Y-98310380D01*
X122336667Y-98310380D02*
X122412857Y-98386571D01*
X122412857Y-98386571D02*
X122489048Y-98424666D01*
X121765238Y-98196095D02*
X121270000Y-98196095D01*
X121270000Y-98196095D02*
X121536666Y-98500857D01*
X121536666Y-98500857D02*
X121422381Y-98500857D01*
X121422381Y-98500857D02*
X121346190Y-98538952D01*
X121346190Y-98538952D02*
X121308095Y-98577047D01*
X121308095Y-98577047D02*
X121270000Y-98653238D01*
X121270000Y-98653238D02*
X121270000Y-98843714D01*
X121270000Y-98843714D02*
X121308095Y-98919904D01*
X121308095Y-98919904D02*
X121346190Y-98958000D01*
X121346190Y-98958000D02*
X121422381Y-98996095D01*
X121422381Y-98996095D02*
X121650952Y-98996095D01*
X121650952Y-98996095D02*
X121727143Y-98958000D01*
X121727143Y-98958000D02*
X121765238Y-98919904D01*
X124279523Y-101588095D02*
X124279523Y-100788095D01*
X123746190Y-100788095D02*
X123593809Y-100788095D01*
X123593809Y-100788095D02*
X123517619Y-100826190D01*
X123517619Y-100826190D02*
X123441428Y-100902380D01*
X123441428Y-100902380D02*
X123403333Y-101054761D01*
X123403333Y-101054761D02*
X123403333Y-101321428D01*
X123403333Y-101321428D02*
X123441428Y-101473809D01*
X123441428Y-101473809D02*
X123517619Y-101550000D01*
X123517619Y-101550000D02*
X123593809Y-101588095D01*
X123593809Y-101588095D02*
X123746190Y-101588095D01*
X123746190Y-101588095D02*
X123822381Y-101550000D01*
X123822381Y-101550000D02*
X123898571Y-101473809D01*
X123898571Y-101473809D02*
X123936667Y-101321428D01*
X123936667Y-101321428D02*
X123936667Y-101054761D01*
X123936667Y-101054761D02*
X123898571Y-100902380D01*
X123898571Y-100902380D02*
X123822381Y-100826190D01*
X123822381Y-100826190D02*
X123746190Y-100788095D01*
X123250953Y-101664285D02*
X122641429Y-101664285D01*
X122031905Y-101588095D02*
X122489048Y-101588095D01*
X122260476Y-101588095D02*
X122260476Y-100788095D01*
X122260476Y-100788095D02*
X122336667Y-100902380D01*
X122336667Y-100902380D02*
X122412857Y-100978571D01*
X122412857Y-100978571D02*
X122489048Y-101016666D01*
X121346190Y-101054761D02*
X121346190Y-101588095D01*
X121536666Y-100750000D02*
X121727143Y-101321428D01*
X121727143Y-101321428D02*
X121231904Y-101321428D01*
X123860476Y-103418190D02*
X123936666Y-103380095D01*
X123936666Y-103380095D02*
X124050952Y-103380095D01*
X124050952Y-103380095D02*
X124165238Y-103418190D01*
X124165238Y-103418190D02*
X124241428Y-103494380D01*
X124241428Y-103494380D02*
X124279523Y-103570571D01*
X124279523Y-103570571D02*
X124317619Y-103722952D01*
X124317619Y-103722952D02*
X124317619Y-103837238D01*
X124317619Y-103837238D02*
X124279523Y-103989619D01*
X124279523Y-103989619D02*
X124241428Y-104065809D01*
X124241428Y-104065809D02*
X124165238Y-104142000D01*
X124165238Y-104142000D02*
X124050952Y-104180095D01*
X124050952Y-104180095D02*
X123974761Y-104180095D01*
X123974761Y-104180095D02*
X123860476Y-104142000D01*
X123860476Y-104142000D02*
X123822380Y-104103904D01*
X123822380Y-104103904D02*
X123822380Y-103837238D01*
X123822380Y-103837238D02*
X123974761Y-103837238D01*
X123479523Y-103646761D02*
X123479523Y-104180095D01*
X123479523Y-103722952D02*
X123441428Y-103684857D01*
X123441428Y-103684857D02*
X123365238Y-103646761D01*
X123365238Y-103646761D02*
X123250952Y-103646761D01*
X123250952Y-103646761D02*
X123174761Y-103684857D01*
X123174761Y-103684857D02*
X123136666Y-103761047D01*
X123136666Y-103761047D02*
X123136666Y-104180095D01*
X122412856Y-104180095D02*
X122412856Y-103380095D01*
X122412856Y-104142000D02*
X122489047Y-104180095D01*
X122489047Y-104180095D02*
X122641428Y-104180095D01*
X122641428Y-104180095D02*
X122717618Y-104142000D01*
X122717618Y-104142000D02*
X122755713Y-104103904D01*
X122755713Y-104103904D02*
X122793809Y-104027714D01*
X122793809Y-104027714D02*
X122793809Y-103799142D01*
X122793809Y-103799142D02*
X122755713Y-103722952D01*
X122755713Y-103722952D02*
X122717618Y-103684857D01*
X122717618Y-103684857D02*
X122641428Y-103646761D01*
X122641428Y-103646761D02*
X122489047Y-103646761D01*
X122489047Y-103646761D02*
X122412856Y-103684857D01*
X124279523Y-106772095D02*
X124279523Y-105972095D01*
X124279523Y-105972095D02*
X123974761Y-105972095D01*
X123974761Y-105972095D02*
X123898571Y-106010190D01*
X123898571Y-106010190D02*
X123860476Y-106048285D01*
X123860476Y-106048285D02*
X123822380Y-106124476D01*
X123822380Y-106124476D02*
X123822380Y-106238761D01*
X123822380Y-106238761D02*
X123860476Y-106314952D01*
X123860476Y-106314952D02*
X123898571Y-106353047D01*
X123898571Y-106353047D02*
X123974761Y-106391142D01*
X123974761Y-106391142D02*
X124279523Y-106391142D01*
X123479523Y-106772095D02*
X123479523Y-105972095D01*
X123479523Y-105972095D02*
X123212857Y-106543523D01*
X123212857Y-106543523D02*
X122946190Y-105972095D01*
X122946190Y-105972095D02*
X122946190Y-106772095D01*
X122565237Y-105972095D02*
X122565237Y-106619714D01*
X122565237Y-106619714D02*
X122527142Y-106695904D01*
X122527142Y-106695904D02*
X122489047Y-106734000D01*
X122489047Y-106734000D02*
X122412856Y-106772095D01*
X122412856Y-106772095D02*
X122260475Y-106772095D01*
X122260475Y-106772095D02*
X122184285Y-106734000D01*
X122184285Y-106734000D02*
X122146190Y-106695904D01*
X122146190Y-106695904D02*
X122108094Y-106619714D01*
X122108094Y-106619714D02*
X122108094Y-105972095D01*
X121917619Y-106848285D02*
X121308095Y-106848285D01*
X121117618Y-106772095D02*
X121117618Y-105972095D01*
X121117618Y-105972095D02*
X120927142Y-105972095D01*
X120927142Y-105972095D02*
X120812856Y-106010190D01*
X120812856Y-106010190D02*
X120736666Y-106086380D01*
X120736666Y-106086380D02*
X120698571Y-106162571D01*
X120698571Y-106162571D02*
X120660475Y-106314952D01*
X120660475Y-106314952D02*
X120660475Y-106429238D01*
X120660475Y-106429238D02*
X120698571Y-106581619D01*
X120698571Y-106581619D02*
X120736666Y-106657809D01*
X120736666Y-106657809D02*
X120812856Y-106734000D01*
X120812856Y-106734000D02*
X120927142Y-106772095D01*
X120927142Y-106772095D02*
X121117618Y-106772095D01*
X119860475Y-106695904D02*
X119898571Y-106734000D01*
X119898571Y-106734000D02*
X120012856Y-106772095D01*
X120012856Y-106772095D02*
X120089047Y-106772095D01*
X120089047Y-106772095D02*
X120203333Y-106734000D01*
X120203333Y-106734000D02*
X120279523Y-106657809D01*
X120279523Y-106657809D02*
X120317618Y-106581619D01*
X120317618Y-106581619D02*
X120355714Y-106429238D01*
X120355714Y-106429238D02*
X120355714Y-106314952D01*
X120355714Y-106314952D02*
X120317618Y-106162571D01*
X120317618Y-106162571D02*
X120279523Y-106086380D01*
X120279523Y-106086380D02*
X120203333Y-106010190D01*
X120203333Y-106010190D02*
X120089047Y-105972095D01*
X120089047Y-105972095D02*
X120012856Y-105972095D01*
X120012856Y-105972095D02*
X119898571Y-106010190D01*
X119898571Y-106010190D02*
X119860475Y-106048285D01*
X119136666Y-105972095D02*
X119517618Y-105972095D01*
X119517618Y-105972095D02*
X119555714Y-106353047D01*
X119555714Y-106353047D02*
X119517618Y-106314952D01*
X119517618Y-106314952D02*
X119441428Y-106276857D01*
X119441428Y-106276857D02*
X119250952Y-106276857D01*
X119250952Y-106276857D02*
X119174761Y-106314952D01*
X119174761Y-106314952D02*
X119136666Y-106353047D01*
X119136666Y-106353047D02*
X119098571Y-106429238D01*
X119098571Y-106429238D02*
X119098571Y-106619714D01*
X119098571Y-106619714D02*
X119136666Y-106695904D01*
X119136666Y-106695904D02*
X119174761Y-106734000D01*
X119174761Y-106734000D02*
X119250952Y-106772095D01*
X119250952Y-106772095D02*
X119441428Y-106772095D01*
X119441428Y-106772095D02*
X119517618Y-106734000D01*
X119517618Y-106734000D02*
X119555714Y-106695904D01*
X173000951Y-97196095D02*
X172734284Y-97996095D01*
X172734284Y-97996095D02*
X172467618Y-97196095D01*
X171858094Y-97958000D02*
X171934285Y-97996095D01*
X171934285Y-97996095D02*
X172086666Y-97996095D01*
X172086666Y-97996095D02*
X172162856Y-97958000D01*
X172162856Y-97958000D02*
X172200951Y-97919904D01*
X172200951Y-97919904D02*
X172239047Y-97843714D01*
X172239047Y-97843714D02*
X172239047Y-97615142D01*
X172239047Y-97615142D02*
X172200951Y-97538952D01*
X172200951Y-97538952D02*
X172162856Y-97500857D01*
X172162856Y-97500857D02*
X172086666Y-97462761D01*
X172086666Y-97462761D02*
X171934285Y-97462761D01*
X171934285Y-97462761D02*
X171858094Y-97500857D01*
X171172380Y-97958000D02*
X171248571Y-97996095D01*
X171248571Y-97996095D02*
X171400952Y-97996095D01*
X171400952Y-97996095D02*
X171477142Y-97958000D01*
X171477142Y-97958000D02*
X171515237Y-97919904D01*
X171515237Y-97919904D02*
X171553333Y-97843714D01*
X171553333Y-97843714D02*
X171553333Y-97615142D01*
X171553333Y-97615142D02*
X171515237Y-97538952D01*
X171515237Y-97538952D02*
X171477142Y-97500857D01*
X171477142Y-97500857D02*
X171400952Y-97462761D01*
X171400952Y-97462761D02*
X171248571Y-97462761D01*
X171248571Y-97462761D02*
X171172380Y-97500857D01*
X173534286Y-100588095D02*
X173534286Y-99788095D01*
X173534286Y-99788095D02*
X173343810Y-99788095D01*
X173343810Y-99788095D02*
X173229524Y-99826190D01*
X173229524Y-99826190D02*
X173153334Y-99902380D01*
X173153334Y-99902380D02*
X173115239Y-99978571D01*
X173115239Y-99978571D02*
X173077143Y-100130952D01*
X173077143Y-100130952D02*
X173077143Y-100245238D01*
X173077143Y-100245238D02*
X173115239Y-100397619D01*
X173115239Y-100397619D02*
X173153334Y-100473809D01*
X173153334Y-100473809D02*
X173229524Y-100550000D01*
X173229524Y-100550000D02*
X173343810Y-100588095D01*
X173343810Y-100588095D02*
X173534286Y-100588095D01*
X172391429Y-100588095D02*
X172391429Y-100169047D01*
X172391429Y-100169047D02*
X172429524Y-100092857D01*
X172429524Y-100092857D02*
X172505715Y-100054761D01*
X172505715Y-100054761D02*
X172658096Y-100054761D01*
X172658096Y-100054761D02*
X172734286Y-100092857D01*
X172391429Y-100550000D02*
X172467620Y-100588095D01*
X172467620Y-100588095D02*
X172658096Y-100588095D01*
X172658096Y-100588095D02*
X172734286Y-100550000D01*
X172734286Y-100550000D02*
X172772382Y-100473809D01*
X172772382Y-100473809D02*
X172772382Y-100397619D01*
X172772382Y-100397619D02*
X172734286Y-100321428D01*
X172734286Y-100321428D02*
X172658096Y-100283333D01*
X172658096Y-100283333D02*
X172467620Y-100283333D01*
X172467620Y-100283333D02*
X172391429Y-100245238D01*
X172124762Y-100054761D02*
X171820000Y-100054761D01*
X172010476Y-99788095D02*
X172010476Y-100473809D01*
X172010476Y-100473809D02*
X171972381Y-100550000D01*
X171972381Y-100550000D02*
X171896191Y-100588095D01*
X171896191Y-100588095D02*
X171820000Y-100588095D01*
X171210476Y-100588095D02*
X171210476Y-100169047D01*
X171210476Y-100169047D02*
X171248571Y-100092857D01*
X171248571Y-100092857D02*
X171324762Y-100054761D01*
X171324762Y-100054761D02*
X171477143Y-100054761D01*
X171477143Y-100054761D02*
X171553333Y-100092857D01*
X171210476Y-100550000D02*
X171286667Y-100588095D01*
X171286667Y-100588095D02*
X171477143Y-100588095D01*
X171477143Y-100588095D02*
X171553333Y-100550000D01*
X171553333Y-100550000D02*
X171591429Y-100473809D01*
X171591429Y-100473809D02*
X171591429Y-100397619D01*
X171591429Y-100397619D02*
X171553333Y-100321428D01*
X171553333Y-100321428D02*
X171477143Y-100283333D01*
X171477143Y-100283333D02*
X171286667Y-100283333D01*
X171286667Y-100283333D02*
X171210476Y-100245238D01*
X172239047Y-103103904D02*
X172277143Y-103142000D01*
X172277143Y-103142000D02*
X172391428Y-103180095D01*
X172391428Y-103180095D02*
X172467619Y-103180095D01*
X172467619Y-103180095D02*
X172581905Y-103142000D01*
X172581905Y-103142000D02*
X172658095Y-103065809D01*
X172658095Y-103065809D02*
X172696190Y-102989619D01*
X172696190Y-102989619D02*
X172734286Y-102837238D01*
X172734286Y-102837238D02*
X172734286Y-102722952D01*
X172734286Y-102722952D02*
X172696190Y-102570571D01*
X172696190Y-102570571D02*
X172658095Y-102494380D01*
X172658095Y-102494380D02*
X172581905Y-102418190D01*
X172581905Y-102418190D02*
X172467619Y-102380095D01*
X172467619Y-102380095D02*
X172391428Y-102380095D01*
X172391428Y-102380095D02*
X172277143Y-102418190D01*
X172277143Y-102418190D02*
X172239047Y-102456285D01*
X171781905Y-103180095D02*
X171858095Y-103142000D01*
X171858095Y-103142000D02*
X171896190Y-103065809D01*
X171896190Y-103065809D02*
X171896190Y-102380095D01*
X171477142Y-103180095D02*
X171477142Y-102380095D01*
X171400952Y-102875333D02*
X171172380Y-103180095D01*
X171172380Y-102646761D02*
X171477142Y-102951523D01*
X172658096Y-105010190D02*
X172734286Y-104972095D01*
X172734286Y-104972095D02*
X172848572Y-104972095D01*
X172848572Y-104972095D02*
X172962858Y-105010190D01*
X172962858Y-105010190D02*
X173039048Y-105086380D01*
X173039048Y-105086380D02*
X173077143Y-105162571D01*
X173077143Y-105162571D02*
X173115239Y-105314952D01*
X173115239Y-105314952D02*
X173115239Y-105429238D01*
X173115239Y-105429238D02*
X173077143Y-105581619D01*
X173077143Y-105581619D02*
X173039048Y-105657809D01*
X173039048Y-105657809D02*
X172962858Y-105734000D01*
X172962858Y-105734000D02*
X172848572Y-105772095D01*
X172848572Y-105772095D02*
X172772381Y-105772095D01*
X172772381Y-105772095D02*
X172658096Y-105734000D01*
X172658096Y-105734000D02*
X172620000Y-105695904D01*
X172620000Y-105695904D02*
X172620000Y-105429238D01*
X172620000Y-105429238D02*
X172772381Y-105429238D01*
X172277143Y-105238761D02*
X172277143Y-105772095D01*
X172277143Y-105314952D02*
X172239048Y-105276857D01*
X172239048Y-105276857D02*
X172162858Y-105238761D01*
X172162858Y-105238761D02*
X172048572Y-105238761D01*
X172048572Y-105238761D02*
X171972381Y-105276857D01*
X171972381Y-105276857D02*
X171934286Y-105353047D01*
X171934286Y-105353047D02*
X171934286Y-105772095D01*
X171210476Y-105772095D02*
X171210476Y-104972095D01*
X171210476Y-105734000D02*
X171286667Y-105772095D01*
X171286667Y-105772095D02*
X171439048Y-105772095D01*
X171439048Y-105772095D02*
X171515238Y-105734000D01*
X171515238Y-105734000D02*
X171553333Y-105695904D01*
X171553333Y-105695904D02*
X171591429Y-105619714D01*
X171591429Y-105619714D02*
X171591429Y-105391142D01*
X171591429Y-105391142D02*
X171553333Y-105314952D01*
X171553333Y-105314952D02*
X171515238Y-105276857D01*
X171515238Y-105276857D02*
X171439048Y-105238761D01*
X171439048Y-105238761D02*
X171286667Y-105238761D01*
X171286667Y-105238761D02*
X171210476Y-105276857D01*
X167111904Y-100734095D02*
X167111904Y-99934095D01*
X166578571Y-99934095D02*
X166426190Y-99934095D01*
X166426190Y-99934095D02*
X166350000Y-99972190D01*
X166350000Y-99972190D02*
X166273809Y-100048380D01*
X166273809Y-100048380D02*
X166235714Y-100200761D01*
X166235714Y-100200761D02*
X166235714Y-100467428D01*
X166235714Y-100467428D02*
X166273809Y-100619809D01*
X166273809Y-100619809D02*
X166350000Y-100696000D01*
X166350000Y-100696000D02*
X166426190Y-100734095D01*
X166426190Y-100734095D02*
X166578571Y-100734095D01*
X166578571Y-100734095D02*
X166654762Y-100696000D01*
X166654762Y-100696000D02*
X166730952Y-100619809D01*
X166730952Y-100619809D02*
X166769048Y-100467428D01*
X166769048Y-100467428D02*
X166769048Y-100200761D01*
X166769048Y-100200761D02*
X166730952Y-100048380D01*
X166730952Y-100048380D02*
X166654762Y-99972190D01*
X166654762Y-99972190D02*
X166578571Y-99934095D01*
X166083334Y-100810285D02*
X165473810Y-100810285D01*
X164940476Y-100200761D02*
X164940476Y-100734095D01*
X165130952Y-99896000D02*
X165321429Y-100467428D01*
X165321429Y-100467428D02*
X164826190Y-100467428D01*
X164597619Y-99934095D02*
X164064285Y-99934095D01*
X164064285Y-99934095D02*
X164407143Y-100734095D01*
X167111904Y-103326095D02*
X167111904Y-102526095D01*
X166578571Y-102526095D02*
X166426190Y-102526095D01*
X166426190Y-102526095D02*
X166350000Y-102564190D01*
X166350000Y-102564190D02*
X166273809Y-102640380D01*
X166273809Y-102640380D02*
X166235714Y-102792761D01*
X166235714Y-102792761D02*
X166235714Y-103059428D01*
X166235714Y-103059428D02*
X166273809Y-103211809D01*
X166273809Y-103211809D02*
X166350000Y-103288000D01*
X166350000Y-103288000D02*
X166426190Y-103326095D01*
X166426190Y-103326095D02*
X166578571Y-103326095D01*
X166578571Y-103326095D02*
X166654762Y-103288000D01*
X166654762Y-103288000D02*
X166730952Y-103211809D01*
X166730952Y-103211809D02*
X166769048Y-103059428D01*
X166769048Y-103059428D02*
X166769048Y-102792761D01*
X166769048Y-102792761D02*
X166730952Y-102640380D01*
X166730952Y-102640380D02*
X166654762Y-102564190D01*
X166654762Y-102564190D02*
X166578571Y-102526095D01*
X166083334Y-103402285D02*
X165473810Y-103402285D01*
X165321429Y-102602285D02*
X165283333Y-102564190D01*
X165283333Y-102564190D02*
X165207143Y-102526095D01*
X165207143Y-102526095D02*
X165016667Y-102526095D01*
X165016667Y-102526095D02*
X164940476Y-102564190D01*
X164940476Y-102564190D02*
X164902381Y-102602285D01*
X164902381Y-102602285D02*
X164864286Y-102678476D01*
X164864286Y-102678476D02*
X164864286Y-102754666D01*
X164864286Y-102754666D02*
X164902381Y-102868952D01*
X164902381Y-102868952D02*
X165359524Y-103326095D01*
X165359524Y-103326095D02*
X164864286Y-103326095D01*
X164102381Y-103326095D02*
X164559524Y-103326095D01*
X164330952Y-103326095D02*
X164330952Y-102526095D01*
X164330952Y-102526095D02*
X164407143Y-102640380D01*
X164407143Y-102640380D02*
X164483333Y-102716571D01*
X164483333Y-102716571D02*
X164559524Y-102754666D01*
X161901904Y-86208095D02*
X161901904Y-85408095D01*
X161368571Y-85408095D02*
X161216190Y-85408095D01*
X161216190Y-85408095D02*
X161140000Y-85446190D01*
X161140000Y-85446190D02*
X161063809Y-85522380D01*
X161063809Y-85522380D02*
X161025714Y-85674761D01*
X161025714Y-85674761D02*
X161025714Y-85941428D01*
X161025714Y-85941428D02*
X161063809Y-86093809D01*
X161063809Y-86093809D02*
X161140000Y-86170000D01*
X161140000Y-86170000D02*
X161216190Y-86208095D01*
X161216190Y-86208095D02*
X161368571Y-86208095D01*
X161368571Y-86208095D02*
X161444762Y-86170000D01*
X161444762Y-86170000D02*
X161520952Y-86093809D01*
X161520952Y-86093809D02*
X161559048Y-85941428D01*
X161559048Y-85941428D02*
X161559048Y-85674761D01*
X161559048Y-85674761D02*
X161520952Y-85522380D01*
X161520952Y-85522380D02*
X161444762Y-85446190D01*
X161444762Y-85446190D02*
X161368571Y-85408095D01*
X160873334Y-86284285D02*
X160263810Y-86284285D01*
X160149524Y-85408095D02*
X159654286Y-85408095D01*
X159654286Y-85408095D02*
X159920952Y-85712857D01*
X159920952Y-85712857D02*
X159806667Y-85712857D01*
X159806667Y-85712857D02*
X159730476Y-85750952D01*
X159730476Y-85750952D02*
X159692381Y-85789047D01*
X159692381Y-85789047D02*
X159654286Y-85865238D01*
X159654286Y-85865238D02*
X159654286Y-86055714D01*
X159654286Y-86055714D02*
X159692381Y-86131904D01*
X159692381Y-86131904D02*
X159730476Y-86170000D01*
X159730476Y-86170000D02*
X159806667Y-86208095D01*
X159806667Y-86208095D02*
X160035238Y-86208095D01*
X160035238Y-86208095D02*
X160111429Y-86170000D01*
X160111429Y-86170000D02*
X160149524Y-86131904D01*
X158968571Y-85408095D02*
X159120952Y-85408095D01*
X159120952Y-85408095D02*
X159197143Y-85446190D01*
X159197143Y-85446190D02*
X159235238Y-85484285D01*
X159235238Y-85484285D02*
X159311428Y-85598571D01*
X159311428Y-85598571D02*
X159349524Y-85750952D01*
X159349524Y-85750952D02*
X159349524Y-86055714D01*
X159349524Y-86055714D02*
X159311428Y-86131904D01*
X159311428Y-86131904D02*
X159273333Y-86170000D01*
X159273333Y-86170000D02*
X159197143Y-86208095D01*
X159197143Y-86208095D02*
X159044762Y-86208095D01*
X159044762Y-86208095D02*
X158968571Y-86170000D01*
X158968571Y-86170000D02*
X158930476Y-86131904D01*
X158930476Y-86131904D02*
X158892381Y-86055714D01*
X158892381Y-86055714D02*
X158892381Y-85865238D01*
X158892381Y-85865238D02*
X158930476Y-85789047D01*
X158930476Y-85789047D02*
X158968571Y-85750952D01*
X158968571Y-85750952D02*
X159044762Y-85712857D01*
X159044762Y-85712857D02*
X159197143Y-85712857D01*
X159197143Y-85712857D02*
X159273333Y-85750952D01*
X159273333Y-85750952D02*
X159311428Y-85789047D01*
X159311428Y-85789047D02*
X159349524Y-85865238D01*
X161901904Y-96576095D02*
X161901904Y-95776095D01*
X161368571Y-95776095D02*
X161216190Y-95776095D01*
X161216190Y-95776095D02*
X161140000Y-95814190D01*
X161140000Y-95814190D02*
X161063809Y-95890380D01*
X161063809Y-95890380D02*
X161025714Y-96042761D01*
X161025714Y-96042761D02*
X161025714Y-96309428D01*
X161025714Y-96309428D02*
X161063809Y-96461809D01*
X161063809Y-96461809D02*
X161140000Y-96538000D01*
X161140000Y-96538000D02*
X161216190Y-96576095D01*
X161216190Y-96576095D02*
X161368571Y-96576095D01*
X161368571Y-96576095D02*
X161444762Y-96538000D01*
X161444762Y-96538000D02*
X161520952Y-96461809D01*
X161520952Y-96461809D02*
X161559048Y-96309428D01*
X161559048Y-96309428D02*
X161559048Y-96042761D01*
X161559048Y-96042761D02*
X161520952Y-95890380D01*
X161520952Y-95890380D02*
X161444762Y-95814190D01*
X161444762Y-95814190D02*
X161368571Y-95776095D01*
X160873334Y-96652285D02*
X160263810Y-96652285D01*
X159730476Y-96042761D02*
X159730476Y-96576095D01*
X159920952Y-95738000D02*
X160111429Y-96309428D01*
X160111429Y-96309428D02*
X159616190Y-96309428D01*
X159197143Y-96118952D02*
X159273333Y-96080857D01*
X159273333Y-96080857D02*
X159311428Y-96042761D01*
X159311428Y-96042761D02*
X159349524Y-95966571D01*
X159349524Y-95966571D02*
X159349524Y-95928476D01*
X159349524Y-95928476D02*
X159311428Y-95852285D01*
X159311428Y-95852285D02*
X159273333Y-95814190D01*
X159273333Y-95814190D02*
X159197143Y-95776095D01*
X159197143Y-95776095D02*
X159044762Y-95776095D01*
X159044762Y-95776095D02*
X158968571Y-95814190D01*
X158968571Y-95814190D02*
X158930476Y-95852285D01*
X158930476Y-95852285D02*
X158892381Y-95928476D01*
X158892381Y-95928476D02*
X158892381Y-95966571D01*
X158892381Y-95966571D02*
X158930476Y-96042761D01*
X158930476Y-96042761D02*
X158968571Y-96080857D01*
X158968571Y-96080857D02*
X159044762Y-96118952D01*
X159044762Y-96118952D02*
X159197143Y-96118952D01*
X159197143Y-96118952D02*
X159273333Y-96157047D01*
X159273333Y-96157047D02*
X159311428Y-96195142D01*
X159311428Y-96195142D02*
X159349524Y-96271333D01*
X159349524Y-96271333D02*
X159349524Y-96423714D01*
X159349524Y-96423714D02*
X159311428Y-96499904D01*
X159311428Y-96499904D02*
X159273333Y-96538000D01*
X159273333Y-96538000D02*
X159197143Y-96576095D01*
X159197143Y-96576095D02*
X159044762Y-96576095D01*
X159044762Y-96576095D02*
X158968571Y-96538000D01*
X158968571Y-96538000D02*
X158930476Y-96499904D01*
X158930476Y-96499904D02*
X158892381Y-96423714D01*
X158892381Y-96423714D02*
X158892381Y-96271333D01*
X158892381Y-96271333D02*
X158930476Y-96195142D01*
X158930476Y-96195142D02*
X158968571Y-96157047D01*
X158968571Y-96157047D02*
X159044762Y-96118952D01*
X161901904Y-99168095D02*
X161901904Y-98368095D01*
X161368571Y-98368095D02*
X161216190Y-98368095D01*
X161216190Y-98368095D02*
X161140000Y-98406190D01*
X161140000Y-98406190D02*
X161063809Y-98482380D01*
X161063809Y-98482380D02*
X161025714Y-98634761D01*
X161025714Y-98634761D02*
X161025714Y-98901428D01*
X161025714Y-98901428D02*
X161063809Y-99053809D01*
X161063809Y-99053809D02*
X161140000Y-99130000D01*
X161140000Y-99130000D02*
X161216190Y-99168095D01*
X161216190Y-99168095D02*
X161368571Y-99168095D01*
X161368571Y-99168095D02*
X161444762Y-99130000D01*
X161444762Y-99130000D02*
X161520952Y-99053809D01*
X161520952Y-99053809D02*
X161559048Y-98901428D01*
X161559048Y-98901428D02*
X161559048Y-98634761D01*
X161559048Y-98634761D02*
X161520952Y-98482380D01*
X161520952Y-98482380D02*
X161444762Y-98406190D01*
X161444762Y-98406190D02*
X161368571Y-98368095D01*
X160873334Y-99244285D02*
X160263810Y-99244285D01*
X159730476Y-98634761D02*
X159730476Y-99168095D01*
X159920952Y-98330000D02*
X160111429Y-98901428D01*
X160111429Y-98901428D02*
X159616190Y-98901428D01*
X159387619Y-98368095D02*
X158854285Y-98368095D01*
X158854285Y-98368095D02*
X159197143Y-99168095D01*
X161901904Y-101760095D02*
X161901904Y-100960095D01*
X161368571Y-100960095D02*
X161216190Y-100960095D01*
X161216190Y-100960095D02*
X161140000Y-100998190D01*
X161140000Y-100998190D02*
X161063809Y-101074380D01*
X161063809Y-101074380D02*
X161025714Y-101226761D01*
X161025714Y-101226761D02*
X161025714Y-101493428D01*
X161025714Y-101493428D02*
X161063809Y-101645809D01*
X161063809Y-101645809D02*
X161140000Y-101722000D01*
X161140000Y-101722000D02*
X161216190Y-101760095D01*
X161216190Y-101760095D02*
X161368571Y-101760095D01*
X161368571Y-101760095D02*
X161444762Y-101722000D01*
X161444762Y-101722000D02*
X161520952Y-101645809D01*
X161520952Y-101645809D02*
X161559048Y-101493428D01*
X161559048Y-101493428D02*
X161559048Y-101226761D01*
X161559048Y-101226761D02*
X161520952Y-101074380D01*
X161520952Y-101074380D02*
X161444762Y-100998190D01*
X161444762Y-100998190D02*
X161368571Y-100960095D01*
X160873334Y-101836285D02*
X160263810Y-101836285D01*
X160111429Y-101036285D02*
X160073333Y-100998190D01*
X160073333Y-100998190D02*
X159997143Y-100960095D01*
X159997143Y-100960095D02*
X159806667Y-100960095D01*
X159806667Y-100960095D02*
X159730476Y-100998190D01*
X159730476Y-100998190D02*
X159692381Y-101036285D01*
X159692381Y-101036285D02*
X159654286Y-101112476D01*
X159654286Y-101112476D02*
X159654286Y-101188666D01*
X159654286Y-101188666D02*
X159692381Y-101302952D01*
X159692381Y-101302952D02*
X160149524Y-101760095D01*
X160149524Y-101760095D02*
X159654286Y-101760095D01*
X158892381Y-101760095D02*
X159349524Y-101760095D01*
X159120952Y-101760095D02*
X159120952Y-100960095D01*
X159120952Y-100960095D02*
X159197143Y-101074380D01*
X159197143Y-101074380D02*
X159273333Y-101150571D01*
X159273333Y-101150571D02*
X159349524Y-101188666D01*
X160378096Y-103590190D02*
X160454286Y-103552095D01*
X160454286Y-103552095D02*
X160568572Y-103552095D01*
X160568572Y-103552095D02*
X160682858Y-103590190D01*
X160682858Y-103590190D02*
X160759048Y-103666380D01*
X160759048Y-103666380D02*
X160797143Y-103742571D01*
X160797143Y-103742571D02*
X160835239Y-103894952D01*
X160835239Y-103894952D02*
X160835239Y-104009238D01*
X160835239Y-104009238D02*
X160797143Y-104161619D01*
X160797143Y-104161619D02*
X160759048Y-104237809D01*
X160759048Y-104237809D02*
X160682858Y-104314000D01*
X160682858Y-104314000D02*
X160568572Y-104352095D01*
X160568572Y-104352095D02*
X160492381Y-104352095D01*
X160492381Y-104352095D02*
X160378096Y-104314000D01*
X160378096Y-104314000D02*
X160340000Y-104275904D01*
X160340000Y-104275904D02*
X160340000Y-104009238D01*
X160340000Y-104009238D02*
X160492381Y-104009238D01*
X159997143Y-103818761D02*
X159997143Y-104352095D01*
X159997143Y-103894952D02*
X159959048Y-103856857D01*
X159959048Y-103856857D02*
X159882858Y-103818761D01*
X159882858Y-103818761D02*
X159768572Y-103818761D01*
X159768572Y-103818761D02*
X159692381Y-103856857D01*
X159692381Y-103856857D02*
X159654286Y-103933047D01*
X159654286Y-103933047D02*
X159654286Y-104352095D01*
X158930476Y-104352095D02*
X158930476Y-103552095D01*
X158930476Y-104314000D02*
X159006667Y-104352095D01*
X159006667Y-104352095D02*
X159159048Y-104352095D01*
X159159048Y-104352095D02*
X159235238Y-104314000D01*
X159235238Y-104314000D02*
X159273333Y-104275904D01*
X159273333Y-104275904D02*
X159311429Y-104199714D01*
X159311429Y-104199714D02*
X159311429Y-103971142D01*
X159311429Y-103971142D02*
X159273333Y-103894952D01*
X159273333Y-103894952D02*
X159235238Y-103856857D01*
X159235238Y-103856857D02*
X159159048Y-103818761D01*
X159159048Y-103818761D02*
X159006667Y-103818761D01*
X159006667Y-103818761D02*
X158930476Y-103856857D01*
X119011904Y-101974095D02*
X119011904Y-101174095D01*
X118478571Y-101174095D02*
X118326190Y-101174095D01*
X118326190Y-101174095D02*
X118250000Y-101212190D01*
X118250000Y-101212190D02*
X118173809Y-101288380D01*
X118173809Y-101288380D02*
X118135714Y-101440761D01*
X118135714Y-101440761D02*
X118135714Y-101707428D01*
X118135714Y-101707428D02*
X118173809Y-101859809D01*
X118173809Y-101859809D02*
X118250000Y-101936000D01*
X118250000Y-101936000D02*
X118326190Y-101974095D01*
X118326190Y-101974095D02*
X118478571Y-101974095D01*
X118478571Y-101974095D02*
X118554762Y-101936000D01*
X118554762Y-101936000D02*
X118630952Y-101859809D01*
X118630952Y-101859809D02*
X118669048Y-101707428D01*
X118669048Y-101707428D02*
X118669048Y-101440761D01*
X118669048Y-101440761D02*
X118630952Y-101288380D01*
X118630952Y-101288380D02*
X118554762Y-101212190D01*
X118554762Y-101212190D02*
X118478571Y-101174095D01*
X117983334Y-102050285D02*
X117373810Y-102050285D01*
X116764286Y-101974095D02*
X117221429Y-101974095D01*
X116992857Y-101974095D02*
X116992857Y-101174095D01*
X116992857Y-101174095D02*
X117069048Y-101288380D01*
X117069048Y-101288380D02*
X117145238Y-101364571D01*
X117145238Y-101364571D02*
X117221429Y-101402666D01*
X116497619Y-101174095D02*
X116002381Y-101174095D01*
X116002381Y-101174095D02*
X116269047Y-101478857D01*
X116269047Y-101478857D02*
X116154762Y-101478857D01*
X116154762Y-101478857D02*
X116078571Y-101516952D01*
X116078571Y-101516952D02*
X116040476Y-101555047D01*
X116040476Y-101555047D02*
X116002381Y-101631238D01*
X116002381Y-101631238D02*
X116002381Y-101821714D01*
X116002381Y-101821714D02*
X116040476Y-101897904D01*
X116040476Y-101897904D02*
X116078571Y-101936000D01*
X116078571Y-101936000D02*
X116154762Y-101974095D01*
X116154762Y-101974095D02*
X116383333Y-101974095D01*
X116383333Y-101974095D02*
X116459524Y-101936000D01*
X116459524Y-101936000D02*
X116497619Y-101897904D01*
X119011904Y-104566095D02*
X119011904Y-103766095D01*
X118478571Y-103766095D02*
X118326190Y-103766095D01*
X118326190Y-103766095D02*
X118250000Y-103804190D01*
X118250000Y-103804190D02*
X118173809Y-103880380D01*
X118173809Y-103880380D02*
X118135714Y-104032761D01*
X118135714Y-104032761D02*
X118135714Y-104299428D01*
X118135714Y-104299428D02*
X118173809Y-104451809D01*
X118173809Y-104451809D02*
X118250000Y-104528000D01*
X118250000Y-104528000D02*
X118326190Y-104566095D01*
X118326190Y-104566095D02*
X118478571Y-104566095D01*
X118478571Y-104566095D02*
X118554762Y-104528000D01*
X118554762Y-104528000D02*
X118630952Y-104451809D01*
X118630952Y-104451809D02*
X118669048Y-104299428D01*
X118669048Y-104299428D02*
X118669048Y-104032761D01*
X118669048Y-104032761D02*
X118630952Y-103880380D01*
X118630952Y-103880380D02*
X118554762Y-103804190D01*
X118554762Y-103804190D02*
X118478571Y-103766095D01*
X117983334Y-104642285D02*
X117373810Y-104642285D01*
X116764286Y-104566095D02*
X117221429Y-104566095D01*
X116992857Y-104566095D02*
X116992857Y-103766095D01*
X116992857Y-103766095D02*
X117069048Y-103880380D01*
X117069048Y-103880380D02*
X117145238Y-103956571D01*
X117145238Y-103956571D02*
X117221429Y-103994666D01*
X116078571Y-104032761D02*
X116078571Y-104566095D01*
X116269047Y-103728000D02*
X116459524Y-104299428D01*
X116459524Y-104299428D02*
X115964285Y-104299428D01*
D11*
X150078572Y-85072857D02*
X151078572Y-83644285D01*
X151792858Y-85072857D02*
X151792858Y-82072857D01*
X151792858Y-82072857D02*
X150650001Y-82072857D01*
X150650001Y-82072857D02*
X150364286Y-82215714D01*
X150364286Y-82215714D02*
X150221429Y-82358571D01*
X150221429Y-82358571D02*
X150078572Y-82644285D01*
X150078572Y-82644285D02*
X150078572Y-83072857D01*
X150078572Y-83072857D02*
X150221429Y-83358571D01*
X150221429Y-83358571D02*
X150364286Y-83501428D01*
X150364286Y-83501428D02*
X150650001Y-83644285D01*
X150650001Y-83644285D02*
X151792858Y-83644285D01*
X147507144Y-85072857D02*
X147507144Y-83501428D01*
X147507144Y-83501428D02*
X147650001Y-83215714D01*
X147650001Y-83215714D02*
X147935715Y-83072857D01*
X147935715Y-83072857D02*
X148507144Y-83072857D01*
X148507144Y-83072857D02*
X148792858Y-83215714D01*
X147507144Y-84930000D02*
X147792858Y-85072857D01*
X147792858Y-85072857D02*
X148507144Y-85072857D01*
X148507144Y-85072857D02*
X148792858Y-84930000D01*
X148792858Y-84930000D02*
X148935715Y-84644285D01*
X148935715Y-84644285D02*
X148935715Y-84358571D01*
X148935715Y-84358571D02*
X148792858Y-84072857D01*
X148792858Y-84072857D02*
X148507144Y-83930000D01*
X148507144Y-83930000D02*
X147792858Y-83930000D01*
X147792858Y-83930000D02*
X147507144Y-83787142D01*
X146507143Y-83072857D02*
X145364286Y-83072857D01*
X146078572Y-82072857D02*
X146078572Y-84644285D01*
X146078572Y-84644285D02*
X145935715Y-84930000D01*
X145935715Y-84930000D02*
X145650000Y-85072857D01*
X145650000Y-85072857D02*
X145364286Y-85072857D01*
X143078572Y-85072857D02*
X143078572Y-83501428D01*
X143078572Y-83501428D02*
X143221429Y-83215714D01*
X143221429Y-83215714D02*
X143507143Y-83072857D01*
X143507143Y-83072857D02*
X144078572Y-83072857D01*
X144078572Y-83072857D02*
X144364286Y-83215714D01*
X143078572Y-84930000D02*
X143364286Y-85072857D01*
X143364286Y-85072857D02*
X144078572Y-85072857D01*
X144078572Y-85072857D02*
X144364286Y-84930000D01*
X144364286Y-84930000D02*
X144507143Y-84644285D01*
X144507143Y-84644285D02*
X144507143Y-84358571D01*
X144507143Y-84358571D02*
X144364286Y-84072857D01*
X144364286Y-84072857D02*
X144078572Y-83930000D01*
X144078572Y-83930000D02*
X143364286Y-83930000D01*
X143364286Y-83930000D02*
X143078572Y-83787142D01*
X141650000Y-85072857D02*
X141650000Y-83072857D01*
X141650000Y-83358571D02*
X141507143Y-83215714D01*
X141507143Y-83215714D02*
X141221428Y-83072857D01*
X141221428Y-83072857D02*
X140792857Y-83072857D01*
X140792857Y-83072857D02*
X140507143Y-83215714D01*
X140507143Y-83215714D02*
X140364286Y-83501428D01*
X140364286Y-83501428D02*
X140364286Y-85072857D01*
X140364286Y-83501428D02*
X140221428Y-83215714D01*
X140221428Y-83215714D02*
X139935714Y-83072857D01*
X139935714Y-83072857D02*
X139507143Y-83072857D01*
X139507143Y-83072857D02*
X139221428Y-83215714D01*
X139221428Y-83215714D02*
X139078571Y-83501428D01*
X139078571Y-83501428D02*
X139078571Y-85072857D01*
X136364286Y-83072857D02*
X136364286Y-85072857D01*
X137650000Y-83072857D02*
X137650000Y-84644285D01*
X137650000Y-84644285D02*
X137507143Y-84930000D01*
X137507143Y-84930000D02*
X137221428Y-85072857D01*
X137221428Y-85072857D02*
X136792857Y-85072857D01*
X136792857Y-85072857D02*
X136507143Y-84930000D01*
X136507143Y-84930000D02*
X136364286Y-84787142D01*
X135078571Y-84930000D02*
X134792857Y-85072857D01*
X134792857Y-85072857D02*
X134221428Y-85072857D01*
X134221428Y-85072857D02*
X133935714Y-84930000D01*
X133935714Y-84930000D02*
X133792857Y-84644285D01*
X133792857Y-84644285D02*
X133792857Y-84501428D01*
X133792857Y-84501428D02*
X133935714Y-84215714D01*
X133935714Y-84215714D02*
X134221428Y-84072857D01*
X134221428Y-84072857D02*
X134650000Y-84072857D01*
X134650000Y-84072857D02*
X134935714Y-83930000D01*
X134935714Y-83930000D02*
X135078571Y-83644285D01*
X135078571Y-83644285D02*
X135078571Y-83501428D01*
X135078571Y-83501428D02*
X134935714Y-83215714D01*
X134935714Y-83215714D02*
X134650000Y-83072857D01*
X134650000Y-83072857D02*
X134221428Y-83072857D01*
X134221428Y-83072857D02*
X133935714Y-83215714D01*
X131364286Y-84930000D02*
X131650000Y-85072857D01*
X131650000Y-85072857D02*
X132221429Y-85072857D01*
X132221429Y-85072857D02*
X132507143Y-84930000D01*
X132507143Y-84930000D02*
X132650000Y-84644285D01*
X132650000Y-84644285D02*
X132650000Y-83501428D01*
X132650000Y-83501428D02*
X132507143Y-83215714D01*
X132507143Y-83215714D02*
X132221429Y-83072857D01*
X132221429Y-83072857D02*
X131650000Y-83072857D01*
X131650000Y-83072857D02*
X131364286Y-83215714D01*
X131364286Y-83215714D02*
X131221429Y-83501428D01*
X131221429Y-83501428D02*
X131221429Y-83787142D01*
X131221429Y-83787142D02*
X132650000Y-84072857D01*
D10*
X110668096Y-98584190D02*
X110744286Y-98546095D01*
X110744286Y-98546095D02*
X110858572Y-98546095D01*
X110858572Y-98546095D02*
X110972858Y-98584190D01*
X110972858Y-98584190D02*
X111049048Y-98660380D01*
X111049048Y-98660380D02*
X111087143Y-98736571D01*
X111087143Y-98736571D02*
X111125239Y-98888952D01*
X111125239Y-98888952D02*
X111125239Y-99003238D01*
X111125239Y-99003238D02*
X111087143Y-99155619D01*
X111087143Y-99155619D02*
X111049048Y-99231809D01*
X111049048Y-99231809D02*
X110972858Y-99308000D01*
X110972858Y-99308000D02*
X110858572Y-99346095D01*
X110858572Y-99346095D02*
X110782381Y-99346095D01*
X110782381Y-99346095D02*
X110668096Y-99308000D01*
X110668096Y-99308000D02*
X110630000Y-99269904D01*
X110630000Y-99269904D02*
X110630000Y-99003238D01*
X110630000Y-99003238D02*
X110782381Y-99003238D01*
X110287143Y-98812761D02*
X110287143Y-99346095D01*
X110287143Y-98888952D02*
X110249048Y-98850857D01*
X110249048Y-98850857D02*
X110172858Y-98812761D01*
X110172858Y-98812761D02*
X110058572Y-98812761D01*
X110058572Y-98812761D02*
X109982381Y-98850857D01*
X109982381Y-98850857D02*
X109944286Y-98927047D01*
X109944286Y-98927047D02*
X109944286Y-99346095D01*
X109220476Y-99346095D02*
X109220476Y-98546095D01*
X109220476Y-99308000D02*
X109296667Y-99346095D01*
X109296667Y-99346095D02*
X109449048Y-99346095D01*
X109449048Y-99346095D02*
X109525238Y-99308000D01*
X109525238Y-99308000D02*
X109563333Y-99269904D01*
X109563333Y-99269904D02*
X109601429Y-99193714D01*
X109601429Y-99193714D02*
X109601429Y-98965142D01*
X109601429Y-98965142D02*
X109563333Y-98888952D01*
X109563333Y-98888952D02*
X109525238Y-98850857D01*
X109525238Y-98850857D02*
X109449048Y-98812761D01*
X109449048Y-98812761D02*
X109296667Y-98812761D01*
X109296667Y-98812761D02*
X109220476Y-98850857D01*
X110249047Y-101861904D02*
X110287143Y-101900000D01*
X110287143Y-101900000D02*
X110401428Y-101938095D01*
X110401428Y-101938095D02*
X110477619Y-101938095D01*
X110477619Y-101938095D02*
X110591905Y-101900000D01*
X110591905Y-101900000D02*
X110668095Y-101823809D01*
X110668095Y-101823809D02*
X110706190Y-101747619D01*
X110706190Y-101747619D02*
X110744286Y-101595238D01*
X110744286Y-101595238D02*
X110744286Y-101480952D01*
X110744286Y-101480952D02*
X110706190Y-101328571D01*
X110706190Y-101328571D02*
X110668095Y-101252380D01*
X110668095Y-101252380D02*
X110591905Y-101176190D01*
X110591905Y-101176190D02*
X110477619Y-101138095D01*
X110477619Y-101138095D02*
X110401428Y-101138095D01*
X110401428Y-101138095D02*
X110287143Y-101176190D01*
X110287143Y-101176190D02*
X110249047Y-101214285D01*
X109791905Y-101938095D02*
X109868095Y-101900000D01*
X109868095Y-101900000D02*
X109906190Y-101823809D01*
X109906190Y-101823809D02*
X109906190Y-101138095D01*
X109487142Y-101938095D02*
X109487142Y-101138095D01*
X109410952Y-101633333D02*
X109182380Y-101938095D01*
X109182380Y-101404761D02*
X109487142Y-101709523D01*
X111544286Y-104530095D02*
X111544286Y-103730095D01*
X111544286Y-103730095D02*
X111353810Y-103730095D01*
X111353810Y-103730095D02*
X111239524Y-103768190D01*
X111239524Y-103768190D02*
X111163334Y-103844380D01*
X111163334Y-103844380D02*
X111125239Y-103920571D01*
X111125239Y-103920571D02*
X111087143Y-104072952D01*
X111087143Y-104072952D02*
X111087143Y-104187238D01*
X111087143Y-104187238D02*
X111125239Y-104339619D01*
X111125239Y-104339619D02*
X111163334Y-104415809D01*
X111163334Y-104415809D02*
X111239524Y-104492000D01*
X111239524Y-104492000D02*
X111353810Y-104530095D01*
X111353810Y-104530095D02*
X111544286Y-104530095D01*
X110401429Y-104530095D02*
X110401429Y-104111047D01*
X110401429Y-104111047D02*
X110439524Y-104034857D01*
X110439524Y-104034857D02*
X110515715Y-103996761D01*
X110515715Y-103996761D02*
X110668096Y-103996761D01*
X110668096Y-103996761D02*
X110744286Y-104034857D01*
X110401429Y-104492000D02*
X110477620Y-104530095D01*
X110477620Y-104530095D02*
X110668096Y-104530095D01*
X110668096Y-104530095D02*
X110744286Y-104492000D01*
X110744286Y-104492000D02*
X110782382Y-104415809D01*
X110782382Y-104415809D02*
X110782382Y-104339619D01*
X110782382Y-104339619D02*
X110744286Y-104263428D01*
X110744286Y-104263428D02*
X110668096Y-104225333D01*
X110668096Y-104225333D02*
X110477620Y-104225333D01*
X110477620Y-104225333D02*
X110401429Y-104187238D01*
X110134762Y-103996761D02*
X109830000Y-103996761D01*
X110020476Y-103730095D02*
X110020476Y-104415809D01*
X110020476Y-104415809D02*
X109982381Y-104492000D01*
X109982381Y-104492000D02*
X109906191Y-104530095D01*
X109906191Y-104530095D02*
X109830000Y-104530095D01*
X109220476Y-104530095D02*
X109220476Y-104111047D01*
X109220476Y-104111047D02*
X109258571Y-104034857D01*
X109258571Y-104034857D02*
X109334762Y-103996761D01*
X109334762Y-103996761D02*
X109487143Y-103996761D01*
X109487143Y-103996761D02*
X109563333Y-104034857D01*
X109220476Y-104492000D02*
X109296667Y-104530095D01*
X109296667Y-104530095D02*
X109487143Y-104530095D01*
X109487143Y-104530095D02*
X109563333Y-104492000D01*
X109563333Y-104492000D02*
X109601429Y-104415809D01*
X109601429Y-104415809D02*
X109601429Y-104339619D01*
X109601429Y-104339619D02*
X109563333Y-104263428D01*
X109563333Y-104263428D02*
X109487143Y-104225333D01*
X109487143Y-104225333D02*
X109296667Y-104225333D01*
X109296667Y-104225333D02*
X109220476Y-104187238D01*
X111010951Y-106322095D02*
X110744284Y-107122095D01*
X110744284Y-107122095D02*
X110477618Y-106322095D01*
X109868094Y-107084000D02*
X109944285Y-107122095D01*
X109944285Y-107122095D02*
X110096666Y-107122095D01*
X110096666Y-107122095D02*
X110172856Y-107084000D01*
X110172856Y-107084000D02*
X110210951Y-107045904D01*
X110210951Y-107045904D02*
X110249047Y-106969714D01*
X110249047Y-106969714D02*
X110249047Y-106741142D01*
X110249047Y-106741142D02*
X110210951Y-106664952D01*
X110210951Y-106664952D02*
X110172856Y-106626857D01*
X110172856Y-106626857D02*
X110096666Y-106588761D01*
X110096666Y-106588761D02*
X109944285Y-106588761D01*
X109944285Y-106588761D02*
X109868094Y-106626857D01*
X109182380Y-107084000D02*
X109258571Y-107122095D01*
X109258571Y-107122095D02*
X109410952Y-107122095D01*
X109410952Y-107122095D02*
X109487142Y-107084000D01*
X109487142Y-107084000D02*
X109525237Y-107045904D01*
X109525237Y-107045904D02*
X109563333Y-106969714D01*
X109563333Y-106969714D02*
X109563333Y-106741142D01*
X109563333Y-106741142D02*
X109525237Y-106664952D01*
X109525237Y-106664952D02*
X109487142Y-106626857D01*
X109487142Y-106626857D02*
X109410952Y-106588761D01*
X109410952Y-106588761D02*
X109258571Y-106588761D01*
X109258571Y-106588761D02*
X109182380Y-106626857D01*
X110688096Y-71074190D02*
X110764286Y-71036095D01*
X110764286Y-71036095D02*
X110878572Y-71036095D01*
X110878572Y-71036095D02*
X110992858Y-71074190D01*
X110992858Y-71074190D02*
X111069048Y-71150380D01*
X111069048Y-71150380D02*
X111107143Y-71226571D01*
X111107143Y-71226571D02*
X111145239Y-71378952D01*
X111145239Y-71378952D02*
X111145239Y-71493238D01*
X111145239Y-71493238D02*
X111107143Y-71645619D01*
X111107143Y-71645619D02*
X111069048Y-71721809D01*
X111069048Y-71721809D02*
X110992858Y-71798000D01*
X110992858Y-71798000D02*
X110878572Y-71836095D01*
X110878572Y-71836095D02*
X110802381Y-71836095D01*
X110802381Y-71836095D02*
X110688096Y-71798000D01*
X110688096Y-71798000D02*
X110650000Y-71759904D01*
X110650000Y-71759904D02*
X110650000Y-71493238D01*
X110650000Y-71493238D02*
X110802381Y-71493238D01*
X110307143Y-71302761D02*
X110307143Y-71836095D01*
X110307143Y-71378952D02*
X110269048Y-71340857D01*
X110269048Y-71340857D02*
X110192858Y-71302761D01*
X110192858Y-71302761D02*
X110078572Y-71302761D01*
X110078572Y-71302761D02*
X110002381Y-71340857D01*
X110002381Y-71340857D02*
X109964286Y-71417047D01*
X109964286Y-71417047D02*
X109964286Y-71836095D01*
X109240476Y-71836095D02*
X109240476Y-71036095D01*
X109240476Y-71798000D02*
X109316667Y-71836095D01*
X109316667Y-71836095D02*
X109469048Y-71836095D01*
X109469048Y-71836095D02*
X109545238Y-71798000D01*
X109545238Y-71798000D02*
X109583333Y-71759904D01*
X109583333Y-71759904D02*
X109621429Y-71683714D01*
X109621429Y-71683714D02*
X109621429Y-71455142D01*
X109621429Y-71455142D02*
X109583333Y-71378952D01*
X109583333Y-71378952D02*
X109545238Y-71340857D01*
X109545238Y-71340857D02*
X109469048Y-71302761D01*
X109469048Y-71302761D02*
X109316667Y-71302761D01*
X109316667Y-71302761D02*
X109240476Y-71340857D01*
X110269047Y-74351904D02*
X110307143Y-74390000D01*
X110307143Y-74390000D02*
X110421428Y-74428095D01*
X110421428Y-74428095D02*
X110497619Y-74428095D01*
X110497619Y-74428095D02*
X110611905Y-74390000D01*
X110611905Y-74390000D02*
X110688095Y-74313809D01*
X110688095Y-74313809D02*
X110726190Y-74237619D01*
X110726190Y-74237619D02*
X110764286Y-74085238D01*
X110764286Y-74085238D02*
X110764286Y-73970952D01*
X110764286Y-73970952D02*
X110726190Y-73818571D01*
X110726190Y-73818571D02*
X110688095Y-73742380D01*
X110688095Y-73742380D02*
X110611905Y-73666190D01*
X110611905Y-73666190D02*
X110497619Y-73628095D01*
X110497619Y-73628095D02*
X110421428Y-73628095D01*
X110421428Y-73628095D02*
X110307143Y-73666190D01*
X110307143Y-73666190D02*
X110269047Y-73704285D01*
X109811905Y-74428095D02*
X109888095Y-74390000D01*
X109888095Y-74390000D02*
X109926190Y-74313809D01*
X109926190Y-74313809D02*
X109926190Y-73628095D01*
X109507142Y-74428095D02*
X109507142Y-73628095D01*
X109430952Y-74123333D02*
X109202380Y-74428095D01*
X109202380Y-73894761D02*
X109507142Y-74199523D01*
X111564286Y-77020095D02*
X111564286Y-76220095D01*
X111564286Y-76220095D02*
X111373810Y-76220095D01*
X111373810Y-76220095D02*
X111259524Y-76258190D01*
X111259524Y-76258190D02*
X111183334Y-76334380D01*
X111183334Y-76334380D02*
X111145239Y-76410571D01*
X111145239Y-76410571D02*
X111107143Y-76562952D01*
X111107143Y-76562952D02*
X111107143Y-76677238D01*
X111107143Y-76677238D02*
X111145239Y-76829619D01*
X111145239Y-76829619D02*
X111183334Y-76905809D01*
X111183334Y-76905809D02*
X111259524Y-76982000D01*
X111259524Y-76982000D02*
X111373810Y-77020095D01*
X111373810Y-77020095D02*
X111564286Y-77020095D01*
X110421429Y-77020095D02*
X110421429Y-76601047D01*
X110421429Y-76601047D02*
X110459524Y-76524857D01*
X110459524Y-76524857D02*
X110535715Y-76486761D01*
X110535715Y-76486761D02*
X110688096Y-76486761D01*
X110688096Y-76486761D02*
X110764286Y-76524857D01*
X110421429Y-76982000D02*
X110497620Y-77020095D01*
X110497620Y-77020095D02*
X110688096Y-77020095D01*
X110688096Y-77020095D02*
X110764286Y-76982000D01*
X110764286Y-76982000D02*
X110802382Y-76905809D01*
X110802382Y-76905809D02*
X110802382Y-76829619D01*
X110802382Y-76829619D02*
X110764286Y-76753428D01*
X110764286Y-76753428D02*
X110688096Y-76715333D01*
X110688096Y-76715333D02*
X110497620Y-76715333D01*
X110497620Y-76715333D02*
X110421429Y-76677238D01*
X110154762Y-76486761D02*
X109850000Y-76486761D01*
X110040476Y-76220095D02*
X110040476Y-76905809D01*
X110040476Y-76905809D02*
X110002381Y-76982000D01*
X110002381Y-76982000D02*
X109926191Y-77020095D01*
X109926191Y-77020095D02*
X109850000Y-77020095D01*
X109240476Y-77020095D02*
X109240476Y-76601047D01*
X109240476Y-76601047D02*
X109278571Y-76524857D01*
X109278571Y-76524857D02*
X109354762Y-76486761D01*
X109354762Y-76486761D02*
X109507143Y-76486761D01*
X109507143Y-76486761D02*
X109583333Y-76524857D01*
X109240476Y-76982000D02*
X109316667Y-77020095D01*
X109316667Y-77020095D02*
X109507143Y-77020095D01*
X109507143Y-77020095D02*
X109583333Y-76982000D01*
X109583333Y-76982000D02*
X109621429Y-76905809D01*
X109621429Y-76905809D02*
X109621429Y-76829619D01*
X109621429Y-76829619D02*
X109583333Y-76753428D01*
X109583333Y-76753428D02*
X109507143Y-76715333D01*
X109507143Y-76715333D02*
X109316667Y-76715333D01*
X109316667Y-76715333D02*
X109240476Y-76677238D01*
X111030951Y-78812095D02*
X110764284Y-79612095D01*
X110764284Y-79612095D02*
X110497618Y-78812095D01*
X109888094Y-79574000D02*
X109964285Y-79612095D01*
X109964285Y-79612095D02*
X110116666Y-79612095D01*
X110116666Y-79612095D02*
X110192856Y-79574000D01*
X110192856Y-79574000D02*
X110230951Y-79535904D01*
X110230951Y-79535904D02*
X110269047Y-79459714D01*
X110269047Y-79459714D02*
X110269047Y-79231142D01*
X110269047Y-79231142D02*
X110230951Y-79154952D01*
X110230951Y-79154952D02*
X110192856Y-79116857D01*
X110192856Y-79116857D02*
X110116666Y-79078761D01*
X110116666Y-79078761D02*
X109964285Y-79078761D01*
X109964285Y-79078761D02*
X109888094Y-79116857D01*
X109202380Y-79574000D02*
X109278571Y-79612095D01*
X109278571Y-79612095D02*
X109430952Y-79612095D01*
X109430952Y-79612095D02*
X109507142Y-79574000D01*
X109507142Y-79574000D02*
X109545237Y-79535904D01*
X109545237Y-79535904D02*
X109583333Y-79459714D01*
X109583333Y-79459714D02*
X109583333Y-79231142D01*
X109583333Y-79231142D02*
X109545237Y-79154952D01*
X109545237Y-79154952D02*
X109507142Y-79116857D01*
X109507142Y-79116857D02*
X109430952Y-79078761D01*
X109430952Y-79078761D02*
X109278571Y-79078761D01*
X109278571Y-79078761D02*
X109202380Y-79116857D01*
X118521904Y-88054095D02*
X118521904Y-87254095D01*
X117988571Y-87254095D02*
X117836190Y-87254095D01*
X117836190Y-87254095D02*
X117760000Y-87292190D01*
X117760000Y-87292190D02*
X117683809Y-87368380D01*
X117683809Y-87368380D02*
X117645714Y-87520761D01*
X117645714Y-87520761D02*
X117645714Y-87787428D01*
X117645714Y-87787428D02*
X117683809Y-87939809D01*
X117683809Y-87939809D02*
X117760000Y-88016000D01*
X117760000Y-88016000D02*
X117836190Y-88054095D01*
X117836190Y-88054095D02*
X117988571Y-88054095D01*
X117988571Y-88054095D02*
X118064762Y-88016000D01*
X118064762Y-88016000D02*
X118140952Y-87939809D01*
X118140952Y-87939809D02*
X118179048Y-87787428D01*
X118179048Y-87787428D02*
X118179048Y-87520761D01*
X118179048Y-87520761D02*
X118140952Y-87368380D01*
X118140952Y-87368380D02*
X118064762Y-87292190D01*
X118064762Y-87292190D02*
X117988571Y-87254095D01*
X117493334Y-88130285D02*
X116883810Y-88130285D01*
X116274286Y-88054095D02*
X116731429Y-88054095D01*
X116502857Y-88054095D02*
X116502857Y-87254095D01*
X116502857Y-87254095D02*
X116579048Y-87368380D01*
X116579048Y-87368380D02*
X116655238Y-87444571D01*
X116655238Y-87444571D02*
X116731429Y-87482666D01*
X115512381Y-88054095D02*
X115969524Y-88054095D01*
X115740952Y-88054095D02*
X115740952Y-87254095D01*
X115740952Y-87254095D02*
X115817143Y-87368380D01*
X115817143Y-87368380D02*
X115893333Y-87444571D01*
X115893333Y-87444571D02*
X115969524Y-87482666D01*
X118521904Y-90646095D02*
X118521904Y-89846095D01*
X117988571Y-89846095D02*
X117836190Y-89846095D01*
X117836190Y-89846095D02*
X117760000Y-89884190D01*
X117760000Y-89884190D02*
X117683809Y-89960380D01*
X117683809Y-89960380D02*
X117645714Y-90112761D01*
X117645714Y-90112761D02*
X117645714Y-90379428D01*
X117645714Y-90379428D02*
X117683809Y-90531809D01*
X117683809Y-90531809D02*
X117760000Y-90608000D01*
X117760000Y-90608000D02*
X117836190Y-90646095D01*
X117836190Y-90646095D02*
X117988571Y-90646095D01*
X117988571Y-90646095D02*
X118064762Y-90608000D01*
X118064762Y-90608000D02*
X118140952Y-90531809D01*
X118140952Y-90531809D02*
X118179048Y-90379428D01*
X118179048Y-90379428D02*
X118179048Y-90112761D01*
X118179048Y-90112761D02*
X118140952Y-89960380D01*
X118140952Y-89960380D02*
X118064762Y-89884190D01*
X118064762Y-89884190D02*
X117988571Y-89846095D01*
X117493334Y-90722285D02*
X116883810Y-90722285D01*
X116274286Y-90646095D02*
X116731429Y-90646095D01*
X116502857Y-90646095D02*
X116502857Y-89846095D01*
X116502857Y-89846095D02*
X116579048Y-89960380D01*
X116579048Y-89960380D02*
X116655238Y-90036571D01*
X116655238Y-90036571D02*
X116731429Y-90074666D01*
X115969524Y-89922285D02*
X115931428Y-89884190D01*
X115931428Y-89884190D02*
X115855238Y-89846095D01*
X115855238Y-89846095D02*
X115664762Y-89846095D01*
X115664762Y-89846095D02*
X115588571Y-89884190D01*
X115588571Y-89884190D02*
X115550476Y-89922285D01*
X115550476Y-89922285D02*
X115512381Y-89998476D01*
X115512381Y-89998476D02*
X115512381Y-90074666D01*
X115512381Y-90074666D02*
X115550476Y-90188952D01*
X115550476Y-90188952D02*
X116007619Y-90646095D01*
X116007619Y-90646095D02*
X115512381Y-90646095D01*
X172960951Y-83376095D02*
X172694284Y-84176095D01*
X172694284Y-84176095D02*
X172427618Y-83376095D01*
X171818094Y-84138000D02*
X171894285Y-84176095D01*
X171894285Y-84176095D02*
X172046666Y-84176095D01*
X172046666Y-84176095D02*
X172122856Y-84138000D01*
X172122856Y-84138000D02*
X172160951Y-84099904D01*
X172160951Y-84099904D02*
X172199047Y-84023714D01*
X172199047Y-84023714D02*
X172199047Y-83795142D01*
X172199047Y-83795142D02*
X172160951Y-83718952D01*
X172160951Y-83718952D02*
X172122856Y-83680857D01*
X172122856Y-83680857D02*
X172046666Y-83642761D01*
X172046666Y-83642761D02*
X171894285Y-83642761D01*
X171894285Y-83642761D02*
X171818094Y-83680857D01*
X171132380Y-84138000D02*
X171208571Y-84176095D01*
X171208571Y-84176095D02*
X171360952Y-84176095D01*
X171360952Y-84176095D02*
X171437142Y-84138000D01*
X171437142Y-84138000D02*
X171475237Y-84099904D01*
X171475237Y-84099904D02*
X171513333Y-84023714D01*
X171513333Y-84023714D02*
X171513333Y-83795142D01*
X171513333Y-83795142D02*
X171475237Y-83718952D01*
X171475237Y-83718952D02*
X171437142Y-83680857D01*
X171437142Y-83680857D02*
X171360952Y-83642761D01*
X171360952Y-83642761D02*
X171208571Y-83642761D01*
X171208571Y-83642761D02*
X171132380Y-83680857D01*
X173494286Y-86768095D02*
X173494286Y-85968095D01*
X173494286Y-85968095D02*
X173303810Y-85968095D01*
X173303810Y-85968095D02*
X173189524Y-86006190D01*
X173189524Y-86006190D02*
X173113334Y-86082380D01*
X173113334Y-86082380D02*
X173075239Y-86158571D01*
X173075239Y-86158571D02*
X173037143Y-86310952D01*
X173037143Y-86310952D02*
X173037143Y-86425238D01*
X173037143Y-86425238D02*
X173075239Y-86577619D01*
X173075239Y-86577619D02*
X173113334Y-86653809D01*
X173113334Y-86653809D02*
X173189524Y-86730000D01*
X173189524Y-86730000D02*
X173303810Y-86768095D01*
X173303810Y-86768095D02*
X173494286Y-86768095D01*
X172351429Y-86768095D02*
X172351429Y-86349047D01*
X172351429Y-86349047D02*
X172389524Y-86272857D01*
X172389524Y-86272857D02*
X172465715Y-86234761D01*
X172465715Y-86234761D02*
X172618096Y-86234761D01*
X172618096Y-86234761D02*
X172694286Y-86272857D01*
X172351429Y-86730000D02*
X172427620Y-86768095D01*
X172427620Y-86768095D02*
X172618096Y-86768095D01*
X172618096Y-86768095D02*
X172694286Y-86730000D01*
X172694286Y-86730000D02*
X172732382Y-86653809D01*
X172732382Y-86653809D02*
X172732382Y-86577619D01*
X172732382Y-86577619D02*
X172694286Y-86501428D01*
X172694286Y-86501428D02*
X172618096Y-86463333D01*
X172618096Y-86463333D02*
X172427620Y-86463333D01*
X172427620Y-86463333D02*
X172351429Y-86425238D01*
X172084762Y-86234761D02*
X171780000Y-86234761D01*
X171970476Y-85968095D02*
X171970476Y-86653809D01*
X171970476Y-86653809D02*
X171932381Y-86730000D01*
X171932381Y-86730000D02*
X171856191Y-86768095D01*
X171856191Y-86768095D02*
X171780000Y-86768095D01*
X171170476Y-86768095D02*
X171170476Y-86349047D01*
X171170476Y-86349047D02*
X171208571Y-86272857D01*
X171208571Y-86272857D02*
X171284762Y-86234761D01*
X171284762Y-86234761D02*
X171437143Y-86234761D01*
X171437143Y-86234761D02*
X171513333Y-86272857D01*
X171170476Y-86730000D02*
X171246667Y-86768095D01*
X171246667Y-86768095D02*
X171437143Y-86768095D01*
X171437143Y-86768095D02*
X171513333Y-86730000D01*
X171513333Y-86730000D02*
X171551429Y-86653809D01*
X171551429Y-86653809D02*
X171551429Y-86577619D01*
X171551429Y-86577619D02*
X171513333Y-86501428D01*
X171513333Y-86501428D02*
X171437143Y-86463333D01*
X171437143Y-86463333D02*
X171246667Y-86463333D01*
X171246667Y-86463333D02*
X171170476Y-86425238D01*
X172199047Y-89283904D02*
X172237143Y-89322000D01*
X172237143Y-89322000D02*
X172351428Y-89360095D01*
X172351428Y-89360095D02*
X172427619Y-89360095D01*
X172427619Y-89360095D02*
X172541905Y-89322000D01*
X172541905Y-89322000D02*
X172618095Y-89245809D01*
X172618095Y-89245809D02*
X172656190Y-89169619D01*
X172656190Y-89169619D02*
X172694286Y-89017238D01*
X172694286Y-89017238D02*
X172694286Y-88902952D01*
X172694286Y-88902952D02*
X172656190Y-88750571D01*
X172656190Y-88750571D02*
X172618095Y-88674380D01*
X172618095Y-88674380D02*
X172541905Y-88598190D01*
X172541905Y-88598190D02*
X172427619Y-88560095D01*
X172427619Y-88560095D02*
X172351428Y-88560095D01*
X172351428Y-88560095D02*
X172237143Y-88598190D01*
X172237143Y-88598190D02*
X172199047Y-88636285D01*
X171741905Y-89360095D02*
X171818095Y-89322000D01*
X171818095Y-89322000D02*
X171856190Y-89245809D01*
X171856190Y-89245809D02*
X171856190Y-88560095D01*
X171437142Y-89360095D02*
X171437142Y-88560095D01*
X171360952Y-89055333D02*
X171132380Y-89360095D01*
X171132380Y-88826761D02*
X171437142Y-89131523D01*
X172618096Y-91190190D02*
X172694286Y-91152095D01*
X172694286Y-91152095D02*
X172808572Y-91152095D01*
X172808572Y-91152095D02*
X172922858Y-91190190D01*
X172922858Y-91190190D02*
X172999048Y-91266380D01*
X172999048Y-91266380D02*
X173037143Y-91342571D01*
X173037143Y-91342571D02*
X173075239Y-91494952D01*
X173075239Y-91494952D02*
X173075239Y-91609238D01*
X173075239Y-91609238D02*
X173037143Y-91761619D01*
X173037143Y-91761619D02*
X172999048Y-91837809D01*
X172999048Y-91837809D02*
X172922858Y-91914000D01*
X172922858Y-91914000D02*
X172808572Y-91952095D01*
X172808572Y-91952095D02*
X172732381Y-91952095D01*
X172732381Y-91952095D02*
X172618096Y-91914000D01*
X172618096Y-91914000D02*
X172580000Y-91875904D01*
X172580000Y-91875904D02*
X172580000Y-91609238D01*
X172580000Y-91609238D02*
X172732381Y-91609238D01*
X172237143Y-91418761D02*
X172237143Y-91952095D01*
X172237143Y-91494952D02*
X172199048Y-91456857D01*
X172199048Y-91456857D02*
X172122858Y-91418761D01*
X172122858Y-91418761D02*
X172008572Y-91418761D01*
X172008572Y-91418761D02*
X171932381Y-91456857D01*
X171932381Y-91456857D02*
X171894286Y-91533047D01*
X171894286Y-91533047D02*
X171894286Y-91952095D01*
X171170476Y-91952095D02*
X171170476Y-91152095D01*
X171170476Y-91914000D02*
X171246667Y-91952095D01*
X171246667Y-91952095D02*
X171399048Y-91952095D01*
X171399048Y-91952095D02*
X171475238Y-91914000D01*
X171475238Y-91914000D02*
X171513333Y-91875904D01*
X171513333Y-91875904D02*
X171551429Y-91799714D01*
X171551429Y-91799714D02*
X171551429Y-91571142D01*
X171551429Y-91571142D02*
X171513333Y-91494952D01*
X171513333Y-91494952D02*
X171475238Y-91456857D01*
X171475238Y-91456857D02*
X171399048Y-91418761D01*
X171399048Y-91418761D02*
X171246667Y-91418761D01*
X171246667Y-91418761D02*
X171170476Y-91456857D01*
X166911904Y-86924095D02*
X166911904Y-86124095D01*
X166378571Y-86124095D02*
X166226190Y-86124095D01*
X166226190Y-86124095D02*
X166150000Y-86162190D01*
X166150000Y-86162190D02*
X166073809Y-86238380D01*
X166073809Y-86238380D02*
X166035714Y-86390761D01*
X166035714Y-86390761D02*
X166035714Y-86657428D01*
X166035714Y-86657428D02*
X166073809Y-86809809D01*
X166073809Y-86809809D02*
X166150000Y-86886000D01*
X166150000Y-86886000D02*
X166226190Y-86924095D01*
X166226190Y-86924095D02*
X166378571Y-86924095D01*
X166378571Y-86924095D02*
X166454762Y-86886000D01*
X166454762Y-86886000D02*
X166530952Y-86809809D01*
X166530952Y-86809809D02*
X166569048Y-86657428D01*
X166569048Y-86657428D02*
X166569048Y-86390761D01*
X166569048Y-86390761D02*
X166530952Y-86238380D01*
X166530952Y-86238380D02*
X166454762Y-86162190D01*
X166454762Y-86162190D02*
X166378571Y-86124095D01*
X165883334Y-87000285D02*
X165273810Y-87000285D01*
X165159524Y-86124095D02*
X164664286Y-86124095D01*
X164664286Y-86124095D02*
X164930952Y-86428857D01*
X164930952Y-86428857D02*
X164816667Y-86428857D01*
X164816667Y-86428857D02*
X164740476Y-86466952D01*
X164740476Y-86466952D02*
X164702381Y-86505047D01*
X164702381Y-86505047D02*
X164664286Y-86581238D01*
X164664286Y-86581238D02*
X164664286Y-86771714D01*
X164664286Y-86771714D02*
X164702381Y-86847904D01*
X164702381Y-86847904D02*
X164740476Y-86886000D01*
X164740476Y-86886000D02*
X164816667Y-86924095D01*
X164816667Y-86924095D02*
X165045238Y-86924095D01*
X165045238Y-86924095D02*
X165121429Y-86886000D01*
X165121429Y-86886000D02*
X165159524Y-86847904D01*
X163978571Y-86124095D02*
X164130952Y-86124095D01*
X164130952Y-86124095D02*
X164207143Y-86162190D01*
X164207143Y-86162190D02*
X164245238Y-86200285D01*
X164245238Y-86200285D02*
X164321428Y-86314571D01*
X164321428Y-86314571D02*
X164359524Y-86466952D01*
X164359524Y-86466952D02*
X164359524Y-86771714D01*
X164359524Y-86771714D02*
X164321428Y-86847904D01*
X164321428Y-86847904D02*
X164283333Y-86886000D01*
X164283333Y-86886000D02*
X164207143Y-86924095D01*
X164207143Y-86924095D02*
X164054762Y-86924095D01*
X164054762Y-86924095D02*
X163978571Y-86886000D01*
X163978571Y-86886000D02*
X163940476Y-86847904D01*
X163940476Y-86847904D02*
X163902381Y-86771714D01*
X163902381Y-86771714D02*
X163902381Y-86581238D01*
X163902381Y-86581238D02*
X163940476Y-86505047D01*
X163940476Y-86505047D02*
X163978571Y-86466952D01*
X163978571Y-86466952D02*
X164054762Y-86428857D01*
X164054762Y-86428857D02*
X164207143Y-86428857D01*
X164207143Y-86428857D02*
X164283333Y-86466952D01*
X164283333Y-86466952D02*
X164321428Y-86505047D01*
X164321428Y-86505047D02*
X164359524Y-86581238D01*
X166911904Y-89516095D02*
X166911904Y-88716095D01*
X166378571Y-88716095D02*
X166226190Y-88716095D01*
X166226190Y-88716095D02*
X166150000Y-88754190D01*
X166150000Y-88754190D02*
X166073809Y-88830380D01*
X166073809Y-88830380D02*
X166035714Y-88982761D01*
X166035714Y-88982761D02*
X166035714Y-89249428D01*
X166035714Y-89249428D02*
X166073809Y-89401809D01*
X166073809Y-89401809D02*
X166150000Y-89478000D01*
X166150000Y-89478000D02*
X166226190Y-89516095D01*
X166226190Y-89516095D02*
X166378571Y-89516095D01*
X166378571Y-89516095D02*
X166454762Y-89478000D01*
X166454762Y-89478000D02*
X166530952Y-89401809D01*
X166530952Y-89401809D02*
X166569048Y-89249428D01*
X166569048Y-89249428D02*
X166569048Y-88982761D01*
X166569048Y-88982761D02*
X166530952Y-88830380D01*
X166530952Y-88830380D02*
X166454762Y-88754190D01*
X166454762Y-88754190D02*
X166378571Y-88716095D01*
X165883334Y-89592285D02*
X165273810Y-89592285D01*
X164740476Y-88982761D02*
X164740476Y-89516095D01*
X164930952Y-88678000D02*
X165121429Y-89249428D01*
X165121429Y-89249428D02*
X164626190Y-89249428D01*
X164207143Y-89058952D02*
X164283333Y-89020857D01*
X164283333Y-89020857D02*
X164321428Y-88982761D01*
X164321428Y-88982761D02*
X164359524Y-88906571D01*
X164359524Y-88906571D02*
X164359524Y-88868476D01*
X164359524Y-88868476D02*
X164321428Y-88792285D01*
X164321428Y-88792285D02*
X164283333Y-88754190D01*
X164283333Y-88754190D02*
X164207143Y-88716095D01*
X164207143Y-88716095D02*
X164054762Y-88716095D01*
X164054762Y-88716095D02*
X163978571Y-88754190D01*
X163978571Y-88754190D02*
X163940476Y-88792285D01*
X163940476Y-88792285D02*
X163902381Y-88868476D01*
X163902381Y-88868476D02*
X163902381Y-88906571D01*
X163902381Y-88906571D02*
X163940476Y-88982761D01*
X163940476Y-88982761D02*
X163978571Y-89020857D01*
X163978571Y-89020857D02*
X164054762Y-89058952D01*
X164054762Y-89058952D02*
X164207143Y-89058952D01*
X164207143Y-89058952D02*
X164283333Y-89097047D01*
X164283333Y-89097047D02*
X164321428Y-89135142D01*
X164321428Y-89135142D02*
X164359524Y-89211333D01*
X164359524Y-89211333D02*
X164359524Y-89363714D01*
X164359524Y-89363714D02*
X164321428Y-89439904D01*
X164321428Y-89439904D02*
X164283333Y-89478000D01*
X164283333Y-89478000D02*
X164207143Y-89516095D01*
X164207143Y-89516095D02*
X164054762Y-89516095D01*
X164054762Y-89516095D02*
X163978571Y-89478000D01*
X163978571Y-89478000D02*
X163940476Y-89439904D01*
X163940476Y-89439904D02*
X163902381Y-89363714D01*
X163902381Y-89363714D02*
X163902381Y-89211333D01*
X163902381Y-89211333D02*
X163940476Y-89135142D01*
X163940476Y-89135142D02*
X163978571Y-89097047D01*
X163978571Y-89097047D02*
X164054762Y-89058952D01*
X118651904Y-74374095D02*
X118651904Y-73574095D01*
X118118571Y-73574095D02*
X117966190Y-73574095D01*
X117966190Y-73574095D02*
X117890000Y-73612190D01*
X117890000Y-73612190D02*
X117813809Y-73688380D01*
X117813809Y-73688380D02*
X117775714Y-73840761D01*
X117775714Y-73840761D02*
X117775714Y-74107428D01*
X117775714Y-74107428D02*
X117813809Y-74259809D01*
X117813809Y-74259809D02*
X117890000Y-74336000D01*
X117890000Y-74336000D02*
X117966190Y-74374095D01*
X117966190Y-74374095D02*
X118118571Y-74374095D01*
X118118571Y-74374095D02*
X118194762Y-74336000D01*
X118194762Y-74336000D02*
X118270952Y-74259809D01*
X118270952Y-74259809D02*
X118309048Y-74107428D01*
X118309048Y-74107428D02*
X118309048Y-73840761D01*
X118309048Y-73840761D02*
X118270952Y-73688380D01*
X118270952Y-73688380D02*
X118194762Y-73612190D01*
X118194762Y-73612190D02*
X118118571Y-73574095D01*
X117623334Y-74450285D02*
X117013810Y-74450285D01*
X116670952Y-73574095D02*
X116594762Y-73574095D01*
X116594762Y-73574095D02*
X116518571Y-73612190D01*
X116518571Y-73612190D02*
X116480476Y-73650285D01*
X116480476Y-73650285D02*
X116442381Y-73726476D01*
X116442381Y-73726476D02*
X116404286Y-73878857D01*
X116404286Y-73878857D02*
X116404286Y-74069333D01*
X116404286Y-74069333D02*
X116442381Y-74221714D01*
X116442381Y-74221714D02*
X116480476Y-74297904D01*
X116480476Y-74297904D02*
X116518571Y-74336000D01*
X116518571Y-74336000D02*
X116594762Y-74374095D01*
X116594762Y-74374095D02*
X116670952Y-74374095D01*
X116670952Y-74374095D02*
X116747143Y-74336000D01*
X116747143Y-74336000D02*
X116785238Y-74297904D01*
X116785238Y-74297904D02*
X116823333Y-74221714D01*
X116823333Y-74221714D02*
X116861429Y-74069333D01*
X116861429Y-74069333D02*
X116861429Y-73878857D01*
X116861429Y-73878857D02*
X116823333Y-73726476D01*
X116823333Y-73726476D02*
X116785238Y-73650285D01*
X116785238Y-73650285D02*
X116747143Y-73612190D01*
X116747143Y-73612190D02*
X116670952Y-73574095D01*
X116023333Y-74374095D02*
X115870952Y-74374095D01*
X115870952Y-74374095D02*
X115794762Y-74336000D01*
X115794762Y-74336000D02*
X115756666Y-74297904D01*
X115756666Y-74297904D02*
X115680476Y-74183619D01*
X115680476Y-74183619D02*
X115642381Y-74031238D01*
X115642381Y-74031238D02*
X115642381Y-73726476D01*
X115642381Y-73726476D02*
X115680476Y-73650285D01*
X115680476Y-73650285D02*
X115718571Y-73612190D01*
X115718571Y-73612190D02*
X115794762Y-73574095D01*
X115794762Y-73574095D02*
X115947143Y-73574095D01*
X115947143Y-73574095D02*
X116023333Y-73612190D01*
X116023333Y-73612190D02*
X116061428Y-73650285D01*
X116061428Y-73650285D02*
X116099524Y-73726476D01*
X116099524Y-73726476D02*
X116099524Y-73916952D01*
X116099524Y-73916952D02*
X116061428Y-73993142D01*
X116061428Y-73993142D02*
X116023333Y-74031238D01*
X116023333Y-74031238D02*
X115947143Y-74069333D01*
X115947143Y-74069333D02*
X115794762Y-74069333D01*
X115794762Y-74069333D02*
X115718571Y-74031238D01*
X115718571Y-74031238D02*
X115680476Y-73993142D01*
X115680476Y-73993142D02*
X115642381Y-73916952D01*
X118651904Y-76966095D02*
X118651904Y-76166095D01*
X118118571Y-76166095D02*
X117966190Y-76166095D01*
X117966190Y-76166095D02*
X117890000Y-76204190D01*
X117890000Y-76204190D02*
X117813809Y-76280380D01*
X117813809Y-76280380D02*
X117775714Y-76432761D01*
X117775714Y-76432761D02*
X117775714Y-76699428D01*
X117775714Y-76699428D02*
X117813809Y-76851809D01*
X117813809Y-76851809D02*
X117890000Y-76928000D01*
X117890000Y-76928000D02*
X117966190Y-76966095D01*
X117966190Y-76966095D02*
X118118571Y-76966095D01*
X118118571Y-76966095D02*
X118194762Y-76928000D01*
X118194762Y-76928000D02*
X118270952Y-76851809D01*
X118270952Y-76851809D02*
X118309048Y-76699428D01*
X118309048Y-76699428D02*
X118309048Y-76432761D01*
X118309048Y-76432761D02*
X118270952Y-76280380D01*
X118270952Y-76280380D02*
X118194762Y-76204190D01*
X118194762Y-76204190D02*
X118118571Y-76166095D01*
X117623334Y-77042285D02*
X117013810Y-77042285D01*
X116404286Y-76966095D02*
X116861429Y-76966095D01*
X116632857Y-76966095D02*
X116632857Y-76166095D01*
X116632857Y-76166095D02*
X116709048Y-76280380D01*
X116709048Y-76280380D02*
X116785238Y-76356571D01*
X116785238Y-76356571D02*
X116861429Y-76394666D01*
X115909047Y-76166095D02*
X115832857Y-76166095D01*
X115832857Y-76166095D02*
X115756666Y-76204190D01*
X115756666Y-76204190D02*
X115718571Y-76242285D01*
X115718571Y-76242285D02*
X115680476Y-76318476D01*
X115680476Y-76318476D02*
X115642381Y-76470857D01*
X115642381Y-76470857D02*
X115642381Y-76661333D01*
X115642381Y-76661333D02*
X115680476Y-76813714D01*
X115680476Y-76813714D02*
X115718571Y-76889904D01*
X115718571Y-76889904D02*
X115756666Y-76928000D01*
X115756666Y-76928000D02*
X115832857Y-76966095D01*
X115832857Y-76966095D02*
X115909047Y-76966095D01*
X115909047Y-76966095D02*
X115985238Y-76928000D01*
X115985238Y-76928000D02*
X116023333Y-76889904D01*
X116023333Y-76889904D02*
X116061428Y-76813714D01*
X116061428Y-76813714D02*
X116099524Y-76661333D01*
X116099524Y-76661333D02*
X116099524Y-76470857D01*
X116099524Y-76470857D02*
X116061428Y-76318476D01*
X116061428Y-76318476D02*
X116023333Y-76242285D01*
X116023333Y-76242285D02*
X115985238Y-76204190D01*
X115985238Y-76204190D02*
X115909047Y-76166095D01*
%TO.C,R1*%
X163868571Y-75125952D02*
X163868571Y-75792619D01*
X164106666Y-74745000D02*
X164344761Y-75459285D01*
X164344761Y-75459285D02*
X163725714Y-75459285D01*
X163344761Y-75697380D02*
X163297142Y-75745000D01*
X163297142Y-75745000D02*
X163344761Y-75792619D01*
X163344761Y-75792619D02*
X163392380Y-75745000D01*
X163392380Y-75745000D02*
X163344761Y-75697380D01*
X163344761Y-75697380D02*
X163344761Y-75792619D01*
X162963809Y-74792619D02*
X162297143Y-74792619D01*
X162297143Y-74792619D02*
X162725714Y-75792619D01*
X161916190Y-75792619D02*
X161916190Y-74792619D01*
X161820952Y-75411666D02*
X161535238Y-75792619D01*
X161535238Y-75125952D02*
X161916190Y-75506904D01*
D12*
%TO.C,Q1*%
X122430000Y-74360000D02*
X122430000Y-73710000D01*
X119310000Y-74360000D02*
X119310000Y-73710000D01*
X122430000Y-74360000D02*
X122430000Y-76035000D01*
X119310000Y-74360000D02*
X119310000Y-75010000D01*
%TO.C,R2*%
X123567500Y-74877258D02*
X123567500Y-74402742D01*
X124612500Y-74877258D02*
X124612500Y-74402742D01*
%TO.C,JP1*%
X125090000Y-73980000D02*
X125090000Y-75380000D01*
X127090000Y-75380000D02*
X127090000Y-73980000D01*
X125790000Y-76080000D02*
X126390000Y-76080000D01*
X126390000Y-73280000D02*
X125790000Y-73280000D01*
X125090000Y-75380000D02*
G75*
G03*
X125790000Y-76080000I700000J0D01*
G01*
X125790000Y-73280000D02*
G75*
G03*
X125090000Y-73980000I-1J-699999D01*
G01*
X127090000Y-73980000D02*
G75*
G03*
X126390000Y-73280000I-699999J1D01*
G01*
X126390000Y-76080000D02*
G75*
G03*
X127090000Y-75380000I0J700000D01*
G01*
%TO.C,R1*%
X166212742Y-74747500D02*
X166687258Y-74747500D01*
X166212742Y-75792500D02*
X166687258Y-75792500D01*
%TO.C,G\u002A\u002A\u002A*%
D13*
X123580505Y-76213339D02*
X123658662Y-76215115D01*
X123715655Y-76221579D01*
X123763330Y-76234908D01*
X123813537Y-76257279D01*
X123848243Y-76276000D01*
X123890755Y-76307431D01*
X123927244Y-76350096D01*
X123967456Y-76413912D01*
X124004080Y-76479172D01*
X124111680Y-76708819D01*
X124190424Y-76943980D01*
X124238145Y-77178534D01*
X124246821Y-77247197D01*
X124266986Y-77505562D01*
X124264646Y-77742207D01*
X124239861Y-77955883D01*
X124192688Y-78145343D01*
X124171025Y-78207640D01*
X124117604Y-78332109D01*
X124057019Y-78430126D01*
X123984816Y-78506886D01*
X123896538Y-78567583D01*
X123787729Y-78617411D01*
X123742972Y-78635569D01*
X123657880Y-78679053D01*
X123605696Y-78721729D01*
X123584144Y-78748548D01*
X123566258Y-78782587D01*
X123570982Y-78814023D01*
X123597498Y-78856288D01*
X123610464Y-78872594D01*
X123640030Y-78901485D01*
X123683290Y-78935372D01*
X123744241Y-78977082D01*
X123826879Y-79029445D01*
X123935200Y-79095288D01*
X123943213Y-79100100D01*
X124019187Y-79145929D01*
X124097644Y-79193540D01*
X124162804Y-79233360D01*
X124219370Y-79263555D01*
X124280085Y-79286437D01*
X124332556Y-79297402D01*
X124372025Y-79296630D01*
X124393738Y-79284301D01*
X124392939Y-79260596D01*
X124364870Y-79225695D01*
X124360667Y-79221697D01*
X124305461Y-79149406D01*
X124277197Y-79069498D01*
X124277207Y-78989100D01*
X124306825Y-78915342D01*
X124337877Y-78876474D01*
X124399793Y-78834023D01*
X124469569Y-78823611D01*
X124544146Y-78846129D01*
X124590691Y-78875321D01*
X124633592Y-78923621D01*
X124656534Y-78988632D01*
X124663334Y-79077770D01*
X124663367Y-79095720D01*
X124664904Y-79150756D01*
X124670788Y-79182596D01*
X124683812Y-79199806D01*
X124706770Y-79210953D01*
X124726419Y-79218137D01*
X124755925Y-79224159D01*
X124773167Y-79213125D01*
X124783164Y-79179469D01*
X124790934Y-79117628D01*
X124792819Y-79102392D01*
X124817939Y-79006432D01*
X124861195Y-78929578D01*
X124918490Y-78874765D01*
X124985729Y-78844931D01*
X125058816Y-78843010D01*
X125133656Y-78871938D01*
X125186223Y-78917208D01*
X125216699Y-78981678D01*
X125216600Y-79059369D01*
X125185709Y-79149134D01*
X125150716Y-79204242D01*
X125084109Y-79260737D01*
X125066823Y-79271326D01*
X125032555Y-79299195D01*
X125018934Y-79321684D01*
X125023084Y-79340042D01*
X125043425Y-79342486D01*
X125081196Y-79317074D01*
X125136926Y-79263545D01*
X125159754Y-79241178D01*
X125236303Y-79187638D01*
X125313164Y-79167465D01*
X125391467Y-79180289D01*
X125396257Y-79182091D01*
X125461526Y-79219932D01*
X125498401Y-79274435D01*
X125510000Y-79350065D01*
X125508549Y-79393996D01*
X125496553Y-79451859D01*
X125467554Y-79494429D01*
X125415754Y-79532955D01*
X125390264Y-79547251D01*
X125338890Y-79563136D01*
X125275840Y-79562231D01*
X125262421Y-79560946D01*
X125182501Y-79560929D01*
X125129892Y-79577544D01*
X125102319Y-79611439D01*
X125099294Y-79646035D01*
X125124492Y-79678691D01*
X125181455Y-79702655D01*
X125270758Y-79718295D01*
X125358484Y-79733654D01*
X125430504Y-79763498D01*
X125484073Y-79811528D01*
X125526616Y-79882508D01*
X125532231Y-79894625D01*
X125551012Y-79943540D01*
X125554673Y-79981989D01*
X125545232Y-80025456D01*
X125526161Y-80067693D01*
X125484926Y-80120745D01*
X125434885Y-80160743D01*
X125385935Y-80178195D01*
X125370951Y-80178945D01*
X125304517Y-80177419D01*
X125243426Y-80169538D01*
X125201870Y-80156941D01*
X125200017Y-80155848D01*
X125174240Y-80132839D01*
X125136755Y-80091544D01*
X125094999Y-80040093D01*
X125087200Y-80029994D01*
X125048083Y-79981938D01*
X125020318Y-79955821D01*
X124997026Y-79946585D01*
X124971330Y-79949174D01*
X124933666Y-79961028D01*
X124899187Y-79987128D01*
X124883318Y-80030754D01*
X124881601Y-80099368D01*
X124879461Y-80169361D01*
X124862282Y-80259669D01*
X124831841Y-80338433D01*
X124791445Y-80394823D01*
X124787159Y-80398591D01*
X124740285Y-80425541D01*
X124685559Y-80441332D01*
X124604801Y-80439497D01*
X124532184Y-80411508D01*
X124476232Y-80361937D01*
X124439852Y-80296168D01*
X124425951Y-80219585D01*
X124437437Y-80137573D01*
X124477218Y-80055515D01*
X124528168Y-79981000D01*
X124383934Y-79853362D01*
X124212285Y-79857915D01*
X124174492Y-79858877D01*
X124108525Y-79859563D01*
X124064132Y-79856733D01*
X124032771Y-79848656D01*
X124005899Y-79833602D01*
X123974973Y-79809841D01*
X123930966Y-79776855D01*
X123880059Y-79749072D01*
X123842214Y-79745520D01*
X123812610Y-79764861D01*
X123805254Y-79774252D01*
X123797626Y-79791922D01*
X123794648Y-79818718D01*
X123796351Y-79860740D01*
X123802768Y-79924090D01*
X123813931Y-80014867D01*
X123827315Y-80141597D01*
X123837430Y-80301274D01*
X123840718Y-80458922D01*
X123837214Y-80606748D01*
X123826956Y-80736958D01*
X123809982Y-80841761D01*
X123802663Y-80870413D01*
X123774894Y-80956024D01*
X123737803Y-81050761D01*
X123696843Y-81140237D01*
X123689663Y-81154371D01*
X123636381Y-81247096D01*
X123574162Y-81333470D01*
X123499358Y-81416894D01*
X123408326Y-81500771D01*
X123297419Y-81588500D01*
X123162992Y-81683485D01*
X123001399Y-81789126D01*
X122958156Y-81816725D01*
X122831153Y-81899613D01*
X122732265Y-81967514D01*
X122660258Y-82021395D01*
X122613893Y-82062223D01*
X122591936Y-82090966D01*
X122593151Y-82108591D01*
X122613662Y-82118435D01*
X122660039Y-82134153D01*
X122724171Y-82153201D01*
X122798246Y-82173366D01*
X122874456Y-82192439D01*
X122944990Y-82208206D01*
X122970794Y-82215234D01*
X123029421Y-82235916D01*
X123101842Y-82265052D01*
X123177961Y-82298720D01*
X123236694Y-82327102D01*
X123392322Y-82414098D01*
X123531466Y-82509393D01*
X123651399Y-82610228D01*
X123749393Y-82713843D01*
X123822724Y-82817479D01*
X123868663Y-82918376D01*
X123884484Y-83013774D01*
X123883938Y-83036686D01*
X123876358Y-83089156D01*
X123856532Y-83135479D01*
X123820242Y-83181516D01*
X123763273Y-83233131D01*
X123681409Y-83296188D01*
X123616103Y-83344106D01*
X123556295Y-83387335D01*
X123510495Y-83419738D01*
X123485277Y-83436610D01*
X123471981Y-83446268D01*
X123479838Y-83450460D01*
X123517489Y-83447413D01*
X123551330Y-83445699D01*
X123629552Y-83460748D01*
X123692218Y-83500116D01*
X123733840Y-83559379D01*
X123748934Y-83634111D01*
X123746314Y-83670436D01*
X123729667Y-83713560D01*
X123691360Y-83758827D01*
X123680579Y-83769409D01*
X123642605Y-83799806D01*
X123603355Y-83813325D01*
X123546652Y-83816400D01*
X123473804Y-83809146D01*
X123379878Y-83774006D01*
X123352112Y-83760219D01*
X123311656Y-83746005D01*
X123294082Y-83750088D01*
X123292281Y-83759115D01*
X123301172Y-83778255D01*
X123333126Y-83795896D01*
X123393334Y-83815458D01*
X123482807Y-83850681D01*
X123544630Y-83899115D01*
X123580411Y-83962790D01*
X123592145Y-84031450D01*
X123578005Y-84102674D01*
X123537221Y-84159412D01*
X123473428Y-84196928D01*
X123390261Y-84210485D01*
X123388335Y-84210478D01*
X123311975Y-84195645D01*
X123251859Y-84151746D01*
X123206599Y-84077776D01*
X123189316Y-84041197D01*
X123165546Y-84009321D01*
X123143943Y-84008573D01*
X123121793Y-84037669D01*
X123120191Y-84040753D01*
X123112749Y-84075302D01*
X123130054Y-84113869D01*
X123153169Y-84142309D01*
X123173156Y-84155067D01*
X123177359Y-84155705D01*
X123199468Y-84176398D01*
X123219969Y-84219037D01*
X123235059Y-84273766D01*
X123240934Y-84330727D01*
X123240816Y-84340420D01*
X123230351Y-84404190D01*
X123198965Y-84456345D01*
X123155278Y-84493606D01*
X123087959Y-84518056D01*
X123016533Y-84516807D01*
X122950294Y-84490385D01*
X122898536Y-84439318D01*
X122880235Y-84407624D01*
X122862231Y-84354625D01*
X122858889Y-84293517D01*
X122870149Y-84216799D01*
X122895949Y-84116967D01*
X122896223Y-84116004D01*
X122893778Y-84093609D01*
X122864843Y-84087334D01*
X122852128Y-84088109D01*
X122802716Y-84104864D01*
X122764929Y-84137044D01*
X122749867Y-84176081D01*
X122739618Y-84227591D01*
X122710027Y-84291501D01*
X122668842Y-84350602D01*
X122623900Y-84391495D01*
X122565331Y-84416772D01*
X122486080Y-84427422D01*
X122409268Y-84416389D01*
X122346949Y-84383999D01*
X122312606Y-84344762D01*
X122281339Y-84273807D01*
X122274922Y-84197400D01*
X122283084Y-84161438D01*
X122317909Y-84093564D01*
X122370389Y-84034010D01*
X122431099Y-83994990D01*
X122473292Y-83974881D01*
X122527791Y-83936036D01*
X122563240Y-83893774D01*
X122577083Y-83853208D01*
X122566766Y-83819451D01*
X122529734Y-83797616D01*
X122492842Y-83791591D01*
X122434103Y-83786711D01*
X122367138Y-83784222D01*
X122360593Y-83784105D01*
X122261762Y-83773814D01*
X122190190Y-83746715D01*
X122142915Y-83701039D01*
X122116971Y-83635019D01*
X122115893Y-83629784D01*
X122109870Y-83532597D01*
X122134374Y-83448195D01*
X122190480Y-83372737D01*
X122194888Y-83368356D01*
X122238459Y-83330582D01*
X122277187Y-83312830D01*
X122325086Y-83308400D01*
X122401796Y-83316992D01*
X122485380Y-83351043D01*
X122548194Y-83408444D01*
X122555067Y-83417367D01*
X122584315Y-83448303D01*
X122605726Y-83460801D01*
X122618296Y-83451372D01*
X122646056Y-83419665D01*
X122683084Y-83372228D01*
X122724446Y-83315966D01*
X122765207Y-83257781D01*
X122800432Y-83204577D01*
X122825186Y-83163258D01*
X122834534Y-83140726D01*
X122834485Y-83139293D01*
X122831043Y-83131783D01*
X122818642Y-83125275D01*
X122792349Y-83118764D01*
X122747230Y-83111250D01*
X122678350Y-83101731D01*
X122580776Y-83089206D01*
X122538801Y-83082715D01*
X122441808Y-83062566D01*
X122327886Y-83034066D01*
X122206521Y-82999812D01*
X122087197Y-82962405D01*
X121979400Y-82924442D01*
X121911667Y-82898838D01*
X121834990Y-82982182D01*
X121812355Y-83009078D01*
X121786010Y-83046214D01*
X121756474Y-83094316D01*
X121722279Y-83156257D01*
X121681955Y-83234909D01*
X121634033Y-83333144D01*
X121577046Y-83453833D01*
X121509523Y-83599851D01*
X121429997Y-83774067D01*
X121426373Y-83782004D01*
X121399220Y-83840378D01*
X121362425Y-83918280D01*
X121320359Y-84006492D01*
X121277394Y-84095800D01*
X121272734Y-84105452D01*
X121227682Y-84199844D01*
X121182522Y-84296146D01*
X121142268Y-84383588D01*
X121111929Y-84451400D01*
X121047814Y-84576456D01*
X120961161Y-84705055D01*
X120849956Y-84838654D01*
X120710961Y-84981537D01*
X120538041Y-85133380D01*
X120328314Y-85279407D01*
X120103861Y-85396549D01*
X119861047Y-85486967D01*
X119822965Y-85498406D01*
X119771403Y-85512158D01*
X119722332Y-85521789D01*
X119668481Y-85528055D01*
X119602578Y-85531709D01*
X119517353Y-85533506D01*
X119405534Y-85534198D01*
X119387789Y-85534245D01*
X119276881Y-85533935D01*
X119191470Y-85532040D01*
X119124213Y-85527936D01*
X119067766Y-85520996D01*
X119014787Y-85510597D01*
X118957932Y-85496114D01*
X118836908Y-85458026D01*
X118641313Y-85374773D01*
X118464300Y-85271693D01*
X118458570Y-85267765D01*
X118382780Y-85210491D01*
X118299134Y-85139353D01*
X118214673Y-85061115D01*
X118136440Y-84982544D01*
X118071480Y-84910405D01*
X118026833Y-84851463D01*
X118011210Y-84825522D01*
X117968578Y-84741703D01*
X117927371Y-84645029D01*
X117893183Y-84549304D01*
X117871605Y-84468334D01*
X117871161Y-84465976D01*
X117864562Y-84405693D01*
X117861365Y-84322073D01*
X117861271Y-84223283D01*
X117863975Y-84117493D01*
X117869178Y-84012871D01*
X117876576Y-83917585D01*
X117885868Y-83839805D01*
X117896753Y-83787697D01*
X117903758Y-83767640D01*
X117944233Y-83694518D01*
X117996881Y-83647563D01*
X118057001Y-83628535D01*
X118119889Y-83639196D01*
X118180845Y-83681307D01*
X118193302Y-83694057D01*
X118218014Y-83726481D01*
X118225981Y-83760758D01*
X118222128Y-83812540D01*
X118219477Y-83834184D01*
X118206500Y-83950733D01*
X118199585Y-84043015D01*
X118198962Y-84118862D01*
X118204860Y-84186107D01*
X118217506Y-84252584D01*
X118237131Y-84326125D01*
X118268564Y-84422354D01*
X118326976Y-84552522D01*
X118401162Y-84664909D01*
X118496643Y-84768934D01*
X118597454Y-84849661D01*
X118737699Y-84929584D01*
X118896942Y-84993082D01*
X119068483Y-85038019D01*
X119245618Y-85062259D01*
X119421645Y-85063667D01*
X119563550Y-85050171D01*
X119686503Y-85026617D01*
X119795219Y-84990835D01*
X119899247Y-84940359D01*
X120020497Y-84859644D01*
X120147633Y-84743139D01*
X120266143Y-84598211D01*
X120376486Y-84424037D01*
X120479117Y-84219797D01*
X120574493Y-83984670D01*
X120663070Y-83717834D01*
X120745305Y-83418467D01*
X120767954Y-83329022D01*
X120820348Y-83130164D01*
X120870483Y-82952957D01*
X120920872Y-82789086D01*
X120974026Y-82630235D01*
X121032460Y-82468088D01*
X121140241Y-82178110D01*
X121090982Y-82087088D01*
X121012304Y-81911922D01*
X120954953Y-81706018D01*
X120927732Y-81486195D01*
X120926454Y-81463055D01*
X120920229Y-81376809D01*
X120912717Y-81318226D01*
X120903065Y-81282218D01*
X120890420Y-81263701D01*
X120854791Y-81248249D01*
X120789123Y-81243910D01*
X120704857Y-81255222D01*
X120608074Y-81281795D01*
X120491685Y-81321056D01*
X120538100Y-81353762D01*
X120552038Y-81363645D01*
X120617119Y-81412873D01*
X120659746Y-81453097D01*
X120685899Y-81490869D01*
X120701563Y-81532739D01*
X120710150Y-81583521D01*
X120700590Y-81658221D01*
X120663604Y-81716365D01*
X120602215Y-81754057D01*
X120519444Y-81767404D01*
X120483128Y-81762612D01*
X120424984Y-81737893D01*
X120377956Y-81698993D01*
X120353405Y-81653692D01*
X120344806Y-81613243D01*
X120330855Y-81556517D01*
X120318213Y-81523732D01*
X120304024Y-81508642D01*
X120285433Y-81505001D01*
X120277819Y-81505484D01*
X120263724Y-81512897D01*
X120254364Y-81534434D01*
X120247706Y-81576667D01*
X120241712Y-81646167D01*
X120233175Y-81726016D01*
X120215969Y-81798073D01*
X120188616Y-81845099D01*
X120148133Y-81871794D01*
X120091541Y-81882855D01*
X120083445Y-81883366D01*
X119997972Y-81876148D01*
X119934409Y-81844915D01*
X119894518Y-81790494D01*
X119882657Y-81758646D01*
X119873077Y-81700026D01*
X119885677Y-81642986D01*
X119922000Y-81575461D01*
X119923003Y-81573879D01*
X119954208Y-81523494D01*
X119969039Y-81495047D01*
X119969848Y-81482447D01*
X119958985Y-81479601D01*
X119952148Y-81483701D01*
X119931284Y-81509643D01*
X119905670Y-81551567D01*
X119891729Y-81576364D01*
X119850992Y-81638792D01*
X119810843Y-81680845D01*
X119763350Y-81711433D01*
X119744572Y-81719546D01*
X119677747Y-81727809D01*
X119611597Y-81710431D01*
X119554281Y-81672292D01*
X119513955Y-81618269D01*
X119498779Y-81553240D01*
X119498876Y-81548170D01*
X119508740Y-81490617D01*
X119529824Y-81441155D01*
X119540870Y-81425851D01*
X119594229Y-81371601D01*
X119658146Y-81326902D01*
X119719056Y-81301744D01*
X119722013Y-81301073D01*
X119754103Y-81286435D01*
X119758101Y-81261484D01*
X119757891Y-81260708D01*
X119745113Y-81242706D01*
X119714405Y-81233017D01*
X119657875Y-81229090D01*
X119596836Y-81225482D01*
X119495387Y-81206227D01*
X119421738Y-81170161D01*
X119374300Y-81116324D01*
X119351486Y-81043754D01*
X119351224Y-80988469D01*
X119375558Y-80914925D01*
X119424999Y-80855907D01*
X119494616Y-80816635D01*
X119579479Y-80802330D01*
X119593950Y-80802561D01*
X119637867Y-80809236D01*
X119677276Y-80829685D01*
X119725306Y-80870000D01*
X119758803Y-80899324D01*
X119795031Y-80927032D01*
X119815777Y-80937734D01*
X119816261Y-80937721D01*
X119840978Y-80927470D01*
X119875846Y-80903848D01*
X119899791Y-80883226D01*
X119910205Y-80863090D01*
X119908103Y-80832791D01*
X119895264Y-80781081D01*
X119891069Y-80764582D01*
X119874046Y-80659955D01*
X119875726Y-80568780D01*
X119896086Y-80498462D01*
X119900625Y-80490410D01*
X119945763Y-80445477D01*
X120007868Y-80420697D01*
X120078268Y-80415665D01*
X120148292Y-80429980D01*
X120209270Y-80463238D01*
X120252529Y-80515035D01*
X120253083Y-80516125D01*
X120268687Y-80570652D01*
X120274264Y-80641475D01*
X120269676Y-80712916D01*
X120254782Y-80769298D01*
X120254354Y-80770271D01*
X120255885Y-80788987D01*
X120280270Y-80808488D01*
X120332430Y-80832798D01*
X120370670Y-80847446D01*
X120421925Y-80863370D01*
X120455728Y-80869248D01*
X120462544Y-80868076D01*
X120498254Y-80852773D01*
X120549566Y-80823538D01*
X120607800Y-80785167D01*
X120650895Y-80755022D01*
X120746089Y-80690198D01*
X120821668Y-80642426D01*
X120882810Y-80609062D01*
X120934694Y-80587465D01*
X120982499Y-80574990D01*
X121031403Y-80568995D01*
X121102358Y-80567758D01*
X121195331Y-80581524D01*
X121279137Y-80615976D01*
X121356922Y-80673622D01*
X121431831Y-80756969D01*
X121507011Y-80868525D01*
X121585607Y-81010799D01*
X121593946Y-81027106D01*
X121633466Y-81106158D01*
X121667350Y-81176715D01*
X121692225Y-81231616D01*
X121704718Y-81263700D01*
X121718407Y-81295888D01*
X121734303Y-81310267D01*
X121735645Y-81310221D01*
X121766978Y-81295537D01*
X121807439Y-81260292D01*
X121849623Y-81212774D01*
X121886126Y-81161274D01*
X121909542Y-81114082D01*
X121918763Y-81084964D01*
X121925680Y-81049690D01*
X121925530Y-81011291D01*
X121918023Y-80959834D01*
X121902870Y-80885386D01*
X121895444Y-80851484D01*
X121880204Y-80786856D01*
X121867290Y-80738316D01*
X121858900Y-80714417D01*
X121855540Y-80706296D01*
X121845028Y-80669161D01*
X121831324Y-80611460D01*
X121816519Y-80541716D01*
X121799205Y-80432556D01*
X121792637Y-80255098D01*
X121814914Y-80091188D01*
X121865699Y-79942739D01*
X121944657Y-79811666D01*
X121972892Y-79771145D01*
X121990619Y-79737451D01*
X121990739Y-79722313D01*
X121967715Y-79721200D01*
X121915671Y-79726973D01*
X121843365Y-79739140D01*
X121757546Y-79756260D01*
X121664966Y-79776891D01*
X121572374Y-79799592D01*
X121486522Y-79822921D01*
X121414158Y-79845436D01*
X121238383Y-79905430D01*
X121167269Y-79863754D01*
X121141565Y-79846223D01*
X121093505Y-79797792D01*
X121046901Y-79727692D01*
X120999362Y-79632018D01*
X120948495Y-79506867D01*
X120938184Y-79479598D01*
X120914562Y-79419832D01*
X120895165Y-79381307D01*
X120874155Y-79356320D01*
X120845693Y-79337168D01*
X120803942Y-79316149D01*
X120729150Y-79279720D01*
X120672119Y-79329794D01*
X120647903Y-79349036D01*
X120601128Y-79372701D01*
X120543417Y-79382376D01*
X120463867Y-79380727D01*
X120450433Y-79379022D01*
X120402246Y-79354081D01*
X120372460Y-79302059D01*
X120362267Y-79224783D01*
X120365059Y-79173513D01*
X120378131Y-79133599D01*
X120406663Y-79100039D01*
X120440797Y-79075725D01*
X120493452Y-79052977D01*
X120544574Y-79042811D01*
X120581302Y-79048988D01*
X120591327Y-79054176D01*
X120598545Y-79048452D01*
X120589055Y-79017185D01*
X120581503Y-79004027D01*
X120559422Y-78990306D01*
X120530537Y-78987102D01*
X120473000Y-78971170D01*
X120416814Y-78947288D01*
X120378101Y-78921568D01*
X120363699Y-78903147D01*
X120349484Y-78861054D01*
X120345334Y-78796058D01*
X120348911Y-78742571D01*
X120367839Y-78692971D01*
X120408422Y-78661643D01*
X120476635Y-78641560D01*
X120500328Y-78635885D01*
X120520927Y-78622987D01*
X120530529Y-78595791D01*
X120535017Y-78544518D01*
X120536652Y-78521154D01*
X120544602Y-78476118D01*
X120563193Y-78446299D01*
X120599334Y-78418117D01*
X120625440Y-78401966D01*
X120671715Y-78386111D01*
X120726334Y-78388769D01*
X120730010Y-78389356D01*
X120800316Y-78406262D01*
X120843152Y-78433390D01*
X120864482Y-78477169D01*
X120870267Y-78544032D01*
X120870967Y-78593420D01*
X120875362Y-78622757D01*
X120886735Y-78632039D01*
X120908367Y-78628540D01*
X120934197Y-78622277D01*
X120959167Y-78618098D01*
X120961074Y-78617373D01*
X120968754Y-78596843D01*
X120971867Y-78556926D01*
X120974949Y-78516485D01*
X121000894Y-78436527D01*
X121048842Y-78372007D01*
X121113471Y-78328888D01*
X121189461Y-78313130D01*
X121206445Y-78314028D01*
X121253951Y-78330011D01*
X121303761Y-78370641D01*
X121320390Y-78387812D01*
X121347041Y-78423412D01*
X121358737Y-78462364D01*
X121361334Y-78519848D01*
X121361121Y-78533329D01*
X121347590Y-78611326D01*
X121311244Y-78666598D01*
X121249641Y-78703152D01*
X121224103Y-78719636D01*
X121209719Y-78756911D01*
X121224869Y-78803099D01*
X121227780Y-78807258D01*
X121244241Y-78817981D01*
X121274370Y-78817878D01*
X121327502Y-78807332D01*
X121376125Y-78797348D01*
X121470350Y-78788448D01*
X121540270Y-78800053D01*
X121588209Y-78832808D01*
X121616491Y-78887356D01*
X121619031Y-78896533D01*
X121625116Y-78953460D01*
X121610657Y-79015052D01*
X121583911Y-79071661D01*
X121539440Y-79117057D01*
X121475741Y-79141714D01*
X121386941Y-79149150D01*
X121276729Y-79149151D01*
X121313517Y-79188309D01*
X121324030Y-79198574D01*
X121356470Y-79219074D01*
X121396862Y-79226960D01*
X121449546Y-79221484D01*
X121518865Y-79201898D01*
X121609157Y-79167453D01*
X121724764Y-79117400D01*
X121777713Y-79093769D01*
X121855338Y-79059473D01*
X121918346Y-79032071D01*
X121961319Y-79013909D01*
X121978840Y-79007334D01*
X121980973Y-79007076D01*
X122008357Y-78994108D01*
X122055367Y-78964511D01*
X122116248Y-78922373D01*
X122185243Y-78871786D01*
X122256599Y-78816840D01*
X122324559Y-78761626D01*
X122368059Y-78724640D01*
X122459190Y-78642863D01*
X122525791Y-78576021D01*
X122566645Y-78525395D01*
X122580534Y-78492266D01*
X122578000Y-78484945D01*
X122556952Y-78455303D01*
X122519198Y-78412276D01*
X122470329Y-78362449D01*
X122450938Y-78343306D01*
X122378751Y-78262490D01*
X122330344Y-78186062D01*
X122300731Y-78104496D01*
X122284924Y-78008267D01*
X122281324Y-77919277D01*
X122298286Y-77753550D01*
X122344017Y-77575135D01*
X122417727Y-77385934D01*
X122518626Y-77187849D01*
X122645922Y-76982779D01*
X122798826Y-76772628D01*
X122876058Y-76678028D01*
X122972576Y-76569848D01*
X123070270Y-76469851D01*
X123164050Y-76382970D01*
X123248825Y-76314133D01*
X123319504Y-76268274D01*
X123349460Y-76252809D01*
X123397628Y-76231596D01*
X123443045Y-76219698D01*
X123497909Y-76214487D01*
X123574413Y-76213334D01*
X123580505Y-76213339D01*
G36*
X123580505Y-76213339D02*
G01*
X123658662Y-76215115D01*
X123715655Y-76221579D01*
X123763330Y-76234908D01*
X123813537Y-76257279D01*
X123848243Y-76276000D01*
X123890755Y-76307431D01*
X123927244Y-76350096D01*
X123967456Y-76413912D01*
X124004080Y-76479172D01*
X124111680Y-76708819D01*
X124190424Y-76943980D01*
X124238145Y-77178534D01*
X124246821Y-77247197D01*
X124266986Y-77505562D01*
X124264646Y-77742207D01*
X124239861Y-77955883D01*
X124192688Y-78145343D01*
X124171025Y-78207640D01*
X124117604Y-78332109D01*
X124057019Y-78430126D01*
X123984816Y-78506886D01*
X123896538Y-78567583D01*
X123787729Y-78617411D01*
X123742972Y-78635569D01*
X123657880Y-78679053D01*
X123605696Y-78721729D01*
X123584144Y-78748548D01*
X123566258Y-78782587D01*
X123570982Y-78814023D01*
X123597498Y-78856288D01*
X123610464Y-78872594D01*
X123640030Y-78901485D01*
X123683290Y-78935372D01*
X123744241Y-78977082D01*
X123826879Y-79029445D01*
X123935200Y-79095288D01*
X123943213Y-79100100D01*
X124019187Y-79145929D01*
X124097644Y-79193540D01*
X124162804Y-79233360D01*
X124219370Y-79263555D01*
X124280085Y-79286437D01*
X124332556Y-79297402D01*
X124372025Y-79296630D01*
X124393738Y-79284301D01*
X124392939Y-79260596D01*
X124364870Y-79225695D01*
X124360667Y-79221697D01*
X124305461Y-79149406D01*
X124277197Y-79069498D01*
X124277207Y-78989100D01*
X124306825Y-78915342D01*
X124337877Y-78876474D01*
X124399793Y-78834023D01*
X124469569Y-78823611D01*
X124544146Y-78846129D01*
X124590691Y-78875321D01*
X124633592Y-78923621D01*
X124656534Y-78988632D01*
X124663334Y-79077770D01*
X124663367Y-79095720D01*
X124664904Y-79150756D01*
X124670788Y-79182596D01*
X124683812Y-79199806D01*
X124706770Y-79210953D01*
X124726419Y-79218137D01*
X124755925Y-79224159D01*
X124773167Y-79213125D01*
X124783164Y-79179469D01*
X124790934Y-79117628D01*
X124792819Y-79102392D01*
X124817939Y-79006432D01*
X124861195Y-78929578D01*
X124918490Y-78874765D01*
X124985729Y-78844931D01*
X125058816Y-78843010D01*
X125133656Y-78871938D01*
X125186223Y-78917208D01*
X125216699Y-78981678D01*
X125216600Y-79059369D01*
X125185709Y-79149134D01*
X125150716Y-79204242D01*
X125084109Y-79260737D01*
X125066823Y-79271326D01*
X125032555Y-79299195D01*
X125018934Y-79321684D01*
X125023084Y-79340042D01*
X125043425Y-79342486D01*
X125081196Y-79317074D01*
X125136926Y-79263545D01*
X125159754Y-79241178D01*
X125236303Y-79187638D01*
X125313164Y-79167465D01*
X125391467Y-79180289D01*
X125396257Y-79182091D01*
X125461526Y-79219932D01*
X125498401Y-79274435D01*
X125510000Y-79350065D01*
X125508549Y-79393996D01*
X125496553Y-79451859D01*
X125467554Y-79494429D01*
X125415754Y-79532955D01*
X125390264Y-79547251D01*
X125338890Y-79563136D01*
X125275840Y-79562231D01*
X125262421Y-79560946D01*
X125182501Y-79560929D01*
X125129892Y-79577544D01*
X125102319Y-79611439D01*
X125099294Y-79646035D01*
X125124492Y-79678691D01*
X125181455Y-79702655D01*
X125270758Y-79718295D01*
X125358484Y-79733654D01*
X125430504Y-79763498D01*
X125484073Y-79811528D01*
X125526616Y-79882508D01*
X125532231Y-79894625D01*
X125551012Y-79943540D01*
X125554673Y-79981989D01*
X125545232Y-80025456D01*
X125526161Y-80067693D01*
X125484926Y-80120745D01*
X125434885Y-80160743D01*
X125385935Y-80178195D01*
X125370951Y-80178945D01*
X125304517Y-80177419D01*
X125243426Y-80169538D01*
X125201870Y-80156941D01*
X125200017Y-80155848D01*
X125174240Y-80132839D01*
X125136755Y-80091544D01*
X125094999Y-80040093D01*
X125087200Y-80029994D01*
X125048083Y-79981938D01*
X125020318Y-79955821D01*
X124997026Y-79946585D01*
X124971330Y-79949174D01*
X124933666Y-79961028D01*
X124899187Y-79987128D01*
X124883318Y-80030754D01*
X124881601Y-80099368D01*
X124879461Y-80169361D01*
X124862282Y-80259669D01*
X124831841Y-80338433D01*
X124791445Y-80394823D01*
X124787159Y-80398591D01*
X124740285Y-80425541D01*
X124685559Y-80441332D01*
X124604801Y-80439497D01*
X124532184Y-80411508D01*
X124476232Y-80361937D01*
X124439852Y-80296168D01*
X124425951Y-80219585D01*
X124437437Y-80137573D01*
X124477218Y-80055515D01*
X124528168Y-79981000D01*
X124383934Y-79853362D01*
X124212285Y-79857915D01*
X124174492Y-79858877D01*
X124108525Y-79859563D01*
X124064132Y-79856733D01*
X124032771Y-79848656D01*
X124005899Y-79833602D01*
X123974973Y-79809841D01*
X123930966Y-79776855D01*
X123880059Y-79749072D01*
X123842214Y-79745520D01*
X123812610Y-79764861D01*
X123805254Y-79774252D01*
X123797626Y-79791922D01*
X123794648Y-79818718D01*
X123796351Y-79860740D01*
X123802768Y-79924090D01*
X123813931Y-80014867D01*
X123827315Y-80141597D01*
X123837430Y-80301274D01*
X123840718Y-80458922D01*
X123837214Y-80606748D01*
X123826956Y-80736958D01*
X123809982Y-80841761D01*
X123802663Y-80870413D01*
X123774894Y-80956024D01*
X123737803Y-81050761D01*
X123696843Y-81140237D01*
X123689663Y-81154371D01*
X123636381Y-81247096D01*
X123574162Y-81333470D01*
X123499358Y-81416894D01*
X123408326Y-81500771D01*
X123297419Y-81588500D01*
X123162992Y-81683485D01*
X123001399Y-81789126D01*
X122958156Y-81816725D01*
X122831153Y-81899613D01*
X122732265Y-81967514D01*
X122660258Y-82021395D01*
X122613893Y-82062223D01*
X122591936Y-82090966D01*
X122593151Y-82108591D01*
X122613662Y-82118435D01*
X122660039Y-82134153D01*
X122724171Y-82153201D01*
X122798246Y-82173366D01*
X122874456Y-82192439D01*
X122944990Y-82208206D01*
X122970794Y-82215234D01*
X123029421Y-82235916D01*
X123101842Y-82265052D01*
X123177961Y-82298720D01*
X123236694Y-82327102D01*
X123392322Y-82414098D01*
X123531466Y-82509393D01*
X123651399Y-82610228D01*
X123749393Y-82713843D01*
X123822724Y-82817479D01*
X123868663Y-82918376D01*
X123884484Y-83013774D01*
X123883938Y-83036686D01*
X123876358Y-83089156D01*
X123856532Y-83135479D01*
X123820242Y-83181516D01*
X123763273Y-83233131D01*
X123681409Y-83296188D01*
X123616103Y-83344106D01*
X123556295Y-83387335D01*
X123510495Y-83419738D01*
X123485277Y-83436610D01*
X123471981Y-83446268D01*
X123479838Y-83450460D01*
X123517489Y-83447413D01*
X123551330Y-83445699D01*
X123629552Y-83460748D01*
X123692218Y-83500116D01*
X123733840Y-83559379D01*
X123748934Y-83634111D01*
X123746314Y-83670436D01*
X123729667Y-83713560D01*
X123691360Y-83758827D01*
X123680579Y-83769409D01*
X123642605Y-83799806D01*
X123603355Y-83813325D01*
X123546652Y-83816400D01*
X123473804Y-83809146D01*
X123379878Y-83774006D01*
X123352112Y-83760219D01*
X123311656Y-83746005D01*
X123294082Y-83750088D01*
X123292281Y-83759115D01*
X123301172Y-83778255D01*
X123333126Y-83795896D01*
X123393334Y-83815458D01*
X123482807Y-83850681D01*
X123544630Y-83899115D01*
X123580411Y-83962790D01*
X123592145Y-84031450D01*
X123578005Y-84102674D01*
X123537221Y-84159412D01*
X123473428Y-84196928D01*
X123390261Y-84210485D01*
X123388335Y-84210478D01*
X123311975Y-84195645D01*
X123251859Y-84151746D01*
X123206599Y-84077776D01*
X123189316Y-84041197D01*
X123165546Y-84009321D01*
X123143943Y-84008573D01*
X123121793Y-84037669D01*
X123120191Y-84040753D01*
X123112749Y-84075302D01*
X123130054Y-84113869D01*
X123153169Y-84142309D01*
X123173156Y-84155067D01*
X123177359Y-84155705D01*
X123199468Y-84176398D01*
X123219969Y-84219037D01*
X123235059Y-84273766D01*
X123240934Y-84330727D01*
X123240816Y-84340420D01*
X123230351Y-84404190D01*
X123198965Y-84456345D01*
X123155278Y-84493606D01*
X123087959Y-84518056D01*
X123016533Y-84516807D01*
X122950294Y-84490385D01*
X122898536Y-84439318D01*
X122880235Y-84407624D01*
X122862231Y-84354625D01*
X122858889Y-84293517D01*
X122870149Y-84216799D01*
X122895949Y-84116967D01*
X122896223Y-84116004D01*
X122893778Y-84093609D01*
X122864843Y-84087334D01*
X122852128Y-84088109D01*
X122802716Y-84104864D01*
X122764929Y-84137044D01*
X122749867Y-84176081D01*
X122739618Y-84227591D01*
X122710027Y-84291501D01*
X122668842Y-84350602D01*
X122623900Y-84391495D01*
X122565331Y-84416772D01*
X122486080Y-84427422D01*
X122409268Y-84416389D01*
X122346949Y-84383999D01*
X122312606Y-84344762D01*
X122281339Y-84273807D01*
X122274922Y-84197400D01*
X122283084Y-84161438D01*
X122317909Y-84093564D01*
X122370389Y-84034010D01*
X122431099Y-83994990D01*
X122473292Y-83974881D01*
X122527791Y-83936036D01*
X122563240Y-83893774D01*
X122577083Y-83853208D01*
X122566766Y-83819451D01*
X122529734Y-83797616D01*
X122492842Y-83791591D01*
X122434103Y-83786711D01*
X122367138Y-83784222D01*
X122360593Y-83784105D01*
X122261762Y-83773814D01*
X122190190Y-83746715D01*
X122142915Y-83701039D01*
X122116971Y-83635019D01*
X122115893Y-83629784D01*
X122109870Y-83532597D01*
X122134374Y-83448195D01*
X122190480Y-83372737D01*
X122194888Y-83368356D01*
X122238459Y-83330582D01*
X122277187Y-83312830D01*
X122325086Y-83308400D01*
X122401796Y-83316992D01*
X122485380Y-83351043D01*
X122548194Y-83408444D01*
X122555067Y-83417367D01*
X122584315Y-83448303D01*
X122605726Y-83460801D01*
X122618296Y-83451372D01*
X122646056Y-83419665D01*
X122683084Y-83372228D01*
X122724446Y-83315966D01*
X122765207Y-83257781D01*
X122800432Y-83204577D01*
X122825186Y-83163258D01*
X122834534Y-83140726D01*
X122834485Y-83139293D01*
X122831043Y-83131783D01*
X122818642Y-83125275D01*
X122792349Y-83118764D01*
X122747230Y-83111250D01*
X122678350Y-83101731D01*
X122580776Y-83089206D01*
X122538801Y-83082715D01*
X122441808Y-83062566D01*
X122327886Y-83034066D01*
X122206521Y-82999812D01*
X122087197Y-82962405D01*
X121979400Y-82924442D01*
X121911667Y-82898838D01*
X121834990Y-82982182D01*
X121812355Y-83009078D01*
X121786010Y-83046214D01*
X121756474Y-83094316D01*
X121722279Y-83156257D01*
X121681955Y-83234909D01*
X121634033Y-83333144D01*
X121577046Y-83453833D01*
X121509523Y-83599851D01*
X121429997Y-83774067D01*
X121426373Y-83782004D01*
X121399220Y-83840378D01*
X121362425Y-83918280D01*
X121320359Y-84006492D01*
X121277394Y-84095800D01*
X121272734Y-84105452D01*
X121227682Y-84199844D01*
X121182522Y-84296146D01*
X121142268Y-84383588D01*
X121111929Y-84451400D01*
X121047814Y-84576456D01*
X120961161Y-84705055D01*
X120849956Y-84838654D01*
X120710961Y-84981537D01*
X120538041Y-85133380D01*
X120328314Y-85279407D01*
X120103861Y-85396549D01*
X119861047Y-85486967D01*
X119822965Y-85498406D01*
X119771403Y-85512158D01*
X119722332Y-85521789D01*
X119668481Y-85528055D01*
X119602578Y-85531709D01*
X119517353Y-85533506D01*
X119405534Y-85534198D01*
X119387789Y-85534245D01*
X119276881Y-85533935D01*
X119191470Y-85532040D01*
X119124213Y-85527936D01*
X119067766Y-85520996D01*
X119014787Y-85510597D01*
X118957932Y-85496114D01*
X118836908Y-85458026D01*
X118641313Y-85374773D01*
X118464300Y-85271693D01*
X118458570Y-85267765D01*
X118382780Y-85210491D01*
X118299134Y-85139353D01*
X118214673Y-85061115D01*
X118136440Y-84982544D01*
X118071480Y-84910405D01*
X118026833Y-84851463D01*
X118011210Y-84825522D01*
X117968578Y-84741703D01*
X117927371Y-84645029D01*
X117893183Y-84549304D01*
X117871605Y-84468334D01*
X117871161Y-84465976D01*
X117864562Y-84405693D01*
X117861365Y-84322073D01*
X117861271Y-84223283D01*
X117863975Y-84117493D01*
X117869178Y-84012871D01*
X117876576Y-83917585D01*
X117885868Y-83839805D01*
X117896753Y-83787697D01*
X117903758Y-83767640D01*
X117944233Y-83694518D01*
X117996881Y-83647563D01*
X118057001Y-83628535D01*
X118119889Y-83639196D01*
X118180845Y-83681307D01*
X118193302Y-83694057D01*
X118218014Y-83726481D01*
X118225981Y-83760758D01*
X118222128Y-83812540D01*
X118219477Y-83834184D01*
X118206500Y-83950733D01*
X118199585Y-84043015D01*
X118198962Y-84118862D01*
X118204860Y-84186107D01*
X118217506Y-84252584D01*
X118237131Y-84326125D01*
X118268564Y-84422354D01*
X118326976Y-84552522D01*
X118401162Y-84664909D01*
X118496643Y-84768934D01*
X118597454Y-84849661D01*
X118737699Y-84929584D01*
X118896942Y-84993082D01*
X119068483Y-85038019D01*
X119245618Y-85062259D01*
X119421645Y-85063667D01*
X119563550Y-85050171D01*
X119686503Y-85026617D01*
X119795219Y-84990835D01*
X119899247Y-84940359D01*
X120020497Y-84859644D01*
X120147633Y-84743139D01*
X120266143Y-84598211D01*
X120376486Y-84424037D01*
X120479117Y-84219797D01*
X120574493Y-83984670D01*
X120663070Y-83717834D01*
X120745305Y-83418467D01*
X120767954Y-83329022D01*
X120820348Y-83130164D01*
X120870483Y-82952957D01*
X120920872Y-82789086D01*
X120974026Y-82630235D01*
X121032460Y-82468088D01*
X121140241Y-82178110D01*
X121090982Y-82087088D01*
X121012304Y-81911922D01*
X120954953Y-81706018D01*
X120927732Y-81486195D01*
X120926454Y-81463055D01*
X120920229Y-81376809D01*
X120912717Y-81318226D01*
X120903065Y-81282218D01*
X120890420Y-81263701D01*
X120854791Y-81248249D01*
X120789123Y-81243910D01*
X120704857Y-81255222D01*
X120608074Y-81281795D01*
X120491685Y-81321056D01*
X120538100Y-81353762D01*
X120552038Y-81363645D01*
X120617119Y-81412873D01*
X120659746Y-81453097D01*
X120685899Y-81490869D01*
X120701563Y-81532739D01*
X120710150Y-81583521D01*
X120700590Y-81658221D01*
X120663604Y-81716365D01*
X120602215Y-81754057D01*
X120519444Y-81767404D01*
X120483128Y-81762612D01*
X120424984Y-81737893D01*
X120377956Y-81698993D01*
X120353405Y-81653692D01*
X120344806Y-81613243D01*
X120330855Y-81556517D01*
X120318213Y-81523732D01*
X120304024Y-81508642D01*
X120285433Y-81505001D01*
X120277819Y-81505484D01*
X120263724Y-81512897D01*
X120254364Y-81534434D01*
X120247706Y-81576667D01*
X120241712Y-81646167D01*
X120233175Y-81726016D01*
X120215969Y-81798073D01*
X120188616Y-81845099D01*
X120148133Y-81871794D01*
X120091541Y-81882855D01*
X120083445Y-81883366D01*
X119997972Y-81876148D01*
X119934409Y-81844915D01*
X119894518Y-81790494D01*
X119882657Y-81758646D01*
X119873077Y-81700026D01*
X119885677Y-81642986D01*
X119922000Y-81575461D01*
X119923003Y-81573879D01*
X119954208Y-81523494D01*
X119969039Y-81495047D01*
X119969848Y-81482447D01*
X119958985Y-81479601D01*
X119952148Y-81483701D01*
X119931284Y-81509643D01*
X119905670Y-81551567D01*
X119891729Y-81576364D01*
X119850992Y-81638792D01*
X119810843Y-81680845D01*
X119763350Y-81711433D01*
X119744572Y-81719546D01*
X119677747Y-81727809D01*
X119611597Y-81710431D01*
X119554281Y-81672292D01*
X119513955Y-81618269D01*
X119498779Y-81553240D01*
X119498876Y-81548170D01*
X119508740Y-81490617D01*
X119529824Y-81441155D01*
X119540870Y-81425851D01*
X119594229Y-81371601D01*
X119658146Y-81326902D01*
X119719056Y-81301744D01*
X119722013Y-81301073D01*
X119754103Y-81286435D01*
X119758101Y-81261484D01*
X119757891Y-81260708D01*
X119745113Y-81242706D01*
X119714405Y-81233017D01*
X119657875Y-81229090D01*
X119596836Y-81225482D01*
X119495387Y-81206227D01*
X119421738Y-81170161D01*
X119374300Y-81116324D01*
X119351486Y-81043754D01*
X119351224Y-80988469D01*
X119375558Y-80914925D01*
X119424999Y-80855907D01*
X119494616Y-80816635D01*
X119579479Y-80802330D01*
X119593950Y-80802561D01*
X119637867Y-80809236D01*
X119677276Y-80829685D01*
X119725306Y-80870000D01*
X119758803Y-80899324D01*
X119795031Y-80927032D01*
X119815777Y-80937734D01*
X119816261Y-80937721D01*
X119840978Y-80927470D01*
X119875846Y-80903848D01*
X119899791Y-80883226D01*
X119910205Y-80863090D01*
X119908103Y-80832791D01*
X119895264Y-80781081D01*
X119891069Y-80764582D01*
X119874046Y-80659955D01*
X119875726Y-80568780D01*
X119896086Y-80498462D01*
X119900625Y-80490410D01*
X119945763Y-80445477D01*
X120007868Y-80420697D01*
X120078268Y-80415665D01*
X120148292Y-80429980D01*
X120209270Y-80463238D01*
X120252529Y-80515035D01*
X120253083Y-80516125D01*
X120268687Y-80570652D01*
X120274264Y-80641475D01*
X120269676Y-80712916D01*
X120254782Y-80769298D01*
X120254354Y-80770271D01*
X120255885Y-80788987D01*
X120280270Y-80808488D01*
X120332430Y-80832798D01*
X120370670Y-80847446D01*
X120421925Y-80863370D01*
X120455728Y-80869248D01*
X120462544Y-80868076D01*
X120498254Y-80852773D01*
X120549566Y-80823538D01*
X120607800Y-80785167D01*
X120650895Y-80755022D01*
X120746089Y-80690198D01*
X120821668Y-80642426D01*
X120882810Y-80609062D01*
X120934694Y-80587465D01*
X120982499Y-80574990D01*
X121031403Y-80568995D01*
X121102358Y-80567758D01*
X121195331Y-80581524D01*
X121279137Y-80615976D01*
X121356922Y-80673622D01*
X121431831Y-80756969D01*
X121507011Y-80868525D01*
X121585607Y-81010799D01*
X121593946Y-81027106D01*
X121633466Y-81106158D01*
X121667350Y-81176715D01*
X121692225Y-81231616D01*
X121704718Y-81263700D01*
X121718407Y-81295888D01*
X121734303Y-81310267D01*
X121735645Y-81310221D01*
X121766978Y-81295537D01*
X121807439Y-81260292D01*
X121849623Y-81212774D01*
X121886126Y-81161274D01*
X121909542Y-81114082D01*
X121918763Y-81084964D01*
X121925680Y-81049690D01*
X121925530Y-81011291D01*
X121918023Y-80959834D01*
X121902870Y-80885386D01*
X121895444Y-80851484D01*
X121880204Y-80786856D01*
X121867290Y-80738316D01*
X121858900Y-80714417D01*
X121855540Y-80706296D01*
X121845028Y-80669161D01*
X121831324Y-80611460D01*
X121816519Y-80541716D01*
X121799205Y-80432556D01*
X121792637Y-80255098D01*
X121814914Y-80091188D01*
X121865699Y-79942739D01*
X121944657Y-79811666D01*
X121972892Y-79771145D01*
X121990619Y-79737451D01*
X121990739Y-79722313D01*
X121967715Y-79721200D01*
X121915671Y-79726973D01*
X121843365Y-79739140D01*
X121757546Y-79756260D01*
X121664966Y-79776891D01*
X121572374Y-79799592D01*
X121486522Y-79822921D01*
X121414158Y-79845436D01*
X121238383Y-79905430D01*
X121167269Y-79863754D01*
X121141565Y-79846223D01*
X121093505Y-79797792D01*
X121046901Y-79727692D01*
X120999362Y-79632018D01*
X120948495Y-79506867D01*
X120938184Y-79479598D01*
X120914562Y-79419832D01*
X120895165Y-79381307D01*
X120874155Y-79356320D01*
X120845693Y-79337168D01*
X120803942Y-79316149D01*
X120729150Y-79279720D01*
X120672119Y-79329794D01*
X120647903Y-79349036D01*
X120601128Y-79372701D01*
X120543417Y-79382376D01*
X120463867Y-79380727D01*
X120450433Y-79379022D01*
X120402246Y-79354081D01*
X120372460Y-79302059D01*
X120362267Y-79224783D01*
X120365059Y-79173513D01*
X120378131Y-79133599D01*
X120406663Y-79100039D01*
X120440797Y-79075725D01*
X120493452Y-79052977D01*
X120544574Y-79042811D01*
X120581302Y-79048988D01*
X120591327Y-79054176D01*
X120598545Y-79048452D01*
X120589055Y-79017185D01*
X120581503Y-79004027D01*
X120559422Y-78990306D01*
X120530537Y-78987102D01*
X120473000Y-78971170D01*
X120416814Y-78947288D01*
X120378101Y-78921568D01*
X120363699Y-78903147D01*
X120349484Y-78861054D01*
X120345334Y-78796058D01*
X120348911Y-78742571D01*
X120367839Y-78692971D01*
X120408422Y-78661643D01*
X120476635Y-78641560D01*
X120500328Y-78635885D01*
X120520927Y-78622987D01*
X120530529Y-78595791D01*
X120535017Y-78544518D01*
X120536652Y-78521154D01*
X120544602Y-78476118D01*
X120563193Y-78446299D01*
X120599334Y-78418117D01*
X120625440Y-78401966D01*
X120671715Y-78386111D01*
X120726334Y-78388769D01*
X120730010Y-78389356D01*
X120800316Y-78406262D01*
X120843152Y-78433390D01*
X120864482Y-78477169D01*
X120870267Y-78544032D01*
X120870967Y-78593420D01*
X120875362Y-78622757D01*
X120886735Y-78632039D01*
X120908367Y-78628540D01*
X120934197Y-78622277D01*
X120959167Y-78618098D01*
X120961074Y-78617373D01*
X120968754Y-78596843D01*
X120971867Y-78556926D01*
X120974949Y-78516485D01*
X121000894Y-78436527D01*
X121048842Y-78372007D01*
X121113471Y-78328888D01*
X121189461Y-78313130D01*
X121206445Y-78314028D01*
X121253951Y-78330011D01*
X121303761Y-78370641D01*
X121320390Y-78387812D01*
X121347041Y-78423412D01*
X121358737Y-78462364D01*
X121361334Y-78519848D01*
X121361121Y-78533329D01*
X121347590Y-78611326D01*
X121311244Y-78666598D01*
X121249641Y-78703152D01*
X121224103Y-78719636D01*
X121209719Y-78756911D01*
X121224869Y-78803099D01*
X121227780Y-78807258D01*
X121244241Y-78817981D01*
X121274370Y-78817878D01*
X121327502Y-78807332D01*
X121376125Y-78797348D01*
X121470350Y-78788448D01*
X121540270Y-78800053D01*
X121588209Y-78832808D01*
X121616491Y-78887356D01*
X121619031Y-78896533D01*
X121625116Y-78953460D01*
X121610657Y-79015052D01*
X121583911Y-79071661D01*
X121539440Y-79117057D01*
X121475741Y-79141714D01*
X121386941Y-79149150D01*
X121276729Y-79149151D01*
X121313517Y-79188309D01*
X121324030Y-79198574D01*
X121356470Y-79219074D01*
X121396862Y-79226960D01*
X121449546Y-79221484D01*
X121518865Y-79201898D01*
X121609157Y-79167453D01*
X121724764Y-79117400D01*
X121777713Y-79093769D01*
X121855338Y-79059473D01*
X121918346Y-79032071D01*
X121961319Y-79013909D01*
X121978840Y-79007334D01*
X121980973Y-79007076D01*
X122008357Y-78994108D01*
X122055367Y-78964511D01*
X122116248Y-78922373D01*
X122185243Y-78871786D01*
X122256599Y-78816840D01*
X122324559Y-78761626D01*
X122368059Y-78724640D01*
X122459190Y-78642863D01*
X122525791Y-78576021D01*
X122566645Y-78525395D01*
X122580534Y-78492266D01*
X122578000Y-78484945D01*
X122556952Y-78455303D01*
X122519198Y-78412276D01*
X122470329Y-78362449D01*
X122450938Y-78343306D01*
X122378751Y-78262490D01*
X122330344Y-78186062D01*
X122300731Y-78104496D01*
X122284924Y-78008267D01*
X122281324Y-77919277D01*
X122298286Y-77753550D01*
X122344017Y-77575135D01*
X122417727Y-77385934D01*
X122518626Y-77187849D01*
X122645922Y-76982779D01*
X122798826Y-76772628D01*
X122876058Y-76678028D01*
X122972576Y-76569848D01*
X123070270Y-76469851D01*
X123164050Y-76382970D01*
X123248825Y-76314133D01*
X123319504Y-76268274D01*
X123349460Y-76252809D01*
X123397628Y-76231596D01*
X123443045Y-76219698D01*
X123497909Y-76214487D01*
X123574413Y-76213334D01*
X123580505Y-76213339D01*
G37*
%TD*%
M02*
