%TF.GenerationSoftware,KiCad,Pcbnew,7.0.2*%
%TF.CreationDate,2024-03-22T11:27:14+01:00*%
%TF.ProjectId,Support_TTGO_invers_,53757070-6f72-4745-9f54-54474f5f696e,rev?*%
%TF.SameCoordinates,Original*%
%TF.FileFunction,Legend,Bot*%
%TF.FilePolarity,Positive*%
%FSLAX46Y46*%
G04 Gerber Fmt 4.6, Leading zero omitted, Abs format (unit mm)*
G04 Created by KiCad (PCBNEW 7.0.2) date 2024-03-22 11:27:14*
%MOMM*%
%LPD*%
G01*
G04 APERTURE LIST*
%ADD10C,0.150000*%
%ADD11C,0.500000*%
%ADD12C,0.120000*%
%ADD13C,0.010000*%
G04 APERTURE END LIST*
D10*
X110668096Y-98584190D02*
X110744286Y-98546095D01*
X110744286Y-98546095D02*
X110858572Y-98546095D01*
X110858572Y-98546095D02*
X110972858Y-98584190D01*
X110972858Y-98584190D02*
X111049048Y-98660380D01*
X111049048Y-98660380D02*
X111087143Y-98736571D01*
X111087143Y-98736571D02*
X111125239Y-98888952D01*
X111125239Y-98888952D02*
X111125239Y-99003238D01*
X111125239Y-99003238D02*
X111087143Y-99155619D01*
X111087143Y-99155619D02*
X111049048Y-99231809D01*
X111049048Y-99231809D02*
X110972858Y-99308000D01*
X110972858Y-99308000D02*
X110858572Y-99346095D01*
X110858572Y-99346095D02*
X110782381Y-99346095D01*
X110782381Y-99346095D02*
X110668096Y-99308000D01*
X110668096Y-99308000D02*
X110630000Y-99269904D01*
X110630000Y-99269904D02*
X110630000Y-99003238D01*
X110630000Y-99003238D02*
X110782381Y-99003238D01*
X110287143Y-98812761D02*
X110287143Y-99346095D01*
X110287143Y-98888952D02*
X110249048Y-98850857D01*
X110249048Y-98850857D02*
X110172858Y-98812761D01*
X110172858Y-98812761D02*
X110058572Y-98812761D01*
X110058572Y-98812761D02*
X109982381Y-98850857D01*
X109982381Y-98850857D02*
X109944286Y-98927047D01*
X109944286Y-98927047D02*
X109944286Y-99346095D01*
X109220476Y-99346095D02*
X109220476Y-98546095D01*
X109220476Y-99308000D02*
X109296667Y-99346095D01*
X109296667Y-99346095D02*
X109449048Y-99346095D01*
X109449048Y-99346095D02*
X109525238Y-99308000D01*
X109525238Y-99308000D02*
X109563333Y-99269904D01*
X109563333Y-99269904D02*
X109601429Y-99193714D01*
X109601429Y-99193714D02*
X109601429Y-98965142D01*
X109601429Y-98965142D02*
X109563333Y-98888952D01*
X109563333Y-98888952D02*
X109525238Y-98850857D01*
X109525238Y-98850857D02*
X109449048Y-98812761D01*
X109449048Y-98812761D02*
X109296667Y-98812761D01*
X109296667Y-98812761D02*
X109220476Y-98850857D01*
X110249047Y-101861904D02*
X110287143Y-101900000D01*
X110287143Y-101900000D02*
X110401428Y-101938095D01*
X110401428Y-101938095D02*
X110477619Y-101938095D01*
X110477619Y-101938095D02*
X110591905Y-101900000D01*
X110591905Y-101900000D02*
X110668095Y-101823809D01*
X110668095Y-101823809D02*
X110706190Y-101747619D01*
X110706190Y-101747619D02*
X110744286Y-101595238D01*
X110744286Y-101595238D02*
X110744286Y-101480952D01*
X110744286Y-101480952D02*
X110706190Y-101328571D01*
X110706190Y-101328571D02*
X110668095Y-101252380D01*
X110668095Y-101252380D02*
X110591905Y-101176190D01*
X110591905Y-101176190D02*
X110477619Y-101138095D01*
X110477619Y-101138095D02*
X110401428Y-101138095D01*
X110401428Y-101138095D02*
X110287143Y-101176190D01*
X110287143Y-101176190D02*
X110249047Y-101214285D01*
X109791905Y-101938095D02*
X109868095Y-101900000D01*
X109868095Y-101900000D02*
X109906190Y-101823809D01*
X109906190Y-101823809D02*
X109906190Y-101138095D01*
X109487142Y-101938095D02*
X109487142Y-101138095D01*
X109410952Y-101633333D02*
X109182380Y-101938095D01*
X109182380Y-101404761D02*
X109487142Y-101709523D01*
X111544286Y-104530095D02*
X111544286Y-103730095D01*
X111544286Y-103730095D02*
X111353810Y-103730095D01*
X111353810Y-103730095D02*
X111239524Y-103768190D01*
X111239524Y-103768190D02*
X111163334Y-103844380D01*
X111163334Y-103844380D02*
X111125239Y-103920571D01*
X111125239Y-103920571D02*
X111087143Y-104072952D01*
X111087143Y-104072952D02*
X111087143Y-104187238D01*
X111087143Y-104187238D02*
X111125239Y-104339619D01*
X111125239Y-104339619D02*
X111163334Y-104415809D01*
X111163334Y-104415809D02*
X111239524Y-104492000D01*
X111239524Y-104492000D02*
X111353810Y-104530095D01*
X111353810Y-104530095D02*
X111544286Y-104530095D01*
X110401429Y-104530095D02*
X110401429Y-104111047D01*
X110401429Y-104111047D02*
X110439524Y-104034857D01*
X110439524Y-104034857D02*
X110515715Y-103996761D01*
X110515715Y-103996761D02*
X110668096Y-103996761D01*
X110668096Y-103996761D02*
X110744286Y-104034857D01*
X110401429Y-104492000D02*
X110477620Y-104530095D01*
X110477620Y-104530095D02*
X110668096Y-104530095D01*
X110668096Y-104530095D02*
X110744286Y-104492000D01*
X110744286Y-104492000D02*
X110782382Y-104415809D01*
X110782382Y-104415809D02*
X110782382Y-104339619D01*
X110782382Y-104339619D02*
X110744286Y-104263428D01*
X110744286Y-104263428D02*
X110668096Y-104225333D01*
X110668096Y-104225333D02*
X110477620Y-104225333D01*
X110477620Y-104225333D02*
X110401429Y-104187238D01*
X110134762Y-103996761D02*
X109830000Y-103996761D01*
X110020476Y-103730095D02*
X110020476Y-104415809D01*
X110020476Y-104415809D02*
X109982381Y-104492000D01*
X109982381Y-104492000D02*
X109906191Y-104530095D01*
X109906191Y-104530095D02*
X109830000Y-104530095D01*
X109220476Y-104530095D02*
X109220476Y-104111047D01*
X109220476Y-104111047D02*
X109258571Y-104034857D01*
X109258571Y-104034857D02*
X109334762Y-103996761D01*
X109334762Y-103996761D02*
X109487143Y-103996761D01*
X109487143Y-103996761D02*
X109563333Y-104034857D01*
X109220476Y-104492000D02*
X109296667Y-104530095D01*
X109296667Y-104530095D02*
X109487143Y-104530095D01*
X109487143Y-104530095D02*
X109563333Y-104492000D01*
X109563333Y-104492000D02*
X109601429Y-104415809D01*
X109601429Y-104415809D02*
X109601429Y-104339619D01*
X109601429Y-104339619D02*
X109563333Y-104263428D01*
X109563333Y-104263428D02*
X109487143Y-104225333D01*
X109487143Y-104225333D02*
X109296667Y-104225333D01*
X109296667Y-104225333D02*
X109220476Y-104187238D01*
X111010951Y-106322095D02*
X110744284Y-107122095D01*
X110744284Y-107122095D02*
X110477618Y-106322095D01*
X109868094Y-107084000D02*
X109944285Y-107122095D01*
X109944285Y-107122095D02*
X110096666Y-107122095D01*
X110096666Y-107122095D02*
X110172856Y-107084000D01*
X110172856Y-107084000D02*
X110210951Y-107045904D01*
X110210951Y-107045904D02*
X110249047Y-106969714D01*
X110249047Y-106969714D02*
X110249047Y-106741142D01*
X110249047Y-106741142D02*
X110210951Y-106664952D01*
X110210951Y-106664952D02*
X110172856Y-106626857D01*
X110172856Y-106626857D02*
X110096666Y-106588761D01*
X110096666Y-106588761D02*
X109944285Y-106588761D01*
X109944285Y-106588761D02*
X109868094Y-106626857D01*
X109182380Y-107084000D02*
X109258571Y-107122095D01*
X109258571Y-107122095D02*
X109410952Y-107122095D01*
X109410952Y-107122095D02*
X109487142Y-107084000D01*
X109487142Y-107084000D02*
X109525237Y-107045904D01*
X109525237Y-107045904D02*
X109563333Y-106969714D01*
X109563333Y-106969714D02*
X109563333Y-106741142D01*
X109563333Y-106741142D02*
X109525237Y-106664952D01*
X109525237Y-106664952D02*
X109487142Y-106626857D01*
X109487142Y-106626857D02*
X109410952Y-106588761D01*
X109410952Y-106588761D02*
X109258571Y-106588761D01*
X109258571Y-106588761D02*
X109182380Y-106626857D01*
X110688096Y-71074190D02*
X110764286Y-71036095D01*
X110764286Y-71036095D02*
X110878572Y-71036095D01*
X110878572Y-71036095D02*
X110992858Y-71074190D01*
X110992858Y-71074190D02*
X111069048Y-71150380D01*
X111069048Y-71150380D02*
X111107143Y-71226571D01*
X111107143Y-71226571D02*
X111145239Y-71378952D01*
X111145239Y-71378952D02*
X111145239Y-71493238D01*
X111145239Y-71493238D02*
X111107143Y-71645619D01*
X111107143Y-71645619D02*
X111069048Y-71721809D01*
X111069048Y-71721809D02*
X110992858Y-71798000D01*
X110992858Y-71798000D02*
X110878572Y-71836095D01*
X110878572Y-71836095D02*
X110802381Y-71836095D01*
X110802381Y-71836095D02*
X110688096Y-71798000D01*
X110688096Y-71798000D02*
X110650000Y-71759904D01*
X110650000Y-71759904D02*
X110650000Y-71493238D01*
X110650000Y-71493238D02*
X110802381Y-71493238D01*
X110307143Y-71302761D02*
X110307143Y-71836095D01*
X110307143Y-71378952D02*
X110269048Y-71340857D01*
X110269048Y-71340857D02*
X110192858Y-71302761D01*
X110192858Y-71302761D02*
X110078572Y-71302761D01*
X110078572Y-71302761D02*
X110002381Y-71340857D01*
X110002381Y-71340857D02*
X109964286Y-71417047D01*
X109964286Y-71417047D02*
X109964286Y-71836095D01*
X109240476Y-71836095D02*
X109240476Y-71036095D01*
X109240476Y-71798000D02*
X109316667Y-71836095D01*
X109316667Y-71836095D02*
X109469048Y-71836095D01*
X109469048Y-71836095D02*
X109545238Y-71798000D01*
X109545238Y-71798000D02*
X109583333Y-71759904D01*
X109583333Y-71759904D02*
X109621429Y-71683714D01*
X109621429Y-71683714D02*
X109621429Y-71455142D01*
X109621429Y-71455142D02*
X109583333Y-71378952D01*
X109583333Y-71378952D02*
X109545238Y-71340857D01*
X109545238Y-71340857D02*
X109469048Y-71302761D01*
X109469048Y-71302761D02*
X109316667Y-71302761D01*
X109316667Y-71302761D02*
X109240476Y-71340857D01*
X110269047Y-74351904D02*
X110307143Y-74390000D01*
X110307143Y-74390000D02*
X110421428Y-74428095D01*
X110421428Y-74428095D02*
X110497619Y-74428095D01*
X110497619Y-74428095D02*
X110611905Y-74390000D01*
X110611905Y-74390000D02*
X110688095Y-74313809D01*
X110688095Y-74313809D02*
X110726190Y-74237619D01*
X110726190Y-74237619D02*
X110764286Y-74085238D01*
X110764286Y-74085238D02*
X110764286Y-73970952D01*
X110764286Y-73970952D02*
X110726190Y-73818571D01*
X110726190Y-73818571D02*
X110688095Y-73742380D01*
X110688095Y-73742380D02*
X110611905Y-73666190D01*
X110611905Y-73666190D02*
X110497619Y-73628095D01*
X110497619Y-73628095D02*
X110421428Y-73628095D01*
X110421428Y-73628095D02*
X110307143Y-73666190D01*
X110307143Y-73666190D02*
X110269047Y-73704285D01*
X109811905Y-74428095D02*
X109888095Y-74390000D01*
X109888095Y-74390000D02*
X109926190Y-74313809D01*
X109926190Y-74313809D02*
X109926190Y-73628095D01*
X109507142Y-74428095D02*
X109507142Y-73628095D01*
X109430952Y-74123333D02*
X109202380Y-74428095D01*
X109202380Y-73894761D02*
X109507142Y-74199523D01*
X111564286Y-77020095D02*
X111564286Y-76220095D01*
X111564286Y-76220095D02*
X111373810Y-76220095D01*
X111373810Y-76220095D02*
X111259524Y-76258190D01*
X111259524Y-76258190D02*
X111183334Y-76334380D01*
X111183334Y-76334380D02*
X111145239Y-76410571D01*
X111145239Y-76410571D02*
X111107143Y-76562952D01*
X111107143Y-76562952D02*
X111107143Y-76677238D01*
X111107143Y-76677238D02*
X111145239Y-76829619D01*
X111145239Y-76829619D02*
X111183334Y-76905809D01*
X111183334Y-76905809D02*
X111259524Y-76982000D01*
X111259524Y-76982000D02*
X111373810Y-77020095D01*
X111373810Y-77020095D02*
X111564286Y-77020095D01*
X110421429Y-77020095D02*
X110421429Y-76601047D01*
X110421429Y-76601047D02*
X110459524Y-76524857D01*
X110459524Y-76524857D02*
X110535715Y-76486761D01*
X110535715Y-76486761D02*
X110688096Y-76486761D01*
X110688096Y-76486761D02*
X110764286Y-76524857D01*
X110421429Y-76982000D02*
X110497620Y-77020095D01*
X110497620Y-77020095D02*
X110688096Y-77020095D01*
X110688096Y-77020095D02*
X110764286Y-76982000D01*
X110764286Y-76982000D02*
X110802382Y-76905809D01*
X110802382Y-76905809D02*
X110802382Y-76829619D01*
X110802382Y-76829619D02*
X110764286Y-76753428D01*
X110764286Y-76753428D02*
X110688096Y-76715333D01*
X110688096Y-76715333D02*
X110497620Y-76715333D01*
X110497620Y-76715333D02*
X110421429Y-76677238D01*
X110154762Y-76486761D02*
X109850000Y-76486761D01*
X110040476Y-76220095D02*
X110040476Y-76905809D01*
X110040476Y-76905809D02*
X110002381Y-76982000D01*
X110002381Y-76982000D02*
X109926191Y-77020095D01*
X109926191Y-77020095D02*
X109850000Y-77020095D01*
X109240476Y-77020095D02*
X109240476Y-76601047D01*
X109240476Y-76601047D02*
X109278571Y-76524857D01*
X109278571Y-76524857D02*
X109354762Y-76486761D01*
X109354762Y-76486761D02*
X109507143Y-76486761D01*
X109507143Y-76486761D02*
X109583333Y-76524857D01*
X109240476Y-76982000D02*
X109316667Y-77020095D01*
X109316667Y-77020095D02*
X109507143Y-77020095D01*
X109507143Y-77020095D02*
X109583333Y-76982000D01*
X109583333Y-76982000D02*
X109621429Y-76905809D01*
X109621429Y-76905809D02*
X109621429Y-76829619D01*
X109621429Y-76829619D02*
X109583333Y-76753428D01*
X109583333Y-76753428D02*
X109507143Y-76715333D01*
X109507143Y-76715333D02*
X109316667Y-76715333D01*
X109316667Y-76715333D02*
X109240476Y-76677238D01*
X111030951Y-78812095D02*
X110764284Y-79612095D01*
X110764284Y-79612095D02*
X110497618Y-78812095D01*
X109888094Y-79574000D02*
X109964285Y-79612095D01*
X109964285Y-79612095D02*
X110116666Y-79612095D01*
X110116666Y-79612095D02*
X110192856Y-79574000D01*
X110192856Y-79574000D02*
X110230951Y-79535904D01*
X110230951Y-79535904D02*
X110269047Y-79459714D01*
X110269047Y-79459714D02*
X110269047Y-79231142D01*
X110269047Y-79231142D02*
X110230951Y-79154952D01*
X110230951Y-79154952D02*
X110192856Y-79116857D01*
X110192856Y-79116857D02*
X110116666Y-79078761D01*
X110116666Y-79078761D02*
X109964285Y-79078761D01*
X109964285Y-79078761D02*
X109888094Y-79116857D01*
X109202380Y-79574000D02*
X109278571Y-79612095D01*
X109278571Y-79612095D02*
X109430952Y-79612095D01*
X109430952Y-79612095D02*
X109507142Y-79574000D01*
X109507142Y-79574000D02*
X109545237Y-79535904D01*
X109545237Y-79535904D02*
X109583333Y-79459714D01*
X109583333Y-79459714D02*
X109583333Y-79231142D01*
X109583333Y-79231142D02*
X109545237Y-79154952D01*
X109545237Y-79154952D02*
X109507142Y-79116857D01*
X109507142Y-79116857D02*
X109430952Y-79078761D01*
X109430952Y-79078761D02*
X109278571Y-79078761D01*
X109278571Y-79078761D02*
X109202380Y-79116857D01*
X110678096Y-84754190D02*
X110754286Y-84716095D01*
X110754286Y-84716095D02*
X110868572Y-84716095D01*
X110868572Y-84716095D02*
X110982858Y-84754190D01*
X110982858Y-84754190D02*
X111059048Y-84830380D01*
X111059048Y-84830380D02*
X111097143Y-84906571D01*
X111097143Y-84906571D02*
X111135239Y-85058952D01*
X111135239Y-85058952D02*
X111135239Y-85173238D01*
X111135239Y-85173238D02*
X111097143Y-85325619D01*
X111097143Y-85325619D02*
X111059048Y-85401809D01*
X111059048Y-85401809D02*
X110982858Y-85478000D01*
X110982858Y-85478000D02*
X110868572Y-85516095D01*
X110868572Y-85516095D02*
X110792381Y-85516095D01*
X110792381Y-85516095D02*
X110678096Y-85478000D01*
X110678096Y-85478000D02*
X110640000Y-85439904D01*
X110640000Y-85439904D02*
X110640000Y-85173238D01*
X110640000Y-85173238D02*
X110792381Y-85173238D01*
X110297143Y-84982761D02*
X110297143Y-85516095D01*
X110297143Y-85058952D02*
X110259048Y-85020857D01*
X110259048Y-85020857D02*
X110182858Y-84982761D01*
X110182858Y-84982761D02*
X110068572Y-84982761D01*
X110068572Y-84982761D02*
X109992381Y-85020857D01*
X109992381Y-85020857D02*
X109954286Y-85097047D01*
X109954286Y-85097047D02*
X109954286Y-85516095D01*
X109230476Y-85516095D02*
X109230476Y-84716095D01*
X109230476Y-85478000D02*
X109306667Y-85516095D01*
X109306667Y-85516095D02*
X109459048Y-85516095D01*
X109459048Y-85516095D02*
X109535238Y-85478000D01*
X109535238Y-85478000D02*
X109573333Y-85439904D01*
X109573333Y-85439904D02*
X109611429Y-85363714D01*
X109611429Y-85363714D02*
X109611429Y-85135142D01*
X109611429Y-85135142D02*
X109573333Y-85058952D01*
X109573333Y-85058952D02*
X109535238Y-85020857D01*
X109535238Y-85020857D02*
X109459048Y-84982761D01*
X109459048Y-84982761D02*
X109306667Y-84982761D01*
X109306667Y-84982761D02*
X109230476Y-85020857D01*
X110259047Y-88031904D02*
X110297143Y-88070000D01*
X110297143Y-88070000D02*
X110411428Y-88108095D01*
X110411428Y-88108095D02*
X110487619Y-88108095D01*
X110487619Y-88108095D02*
X110601905Y-88070000D01*
X110601905Y-88070000D02*
X110678095Y-87993809D01*
X110678095Y-87993809D02*
X110716190Y-87917619D01*
X110716190Y-87917619D02*
X110754286Y-87765238D01*
X110754286Y-87765238D02*
X110754286Y-87650952D01*
X110754286Y-87650952D02*
X110716190Y-87498571D01*
X110716190Y-87498571D02*
X110678095Y-87422380D01*
X110678095Y-87422380D02*
X110601905Y-87346190D01*
X110601905Y-87346190D02*
X110487619Y-87308095D01*
X110487619Y-87308095D02*
X110411428Y-87308095D01*
X110411428Y-87308095D02*
X110297143Y-87346190D01*
X110297143Y-87346190D02*
X110259047Y-87384285D01*
X109801905Y-88108095D02*
X109878095Y-88070000D01*
X109878095Y-88070000D02*
X109916190Y-87993809D01*
X109916190Y-87993809D02*
X109916190Y-87308095D01*
X109497142Y-88108095D02*
X109497142Y-87308095D01*
X109420952Y-87803333D02*
X109192380Y-88108095D01*
X109192380Y-87574761D02*
X109497142Y-87879523D01*
X111554286Y-90700095D02*
X111554286Y-89900095D01*
X111554286Y-89900095D02*
X111363810Y-89900095D01*
X111363810Y-89900095D02*
X111249524Y-89938190D01*
X111249524Y-89938190D02*
X111173334Y-90014380D01*
X111173334Y-90014380D02*
X111135239Y-90090571D01*
X111135239Y-90090571D02*
X111097143Y-90242952D01*
X111097143Y-90242952D02*
X111097143Y-90357238D01*
X111097143Y-90357238D02*
X111135239Y-90509619D01*
X111135239Y-90509619D02*
X111173334Y-90585809D01*
X111173334Y-90585809D02*
X111249524Y-90662000D01*
X111249524Y-90662000D02*
X111363810Y-90700095D01*
X111363810Y-90700095D02*
X111554286Y-90700095D01*
X110411429Y-90700095D02*
X110411429Y-90281047D01*
X110411429Y-90281047D02*
X110449524Y-90204857D01*
X110449524Y-90204857D02*
X110525715Y-90166761D01*
X110525715Y-90166761D02*
X110678096Y-90166761D01*
X110678096Y-90166761D02*
X110754286Y-90204857D01*
X110411429Y-90662000D02*
X110487620Y-90700095D01*
X110487620Y-90700095D02*
X110678096Y-90700095D01*
X110678096Y-90700095D02*
X110754286Y-90662000D01*
X110754286Y-90662000D02*
X110792382Y-90585809D01*
X110792382Y-90585809D02*
X110792382Y-90509619D01*
X110792382Y-90509619D02*
X110754286Y-90433428D01*
X110754286Y-90433428D02*
X110678096Y-90395333D01*
X110678096Y-90395333D02*
X110487620Y-90395333D01*
X110487620Y-90395333D02*
X110411429Y-90357238D01*
X110144762Y-90166761D02*
X109840000Y-90166761D01*
X110030476Y-89900095D02*
X110030476Y-90585809D01*
X110030476Y-90585809D02*
X109992381Y-90662000D01*
X109992381Y-90662000D02*
X109916191Y-90700095D01*
X109916191Y-90700095D02*
X109840000Y-90700095D01*
X109230476Y-90700095D02*
X109230476Y-90281047D01*
X109230476Y-90281047D02*
X109268571Y-90204857D01*
X109268571Y-90204857D02*
X109344762Y-90166761D01*
X109344762Y-90166761D02*
X109497143Y-90166761D01*
X109497143Y-90166761D02*
X109573333Y-90204857D01*
X109230476Y-90662000D02*
X109306667Y-90700095D01*
X109306667Y-90700095D02*
X109497143Y-90700095D01*
X109497143Y-90700095D02*
X109573333Y-90662000D01*
X109573333Y-90662000D02*
X109611429Y-90585809D01*
X109611429Y-90585809D02*
X109611429Y-90509619D01*
X109611429Y-90509619D02*
X109573333Y-90433428D01*
X109573333Y-90433428D02*
X109497143Y-90395333D01*
X109497143Y-90395333D02*
X109306667Y-90395333D01*
X109306667Y-90395333D02*
X109230476Y-90357238D01*
X111020951Y-92492095D02*
X110754284Y-93292095D01*
X110754284Y-93292095D02*
X110487618Y-92492095D01*
X109878094Y-93254000D02*
X109954285Y-93292095D01*
X109954285Y-93292095D02*
X110106666Y-93292095D01*
X110106666Y-93292095D02*
X110182856Y-93254000D01*
X110182856Y-93254000D02*
X110220951Y-93215904D01*
X110220951Y-93215904D02*
X110259047Y-93139714D01*
X110259047Y-93139714D02*
X110259047Y-92911142D01*
X110259047Y-92911142D02*
X110220951Y-92834952D01*
X110220951Y-92834952D02*
X110182856Y-92796857D01*
X110182856Y-92796857D02*
X110106666Y-92758761D01*
X110106666Y-92758761D02*
X109954285Y-92758761D01*
X109954285Y-92758761D02*
X109878094Y-92796857D01*
X109192380Y-93254000D02*
X109268571Y-93292095D01*
X109268571Y-93292095D02*
X109420952Y-93292095D01*
X109420952Y-93292095D02*
X109497142Y-93254000D01*
X109497142Y-93254000D02*
X109535237Y-93215904D01*
X109535237Y-93215904D02*
X109573333Y-93139714D01*
X109573333Y-93139714D02*
X109573333Y-92911142D01*
X109573333Y-92911142D02*
X109535237Y-92834952D01*
X109535237Y-92834952D02*
X109497142Y-92796857D01*
X109497142Y-92796857D02*
X109420952Y-92758761D01*
X109420952Y-92758761D02*
X109268571Y-92758761D01*
X109268571Y-92758761D02*
X109192380Y-92796857D01*
X173090951Y-72198095D02*
X172824284Y-72998095D01*
X172824284Y-72998095D02*
X172557618Y-72198095D01*
X171948094Y-72960000D02*
X172024285Y-72998095D01*
X172024285Y-72998095D02*
X172176666Y-72998095D01*
X172176666Y-72998095D02*
X172252856Y-72960000D01*
X172252856Y-72960000D02*
X172290951Y-72921904D01*
X172290951Y-72921904D02*
X172329047Y-72845714D01*
X172329047Y-72845714D02*
X172329047Y-72617142D01*
X172329047Y-72617142D02*
X172290951Y-72540952D01*
X172290951Y-72540952D02*
X172252856Y-72502857D01*
X172252856Y-72502857D02*
X172176666Y-72464761D01*
X172176666Y-72464761D02*
X172024285Y-72464761D01*
X172024285Y-72464761D02*
X171948094Y-72502857D01*
X171262380Y-72960000D02*
X171338571Y-72998095D01*
X171338571Y-72998095D02*
X171490952Y-72998095D01*
X171490952Y-72998095D02*
X171567142Y-72960000D01*
X171567142Y-72960000D02*
X171605237Y-72921904D01*
X171605237Y-72921904D02*
X171643333Y-72845714D01*
X171643333Y-72845714D02*
X171643333Y-72617142D01*
X171643333Y-72617142D02*
X171605237Y-72540952D01*
X171605237Y-72540952D02*
X171567142Y-72502857D01*
X171567142Y-72502857D02*
X171490952Y-72464761D01*
X171490952Y-72464761D02*
X171338571Y-72464761D01*
X171338571Y-72464761D02*
X171262380Y-72502857D01*
X173624286Y-75590095D02*
X173624286Y-74790095D01*
X173624286Y-74790095D02*
X173433810Y-74790095D01*
X173433810Y-74790095D02*
X173319524Y-74828190D01*
X173319524Y-74828190D02*
X173243334Y-74904380D01*
X173243334Y-74904380D02*
X173205239Y-74980571D01*
X173205239Y-74980571D02*
X173167143Y-75132952D01*
X173167143Y-75132952D02*
X173167143Y-75247238D01*
X173167143Y-75247238D02*
X173205239Y-75399619D01*
X173205239Y-75399619D02*
X173243334Y-75475809D01*
X173243334Y-75475809D02*
X173319524Y-75552000D01*
X173319524Y-75552000D02*
X173433810Y-75590095D01*
X173433810Y-75590095D02*
X173624286Y-75590095D01*
X172481429Y-75590095D02*
X172481429Y-75171047D01*
X172481429Y-75171047D02*
X172519524Y-75094857D01*
X172519524Y-75094857D02*
X172595715Y-75056761D01*
X172595715Y-75056761D02*
X172748096Y-75056761D01*
X172748096Y-75056761D02*
X172824286Y-75094857D01*
X172481429Y-75552000D02*
X172557620Y-75590095D01*
X172557620Y-75590095D02*
X172748096Y-75590095D01*
X172748096Y-75590095D02*
X172824286Y-75552000D01*
X172824286Y-75552000D02*
X172862382Y-75475809D01*
X172862382Y-75475809D02*
X172862382Y-75399619D01*
X172862382Y-75399619D02*
X172824286Y-75323428D01*
X172824286Y-75323428D02*
X172748096Y-75285333D01*
X172748096Y-75285333D02*
X172557620Y-75285333D01*
X172557620Y-75285333D02*
X172481429Y-75247238D01*
X172214762Y-75056761D02*
X171910000Y-75056761D01*
X172100476Y-74790095D02*
X172100476Y-75475809D01*
X172100476Y-75475809D02*
X172062381Y-75552000D01*
X172062381Y-75552000D02*
X171986191Y-75590095D01*
X171986191Y-75590095D02*
X171910000Y-75590095D01*
X171300476Y-75590095D02*
X171300476Y-75171047D01*
X171300476Y-75171047D02*
X171338571Y-75094857D01*
X171338571Y-75094857D02*
X171414762Y-75056761D01*
X171414762Y-75056761D02*
X171567143Y-75056761D01*
X171567143Y-75056761D02*
X171643333Y-75094857D01*
X171300476Y-75552000D02*
X171376667Y-75590095D01*
X171376667Y-75590095D02*
X171567143Y-75590095D01*
X171567143Y-75590095D02*
X171643333Y-75552000D01*
X171643333Y-75552000D02*
X171681429Y-75475809D01*
X171681429Y-75475809D02*
X171681429Y-75399619D01*
X171681429Y-75399619D02*
X171643333Y-75323428D01*
X171643333Y-75323428D02*
X171567143Y-75285333D01*
X171567143Y-75285333D02*
X171376667Y-75285333D01*
X171376667Y-75285333D02*
X171300476Y-75247238D01*
X172748096Y-77420190D02*
X172824286Y-77382095D01*
X172824286Y-77382095D02*
X172938572Y-77382095D01*
X172938572Y-77382095D02*
X173052858Y-77420190D01*
X173052858Y-77420190D02*
X173129048Y-77496380D01*
X173129048Y-77496380D02*
X173167143Y-77572571D01*
X173167143Y-77572571D02*
X173205239Y-77724952D01*
X173205239Y-77724952D02*
X173205239Y-77839238D01*
X173205239Y-77839238D02*
X173167143Y-77991619D01*
X173167143Y-77991619D02*
X173129048Y-78067809D01*
X173129048Y-78067809D02*
X173052858Y-78144000D01*
X173052858Y-78144000D02*
X172938572Y-78182095D01*
X172938572Y-78182095D02*
X172862381Y-78182095D01*
X172862381Y-78182095D02*
X172748096Y-78144000D01*
X172748096Y-78144000D02*
X172710000Y-78105904D01*
X172710000Y-78105904D02*
X172710000Y-77839238D01*
X172710000Y-77839238D02*
X172862381Y-77839238D01*
X172367143Y-77648761D02*
X172367143Y-78182095D01*
X172367143Y-77724952D02*
X172329048Y-77686857D01*
X172329048Y-77686857D02*
X172252858Y-77648761D01*
X172252858Y-77648761D02*
X172138572Y-77648761D01*
X172138572Y-77648761D02*
X172062381Y-77686857D01*
X172062381Y-77686857D02*
X172024286Y-77763047D01*
X172024286Y-77763047D02*
X172024286Y-78182095D01*
X171300476Y-78182095D02*
X171300476Y-77382095D01*
X171300476Y-78144000D02*
X171376667Y-78182095D01*
X171376667Y-78182095D02*
X171529048Y-78182095D01*
X171529048Y-78182095D02*
X171605238Y-78144000D01*
X171605238Y-78144000D02*
X171643333Y-78105904D01*
X171643333Y-78105904D02*
X171681429Y-78029714D01*
X171681429Y-78029714D02*
X171681429Y-77801142D01*
X171681429Y-77801142D02*
X171643333Y-77724952D01*
X171643333Y-77724952D02*
X171605238Y-77686857D01*
X171605238Y-77686857D02*
X171529048Y-77648761D01*
X171529048Y-77648761D02*
X171376667Y-77648761D01*
X171376667Y-77648761D02*
X171300476Y-77686857D01*
X124279523Y-88628095D02*
X124279523Y-87828095D01*
X123746190Y-87828095D02*
X123593809Y-87828095D01*
X123593809Y-87828095D02*
X123517619Y-87866190D01*
X123517619Y-87866190D02*
X123441428Y-87942380D01*
X123441428Y-87942380D02*
X123403333Y-88094761D01*
X123403333Y-88094761D02*
X123403333Y-88361428D01*
X123403333Y-88361428D02*
X123441428Y-88513809D01*
X123441428Y-88513809D02*
X123517619Y-88590000D01*
X123517619Y-88590000D02*
X123593809Y-88628095D01*
X123593809Y-88628095D02*
X123746190Y-88628095D01*
X123746190Y-88628095D02*
X123822381Y-88590000D01*
X123822381Y-88590000D02*
X123898571Y-88513809D01*
X123898571Y-88513809D02*
X123936667Y-88361428D01*
X123936667Y-88361428D02*
X123936667Y-88094761D01*
X123936667Y-88094761D02*
X123898571Y-87942380D01*
X123898571Y-87942380D02*
X123822381Y-87866190D01*
X123822381Y-87866190D02*
X123746190Y-87828095D01*
X123250953Y-88704285D02*
X122641429Y-88704285D01*
X122298571Y-87828095D02*
X122222381Y-87828095D01*
X122222381Y-87828095D02*
X122146190Y-87866190D01*
X122146190Y-87866190D02*
X122108095Y-87904285D01*
X122108095Y-87904285D02*
X122070000Y-87980476D01*
X122070000Y-87980476D02*
X122031905Y-88132857D01*
X122031905Y-88132857D02*
X122031905Y-88323333D01*
X122031905Y-88323333D02*
X122070000Y-88475714D01*
X122070000Y-88475714D02*
X122108095Y-88551904D01*
X122108095Y-88551904D02*
X122146190Y-88590000D01*
X122146190Y-88590000D02*
X122222381Y-88628095D01*
X122222381Y-88628095D02*
X122298571Y-88628095D01*
X122298571Y-88628095D02*
X122374762Y-88590000D01*
X122374762Y-88590000D02*
X122412857Y-88551904D01*
X122412857Y-88551904D02*
X122450952Y-88475714D01*
X122450952Y-88475714D02*
X122489048Y-88323333D01*
X122489048Y-88323333D02*
X122489048Y-88132857D01*
X122489048Y-88132857D02*
X122450952Y-87980476D01*
X122450952Y-87980476D02*
X122412857Y-87904285D01*
X122412857Y-87904285D02*
X122374762Y-87866190D01*
X122374762Y-87866190D02*
X122298571Y-87828095D01*
X121650952Y-88628095D02*
X121498571Y-88628095D01*
X121498571Y-88628095D02*
X121422381Y-88590000D01*
X121422381Y-88590000D02*
X121384285Y-88551904D01*
X121384285Y-88551904D02*
X121308095Y-88437619D01*
X121308095Y-88437619D02*
X121270000Y-88285238D01*
X121270000Y-88285238D02*
X121270000Y-87980476D01*
X121270000Y-87980476D02*
X121308095Y-87904285D01*
X121308095Y-87904285D02*
X121346190Y-87866190D01*
X121346190Y-87866190D02*
X121422381Y-87828095D01*
X121422381Y-87828095D02*
X121574762Y-87828095D01*
X121574762Y-87828095D02*
X121650952Y-87866190D01*
X121650952Y-87866190D02*
X121689047Y-87904285D01*
X121689047Y-87904285D02*
X121727143Y-87980476D01*
X121727143Y-87980476D02*
X121727143Y-88170952D01*
X121727143Y-88170952D02*
X121689047Y-88247142D01*
X121689047Y-88247142D02*
X121650952Y-88285238D01*
X121650952Y-88285238D02*
X121574762Y-88323333D01*
X121574762Y-88323333D02*
X121422381Y-88323333D01*
X121422381Y-88323333D02*
X121346190Y-88285238D01*
X121346190Y-88285238D02*
X121308095Y-88247142D01*
X121308095Y-88247142D02*
X121270000Y-88170952D01*
X124279523Y-91220095D02*
X124279523Y-90420095D01*
X123746190Y-90420095D02*
X123593809Y-90420095D01*
X123593809Y-90420095D02*
X123517619Y-90458190D01*
X123517619Y-90458190D02*
X123441428Y-90534380D01*
X123441428Y-90534380D02*
X123403333Y-90686761D01*
X123403333Y-90686761D02*
X123403333Y-90953428D01*
X123403333Y-90953428D02*
X123441428Y-91105809D01*
X123441428Y-91105809D02*
X123517619Y-91182000D01*
X123517619Y-91182000D02*
X123593809Y-91220095D01*
X123593809Y-91220095D02*
X123746190Y-91220095D01*
X123746190Y-91220095D02*
X123822381Y-91182000D01*
X123822381Y-91182000D02*
X123898571Y-91105809D01*
X123898571Y-91105809D02*
X123936667Y-90953428D01*
X123936667Y-90953428D02*
X123936667Y-90686761D01*
X123936667Y-90686761D02*
X123898571Y-90534380D01*
X123898571Y-90534380D02*
X123822381Y-90458190D01*
X123822381Y-90458190D02*
X123746190Y-90420095D01*
X123250953Y-91296285D02*
X122641429Y-91296285D01*
X122031905Y-91220095D02*
X122489048Y-91220095D01*
X122260476Y-91220095D02*
X122260476Y-90420095D01*
X122260476Y-90420095D02*
X122336667Y-90534380D01*
X122336667Y-90534380D02*
X122412857Y-90610571D01*
X122412857Y-90610571D02*
X122489048Y-90648666D01*
X121536666Y-90420095D02*
X121460476Y-90420095D01*
X121460476Y-90420095D02*
X121384285Y-90458190D01*
X121384285Y-90458190D02*
X121346190Y-90496285D01*
X121346190Y-90496285D02*
X121308095Y-90572476D01*
X121308095Y-90572476D02*
X121270000Y-90724857D01*
X121270000Y-90724857D02*
X121270000Y-90915333D01*
X121270000Y-90915333D02*
X121308095Y-91067714D01*
X121308095Y-91067714D02*
X121346190Y-91143904D01*
X121346190Y-91143904D02*
X121384285Y-91182000D01*
X121384285Y-91182000D02*
X121460476Y-91220095D01*
X121460476Y-91220095D02*
X121536666Y-91220095D01*
X121536666Y-91220095D02*
X121612857Y-91182000D01*
X121612857Y-91182000D02*
X121650952Y-91143904D01*
X121650952Y-91143904D02*
X121689047Y-91067714D01*
X121689047Y-91067714D02*
X121727143Y-90915333D01*
X121727143Y-90915333D02*
X121727143Y-90724857D01*
X121727143Y-90724857D02*
X121689047Y-90572476D01*
X121689047Y-90572476D02*
X121650952Y-90496285D01*
X121650952Y-90496285D02*
X121612857Y-90458190D01*
X121612857Y-90458190D02*
X121536666Y-90420095D01*
X124279523Y-93812095D02*
X124279523Y-93012095D01*
X123746190Y-93012095D02*
X123593809Y-93012095D01*
X123593809Y-93012095D02*
X123517619Y-93050190D01*
X123517619Y-93050190D02*
X123441428Y-93126380D01*
X123441428Y-93126380D02*
X123403333Y-93278761D01*
X123403333Y-93278761D02*
X123403333Y-93545428D01*
X123403333Y-93545428D02*
X123441428Y-93697809D01*
X123441428Y-93697809D02*
X123517619Y-93774000D01*
X123517619Y-93774000D02*
X123593809Y-93812095D01*
X123593809Y-93812095D02*
X123746190Y-93812095D01*
X123746190Y-93812095D02*
X123822381Y-93774000D01*
X123822381Y-93774000D02*
X123898571Y-93697809D01*
X123898571Y-93697809D02*
X123936667Y-93545428D01*
X123936667Y-93545428D02*
X123936667Y-93278761D01*
X123936667Y-93278761D02*
X123898571Y-93126380D01*
X123898571Y-93126380D02*
X123822381Y-93050190D01*
X123822381Y-93050190D02*
X123746190Y-93012095D01*
X123250953Y-93888285D02*
X122641429Y-93888285D01*
X122031905Y-93812095D02*
X122489048Y-93812095D01*
X122260476Y-93812095D02*
X122260476Y-93012095D01*
X122260476Y-93012095D02*
X122336667Y-93126380D01*
X122336667Y-93126380D02*
X122412857Y-93202571D01*
X122412857Y-93202571D02*
X122489048Y-93240666D01*
X121270000Y-93812095D02*
X121727143Y-93812095D01*
X121498571Y-93812095D02*
X121498571Y-93012095D01*
X121498571Y-93012095D02*
X121574762Y-93126380D01*
X121574762Y-93126380D02*
X121650952Y-93202571D01*
X121650952Y-93202571D02*
X121727143Y-93240666D01*
X124279523Y-96404095D02*
X124279523Y-95604095D01*
X123746190Y-95604095D02*
X123593809Y-95604095D01*
X123593809Y-95604095D02*
X123517619Y-95642190D01*
X123517619Y-95642190D02*
X123441428Y-95718380D01*
X123441428Y-95718380D02*
X123403333Y-95870761D01*
X123403333Y-95870761D02*
X123403333Y-96137428D01*
X123403333Y-96137428D02*
X123441428Y-96289809D01*
X123441428Y-96289809D02*
X123517619Y-96366000D01*
X123517619Y-96366000D02*
X123593809Y-96404095D01*
X123593809Y-96404095D02*
X123746190Y-96404095D01*
X123746190Y-96404095D02*
X123822381Y-96366000D01*
X123822381Y-96366000D02*
X123898571Y-96289809D01*
X123898571Y-96289809D02*
X123936667Y-96137428D01*
X123936667Y-96137428D02*
X123936667Y-95870761D01*
X123936667Y-95870761D02*
X123898571Y-95718380D01*
X123898571Y-95718380D02*
X123822381Y-95642190D01*
X123822381Y-95642190D02*
X123746190Y-95604095D01*
X123250953Y-96480285D02*
X122641429Y-96480285D01*
X122031905Y-96404095D02*
X122489048Y-96404095D01*
X122260476Y-96404095D02*
X122260476Y-95604095D01*
X122260476Y-95604095D02*
X122336667Y-95718380D01*
X122336667Y-95718380D02*
X122412857Y-95794571D01*
X122412857Y-95794571D02*
X122489048Y-95832666D01*
X121727143Y-95680285D02*
X121689047Y-95642190D01*
X121689047Y-95642190D02*
X121612857Y-95604095D01*
X121612857Y-95604095D02*
X121422381Y-95604095D01*
X121422381Y-95604095D02*
X121346190Y-95642190D01*
X121346190Y-95642190D02*
X121308095Y-95680285D01*
X121308095Y-95680285D02*
X121270000Y-95756476D01*
X121270000Y-95756476D02*
X121270000Y-95832666D01*
X121270000Y-95832666D02*
X121308095Y-95946952D01*
X121308095Y-95946952D02*
X121765238Y-96404095D01*
X121765238Y-96404095D02*
X121270000Y-96404095D01*
X124279523Y-98996095D02*
X124279523Y-98196095D01*
X123746190Y-98196095D02*
X123593809Y-98196095D01*
X123593809Y-98196095D02*
X123517619Y-98234190D01*
X123517619Y-98234190D02*
X123441428Y-98310380D01*
X123441428Y-98310380D02*
X123403333Y-98462761D01*
X123403333Y-98462761D02*
X123403333Y-98729428D01*
X123403333Y-98729428D02*
X123441428Y-98881809D01*
X123441428Y-98881809D02*
X123517619Y-98958000D01*
X123517619Y-98958000D02*
X123593809Y-98996095D01*
X123593809Y-98996095D02*
X123746190Y-98996095D01*
X123746190Y-98996095D02*
X123822381Y-98958000D01*
X123822381Y-98958000D02*
X123898571Y-98881809D01*
X123898571Y-98881809D02*
X123936667Y-98729428D01*
X123936667Y-98729428D02*
X123936667Y-98462761D01*
X123936667Y-98462761D02*
X123898571Y-98310380D01*
X123898571Y-98310380D02*
X123822381Y-98234190D01*
X123822381Y-98234190D02*
X123746190Y-98196095D01*
X123250953Y-99072285D02*
X122641429Y-99072285D01*
X122031905Y-98996095D02*
X122489048Y-98996095D01*
X122260476Y-98996095D02*
X122260476Y-98196095D01*
X122260476Y-98196095D02*
X122336667Y-98310380D01*
X122336667Y-98310380D02*
X122412857Y-98386571D01*
X122412857Y-98386571D02*
X122489048Y-98424666D01*
X121765238Y-98196095D02*
X121270000Y-98196095D01*
X121270000Y-98196095D02*
X121536666Y-98500857D01*
X121536666Y-98500857D02*
X121422381Y-98500857D01*
X121422381Y-98500857D02*
X121346190Y-98538952D01*
X121346190Y-98538952D02*
X121308095Y-98577047D01*
X121308095Y-98577047D02*
X121270000Y-98653238D01*
X121270000Y-98653238D02*
X121270000Y-98843714D01*
X121270000Y-98843714D02*
X121308095Y-98919904D01*
X121308095Y-98919904D02*
X121346190Y-98958000D01*
X121346190Y-98958000D02*
X121422381Y-98996095D01*
X121422381Y-98996095D02*
X121650952Y-98996095D01*
X121650952Y-98996095D02*
X121727143Y-98958000D01*
X121727143Y-98958000D02*
X121765238Y-98919904D01*
X124279523Y-101588095D02*
X124279523Y-100788095D01*
X123746190Y-100788095D02*
X123593809Y-100788095D01*
X123593809Y-100788095D02*
X123517619Y-100826190D01*
X123517619Y-100826190D02*
X123441428Y-100902380D01*
X123441428Y-100902380D02*
X123403333Y-101054761D01*
X123403333Y-101054761D02*
X123403333Y-101321428D01*
X123403333Y-101321428D02*
X123441428Y-101473809D01*
X123441428Y-101473809D02*
X123517619Y-101550000D01*
X123517619Y-101550000D02*
X123593809Y-101588095D01*
X123593809Y-101588095D02*
X123746190Y-101588095D01*
X123746190Y-101588095D02*
X123822381Y-101550000D01*
X123822381Y-101550000D02*
X123898571Y-101473809D01*
X123898571Y-101473809D02*
X123936667Y-101321428D01*
X123936667Y-101321428D02*
X123936667Y-101054761D01*
X123936667Y-101054761D02*
X123898571Y-100902380D01*
X123898571Y-100902380D02*
X123822381Y-100826190D01*
X123822381Y-100826190D02*
X123746190Y-100788095D01*
X123250953Y-101664285D02*
X122641429Y-101664285D01*
X122031905Y-101588095D02*
X122489048Y-101588095D01*
X122260476Y-101588095D02*
X122260476Y-100788095D01*
X122260476Y-100788095D02*
X122336667Y-100902380D01*
X122336667Y-100902380D02*
X122412857Y-100978571D01*
X122412857Y-100978571D02*
X122489048Y-101016666D01*
X121346190Y-101054761D02*
X121346190Y-101588095D01*
X121536666Y-100750000D02*
X121727143Y-101321428D01*
X121727143Y-101321428D02*
X121231904Y-101321428D01*
X123860476Y-103418190D02*
X123936666Y-103380095D01*
X123936666Y-103380095D02*
X124050952Y-103380095D01*
X124050952Y-103380095D02*
X124165238Y-103418190D01*
X124165238Y-103418190D02*
X124241428Y-103494380D01*
X124241428Y-103494380D02*
X124279523Y-103570571D01*
X124279523Y-103570571D02*
X124317619Y-103722952D01*
X124317619Y-103722952D02*
X124317619Y-103837238D01*
X124317619Y-103837238D02*
X124279523Y-103989619D01*
X124279523Y-103989619D02*
X124241428Y-104065809D01*
X124241428Y-104065809D02*
X124165238Y-104142000D01*
X124165238Y-104142000D02*
X124050952Y-104180095D01*
X124050952Y-104180095D02*
X123974761Y-104180095D01*
X123974761Y-104180095D02*
X123860476Y-104142000D01*
X123860476Y-104142000D02*
X123822380Y-104103904D01*
X123822380Y-104103904D02*
X123822380Y-103837238D01*
X123822380Y-103837238D02*
X123974761Y-103837238D01*
X123479523Y-103646761D02*
X123479523Y-104180095D01*
X123479523Y-103722952D02*
X123441428Y-103684857D01*
X123441428Y-103684857D02*
X123365238Y-103646761D01*
X123365238Y-103646761D02*
X123250952Y-103646761D01*
X123250952Y-103646761D02*
X123174761Y-103684857D01*
X123174761Y-103684857D02*
X123136666Y-103761047D01*
X123136666Y-103761047D02*
X123136666Y-104180095D01*
X122412856Y-104180095D02*
X122412856Y-103380095D01*
X122412856Y-104142000D02*
X122489047Y-104180095D01*
X122489047Y-104180095D02*
X122641428Y-104180095D01*
X122641428Y-104180095D02*
X122717618Y-104142000D01*
X122717618Y-104142000D02*
X122755713Y-104103904D01*
X122755713Y-104103904D02*
X122793809Y-104027714D01*
X122793809Y-104027714D02*
X122793809Y-103799142D01*
X122793809Y-103799142D02*
X122755713Y-103722952D01*
X122755713Y-103722952D02*
X122717618Y-103684857D01*
X122717618Y-103684857D02*
X122641428Y-103646761D01*
X122641428Y-103646761D02*
X122489047Y-103646761D01*
X122489047Y-103646761D02*
X122412856Y-103684857D01*
X124279523Y-106772095D02*
X124279523Y-105972095D01*
X124279523Y-105972095D02*
X123974761Y-105972095D01*
X123974761Y-105972095D02*
X123898571Y-106010190D01*
X123898571Y-106010190D02*
X123860476Y-106048285D01*
X123860476Y-106048285D02*
X123822380Y-106124476D01*
X123822380Y-106124476D02*
X123822380Y-106238761D01*
X123822380Y-106238761D02*
X123860476Y-106314952D01*
X123860476Y-106314952D02*
X123898571Y-106353047D01*
X123898571Y-106353047D02*
X123974761Y-106391142D01*
X123974761Y-106391142D02*
X124279523Y-106391142D01*
X123479523Y-106772095D02*
X123479523Y-105972095D01*
X123479523Y-105972095D02*
X123212857Y-106543523D01*
X123212857Y-106543523D02*
X122946190Y-105972095D01*
X122946190Y-105972095D02*
X122946190Y-106772095D01*
X122565237Y-105972095D02*
X122565237Y-106619714D01*
X122565237Y-106619714D02*
X122527142Y-106695904D01*
X122527142Y-106695904D02*
X122489047Y-106734000D01*
X122489047Y-106734000D02*
X122412856Y-106772095D01*
X122412856Y-106772095D02*
X122260475Y-106772095D01*
X122260475Y-106772095D02*
X122184285Y-106734000D01*
X122184285Y-106734000D02*
X122146190Y-106695904D01*
X122146190Y-106695904D02*
X122108094Y-106619714D01*
X122108094Y-106619714D02*
X122108094Y-105972095D01*
X121917619Y-106848285D02*
X121308095Y-106848285D01*
X121117618Y-106772095D02*
X121117618Y-105972095D01*
X121117618Y-105972095D02*
X120927142Y-105972095D01*
X120927142Y-105972095D02*
X120812856Y-106010190D01*
X120812856Y-106010190D02*
X120736666Y-106086380D01*
X120736666Y-106086380D02*
X120698571Y-106162571D01*
X120698571Y-106162571D02*
X120660475Y-106314952D01*
X120660475Y-106314952D02*
X120660475Y-106429238D01*
X120660475Y-106429238D02*
X120698571Y-106581619D01*
X120698571Y-106581619D02*
X120736666Y-106657809D01*
X120736666Y-106657809D02*
X120812856Y-106734000D01*
X120812856Y-106734000D02*
X120927142Y-106772095D01*
X120927142Y-106772095D02*
X121117618Y-106772095D01*
X119860475Y-106695904D02*
X119898571Y-106734000D01*
X119898571Y-106734000D02*
X120012856Y-106772095D01*
X120012856Y-106772095D02*
X120089047Y-106772095D01*
X120089047Y-106772095D02*
X120203333Y-106734000D01*
X120203333Y-106734000D02*
X120279523Y-106657809D01*
X120279523Y-106657809D02*
X120317618Y-106581619D01*
X120317618Y-106581619D02*
X120355714Y-106429238D01*
X120355714Y-106429238D02*
X120355714Y-106314952D01*
X120355714Y-106314952D02*
X120317618Y-106162571D01*
X120317618Y-106162571D02*
X120279523Y-106086380D01*
X120279523Y-106086380D02*
X120203333Y-106010190D01*
X120203333Y-106010190D02*
X120089047Y-105972095D01*
X120089047Y-105972095D02*
X120012856Y-105972095D01*
X120012856Y-105972095D02*
X119898571Y-106010190D01*
X119898571Y-106010190D02*
X119860475Y-106048285D01*
X119136666Y-105972095D02*
X119517618Y-105972095D01*
X119517618Y-105972095D02*
X119555714Y-106353047D01*
X119555714Y-106353047D02*
X119517618Y-106314952D01*
X119517618Y-106314952D02*
X119441428Y-106276857D01*
X119441428Y-106276857D02*
X119250952Y-106276857D01*
X119250952Y-106276857D02*
X119174761Y-106314952D01*
X119174761Y-106314952D02*
X119136666Y-106353047D01*
X119136666Y-106353047D02*
X119098571Y-106429238D01*
X119098571Y-106429238D02*
X119098571Y-106619714D01*
X119098571Y-106619714D02*
X119136666Y-106695904D01*
X119136666Y-106695904D02*
X119174761Y-106734000D01*
X119174761Y-106734000D02*
X119250952Y-106772095D01*
X119250952Y-106772095D02*
X119441428Y-106772095D01*
X119441428Y-106772095D02*
X119517618Y-106734000D01*
X119517618Y-106734000D02*
X119555714Y-106695904D01*
X173000951Y-97196095D02*
X172734284Y-97996095D01*
X172734284Y-97996095D02*
X172467618Y-97196095D01*
X171858094Y-97958000D02*
X171934285Y-97996095D01*
X171934285Y-97996095D02*
X172086666Y-97996095D01*
X172086666Y-97996095D02*
X172162856Y-97958000D01*
X172162856Y-97958000D02*
X172200951Y-97919904D01*
X172200951Y-97919904D02*
X172239047Y-97843714D01*
X172239047Y-97843714D02*
X172239047Y-97615142D01*
X172239047Y-97615142D02*
X172200951Y-97538952D01*
X172200951Y-97538952D02*
X172162856Y-97500857D01*
X172162856Y-97500857D02*
X172086666Y-97462761D01*
X172086666Y-97462761D02*
X171934285Y-97462761D01*
X171934285Y-97462761D02*
X171858094Y-97500857D01*
X171172380Y-97958000D02*
X171248571Y-97996095D01*
X171248571Y-97996095D02*
X171400952Y-97996095D01*
X171400952Y-97996095D02*
X171477142Y-97958000D01*
X171477142Y-97958000D02*
X171515237Y-97919904D01*
X171515237Y-97919904D02*
X171553333Y-97843714D01*
X171553333Y-97843714D02*
X171553333Y-97615142D01*
X171553333Y-97615142D02*
X171515237Y-97538952D01*
X171515237Y-97538952D02*
X171477142Y-97500857D01*
X171477142Y-97500857D02*
X171400952Y-97462761D01*
X171400952Y-97462761D02*
X171248571Y-97462761D01*
X171248571Y-97462761D02*
X171172380Y-97500857D01*
X173534286Y-100588095D02*
X173534286Y-99788095D01*
X173534286Y-99788095D02*
X173343810Y-99788095D01*
X173343810Y-99788095D02*
X173229524Y-99826190D01*
X173229524Y-99826190D02*
X173153334Y-99902380D01*
X173153334Y-99902380D02*
X173115239Y-99978571D01*
X173115239Y-99978571D02*
X173077143Y-100130952D01*
X173077143Y-100130952D02*
X173077143Y-100245238D01*
X173077143Y-100245238D02*
X173115239Y-100397619D01*
X173115239Y-100397619D02*
X173153334Y-100473809D01*
X173153334Y-100473809D02*
X173229524Y-100550000D01*
X173229524Y-100550000D02*
X173343810Y-100588095D01*
X173343810Y-100588095D02*
X173534286Y-100588095D01*
X172391429Y-100588095D02*
X172391429Y-100169047D01*
X172391429Y-100169047D02*
X172429524Y-100092857D01*
X172429524Y-100092857D02*
X172505715Y-100054761D01*
X172505715Y-100054761D02*
X172658096Y-100054761D01*
X172658096Y-100054761D02*
X172734286Y-100092857D01*
X172391429Y-100550000D02*
X172467620Y-100588095D01*
X172467620Y-100588095D02*
X172658096Y-100588095D01*
X172658096Y-100588095D02*
X172734286Y-100550000D01*
X172734286Y-100550000D02*
X172772382Y-100473809D01*
X172772382Y-100473809D02*
X172772382Y-100397619D01*
X172772382Y-100397619D02*
X172734286Y-100321428D01*
X172734286Y-100321428D02*
X172658096Y-100283333D01*
X172658096Y-100283333D02*
X172467620Y-100283333D01*
X172467620Y-100283333D02*
X172391429Y-100245238D01*
X172124762Y-100054761D02*
X171820000Y-100054761D01*
X172010476Y-99788095D02*
X172010476Y-100473809D01*
X172010476Y-100473809D02*
X171972381Y-100550000D01*
X171972381Y-100550000D02*
X171896191Y-100588095D01*
X171896191Y-100588095D02*
X171820000Y-100588095D01*
X171210476Y-100588095D02*
X171210476Y-100169047D01*
X171210476Y-100169047D02*
X171248571Y-100092857D01*
X171248571Y-100092857D02*
X171324762Y-100054761D01*
X171324762Y-100054761D02*
X171477143Y-100054761D01*
X171477143Y-100054761D02*
X171553333Y-100092857D01*
X171210476Y-100550000D02*
X171286667Y-100588095D01*
X171286667Y-100588095D02*
X171477143Y-100588095D01*
X171477143Y-100588095D02*
X171553333Y-100550000D01*
X171553333Y-100550000D02*
X171591429Y-100473809D01*
X171591429Y-100473809D02*
X171591429Y-100397619D01*
X171591429Y-100397619D02*
X171553333Y-100321428D01*
X171553333Y-100321428D02*
X171477143Y-100283333D01*
X171477143Y-100283333D02*
X171286667Y-100283333D01*
X171286667Y-100283333D02*
X171210476Y-100245238D01*
X172239047Y-103103904D02*
X172277143Y-103142000D01*
X172277143Y-103142000D02*
X172391428Y-103180095D01*
X172391428Y-103180095D02*
X172467619Y-103180095D01*
X172467619Y-103180095D02*
X172581905Y-103142000D01*
X172581905Y-103142000D02*
X172658095Y-103065809D01*
X172658095Y-103065809D02*
X172696190Y-102989619D01*
X172696190Y-102989619D02*
X172734286Y-102837238D01*
X172734286Y-102837238D02*
X172734286Y-102722952D01*
X172734286Y-102722952D02*
X172696190Y-102570571D01*
X172696190Y-102570571D02*
X172658095Y-102494380D01*
X172658095Y-102494380D02*
X172581905Y-102418190D01*
X172581905Y-102418190D02*
X172467619Y-102380095D01*
X172467619Y-102380095D02*
X172391428Y-102380095D01*
X172391428Y-102380095D02*
X172277143Y-102418190D01*
X172277143Y-102418190D02*
X172239047Y-102456285D01*
X171781905Y-103180095D02*
X171858095Y-103142000D01*
X171858095Y-103142000D02*
X171896190Y-103065809D01*
X171896190Y-103065809D02*
X171896190Y-102380095D01*
X171477142Y-103180095D02*
X171477142Y-102380095D01*
X171400952Y-102875333D02*
X171172380Y-103180095D01*
X171172380Y-102646761D02*
X171477142Y-102951523D01*
X172658096Y-105010190D02*
X172734286Y-104972095D01*
X172734286Y-104972095D02*
X172848572Y-104972095D01*
X172848572Y-104972095D02*
X172962858Y-105010190D01*
X172962858Y-105010190D02*
X173039048Y-105086380D01*
X173039048Y-105086380D02*
X173077143Y-105162571D01*
X173077143Y-105162571D02*
X173115239Y-105314952D01*
X173115239Y-105314952D02*
X173115239Y-105429238D01*
X173115239Y-105429238D02*
X173077143Y-105581619D01*
X173077143Y-105581619D02*
X173039048Y-105657809D01*
X173039048Y-105657809D02*
X172962858Y-105734000D01*
X172962858Y-105734000D02*
X172848572Y-105772095D01*
X172848572Y-105772095D02*
X172772381Y-105772095D01*
X172772381Y-105772095D02*
X172658096Y-105734000D01*
X172658096Y-105734000D02*
X172620000Y-105695904D01*
X172620000Y-105695904D02*
X172620000Y-105429238D01*
X172620000Y-105429238D02*
X172772381Y-105429238D01*
X172277143Y-105238761D02*
X172277143Y-105772095D01*
X172277143Y-105314952D02*
X172239048Y-105276857D01*
X172239048Y-105276857D02*
X172162858Y-105238761D01*
X172162858Y-105238761D02*
X172048572Y-105238761D01*
X172048572Y-105238761D02*
X171972381Y-105276857D01*
X171972381Y-105276857D02*
X171934286Y-105353047D01*
X171934286Y-105353047D02*
X171934286Y-105772095D01*
X171210476Y-105772095D02*
X171210476Y-104972095D01*
X171210476Y-105734000D02*
X171286667Y-105772095D01*
X171286667Y-105772095D02*
X171439048Y-105772095D01*
X171439048Y-105772095D02*
X171515238Y-105734000D01*
X171515238Y-105734000D02*
X171553333Y-105695904D01*
X171553333Y-105695904D02*
X171591429Y-105619714D01*
X171591429Y-105619714D02*
X171591429Y-105391142D01*
X171591429Y-105391142D02*
X171553333Y-105314952D01*
X171553333Y-105314952D02*
X171515238Y-105276857D01*
X171515238Y-105276857D02*
X171439048Y-105238761D01*
X171439048Y-105238761D02*
X171286667Y-105238761D01*
X171286667Y-105238761D02*
X171210476Y-105276857D01*
X167111904Y-100734095D02*
X167111904Y-99934095D01*
X166578571Y-99934095D02*
X166426190Y-99934095D01*
X166426190Y-99934095D02*
X166350000Y-99972190D01*
X166350000Y-99972190D02*
X166273809Y-100048380D01*
X166273809Y-100048380D02*
X166235714Y-100200761D01*
X166235714Y-100200761D02*
X166235714Y-100467428D01*
X166235714Y-100467428D02*
X166273809Y-100619809D01*
X166273809Y-100619809D02*
X166350000Y-100696000D01*
X166350000Y-100696000D02*
X166426190Y-100734095D01*
X166426190Y-100734095D02*
X166578571Y-100734095D01*
X166578571Y-100734095D02*
X166654762Y-100696000D01*
X166654762Y-100696000D02*
X166730952Y-100619809D01*
X166730952Y-100619809D02*
X166769048Y-100467428D01*
X166769048Y-100467428D02*
X166769048Y-100200761D01*
X166769048Y-100200761D02*
X166730952Y-100048380D01*
X166730952Y-100048380D02*
X166654762Y-99972190D01*
X166654762Y-99972190D02*
X166578571Y-99934095D01*
X166083334Y-100810285D02*
X165473810Y-100810285D01*
X164940476Y-100200761D02*
X164940476Y-100734095D01*
X165130952Y-99896000D02*
X165321429Y-100467428D01*
X165321429Y-100467428D02*
X164826190Y-100467428D01*
X164597619Y-99934095D02*
X164064285Y-99934095D01*
X164064285Y-99934095D02*
X164407143Y-100734095D01*
X167111904Y-103326095D02*
X167111904Y-102526095D01*
X166578571Y-102526095D02*
X166426190Y-102526095D01*
X166426190Y-102526095D02*
X166350000Y-102564190D01*
X166350000Y-102564190D02*
X166273809Y-102640380D01*
X166273809Y-102640380D02*
X166235714Y-102792761D01*
X166235714Y-102792761D02*
X166235714Y-103059428D01*
X166235714Y-103059428D02*
X166273809Y-103211809D01*
X166273809Y-103211809D02*
X166350000Y-103288000D01*
X166350000Y-103288000D02*
X166426190Y-103326095D01*
X166426190Y-103326095D02*
X166578571Y-103326095D01*
X166578571Y-103326095D02*
X166654762Y-103288000D01*
X166654762Y-103288000D02*
X166730952Y-103211809D01*
X166730952Y-103211809D02*
X166769048Y-103059428D01*
X166769048Y-103059428D02*
X166769048Y-102792761D01*
X166769048Y-102792761D02*
X166730952Y-102640380D01*
X166730952Y-102640380D02*
X166654762Y-102564190D01*
X166654762Y-102564190D02*
X166578571Y-102526095D01*
X166083334Y-103402285D02*
X165473810Y-103402285D01*
X165321429Y-102602285D02*
X165283333Y-102564190D01*
X165283333Y-102564190D02*
X165207143Y-102526095D01*
X165207143Y-102526095D02*
X165016667Y-102526095D01*
X165016667Y-102526095D02*
X164940476Y-102564190D01*
X164940476Y-102564190D02*
X164902381Y-102602285D01*
X164902381Y-102602285D02*
X164864286Y-102678476D01*
X164864286Y-102678476D02*
X164864286Y-102754666D01*
X164864286Y-102754666D02*
X164902381Y-102868952D01*
X164902381Y-102868952D02*
X165359524Y-103326095D01*
X165359524Y-103326095D02*
X164864286Y-103326095D01*
X164102381Y-103326095D02*
X164559524Y-103326095D01*
X164330952Y-103326095D02*
X164330952Y-102526095D01*
X164330952Y-102526095D02*
X164407143Y-102640380D01*
X164407143Y-102640380D02*
X164483333Y-102716571D01*
X164483333Y-102716571D02*
X164559524Y-102754666D01*
X161901904Y-86208095D02*
X161901904Y-85408095D01*
X161368571Y-85408095D02*
X161216190Y-85408095D01*
X161216190Y-85408095D02*
X161140000Y-85446190D01*
X161140000Y-85446190D02*
X161063809Y-85522380D01*
X161063809Y-85522380D02*
X161025714Y-85674761D01*
X161025714Y-85674761D02*
X161025714Y-85941428D01*
X161025714Y-85941428D02*
X161063809Y-86093809D01*
X161063809Y-86093809D02*
X161140000Y-86170000D01*
X161140000Y-86170000D02*
X161216190Y-86208095D01*
X161216190Y-86208095D02*
X161368571Y-86208095D01*
X161368571Y-86208095D02*
X161444762Y-86170000D01*
X161444762Y-86170000D02*
X161520952Y-86093809D01*
X161520952Y-86093809D02*
X161559048Y-85941428D01*
X161559048Y-85941428D02*
X161559048Y-85674761D01*
X161559048Y-85674761D02*
X161520952Y-85522380D01*
X161520952Y-85522380D02*
X161444762Y-85446190D01*
X161444762Y-85446190D02*
X161368571Y-85408095D01*
X160873334Y-86284285D02*
X160263810Y-86284285D01*
X160149524Y-85408095D02*
X159654286Y-85408095D01*
X159654286Y-85408095D02*
X159920952Y-85712857D01*
X159920952Y-85712857D02*
X159806667Y-85712857D01*
X159806667Y-85712857D02*
X159730476Y-85750952D01*
X159730476Y-85750952D02*
X159692381Y-85789047D01*
X159692381Y-85789047D02*
X159654286Y-85865238D01*
X159654286Y-85865238D02*
X159654286Y-86055714D01*
X159654286Y-86055714D02*
X159692381Y-86131904D01*
X159692381Y-86131904D02*
X159730476Y-86170000D01*
X159730476Y-86170000D02*
X159806667Y-86208095D01*
X159806667Y-86208095D02*
X160035238Y-86208095D01*
X160035238Y-86208095D02*
X160111429Y-86170000D01*
X160111429Y-86170000D02*
X160149524Y-86131904D01*
X158968571Y-85408095D02*
X159120952Y-85408095D01*
X159120952Y-85408095D02*
X159197143Y-85446190D01*
X159197143Y-85446190D02*
X159235238Y-85484285D01*
X159235238Y-85484285D02*
X159311428Y-85598571D01*
X159311428Y-85598571D02*
X159349524Y-85750952D01*
X159349524Y-85750952D02*
X159349524Y-86055714D01*
X159349524Y-86055714D02*
X159311428Y-86131904D01*
X159311428Y-86131904D02*
X159273333Y-86170000D01*
X159273333Y-86170000D02*
X159197143Y-86208095D01*
X159197143Y-86208095D02*
X159044762Y-86208095D01*
X159044762Y-86208095D02*
X158968571Y-86170000D01*
X158968571Y-86170000D02*
X158930476Y-86131904D01*
X158930476Y-86131904D02*
X158892381Y-86055714D01*
X158892381Y-86055714D02*
X158892381Y-85865238D01*
X158892381Y-85865238D02*
X158930476Y-85789047D01*
X158930476Y-85789047D02*
X158968571Y-85750952D01*
X158968571Y-85750952D02*
X159044762Y-85712857D01*
X159044762Y-85712857D02*
X159197143Y-85712857D01*
X159197143Y-85712857D02*
X159273333Y-85750952D01*
X159273333Y-85750952D02*
X159311428Y-85789047D01*
X159311428Y-85789047D02*
X159349524Y-85865238D01*
X161901904Y-96576095D02*
X161901904Y-95776095D01*
X161368571Y-95776095D02*
X161216190Y-95776095D01*
X161216190Y-95776095D02*
X161140000Y-95814190D01*
X161140000Y-95814190D02*
X161063809Y-95890380D01*
X161063809Y-95890380D02*
X161025714Y-96042761D01*
X161025714Y-96042761D02*
X161025714Y-96309428D01*
X161025714Y-96309428D02*
X161063809Y-96461809D01*
X161063809Y-96461809D02*
X161140000Y-96538000D01*
X161140000Y-96538000D02*
X161216190Y-96576095D01*
X161216190Y-96576095D02*
X161368571Y-96576095D01*
X161368571Y-96576095D02*
X161444762Y-96538000D01*
X161444762Y-96538000D02*
X161520952Y-96461809D01*
X161520952Y-96461809D02*
X161559048Y-96309428D01*
X161559048Y-96309428D02*
X161559048Y-96042761D01*
X161559048Y-96042761D02*
X161520952Y-95890380D01*
X161520952Y-95890380D02*
X161444762Y-95814190D01*
X161444762Y-95814190D02*
X161368571Y-95776095D01*
X160873334Y-96652285D02*
X160263810Y-96652285D01*
X159730476Y-96042761D02*
X159730476Y-96576095D01*
X159920952Y-95738000D02*
X160111429Y-96309428D01*
X160111429Y-96309428D02*
X159616190Y-96309428D01*
X159197143Y-96118952D02*
X159273333Y-96080857D01*
X159273333Y-96080857D02*
X159311428Y-96042761D01*
X159311428Y-96042761D02*
X159349524Y-95966571D01*
X159349524Y-95966571D02*
X159349524Y-95928476D01*
X159349524Y-95928476D02*
X159311428Y-95852285D01*
X159311428Y-95852285D02*
X159273333Y-95814190D01*
X159273333Y-95814190D02*
X159197143Y-95776095D01*
X159197143Y-95776095D02*
X159044762Y-95776095D01*
X159044762Y-95776095D02*
X158968571Y-95814190D01*
X158968571Y-95814190D02*
X158930476Y-95852285D01*
X158930476Y-95852285D02*
X158892381Y-95928476D01*
X158892381Y-95928476D02*
X158892381Y-95966571D01*
X158892381Y-95966571D02*
X158930476Y-96042761D01*
X158930476Y-96042761D02*
X158968571Y-96080857D01*
X158968571Y-96080857D02*
X159044762Y-96118952D01*
X159044762Y-96118952D02*
X159197143Y-96118952D01*
X159197143Y-96118952D02*
X159273333Y-96157047D01*
X159273333Y-96157047D02*
X159311428Y-96195142D01*
X159311428Y-96195142D02*
X159349524Y-96271333D01*
X159349524Y-96271333D02*
X159349524Y-96423714D01*
X159349524Y-96423714D02*
X159311428Y-96499904D01*
X159311428Y-96499904D02*
X159273333Y-96538000D01*
X159273333Y-96538000D02*
X159197143Y-96576095D01*
X159197143Y-96576095D02*
X159044762Y-96576095D01*
X159044762Y-96576095D02*
X158968571Y-96538000D01*
X158968571Y-96538000D02*
X158930476Y-96499904D01*
X158930476Y-96499904D02*
X158892381Y-96423714D01*
X158892381Y-96423714D02*
X158892381Y-96271333D01*
X158892381Y-96271333D02*
X158930476Y-96195142D01*
X158930476Y-96195142D02*
X158968571Y-96157047D01*
X158968571Y-96157047D02*
X159044762Y-96118952D01*
X161901904Y-99168095D02*
X161901904Y-98368095D01*
X161368571Y-98368095D02*
X161216190Y-98368095D01*
X161216190Y-98368095D02*
X161140000Y-98406190D01*
X161140000Y-98406190D02*
X161063809Y-98482380D01*
X161063809Y-98482380D02*
X161025714Y-98634761D01*
X161025714Y-98634761D02*
X161025714Y-98901428D01*
X161025714Y-98901428D02*
X161063809Y-99053809D01*
X161063809Y-99053809D02*
X161140000Y-99130000D01*
X161140000Y-99130000D02*
X161216190Y-99168095D01*
X161216190Y-99168095D02*
X161368571Y-99168095D01*
X161368571Y-99168095D02*
X161444762Y-99130000D01*
X161444762Y-99130000D02*
X161520952Y-99053809D01*
X161520952Y-99053809D02*
X161559048Y-98901428D01*
X161559048Y-98901428D02*
X161559048Y-98634761D01*
X161559048Y-98634761D02*
X161520952Y-98482380D01*
X161520952Y-98482380D02*
X161444762Y-98406190D01*
X161444762Y-98406190D02*
X161368571Y-98368095D01*
X160873334Y-99244285D02*
X160263810Y-99244285D01*
X159730476Y-98634761D02*
X159730476Y-99168095D01*
X159920952Y-98330000D02*
X160111429Y-98901428D01*
X160111429Y-98901428D02*
X159616190Y-98901428D01*
X159387619Y-98368095D02*
X158854285Y-98368095D01*
X158854285Y-98368095D02*
X159197143Y-99168095D01*
X161901904Y-101760095D02*
X161901904Y-100960095D01*
X161368571Y-100960095D02*
X161216190Y-100960095D01*
X161216190Y-100960095D02*
X161140000Y-100998190D01*
X161140000Y-100998190D02*
X161063809Y-101074380D01*
X161063809Y-101074380D02*
X161025714Y-101226761D01*
X161025714Y-101226761D02*
X161025714Y-101493428D01*
X161025714Y-101493428D02*
X161063809Y-101645809D01*
X161063809Y-101645809D02*
X161140000Y-101722000D01*
X161140000Y-101722000D02*
X161216190Y-101760095D01*
X161216190Y-101760095D02*
X161368571Y-101760095D01*
X161368571Y-101760095D02*
X161444762Y-101722000D01*
X161444762Y-101722000D02*
X161520952Y-101645809D01*
X161520952Y-101645809D02*
X161559048Y-101493428D01*
X161559048Y-101493428D02*
X161559048Y-101226761D01*
X161559048Y-101226761D02*
X161520952Y-101074380D01*
X161520952Y-101074380D02*
X161444762Y-100998190D01*
X161444762Y-100998190D02*
X161368571Y-100960095D01*
X160873334Y-101836285D02*
X160263810Y-101836285D01*
X160111429Y-101036285D02*
X160073333Y-100998190D01*
X160073333Y-100998190D02*
X159997143Y-100960095D01*
X159997143Y-100960095D02*
X159806667Y-100960095D01*
X159806667Y-100960095D02*
X159730476Y-100998190D01*
X159730476Y-100998190D02*
X159692381Y-101036285D01*
X159692381Y-101036285D02*
X159654286Y-101112476D01*
X159654286Y-101112476D02*
X159654286Y-101188666D01*
X159654286Y-101188666D02*
X159692381Y-101302952D01*
X159692381Y-101302952D02*
X160149524Y-101760095D01*
X160149524Y-101760095D02*
X159654286Y-101760095D01*
X158892381Y-101760095D02*
X159349524Y-101760095D01*
X159120952Y-101760095D02*
X159120952Y-100960095D01*
X159120952Y-100960095D02*
X159197143Y-101074380D01*
X159197143Y-101074380D02*
X159273333Y-101150571D01*
X159273333Y-101150571D02*
X159349524Y-101188666D01*
X160378096Y-103590190D02*
X160454286Y-103552095D01*
X160454286Y-103552095D02*
X160568572Y-103552095D01*
X160568572Y-103552095D02*
X160682858Y-103590190D01*
X160682858Y-103590190D02*
X160759048Y-103666380D01*
X160759048Y-103666380D02*
X160797143Y-103742571D01*
X160797143Y-103742571D02*
X160835239Y-103894952D01*
X160835239Y-103894952D02*
X160835239Y-104009238D01*
X160835239Y-104009238D02*
X160797143Y-104161619D01*
X160797143Y-104161619D02*
X160759048Y-104237809D01*
X160759048Y-104237809D02*
X160682858Y-104314000D01*
X160682858Y-104314000D02*
X160568572Y-104352095D01*
X160568572Y-104352095D02*
X160492381Y-104352095D01*
X160492381Y-104352095D02*
X160378096Y-104314000D01*
X160378096Y-104314000D02*
X160340000Y-104275904D01*
X160340000Y-104275904D02*
X160340000Y-104009238D01*
X160340000Y-104009238D02*
X160492381Y-104009238D01*
X159997143Y-103818761D02*
X159997143Y-104352095D01*
X159997143Y-103894952D02*
X159959048Y-103856857D01*
X159959048Y-103856857D02*
X159882858Y-103818761D01*
X159882858Y-103818761D02*
X159768572Y-103818761D01*
X159768572Y-103818761D02*
X159692381Y-103856857D01*
X159692381Y-103856857D02*
X159654286Y-103933047D01*
X159654286Y-103933047D02*
X159654286Y-104352095D01*
X158930476Y-104352095D02*
X158930476Y-103552095D01*
X158930476Y-104314000D02*
X159006667Y-104352095D01*
X159006667Y-104352095D02*
X159159048Y-104352095D01*
X159159048Y-104352095D02*
X159235238Y-104314000D01*
X159235238Y-104314000D02*
X159273333Y-104275904D01*
X159273333Y-104275904D02*
X159311429Y-104199714D01*
X159311429Y-104199714D02*
X159311429Y-103971142D01*
X159311429Y-103971142D02*
X159273333Y-103894952D01*
X159273333Y-103894952D02*
X159235238Y-103856857D01*
X159235238Y-103856857D02*
X159159048Y-103818761D01*
X159159048Y-103818761D02*
X159006667Y-103818761D01*
X159006667Y-103818761D02*
X158930476Y-103856857D01*
X119011904Y-101974095D02*
X119011904Y-101174095D01*
X118478571Y-101174095D02*
X118326190Y-101174095D01*
X118326190Y-101174095D02*
X118250000Y-101212190D01*
X118250000Y-101212190D02*
X118173809Y-101288380D01*
X118173809Y-101288380D02*
X118135714Y-101440761D01*
X118135714Y-101440761D02*
X118135714Y-101707428D01*
X118135714Y-101707428D02*
X118173809Y-101859809D01*
X118173809Y-101859809D02*
X118250000Y-101936000D01*
X118250000Y-101936000D02*
X118326190Y-101974095D01*
X118326190Y-101974095D02*
X118478571Y-101974095D01*
X118478571Y-101974095D02*
X118554762Y-101936000D01*
X118554762Y-101936000D02*
X118630952Y-101859809D01*
X118630952Y-101859809D02*
X118669048Y-101707428D01*
X118669048Y-101707428D02*
X118669048Y-101440761D01*
X118669048Y-101440761D02*
X118630952Y-101288380D01*
X118630952Y-101288380D02*
X118554762Y-101212190D01*
X118554762Y-101212190D02*
X118478571Y-101174095D01*
X117983334Y-102050285D02*
X117373810Y-102050285D01*
X116764286Y-101974095D02*
X117221429Y-101974095D01*
X116992857Y-101974095D02*
X116992857Y-101174095D01*
X116992857Y-101174095D02*
X117069048Y-101288380D01*
X117069048Y-101288380D02*
X117145238Y-101364571D01*
X117145238Y-101364571D02*
X117221429Y-101402666D01*
X116497619Y-101174095D02*
X116002381Y-101174095D01*
X116002381Y-101174095D02*
X116269047Y-101478857D01*
X116269047Y-101478857D02*
X116154762Y-101478857D01*
X116154762Y-101478857D02*
X116078571Y-101516952D01*
X116078571Y-101516952D02*
X116040476Y-101555047D01*
X116040476Y-101555047D02*
X116002381Y-101631238D01*
X116002381Y-101631238D02*
X116002381Y-101821714D01*
X116002381Y-101821714D02*
X116040476Y-101897904D01*
X116040476Y-101897904D02*
X116078571Y-101936000D01*
X116078571Y-101936000D02*
X116154762Y-101974095D01*
X116154762Y-101974095D02*
X116383333Y-101974095D01*
X116383333Y-101974095D02*
X116459524Y-101936000D01*
X116459524Y-101936000D02*
X116497619Y-101897904D01*
X119011904Y-104566095D02*
X119011904Y-103766095D01*
X118478571Y-103766095D02*
X118326190Y-103766095D01*
X118326190Y-103766095D02*
X118250000Y-103804190D01*
X118250000Y-103804190D02*
X118173809Y-103880380D01*
X118173809Y-103880380D02*
X118135714Y-104032761D01*
X118135714Y-104032761D02*
X118135714Y-104299428D01*
X118135714Y-104299428D02*
X118173809Y-104451809D01*
X118173809Y-104451809D02*
X118250000Y-104528000D01*
X118250000Y-104528000D02*
X118326190Y-104566095D01*
X118326190Y-104566095D02*
X118478571Y-104566095D01*
X118478571Y-104566095D02*
X118554762Y-104528000D01*
X118554762Y-104528000D02*
X118630952Y-104451809D01*
X118630952Y-104451809D02*
X118669048Y-104299428D01*
X118669048Y-104299428D02*
X118669048Y-104032761D01*
X118669048Y-104032761D02*
X118630952Y-103880380D01*
X118630952Y-103880380D02*
X118554762Y-103804190D01*
X118554762Y-103804190D02*
X118478571Y-103766095D01*
X117983334Y-104642285D02*
X117373810Y-104642285D01*
X116764286Y-104566095D02*
X117221429Y-104566095D01*
X116992857Y-104566095D02*
X116992857Y-103766095D01*
X116992857Y-103766095D02*
X117069048Y-103880380D01*
X117069048Y-103880380D02*
X117145238Y-103956571D01*
X117145238Y-103956571D02*
X117221429Y-103994666D01*
X116078571Y-104032761D02*
X116078571Y-104566095D01*
X116269047Y-103728000D02*
X116459524Y-104299428D01*
X116459524Y-104299428D02*
X115964285Y-104299428D01*
D11*
X149968572Y-82712857D02*
X150968572Y-81284285D01*
X151682858Y-82712857D02*
X151682858Y-79712857D01*
X151682858Y-79712857D02*
X150540001Y-79712857D01*
X150540001Y-79712857D02*
X150254286Y-79855714D01*
X150254286Y-79855714D02*
X150111429Y-79998571D01*
X150111429Y-79998571D02*
X149968572Y-80284285D01*
X149968572Y-80284285D02*
X149968572Y-80712857D01*
X149968572Y-80712857D02*
X150111429Y-80998571D01*
X150111429Y-80998571D02*
X150254286Y-81141428D01*
X150254286Y-81141428D02*
X150540001Y-81284285D01*
X150540001Y-81284285D02*
X151682858Y-81284285D01*
X147397144Y-82712857D02*
X147397144Y-81141428D01*
X147397144Y-81141428D02*
X147540001Y-80855714D01*
X147540001Y-80855714D02*
X147825715Y-80712857D01*
X147825715Y-80712857D02*
X148397144Y-80712857D01*
X148397144Y-80712857D02*
X148682858Y-80855714D01*
X147397144Y-82570000D02*
X147682858Y-82712857D01*
X147682858Y-82712857D02*
X148397144Y-82712857D01*
X148397144Y-82712857D02*
X148682858Y-82570000D01*
X148682858Y-82570000D02*
X148825715Y-82284285D01*
X148825715Y-82284285D02*
X148825715Y-81998571D01*
X148825715Y-81998571D02*
X148682858Y-81712857D01*
X148682858Y-81712857D02*
X148397144Y-81570000D01*
X148397144Y-81570000D02*
X147682858Y-81570000D01*
X147682858Y-81570000D02*
X147397144Y-81427142D01*
X146397143Y-80712857D02*
X145254286Y-80712857D01*
X145968572Y-79712857D02*
X145968572Y-82284285D01*
X145968572Y-82284285D02*
X145825715Y-82570000D01*
X145825715Y-82570000D02*
X145540000Y-82712857D01*
X145540000Y-82712857D02*
X145254286Y-82712857D01*
X142968572Y-82712857D02*
X142968572Y-81141428D01*
X142968572Y-81141428D02*
X143111429Y-80855714D01*
X143111429Y-80855714D02*
X143397143Y-80712857D01*
X143397143Y-80712857D02*
X143968572Y-80712857D01*
X143968572Y-80712857D02*
X144254286Y-80855714D01*
X142968572Y-82570000D02*
X143254286Y-82712857D01*
X143254286Y-82712857D02*
X143968572Y-82712857D01*
X143968572Y-82712857D02*
X144254286Y-82570000D01*
X144254286Y-82570000D02*
X144397143Y-82284285D01*
X144397143Y-82284285D02*
X144397143Y-81998571D01*
X144397143Y-81998571D02*
X144254286Y-81712857D01*
X144254286Y-81712857D02*
X143968572Y-81570000D01*
X143968572Y-81570000D02*
X143254286Y-81570000D01*
X143254286Y-81570000D02*
X142968572Y-81427142D01*
X141540000Y-82712857D02*
X141540000Y-80712857D01*
X141540000Y-80998571D02*
X141397143Y-80855714D01*
X141397143Y-80855714D02*
X141111428Y-80712857D01*
X141111428Y-80712857D02*
X140682857Y-80712857D01*
X140682857Y-80712857D02*
X140397143Y-80855714D01*
X140397143Y-80855714D02*
X140254286Y-81141428D01*
X140254286Y-81141428D02*
X140254286Y-82712857D01*
X140254286Y-81141428D02*
X140111428Y-80855714D01*
X140111428Y-80855714D02*
X139825714Y-80712857D01*
X139825714Y-80712857D02*
X139397143Y-80712857D01*
X139397143Y-80712857D02*
X139111428Y-80855714D01*
X139111428Y-80855714D02*
X138968571Y-81141428D01*
X138968571Y-81141428D02*
X138968571Y-82712857D01*
X136254286Y-80712857D02*
X136254286Y-82712857D01*
X137540000Y-80712857D02*
X137540000Y-82284285D01*
X137540000Y-82284285D02*
X137397143Y-82570000D01*
X137397143Y-82570000D02*
X137111428Y-82712857D01*
X137111428Y-82712857D02*
X136682857Y-82712857D01*
X136682857Y-82712857D02*
X136397143Y-82570000D01*
X136397143Y-82570000D02*
X136254286Y-82427142D01*
X134968571Y-82570000D02*
X134682857Y-82712857D01*
X134682857Y-82712857D02*
X134111428Y-82712857D01*
X134111428Y-82712857D02*
X133825714Y-82570000D01*
X133825714Y-82570000D02*
X133682857Y-82284285D01*
X133682857Y-82284285D02*
X133682857Y-82141428D01*
X133682857Y-82141428D02*
X133825714Y-81855714D01*
X133825714Y-81855714D02*
X134111428Y-81712857D01*
X134111428Y-81712857D02*
X134540000Y-81712857D01*
X134540000Y-81712857D02*
X134825714Y-81570000D01*
X134825714Y-81570000D02*
X134968571Y-81284285D01*
X134968571Y-81284285D02*
X134968571Y-81141428D01*
X134968571Y-81141428D02*
X134825714Y-80855714D01*
X134825714Y-80855714D02*
X134540000Y-80712857D01*
X134540000Y-80712857D02*
X134111428Y-80712857D01*
X134111428Y-80712857D02*
X133825714Y-80855714D01*
X131254286Y-82570000D02*
X131540000Y-82712857D01*
X131540000Y-82712857D02*
X132111429Y-82712857D01*
X132111429Y-82712857D02*
X132397143Y-82570000D01*
X132397143Y-82570000D02*
X132540000Y-82284285D01*
X132540000Y-82284285D02*
X132540000Y-81141428D01*
X132540000Y-81141428D02*
X132397143Y-80855714D01*
X132397143Y-80855714D02*
X132111429Y-80712857D01*
X132111429Y-80712857D02*
X131540000Y-80712857D01*
X131540000Y-80712857D02*
X131254286Y-80855714D01*
X131254286Y-80855714D02*
X131111429Y-81141428D01*
X131111429Y-81141428D02*
X131111429Y-81427142D01*
X131111429Y-81427142D02*
X132540000Y-81712857D01*
D10*
X118521904Y-88054095D02*
X118521904Y-87254095D01*
X117988571Y-87254095D02*
X117836190Y-87254095D01*
X117836190Y-87254095D02*
X117760000Y-87292190D01*
X117760000Y-87292190D02*
X117683809Y-87368380D01*
X117683809Y-87368380D02*
X117645714Y-87520761D01*
X117645714Y-87520761D02*
X117645714Y-87787428D01*
X117645714Y-87787428D02*
X117683809Y-87939809D01*
X117683809Y-87939809D02*
X117760000Y-88016000D01*
X117760000Y-88016000D02*
X117836190Y-88054095D01*
X117836190Y-88054095D02*
X117988571Y-88054095D01*
X117988571Y-88054095D02*
X118064762Y-88016000D01*
X118064762Y-88016000D02*
X118140952Y-87939809D01*
X118140952Y-87939809D02*
X118179048Y-87787428D01*
X118179048Y-87787428D02*
X118179048Y-87520761D01*
X118179048Y-87520761D02*
X118140952Y-87368380D01*
X118140952Y-87368380D02*
X118064762Y-87292190D01*
X118064762Y-87292190D02*
X117988571Y-87254095D01*
X117493334Y-88130285D02*
X116883810Y-88130285D01*
X116274286Y-88054095D02*
X116731429Y-88054095D01*
X116502857Y-88054095D02*
X116502857Y-87254095D01*
X116502857Y-87254095D02*
X116579048Y-87368380D01*
X116579048Y-87368380D02*
X116655238Y-87444571D01*
X116655238Y-87444571D02*
X116731429Y-87482666D01*
X115512381Y-88054095D02*
X115969524Y-88054095D01*
X115740952Y-88054095D02*
X115740952Y-87254095D01*
X115740952Y-87254095D02*
X115817143Y-87368380D01*
X115817143Y-87368380D02*
X115893333Y-87444571D01*
X115893333Y-87444571D02*
X115969524Y-87482666D01*
X118521904Y-90646095D02*
X118521904Y-89846095D01*
X117988571Y-89846095D02*
X117836190Y-89846095D01*
X117836190Y-89846095D02*
X117760000Y-89884190D01*
X117760000Y-89884190D02*
X117683809Y-89960380D01*
X117683809Y-89960380D02*
X117645714Y-90112761D01*
X117645714Y-90112761D02*
X117645714Y-90379428D01*
X117645714Y-90379428D02*
X117683809Y-90531809D01*
X117683809Y-90531809D02*
X117760000Y-90608000D01*
X117760000Y-90608000D02*
X117836190Y-90646095D01*
X117836190Y-90646095D02*
X117988571Y-90646095D01*
X117988571Y-90646095D02*
X118064762Y-90608000D01*
X118064762Y-90608000D02*
X118140952Y-90531809D01*
X118140952Y-90531809D02*
X118179048Y-90379428D01*
X118179048Y-90379428D02*
X118179048Y-90112761D01*
X118179048Y-90112761D02*
X118140952Y-89960380D01*
X118140952Y-89960380D02*
X118064762Y-89884190D01*
X118064762Y-89884190D02*
X117988571Y-89846095D01*
X117493334Y-90722285D02*
X116883810Y-90722285D01*
X116274286Y-90646095D02*
X116731429Y-90646095D01*
X116502857Y-90646095D02*
X116502857Y-89846095D01*
X116502857Y-89846095D02*
X116579048Y-89960380D01*
X116579048Y-89960380D02*
X116655238Y-90036571D01*
X116655238Y-90036571D02*
X116731429Y-90074666D01*
X115969524Y-89922285D02*
X115931428Y-89884190D01*
X115931428Y-89884190D02*
X115855238Y-89846095D01*
X115855238Y-89846095D02*
X115664762Y-89846095D01*
X115664762Y-89846095D02*
X115588571Y-89884190D01*
X115588571Y-89884190D02*
X115550476Y-89922285D01*
X115550476Y-89922285D02*
X115512381Y-89998476D01*
X115512381Y-89998476D02*
X115512381Y-90074666D01*
X115512381Y-90074666D02*
X115550476Y-90188952D01*
X115550476Y-90188952D02*
X116007619Y-90646095D01*
X116007619Y-90646095D02*
X115512381Y-90646095D01*
X172960951Y-83376095D02*
X172694284Y-84176095D01*
X172694284Y-84176095D02*
X172427618Y-83376095D01*
X171818094Y-84138000D02*
X171894285Y-84176095D01*
X171894285Y-84176095D02*
X172046666Y-84176095D01*
X172046666Y-84176095D02*
X172122856Y-84138000D01*
X172122856Y-84138000D02*
X172160951Y-84099904D01*
X172160951Y-84099904D02*
X172199047Y-84023714D01*
X172199047Y-84023714D02*
X172199047Y-83795142D01*
X172199047Y-83795142D02*
X172160951Y-83718952D01*
X172160951Y-83718952D02*
X172122856Y-83680857D01*
X172122856Y-83680857D02*
X172046666Y-83642761D01*
X172046666Y-83642761D02*
X171894285Y-83642761D01*
X171894285Y-83642761D02*
X171818094Y-83680857D01*
X171132380Y-84138000D02*
X171208571Y-84176095D01*
X171208571Y-84176095D02*
X171360952Y-84176095D01*
X171360952Y-84176095D02*
X171437142Y-84138000D01*
X171437142Y-84138000D02*
X171475237Y-84099904D01*
X171475237Y-84099904D02*
X171513333Y-84023714D01*
X171513333Y-84023714D02*
X171513333Y-83795142D01*
X171513333Y-83795142D02*
X171475237Y-83718952D01*
X171475237Y-83718952D02*
X171437142Y-83680857D01*
X171437142Y-83680857D02*
X171360952Y-83642761D01*
X171360952Y-83642761D02*
X171208571Y-83642761D01*
X171208571Y-83642761D02*
X171132380Y-83680857D01*
X173494286Y-86768095D02*
X173494286Y-85968095D01*
X173494286Y-85968095D02*
X173303810Y-85968095D01*
X173303810Y-85968095D02*
X173189524Y-86006190D01*
X173189524Y-86006190D02*
X173113334Y-86082380D01*
X173113334Y-86082380D02*
X173075239Y-86158571D01*
X173075239Y-86158571D02*
X173037143Y-86310952D01*
X173037143Y-86310952D02*
X173037143Y-86425238D01*
X173037143Y-86425238D02*
X173075239Y-86577619D01*
X173075239Y-86577619D02*
X173113334Y-86653809D01*
X173113334Y-86653809D02*
X173189524Y-86730000D01*
X173189524Y-86730000D02*
X173303810Y-86768095D01*
X173303810Y-86768095D02*
X173494286Y-86768095D01*
X172351429Y-86768095D02*
X172351429Y-86349047D01*
X172351429Y-86349047D02*
X172389524Y-86272857D01*
X172389524Y-86272857D02*
X172465715Y-86234761D01*
X172465715Y-86234761D02*
X172618096Y-86234761D01*
X172618096Y-86234761D02*
X172694286Y-86272857D01*
X172351429Y-86730000D02*
X172427620Y-86768095D01*
X172427620Y-86768095D02*
X172618096Y-86768095D01*
X172618096Y-86768095D02*
X172694286Y-86730000D01*
X172694286Y-86730000D02*
X172732382Y-86653809D01*
X172732382Y-86653809D02*
X172732382Y-86577619D01*
X172732382Y-86577619D02*
X172694286Y-86501428D01*
X172694286Y-86501428D02*
X172618096Y-86463333D01*
X172618096Y-86463333D02*
X172427620Y-86463333D01*
X172427620Y-86463333D02*
X172351429Y-86425238D01*
X172084762Y-86234761D02*
X171780000Y-86234761D01*
X171970476Y-85968095D02*
X171970476Y-86653809D01*
X171970476Y-86653809D02*
X171932381Y-86730000D01*
X171932381Y-86730000D02*
X171856191Y-86768095D01*
X171856191Y-86768095D02*
X171780000Y-86768095D01*
X171170476Y-86768095D02*
X171170476Y-86349047D01*
X171170476Y-86349047D02*
X171208571Y-86272857D01*
X171208571Y-86272857D02*
X171284762Y-86234761D01*
X171284762Y-86234761D02*
X171437143Y-86234761D01*
X171437143Y-86234761D02*
X171513333Y-86272857D01*
X171170476Y-86730000D02*
X171246667Y-86768095D01*
X171246667Y-86768095D02*
X171437143Y-86768095D01*
X171437143Y-86768095D02*
X171513333Y-86730000D01*
X171513333Y-86730000D02*
X171551429Y-86653809D01*
X171551429Y-86653809D02*
X171551429Y-86577619D01*
X171551429Y-86577619D02*
X171513333Y-86501428D01*
X171513333Y-86501428D02*
X171437143Y-86463333D01*
X171437143Y-86463333D02*
X171246667Y-86463333D01*
X171246667Y-86463333D02*
X171170476Y-86425238D01*
X172199047Y-89283904D02*
X172237143Y-89322000D01*
X172237143Y-89322000D02*
X172351428Y-89360095D01*
X172351428Y-89360095D02*
X172427619Y-89360095D01*
X172427619Y-89360095D02*
X172541905Y-89322000D01*
X172541905Y-89322000D02*
X172618095Y-89245809D01*
X172618095Y-89245809D02*
X172656190Y-89169619D01*
X172656190Y-89169619D02*
X172694286Y-89017238D01*
X172694286Y-89017238D02*
X172694286Y-88902952D01*
X172694286Y-88902952D02*
X172656190Y-88750571D01*
X172656190Y-88750571D02*
X172618095Y-88674380D01*
X172618095Y-88674380D02*
X172541905Y-88598190D01*
X172541905Y-88598190D02*
X172427619Y-88560095D01*
X172427619Y-88560095D02*
X172351428Y-88560095D01*
X172351428Y-88560095D02*
X172237143Y-88598190D01*
X172237143Y-88598190D02*
X172199047Y-88636285D01*
X171741905Y-89360095D02*
X171818095Y-89322000D01*
X171818095Y-89322000D02*
X171856190Y-89245809D01*
X171856190Y-89245809D02*
X171856190Y-88560095D01*
X171437142Y-89360095D02*
X171437142Y-88560095D01*
X171360952Y-89055333D02*
X171132380Y-89360095D01*
X171132380Y-88826761D02*
X171437142Y-89131523D01*
X172618096Y-91190190D02*
X172694286Y-91152095D01*
X172694286Y-91152095D02*
X172808572Y-91152095D01*
X172808572Y-91152095D02*
X172922858Y-91190190D01*
X172922858Y-91190190D02*
X172999048Y-91266380D01*
X172999048Y-91266380D02*
X173037143Y-91342571D01*
X173037143Y-91342571D02*
X173075239Y-91494952D01*
X173075239Y-91494952D02*
X173075239Y-91609238D01*
X173075239Y-91609238D02*
X173037143Y-91761619D01*
X173037143Y-91761619D02*
X172999048Y-91837809D01*
X172999048Y-91837809D02*
X172922858Y-91914000D01*
X172922858Y-91914000D02*
X172808572Y-91952095D01*
X172808572Y-91952095D02*
X172732381Y-91952095D01*
X172732381Y-91952095D02*
X172618096Y-91914000D01*
X172618096Y-91914000D02*
X172580000Y-91875904D01*
X172580000Y-91875904D02*
X172580000Y-91609238D01*
X172580000Y-91609238D02*
X172732381Y-91609238D01*
X172237143Y-91418761D02*
X172237143Y-91952095D01*
X172237143Y-91494952D02*
X172199048Y-91456857D01*
X172199048Y-91456857D02*
X172122858Y-91418761D01*
X172122858Y-91418761D02*
X172008572Y-91418761D01*
X172008572Y-91418761D02*
X171932381Y-91456857D01*
X171932381Y-91456857D02*
X171894286Y-91533047D01*
X171894286Y-91533047D02*
X171894286Y-91952095D01*
X171170476Y-91952095D02*
X171170476Y-91152095D01*
X171170476Y-91914000D02*
X171246667Y-91952095D01*
X171246667Y-91952095D02*
X171399048Y-91952095D01*
X171399048Y-91952095D02*
X171475238Y-91914000D01*
X171475238Y-91914000D02*
X171513333Y-91875904D01*
X171513333Y-91875904D02*
X171551429Y-91799714D01*
X171551429Y-91799714D02*
X171551429Y-91571142D01*
X171551429Y-91571142D02*
X171513333Y-91494952D01*
X171513333Y-91494952D02*
X171475238Y-91456857D01*
X171475238Y-91456857D02*
X171399048Y-91418761D01*
X171399048Y-91418761D02*
X171246667Y-91418761D01*
X171246667Y-91418761D02*
X171170476Y-91456857D01*
X166911904Y-86924095D02*
X166911904Y-86124095D01*
X166378571Y-86124095D02*
X166226190Y-86124095D01*
X166226190Y-86124095D02*
X166150000Y-86162190D01*
X166150000Y-86162190D02*
X166073809Y-86238380D01*
X166073809Y-86238380D02*
X166035714Y-86390761D01*
X166035714Y-86390761D02*
X166035714Y-86657428D01*
X166035714Y-86657428D02*
X166073809Y-86809809D01*
X166073809Y-86809809D02*
X166150000Y-86886000D01*
X166150000Y-86886000D02*
X166226190Y-86924095D01*
X166226190Y-86924095D02*
X166378571Y-86924095D01*
X166378571Y-86924095D02*
X166454762Y-86886000D01*
X166454762Y-86886000D02*
X166530952Y-86809809D01*
X166530952Y-86809809D02*
X166569048Y-86657428D01*
X166569048Y-86657428D02*
X166569048Y-86390761D01*
X166569048Y-86390761D02*
X166530952Y-86238380D01*
X166530952Y-86238380D02*
X166454762Y-86162190D01*
X166454762Y-86162190D02*
X166378571Y-86124095D01*
X165883334Y-87000285D02*
X165273810Y-87000285D01*
X165159524Y-86124095D02*
X164664286Y-86124095D01*
X164664286Y-86124095D02*
X164930952Y-86428857D01*
X164930952Y-86428857D02*
X164816667Y-86428857D01*
X164816667Y-86428857D02*
X164740476Y-86466952D01*
X164740476Y-86466952D02*
X164702381Y-86505047D01*
X164702381Y-86505047D02*
X164664286Y-86581238D01*
X164664286Y-86581238D02*
X164664286Y-86771714D01*
X164664286Y-86771714D02*
X164702381Y-86847904D01*
X164702381Y-86847904D02*
X164740476Y-86886000D01*
X164740476Y-86886000D02*
X164816667Y-86924095D01*
X164816667Y-86924095D02*
X165045238Y-86924095D01*
X165045238Y-86924095D02*
X165121429Y-86886000D01*
X165121429Y-86886000D02*
X165159524Y-86847904D01*
X163978571Y-86124095D02*
X164130952Y-86124095D01*
X164130952Y-86124095D02*
X164207143Y-86162190D01*
X164207143Y-86162190D02*
X164245238Y-86200285D01*
X164245238Y-86200285D02*
X164321428Y-86314571D01*
X164321428Y-86314571D02*
X164359524Y-86466952D01*
X164359524Y-86466952D02*
X164359524Y-86771714D01*
X164359524Y-86771714D02*
X164321428Y-86847904D01*
X164321428Y-86847904D02*
X164283333Y-86886000D01*
X164283333Y-86886000D02*
X164207143Y-86924095D01*
X164207143Y-86924095D02*
X164054762Y-86924095D01*
X164054762Y-86924095D02*
X163978571Y-86886000D01*
X163978571Y-86886000D02*
X163940476Y-86847904D01*
X163940476Y-86847904D02*
X163902381Y-86771714D01*
X163902381Y-86771714D02*
X163902381Y-86581238D01*
X163902381Y-86581238D02*
X163940476Y-86505047D01*
X163940476Y-86505047D02*
X163978571Y-86466952D01*
X163978571Y-86466952D02*
X164054762Y-86428857D01*
X164054762Y-86428857D02*
X164207143Y-86428857D01*
X164207143Y-86428857D02*
X164283333Y-86466952D01*
X164283333Y-86466952D02*
X164321428Y-86505047D01*
X164321428Y-86505047D02*
X164359524Y-86581238D01*
X166911904Y-89516095D02*
X166911904Y-88716095D01*
X166378571Y-88716095D02*
X166226190Y-88716095D01*
X166226190Y-88716095D02*
X166150000Y-88754190D01*
X166150000Y-88754190D02*
X166073809Y-88830380D01*
X166073809Y-88830380D02*
X166035714Y-88982761D01*
X166035714Y-88982761D02*
X166035714Y-89249428D01*
X166035714Y-89249428D02*
X166073809Y-89401809D01*
X166073809Y-89401809D02*
X166150000Y-89478000D01*
X166150000Y-89478000D02*
X166226190Y-89516095D01*
X166226190Y-89516095D02*
X166378571Y-89516095D01*
X166378571Y-89516095D02*
X166454762Y-89478000D01*
X166454762Y-89478000D02*
X166530952Y-89401809D01*
X166530952Y-89401809D02*
X166569048Y-89249428D01*
X166569048Y-89249428D02*
X166569048Y-88982761D01*
X166569048Y-88982761D02*
X166530952Y-88830380D01*
X166530952Y-88830380D02*
X166454762Y-88754190D01*
X166454762Y-88754190D02*
X166378571Y-88716095D01*
X165883334Y-89592285D02*
X165273810Y-89592285D01*
X164740476Y-88982761D02*
X164740476Y-89516095D01*
X164930952Y-88678000D02*
X165121429Y-89249428D01*
X165121429Y-89249428D02*
X164626190Y-89249428D01*
X164207143Y-89058952D02*
X164283333Y-89020857D01*
X164283333Y-89020857D02*
X164321428Y-88982761D01*
X164321428Y-88982761D02*
X164359524Y-88906571D01*
X164359524Y-88906571D02*
X164359524Y-88868476D01*
X164359524Y-88868476D02*
X164321428Y-88792285D01*
X164321428Y-88792285D02*
X164283333Y-88754190D01*
X164283333Y-88754190D02*
X164207143Y-88716095D01*
X164207143Y-88716095D02*
X164054762Y-88716095D01*
X164054762Y-88716095D02*
X163978571Y-88754190D01*
X163978571Y-88754190D02*
X163940476Y-88792285D01*
X163940476Y-88792285D02*
X163902381Y-88868476D01*
X163902381Y-88868476D02*
X163902381Y-88906571D01*
X163902381Y-88906571D02*
X163940476Y-88982761D01*
X163940476Y-88982761D02*
X163978571Y-89020857D01*
X163978571Y-89020857D02*
X164054762Y-89058952D01*
X164054762Y-89058952D02*
X164207143Y-89058952D01*
X164207143Y-89058952D02*
X164283333Y-89097047D01*
X164283333Y-89097047D02*
X164321428Y-89135142D01*
X164321428Y-89135142D02*
X164359524Y-89211333D01*
X164359524Y-89211333D02*
X164359524Y-89363714D01*
X164359524Y-89363714D02*
X164321428Y-89439904D01*
X164321428Y-89439904D02*
X164283333Y-89478000D01*
X164283333Y-89478000D02*
X164207143Y-89516095D01*
X164207143Y-89516095D02*
X164054762Y-89516095D01*
X164054762Y-89516095D02*
X163978571Y-89478000D01*
X163978571Y-89478000D02*
X163940476Y-89439904D01*
X163940476Y-89439904D02*
X163902381Y-89363714D01*
X163902381Y-89363714D02*
X163902381Y-89211333D01*
X163902381Y-89211333D02*
X163940476Y-89135142D01*
X163940476Y-89135142D02*
X163978571Y-89097047D01*
X163978571Y-89097047D02*
X164054762Y-89058952D01*
X118651904Y-74374095D02*
X118651904Y-73574095D01*
X118118571Y-73574095D02*
X117966190Y-73574095D01*
X117966190Y-73574095D02*
X117890000Y-73612190D01*
X117890000Y-73612190D02*
X117813809Y-73688380D01*
X117813809Y-73688380D02*
X117775714Y-73840761D01*
X117775714Y-73840761D02*
X117775714Y-74107428D01*
X117775714Y-74107428D02*
X117813809Y-74259809D01*
X117813809Y-74259809D02*
X117890000Y-74336000D01*
X117890000Y-74336000D02*
X117966190Y-74374095D01*
X117966190Y-74374095D02*
X118118571Y-74374095D01*
X118118571Y-74374095D02*
X118194762Y-74336000D01*
X118194762Y-74336000D02*
X118270952Y-74259809D01*
X118270952Y-74259809D02*
X118309048Y-74107428D01*
X118309048Y-74107428D02*
X118309048Y-73840761D01*
X118309048Y-73840761D02*
X118270952Y-73688380D01*
X118270952Y-73688380D02*
X118194762Y-73612190D01*
X118194762Y-73612190D02*
X118118571Y-73574095D01*
X117623334Y-74450285D02*
X117013810Y-74450285D01*
X116670952Y-73574095D02*
X116594762Y-73574095D01*
X116594762Y-73574095D02*
X116518571Y-73612190D01*
X116518571Y-73612190D02*
X116480476Y-73650285D01*
X116480476Y-73650285D02*
X116442381Y-73726476D01*
X116442381Y-73726476D02*
X116404286Y-73878857D01*
X116404286Y-73878857D02*
X116404286Y-74069333D01*
X116404286Y-74069333D02*
X116442381Y-74221714D01*
X116442381Y-74221714D02*
X116480476Y-74297904D01*
X116480476Y-74297904D02*
X116518571Y-74336000D01*
X116518571Y-74336000D02*
X116594762Y-74374095D01*
X116594762Y-74374095D02*
X116670952Y-74374095D01*
X116670952Y-74374095D02*
X116747143Y-74336000D01*
X116747143Y-74336000D02*
X116785238Y-74297904D01*
X116785238Y-74297904D02*
X116823333Y-74221714D01*
X116823333Y-74221714D02*
X116861429Y-74069333D01*
X116861429Y-74069333D02*
X116861429Y-73878857D01*
X116861429Y-73878857D02*
X116823333Y-73726476D01*
X116823333Y-73726476D02*
X116785238Y-73650285D01*
X116785238Y-73650285D02*
X116747143Y-73612190D01*
X116747143Y-73612190D02*
X116670952Y-73574095D01*
X116023333Y-74374095D02*
X115870952Y-74374095D01*
X115870952Y-74374095D02*
X115794762Y-74336000D01*
X115794762Y-74336000D02*
X115756666Y-74297904D01*
X115756666Y-74297904D02*
X115680476Y-74183619D01*
X115680476Y-74183619D02*
X115642381Y-74031238D01*
X115642381Y-74031238D02*
X115642381Y-73726476D01*
X115642381Y-73726476D02*
X115680476Y-73650285D01*
X115680476Y-73650285D02*
X115718571Y-73612190D01*
X115718571Y-73612190D02*
X115794762Y-73574095D01*
X115794762Y-73574095D02*
X115947143Y-73574095D01*
X115947143Y-73574095D02*
X116023333Y-73612190D01*
X116023333Y-73612190D02*
X116061428Y-73650285D01*
X116061428Y-73650285D02*
X116099524Y-73726476D01*
X116099524Y-73726476D02*
X116099524Y-73916952D01*
X116099524Y-73916952D02*
X116061428Y-73993142D01*
X116061428Y-73993142D02*
X116023333Y-74031238D01*
X116023333Y-74031238D02*
X115947143Y-74069333D01*
X115947143Y-74069333D02*
X115794762Y-74069333D01*
X115794762Y-74069333D02*
X115718571Y-74031238D01*
X115718571Y-74031238D02*
X115680476Y-73993142D01*
X115680476Y-73993142D02*
X115642381Y-73916952D01*
X118651904Y-76966095D02*
X118651904Y-76166095D01*
X118118571Y-76166095D02*
X117966190Y-76166095D01*
X117966190Y-76166095D02*
X117890000Y-76204190D01*
X117890000Y-76204190D02*
X117813809Y-76280380D01*
X117813809Y-76280380D02*
X117775714Y-76432761D01*
X117775714Y-76432761D02*
X117775714Y-76699428D01*
X117775714Y-76699428D02*
X117813809Y-76851809D01*
X117813809Y-76851809D02*
X117890000Y-76928000D01*
X117890000Y-76928000D02*
X117966190Y-76966095D01*
X117966190Y-76966095D02*
X118118571Y-76966095D01*
X118118571Y-76966095D02*
X118194762Y-76928000D01*
X118194762Y-76928000D02*
X118270952Y-76851809D01*
X118270952Y-76851809D02*
X118309048Y-76699428D01*
X118309048Y-76699428D02*
X118309048Y-76432761D01*
X118309048Y-76432761D02*
X118270952Y-76280380D01*
X118270952Y-76280380D02*
X118194762Y-76204190D01*
X118194762Y-76204190D02*
X118118571Y-76166095D01*
X117623334Y-77042285D02*
X117013810Y-77042285D01*
X116404286Y-76966095D02*
X116861429Y-76966095D01*
X116632857Y-76966095D02*
X116632857Y-76166095D01*
X116632857Y-76166095D02*
X116709048Y-76280380D01*
X116709048Y-76280380D02*
X116785238Y-76356571D01*
X116785238Y-76356571D02*
X116861429Y-76394666D01*
X115909047Y-76166095D02*
X115832857Y-76166095D01*
X115832857Y-76166095D02*
X115756666Y-76204190D01*
X115756666Y-76204190D02*
X115718571Y-76242285D01*
X115718571Y-76242285D02*
X115680476Y-76318476D01*
X115680476Y-76318476D02*
X115642381Y-76470857D01*
X115642381Y-76470857D02*
X115642381Y-76661333D01*
X115642381Y-76661333D02*
X115680476Y-76813714D01*
X115680476Y-76813714D02*
X115718571Y-76889904D01*
X115718571Y-76889904D02*
X115756666Y-76928000D01*
X115756666Y-76928000D02*
X115832857Y-76966095D01*
X115832857Y-76966095D02*
X115909047Y-76966095D01*
X115909047Y-76966095D02*
X115985238Y-76928000D01*
X115985238Y-76928000D02*
X116023333Y-76889904D01*
X116023333Y-76889904D02*
X116061428Y-76813714D01*
X116061428Y-76813714D02*
X116099524Y-76661333D01*
X116099524Y-76661333D02*
X116099524Y-76470857D01*
X116099524Y-76470857D02*
X116061428Y-76318476D01*
X116061428Y-76318476D02*
X116023333Y-76242285D01*
X116023333Y-76242285D02*
X115985238Y-76204190D01*
X115985238Y-76204190D02*
X115909047Y-76166095D01*
%TO.C,R1*%
X163868571Y-75125952D02*
X163868571Y-75792619D01*
X164106666Y-74745000D02*
X164344761Y-75459285D01*
X164344761Y-75459285D02*
X163725714Y-75459285D01*
X163344761Y-75697380D02*
X163297142Y-75745000D01*
X163297142Y-75745000D02*
X163344761Y-75792619D01*
X163344761Y-75792619D02*
X163392380Y-75745000D01*
X163392380Y-75745000D02*
X163344761Y-75697380D01*
X163344761Y-75697380D02*
X163344761Y-75792619D01*
X162963809Y-74792619D02*
X162297143Y-74792619D01*
X162297143Y-74792619D02*
X162725714Y-75792619D01*
X161916190Y-75792619D02*
X161916190Y-74792619D01*
X161820952Y-75411666D02*
X161535238Y-75792619D01*
X161535238Y-75125952D02*
X161916190Y-75506904D01*
D12*
X166212742Y-74747500D02*
X166687258Y-74747500D01*
X166212742Y-75792500D02*
X166687258Y-75792500D01*
%TO.C,G\u002A\u002A\u002A*%
D13*
X124310505Y-69843339D02*
X124388662Y-69845115D01*
X124445655Y-69851579D01*
X124493330Y-69864908D01*
X124543537Y-69887279D01*
X124578243Y-69906000D01*
X124620755Y-69937431D01*
X124657244Y-69980096D01*
X124697456Y-70043912D01*
X124734080Y-70109172D01*
X124841680Y-70338819D01*
X124920424Y-70573980D01*
X124968145Y-70808534D01*
X124976821Y-70877197D01*
X124996986Y-71135562D01*
X124994646Y-71372207D01*
X124969861Y-71585883D01*
X124922688Y-71775343D01*
X124901025Y-71837640D01*
X124847604Y-71962109D01*
X124787019Y-72060126D01*
X124714816Y-72136886D01*
X124626538Y-72197583D01*
X124517729Y-72247411D01*
X124472972Y-72265569D01*
X124387880Y-72309053D01*
X124335696Y-72351729D01*
X124314144Y-72378548D01*
X124296258Y-72412587D01*
X124300982Y-72444023D01*
X124327498Y-72486288D01*
X124340464Y-72502594D01*
X124370030Y-72531485D01*
X124413290Y-72565372D01*
X124474241Y-72607082D01*
X124556879Y-72659445D01*
X124665200Y-72725288D01*
X124673213Y-72730100D01*
X124749187Y-72775929D01*
X124827644Y-72823540D01*
X124892804Y-72863360D01*
X124949370Y-72893555D01*
X125010085Y-72916437D01*
X125062556Y-72927402D01*
X125102025Y-72926630D01*
X125123738Y-72914301D01*
X125122939Y-72890596D01*
X125094870Y-72855695D01*
X125090667Y-72851697D01*
X125035461Y-72779406D01*
X125007197Y-72699498D01*
X125007207Y-72619100D01*
X125036825Y-72545342D01*
X125067877Y-72506474D01*
X125129793Y-72464023D01*
X125199569Y-72453611D01*
X125274146Y-72476129D01*
X125320691Y-72505321D01*
X125363592Y-72553621D01*
X125386534Y-72618632D01*
X125393334Y-72707770D01*
X125393367Y-72725720D01*
X125394904Y-72780756D01*
X125400788Y-72812596D01*
X125413812Y-72829806D01*
X125436770Y-72840953D01*
X125456419Y-72848137D01*
X125485925Y-72854159D01*
X125503167Y-72843125D01*
X125513164Y-72809469D01*
X125520934Y-72747628D01*
X125522819Y-72732392D01*
X125547939Y-72636432D01*
X125591195Y-72559578D01*
X125648490Y-72504765D01*
X125715729Y-72474931D01*
X125788816Y-72473010D01*
X125863656Y-72501938D01*
X125916223Y-72547208D01*
X125946699Y-72611678D01*
X125946600Y-72689369D01*
X125915709Y-72779134D01*
X125880716Y-72834242D01*
X125814109Y-72890737D01*
X125796823Y-72901326D01*
X125762555Y-72929195D01*
X125748934Y-72951684D01*
X125753084Y-72970042D01*
X125773425Y-72972486D01*
X125811196Y-72947074D01*
X125866926Y-72893545D01*
X125889754Y-72871178D01*
X125966303Y-72817638D01*
X126043164Y-72797465D01*
X126121467Y-72810289D01*
X126126257Y-72812091D01*
X126191526Y-72849932D01*
X126228401Y-72904435D01*
X126240000Y-72980065D01*
X126238549Y-73023996D01*
X126226553Y-73081859D01*
X126197554Y-73124429D01*
X126145754Y-73162955D01*
X126120264Y-73177251D01*
X126068890Y-73193136D01*
X126005840Y-73192231D01*
X125992421Y-73190946D01*
X125912501Y-73190929D01*
X125859892Y-73207544D01*
X125832319Y-73241439D01*
X125829294Y-73276035D01*
X125854492Y-73308691D01*
X125911455Y-73332655D01*
X126000758Y-73348295D01*
X126088484Y-73363654D01*
X126160504Y-73393498D01*
X126214073Y-73441528D01*
X126256616Y-73512508D01*
X126262231Y-73524625D01*
X126281012Y-73573540D01*
X126284673Y-73611989D01*
X126275232Y-73655456D01*
X126256161Y-73697693D01*
X126214926Y-73750745D01*
X126164885Y-73790743D01*
X126115935Y-73808195D01*
X126100951Y-73808945D01*
X126034517Y-73807419D01*
X125973426Y-73799538D01*
X125931870Y-73786941D01*
X125930017Y-73785848D01*
X125904240Y-73762839D01*
X125866755Y-73721544D01*
X125824999Y-73670093D01*
X125817200Y-73659994D01*
X125778083Y-73611938D01*
X125750318Y-73585821D01*
X125727026Y-73576585D01*
X125701330Y-73579174D01*
X125663666Y-73591028D01*
X125629187Y-73617128D01*
X125613318Y-73660754D01*
X125611601Y-73729368D01*
X125609461Y-73799361D01*
X125592282Y-73889669D01*
X125561841Y-73968433D01*
X125521445Y-74024823D01*
X125517159Y-74028591D01*
X125470285Y-74055541D01*
X125415559Y-74071332D01*
X125334801Y-74069497D01*
X125262184Y-74041508D01*
X125206232Y-73991937D01*
X125169852Y-73926168D01*
X125155951Y-73849585D01*
X125167437Y-73767573D01*
X125207218Y-73685515D01*
X125258168Y-73611000D01*
X125113934Y-73483362D01*
X124942285Y-73487915D01*
X124904492Y-73488877D01*
X124838525Y-73489563D01*
X124794132Y-73486733D01*
X124762771Y-73478656D01*
X124735899Y-73463602D01*
X124704973Y-73439841D01*
X124660966Y-73406855D01*
X124610059Y-73379072D01*
X124572214Y-73375520D01*
X124542610Y-73394861D01*
X124535254Y-73404252D01*
X124527626Y-73421922D01*
X124524648Y-73448718D01*
X124526351Y-73490740D01*
X124532768Y-73554090D01*
X124543931Y-73644867D01*
X124557315Y-73771597D01*
X124567430Y-73931274D01*
X124570718Y-74088922D01*
X124567214Y-74236748D01*
X124556956Y-74366958D01*
X124539982Y-74471761D01*
X124532663Y-74500413D01*
X124504894Y-74586024D01*
X124467803Y-74680761D01*
X124426843Y-74770237D01*
X124419663Y-74784371D01*
X124366381Y-74877096D01*
X124304162Y-74963470D01*
X124229358Y-75046894D01*
X124138326Y-75130771D01*
X124027419Y-75218500D01*
X123892992Y-75313485D01*
X123731399Y-75419126D01*
X123688156Y-75446725D01*
X123561153Y-75529613D01*
X123462265Y-75597514D01*
X123390258Y-75651395D01*
X123343893Y-75692223D01*
X123321936Y-75720966D01*
X123323151Y-75738591D01*
X123343662Y-75748435D01*
X123390039Y-75764153D01*
X123454171Y-75783201D01*
X123528246Y-75803366D01*
X123604456Y-75822439D01*
X123674990Y-75838206D01*
X123700794Y-75845234D01*
X123759421Y-75865916D01*
X123831842Y-75895052D01*
X123907961Y-75928720D01*
X123966694Y-75957102D01*
X124122322Y-76044098D01*
X124261466Y-76139393D01*
X124381399Y-76240228D01*
X124479393Y-76343843D01*
X124552724Y-76447479D01*
X124598663Y-76548376D01*
X124614484Y-76643774D01*
X124613938Y-76666686D01*
X124606358Y-76719156D01*
X124586532Y-76765479D01*
X124550242Y-76811516D01*
X124493273Y-76863131D01*
X124411409Y-76926188D01*
X124346103Y-76974106D01*
X124286295Y-77017335D01*
X124240495Y-77049738D01*
X124215277Y-77066610D01*
X124201981Y-77076268D01*
X124209838Y-77080460D01*
X124247489Y-77077413D01*
X124281330Y-77075699D01*
X124359552Y-77090748D01*
X124422218Y-77130116D01*
X124463840Y-77189379D01*
X124478934Y-77264111D01*
X124476314Y-77300436D01*
X124459667Y-77343560D01*
X124421360Y-77388827D01*
X124410579Y-77399409D01*
X124372605Y-77429806D01*
X124333355Y-77443325D01*
X124276652Y-77446400D01*
X124203804Y-77439146D01*
X124109878Y-77404006D01*
X124082112Y-77390219D01*
X124041656Y-77376005D01*
X124024082Y-77380088D01*
X124022281Y-77389115D01*
X124031172Y-77408255D01*
X124063126Y-77425896D01*
X124123334Y-77445458D01*
X124212807Y-77480681D01*
X124274630Y-77529115D01*
X124310411Y-77592790D01*
X124322145Y-77661450D01*
X124308005Y-77732674D01*
X124267221Y-77789412D01*
X124203428Y-77826928D01*
X124120261Y-77840485D01*
X124118335Y-77840478D01*
X124041975Y-77825645D01*
X123981859Y-77781746D01*
X123936599Y-77707776D01*
X123919316Y-77671197D01*
X123895546Y-77639321D01*
X123873943Y-77638573D01*
X123851793Y-77667669D01*
X123850191Y-77670753D01*
X123842749Y-77705302D01*
X123860054Y-77743869D01*
X123883169Y-77772309D01*
X123903156Y-77785067D01*
X123907359Y-77785705D01*
X123929468Y-77806398D01*
X123949969Y-77849037D01*
X123965059Y-77903766D01*
X123970934Y-77960727D01*
X123970816Y-77970420D01*
X123960351Y-78034190D01*
X123928965Y-78086345D01*
X123885278Y-78123606D01*
X123817959Y-78148056D01*
X123746533Y-78146807D01*
X123680294Y-78120385D01*
X123628536Y-78069318D01*
X123610235Y-78037624D01*
X123592231Y-77984625D01*
X123588889Y-77923517D01*
X123600149Y-77846799D01*
X123625949Y-77746967D01*
X123626223Y-77746004D01*
X123623778Y-77723609D01*
X123594843Y-77717334D01*
X123582128Y-77718109D01*
X123532716Y-77734864D01*
X123494929Y-77767044D01*
X123479867Y-77806081D01*
X123469618Y-77857591D01*
X123440027Y-77921501D01*
X123398842Y-77980602D01*
X123353900Y-78021495D01*
X123295331Y-78046772D01*
X123216080Y-78057422D01*
X123139268Y-78046389D01*
X123076949Y-78013999D01*
X123042606Y-77974762D01*
X123011339Y-77903807D01*
X123004922Y-77827400D01*
X123013084Y-77791438D01*
X123047909Y-77723564D01*
X123100389Y-77664010D01*
X123161099Y-77624990D01*
X123203292Y-77604881D01*
X123257791Y-77566036D01*
X123293240Y-77523774D01*
X123307083Y-77483208D01*
X123296766Y-77449451D01*
X123259734Y-77427616D01*
X123222842Y-77421591D01*
X123164103Y-77416711D01*
X123097138Y-77414222D01*
X123090593Y-77414105D01*
X122991762Y-77403814D01*
X122920190Y-77376715D01*
X122872915Y-77331039D01*
X122846971Y-77265019D01*
X122845893Y-77259784D01*
X122839870Y-77162597D01*
X122864374Y-77078195D01*
X122920480Y-77002737D01*
X122924888Y-76998356D01*
X122968459Y-76960582D01*
X123007187Y-76942830D01*
X123055086Y-76938400D01*
X123131796Y-76946992D01*
X123215380Y-76981043D01*
X123278194Y-77038444D01*
X123285067Y-77047367D01*
X123314315Y-77078303D01*
X123335726Y-77090801D01*
X123348296Y-77081372D01*
X123376056Y-77049665D01*
X123413084Y-77002228D01*
X123454446Y-76945966D01*
X123495207Y-76887781D01*
X123530432Y-76834577D01*
X123555186Y-76793258D01*
X123564534Y-76770726D01*
X123564485Y-76769293D01*
X123561043Y-76761783D01*
X123548642Y-76755275D01*
X123522349Y-76748764D01*
X123477230Y-76741250D01*
X123408350Y-76731731D01*
X123310776Y-76719206D01*
X123268801Y-76712715D01*
X123171808Y-76692566D01*
X123057886Y-76664066D01*
X122936521Y-76629812D01*
X122817197Y-76592405D01*
X122709400Y-76554442D01*
X122641667Y-76528838D01*
X122564990Y-76612182D01*
X122542355Y-76639078D01*
X122516010Y-76676214D01*
X122486474Y-76724316D01*
X122452279Y-76786257D01*
X122411955Y-76864909D01*
X122364033Y-76963144D01*
X122307046Y-77083833D01*
X122239523Y-77229851D01*
X122159997Y-77404067D01*
X122156373Y-77412004D01*
X122129220Y-77470378D01*
X122092425Y-77548280D01*
X122050359Y-77636492D01*
X122007394Y-77725800D01*
X122002734Y-77735452D01*
X121957682Y-77829844D01*
X121912522Y-77926146D01*
X121872268Y-78013588D01*
X121841929Y-78081400D01*
X121777814Y-78206456D01*
X121691161Y-78335055D01*
X121579956Y-78468654D01*
X121440961Y-78611537D01*
X121268041Y-78763380D01*
X121058314Y-78909407D01*
X120833861Y-79026549D01*
X120591047Y-79116967D01*
X120552965Y-79128406D01*
X120501403Y-79142158D01*
X120452332Y-79151789D01*
X120398481Y-79158055D01*
X120332578Y-79161709D01*
X120247353Y-79163506D01*
X120135534Y-79164198D01*
X120117789Y-79164245D01*
X120006881Y-79163935D01*
X119921470Y-79162040D01*
X119854213Y-79157936D01*
X119797766Y-79150996D01*
X119744787Y-79140597D01*
X119687932Y-79126114D01*
X119566908Y-79088026D01*
X119371313Y-79004773D01*
X119194300Y-78901693D01*
X119188570Y-78897765D01*
X119112780Y-78840491D01*
X119029134Y-78769353D01*
X118944673Y-78691115D01*
X118866440Y-78612544D01*
X118801480Y-78540405D01*
X118756833Y-78481463D01*
X118741210Y-78455522D01*
X118698578Y-78371703D01*
X118657371Y-78275029D01*
X118623183Y-78179304D01*
X118601605Y-78098334D01*
X118601161Y-78095976D01*
X118594562Y-78035693D01*
X118591365Y-77952073D01*
X118591271Y-77853283D01*
X118593975Y-77747493D01*
X118599178Y-77642871D01*
X118606576Y-77547585D01*
X118615868Y-77469805D01*
X118626753Y-77417697D01*
X118633758Y-77397640D01*
X118674233Y-77324518D01*
X118726881Y-77277563D01*
X118787001Y-77258535D01*
X118849889Y-77269196D01*
X118910845Y-77311307D01*
X118923302Y-77324057D01*
X118948014Y-77356481D01*
X118955981Y-77390758D01*
X118952128Y-77442540D01*
X118949477Y-77464184D01*
X118936500Y-77580733D01*
X118929585Y-77673015D01*
X118928962Y-77748862D01*
X118934860Y-77816107D01*
X118947506Y-77882584D01*
X118967131Y-77956125D01*
X118998564Y-78052354D01*
X119056976Y-78182522D01*
X119131162Y-78294909D01*
X119226643Y-78398934D01*
X119327454Y-78479661D01*
X119467699Y-78559584D01*
X119626942Y-78623082D01*
X119798483Y-78668019D01*
X119975618Y-78692259D01*
X120151645Y-78693667D01*
X120293550Y-78680171D01*
X120416503Y-78656617D01*
X120525219Y-78620835D01*
X120629247Y-78570359D01*
X120750497Y-78489644D01*
X120877633Y-78373139D01*
X120996143Y-78228211D01*
X121106486Y-78054037D01*
X121209117Y-77849797D01*
X121304493Y-77614670D01*
X121393070Y-77347834D01*
X121475305Y-77048467D01*
X121497954Y-76959022D01*
X121550348Y-76760164D01*
X121600483Y-76582957D01*
X121650872Y-76419086D01*
X121704026Y-76260235D01*
X121762460Y-76098088D01*
X121870241Y-75808110D01*
X121820982Y-75717088D01*
X121742304Y-75541922D01*
X121684953Y-75336018D01*
X121657732Y-75116195D01*
X121656454Y-75093055D01*
X121650229Y-75006809D01*
X121642717Y-74948226D01*
X121633065Y-74912218D01*
X121620420Y-74893701D01*
X121584791Y-74878249D01*
X121519123Y-74873910D01*
X121434857Y-74885222D01*
X121338074Y-74911795D01*
X121221685Y-74951056D01*
X121268100Y-74983762D01*
X121282038Y-74993645D01*
X121347119Y-75042873D01*
X121389746Y-75083097D01*
X121415899Y-75120869D01*
X121431563Y-75162739D01*
X121440150Y-75213521D01*
X121430590Y-75288221D01*
X121393604Y-75346365D01*
X121332215Y-75384057D01*
X121249444Y-75397404D01*
X121213128Y-75392612D01*
X121154984Y-75367893D01*
X121107956Y-75328993D01*
X121083405Y-75283692D01*
X121074806Y-75243243D01*
X121060855Y-75186517D01*
X121048213Y-75153732D01*
X121034024Y-75138642D01*
X121015433Y-75135001D01*
X121007819Y-75135484D01*
X120993724Y-75142897D01*
X120984364Y-75164434D01*
X120977706Y-75206667D01*
X120971712Y-75276167D01*
X120963175Y-75356016D01*
X120945969Y-75428073D01*
X120918616Y-75475099D01*
X120878133Y-75501794D01*
X120821541Y-75512855D01*
X120813445Y-75513366D01*
X120727972Y-75506148D01*
X120664409Y-75474915D01*
X120624518Y-75420494D01*
X120612657Y-75388646D01*
X120603077Y-75330026D01*
X120615677Y-75272986D01*
X120652000Y-75205461D01*
X120653003Y-75203879D01*
X120684208Y-75153494D01*
X120699039Y-75125047D01*
X120699848Y-75112447D01*
X120688985Y-75109601D01*
X120682148Y-75113701D01*
X120661284Y-75139643D01*
X120635670Y-75181567D01*
X120621729Y-75206364D01*
X120580992Y-75268792D01*
X120540843Y-75310845D01*
X120493350Y-75341433D01*
X120474572Y-75349546D01*
X120407747Y-75357809D01*
X120341597Y-75340431D01*
X120284281Y-75302292D01*
X120243955Y-75248269D01*
X120228779Y-75183240D01*
X120228876Y-75178170D01*
X120238740Y-75120617D01*
X120259824Y-75071155D01*
X120270870Y-75055851D01*
X120324229Y-75001601D01*
X120388146Y-74956902D01*
X120449056Y-74931744D01*
X120452013Y-74931073D01*
X120484103Y-74916435D01*
X120488101Y-74891484D01*
X120487891Y-74890708D01*
X120475113Y-74872706D01*
X120444405Y-74863017D01*
X120387875Y-74859090D01*
X120326836Y-74855482D01*
X120225387Y-74836227D01*
X120151738Y-74800161D01*
X120104300Y-74746324D01*
X120081486Y-74673754D01*
X120081224Y-74618469D01*
X120105558Y-74544925D01*
X120154999Y-74485907D01*
X120224616Y-74446635D01*
X120309479Y-74432330D01*
X120323950Y-74432561D01*
X120367867Y-74439236D01*
X120407276Y-74459685D01*
X120455306Y-74500000D01*
X120488803Y-74529324D01*
X120525031Y-74557032D01*
X120545777Y-74567734D01*
X120546261Y-74567721D01*
X120570978Y-74557470D01*
X120605846Y-74533848D01*
X120629791Y-74513226D01*
X120640205Y-74493090D01*
X120638103Y-74462791D01*
X120625264Y-74411081D01*
X120621069Y-74394582D01*
X120604046Y-74289955D01*
X120605726Y-74198780D01*
X120626086Y-74128462D01*
X120630625Y-74120410D01*
X120675763Y-74075477D01*
X120737868Y-74050697D01*
X120808268Y-74045665D01*
X120878292Y-74059980D01*
X120939270Y-74093238D01*
X120982529Y-74145035D01*
X120983083Y-74146125D01*
X120998687Y-74200652D01*
X121004264Y-74271475D01*
X120999676Y-74342916D01*
X120984782Y-74399298D01*
X120984354Y-74400271D01*
X120985885Y-74418987D01*
X121010270Y-74438488D01*
X121062430Y-74462798D01*
X121100670Y-74477446D01*
X121151925Y-74493370D01*
X121185728Y-74499248D01*
X121192544Y-74498076D01*
X121228254Y-74482773D01*
X121279566Y-74453538D01*
X121337800Y-74415167D01*
X121380895Y-74385022D01*
X121476089Y-74320198D01*
X121551668Y-74272426D01*
X121612810Y-74239062D01*
X121664694Y-74217465D01*
X121712499Y-74204990D01*
X121761403Y-74198995D01*
X121832358Y-74197758D01*
X121925331Y-74211524D01*
X122009137Y-74245976D01*
X122086922Y-74303622D01*
X122161831Y-74386969D01*
X122237011Y-74498525D01*
X122315607Y-74640799D01*
X122323946Y-74657106D01*
X122363466Y-74736158D01*
X122397350Y-74806715D01*
X122422225Y-74861616D01*
X122434718Y-74893700D01*
X122448407Y-74925888D01*
X122464303Y-74940267D01*
X122465645Y-74940221D01*
X122496978Y-74925537D01*
X122537439Y-74890292D01*
X122579623Y-74842774D01*
X122616126Y-74791274D01*
X122639542Y-74744082D01*
X122648763Y-74714964D01*
X122655680Y-74679690D01*
X122655530Y-74641291D01*
X122648023Y-74589834D01*
X122632870Y-74515386D01*
X122625444Y-74481484D01*
X122610204Y-74416856D01*
X122597290Y-74368316D01*
X122588900Y-74344417D01*
X122585540Y-74336296D01*
X122575028Y-74299161D01*
X122561324Y-74241460D01*
X122546519Y-74171716D01*
X122529205Y-74062556D01*
X122522637Y-73885098D01*
X122544914Y-73721188D01*
X122595699Y-73572739D01*
X122674657Y-73441666D01*
X122702892Y-73401145D01*
X122720619Y-73367451D01*
X122720739Y-73352313D01*
X122697715Y-73351200D01*
X122645671Y-73356973D01*
X122573365Y-73369140D01*
X122487546Y-73386260D01*
X122394966Y-73406891D01*
X122302374Y-73429592D01*
X122216522Y-73452921D01*
X122144158Y-73475436D01*
X121968383Y-73535430D01*
X121897269Y-73493754D01*
X121871565Y-73476223D01*
X121823505Y-73427792D01*
X121776901Y-73357692D01*
X121729362Y-73262018D01*
X121678495Y-73136867D01*
X121668184Y-73109598D01*
X121644562Y-73049832D01*
X121625165Y-73011307D01*
X121604155Y-72986320D01*
X121575693Y-72967168D01*
X121533942Y-72946149D01*
X121459150Y-72909720D01*
X121402119Y-72959794D01*
X121377903Y-72979036D01*
X121331128Y-73002701D01*
X121273417Y-73012376D01*
X121193867Y-73010727D01*
X121180433Y-73009022D01*
X121132246Y-72984081D01*
X121102460Y-72932059D01*
X121092267Y-72854783D01*
X121095059Y-72803513D01*
X121108131Y-72763599D01*
X121136663Y-72730039D01*
X121170797Y-72705725D01*
X121223452Y-72682977D01*
X121274574Y-72672811D01*
X121311302Y-72678988D01*
X121321327Y-72684176D01*
X121328545Y-72678452D01*
X121319055Y-72647185D01*
X121311503Y-72634027D01*
X121289422Y-72620306D01*
X121260537Y-72617102D01*
X121203000Y-72601170D01*
X121146814Y-72577288D01*
X121108101Y-72551568D01*
X121093699Y-72533147D01*
X121079484Y-72491054D01*
X121075334Y-72426058D01*
X121078911Y-72372571D01*
X121097839Y-72322971D01*
X121138422Y-72291643D01*
X121206635Y-72271560D01*
X121230328Y-72265885D01*
X121250927Y-72252987D01*
X121260529Y-72225791D01*
X121265017Y-72174518D01*
X121266652Y-72151154D01*
X121274602Y-72106118D01*
X121293193Y-72076299D01*
X121329334Y-72048117D01*
X121355440Y-72031966D01*
X121401715Y-72016111D01*
X121456334Y-72018769D01*
X121460010Y-72019356D01*
X121530316Y-72036262D01*
X121573152Y-72063390D01*
X121594482Y-72107169D01*
X121600267Y-72174032D01*
X121600967Y-72223420D01*
X121605362Y-72252757D01*
X121616735Y-72262039D01*
X121638367Y-72258540D01*
X121664197Y-72252277D01*
X121689167Y-72248098D01*
X121691074Y-72247373D01*
X121698754Y-72226843D01*
X121701867Y-72186926D01*
X121704949Y-72146485D01*
X121730894Y-72066527D01*
X121778842Y-72002007D01*
X121843471Y-71958888D01*
X121919461Y-71943130D01*
X121936445Y-71944028D01*
X121983951Y-71960011D01*
X122033761Y-72000641D01*
X122050390Y-72017812D01*
X122077041Y-72053412D01*
X122088737Y-72092364D01*
X122091334Y-72149848D01*
X122091121Y-72163329D01*
X122077590Y-72241326D01*
X122041244Y-72296598D01*
X121979641Y-72333152D01*
X121954103Y-72349636D01*
X121939719Y-72386911D01*
X121954869Y-72433099D01*
X121957780Y-72437258D01*
X121974241Y-72447981D01*
X122004370Y-72447878D01*
X122057502Y-72437332D01*
X122106125Y-72427348D01*
X122200350Y-72418448D01*
X122270270Y-72430053D01*
X122318209Y-72462808D01*
X122346491Y-72517356D01*
X122349031Y-72526533D01*
X122355116Y-72583460D01*
X122340657Y-72645052D01*
X122313911Y-72701661D01*
X122269440Y-72747057D01*
X122205741Y-72771714D01*
X122116941Y-72779150D01*
X122006729Y-72779151D01*
X122043517Y-72818309D01*
X122054030Y-72828574D01*
X122086470Y-72849074D01*
X122126862Y-72856960D01*
X122179546Y-72851484D01*
X122248865Y-72831898D01*
X122339157Y-72797453D01*
X122454764Y-72747400D01*
X122507713Y-72723769D01*
X122585338Y-72689473D01*
X122648346Y-72662071D01*
X122691319Y-72643909D01*
X122708840Y-72637334D01*
X122710973Y-72637076D01*
X122738357Y-72624108D01*
X122785367Y-72594511D01*
X122846248Y-72552373D01*
X122915243Y-72501786D01*
X122986599Y-72446840D01*
X123054559Y-72391626D01*
X123098059Y-72354640D01*
X123189190Y-72272863D01*
X123255791Y-72206021D01*
X123296645Y-72155395D01*
X123310534Y-72122266D01*
X123308000Y-72114945D01*
X123286952Y-72085303D01*
X123249198Y-72042276D01*
X123200329Y-71992449D01*
X123180938Y-71973306D01*
X123108751Y-71892490D01*
X123060344Y-71816062D01*
X123030731Y-71734496D01*
X123014924Y-71638267D01*
X123011324Y-71549277D01*
X123028286Y-71383550D01*
X123074017Y-71205135D01*
X123147727Y-71015934D01*
X123248626Y-70817849D01*
X123375922Y-70612779D01*
X123528826Y-70402628D01*
X123606058Y-70308028D01*
X123702576Y-70199848D01*
X123800270Y-70099851D01*
X123894050Y-70012970D01*
X123978825Y-69944133D01*
X124049504Y-69898274D01*
X124079460Y-69882809D01*
X124127628Y-69861596D01*
X124173045Y-69849698D01*
X124227909Y-69844487D01*
X124304413Y-69843334D01*
X124310505Y-69843339D01*
G36*
X124310505Y-69843339D02*
G01*
X124388662Y-69845115D01*
X124445655Y-69851579D01*
X124493330Y-69864908D01*
X124543537Y-69887279D01*
X124578243Y-69906000D01*
X124620755Y-69937431D01*
X124657244Y-69980096D01*
X124697456Y-70043912D01*
X124734080Y-70109172D01*
X124841680Y-70338819D01*
X124920424Y-70573980D01*
X124968145Y-70808534D01*
X124976821Y-70877197D01*
X124996986Y-71135562D01*
X124994646Y-71372207D01*
X124969861Y-71585883D01*
X124922688Y-71775343D01*
X124901025Y-71837640D01*
X124847604Y-71962109D01*
X124787019Y-72060126D01*
X124714816Y-72136886D01*
X124626538Y-72197583D01*
X124517729Y-72247411D01*
X124472972Y-72265569D01*
X124387880Y-72309053D01*
X124335696Y-72351729D01*
X124314144Y-72378548D01*
X124296258Y-72412587D01*
X124300982Y-72444023D01*
X124327498Y-72486288D01*
X124340464Y-72502594D01*
X124370030Y-72531485D01*
X124413290Y-72565372D01*
X124474241Y-72607082D01*
X124556879Y-72659445D01*
X124665200Y-72725288D01*
X124673213Y-72730100D01*
X124749187Y-72775929D01*
X124827644Y-72823540D01*
X124892804Y-72863360D01*
X124949370Y-72893555D01*
X125010085Y-72916437D01*
X125062556Y-72927402D01*
X125102025Y-72926630D01*
X125123738Y-72914301D01*
X125122939Y-72890596D01*
X125094870Y-72855695D01*
X125090667Y-72851697D01*
X125035461Y-72779406D01*
X125007197Y-72699498D01*
X125007207Y-72619100D01*
X125036825Y-72545342D01*
X125067877Y-72506474D01*
X125129793Y-72464023D01*
X125199569Y-72453611D01*
X125274146Y-72476129D01*
X125320691Y-72505321D01*
X125363592Y-72553621D01*
X125386534Y-72618632D01*
X125393334Y-72707770D01*
X125393367Y-72725720D01*
X125394904Y-72780756D01*
X125400788Y-72812596D01*
X125413812Y-72829806D01*
X125436770Y-72840953D01*
X125456419Y-72848137D01*
X125485925Y-72854159D01*
X125503167Y-72843125D01*
X125513164Y-72809469D01*
X125520934Y-72747628D01*
X125522819Y-72732392D01*
X125547939Y-72636432D01*
X125591195Y-72559578D01*
X125648490Y-72504765D01*
X125715729Y-72474931D01*
X125788816Y-72473010D01*
X125863656Y-72501938D01*
X125916223Y-72547208D01*
X125946699Y-72611678D01*
X125946600Y-72689369D01*
X125915709Y-72779134D01*
X125880716Y-72834242D01*
X125814109Y-72890737D01*
X125796823Y-72901326D01*
X125762555Y-72929195D01*
X125748934Y-72951684D01*
X125753084Y-72970042D01*
X125773425Y-72972486D01*
X125811196Y-72947074D01*
X125866926Y-72893545D01*
X125889754Y-72871178D01*
X125966303Y-72817638D01*
X126043164Y-72797465D01*
X126121467Y-72810289D01*
X126126257Y-72812091D01*
X126191526Y-72849932D01*
X126228401Y-72904435D01*
X126240000Y-72980065D01*
X126238549Y-73023996D01*
X126226553Y-73081859D01*
X126197554Y-73124429D01*
X126145754Y-73162955D01*
X126120264Y-73177251D01*
X126068890Y-73193136D01*
X126005840Y-73192231D01*
X125992421Y-73190946D01*
X125912501Y-73190929D01*
X125859892Y-73207544D01*
X125832319Y-73241439D01*
X125829294Y-73276035D01*
X125854492Y-73308691D01*
X125911455Y-73332655D01*
X126000758Y-73348295D01*
X126088484Y-73363654D01*
X126160504Y-73393498D01*
X126214073Y-73441528D01*
X126256616Y-73512508D01*
X126262231Y-73524625D01*
X126281012Y-73573540D01*
X126284673Y-73611989D01*
X126275232Y-73655456D01*
X126256161Y-73697693D01*
X126214926Y-73750745D01*
X126164885Y-73790743D01*
X126115935Y-73808195D01*
X126100951Y-73808945D01*
X126034517Y-73807419D01*
X125973426Y-73799538D01*
X125931870Y-73786941D01*
X125930017Y-73785848D01*
X125904240Y-73762839D01*
X125866755Y-73721544D01*
X125824999Y-73670093D01*
X125817200Y-73659994D01*
X125778083Y-73611938D01*
X125750318Y-73585821D01*
X125727026Y-73576585D01*
X125701330Y-73579174D01*
X125663666Y-73591028D01*
X125629187Y-73617128D01*
X125613318Y-73660754D01*
X125611601Y-73729368D01*
X125609461Y-73799361D01*
X125592282Y-73889669D01*
X125561841Y-73968433D01*
X125521445Y-74024823D01*
X125517159Y-74028591D01*
X125470285Y-74055541D01*
X125415559Y-74071332D01*
X125334801Y-74069497D01*
X125262184Y-74041508D01*
X125206232Y-73991937D01*
X125169852Y-73926168D01*
X125155951Y-73849585D01*
X125167437Y-73767573D01*
X125207218Y-73685515D01*
X125258168Y-73611000D01*
X125113934Y-73483362D01*
X124942285Y-73487915D01*
X124904492Y-73488877D01*
X124838525Y-73489563D01*
X124794132Y-73486733D01*
X124762771Y-73478656D01*
X124735899Y-73463602D01*
X124704973Y-73439841D01*
X124660966Y-73406855D01*
X124610059Y-73379072D01*
X124572214Y-73375520D01*
X124542610Y-73394861D01*
X124535254Y-73404252D01*
X124527626Y-73421922D01*
X124524648Y-73448718D01*
X124526351Y-73490740D01*
X124532768Y-73554090D01*
X124543931Y-73644867D01*
X124557315Y-73771597D01*
X124567430Y-73931274D01*
X124570718Y-74088922D01*
X124567214Y-74236748D01*
X124556956Y-74366958D01*
X124539982Y-74471761D01*
X124532663Y-74500413D01*
X124504894Y-74586024D01*
X124467803Y-74680761D01*
X124426843Y-74770237D01*
X124419663Y-74784371D01*
X124366381Y-74877096D01*
X124304162Y-74963470D01*
X124229358Y-75046894D01*
X124138326Y-75130771D01*
X124027419Y-75218500D01*
X123892992Y-75313485D01*
X123731399Y-75419126D01*
X123688156Y-75446725D01*
X123561153Y-75529613D01*
X123462265Y-75597514D01*
X123390258Y-75651395D01*
X123343893Y-75692223D01*
X123321936Y-75720966D01*
X123323151Y-75738591D01*
X123343662Y-75748435D01*
X123390039Y-75764153D01*
X123454171Y-75783201D01*
X123528246Y-75803366D01*
X123604456Y-75822439D01*
X123674990Y-75838206D01*
X123700794Y-75845234D01*
X123759421Y-75865916D01*
X123831842Y-75895052D01*
X123907961Y-75928720D01*
X123966694Y-75957102D01*
X124122322Y-76044098D01*
X124261466Y-76139393D01*
X124381399Y-76240228D01*
X124479393Y-76343843D01*
X124552724Y-76447479D01*
X124598663Y-76548376D01*
X124614484Y-76643774D01*
X124613938Y-76666686D01*
X124606358Y-76719156D01*
X124586532Y-76765479D01*
X124550242Y-76811516D01*
X124493273Y-76863131D01*
X124411409Y-76926188D01*
X124346103Y-76974106D01*
X124286295Y-77017335D01*
X124240495Y-77049738D01*
X124215277Y-77066610D01*
X124201981Y-77076268D01*
X124209838Y-77080460D01*
X124247489Y-77077413D01*
X124281330Y-77075699D01*
X124359552Y-77090748D01*
X124422218Y-77130116D01*
X124463840Y-77189379D01*
X124478934Y-77264111D01*
X124476314Y-77300436D01*
X124459667Y-77343560D01*
X124421360Y-77388827D01*
X124410579Y-77399409D01*
X124372605Y-77429806D01*
X124333355Y-77443325D01*
X124276652Y-77446400D01*
X124203804Y-77439146D01*
X124109878Y-77404006D01*
X124082112Y-77390219D01*
X124041656Y-77376005D01*
X124024082Y-77380088D01*
X124022281Y-77389115D01*
X124031172Y-77408255D01*
X124063126Y-77425896D01*
X124123334Y-77445458D01*
X124212807Y-77480681D01*
X124274630Y-77529115D01*
X124310411Y-77592790D01*
X124322145Y-77661450D01*
X124308005Y-77732674D01*
X124267221Y-77789412D01*
X124203428Y-77826928D01*
X124120261Y-77840485D01*
X124118335Y-77840478D01*
X124041975Y-77825645D01*
X123981859Y-77781746D01*
X123936599Y-77707776D01*
X123919316Y-77671197D01*
X123895546Y-77639321D01*
X123873943Y-77638573D01*
X123851793Y-77667669D01*
X123850191Y-77670753D01*
X123842749Y-77705302D01*
X123860054Y-77743869D01*
X123883169Y-77772309D01*
X123903156Y-77785067D01*
X123907359Y-77785705D01*
X123929468Y-77806398D01*
X123949969Y-77849037D01*
X123965059Y-77903766D01*
X123970934Y-77960727D01*
X123970816Y-77970420D01*
X123960351Y-78034190D01*
X123928965Y-78086345D01*
X123885278Y-78123606D01*
X123817959Y-78148056D01*
X123746533Y-78146807D01*
X123680294Y-78120385D01*
X123628536Y-78069318D01*
X123610235Y-78037624D01*
X123592231Y-77984625D01*
X123588889Y-77923517D01*
X123600149Y-77846799D01*
X123625949Y-77746967D01*
X123626223Y-77746004D01*
X123623778Y-77723609D01*
X123594843Y-77717334D01*
X123582128Y-77718109D01*
X123532716Y-77734864D01*
X123494929Y-77767044D01*
X123479867Y-77806081D01*
X123469618Y-77857591D01*
X123440027Y-77921501D01*
X123398842Y-77980602D01*
X123353900Y-78021495D01*
X123295331Y-78046772D01*
X123216080Y-78057422D01*
X123139268Y-78046389D01*
X123076949Y-78013999D01*
X123042606Y-77974762D01*
X123011339Y-77903807D01*
X123004922Y-77827400D01*
X123013084Y-77791438D01*
X123047909Y-77723564D01*
X123100389Y-77664010D01*
X123161099Y-77624990D01*
X123203292Y-77604881D01*
X123257791Y-77566036D01*
X123293240Y-77523774D01*
X123307083Y-77483208D01*
X123296766Y-77449451D01*
X123259734Y-77427616D01*
X123222842Y-77421591D01*
X123164103Y-77416711D01*
X123097138Y-77414222D01*
X123090593Y-77414105D01*
X122991762Y-77403814D01*
X122920190Y-77376715D01*
X122872915Y-77331039D01*
X122846971Y-77265019D01*
X122845893Y-77259784D01*
X122839870Y-77162597D01*
X122864374Y-77078195D01*
X122920480Y-77002737D01*
X122924888Y-76998356D01*
X122968459Y-76960582D01*
X123007187Y-76942830D01*
X123055086Y-76938400D01*
X123131796Y-76946992D01*
X123215380Y-76981043D01*
X123278194Y-77038444D01*
X123285067Y-77047367D01*
X123314315Y-77078303D01*
X123335726Y-77090801D01*
X123348296Y-77081372D01*
X123376056Y-77049665D01*
X123413084Y-77002228D01*
X123454446Y-76945966D01*
X123495207Y-76887781D01*
X123530432Y-76834577D01*
X123555186Y-76793258D01*
X123564534Y-76770726D01*
X123564485Y-76769293D01*
X123561043Y-76761783D01*
X123548642Y-76755275D01*
X123522349Y-76748764D01*
X123477230Y-76741250D01*
X123408350Y-76731731D01*
X123310776Y-76719206D01*
X123268801Y-76712715D01*
X123171808Y-76692566D01*
X123057886Y-76664066D01*
X122936521Y-76629812D01*
X122817197Y-76592405D01*
X122709400Y-76554442D01*
X122641667Y-76528838D01*
X122564990Y-76612182D01*
X122542355Y-76639078D01*
X122516010Y-76676214D01*
X122486474Y-76724316D01*
X122452279Y-76786257D01*
X122411955Y-76864909D01*
X122364033Y-76963144D01*
X122307046Y-77083833D01*
X122239523Y-77229851D01*
X122159997Y-77404067D01*
X122156373Y-77412004D01*
X122129220Y-77470378D01*
X122092425Y-77548280D01*
X122050359Y-77636492D01*
X122007394Y-77725800D01*
X122002734Y-77735452D01*
X121957682Y-77829844D01*
X121912522Y-77926146D01*
X121872268Y-78013588D01*
X121841929Y-78081400D01*
X121777814Y-78206456D01*
X121691161Y-78335055D01*
X121579956Y-78468654D01*
X121440961Y-78611537D01*
X121268041Y-78763380D01*
X121058314Y-78909407D01*
X120833861Y-79026549D01*
X120591047Y-79116967D01*
X120552965Y-79128406D01*
X120501403Y-79142158D01*
X120452332Y-79151789D01*
X120398481Y-79158055D01*
X120332578Y-79161709D01*
X120247353Y-79163506D01*
X120135534Y-79164198D01*
X120117789Y-79164245D01*
X120006881Y-79163935D01*
X119921470Y-79162040D01*
X119854213Y-79157936D01*
X119797766Y-79150996D01*
X119744787Y-79140597D01*
X119687932Y-79126114D01*
X119566908Y-79088026D01*
X119371313Y-79004773D01*
X119194300Y-78901693D01*
X119188570Y-78897765D01*
X119112780Y-78840491D01*
X119029134Y-78769353D01*
X118944673Y-78691115D01*
X118866440Y-78612544D01*
X118801480Y-78540405D01*
X118756833Y-78481463D01*
X118741210Y-78455522D01*
X118698578Y-78371703D01*
X118657371Y-78275029D01*
X118623183Y-78179304D01*
X118601605Y-78098334D01*
X118601161Y-78095976D01*
X118594562Y-78035693D01*
X118591365Y-77952073D01*
X118591271Y-77853283D01*
X118593975Y-77747493D01*
X118599178Y-77642871D01*
X118606576Y-77547585D01*
X118615868Y-77469805D01*
X118626753Y-77417697D01*
X118633758Y-77397640D01*
X118674233Y-77324518D01*
X118726881Y-77277563D01*
X118787001Y-77258535D01*
X118849889Y-77269196D01*
X118910845Y-77311307D01*
X118923302Y-77324057D01*
X118948014Y-77356481D01*
X118955981Y-77390758D01*
X118952128Y-77442540D01*
X118949477Y-77464184D01*
X118936500Y-77580733D01*
X118929585Y-77673015D01*
X118928962Y-77748862D01*
X118934860Y-77816107D01*
X118947506Y-77882584D01*
X118967131Y-77956125D01*
X118998564Y-78052354D01*
X119056976Y-78182522D01*
X119131162Y-78294909D01*
X119226643Y-78398934D01*
X119327454Y-78479661D01*
X119467699Y-78559584D01*
X119626942Y-78623082D01*
X119798483Y-78668019D01*
X119975618Y-78692259D01*
X120151645Y-78693667D01*
X120293550Y-78680171D01*
X120416503Y-78656617D01*
X120525219Y-78620835D01*
X120629247Y-78570359D01*
X120750497Y-78489644D01*
X120877633Y-78373139D01*
X120996143Y-78228211D01*
X121106486Y-78054037D01*
X121209117Y-77849797D01*
X121304493Y-77614670D01*
X121393070Y-77347834D01*
X121475305Y-77048467D01*
X121497954Y-76959022D01*
X121550348Y-76760164D01*
X121600483Y-76582957D01*
X121650872Y-76419086D01*
X121704026Y-76260235D01*
X121762460Y-76098088D01*
X121870241Y-75808110D01*
X121820982Y-75717088D01*
X121742304Y-75541922D01*
X121684953Y-75336018D01*
X121657732Y-75116195D01*
X121656454Y-75093055D01*
X121650229Y-75006809D01*
X121642717Y-74948226D01*
X121633065Y-74912218D01*
X121620420Y-74893701D01*
X121584791Y-74878249D01*
X121519123Y-74873910D01*
X121434857Y-74885222D01*
X121338074Y-74911795D01*
X121221685Y-74951056D01*
X121268100Y-74983762D01*
X121282038Y-74993645D01*
X121347119Y-75042873D01*
X121389746Y-75083097D01*
X121415899Y-75120869D01*
X121431563Y-75162739D01*
X121440150Y-75213521D01*
X121430590Y-75288221D01*
X121393604Y-75346365D01*
X121332215Y-75384057D01*
X121249444Y-75397404D01*
X121213128Y-75392612D01*
X121154984Y-75367893D01*
X121107956Y-75328993D01*
X121083405Y-75283692D01*
X121074806Y-75243243D01*
X121060855Y-75186517D01*
X121048213Y-75153732D01*
X121034024Y-75138642D01*
X121015433Y-75135001D01*
X121007819Y-75135484D01*
X120993724Y-75142897D01*
X120984364Y-75164434D01*
X120977706Y-75206667D01*
X120971712Y-75276167D01*
X120963175Y-75356016D01*
X120945969Y-75428073D01*
X120918616Y-75475099D01*
X120878133Y-75501794D01*
X120821541Y-75512855D01*
X120813445Y-75513366D01*
X120727972Y-75506148D01*
X120664409Y-75474915D01*
X120624518Y-75420494D01*
X120612657Y-75388646D01*
X120603077Y-75330026D01*
X120615677Y-75272986D01*
X120652000Y-75205461D01*
X120653003Y-75203879D01*
X120684208Y-75153494D01*
X120699039Y-75125047D01*
X120699848Y-75112447D01*
X120688985Y-75109601D01*
X120682148Y-75113701D01*
X120661284Y-75139643D01*
X120635670Y-75181567D01*
X120621729Y-75206364D01*
X120580992Y-75268792D01*
X120540843Y-75310845D01*
X120493350Y-75341433D01*
X120474572Y-75349546D01*
X120407747Y-75357809D01*
X120341597Y-75340431D01*
X120284281Y-75302292D01*
X120243955Y-75248269D01*
X120228779Y-75183240D01*
X120228876Y-75178170D01*
X120238740Y-75120617D01*
X120259824Y-75071155D01*
X120270870Y-75055851D01*
X120324229Y-75001601D01*
X120388146Y-74956902D01*
X120449056Y-74931744D01*
X120452013Y-74931073D01*
X120484103Y-74916435D01*
X120488101Y-74891484D01*
X120487891Y-74890708D01*
X120475113Y-74872706D01*
X120444405Y-74863017D01*
X120387875Y-74859090D01*
X120326836Y-74855482D01*
X120225387Y-74836227D01*
X120151738Y-74800161D01*
X120104300Y-74746324D01*
X120081486Y-74673754D01*
X120081224Y-74618469D01*
X120105558Y-74544925D01*
X120154999Y-74485907D01*
X120224616Y-74446635D01*
X120309479Y-74432330D01*
X120323950Y-74432561D01*
X120367867Y-74439236D01*
X120407276Y-74459685D01*
X120455306Y-74500000D01*
X120488803Y-74529324D01*
X120525031Y-74557032D01*
X120545777Y-74567734D01*
X120546261Y-74567721D01*
X120570978Y-74557470D01*
X120605846Y-74533848D01*
X120629791Y-74513226D01*
X120640205Y-74493090D01*
X120638103Y-74462791D01*
X120625264Y-74411081D01*
X120621069Y-74394582D01*
X120604046Y-74289955D01*
X120605726Y-74198780D01*
X120626086Y-74128462D01*
X120630625Y-74120410D01*
X120675763Y-74075477D01*
X120737868Y-74050697D01*
X120808268Y-74045665D01*
X120878292Y-74059980D01*
X120939270Y-74093238D01*
X120982529Y-74145035D01*
X120983083Y-74146125D01*
X120998687Y-74200652D01*
X121004264Y-74271475D01*
X120999676Y-74342916D01*
X120984782Y-74399298D01*
X120984354Y-74400271D01*
X120985885Y-74418987D01*
X121010270Y-74438488D01*
X121062430Y-74462798D01*
X121100670Y-74477446D01*
X121151925Y-74493370D01*
X121185728Y-74499248D01*
X121192544Y-74498076D01*
X121228254Y-74482773D01*
X121279566Y-74453538D01*
X121337800Y-74415167D01*
X121380895Y-74385022D01*
X121476089Y-74320198D01*
X121551668Y-74272426D01*
X121612810Y-74239062D01*
X121664694Y-74217465D01*
X121712499Y-74204990D01*
X121761403Y-74198995D01*
X121832358Y-74197758D01*
X121925331Y-74211524D01*
X122009137Y-74245976D01*
X122086922Y-74303622D01*
X122161831Y-74386969D01*
X122237011Y-74498525D01*
X122315607Y-74640799D01*
X122323946Y-74657106D01*
X122363466Y-74736158D01*
X122397350Y-74806715D01*
X122422225Y-74861616D01*
X122434718Y-74893700D01*
X122448407Y-74925888D01*
X122464303Y-74940267D01*
X122465645Y-74940221D01*
X122496978Y-74925537D01*
X122537439Y-74890292D01*
X122579623Y-74842774D01*
X122616126Y-74791274D01*
X122639542Y-74744082D01*
X122648763Y-74714964D01*
X122655680Y-74679690D01*
X122655530Y-74641291D01*
X122648023Y-74589834D01*
X122632870Y-74515386D01*
X122625444Y-74481484D01*
X122610204Y-74416856D01*
X122597290Y-74368316D01*
X122588900Y-74344417D01*
X122585540Y-74336296D01*
X122575028Y-74299161D01*
X122561324Y-74241460D01*
X122546519Y-74171716D01*
X122529205Y-74062556D01*
X122522637Y-73885098D01*
X122544914Y-73721188D01*
X122595699Y-73572739D01*
X122674657Y-73441666D01*
X122702892Y-73401145D01*
X122720619Y-73367451D01*
X122720739Y-73352313D01*
X122697715Y-73351200D01*
X122645671Y-73356973D01*
X122573365Y-73369140D01*
X122487546Y-73386260D01*
X122394966Y-73406891D01*
X122302374Y-73429592D01*
X122216522Y-73452921D01*
X122144158Y-73475436D01*
X121968383Y-73535430D01*
X121897269Y-73493754D01*
X121871565Y-73476223D01*
X121823505Y-73427792D01*
X121776901Y-73357692D01*
X121729362Y-73262018D01*
X121678495Y-73136867D01*
X121668184Y-73109598D01*
X121644562Y-73049832D01*
X121625165Y-73011307D01*
X121604155Y-72986320D01*
X121575693Y-72967168D01*
X121533942Y-72946149D01*
X121459150Y-72909720D01*
X121402119Y-72959794D01*
X121377903Y-72979036D01*
X121331128Y-73002701D01*
X121273417Y-73012376D01*
X121193867Y-73010727D01*
X121180433Y-73009022D01*
X121132246Y-72984081D01*
X121102460Y-72932059D01*
X121092267Y-72854783D01*
X121095059Y-72803513D01*
X121108131Y-72763599D01*
X121136663Y-72730039D01*
X121170797Y-72705725D01*
X121223452Y-72682977D01*
X121274574Y-72672811D01*
X121311302Y-72678988D01*
X121321327Y-72684176D01*
X121328545Y-72678452D01*
X121319055Y-72647185D01*
X121311503Y-72634027D01*
X121289422Y-72620306D01*
X121260537Y-72617102D01*
X121203000Y-72601170D01*
X121146814Y-72577288D01*
X121108101Y-72551568D01*
X121093699Y-72533147D01*
X121079484Y-72491054D01*
X121075334Y-72426058D01*
X121078911Y-72372571D01*
X121097839Y-72322971D01*
X121138422Y-72291643D01*
X121206635Y-72271560D01*
X121230328Y-72265885D01*
X121250927Y-72252987D01*
X121260529Y-72225791D01*
X121265017Y-72174518D01*
X121266652Y-72151154D01*
X121274602Y-72106118D01*
X121293193Y-72076299D01*
X121329334Y-72048117D01*
X121355440Y-72031966D01*
X121401715Y-72016111D01*
X121456334Y-72018769D01*
X121460010Y-72019356D01*
X121530316Y-72036262D01*
X121573152Y-72063390D01*
X121594482Y-72107169D01*
X121600267Y-72174032D01*
X121600967Y-72223420D01*
X121605362Y-72252757D01*
X121616735Y-72262039D01*
X121638367Y-72258540D01*
X121664197Y-72252277D01*
X121689167Y-72248098D01*
X121691074Y-72247373D01*
X121698754Y-72226843D01*
X121701867Y-72186926D01*
X121704949Y-72146485D01*
X121730894Y-72066527D01*
X121778842Y-72002007D01*
X121843471Y-71958888D01*
X121919461Y-71943130D01*
X121936445Y-71944028D01*
X121983951Y-71960011D01*
X122033761Y-72000641D01*
X122050390Y-72017812D01*
X122077041Y-72053412D01*
X122088737Y-72092364D01*
X122091334Y-72149848D01*
X122091121Y-72163329D01*
X122077590Y-72241326D01*
X122041244Y-72296598D01*
X121979641Y-72333152D01*
X121954103Y-72349636D01*
X121939719Y-72386911D01*
X121954869Y-72433099D01*
X121957780Y-72437258D01*
X121974241Y-72447981D01*
X122004370Y-72447878D01*
X122057502Y-72437332D01*
X122106125Y-72427348D01*
X122200350Y-72418448D01*
X122270270Y-72430053D01*
X122318209Y-72462808D01*
X122346491Y-72517356D01*
X122349031Y-72526533D01*
X122355116Y-72583460D01*
X122340657Y-72645052D01*
X122313911Y-72701661D01*
X122269440Y-72747057D01*
X122205741Y-72771714D01*
X122116941Y-72779150D01*
X122006729Y-72779151D01*
X122043517Y-72818309D01*
X122054030Y-72828574D01*
X122086470Y-72849074D01*
X122126862Y-72856960D01*
X122179546Y-72851484D01*
X122248865Y-72831898D01*
X122339157Y-72797453D01*
X122454764Y-72747400D01*
X122507713Y-72723769D01*
X122585338Y-72689473D01*
X122648346Y-72662071D01*
X122691319Y-72643909D01*
X122708840Y-72637334D01*
X122710973Y-72637076D01*
X122738357Y-72624108D01*
X122785367Y-72594511D01*
X122846248Y-72552373D01*
X122915243Y-72501786D01*
X122986599Y-72446840D01*
X123054559Y-72391626D01*
X123098059Y-72354640D01*
X123189190Y-72272863D01*
X123255791Y-72206021D01*
X123296645Y-72155395D01*
X123310534Y-72122266D01*
X123308000Y-72114945D01*
X123286952Y-72085303D01*
X123249198Y-72042276D01*
X123200329Y-71992449D01*
X123180938Y-71973306D01*
X123108751Y-71892490D01*
X123060344Y-71816062D01*
X123030731Y-71734496D01*
X123014924Y-71638267D01*
X123011324Y-71549277D01*
X123028286Y-71383550D01*
X123074017Y-71205135D01*
X123147727Y-71015934D01*
X123248626Y-70817849D01*
X123375922Y-70612779D01*
X123528826Y-70402628D01*
X123606058Y-70308028D01*
X123702576Y-70199848D01*
X123800270Y-70099851D01*
X123894050Y-70012970D01*
X123978825Y-69944133D01*
X124049504Y-69898274D01*
X124079460Y-69882809D01*
X124127628Y-69861596D01*
X124173045Y-69849698D01*
X124227909Y-69844487D01*
X124304413Y-69843334D01*
X124310505Y-69843339D01*
G37*
%TD*%
M02*
