%TF.GenerationSoftware,KiCad,Pcbnew,7.0.2*%
%TF.CreationDate,2024-03-22T11:27:14+01:00*%
%TF.ProjectId,Support_TTGO_invers_,53757070-6f72-4745-9f54-54474f5f696e,rev?*%
%TF.SameCoordinates,Original*%
%TF.FileFunction,Profile,NP*%
%FSLAX46Y46*%
G04 Gerber Fmt 4.6, Leading zero omitted, Abs format (unit mm)*
G04 Created by KiCad (PCBNEW 7.0.2) date 2024-03-22 11:27:14*
%MOMM*%
%LPD*%
G01*
G04 APERTURE LIST*
%TA.AperFunction,Profile*%
%ADD10C,0.100000*%
%TD*%
G04 APERTURE END LIST*
D10*
X127000000Y-67970000D02*
X108920000Y-67970000D01*
X156000000Y-67970000D02*
G75*
G03*
X155000000Y-68970000I0J-1000000D01*
G01*
X129500000Y-84000000D02*
X153500000Y-84010000D01*
X128500000Y-85000000D02*
X128500000Y-108000000D01*
X128000000Y-68970000D02*
G75*
G03*
X127000000Y-67970000I-1000000J0D01*
G01*
X107920000Y-68970000D02*
X107920000Y-108000000D01*
X173790000Y-109000000D02*
G75*
G03*
X174790000Y-108000000I0J1000000D01*
G01*
X129000000Y-78450000D02*
X154000000Y-78450000D01*
X155000000Y-77450000D02*
X155000000Y-68970000D01*
X128000000Y-68970000D02*
X128000000Y-77450000D01*
X174790000Y-68970000D02*
G75*
G03*
X173790000Y-67970000I-1000000J0D01*
G01*
X154490000Y-85000000D02*
G75*
G03*
X153500000Y-84010000I-990000J0D01*
G01*
X154490000Y-107990000D02*
G75*
G03*
X155500000Y-109000000I1010000J0D01*
G01*
X127500000Y-109000000D02*
X108920000Y-109000000D01*
X108920000Y-67970000D02*
G75*
G03*
X107920000Y-68970000I0J-1000000D01*
G01*
X174790000Y-68970000D02*
X174790000Y-108000000D01*
X154490000Y-85000000D02*
X154490000Y-107990000D01*
X155500000Y-109000000D02*
X173790000Y-109000000D01*
X173790000Y-67970000D02*
X156000000Y-67970000D01*
X127500000Y-109000000D02*
G75*
G03*
X128500000Y-108000000I0J1000000D01*
G01*
X107920000Y-108000000D02*
G75*
G03*
X108920000Y-109000000I1000000J0D01*
G01*
X154000000Y-78450000D02*
G75*
G03*
X155000000Y-77450000I0J1000000D01*
G01*
X129500000Y-84000000D02*
G75*
G03*
X128500000Y-85000000I0J-1000000D01*
G01*
X128000000Y-77450000D02*
G75*
G03*
X129000000Y-78450000I1000000J0D01*
G01*
M02*
