%TF.GenerationSoftware,KiCad,Pcbnew,7.0.2*%
%TF.CreationDate,2024-04-10T14:05:27+02:00*%
%TF.ProjectId,Support_TTGO_invers_,53757070-6f72-4745-9f54-54474f5f696e,rev?*%
%TF.SameCoordinates,Original*%
%TF.FileFunction,Legend,Bot*%
%TF.FilePolarity,Positive*%
%FSLAX46Y46*%
G04 Gerber Fmt 4.6, Leading zero omitted, Abs format (unit mm)*
G04 Created by KiCad (PCBNEW 7.0.2) date 2024-04-10 14:05:27*
%MOMM*%
%LPD*%
G01*
G04 APERTURE LIST*
%ADD10C,0.200000*%
%ADD11C,0.500000*%
%ADD12C,0.120000*%
%ADD13C,0.010000*%
%ADD14C,0.100000*%
G04 APERTURE END LIST*
D10*
X167692380Y-81841904D02*
X168692380Y-81841904D01*
X168692380Y-81841904D02*
X168692380Y-81460952D01*
X168692380Y-81460952D02*
X168644761Y-81365714D01*
X168644761Y-81365714D02*
X168597142Y-81318095D01*
X168597142Y-81318095D02*
X168501904Y-81270476D01*
X168501904Y-81270476D02*
X168359047Y-81270476D01*
X168359047Y-81270476D02*
X168263809Y-81318095D01*
X168263809Y-81318095D02*
X168216190Y-81365714D01*
X168216190Y-81365714D02*
X168168571Y-81460952D01*
X168168571Y-81460952D02*
X168168571Y-81841904D01*
X168216190Y-80508571D02*
X168168571Y-80365714D01*
X168168571Y-80365714D02*
X168120952Y-80318095D01*
X168120952Y-80318095D02*
X168025714Y-80270476D01*
X168025714Y-80270476D02*
X167882857Y-80270476D01*
X167882857Y-80270476D02*
X167787619Y-80318095D01*
X167787619Y-80318095D02*
X167740000Y-80365714D01*
X167740000Y-80365714D02*
X167692380Y-80460952D01*
X167692380Y-80460952D02*
X167692380Y-80841904D01*
X167692380Y-80841904D02*
X168692380Y-80841904D01*
X168692380Y-80841904D02*
X168692380Y-80508571D01*
X168692380Y-80508571D02*
X168644761Y-80413333D01*
X168644761Y-80413333D02*
X168597142Y-80365714D01*
X168597142Y-80365714D02*
X168501904Y-80318095D01*
X168501904Y-80318095D02*
X168406666Y-80318095D01*
X168406666Y-80318095D02*
X168311428Y-80365714D01*
X168311428Y-80365714D02*
X168263809Y-80413333D01*
X168263809Y-80413333D02*
X168216190Y-80508571D01*
X168216190Y-80508571D02*
X168216190Y-80841904D01*
X167597142Y-80080000D02*
X167597142Y-79318095D01*
X167692380Y-79079999D02*
X168692380Y-79079999D01*
X168692380Y-79079999D02*
X168692380Y-78699047D01*
X168692380Y-78699047D02*
X168644761Y-78603809D01*
X168644761Y-78603809D02*
X168597142Y-78556190D01*
X168597142Y-78556190D02*
X168501904Y-78508571D01*
X168501904Y-78508571D02*
X168359047Y-78508571D01*
X168359047Y-78508571D02*
X168263809Y-78556190D01*
X168263809Y-78556190D02*
X168216190Y-78603809D01*
X168216190Y-78603809D02*
X168168571Y-78699047D01*
X168168571Y-78699047D02*
X168168571Y-79079999D01*
X168359047Y-78175237D02*
X167692380Y-77984761D01*
X167692380Y-77984761D02*
X168168571Y-77794285D01*
X168168571Y-77794285D02*
X167692380Y-77603809D01*
X167692380Y-77603809D02*
X168359047Y-77413333D01*
X167692380Y-77032380D02*
X168359047Y-77032380D01*
X168168571Y-77032380D02*
X168263809Y-76984761D01*
X168263809Y-76984761D02*
X168311428Y-76937142D01*
X168311428Y-76937142D02*
X168359047Y-76841904D01*
X168359047Y-76841904D02*
X168359047Y-76746666D01*
X160182380Y-93714761D02*
X160182380Y-93143333D01*
X159182380Y-93429047D02*
X160182380Y-93429047D01*
X159230000Y-92429047D02*
X159182380Y-92524285D01*
X159182380Y-92524285D02*
X159182380Y-92714761D01*
X159182380Y-92714761D02*
X159230000Y-92809999D01*
X159230000Y-92809999D02*
X159325238Y-92857618D01*
X159325238Y-92857618D02*
X159706190Y-92857618D01*
X159706190Y-92857618D02*
X159801428Y-92809999D01*
X159801428Y-92809999D02*
X159849047Y-92714761D01*
X159849047Y-92714761D02*
X159849047Y-92524285D01*
X159849047Y-92524285D02*
X159801428Y-92429047D01*
X159801428Y-92429047D02*
X159706190Y-92381428D01*
X159706190Y-92381428D02*
X159610952Y-92381428D01*
X159610952Y-92381428D02*
X159515714Y-92857618D01*
X159182380Y-91952856D02*
X159849047Y-91952856D01*
X159753809Y-91952856D02*
X159801428Y-91905237D01*
X159801428Y-91905237D02*
X159849047Y-91809999D01*
X159849047Y-91809999D02*
X159849047Y-91667142D01*
X159849047Y-91667142D02*
X159801428Y-91571904D01*
X159801428Y-91571904D02*
X159706190Y-91524285D01*
X159706190Y-91524285D02*
X159182380Y-91524285D01*
X159706190Y-91524285D02*
X159801428Y-91476666D01*
X159801428Y-91476666D02*
X159849047Y-91381428D01*
X159849047Y-91381428D02*
X159849047Y-91238571D01*
X159849047Y-91238571D02*
X159801428Y-91143332D01*
X159801428Y-91143332D02*
X159706190Y-91095713D01*
X159706190Y-91095713D02*
X159182380Y-91095713D01*
X159849047Y-90619523D02*
X158849047Y-90619523D01*
X159801428Y-90619523D02*
X159849047Y-90524285D01*
X159849047Y-90524285D02*
X159849047Y-90333809D01*
X159849047Y-90333809D02*
X159801428Y-90238571D01*
X159801428Y-90238571D02*
X159753809Y-90190952D01*
X159753809Y-90190952D02*
X159658571Y-90143333D01*
X159658571Y-90143333D02*
X159372857Y-90143333D01*
X159372857Y-90143333D02*
X159277619Y-90190952D01*
X159277619Y-90190952D02*
X159230000Y-90238571D01*
X159230000Y-90238571D02*
X159182380Y-90333809D01*
X159182380Y-90333809D02*
X159182380Y-90524285D01*
X159182380Y-90524285D02*
X159230000Y-90619523D01*
X159230000Y-89333809D02*
X159182380Y-89429047D01*
X159182380Y-89429047D02*
X159182380Y-89619523D01*
X159182380Y-89619523D02*
X159230000Y-89714761D01*
X159230000Y-89714761D02*
X159325238Y-89762380D01*
X159325238Y-89762380D02*
X159706190Y-89762380D01*
X159706190Y-89762380D02*
X159801428Y-89714761D01*
X159801428Y-89714761D02*
X159849047Y-89619523D01*
X159849047Y-89619523D02*
X159849047Y-89429047D01*
X159849047Y-89429047D02*
X159801428Y-89333809D01*
X159801428Y-89333809D02*
X159706190Y-89286190D01*
X159706190Y-89286190D02*
X159610952Y-89286190D01*
X159610952Y-89286190D02*
X159515714Y-89762380D01*
X159182380Y-88857618D02*
X159849047Y-88857618D01*
X159658571Y-88857618D02*
X159753809Y-88809999D01*
X159753809Y-88809999D02*
X159801428Y-88762380D01*
X159801428Y-88762380D02*
X159849047Y-88667142D01*
X159849047Y-88667142D02*
X159849047Y-88571904D01*
X159182380Y-87809999D02*
X159706190Y-87809999D01*
X159706190Y-87809999D02*
X159801428Y-87857618D01*
X159801428Y-87857618D02*
X159849047Y-87952856D01*
X159849047Y-87952856D02*
X159849047Y-88143332D01*
X159849047Y-88143332D02*
X159801428Y-88238570D01*
X159230000Y-87809999D02*
X159182380Y-87905237D01*
X159182380Y-87905237D02*
X159182380Y-88143332D01*
X159182380Y-88143332D02*
X159230000Y-88238570D01*
X159230000Y-88238570D02*
X159325238Y-88286189D01*
X159325238Y-88286189D02*
X159420476Y-88286189D01*
X159420476Y-88286189D02*
X159515714Y-88238570D01*
X159515714Y-88238570D02*
X159563333Y-88143332D01*
X159563333Y-88143332D02*
X159563333Y-87905237D01*
X159563333Y-87905237D02*
X159610952Y-87809999D01*
X159849047Y-87476665D02*
X159849047Y-87095713D01*
X160182380Y-87333808D02*
X159325238Y-87333808D01*
X159325238Y-87333808D02*
X159230000Y-87286189D01*
X159230000Y-87286189D02*
X159182380Y-87190951D01*
X159182380Y-87190951D02*
X159182380Y-87095713D01*
X159849047Y-86333808D02*
X159182380Y-86333808D01*
X159849047Y-86762379D02*
X159325238Y-86762379D01*
X159325238Y-86762379D02*
X159230000Y-86714760D01*
X159230000Y-86714760D02*
X159182380Y-86619522D01*
X159182380Y-86619522D02*
X159182380Y-86476665D01*
X159182380Y-86476665D02*
X159230000Y-86381427D01*
X159230000Y-86381427D02*
X159277619Y-86333808D01*
X159182380Y-85857617D02*
X159849047Y-85857617D01*
X159658571Y-85857617D02*
X159753809Y-85809998D01*
X159753809Y-85809998D02*
X159801428Y-85762379D01*
X159801428Y-85762379D02*
X159849047Y-85667141D01*
X159849047Y-85667141D02*
X159849047Y-85571903D01*
X159230000Y-84857617D02*
X159182380Y-84952855D01*
X159182380Y-84952855D02*
X159182380Y-85143331D01*
X159182380Y-85143331D02*
X159230000Y-85238569D01*
X159230000Y-85238569D02*
X159325238Y-85286188D01*
X159325238Y-85286188D02*
X159706190Y-85286188D01*
X159706190Y-85286188D02*
X159801428Y-85238569D01*
X159801428Y-85238569D02*
X159849047Y-85143331D01*
X159849047Y-85143331D02*
X159849047Y-84952855D01*
X159849047Y-84952855D02*
X159801428Y-84857617D01*
X159801428Y-84857617D02*
X159706190Y-84809998D01*
X159706190Y-84809998D02*
X159610952Y-84809998D01*
X159610952Y-84809998D02*
X159515714Y-85286188D01*
X159470000Y-104579523D02*
X159422380Y-104436666D01*
X159422380Y-104436666D02*
X159422380Y-104198571D01*
X159422380Y-104198571D02*
X159470000Y-104103333D01*
X159470000Y-104103333D02*
X159517619Y-104055714D01*
X159517619Y-104055714D02*
X159612857Y-104008095D01*
X159612857Y-104008095D02*
X159708095Y-104008095D01*
X159708095Y-104008095D02*
X159803333Y-104055714D01*
X159803333Y-104055714D02*
X159850952Y-104103333D01*
X159850952Y-104103333D02*
X159898571Y-104198571D01*
X159898571Y-104198571D02*
X159946190Y-104389047D01*
X159946190Y-104389047D02*
X159993809Y-104484285D01*
X159993809Y-104484285D02*
X160041428Y-104531904D01*
X160041428Y-104531904D02*
X160136666Y-104579523D01*
X160136666Y-104579523D02*
X160231904Y-104579523D01*
X160231904Y-104579523D02*
X160327142Y-104531904D01*
X160327142Y-104531904D02*
X160374761Y-104484285D01*
X160374761Y-104484285D02*
X160422380Y-104389047D01*
X160422380Y-104389047D02*
X160422380Y-104150952D01*
X160422380Y-104150952D02*
X160374761Y-104008095D01*
X159470000Y-103150952D02*
X159422380Y-103246190D01*
X159422380Y-103246190D02*
X159422380Y-103436666D01*
X159422380Y-103436666D02*
X159470000Y-103531904D01*
X159470000Y-103531904D02*
X159517619Y-103579523D01*
X159517619Y-103579523D02*
X159612857Y-103627142D01*
X159612857Y-103627142D02*
X159898571Y-103627142D01*
X159898571Y-103627142D02*
X159993809Y-103579523D01*
X159993809Y-103579523D02*
X160041428Y-103531904D01*
X160041428Y-103531904D02*
X160089047Y-103436666D01*
X160089047Y-103436666D02*
X160089047Y-103246190D01*
X160089047Y-103246190D02*
X160041428Y-103150952D01*
X159422380Y-102293809D02*
X159946190Y-102293809D01*
X159946190Y-102293809D02*
X160041428Y-102341428D01*
X160041428Y-102341428D02*
X160089047Y-102436666D01*
X160089047Y-102436666D02*
X160089047Y-102627142D01*
X160089047Y-102627142D02*
X160041428Y-102722380D01*
X159470000Y-102293809D02*
X159422380Y-102389047D01*
X159422380Y-102389047D02*
X159422380Y-102627142D01*
X159422380Y-102627142D02*
X159470000Y-102722380D01*
X159470000Y-102722380D02*
X159565238Y-102769999D01*
X159565238Y-102769999D02*
X159660476Y-102769999D01*
X159660476Y-102769999D02*
X159755714Y-102722380D01*
X159755714Y-102722380D02*
X159803333Y-102627142D01*
X159803333Y-102627142D02*
X159803333Y-102389047D01*
X159803333Y-102389047D02*
X159850952Y-102293809D01*
X159422380Y-101674761D02*
X159470000Y-101769999D01*
X159470000Y-101769999D02*
X159565238Y-101817618D01*
X159565238Y-101817618D02*
X160422380Y-101817618D01*
X159470000Y-100912856D02*
X159422380Y-101008094D01*
X159422380Y-101008094D02*
X159422380Y-101198570D01*
X159422380Y-101198570D02*
X159470000Y-101293808D01*
X159470000Y-101293808D02*
X159565238Y-101341427D01*
X159565238Y-101341427D02*
X159946190Y-101341427D01*
X159946190Y-101341427D02*
X160041428Y-101293808D01*
X160041428Y-101293808D02*
X160089047Y-101198570D01*
X160089047Y-101198570D02*
X160089047Y-101008094D01*
X160089047Y-101008094D02*
X160041428Y-100912856D01*
X160041428Y-100912856D02*
X159946190Y-100865237D01*
X159946190Y-100865237D02*
X159850952Y-100865237D01*
X159850952Y-100865237D02*
X159755714Y-101341427D01*
X160089047Y-99246189D02*
X159422380Y-99246189D01*
X160470000Y-99484284D02*
X159755714Y-99722379D01*
X159755714Y-99722379D02*
X159755714Y-99103332D01*
X123600000Y-98950476D02*
X123647619Y-99093333D01*
X123647619Y-99093333D02*
X123647619Y-99331428D01*
X123647619Y-99331428D02*
X123600000Y-99426666D01*
X123600000Y-99426666D02*
X123552380Y-99474285D01*
X123552380Y-99474285D02*
X123457142Y-99521904D01*
X123457142Y-99521904D02*
X123361904Y-99521904D01*
X123361904Y-99521904D02*
X123266666Y-99474285D01*
X123266666Y-99474285D02*
X123219047Y-99426666D01*
X123219047Y-99426666D02*
X123171428Y-99331428D01*
X123171428Y-99331428D02*
X123123809Y-99140952D01*
X123123809Y-99140952D02*
X123076190Y-99045714D01*
X123076190Y-99045714D02*
X123028571Y-98998095D01*
X123028571Y-98998095D02*
X122933333Y-98950476D01*
X122933333Y-98950476D02*
X122838095Y-98950476D01*
X122838095Y-98950476D02*
X122742857Y-98998095D01*
X122742857Y-98998095D02*
X122695238Y-99045714D01*
X122695238Y-99045714D02*
X122647619Y-99140952D01*
X122647619Y-99140952D02*
X122647619Y-99379047D01*
X122647619Y-99379047D02*
X122695238Y-99521904D01*
X123600000Y-100379047D02*
X123647619Y-100283809D01*
X123647619Y-100283809D02*
X123647619Y-100093333D01*
X123647619Y-100093333D02*
X123600000Y-99998095D01*
X123600000Y-99998095D02*
X123552380Y-99950476D01*
X123552380Y-99950476D02*
X123457142Y-99902857D01*
X123457142Y-99902857D02*
X123171428Y-99902857D01*
X123171428Y-99902857D02*
X123076190Y-99950476D01*
X123076190Y-99950476D02*
X123028571Y-99998095D01*
X123028571Y-99998095D02*
X122980952Y-100093333D01*
X122980952Y-100093333D02*
X122980952Y-100283809D01*
X122980952Y-100283809D02*
X123028571Y-100379047D01*
X123647619Y-101236190D02*
X123123809Y-101236190D01*
X123123809Y-101236190D02*
X123028571Y-101188571D01*
X123028571Y-101188571D02*
X122980952Y-101093333D01*
X122980952Y-101093333D02*
X122980952Y-100902857D01*
X122980952Y-100902857D02*
X123028571Y-100807619D01*
X123600000Y-101236190D02*
X123647619Y-101140952D01*
X123647619Y-101140952D02*
X123647619Y-100902857D01*
X123647619Y-100902857D02*
X123600000Y-100807619D01*
X123600000Y-100807619D02*
X123504761Y-100760000D01*
X123504761Y-100760000D02*
X123409523Y-100760000D01*
X123409523Y-100760000D02*
X123314285Y-100807619D01*
X123314285Y-100807619D02*
X123266666Y-100902857D01*
X123266666Y-100902857D02*
X123266666Y-101140952D01*
X123266666Y-101140952D02*
X123219047Y-101236190D01*
X123647619Y-101855238D02*
X123600000Y-101760000D01*
X123600000Y-101760000D02*
X123504761Y-101712381D01*
X123504761Y-101712381D02*
X122647619Y-101712381D01*
X123600000Y-102617143D02*
X123647619Y-102521905D01*
X123647619Y-102521905D02*
X123647619Y-102331429D01*
X123647619Y-102331429D02*
X123600000Y-102236191D01*
X123600000Y-102236191D02*
X123504761Y-102188572D01*
X123504761Y-102188572D02*
X123123809Y-102188572D01*
X123123809Y-102188572D02*
X123028571Y-102236191D01*
X123028571Y-102236191D02*
X122980952Y-102331429D01*
X122980952Y-102331429D02*
X122980952Y-102521905D01*
X122980952Y-102521905D02*
X123028571Y-102617143D01*
X123028571Y-102617143D02*
X123123809Y-102664762D01*
X123123809Y-102664762D02*
X123219047Y-102664762D01*
X123219047Y-102664762D02*
X123314285Y-102188572D01*
X123647619Y-104379048D02*
X123647619Y-103807620D01*
X123647619Y-104093334D02*
X122647619Y-104093334D01*
X122647619Y-104093334D02*
X122790476Y-103998096D01*
X122790476Y-103998096D02*
X122885714Y-103902858D01*
X122885714Y-103902858D02*
X122933333Y-103807620D01*
X123480000Y-85700476D02*
X123527619Y-85843333D01*
X123527619Y-85843333D02*
X123527619Y-86081428D01*
X123527619Y-86081428D02*
X123480000Y-86176666D01*
X123480000Y-86176666D02*
X123432380Y-86224285D01*
X123432380Y-86224285D02*
X123337142Y-86271904D01*
X123337142Y-86271904D02*
X123241904Y-86271904D01*
X123241904Y-86271904D02*
X123146666Y-86224285D01*
X123146666Y-86224285D02*
X123099047Y-86176666D01*
X123099047Y-86176666D02*
X123051428Y-86081428D01*
X123051428Y-86081428D02*
X123003809Y-85890952D01*
X123003809Y-85890952D02*
X122956190Y-85795714D01*
X122956190Y-85795714D02*
X122908571Y-85748095D01*
X122908571Y-85748095D02*
X122813333Y-85700476D01*
X122813333Y-85700476D02*
X122718095Y-85700476D01*
X122718095Y-85700476D02*
X122622857Y-85748095D01*
X122622857Y-85748095D02*
X122575238Y-85795714D01*
X122575238Y-85795714D02*
X122527619Y-85890952D01*
X122527619Y-85890952D02*
X122527619Y-86129047D01*
X122527619Y-86129047D02*
X122575238Y-86271904D01*
X123480000Y-87129047D02*
X123527619Y-87033809D01*
X123527619Y-87033809D02*
X123527619Y-86843333D01*
X123527619Y-86843333D02*
X123480000Y-86748095D01*
X123480000Y-86748095D02*
X123432380Y-86700476D01*
X123432380Y-86700476D02*
X123337142Y-86652857D01*
X123337142Y-86652857D02*
X123051428Y-86652857D01*
X123051428Y-86652857D02*
X122956190Y-86700476D01*
X122956190Y-86700476D02*
X122908571Y-86748095D01*
X122908571Y-86748095D02*
X122860952Y-86843333D01*
X122860952Y-86843333D02*
X122860952Y-87033809D01*
X122860952Y-87033809D02*
X122908571Y-87129047D01*
X123527619Y-87986190D02*
X123003809Y-87986190D01*
X123003809Y-87986190D02*
X122908571Y-87938571D01*
X122908571Y-87938571D02*
X122860952Y-87843333D01*
X122860952Y-87843333D02*
X122860952Y-87652857D01*
X122860952Y-87652857D02*
X122908571Y-87557619D01*
X123480000Y-87986190D02*
X123527619Y-87890952D01*
X123527619Y-87890952D02*
X123527619Y-87652857D01*
X123527619Y-87652857D02*
X123480000Y-87557619D01*
X123480000Y-87557619D02*
X123384761Y-87510000D01*
X123384761Y-87510000D02*
X123289523Y-87510000D01*
X123289523Y-87510000D02*
X123194285Y-87557619D01*
X123194285Y-87557619D02*
X123146666Y-87652857D01*
X123146666Y-87652857D02*
X123146666Y-87890952D01*
X123146666Y-87890952D02*
X123099047Y-87986190D01*
X123527619Y-88605238D02*
X123480000Y-88510000D01*
X123480000Y-88510000D02*
X123384761Y-88462381D01*
X123384761Y-88462381D02*
X122527619Y-88462381D01*
X123480000Y-89367143D02*
X123527619Y-89271905D01*
X123527619Y-89271905D02*
X123527619Y-89081429D01*
X123527619Y-89081429D02*
X123480000Y-88986191D01*
X123480000Y-88986191D02*
X123384761Y-88938572D01*
X123384761Y-88938572D02*
X123003809Y-88938572D01*
X123003809Y-88938572D02*
X122908571Y-88986191D01*
X122908571Y-88986191D02*
X122860952Y-89081429D01*
X122860952Y-89081429D02*
X122860952Y-89271905D01*
X122860952Y-89271905D02*
X122908571Y-89367143D01*
X122908571Y-89367143D02*
X123003809Y-89414762D01*
X123003809Y-89414762D02*
X123099047Y-89414762D01*
X123099047Y-89414762D02*
X123194285Y-88938572D01*
X122622857Y-90557620D02*
X122575238Y-90605239D01*
X122575238Y-90605239D02*
X122527619Y-90700477D01*
X122527619Y-90700477D02*
X122527619Y-90938572D01*
X122527619Y-90938572D02*
X122575238Y-91033810D01*
X122575238Y-91033810D02*
X122622857Y-91081429D01*
X122622857Y-91081429D02*
X122718095Y-91129048D01*
X122718095Y-91129048D02*
X122813333Y-91129048D01*
X122813333Y-91129048D02*
X122956190Y-91081429D01*
X122956190Y-91081429D02*
X123527619Y-90510001D01*
X123527619Y-90510001D02*
X123527619Y-91129048D01*
X123510000Y-71200476D02*
X123557619Y-71343333D01*
X123557619Y-71343333D02*
X123557619Y-71581428D01*
X123557619Y-71581428D02*
X123510000Y-71676666D01*
X123510000Y-71676666D02*
X123462380Y-71724285D01*
X123462380Y-71724285D02*
X123367142Y-71771904D01*
X123367142Y-71771904D02*
X123271904Y-71771904D01*
X123271904Y-71771904D02*
X123176666Y-71724285D01*
X123176666Y-71724285D02*
X123129047Y-71676666D01*
X123129047Y-71676666D02*
X123081428Y-71581428D01*
X123081428Y-71581428D02*
X123033809Y-71390952D01*
X123033809Y-71390952D02*
X122986190Y-71295714D01*
X122986190Y-71295714D02*
X122938571Y-71248095D01*
X122938571Y-71248095D02*
X122843333Y-71200476D01*
X122843333Y-71200476D02*
X122748095Y-71200476D01*
X122748095Y-71200476D02*
X122652857Y-71248095D01*
X122652857Y-71248095D02*
X122605238Y-71295714D01*
X122605238Y-71295714D02*
X122557619Y-71390952D01*
X122557619Y-71390952D02*
X122557619Y-71629047D01*
X122557619Y-71629047D02*
X122605238Y-71771904D01*
X123510000Y-72629047D02*
X123557619Y-72533809D01*
X123557619Y-72533809D02*
X123557619Y-72343333D01*
X123557619Y-72343333D02*
X123510000Y-72248095D01*
X123510000Y-72248095D02*
X123462380Y-72200476D01*
X123462380Y-72200476D02*
X123367142Y-72152857D01*
X123367142Y-72152857D02*
X123081428Y-72152857D01*
X123081428Y-72152857D02*
X122986190Y-72200476D01*
X122986190Y-72200476D02*
X122938571Y-72248095D01*
X122938571Y-72248095D02*
X122890952Y-72343333D01*
X122890952Y-72343333D02*
X122890952Y-72533809D01*
X122890952Y-72533809D02*
X122938571Y-72629047D01*
X123557619Y-73486190D02*
X123033809Y-73486190D01*
X123033809Y-73486190D02*
X122938571Y-73438571D01*
X122938571Y-73438571D02*
X122890952Y-73343333D01*
X122890952Y-73343333D02*
X122890952Y-73152857D01*
X122890952Y-73152857D02*
X122938571Y-73057619D01*
X123510000Y-73486190D02*
X123557619Y-73390952D01*
X123557619Y-73390952D02*
X123557619Y-73152857D01*
X123557619Y-73152857D02*
X123510000Y-73057619D01*
X123510000Y-73057619D02*
X123414761Y-73010000D01*
X123414761Y-73010000D02*
X123319523Y-73010000D01*
X123319523Y-73010000D02*
X123224285Y-73057619D01*
X123224285Y-73057619D02*
X123176666Y-73152857D01*
X123176666Y-73152857D02*
X123176666Y-73390952D01*
X123176666Y-73390952D02*
X123129047Y-73486190D01*
X123557619Y-74105238D02*
X123510000Y-74010000D01*
X123510000Y-74010000D02*
X123414761Y-73962381D01*
X123414761Y-73962381D02*
X122557619Y-73962381D01*
X123510000Y-74867143D02*
X123557619Y-74771905D01*
X123557619Y-74771905D02*
X123557619Y-74581429D01*
X123557619Y-74581429D02*
X123510000Y-74486191D01*
X123510000Y-74486191D02*
X123414761Y-74438572D01*
X123414761Y-74438572D02*
X123033809Y-74438572D01*
X123033809Y-74438572D02*
X122938571Y-74486191D01*
X122938571Y-74486191D02*
X122890952Y-74581429D01*
X122890952Y-74581429D02*
X122890952Y-74771905D01*
X122890952Y-74771905D02*
X122938571Y-74867143D01*
X122938571Y-74867143D02*
X123033809Y-74914762D01*
X123033809Y-74914762D02*
X123129047Y-74914762D01*
X123129047Y-74914762D02*
X123224285Y-74438572D01*
X122557619Y-76010001D02*
X122557619Y-76629048D01*
X122557619Y-76629048D02*
X122938571Y-76295715D01*
X122938571Y-76295715D02*
X122938571Y-76438572D01*
X122938571Y-76438572D02*
X122986190Y-76533810D01*
X122986190Y-76533810D02*
X123033809Y-76581429D01*
X123033809Y-76581429D02*
X123129047Y-76629048D01*
X123129047Y-76629048D02*
X123367142Y-76629048D01*
X123367142Y-76629048D02*
X123462380Y-76581429D01*
X123462380Y-76581429D02*
X123510000Y-76533810D01*
X123510000Y-76533810D02*
X123557619Y-76438572D01*
X123557619Y-76438572D02*
X123557619Y-76152858D01*
X123557619Y-76152858D02*
X123510000Y-76057620D01*
X123510000Y-76057620D02*
X123462380Y-76010001D01*
X172351904Y-75337619D02*
X172351904Y-74337619D01*
X172351904Y-74337619D02*
X171970952Y-74337619D01*
X171970952Y-74337619D02*
X171875714Y-74385238D01*
X171875714Y-74385238D02*
X171828095Y-74432857D01*
X171828095Y-74432857D02*
X171780476Y-74528095D01*
X171780476Y-74528095D02*
X171780476Y-74670952D01*
X171780476Y-74670952D02*
X171828095Y-74766190D01*
X171828095Y-74766190D02*
X171875714Y-74813809D01*
X171875714Y-74813809D02*
X171970952Y-74861428D01*
X171970952Y-74861428D02*
X172351904Y-74861428D01*
X171018571Y-74813809D02*
X170875714Y-74861428D01*
X170875714Y-74861428D02*
X170828095Y-74909047D01*
X170828095Y-74909047D02*
X170780476Y-75004285D01*
X170780476Y-75004285D02*
X170780476Y-75147142D01*
X170780476Y-75147142D02*
X170828095Y-75242380D01*
X170828095Y-75242380D02*
X170875714Y-75290000D01*
X170875714Y-75290000D02*
X170970952Y-75337619D01*
X170970952Y-75337619D02*
X171351904Y-75337619D01*
X171351904Y-75337619D02*
X171351904Y-74337619D01*
X171351904Y-74337619D02*
X171018571Y-74337619D01*
X171018571Y-74337619D02*
X170923333Y-74385238D01*
X170923333Y-74385238D02*
X170875714Y-74432857D01*
X170875714Y-74432857D02*
X170828095Y-74528095D01*
X170828095Y-74528095D02*
X170828095Y-74623333D01*
X170828095Y-74623333D02*
X170875714Y-74718571D01*
X170875714Y-74718571D02*
X170923333Y-74766190D01*
X170923333Y-74766190D02*
X171018571Y-74813809D01*
X171018571Y-74813809D02*
X171351904Y-74813809D01*
X170590000Y-75432857D02*
X169828095Y-75432857D01*
X169685237Y-74337619D02*
X169447142Y-75337619D01*
X169447142Y-75337619D02*
X169256666Y-74623333D01*
X169256666Y-74623333D02*
X169066190Y-75337619D01*
X169066190Y-75337619D02*
X168828095Y-74337619D01*
X168447142Y-75337619D02*
X168447142Y-74670952D01*
X168447142Y-74337619D02*
X168494761Y-74385238D01*
X168494761Y-74385238D02*
X168447142Y-74432857D01*
X168447142Y-74432857D02*
X168399523Y-74385238D01*
X168399523Y-74385238D02*
X168447142Y-74337619D01*
X168447142Y-74337619D02*
X168447142Y-74432857D01*
X168113809Y-74670952D02*
X167732857Y-74670952D01*
X167970952Y-75337619D02*
X167970952Y-74480476D01*
X167970952Y-74480476D02*
X167923333Y-74385238D01*
X167923333Y-74385238D02*
X167828095Y-74337619D01*
X167828095Y-74337619D02*
X167732857Y-74337619D01*
X167399523Y-75337619D02*
X167399523Y-74670952D01*
X167399523Y-74337619D02*
X167447142Y-74385238D01*
X167447142Y-74385238D02*
X167399523Y-74432857D01*
X167399523Y-74432857D02*
X167351904Y-74385238D01*
X167351904Y-74385238D02*
X167399523Y-74337619D01*
X167399523Y-74337619D02*
X167399523Y-74432857D01*
D11*
X150078572Y-85072857D02*
X151078572Y-83644285D01*
X151792858Y-85072857D02*
X151792858Y-82072857D01*
X151792858Y-82072857D02*
X150650001Y-82072857D01*
X150650001Y-82072857D02*
X150364286Y-82215714D01*
X150364286Y-82215714D02*
X150221429Y-82358571D01*
X150221429Y-82358571D02*
X150078572Y-82644285D01*
X150078572Y-82644285D02*
X150078572Y-83072857D01*
X150078572Y-83072857D02*
X150221429Y-83358571D01*
X150221429Y-83358571D02*
X150364286Y-83501428D01*
X150364286Y-83501428D02*
X150650001Y-83644285D01*
X150650001Y-83644285D02*
X151792858Y-83644285D01*
X147507144Y-85072857D02*
X147507144Y-83501428D01*
X147507144Y-83501428D02*
X147650001Y-83215714D01*
X147650001Y-83215714D02*
X147935715Y-83072857D01*
X147935715Y-83072857D02*
X148507144Y-83072857D01*
X148507144Y-83072857D02*
X148792858Y-83215714D01*
X147507144Y-84930000D02*
X147792858Y-85072857D01*
X147792858Y-85072857D02*
X148507144Y-85072857D01*
X148507144Y-85072857D02*
X148792858Y-84930000D01*
X148792858Y-84930000D02*
X148935715Y-84644285D01*
X148935715Y-84644285D02*
X148935715Y-84358571D01*
X148935715Y-84358571D02*
X148792858Y-84072857D01*
X148792858Y-84072857D02*
X148507144Y-83930000D01*
X148507144Y-83930000D02*
X147792858Y-83930000D01*
X147792858Y-83930000D02*
X147507144Y-83787142D01*
X146507143Y-83072857D02*
X145364286Y-83072857D01*
X146078572Y-82072857D02*
X146078572Y-84644285D01*
X146078572Y-84644285D02*
X145935715Y-84930000D01*
X145935715Y-84930000D02*
X145650000Y-85072857D01*
X145650000Y-85072857D02*
X145364286Y-85072857D01*
X143078572Y-85072857D02*
X143078572Y-83501428D01*
X143078572Y-83501428D02*
X143221429Y-83215714D01*
X143221429Y-83215714D02*
X143507143Y-83072857D01*
X143507143Y-83072857D02*
X144078572Y-83072857D01*
X144078572Y-83072857D02*
X144364286Y-83215714D01*
X143078572Y-84930000D02*
X143364286Y-85072857D01*
X143364286Y-85072857D02*
X144078572Y-85072857D01*
X144078572Y-85072857D02*
X144364286Y-84930000D01*
X144364286Y-84930000D02*
X144507143Y-84644285D01*
X144507143Y-84644285D02*
X144507143Y-84358571D01*
X144507143Y-84358571D02*
X144364286Y-84072857D01*
X144364286Y-84072857D02*
X144078572Y-83930000D01*
X144078572Y-83930000D02*
X143364286Y-83930000D01*
X143364286Y-83930000D02*
X143078572Y-83787142D01*
X141650000Y-85072857D02*
X141650000Y-83072857D01*
X141650000Y-83358571D02*
X141507143Y-83215714D01*
X141507143Y-83215714D02*
X141221428Y-83072857D01*
X141221428Y-83072857D02*
X140792857Y-83072857D01*
X140792857Y-83072857D02*
X140507143Y-83215714D01*
X140507143Y-83215714D02*
X140364286Y-83501428D01*
X140364286Y-83501428D02*
X140364286Y-85072857D01*
X140364286Y-83501428D02*
X140221428Y-83215714D01*
X140221428Y-83215714D02*
X139935714Y-83072857D01*
X139935714Y-83072857D02*
X139507143Y-83072857D01*
X139507143Y-83072857D02*
X139221428Y-83215714D01*
X139221428Y-83215714D02*
X139078571Y-83501428D01*
X139078571Y-83501428D02*
X139078571Y-85072857D01*
X136364286Y-83072857D02*
X136364286Y-85072857D01*
X137650000Y-83072857D02*
X137650000Y-84644285D01*
X137650000Y-84644285D02*
X137507143Y-84930000D01*
X137507143Y-84930000D02*
X137221428Y-85072857D01*
X137221428Y-85072857D02*
X136792857Y-85072857D01*
X136792857Y-85072857D02*
X136507143Y-84930000D01*
X136507143Y-84930000D02*
X136364286Y-84787142D01*
X135078571Y-84930000D02*
X134792857Y-85072857D01*
X134792857Y-85072857D02*
X134221428Y-85072857D01*
X134221428Y-85072857D02*
X133935714Y-84930000D01*
X133935714Y-84930000D02*
X133792857Y-84644285D01*
X133792857Y-84644285D02*
X133792857Y-84501428D01*
X133792857Y-84501428D02*
X133935714Y-84215714D01*
X133935714Y-84215714D02*
X134221428Y-84072857D01*
X134221428Y-84072857D02*
X134650000Y-84072857D01*
X134650000Y-84072857D02*
X134935714Y-83930000D01*
X134935714Y-83930000D02*
X135078571Y-83644285D01*
X135078571Y-83644285D02*
X135078571Y-83501428D01*
X135078571Y-83501428D02*
X134935714Y-83215714D01*
X134935714Y-83215714D02*
X134650000Y-83072857D01*
X134650000Y-83072857D02*
X134221428Y-83072857D01*
X134221428Y-83072857D02*
X133935714Y-83215714D01*
X131364286Y-84930000D02*
X131650000Y-85072857D01*
X131650000Y-85072857D02*
X132221429Y-85072857D01*
X132221429Y-85072857D02*
X132507143Y-84930000D01*
X132507143Y-84930000D02*
X132650000Y-84644285D01*
X132650000Y-84644285D02*
X132650000Y-83501428D01*
X132650000Y-83501428D02*
X132507143Y-83215714D01*
X132507143Y-83215714D02*
X132221429Y-83072857D01*
X132221429Y-83072857D02*
X131650000Y-83072857D01*
X131650000Y-83072857D02*
X131364286Y-83215714D01*
X131364286Y-83215714D02*
X131221429Y-83501428D01*
X131221429Y-83501428D02*
X131221429Y-83787142D01*
X131221429Y-83787142D02*
X132650000Y-84072857D01*
D10*
X163125714Y-75397619D02*
X163601904Y-75397619D01*
X163601904Y-75397619D02*
X163601904Y-74397619D01*
X162411428Y-75350000D02*
X162506666Y-75397619D01*
X162506666Y-75397619D02*
X162697142Y-75397619D01*
X162697142Y-75397619D02*
X162792380Y-75350000D01*
X162792380Y-75350000D02*
X162839999Y-75254761D01*
X162839999Y-75254761D02*
X162839999Y-74873809D01*
X162839999Y-74873809D02*
X162792380Y-74778571D01*
X162792380Y-74778571D02*
X162697142Y-74730952D01*
X162697142Y-74730952D02*
X162506666Y-74730952D01*
X162506666Y-74730952D02*
X162411428Y-74778571D01*
X162411428Y-74778571D02*
X162363809Y-74873809D01*
X162363809Y-74873809D02*
X162363809Y-74969047D01*
X162363809Y-74969047D02*
X162839999Y-75064285D01*
X161506666Y-75397619D02*
X161506666Y-74397619D01*
X161506666Y-75350000D02*
X161601904Y-75397619D01*
X161601904Y-75397619D02*
X161792380Y-75397619D01*
X161792380Y-75397619D02*
X161887618Y-75350000D01*
X161887618Y-75350000D02*
X161935237Y-75302380D01*
X161935237Y-75302380D02*
X161982856Y-75207142D01*
X161982856Y-75207142D02*
X161982856Y-74921428D01*
X161982856Y-74921428D02*
X161935237Y-74826190D01*
X161935237Y-74826190D02*
X161887618Y-74778571D01*
X161887618Y-74778571D02*
X161792380Y-74730952D01*
X161792380Y-74730952D02*
X161601904Y-74730952D01*
X161601904Y-74730952D02*
X161506666Y-74778571D01*
D12*
%TO.C,J9*%
X174660000Y-82450000D02*
X173410000Y-82450000D01*
X169640000Y-82150000D02*
X169640000Y-76030000D01*
X171750000Y-82150000D02*
X171750000Y-81540000D01*
X173050000Y-82150000D02*
X173050000Y-81540000D01*
X174360000Y-82150000D02*
X169640000Y-82150000D01*
X170250000Y-81540000D02*
X170250000Y-76640000D01*
X173750000Y-81540000D02*
X170250000Y-81540000D01*
X174660000Y-81200000D02*
X174660000Y-82450000D01*
X174560000Y-80690000D02*
X174360000Y-80690000D01*
X174360000Y-80390000D02*
X174560000Y-80390000D01*
X174460000Y-80390000D02*
X174460000Y-80690000D01*
X174560000Y-80390000D02*
X174560000Y-80690000D01*
X173750000Y-79590000D02*
X173750000Y-81540000D01*
X174360000Y-79590000D02*
X173750000Y-79590000D01*
X170250000Y-79190000D02*
X170750000Y-79190000D01*
X170750000Y-79190000D02*
X170750000Y-78990000D01*
X170250000Y-79090000D02*
X170750000Y-79090000D01*
X170750000Y-78990000D02*
X170250000Y-78990000D01*
X173750000Y-78590000D02*
X174360000Y-78590000D01*
X170250000Y-76640000D02*
X173750000Y-76640000D01*
X173750000Y-76640000D02*
X173750000Y-78590000D01*
X169640000Y-76030000D02*
X174360000Y-76030000D01*
X171750000Y-76030000D02*
X171750000Y-76640000D01*
X173050000Y-76030000D02*
X173050000Y-76640000D01*
X174360000Y-76030000D02*
X174360000Y-82150000D01*
%TO.C,G\u002A\u002A\u002A*%
D13*
X162675679Y-76977014D02*
X162727178Y-77026047D01*
X162743939Y-77043728D01*
X162765409Y-77055118D01*
X162793762Y-77049836D01*
X162840410Y-77028086D01*
X162861461Y-77017820D01*
X162904439Y-77002187D01*
X162939558Y-77003378D01*
X162982035Y-77020586D01*
X163009075Y-77035119D01*
X163045943Y-77067267D01*
X163070951Y-77115897D01*
X163072281Y-77119374D01*
X163092793Y-77188714D01*
X163090717Y-77239375D01*
X163063468Y-77279737D01*
X163008456Y-77318178D01*
X162966035Y-77343478D01*
X162942826Y-77361953D01*
X162940474Y-77376443D01*
X162954320Y-77393428D01*
X162972659Y-77412666D01*
X162988763Y-77432201D01*
X162990344Y-77433490D01*
X163011964Y-77429876D01*
X163048089Y-77412613D01*
X163084653Y-77395062D01*
X163166871Y-77377552D01*
X163246721Y-77386816D01*
X163316378Y-77421227D01*
X163368020Y-77479157D01*
X163375734Y-77494315D01*
X163385645Y-77543448D01*
X163375364Y-77606899D01*
X163368808Y-77629886D01*
X163351303Y-77670767D01*
X163323417Y-77700372D01*
X163274933Y-77731363D01*
X163263152Y-77737919D01*
X163188839Y-77765199D01*
X163122799Y-77761358D01*
X163060341Y-77726286D01*
X163033296Y-77712411D01*
X162993823Y-77718592D01*
X162961398Y-77754806D01*
X162959252Y-77759406D01*
X162958196Y-77779024D01*
X162973350Y-77805065D01*
X163009049Y-77845805D01*
X163042007Y-77882922D01*
X163096827Y-77960073D01*
X163121737Y-78026428D01*
X163117340Y-78084322D01*
X163084241Y-78136089D01*
X163077563Y-78142877D01*
X163031305Y-78176611D01*
X162970736Y-78194885D01*
X162908338Y-78200026D01*
X162846788Y-78184211D01*
X162793585Y-78141375D01*
X162742745Y-78068190D01*
X162687638Y-77972744D01*
X162672121Y-78024182D01*
X162668487Y-78038419D01*
X162666954Y-78076763D01*
X162680320Y-78115687D01*
X162711405Y-78158574D01*
X162763026Y-78208813D01*
X162838002Y-78269786D01*
X162939153Y-78344878D01*
X162986093Y-78378918D01*
X163054606Y-78428995D01*
X163109841Y-78469861D01*
X163147056Y-78497995D01*
X163161511Y-78509882D01*
X163162801Y-78511600D01*
X163187724Y-78528831D01*
X163236860Y-78554744D01*
X163303793Y-78586400D01*
X163382101Y-78620858D01*
X163465363Y-78655181D01*
X163547160Y-78686429D01*
X163600941Y-78705608D01*
X163717327Y-78743641D01*
X163808515Y-78767898D01*
X163872785Y-78777966D01*
X163908420Y-78773430D01*
X163913493Y-78767575D01*
X163928640Y-78734526D01*
X163947025Y-78680316D01*
X163965742Y-78613081D01*
X163972625Y-78586716D01*
X164006520Y-78483793D01*
X164048505Y-78403657D01*
X164104337Y-78337228D01*
X164179770Y-78275425D01*
X164255038Y-78227812D01*
X164407043Y-78159638D01*
X164584420Y-78110035D01*
X164785128Y-78079269D01*
X165007124Y-78067607D01*
X165248368Y-78075314D01*
X165506816Y-78102657D01*
X165627358Y-78122242D01*
X165769304Y-78151739D01*
X165904751Y-78186346D01*
X166026882Y-78224121D01*
X166128884Y-78263120D01*
X166203939Y-78301401D01*
X166232310Y-78319611D01*
X166274765Y-78350719D01*
X166307777Y-78384102D01*
X166339722Y-78429010D01*
X166378973Y-78494688D01*
X166382014Y-78499967D01*
X166419555Y-78568541D01*
X166442453Y-78621130D01*
X166454747Y-78669082D01*
X166460477Y-78723748D01*
X166461617Y-78763165D01*
X166455653Y-78815697D01*
X166436949Y-78868630D01*
X166401788Y-78935362D01*
X166363584Y-78999710D01*
X166218503Y-79207718D01*
X166054220Y-79393492D01*
X165874951Y-79552097D01*
X165819825Y-79593942D01*
X165606157Y-79740588D01*
X165400046Y-79856884D01*
X165202605Y-79942258D01*
X165014941Y-79996135D01*
X164950159Y-80008522D01*
X164815655Y-80024493D01*
X164700477Y-80021033D01*
X164597900Y-79996884D01*
X164501196Y-79950781D01*
X164403639Y-79881464D01*
X164365535Y-79851782D01*
X164285331Y-79799832D01*
X164222280Y-79775978D01*
X164188278Y-79770723D01*
X164149857Y-79772252D01*
X164124994Y-79792061D01*
X164101650Y-79836157D01*
X164094011Y-79855539D01*
X164083774Y-79895590D01*
X164076057Y-79949998D01*
X164070411Y-80023638D01*
X164066382Y-80121386D01*
X164063521Y-80248116D01*
X164063360Y-80257461D01*
X164061658Y-80346171D01*
X164059654Y-80437923D01*
X164057749Y-80514263D01*
X164059882Y-80578348D01*
X164070423Y-80642370D01*
X164087163Y-80693293D01*
X164107566Y-80727089D01*
X164129100Y-80739728D01*
X164149229Y-80727184D01*
X164165420Y-80685425D01*
X164166781Y-80679786D01*
X164201784Y-80595830D01*
X164256854Y-80531399D01*
X164326486Y-80491209D01*
X164405171Y-80479980D01*
X164454358Y-80487437D01*
X164522079Y-80519833D01*
X164565984Y-80575055D01*
X164583772Y-80650899D01*
X164581763Y-80705804D01*
X164561385Y-80767108D01*
X164516554Y-80819482D01*
X164442759Y-80869940D01*
X164427230Y-80878943D01*
X164380336Y-80907792D01*
X164355704Y-80928808D01*
X164347311Y-80948692D01*
X164349137Y-80974148D01*
X164352740Y-80994756D01*
X164362278Y-81023320D01*
X164380454Y-81032735D01*
X164414600Y-81024565D01*
X164472041Y-81000373D01*
X164486178Y-80994388D01*
X164581842Y-80968162D01*
X164670027Y-80967196D01*
X164746144Y-80989409D01*
X164805601Y-81032722D01*
X164843808Y-81095057D01*
X164856175Y-81174334D01*
X164843254Y-81242494D01*
X164802659Y-81301122D01*
X164735327Y-81339881D01*
X164642143Y-81358012D01*
X164576922Y-81355261D01*
X164494692Y-81325825D01*
X164476879Y-81316149D01*
X164435610Y-81300407D01*
X164409323Y-81299855D01*
X164395499Y-81312628D01*
X164403553Y-81331466D01*
X164444446Y-81351471D01*
X164518669Y-81372970D01*
X164549453Y-81381556D01*
X164634095Y-81421079D01*
X164689996Y-81477556D01*
X164718041Y-81551781D01*
X164718876Y-81556830D01*
X164718739Y-81632275D01*
X164689975Y-81691461D01*
X164630277Y-81739321D01*
X164591506Y-81760030D01*
X164535398Y-81778573D01*
X164484031Y-81774744D01*
X164424767Y-81749147D01*
X164399641Y-81734220D01*
X164360197Y-81697671D01*
X164329456Y-81642616D01*
X164323860Y-81630352D01*
X164283914Y-81561131D01*
X164243221Y-81523878D01*
X164200080Y-81516946D01*
X164168607Y-81531624D01*
X164152925Y-81569775D01*
X164160653Y-81631088D01*
X164191760Y-81716247D01*
X164222322Y-81799899D01*
X164232486Y-81877192D01*
X164217675Y-81947599D01*
X164177476Y-82019933D01*
X164169790Y-82030854D01*
X164136819Y-82071576D01*
X164105352Y-82093971D01*
X164062988Y-82107529D01*
X164016874Y-82112131D01*
X163950312Y-82102947D01*
X163890652Y-82079609D01*
X163851063Y-82045943D01*
X163842922Y-82033341D01*
X163811026Y-81975045D01*
X163787306Y-81918198D01*
X163777437Y-81875911D01*
X163777457Y-81873760D01*
X163784495Y-81839932D01*
X163801515Y-81786821D01*
X163825195Y-81724934D01*
X163830042Y-81713130D01*
X163852101Y-81655226D01*
X163860836Y-81618122D01*
X163857189Y-81593333D01*
X163842099Y-81572374D01*
X163813001Y-81545683D01*
X163773158Y-81528873D01*
X163727442Y-81536943D01*
X163667162Y-81569763D01*
X163605477Y-81602906D01*
X163518678Y-81633183D01*
X163435246Y-81646202D01*
X163366213Y-81639413D01*
X163360807Y-81637586D01*
X163314030Y-81610467D01*
X163272992Y-81570968D01*
X163234202Y-81500112D01*
X163222133Y-81423229D01*
X163237086Y-81349988D01*
X163275854Y-81285597D01*
X163335226Y-81235267D01*
X163411994Y-81204208D01*
X163502949Y-81197631D01*
X163592956Y-81204497D01*
X163631376Y-81015768D01*
X163541609Y-80869392D01*
X163521879Y-80837143D01*
X163488302Y-80780357D01*
X163468556Y-80740497D01*
X163459870Y-80709299D01*
X163459471Y-80678500D01*
X163464586Y-80639837D01*
X163471149Y-80585233D01*
X163469757Y-80527254D01*
X163453910Y-80492704D01*
X163422358Y-80476736D01*
X163410548Y-80475061D01*
X163391431Y-80477290D01*
X163366736Y-80488109D01*
X163331195Y-80510595D01*
X163279541Y-80547828D01*
X163206507Y-80602883D01*
X163103448Y-80677839D01*
X162970221Y-80766438D01*
X162835338Y-80848109D01*
X162705565Y-80918988D01*
X162587671Y-80975209D01*
X162488422Y-81012911D01*
X162459949Y-81020898D01*
X162371923Y-81039655D01*
X162271333Y-81054902D01*
X162173364Y-81064167D01*
X162157534Y-81065016D01*
X162050591Y-81065235D01*
X161944679Y-81054539D01*
X161835030Y-81031469D01*
X161716874Y-80994571D01*
X161585445Y-80942387D01*
X161435972Y-80873463D01*
X161263688Y-80786340D01*
X161218165Y-80762690D01*
X161082880Y-80694146D01*
X160974632Y-80642457D01*
X160891967Y-80607037D01*
X160833426Y-80587298D01*
X160797555Y-80582654D01*
X160782899Y-80592519D01*
X160784630Y-80615204D01*
X160794206Y-80663227D01*
X160809776Y-80728291D01*
X160829350Y-80802524D01*
X160850937Y-80878060D01*
X160872550Y-80947028D01*
X160879365Y-80972889D01*
X160890768Y-81034002D01*
X160901746Y-81111289D01*
X160910648Y-81194044D01*
X160915435Y-81259099D01*
X160917908Y-81437375D01*
X160904952Y-81605525D01*
X160877593Y-81759807D01*
X160836857Y-81896480D01*
X160783771Y-82011804D01*
X160719361Y-82102037D01*
X160644654Y-82163438D01*
X160624539Y-82174421D01*
X160575309Y-82194091D01*
X160525279Y-82200083D01*
X160467264Y-82191673D01*
X160394080Y-82168144D01*
X160298539Y-82128777D01*
X160224388Y-82096179D01*
X160157046Y-82065998D01*
X160106085Y-82042536D01*
X160078864Y-82029132D01*
X160063852Y-82022447D01*
X160064150Y-82031347D01*
X160085614Y-82062430D01*
X160104019Y-82090880D01*
X160130097Y-82166147D01*
X160127337Y-82240101D01*
X160096824Y-82305779D01*
X160039652Y-82356216D01*
X160006883Y-82372110D01*
X159961213Y-82379255D01*
X159902857Y-82368714D01*
X159888303Y-82364668D01*
X159842991Y-82346980D01*
X159811658Y-82319748D01*
X159780644Y-82272180D01*
X159750502Y-82205464D01*
X159733971Y-82106552D01*
X159732028Y-82075612D01*
X159724110Y-82033470D01*
X159711787Y-82020292D01*
X159703069Y-82023245D01*
X159690938Y-82040515D01*
X159691638Y-82077009D01*
X159704801Y-82138931D01*
X159719033Y-82234029D01*
X159707999Y-82311786D01*
X159670746Y-82374611D01*
X159617151Y-82419103D01*
X159548400Y-82442469D01*
X159478871Y-82435518D01*
X159414485Y-82399030D01*
X159361161Y-82333783D01*
X159360204Y-82332112D01*
X159334869Y-82258566D01*
X159342829Y-82184554D01*
X159384259Y-82108373D01*
X159407296Y-82075116D01*
X159423016Y-82038593D01*
X159412863Y-82019510D01*
X159376590Y-82014875D01*
X159373118Y-82015030D01*
X159339477Y-82025860D01*
X159314729Y-82060130D01*
X159301657Y-82094368D01*
X159300602Y-82118056D01*
X159302151Y-82122015D01*
X159295284Y-82151508D01*
X159268608Y-82190582D01*
X159228757Y-82231015D01*
X159182365Y-82264583D01*
X159173911Y-82269328D01*
X159113452Y-82292150D01*
X159052592Y-82291046D01*
X158998479Y-82271843D01*
X158943645Y-82225768D01*
X158909014Y-82163287D01*
X158898777Y-82092711D01*
X158917123Y-82022354D01*
X158935420Y-81990657D01*
X158972317Y-81948566D01*
X159023567Y-81915118D01*
X159095637Y-81886510D01*
X159194994Y-81858938D01*
X159195965Y-81858694D01*
X159214137Y-81845379D01*
X159205104Y-81817183D01*
X159198075Y-81806559D01*
X159158859Y-81772144D01*
X159112096Y-81755510D01*
X159070758Y-81761984D01*
X159021025Y-81778863D01*
X158950882Y-81785192D01*
X158879106Y-81779075D01*
X158821221Y-81760600D01*
X158770046Y-81722517D01*
X158721197Y-81659208D01*
X158692346Y-81587171D01*
X158689237Y-81517006D01*
X158706046Y-81467645D01*
X158751861Y-81405090D01*
X158814823Y-81361329D01*
X158850048Y-81350417D01*
X158926241Y-81346639D01*
X159004056Y-81362311D01*
X159068204Y-81395377D01*
X159106715Y-81421863D01*
X159167605Y-81449638D01*
X159221930Y-81459207D01*
X159263983Y-81450912D01*
X159288059Y-81425099D01*
X159288452Y-81382111D01*
X159275224Y-81347149D01*
X159250081Y-81293839D01*
X159218754Y-81234601D01*
X159215583Y-81228875D01*
X159175079Y-81138139D01*
X159162762Y-81062606D01*
X159178681Y-80998827D01*
X159222884Y-80943349D01*
X159226878Y-80939798D01*
X159308033Y-80885988D01*
X159393380Y-80865008D01*
X159486781Y-80875869D01*
X159492779Y-80877496D01*
X159547278Y-80896342D01*
X159582016Y-80921006D01*
X159609802Y-80960272D01*
X159640716Y-81031001D01*
X159653019Y-81120413D01*
X159634715Y-81203512D01*
X159630424Y-81213925D01*
X159618257Y-81254723D01*
X159618139Y-81279514D01*
X159632589Y-81285686D01*
X159673928Y-81293873D01*
X159733524Y-81302222D01*
X159802929Y-81309911D01*
X159873699Y-81316119D01*
X159937388Y-81320023D01*
X159985548Y-81320801D01*
X160009736Y-81317630D01*
X160010952Y-81316871D01*
X160015735Y-81310135D01*
X160015171Y-81296142D01*
X160007663Y-81270116D01*
X159991611Y-81227285D01*
X159965414Y-81162873D01*
X159927474Y-81072109D01*
X159912108Y-81032512D01*
X159881061Y-80938440D01*
X159848782Y-80825530D01*
X159817764Y-80703298D01*
X159790498Y-80581257D01*
X159769476Y-80468920D01*
X159757783Y-80397460D01*
X159647267Y-80372728D01*
X159612657Y-80366573D01*
X159567323Y-80362326D01*
X159510898Y-80360798D01*
X159440158Y-80362155D01*
X159351881Y-80366559D01*
X159242846Y-80374175D01*
X159109833Y-80385167D01*
X158949616Y-80399700D01*
X158758978Y-80417936D01*
X158750292Y-80418766D01*
X158686162Y-80424438D01*
X158600300Y-80431523D01*
X158502873Y-80439199D01*
X158404047Y-80446644D01*
X158393358Y-80447435D01*
X158289087Y-80455615D01*
X158183107Y-80464656D01*
X158087253Y-80473516D01*
X158013356Y-80481148D01*
X157872997Y-80488150D01*
X157718300Y-80477406D01*
X157546998Y-80447899D01*
X157353760Y-80398968D01*
X157135800Y-80325136D01*
X156904474Y-80216521D01*
X156690799Y-80080710D01*
X156491088Y-79915635D01*
X156462140Y-79888375D01*
X156424450Y-79850597D01*
X156391574Y-79812916D01*
X156359222Y-79769412D01*
X156323106Y-79714166D01*
X156278937Y-79641257D01*
X156222428Y-79544765D01*
X156213515Y-79529421D01*
X156158329Y-79433217D01*
X156117265Y-79358301D01*
X156087191Y-79298003D01*
X156064977Y-79245648D01*
X156047494Y-79194568D01*
X156031609Y-79138088D01*
X156004082Y-79014235D01*
X155978384Y-78803218D01*
X155979147Y-78598380D01*
X155979684Y-78591454D01*
X155991390Y-78497181D01*
X156011174Y-78389172D01*
X156036699Y-78276908D01*
X156065627Y-78169871D01*
X156095622Y-78077544D01*
X156124343Y-78009408D01*
X156138997Y-77982907D01*
X156190271Y-77904077D01*
X156253389Y-77820054D01*
X156319196Y-77742584D01*
X156378529Y-77683412D01*
X156380349Y-77681848D01*
X156429256Y-77645992D01*
X156500075Y-77601413D01*
X156585582Y-77551937D01*
X156678551Y-77501383D01*
X156771758Y-77453578D01*
X156857977Y-77412342D01*
X156929982Y-77381499D01*
X156980552Y-77364872D01*
X157001424Y-77360910D01*
X157084987Y-77359401D01*
X157151975Y-77381518D01*
X157198514Y-77424070D01*
X157220725Y-77483863D01*
X157214734Y-77557708D01*
X157209921Y-77574871D01*
X157194197Y-77612484D01*
X157168496Y-77636522D01*
X157121725Y-77659076D01*
X157101655Y-77667603D01*
X156994232Y-77714639D01*
X156910856Y-77754791D01*
X156844859Y-77792175D01*
X156789572Y-77830905D01*
X156738324Y-77875096D01*
X156684448Y-77928862D01*
X156616828Y-78004198D01*
X156533305Y-78119869D01*
X156473068Y-78240309D01*
X156430721Y-78375010D01*
X156411214Y-78502679D01*
X156412122Y-78664096D01*
X156436752Y-78833754D01*
X156483606Y-79004781D01*
X156551181Y-79170304D01*
X156637975Y-79323452D01*
X156720616Y-79439598D01*
X156802491Y-79534301D01*
X156887837Y-79610561D01*
X156983564Y-79675414D01*
X157114090Y-79740062D01*
X157278555Y-79791912D01*
X157463321Y-79822081D01*
X157669332Y-79830554D01*
X157897524Y-79817315D01*
X158148838Y-79782349D01*
X158424213Y-79725641D01*
X158724590Y-79647175D01*
X158813376Y-79622067D01*
X159011790Y-79568013D01*
X159190323Y-79522828D01*
X159357434Y-79484530D01*
X159521580Y-79451138D01*
X159691220Y-79420669D01*
X159996239Y-79369021D01*
X160050437Y-79280851D01*
X160162796Y-79125131D01*
X160312439Y-78972511D01*
X160489200Y-78839026D01*
X160508601Y-78826349D01*
X160580180Y-78777835D01*
X160627158Y-78742038D01*
X160653516Y-78715675D01*
X160663230Y-78695466D01*
X160658797Y-78656884D01*
X160629721Y-78597844D01*
X160577791Y-78530524D01*
X160506387Y-78459994D01*
X160414192Y-78378829D01*
X160409075Y-78435378D01*
X160407485Y-78452390D01*
X160397393Y-78533366D01*
X160383871Y-78590394D01*
X160364236Y-78631929D01*
X160335808Y-78666430D01*
X160296123Y-78699257D01*
X160226651Y-78728328D01*
X160157803Y-78725369D01*
X160094467Y-78691051D01*
X160041522Y-78626043D01*
X160027514Y-78592196D01*
X160019850Y-78529482D01*
X160030024Y-78469305D01*
X160056980Y-78425393D01*
X160087711Y-78397721D01*
X160129861Y-78357276D01*
X160151933Y-78329935D01*
X160157907Y-78310102D01*
X160151765Y-78292182D01*
X160147539Y-78285829D01*
X160134072Y-78277329D01*
X160110740Y-78279991D01*
X160070836Y-78295342D01*
X160007651Y-78324901D01*
X159934231Y-78357432D01*
X159863225Y-78378560D01*
X159808822Y-78378385D01*
X159765462Y-78356673D01*
X159727587Y-78313193D01*
X159723097Y-78306437D01*
X159686611Y-78228807D01*
X159681878Y-78158143D01*
X159709063Y-78096386D01*
X159730713Y-78070190D01*
X159776690Y-78032583D01*
X159832388Y-78014975D01*
X159909028Y-78012669D01*
X159910899Y-78012747D01*
X159970137Y-78014579D01*
X160002188Y-78013199D01*
X160013504Y-78007600D01*
X160010538Y-77996769D01*
X160003568Y-77992898D01*
X159970670Y-77987801D01*
X159921556Y-77986580D01*
X159893110Y-77986905D01*
X159818678Y-77982840D01*
X159762184Y-77969097D01*
X159711948Y-77943260D01*
X159695533Y-77931055D01*
X159654964Y-77877314D01*
X159636939Y-77811337D01*
X159641310Y-77742631D01*
X159667933Y-77680696D01*
X159716661Y-77635039D01*
X159721101Y-77632588D01*
X159775875Y-77612354D01*
X159829252Y-77605882D01*
X159848029Y-77607796D01*
X159921690Y-77626881D01*
X159992359Y-77659886D01*
X160044602Y-77700056D01*
X160046661Y-77702282D01*
X160075383Y-77722753D01*
X160098990Y-77713740D01*
X160099557Y-77713170D01*
X160108759Y-77693103D01*
X160101796Y-77661665D01*
X160076931Y-77610745D01*
X160049537Y-77556080D01*
X160015487Y-77458595D01*
X160009897Y-77376780D01*
X160032802Y-77308779D01*
X160084243Y-77252736D01*
X160131990Y-77224867D01*
X160207848Y-77209169D01*
X160283679Y-77222477D01*
X160352498Y-77263131D01*
X160407318Y-77329472D01*
X160414354Y-77342120D01*
X160430532Y-77383490D01*
X160432527Y-77427844D01*
X160421628Y-77489597D01*
X160412981Y-77533268D01*
X160407099Y-77578496D01*
X160408204Y-77601814D01*
X160408457Y-77602227D01*
X160429694Y-77618507D01*
X160467585Y-77636892D01*
X160497416Y-77647318D01*
X160520062Y-77646269D01*
X160545250Y-77629299D01*
X160583613Y-77592325D01*
X160595804Y-77580443D01*
X160677902Y-77513387D01*
X160757702Y-77469254D01*
X160828779Y-77451728D01*
X160838022Y-77451633D01*
X160899504Y-77468257D01*
X160952017Y-77509651D01*
X160991575Y-77568103D01*
X161014189Y-77635903D01*
X161015876Y-77705341D01*
X160992648Y-77768703D01*
X160991981Y-77769728D01*
X160952561Y-77810505D01*
X160894015Y-77850746D01*
X160829852Y-77882493D01*
X160773576Y-77897785D01*
X160772520Y-77897901D01*
X160757077Y-77908585D01*
X160752381Y-77939454D01*
X160757408Y-77996781D01*
X160763842Y-78037221D01*
X160775679Y-78089572D01*
X160787490Y-78121785D01*
X160791913Y-78127102D01*
X160823021Y-78150376D01*
X160873995Y-78180196D01*
X160936343Y-78211443D01*
X160983996Y-78233691D01*
X161087733Y-78283720D01*
X161166894Y-78325287D01*
X161226359Y-78361556D01*
X161271004Y-78395690D01*
X161305711Y-78430853D01*
X161335354Y-78470208D01*
X161371903Y-78531038D01*
X161406468Y-78618438D01*
X161418535Y-78708242D01*
X161407504Y-78804429D01*
X161372778Y-78910975D01*
X161313758Y-79031861D01*
X161229843Y-79171064D01*
X161219890Y-79186440D01*
X161171189Y-79260191D01*
X161127027Y-79324814D01*
X161091919Y-79373807D01*
X161070380Y-79400668D01*
X161049349Y-79428617D01*
X161044844Y-79449573D01*
X161045555Y-79450712D01*
X161073938Y-79470505D01*
X161124692Y-79487923D01*
X161186936Y-79500696D01*
X161249787Y-79506559D01*
X161302365Y-79503242D01*
X161332192Y-79496668D01*
X161366199Y-79485022D01*
X161399378Y-79465692D01*
X161440188Y-79433462D01*
X161497085Y-79383116D01*
X161522732Y-79359733D01*
X161571082Y-79314221D01*
X161606662Y-79278767D01*
X161623164Y-79259552D01*
X161628517Y-79252582D01*
X161655421Y-79224910D01*
X161698539Y-79184192D01*
X161751537Y-79136498D01*
X161837415Y-79066924D01*
X161987814Y-78972507D01*
X162140903Y-78909844D01*
X162294856Y-78879601D01*
X162447848Y-78882444D01*
X162497057Y-78886636D01*
X162535101Y-78885141D01*
X162548271Y-78877676D01*
X162537722Y-78857180D01*
X162506701Y-78814995D01*
X162460011Y-78758460D01*
X162402275Y-78692698D01*
X162338118Y-78622837D01*
X162272163Y-78554001D01*
X162209033Y-78491315D01*
X162153352Y-78439904D01*
X162013509Y-78317675D01*
X162014044Y-78235250D01*
X162016374Y-78204225D01*
X162034287Y-78138388D01*
X162071693Y-78062978D01*
X162130780Y-77973971D01*
X162213730Y-77867343D01*
X162232190Y-77844779D01*
X162272138Y-77794439D01*
X162295803Y-77758378D01*
X162306938Y-77727689D01*
X162309293Y-77693464D01*
X162306620Y-77646798D01*
X162300773Y-77563811D01*
X162228892Y-77539458D01*
X162200120Y-77528107D01*
X162156238Y-77499431D01*
X162119004Y-77454290D01*
X162080657Y-77384573D01*
X162075416Y-77372086D01*
X162072922Y-77317885D01*
X162103082Y-77266078D01*
X162164908Y-77218613D01*
X162210705Y-77195396D01*
X162251808Y-77186759D01*
X162295138Y-77194689D01*
X162333261Y-77212093D01*
X162379289Y-77246319D01*
X162413654Y-77285509D01*
X162426669Y-77320405D01*
X162427188Y-77331681D01*
X162435754Y-77335070D01*
X162458087Y-77311218D01*
X162465707Y-77298099D01*
X162466549Y-77272115D01*
X162454881Y-77245498D01*
X162439910Y-77187704D01*
X162432499Y-77127104D01*
X162435417Y-77080718D01*
X162444169Y-77059035D01*
X162473515Y-77025678D01*
X162527728Y-76989586D01*
X162575838Y-76965940D01*
X162628257Y-76957532D01*
X162675679Y-76977014D01*
G36*
X162675679Y-76977014D02*
G01*
X162727178Y-77026047D01*
X162743939Y-77043728D01*
X162765409Y-77055118D01*
X162793762Y-77049836D01*
X162840410Y-77028086D01*
X162861461Y-77017820D01*
X162904439Y-77002187D01*
X162939558Y-77003378D01*
X162982035Y-77020586D01*
X163009075Y-77035119D01*
X163045943Y-77067267D01*
X163070951Y-77115897D01*
X163072281Y-77119374D01*
X163092793Y-77188714D01*
X163090717Y-77239375D01*
X163063468Y-77279737D01*
X163008456Y-77318178D01*
X162966035Y-77343478D01*
X162942826Y-77361953D01*
X162940474Y-77376443D01*
X162954320Y-77393428D01*
X162972659Y-77412666D01*
X162988763Y-77432201D01*
X162990344Y-77433490D01*
X163011964Y-77429876D01*
X163048089Y-77412613D01*
X163084653Y-77395062D01*
X163166871Y-77377552D01*
X163246721Y-77386816D01*
X163316378Y-77421227D01*
X163368020Y-77479157D01*
X163375734Y-77494315D01*
X163385645Y-77543448D01*
X163375364Y-77606899D01*
X163368808Y-77629886D01*
X163351303Y-77670767D01*
X163323417Y-77700372D01*
X163274933Y-77731363D01*
X163263152Y-77737919D01*
X163188839Y-77765199D01*
X163122799Y-77761358D01*
X163060341Y-77726286D01*
X163033296Y-77712411D01*
X162993823Y-77718592D01*
X162961398Y-77754806D01*
X162959252Y-77759406D01*
X162958196Y-77779024D01*
X162973350Y-77805065D01*
X163009049Y-77845805D01*
X163042007Y-77882922D01*
X163096827Y-77960073D01*
X163121737Y-78026428D01*
X163117340Y-78084322D01*
X163084241Y-78136089D01*
X163077563Y-78142877D01*
X163031305Y-78176611D01*
X162970736Y-78194885D01*
X162908338Y-78200026D01*
X162846788Y-78184211D01*
X162793585Y-78141375D01*
X162742745Y-78068190D01*
X162687638Y-77972744D01*
X162672121Y-78024182D01*
X162668487Y-78038419D01*
X162666954Y-78076763D01*
X162680320Y-78115687D01*
X162711405Y-78158574D01*
X162763026Y-78208813D01*
X162838002Y-78269786D01*
X162939153Y-78344878D01*
X162986093Y-78378918D01*
X163054606Y-78428995D01*
X163109841Y-78469861D01*
X163147056Y-78497995D01*
X163161511Y-78509882D01*
X163162801Y-78511600D01*
X163187724Y-78528831D01*
X163236860Y-78554744D01*
X163303793Y-78586400D01*
X163382101Y-78620858D01*
X163465363Y-78655181D01*
X163547160Y-78686429D01*
X163600941Y-78705608D01*
X163717327Y-78743641D01*
X163808515Y-78767898D01*
X163872785Y-78777966D01*
X163908420Y-78773430D01*
X163913493Y-78767575D01*
X163928640Y-78734526D01*
X163947025Y-78680316D01*
X163965742Y-78613081D01*
X163972625Y-78586716D01*
X164006520Y-78483793D01*
X164048505Y-78403657D01*
X164104337Y-78337228D01*
X164179770Y-78275425D01*
X164255038Y-78227812D01*
X164407043Y-78159638D01*
X164584420Y-78110035D01*
X164785128Y-78079269D01*
X165007124Y-78067607D01*
X165248368Y-78075314D01*
X165506816Y-78102657D01*
X165627358Y-78122242D01*
X165769304Y-78151739D01*
X165904751Y-78186346D01*
X166026882Y-78224121D01*
X166128884Y-78263120D01*
X166203939Y-78301401D01*
X166232310Y-78319611D01*
X166274765Y-78350719D01*
X166307777Y-78384102D01*
X166339722Y-78429010D01*
X166378973Y-78494688D01*
X166382014Y-78499967D01*
X166419555Y-78568541D01*
X166442453Y-78621130D01*
X166454747Y-78669082D01*
X166460477Y-78723748D01*
X166461617Y-78763165D01*
X166455653Y-78815697D01*
X166436949Y-78868630D01*
X166401788Y-78935362D01*
X166363584Y-78999710D01*
X166218503Y-79207718D01*
X166054220Y-79393492D01*
X165874951Y-79552097D01*
X165819825Y-79593942D01*
X165606157Y-79740588D01*
X165400046Y-79856884D01*
X165202605Y-79942258D01*
X165014941Y-79996135D01*
X164950159Y-80008522D01*
X164815655Y-80024493D01*
X164700477Y-80021033D01*
X164597900Y-79996884D01*
X164501196Y-79950781D01*
X164403639Y-79881464D01*
X164365535Y-79851782D01*
X164285331Y-79799832D01*
X164222280Y-79775978D01*
X164188278Y-79770723D01*
X164149857Y-79772252D01*
X164124994Y-79792061D01*
X164101650Y-79836157D01*
X164094011Y-79855539D01*
X164083774Y-79895590D01*
X164076057Y-79949998D01*
X164070411Y-80023638D01*
X164066382Y-80121386D01*
X164063521Y-80248116D01*
X164063360Y-80257461D01*
X164061658Y-80346171D01*
X164059654Y-80437923D01*
X164057749Y-80514263D01*
X164059882Y-80578348D01*
X164070423Y-80642370D01*
X164087163Y-80693293D01*
X164107566Y-80727089D01*
X164129100Y-80739728D01*
X164149229Y-80727184D01*
X164165420Y-80685425D01*
X164166781Y-80679786D01*
X164201784Y-80595830D01*
X164256854Y-80531399D01*
X164326486Y-80491209D01*
X164405171Y-80479980D01*
X164454358Y-80487437D01*
X164522079Y-80519833D01*
X164565984Y-80575055D01*
X164583772Y-80650899D01*
X164581763Y-80705804D01*
X164561385Y-80767108D01*
X164516554Y-80819482D01*
X164442759Y-80869940D01*
X164427230Y-80878943D01*
X164380336Y-80907792D01*
X164355704Y-80928808D01*
X164347311Y-80948692D01*
X164349137Y-80974148D01*
X164352740Y-80994756D01*
X164362278Y-81023320D01*
X164380454Y-81032735D01*
X164414600Y-81024565D01*
X164472041Y-81000373D01*
X164486178Y-80994388D01*
X164581842Y-80968162D01*
X164670027Y-80967196D01*
X164746144Y-80989409D01*
X164805601Y-81032722D01*
X164843808Y-81095057D01*
X164856175Y-81174334D01*
X164843254Y-81242494D01*
X164802659Y-81301122D01*
X164735327Y-81339881D01*
X164642143Y-81358012D01*
X164576922Y-81355261D01*
X164494692Y-81325825D01*
X164476879Y-81316149D01*
X164435610Y-81300407D01*
X164409323Y-81299855D01*
X164395499Y-81312628D01*
X164403553Y-81331466D01*
X164444446Y-81351471D01*
X164518669Y-81372970D01*
X164549453Y-81381556D01*
X164634095Y-81421079D01*
X164689996Y-81477556D01*
X164718041Y-81551781D01*
X164718876Y-81556830D01*
X164718739Y-81632275D01*
X164689975Y-81691461D01*
X164630277Y-81739321D01*
X164591506Y-81760030D01*
X164535398Y-81778573D01*
X164484031Y-81774744D01*
X164424767Y-81749147D01*
X164399641Y-81734220D01*
X164360197Y-81697671D01*
X164329456Y-81642616D01*
X164323860Y-81630352D01*
X164283914Y-81561131D01*
X164243221Y-81523878D01*
X164200080Y-81516946D01*
X164168607Y-81531624D01*
X164152925Y-81569775D01*
X164160653Y-81631088D01*
X164191760Y-81716247D01*
X164222322Y-81799899D01*
X164232486Y-81877192D01*
X164217675Y-81947599D01*
X164177476Y-82019933D01*
X164169790Y-82030854D01*
X164136819Y-82071576D01*
X164105352Y-82093971D01*
X164062988Y-82107529D01*
X164016874Y-82112131D01*
X163950312Y-82102947D01*
X163890652Y-82079609D01*
X163851063Y-82045943D01*
X163842922Y-82033341D01*
X163811026Y-81975045D01*
X163787306Y-81918198D01*
X163777437Y-81875911D01*
X163777457Y-81873760D01*
X163784495Y-81839932D01*
X163801515Y-81786821D01*
X163825195Y-81724934D01*
X163830042Y-81713130D01*
X163852101Y-81655226D01*
X163860836Y-81618122D01*
X163857189Y-81593333D01*
X163842099Y-81572374D01*
X163813001Y-81545683D01*
X163773158Y-81528873D01*
X163727442Y-81536943D01*
X163667162Y-81569763D01*
X163605477Y-81602906D01*
X163518678Y-81633183D01*
X163435246Y-81646202D01*
X163366213Y-81639413D01*
X163360807Y-81637586D01*
X163314030Y-81610467D01*
X163272992Y-81570968D01*
X163234202Y-81500112D01*
X163222133Y-81423229D01*
X163237086Y-81349988D01*
X163275854Y-81285597D01*
X163335226Y-81235267D01*
X163411994Y-81204208D01*
X163502949Y-81197631D01*
X163592956Y-81204497D01*
X163631376Y-81015768D01*
X163541609Y-80869392D01*
X163521879Y-80837143D01*
X163488302Y-80780357D01*
X163468556Y-80740497D01*
X163459870Y-80709299D01*
X163459471Y-80678500D01*
X163464586Y-80639837D01*
X163471149Y-80585233D01*
X163469757Y-80527254D01*
X163453910Y-80492704D01*
X163422358Y-80476736D01*
X163410548Y-80475061D01*
X163391431Y-80477290D01*
X163366736Y-80488109D01*
X163331195Y-80510595D01*
X163279541Y-80547828D01*
X163206507Y-80602883D01*
X163103448Y-80677839D01*
X162970221Y-80766438D01*
X162835338Y-80848109D01*
X162705565Y-80918988D01*
X162587671Y-80975209D01*
X162488422Y-81012911D01*
X162459949Y-81020898D01*
X162371923Y-81039655D01*
X162271333Y-81054902D01*
X162173364Y-81064167D01*
X162157534Y-81065016D01*
X162050591Y-81065235D01*
X161944679Y-81054539D01*
X161835030Y-81031469D01*
X161716874Y-80994571D01*
X161585445Y-80942387D01*
X161435972Y-80873463D01*
X161263688Y-80786340D01*
X161218165Y-80762690D01*
X161082880Y-80694146D01*
X160974632Y-80642457D01*
X160891967Y-80607037D01*
X160833426Y-80587298D01*
X160797555Y-80582654D01*
X160782899Y-80592519D01*
X160784630Y-80615204D01*
X160794206Y-80663227D01*
X160809776Y-80728291D01*
X160829350Y-80802524D01*
X160850937Y-80878060D01*
X160872550Y-80947028D01*
X160879365Y-80972889D01*
X160890768Y-81034002D01*
X160901746Y-81111289D01*
X160910648Y-81194044D01*
X160915435Y-81259099D01*
X160917908Y-81437375D01*
X160904952Y-81605525D01*
X160877593Y-81759807D01*
X160836857Y-81896480D01*
X160783771Y-82011804D01*
X160719361Y-82102037D01*
X160644654Y-82163438D01*
X160624539Y-82174421D01*
X160575309Y-82194091D01*
X160525279Y-82200083D01*
X160467264Y-82191673D01*
X160394080Y-82168144D01*
X160298539Y-82128777D01*
X160224388Y-82096179D01*
X160157046Y-82065998D01*
X160106085Y-82042536D01*
X160078864Y-82029132D01*
X160063852Y-82022447D01*
X160064150Y-82031347D01*
X160085614Y-82062430D01*
X160104019Y-82090880D01*
X160130097Y-82166147D01*
X160127337Y-82240101D01*
X160096824Y-82305779D01*
X160039652Y-82356216D01*
X160006883Y-82372110D01*
X159961213Y-82379255D01*
X159902857Y-82368714D01*
X159888303Y-82364668D01*
X159842991Y-82346980D01*
X159811658Y-82319748D01*
X159780644Y-82272180D01*
X159750502Y-82205464D01*
X159733971Y-82106552D01*
X159732028Y-82075612D01*
X159724110Y-82033470D01*
X159711787Y-82020292D01*
X159703069Y-82023245D01*
X159690938Y-82040515D01*
X159691638Y-82077009D01*
X159704801Y-82138931D01*
X159719033Y-82234029D01*
X159707999Y-82311786D01*
X159670746Y-82374611D01*
X159617151Y-82419103D01*
X159548400Y-82442469D01*
X159478871Y-82435518D01*
X159414485Y-82399030D01*
X159361161Y-82333783D01*
X159360204Y-82332112D01*
X159334869Y-82258566D01*
X159342829Y-82184554D01*
X159384259Y-82108373D01*
X159407296Y-82075116D01*
X159423016Y-82038593D01*
X159412863Y-82019510D01*
X159376590Y-82014875D01*
X159373118Y-82015030D01*
X159339477Y-82025860D01*
X159314729Y-82060130D01*
X159301657Y-82094368D01*
X159300602Y-82118056D01*
X159302151Y-82122015D01*
X159295284Y-82151508D01*
X159268608Y-82190582D01*
X159228757Y-82231015D01*
X159182365Y-82264583D01*
X159173911Y-82269328D01*
X159113452Y-82292150D01*
X159052592Y-82291046D01*
X158998479Y-82271843D01*
X158943645Y-82225768D01*
X158909014Y-82163287D01*
X158898777Y-82092711D01*
X158917123Y-82022354D01*
X158935420Y-81990657D01*
X158972317Y-81948566D01*
X159023567Y-81915118D01*
X159095637Y-81886510D01*
X159194994Y-81858938D01*
X159195965Y-81858694D01*
X159214137Y-81845379D01*
X159205104Y-81817183D01*
X159198075Y-81806559D01*
X159158859Y-81772144D01*
X159112096Y-81755510D01*
X159070758Y-81761984D01*
X159021025Y-81778863D01*
X158950882Y-81785192D01*
X158879106Y-81779075D01*
X158821221Y-81760600D01*
X158770046Y-81722517D01*
X158721197Y-81659208D01*
X158692346Y-81587171D01*
X158689237Y-81517006D01*
X158706046Y-81467645D01*
X158751861Y-81405090D01*
X158814823Y-81361329D01*
X158850048Y-81350417D01*
X158926241Y-81346639D01*
X159004056Y-81362311D01*
X159068204Y-81395377D01*
X159106715Y-81421863D01*
X159167605Y-81449638D01*
X159221930Y-81459207D01*
X159263983Y-81450912D01*
X159288059Y-81425099D01*
X159288452Y-81382111D01*
X159275224Y-81347149D01*
X159250081Y-81293839D01*
X159218754Y-81234601D01*
X159215583Y-81228875D01*
X159175079Y-81138139D01*
X159162762Y-81062606D01*
X159178681Y-80998827D01*
X159222884Y-80943349D01*
X159226878Y-80939798D01*
X159308033Y-80885988D01*
X159393380Y-80865008D01*
X159486781Y-80875869D01*
X159492779Y-80877496D01*
X159547278Y-80896342D01*
X159582016Y-80921006D01*
X159609802Y-80960272D01*
X159640716Y-81031001D01*
X159653019Y-81120413D01*
X159634715Y-81203512D01*
X159630424Y-81213925D01*
X159618257Y-81254723D01*
X159618139Y-81279514D01*
X159632589Y-81285686D01*
X159673928Y-81293873D01*
X159733524Y-81302222D01*
X159802929Y-81309911D01*
X159873699Y-81316119D01*
X159937388Y-81320023D01*
X159985548Y-81320801D01*
X160009736Y-81317630D01*
X160010952Y-81316871D01*
X160015735Y-81310135D01*
X160015171Y-81296142D01*
X160007663Y-81270116D01*
X159991611Y-81227285D01*
X159965414Y-81162873D01*
X159927474Y-81072109D01*
X159912108Y-81032512D01*
X159881061Y-80938440D01*
X159848782Y-80825530D01*
X159817764Y-80703298D01*
X159790498Y-80581257D01*
X159769476Y-80468920D01*
X159757783Y-80397460D01*
X159647267Y-80372728D01*
X159612657Y-80366573D01*
X159567323Y-80362326D01*
X159510898Y-80360798D01*
X159440158Y-80362155D01*
X159351881Y-80366559D01*
X159242846Y-80374175D01*
X159109833Y-80385167D01*
X158949616Y-80399700D01*
X158758978Y-80417936D01*
X158750292Y-80418766D01*
X158686162Y-80424438D01*
X158600300Y-80431523D01*
X158502873Y-80439199D01*
X158404047Y-80446644D01*
X158393358Y-80447435D01*
X158289087Y-80455615D01*
X158183107Y-80464656D01*
X158087253Y-80473516D01*
X158013356Y-80481148D01*
X157872997Y-80488150D01*
X157718300Y-80477406D01*
X157546998Y-80447899D01*
X157353760Y-80398968D01*
X157135800Y-80325136D01*
X156904474Y-80216521D01*
X156690799Y-80080710D01*
X156491088Y-79915635D01*
X156462140Y-79888375D01*
X156424450Y-79850597D01*
X156391574Y-79812916D01*
X156359222Y-79769412D01*
X156323106Y-79714166D01*
X156278937Y-79641257D01*
X156222428Y-79544765D01*
X156213515Y-79529421D01*
X156158329Y-79433217D01*
X156117265Y-79358301D01*
X156087191Y-79298003D01*
X156064977Y-79245648D01*
X156047494Y-79194568D01*
X156031609Y-79138088D01*
X156004082Y-79014235D01*
X155978384Y-78803218D01*
X155979147Y-78598380D01*
X155979684Y-78591454D01*
X155991390Y-78497181D01*
X156011174Y-78389172D01*
X156036699Y-78276908D01*
X156065627Y-78169871D01*
X156095622Y-78077544D01*
X156124343Y-78009408D01*
X156138997Y-77982907D01*
X156190271Y-77904077D01*
X156253389Y-77820054D01*
X156319196Y-77742584D01*
X156378529Y-77683412D01*
X156380349Y-77681848D01*
X156429256Y-77645992D01*
X156500075Y-77601413D01*
X156585582Y-77551937D01*
X156678551Y-77501383D01*
X156771758Y-77453578D01*
X156857977Y-77412342D01*
X156929982Y-77381499D01*
X156980552Y-77364872D01*
X157001424Y-77360910D01*
X157084987Y-77359401D01*
X157151975Y-77381518D01*
X157198514Y-77424070D01*
X157220725Y-77483863D01*
X157214734Y-77557708D01*
X157209921Y-77574871D01*
X157194197Y-77612484D01*
X157168496Y-77636522D01*
X157121725Y-77659076D01*
X157101655Y-77667603D01*
X156994232Y-77714639D01*
X156910856Y-77754791D01*
X156844859Y-77792175D01*
X156789572Y-77830905D01*
X156738324Y-77875096D01*
X156684448Y-77928862D01*
X156616828Y-78004198D01*
X156533305Y-78119869D01*
X156473068Y-78240309D01*
X156430721Y-78375010D01*
X156411214Y-78502679D01*
X156412122Y-78664096D01*
X156436752Y-78833754D01*
X156483606Y-79004781D01*
X156551181Y-79170304D01*
X156637975Y-79323452D01*
X156720616Y-79439598D01*
X156802491Y-79534301D01*
X156887837Y-79610561D01*
X156983564Y-79675414D01*
X157114090Y-79740062D01*
X157278555Y-79791912D01*
X157463321Y-79822081D01*
X157669332Y-79830554D01*
X157897524Y-79817315D01*
X158148838Y-79782349D01*
X158424213Y-79725641D01*
X158724590Y-79647175D01*
X158813376Y-79622067D01*
X159011790Y-79568013D01*
X159190323Y-79522828D01*
X159357434Y-79484530D01*
X159521580Y-79451138D01*
X159691220Y-79420669D01*
X159996239Y-79369021D01*
X160050437Y-79280851D01*
X160162796Y-79125131D01*
X160312439Y-78972511D01*
X160489200Y-78839026D01*
X160508601Y-78826349D01*
X160580180Y-78777835D01*
X160627158Y-78742038D01*
X160653516Y-78715675D01*
X160663230Y-78695466D01*
X160658797Y-78656884D01*
X160629721Y-78597844D01*
X160577791Y-78530524D01*
X160506387Y-78459994D01*
X160414192Y-78378829D01*
X160409075Y-78435378D01*
X160407485Y-78452390D01*
X160397393Y-78533366D01*
X160383871Y-78590394D01*
X160364236Y-78631929D01*
X160335808Y-78666430D01*
X160296123Y-78699257D01*
X160226651Y-78728328D01*
X160157803Y-78725369D01*
X160094467Y-78691051D01*
X160041522Y-78626043D01*
X160027514Y-78592196D01*
X160019850Y-78529482D01*
X160030024Y-78469305D01*
X160056980Y-78425393D01*
X160087711Y-78397721D01*
X160129861Y-78357276D01*
X160151933Y-78329935D01*
X160157907Y-78310102D01*
X160151765Y-78292182D01*
X160147539Y-78285829D01*
X160134072Y-78277329D01*
X160110740Y-78279991D01*
X160070836Y-78295342D01*
X160007651Y-78324901D01*
X159934231Y-78357432D01*
X159863225Y-78378560D01*
X159808822Y-78378385D01*
X159765462Y-78356673D01*
X159727587Y-78313193D01*
X159723097Y-78306437D01*
X159686611Y-78228807D01*
X159681878Y-78158143D01*
X159709063Y-78096386D01*
X159730713Y-78070190D01*
X159776690Y-78032583D01*
X159832388Y-78014975D01*
X159909028Y-78012669D01*
X159910899Y-78012747D01*
X159970137Y-78014579D01*
X160002188Y-78013199D01*
X160013504Y-78007600D01*
X160010538Y-77996769D01*
X160003568Y-77992898D01*
X159970670Y-77987801D01*
X159921556Y-77986580D01*
X159893110Y-77986905D01*
X159818678Y-77982840D01*
X159762184Y-77969097D01*
X159711948Y-77943260D01*
X159695533Y-77931055D01*
X159654964Y-77877314D01*
X159636939Y-77811337D01*
X159641310Y-77742631D01*
X159667933Y-77680696D01*
X159716661Y-77635039D01*
X159721101Y-77632588D01*
X159775875Y-77612354D01*
X159829252Y-77605882D01*
X159848029Y-77607796D01*
X159921690Y-77626881D01*
X159992359Y-77659886D01*
X160044602Y-77700056D01*
X160046661Y-77702282D01*
X160075383Y-77722753D01*
X160098990Y-77713740D01*
X160099557Y-77713170D01*
X160108759Y-77693103D01*
X160101796Y-77661665D01*
X160076931Y-77610745D01*
X160049537Y-77556080D01*
X160015487Y-77458595D01*
X160009897Y-77376780D01*
X160032802Y-77308779D01*
X160084243Y-77252736D01*
X160131990Y-77224867D01*
X160207848Y-77209169D01*
X160283679Y-77222477D01*
X160352498Y-77263131D01*
X160407318Y-77329472D01*
X160414354Y-77342120D01*
X160430532Y-77383490D01*
X160432527Y-77427844D01*
X160421628Y-77489597D01*
X160412981Y-77533268D01*
X160407099Y-77578496D01*
X160408204Y-77601814D01*
X160408457Y-77602227D01*
X160429694Y-77618507D01*
X160467585Y-77636892D01*
X160497416Y-77647318D01*
X160520062Y-77646269D01*
X160545250Y-77629299D01*
X160583613Y-77592325D01*
X160595804Y-77580443D01*
X160677902Y-77513387D01*
X160757702Y-77469254D01*
X160828779Y-77451728D01*
X160838022Y-77451633D01*
X160899504Y-77468257D01*
X160952017Y-77509651D01*
X160991575Y-77568103D01*
X161014189Y-77635903D01*
X161015876Y-77705341D01*
X160992648Y-77768703D01*
X160991981Y-77769728D01*
X160952561Y-77810505D01*
X160894015Y-77850746D01*
X160829852Y-77882493D01*
X160773576Y-77897785D01*
X160772520Y-77897901D01*
X160757077Y-77908585D01*
X160752381Y-77939454D01*
X160757408Y-77996781D01*
X160763842Y-78037221D01*
X160775679Y-78089572D01*
X160787490Y-78121785D01*
X160791913Y-78127102D01*
X160823021Y-78150376D01*
X160873995Y-78180196D01*
X160936343Y-78211443D01*
X160983996Y-78233691D01*
X161087733Y-78283720D01*
X161166894Y-78325287D01*
X161226359Y-78361556D01*
X161271004Y-78395690D01*
X161305711Y-78430853D01*
X161335354Y-78470208D01*
X161371903Y-78531038D01*
X161406468Y-78618438D01*
X161418535Y-78708242D01*
X161407504Y-78804429D01*
X161372778Y-78910975D01*
X161313758Y-79031861D01*
X161229843Y-79171064D01*
X161219890Y-79186440D01*
X161171189Y-79260191D01*
X161127027Y-79324814D01*
X161091919Y-79373807D01*
X161070380Y-79400668D01*
X161049349Y-79428617D01*
X161044844Y-79449573D01*
X161045555Y-79450712D01*
X161073938Y-79470505D01*
X161124692Y-79487923D01*
X161186936Y-79500696D01*
X161249787Y-79506559D01*
X161302365Y-79503242D01*
X161332192Y-79496668D01*
X161366199Y-79485022D01*
X161399378Y-79465692D01*
X161440188Y-79433462D01*
X161497085Y-79383116D01*
X161522732Y-79359733D01*
X161571082Y-79314221D01*
X161606662Y-79278767D01*
X161623164Y-79259552D01*
X161628517Y-79252582D01*
X161655421Y-79224910D01*
X161698539Y-79184192D01*
X161751537Y-79136498D01*
X161837415Y-79066924D01*
X161987814Y-78972507D01*
X162140903Y-78909844D01*
X162294856Y-78879601D01*
X162447848Y-78882444D01*
X162497057Y-78886636D01*
X162535101Y-78885141D01*
X162548271Y-78877676D01*
X162537722Y-78857180D01*
X162506701Y-78814995D01*
X162460011Y-78758460D01*
X162402275Y-78692698D01*
X162338118Y-78622837D01*
X162272163Y-78554001D01*
X162209033Y-78491315D01*
X162153352Y-78439904D01*
X162013509Y-78317675D01*
X162014044Y-78235250D01*
X162016374Y-78204225D01*
X162034287Y-78138388D01*
X162071693Y-78062978D01*
X162130780Y-77973971D01*
X162213730Y-77867343D01*
X162232190Y-77844779D01*
X162272138Y-77794439D01*
X162295803Y-77758378D01*
X162306938Y-77727689D01*
X162309293Y-77693464D01*
X162306620Y-77646798D01*
X162300773Y-77563811D01*
X162228892Y-77539458D01*
X162200120Y-77528107D01*
X162156238Y-77499431D01*
X162119004Y-77454290D01*
X162080657Y-77384573D01*
X162075416Y-77372086D01*
X162072922Y-77317885D01*
X162103082Y-77266078D01*
X162164908Y-77218613D01*
X162210705Y-77195396D01*
X162251808Y-77186759D01*
X162295138Y-77194689D01*
X162333261Y-77212093D01*
X162379289Y-77246319D01*
X162413654Y-77285509D01*
X162426669Y-77320405D01*
X162427188Y-77331681D01*
X162435754Y-77335070D01*
X162458087Y-77311218D01*
X162465707Y-77298099D01*
X162466549Y-77272115D01*
X162454881Y-77245498D01*
X162439910Y-77187704D01*
X162432499Y-77127104D01*
X162435417Y-77080718D01*
X162444169Y-77059035D01*
X162473515Y-77025678D01*
X162527728Y-76989586D01*
X162575838Y-76965940D01*
X162628257Y-76957532D01*
X162675679Y-76977014D01*
G37*
D12*
%TO.C,J11*%
X173320000Y-68500000D02*
X173320000Y-69750000D01*
X173020000Y-73520000D02*
X166900000Y-73520000D01*
X173020000Y-71410000D02*
X172410000Y-71410000D01*
X173020000Y-70110000D02*
X172410000Y-70110000D01*
X173020000Y-68800000D02*
X173020000Y-73520000D01*
X172410000Y-72910000D02*
X167510000Y-72910000D01*
X172410000Y-69410000D02*
X172410000Y-72910000D01*
X172070000Y-68500000D02*
X173320000Y-68500000D01*
X171560000Y-68600000D02*
X171560000Y-68800000D01*
X171260000Y-68800000D02*
X171260000Y-68600000D01*
X171260000Y-68700000D02*
X171560000Y-68700000D01*
X171260000Y-68600000D02*
X171560000Y-68600000D01*
X170460000Y-69410000D02*
X172410000Y-69410000D01*
X170460000Y-68800000D02*
X170460000Y-69410000D01*
X170060000Y-72910000D02*
X170060000Y-72410000D01*
X170060000Y-72410000D02*
X169860000Y-72410000D01*
X169960000Y-72910000D02*
X169960000Y-72410000D01*
X169860000Y-72410000D02*
X169860000Y-72910000D01*
X169460000Y-69410000D02*
X169460000Y-68800000D01*
X167510000Y-72910000D02*
X167510000Y-69410000D01*
X167510000Y-69410000D02*
X169460000Y-69410000D01*
X166900000Y-73520000D02*
X166900000Y-68800000D01*
X166900000Y-71410000D02*
X167510000Y-71410000D01*
X166900000Y-70110000D02*
X167510000Y-70110000D01*
X166900000Y-68800000D02*
X173020000Y-68800000D01*
D14*
%TO.C,J3*%
X120930000Y-96340000D02*
X108930000Y-96340000D01*
X108930000Y-96340000D02*
X108930000Y-106340000D01*
X120930000Y-106340000D02*
X120930000Y-96340000D01*
X108930000Y-106340000D02*
X120930000Y-106340000D01*
D12*
%TO.C,J9*%
X166210000Y-68490000D02*
X166210000Y-69740000D01*
X165910000Y-73510000D02*
X159790000Y-73510000D01*
X165910000Y-71400000D02*
X165300000Y-71400000D01*
X165910000Y-70100000D02*
X165300000Y-70100000D01*
X165910000Y-68790000D02*
X165910000Y-73510000D01*
X165300000Y-72900000D02*
X160400000Y-72900000D01*
X165300000Y-69400000D02*
X165300000Y-72900000D01*
X164960000Y-68490000D02*
X166210000Y-68490000D01*
X164450000Y-68590000D02*
X164450000Y-68790000D01*
X164150000Y-68790000D02*
X164150000Y-68590000D01*
X164150000Y-68690000D02*
X164450000Y-68690000D01*
X164150000Y-68590000D02*
X164450000Y-68590000D01*
X163350000Y-69400000D02*
X165300000Y-69400000D01*
X163350000Y-68790000D02*
X163350000Y-69400000D01*
X162950000Y-72900000D02*
X162950000Y-72400000D01*
X162950000Y-72400000D02*
X162750000Y-72400000D01*
X162850000Y-72900000D02*
X162850000Y-72400000D01*
X162750000Y-72400000D02*
X162750000Y-72900000D01*
X162350000Y-69400000D02*
X162350000Y-68790000D01*
X160400000Y-72900000D02*
X160400000Y-69400000D01*
X160400000Y-69400000D02*
X162350000Y-69400000D01*
X159790000Y-73510000D02*
X159790000Y-68790000D01*
X159790000Y-71400000D02*
X160400000Y-71400000D01*
X159790000Y-70100000D02*
X160400000Y-70100000D01*
X159790000Y-68790000D02*
X165910000Y-68790000D01*
D14*
%TO.C,J8*%
X109010000Y-79310000D02*
X121010000Y-79310000D01*
X121010000Y-79310000D02*
X121010000Y-69310000D01*
X109010000Y-69310000D02*
X109010000Y-79310000D01*
X121010000Y-69310000D02*
X109010000Y-69310000D01*
%TO.C,J7*%
X173680000Y-84120000D02*
X161680000Y-84120000D01*
X161680000Y-84120000D02*
X161680000Y-94120000D01*
X173680000Y-94120000D02*
X173680000Y-84120000D01*
X161680000Y-94120000D02*
X173680000Y-94120000D01*
%TO.C,J4*%
X108970000Y-92670000D02*
X120970000Y-92670000D01*
X120970000Y-92670000D02*
X120970000Y-82670000D01*
X108970000Y-82670000D02*
X108970000Y-92670000D01*
X120970000Y-82670000D02*
X108970000Y-82670000D01*
%TO.C,J5*%
X173710000Y-97370000D02*
X161710000Y-97370000D01*
X161710000Y-97370000D02*
X161710000Y-107370000D01*
X173710000Y-107370000D02*
X173710000Y-97370000D01*
X161710000Y-107370000D02*
X173710000Y-107370000D01*
%TD*%
M02*
