%TF.GenerationSoftware,KiCad,Pcbnew,7.0.2*%
%TF.CreationDate,2024-03-22T11:27:14+01:00*%
%TF.ProjectId,Support_TTGO_invers_,53757070-6f72-4745-9f54-54474f5f696e,rev?*%
%TF.SameCoordinates,Original*%
%TF.FileFunction,Legend,Top*%
%TF.FilePolarity,Positive*%
%FSLAX46Y46*%
G04 Gerber Fmt 4.6, Leading zero omitted, Abs format (unit mm)*
G04 Created by KiCad (PCBNEW 7.0.2) date 2024-03-22 11:27:14*
%MOMM*%
%LPD*%
G01*
G04 APERTURE LIST*
%ADD10C,0.150000*%
%ADD11C,0.500000*%
%ADD12C,0.120000*%
%ADD13C,0.100000*%
G04 APERTURE END LIST*
D10*
X158819048Y-83326095D02*
X159085715Y-84126095D01*
X159085715Y-84126095D02*
X159352381Y-83326095D01*
X159961905Y-84088000D02*
X159885714Y-84126095D01*
X159885714Y-84126095D02*
X159733333Y-84126095D01*
X159733333Y-84126095D02*
X159657143Y-84088000D01*
X159657143Y-84088000D02*
X159619048Y-84049904D01*
X159619048Y-84049904D02*
X159580952Y-83973714D01*
X159580952Y-83973714D02*
X159580952Y-83745142D01*
X159580952Y-83745142D02*
X159619048Y-83668952D01*
X159619048Y-83668952D02*
X159657143Y-83630857D01*
X159657143Y-83630857D02*
X159733333Y-83592761D01*
X159733333Y-83592761D02*
X159885714Y-83592761D01*
X159885714Y-83592761D02*
X159961905Y-83630857D01*
X160647619Y-84088000D02*
X160571428Y-84126095D01*
X160571428Y-84126095D02*
X160419047Y-84126095D01*
X160419047Y-84126095D02*
X160342857Y-84088000D01*
X160342857Y-84088000D02*
X160304762Y-84049904D01*
X160304762Y-84049904D02*
X160266666Y-83973714D01*
X160266666Y-83973714D02*
X160266666Y-83745142D01*
X160266666Y-83745142D02*
X160304762Y-83668952D01*
X160304762Y-83668952D02*
X160342857Y-83630857D01*
X160342857Y-83630857D02*
X160419047Y-83592761D01*
X160419047Y-83592761D02*
X160571428Y-83592761D01*
X160571428Y-83592761D02*
X160647619Y-83630857D01*
X158285713Y-86718095D02*
X158285713Y-85918095D01*
X158285713Y-85918095D02*
X158476189Y-85918095D01*
X158476189Y-85918095D02*
X158590475Y-85956190D01*
X158590475Y-85956190D02*
X158666665Y-86032380D01*
X158666665Y-86032380D02*
X158704760Y-86108571D01*
X158704760Y-86108571D02*
X158742856Y-86260952D01*
X158742856Y-86260952D02*
X158742856Y-86375238D01*
X158742856Y-86375238D02*
X158704760Y-86527619D01*
X158704760Y-86527619D02*
X158666665Y-86603809D01*
X158666665Y-86603809D02*
X158590475Y-86680000D01*
X158590475Y-86680000D02*
X158476189Y-86718095D01*
X158476189Y-86718095D02*
X158285713Y-86718095D01*
X159428570Y-86718095D02*
X159428570Y-86299047D01*
X159428570Y-86299047D02*
X159390475Y-86222857D01*
X159390475Y-86222857D02*
X159314284Y-86184761D01*
X159314284Y-86184761D02*
X159161903Y-86184761D01*
X159161903Y-86184761D02*
X159085713Y-86222857D01*
X159428570Y-86680000D02*
X159352379Y-86718095D01*
X159352379Y-86718095D02*
X159161903Y-86718095D01*
X159161903Y-86718095D02*
X159085713Y-86680000D01*
X159085713Y-86680000D02*
X159047617Y-86603809D01*
X159047617Y-86603809D02*
X159047617Y-86527619D01*
X159047617Y-86527619D02*
X159085713Y-86451428D01*
X159085713Y-86451428D02*
X159161903Y-86413333D01*
X159161903Y-86413333D02*
X159352379Y-86413333D01*
X159352379Y-86413333D02*
X159428570Y-86375238D01*
X159695237Y-86184761D02*
X159999999Y-86184761D01*
X159809523Y-85918095D02*
X159809523Y-86603809D01*
X159809523Y-86603809D02*
X159847618Y-86680000D01*
X159847618Y-86680000D02*
X159923808Y-86718095D01*
X159923808Y-86718095D02*
X159999999Y-86718095D01*
X160609523Y-86718095D02*
X160609523Y-86299047D01*
X160609523Y-86299047D02*
X160571428Y-86222857D01*
X160571428Y-86222857D02*
X160495237Y-86184761D01*
X160495237Y-86184761D02*
X160342856Y-86184761D01*
X160342856Y-86184761D02*
X160266666Y-86222857D01*
X160609523Y-86680000D02*
X160533332Y-86718095D01*
X160533332Y-86718095D02*
X160342856Y-86718095D01*
X160342856Y-86718095D02*
X160266666Y-86680000D01*
X160266666Y-86680000D02*
X160228570Y-86603809D01*
X160228570Y-86603809D02*
X160228570Y-86527619D01*
X160228570Y-86527619D02*
X160266666Y-86451428D01*
X160266666Y-86451428D02*
X160342856Y-86413333D01*
X160342856Y-86413333D02*
X160533332Y-86413333D01*
X160533332Y-86413333D02*
X160609523Y-86375238D01*
X159580952Y-89233904D02*
X159542856Y-89272000D01*
X159542856Y-89272000D02*
X159428571Y-89310095D01*
X159428571Y-89310095D02*
X159352380Y-89310095D01*
X159352380Y-89310095D02*
X159238094Y-89272000D01*
X159238094Y-89272000D02*
X159161904Y-89195809D01*
X159161904Y-89195809D02*
X159123809Y-89119619D01*
X159123809Y-89119619D02*
X159085713Y-88967238D01*
X159085713Y-88967238D02*
X159085713Y-88852952D01*
X159085713Y-88852952D02*
X159123809Y-88700571D01*
X159123809Y-88700571D02*
X159161904Y-88624380D01*
X159161904Y-88624380D02*
X159238094Y-88548190D01*
X159238094Y-88548190D02*
X159352380Y-88510095D01*
X159352380Y-88510095D02*
X159428571Y-88510095D01*
X159428571Y-88510095D02*
X159542856Y-88548190D01*
X159542856Y-88548190D02*
X159580952Y-88586285D01*
X160038094Y-89310095D02*
X159961904Y-89272000D01*
X159961904Y-89272000D02*
X159923809Y-89195809D01*
X159923809Y-89195809D02*
X159923809Y-88510095D01*
X160342857Y-89310095D02*
X160342857Y-88510095D01*
X160419047Y-89005333D02*
X160647619Y-89310095D01*
X160647619Y-88776761D02*
X160342857Y-89081523D01*
X159161903Y-91140190D02*
X159085713Y-91102095D01*
X159085713Y-91102095D02*
X158971427Y-91102095D01*
X158971427Y-91102095D02*
X158857141Y-91140190D01*
X158857141Y-91140190D02*
X158780951Y-91216380D01*
X158780951Y-91216380D02*
X158742856Y-91292571D01*
X158742856Y-91292571D02*
X158704760Y-91444952D01*
X158704760Y-91444952D02*
X158704760Y-91559238D01*
X158704760Y-91559238D02*
X158742856Y-91711619D01*
X158742856Y-91711619D02*
X158780951Y-91787809D01*
X158780951Y-91787809D02*
X158857141Y-91864000D01*
X158857141Y-91864000D02*
X158971427Y-91902095D01*
X158971427Y-91902095D02*
X159047618Y-91902095D01*
X159047618Y-91902095D02*
X159161903Y-91864000D01*
X159161903Y-91864000D02*
X159199999Y-91825904D01*
X159199999Y-91825904D02*
X159199999Y-91559238D01*
X159199999Y-91559238D02*
X159047618Y-91559238D01*
X159542856Y-91368761D02*
X159542856Y-91902095D01*
X159542856Y-91444952D02*
X159580951Y-91406857D01*
X159580951Y-91406857D02*
X159657141Y-91368761D01*
X159657141Y-91368761D02*
X159771427Y-91368761D01*
X159771427Y-91368761D02*
X159847618Y-91406857D01*
X159847618Y-91406857D02*
X159885713Y-91483047D01*
X159885713Y-91483047D02*
X159885713Y-91902095D01*
X160609523Y-91902095D02*
X160609523Y-91102095D01*
X160609523Y-91864000D02*
X160533332Y-91902095D01*
X160533332Y-91902095D02*
X160380951Y-91902095D01*
X160380951Y-91902095D02*
X160304761Y-91864000D01*
X160304761Y-91864000D02*
X160266666Y-91825904D01*
X160266666Y-91825904D02*
X160228570Y-91749714D01*
X160228570Y-91749714D02*
X160228570Y-91521142D01*
X160228570Y-91521142D02*
X160266666Y-91444952D01*
X160266666Y-91444952D02*
X160304761Y-91406857D01*
X160304761Y-91406857D02*
X160380951Y-91368761D01*
X160380951Y-91368761D02*
X160533332Y-91368761D01*
X160533332Y-91368761D02*
X160609523Y-91406857D01*
X155437619Y-78080000D02*
X155437619Y-77508572D01*
X156437619Y-77794286D02*
X155437619Y-77794286D01*
X156390000Y-76794286D02*
X156437619Y-76889524D01*
X156437619Y-76889524D02*
X156437619Y-77080000D01*
X156437619Y-77080000D02*
X156390000Y-77175238D01*
X156390000Y-77175238D02*
X156294761Y-77222857D01*
X156294761Y-77222857D02*
X155913809Y-77222857D01*
X155913809Y-77222857D02*
X155818571Y-77175238D01*
X155818571Y-77175238D02*
X155770952Y-77080000D01*
X155770952Y-77080000D02*
X155770952Y-76889524D01*
X155770952Y-76889524D02*
X155818571Y-76794286D01*
X155818571Y-76794286D02*
X155913809Y-76746667D01*
X155913809Y-76746667D02*
X156009047Y-76746667D01*
X156009047Y-76746667D02*
X156104285Y-77222857D01*
X156437619Y-76318095D02*
X155770952Y-76318095D01*
X155866190Y-76318095D02*
X155818571Y-76270476D01*
X155818571Y-76270476D02*
X155770952Y-76175238D01*
X155770952Y-76175238D02*
X155770952Y-76032381D01*
X155770952Y-76032381D02*
X155818571Y-75937143D01*
X155818571Y-75937143D02*
X155913809Y-75889524D01*
X155913809Y-75889524D02*
X156437619Y-75889524D01*
X155913809Y-75889524D02*
X155818571Y-75841905D01*
X155818571Y-75841905D02*
X155770952Y-75746667D01*
X155770952Y-75746667D02*
X155770952Y-75603810D01*
X155770952Y-75603810D02*
X155818571Y-75508571D01*
X155818571Y-75508571D02*
X155913809Y-75460952D01*
X155913809Y-75460952D02*
X156437619Y-75460952D01*
X155770952Y-74984762D02*
X156770952Y-74984762D01*
X155818571Y-74984762D02*
X155770952Y-74889524D01*
X155770952Y-74889524D02*
X155770952Y-74699048D01*
X155770952Y-74699048D02*
X155818571Y-74603810D01*
X155818571Y-74603810D02*
X155866190Y-74556191D01*
X155866190Y-74556191D02*
X155961428Y-74508572D01*
X155961428Y-74508572D02*
X156247142Y-74508572D01*
X156247142Y-74508572D02*
X156342380Y-74556191D01*
X156342380Y-74556191D02*
X156390000Y-74603810D01*
X156390000Y-74603810D02*
X156437619Y-74699048D01*
X156437619Y-74699048D02*
X156437619Y-74889524D01*
X156437619Y-74889524D02*
X156390000Y-74984762D01*
X156390000Y-73699048D02*
X156437619Y-73794286D01*
X156437619Y-73794286D02*
X156437619Y-73984762D01*
X156437619Y-73984762D02*
X156390000Y-74080000D01*
X156390000Y-74080000D02*
X156294761Y-74127619D01*
X156294761Y-74127619D02*
X155913809Y-74127619D01*
X155913809Y-74127619D02*
X155818571Y-74080000D01*
X155818571Y-74080000D02*
X155770952Y-73984762D01*
X155770952Y-73984762D02*
X155770952Y-73794286D01*
X155770952Y-73794286D02*
X155818571Y-73699048D01*
X155818571Y-73699048D02*
X155913809Y-73651429D01*
X155913809Y-73651429D02*
X156009047Y-73651429D01*
X156009047Y-73651429D02*
X156104285Y-74127619D01*
X156437619Y-73222857D02*
X155770952Y-73222857D01*
X155961428Y-73222857D02*
X155866190Y-73175238D01*
X155866190Y-73175238D02*
X155818571Y-73127619D01*
X155818571Y-73127619D02*
X155770952Y-73032381D01*
X155770952Y-73032381D02*
X155770952Y-72937143D01*
X156437619Y-72175238D02*
X155913809Y-72175238D01*
X155913809Y-72175238D02*
X155818571Y-72222857D01*
X155818571Y-72222857D02*
X155770952Y-72318095D01*
X155770952Y-72318095D02*
X155770952Y-72508571D01*
X155770952Y-72508571D02*
X155818571Y-72603809D01*
X156390000Y-72175238D02*
X156437619Y-72270476D01*
X156437619Y-72270476D02*
X156437619Y-72508571D01*
X156437619Y-72508571D02*
X156390000Y-72603809D01*
X156390000Y-72603809D02*
X156294761Y-72651428D01*
X156294761Y-72651428D02*
X156199523Y-72651428D01*
X156199523Y-72651428D02*
X156104285Y-72603809D01*
X156104285Y-72603809D02*
X156056666Y-72508571D01*
X156056666Y-72508571D02*
X156056666Y-72270476D01*
X156056666Y-72270476D02*
X156009047Y-72175238D01*
X155770952Y-71841904D02*
X155770952Y-71460952D01*
X155437619Y-71699047D02*
X156294761Y-71699047D01*
X156294761Y-71699047D02*
X156390000Y-71651428D01*
X156390000Y-71651428D02*
X156437619Y-71556190D01*
X156437619Y-71556190D02*
X156437619Y-71460952D01*
X155770952Y-70699047D02*
X156437619Y-70699047D01*
X155770952Y-71127618D02*
X156294761Y-71127618D01*
X156294761Y-71127618D02*
X156390000Y-71079999D01*
X156390000Y-71079999D02*
X156437619Y-70984761D01*
X156437619Y-70984761D02*
X156437619Y-70841904D01*
X156437619Y-70841904D02*
X156390000Y-70746666D01*
X156390000Y-70746666D02*
X156342380Y-70699047D01*
X156437619Y-70222856D02*
X155770952Y-70222856D01*
X155961428Y-70222856D02*
X155866190Y-70175237D01*
X155866190Y-70175237D02*
X155818571Y-70127618D01*
X155818571Y-70127618D02*
X155770952Y-70032380D01*
X155770952Y-70032380D02*
X155770952Y-69937142D01*
X156390000Y-69222856D02*
X156437619Y-69318094D01*
X156437619Y-69318094D02*
X156437619Y-69508570D01*
X156437619Y-69508570D02*
X156390000Y-69603808D01*
X156390000Y-69603808D02*
X156294761Y-69651427D01*
X156294761Y-69651427D02*
X155913809Y-69651427D01*
X155913809Y-69651427D02*
X155818571Y-69603808D01*
X155818571Y-69603808D02*
X155770952Y-69508570D01*
X155770952Y-69508570D02*
X155770952Y-69318094D01*
X155770952Y-69318094D02*
X155818571Y-69222856D01*
X155818571Y-69222856D02*
X155913809Y-69175237D01*
X155913809Y-69175237D02*
X156009047Y-69175237D01*
X156009047Y-69175237D02*
X156104285Y-69651427D01*
X158057619Y-76722856D02*
X157057619Y-76722856D01*
X157057619Y-76722856D02*
X157057619Y-76484761D01*
X157057619Y-76484761D02*
X157105238Y-76341904D01*
X157105238Y-76341904D02*
X157200476Y-76246666D01*
X157200476Y-76246666D02*
X157295714Y-76199047D01*
X157295714Y-76199047D02*
X157486190Y-76151428D01*
X157486190Y-76151428D02*
X157629047Y-76151428D01*
X157629047Y-76151428D02*
X157819523Y-76199047D01*
X157819523Y-76199047D02*
X157914761Y-76246666D01*
X157914761Y-76246666D02*
X158010000Y-76341904D01*
X158010000Y-76341904D02*
X158057619Y-76484761D01*
X158057619Y-76484761D02*
X158057619Y-76722856D01*
X158010000Y-75770475D02*
X158057619Y-75627618D01*
X158057619Y-75627618D02*
X158057619Y-75389523D01*
X158057619Y-75389523D02*
X158010000Y-75294285D01*
X158010000Y-75294285D02*
X157962380Y-75246666D01*
X157962380Y-75246666D02*
X157867142Y-75199047D01*
X157867142Y-75199047D02*
X157771904Y-75199047D01*
X157771904Y-75199047D02*
X157676666Y-75246666D01*
X157676666Y-75246666D02*
X157629047Y-75294285D01*
X157629047Y-75294285D02*
X157581428Y-75389523D01*
X157581428Y-75389523D02*
X157533809Y-75579999D01*
X157533809Y-75579999D02*
X157486190Y-75675237D01*
X157486190Y-75675237D02*
X157438571Y-75722856D01*
X157438571Y-75722856D02*
X157343333Y-75770475D01*
X157343333Y-75770475D02*
X157248095Y-75770475D01*
X157248095Y-75770475D02*
X157152857Y-75722856D01*
X157152857Y-75722856D02*
X157105238Y-75675237D01*
X157105238Y-75675237D02*
X157057619Y-75579999D01*
X157057619Y-75579999D02*
X157057619Y-75341904D01*
X157057619Y-75341904D02*
X157105238Y-75199047D01*
X158057619Y-74246666D02*
X158057619Y-74818094D01*
X158057619Y-74532380D02*
X157057619Y-74532380D01*
X157057619Y-74532380D02*
X157200476Y-74627618D01*
X157200476Y-74627618D02*
X157295714Y-74722856D01*
X157295714Y-74722856D02*
X157343333Y-74818094D01*
X157486190Y-73675237D02*
X157438571Y-73770475D01*
X157438571Y-73770475D02*
X157390952Y-73818094D01*
X157390952Y-73818094D02*
X157295714Y-73865713D01*
X157295714Y-73865713D02*
X157248095Y-73865713D01*
X157248095Y-73865713D02*
X157152857Y-73818094D01*
X157152857Y-73818094D02*
X157105238Y-73770475D01*
X157105238Y-73770475D02*
X157057619Y-73675237D01*
X157057619Y-73675237D02*
X157057619Y-73484761D01*
X157057619Y-73484761D02*
X157105238Y-73389523D01*
X157105238Y-73389523D02*
X157152857Y-73341904D01*
X157152857Y-73341904D02*
X157248095Y-73294285D01*
X157248095Y-73294285D02*
X157295714Y-73294285D01*
X157295714Y-73294285D02*
X157390952Y-73341904D01*
X157390952Y-73341904D02*
X157438571Y-73389523D01*
X157438571Y-73389523D02*
X157486190Y-73484761D01*
X157486190Y-73484761D02*
X157486190Y-73675237D01*
X157486190Y-73675237D02*
X157533809Y-73770475D01*
X157533809Y-73770475D02*
X157581428Y-73818094D01*
X157581428Y-73818094D02*
X157676666Y-73865713D01*
X157676666Y-73865713D02*
X157867142Y-73865713D01*
X157867142Y-73865713D02*
X157962380Y-73818094D01*
X157962380Y-73818094D02*
X158010000Y-73770475D01*
X158010000Y-73770475D02*
X158057619Y-73675237D01*
X158057619Y-73675237D02*
X158057619Y-73484761D01*
X158057619Y-73484761D02*
X158010000Y-73389523D01*
X158010000Y-73389523D02*
X157962380Y-73341904D01*
X157962380Y-73341904D02*
X157867142Y-73294285D01*
X157867142Y-73294285D02*
X157676666Y-73294285D01*
X157676666Y-73294285D02*
X157581428Y-73341904D01*
X157581428Y-73341904D02*
X157533809Y-73389523D01*
X157533809Y-73389523D02*
X157486190Y-73484761D01*
X157533809Y-72532380D02*
X157581428Y-72389523D01*
X157581428Y-72389523D02*
X157629047Y-72341904D01*
X157629047Y-72341904D02*
X157724285Y-72294285D01*
X157724285Y-72294285D02*
X157867142Y-72294285D01*
X157867142Y-72294285D02*
X157962380Y-72341904D01*
X157962380Y-72341904D02*
X158010000Y-72389523D01*
X158010000Y-72389523D02*
X158057619Y-72484761D01*
X158057619Y-72484761D02*
X158057619Y-72865713D01*
X158057619Y-72865713D02*
X157057619Y-72865713D01*
X157057619Y-72865713D02*
X157057619Y-72532380D01*
X157057619Y-72532380D02*
X157105238Y-72437142D01*
X157105238Y-72437142D02*
X157152857Y-72389523D01*
X157152857Y-72389523D02*
X157248095Y-72341904D01*
X157248095Y-72341904D02*
X157343333Y-72341904D01*
X157343333Y-72341904D02*
X157438571Y-72389523D01*
X157438571Y-72389523D02*
X157486190Y-72437142D01*
X157486190Y-72437142D02*
X157533809Y-72532380D01*
X157533809Y-72532380D02*
X157533809Y-72865713D01*
X157152857Y-71913332D02*
X157105238Y-71865713D01*
X157105238Y-71865713D02*
X157057619Y-71770475D01*
X157057619Y-71770475D02*
X157057619Y-71532380D01*
X157057619Y-71532380D02*
X157105238Y-71437142D01*
X157105238Y-71437142D02*
X157152857Y-71389523D01*
X157152857Y-71389523D02*
X157248095Y-71341904D01*
X157248095Y-71341904D02*
X157343333Y-71341904D01*
X157343333Y-71341904D02*
X157486190Y-71389523D01*
X157486190Y-71389523D02*
X158057619Y-71960951D01*
X158057619Y-71960951D02*
X158057619Y-71341904D01*
X157057619Y-70722856D02*
X157057619Y-70627618D01*
X157057619Y-70627618D02*
X157105238Y-70532380D01*
X157105238Y-70532380D02*
X157152857Y-70484761D01*
X157152857Y-70484761D02*
X157248095Y-70437142D01*
X157248095Y-70437142D02*
X157438571Y-70389523D01*
X157438571Y-70389523D02*
X157676666Y-70389523D01*
X157676666Y-70389523D02*
X157867142Y-70437142D01*
X157867142Y-70437142D02*
X157962380Y-70484761D01*
X157962380Y-70484761D02*
X158010000Y-70532380D01*
X158010000Y-70532380D02*
X158057619Y-70627618D01*
X158057619Y-70627618D02*
X158057619Y-70722856D01*
X158057619Y-70722856D02*
X158010000Y-70818094D01*
X158010000Y-70818094D02*
X157962380Y-70865713D01*
X157962380Y-70865713D02*
X157867142Y-70913332D01*
X157867142Y-70913332D02*
X157676666Y-70960951D01*
X157676666Y-70960951D02*
X157438571Y-70960951D01*
X157438571Y-70960951D02*
X157248095Y-70913332D01*
X157248095Y-70913332D02*
X157152857Y-70865713D01*
X157152857Y-70865713D02*
X157105238Y-70818094D01*
X157105238Y-70818094D02*
X157057619Y-70722856D01*
X122311903Y-98394190D02*
X122235713Y-98356095D01*
X122235713Y-98356095D02*
X122121427Y-98356095D01*
X122121427Y-98356095D02*
X122007141Y-98394190D01*
X122007141Y-98394190D02*
X121930951Y-98470380D01*
X121930951Y-98470380D02*
X121892856Y-98546571D01*
X121892856Y-98546571D02*
X121854760Y-98698952D01*
X121854760Y-98698952D02*
X121854760Y-98813238D01*
X121854760Y-98813238D02*
X121892856Y-98965619D01*
X121892856Y-98965619D02*
X121930951Y-99041809D01*
X121930951Y-99041809D02*
X122007141Y-99118000D01*
X122007141Y-99118000D02*
X122121427Y-99156095D01*
X122121427Y-99156095D02*
X122197618Y-99156095D01*
X122197618Y-99156095D02*
X122311903Y-99118000D01*
X122311903Y-99118000D02*
X122349999Y-99079904D01*
X122349999Y-99079904D02*
X122349999Y-98813238D01*
X122349999Y-98813238D02*
X122197618Y-98813238D01*
X122692856Y-98622761D02*
X122692856Y-99156095D01*
X122692856Y-98698952D02*
X122730951Y-98660857D01*
X122730951Y-98660857D02*
X122807141Y-98622761D01*
X122807141Y-98622761D02*
X122921427Y-98622761D01*
X122921427Y-98622761D02*
X122997618Y-98660857D01*
X122997618Y-98660857D02*
X123035713Y-98737047D01*
X123035713Y-98737047D02*
X123035713Y-99156095D01*
X123759523Y-99156095D02*
X123759523Y-98356095D01*
X123759523Y-99118000D02*
X123683332Y-99156095D01*
X123683332Y-99156095D02*
X123530951Y-99156095D01*
X123530951Y-99156095D02*
X123454761Y-99118000D01*
X123454761Y-99118000D02*
X123416666Y-99079904D01*
X123416666Y-99079904D02*
X123378570Y-99003714D01*
X123378570Y-99003714D02*
X123378570Y-98775142D01*
X123378570Y-98775142D02*
X123416666Y-98698952D01*
X123416666Y-98698952D02*
X123454761Y-98660857D01*
X123454761Y-98660857D02*
X123530951Y-98622761D01*
X123530951Y-98622761D02*
X123683332Y-98622761D01*
X123683332Y-98622761D02*
X123759523Y-98660857D01*
X122730952Y-101671904D02*
X122692856Y-101710000D01*
X122692856Y-101710000D02*
X122578571Y-101748095D01*
X122578571Y-101748095D02*
X122502380Y-101748095D01*
X122502380Y-101748095D02*
X122388094Y-101710000D01*
X122388094Y-101710000D02*
X122311904Y-101633809D01*
X122311904Y-101633809D02*
X122273809Y-101557619D01*
X122273809Y-101557619D02*
X122235713Y-101405238D01*
X122235713Y-101405238D02*
X122235713Y-101290952D01*
X122235713Y-101290952D02*
X122273809Y-101138571D01*
X122273809Y-101138571D02*
X122311904Y-101062380D01*
X122311904Y-101062380D02*
X122388094Y-100986190D01*
X122388094Y-100986190D02*
X122502380Y-100948095D01*
X122502380Y-100948095D02*
X122578571Y-100948095D01*
X122578571Y-100948095D02*
X122692856Y-100986190D01*
X122692856Y-100986190D02*
X122730952Y-101024285D01*
X123188094Y-101748095D02*
X123111904Y-101710000D01*
X123111904Y-101710000D02*
X123073809Y-101633809D01*
X123073809Y-101633809D02*
X123073809Y-100948095D01*
X123492857Y-101748095D02*
X123492857Y-100948095D01*
X123569047Y-101443333D02*
X123797619Y-101748095D01*
X123797619Y-101214761D02*
X123492857Y-101519523D01*
X121435713Y-104340095D02*
X121435713Y-103540095D01*
X121435713Y-103540095D02*
X121626189Y-103540095D01*
X121626189Y-103540095D02*
X121740475Y-103578190D01*
X121740475Y-103578190D02*
X121816665Y-103654380D01*
X121816665Y-103654380D02*
X121854760Y-103730571D01*
X121854760Y-103730571D02*
X121892856Y-103882952D01*
X121892856Y-103882952D02*
X121892856Y-103997238D01*
X121892856Y-103997238D02*
X121854760Y-104149619D01*
X121854760Y-104149619D02*
X121816665Y-104225809D01*
X121816665Y-104225809D02*
X121740475Y-104302000D01*
X121740475Y-104302000D02*
X121626189Y-104340095D01*
X121626189Y-104340095D02*
X121435713Y-104340095D01*
X122578570Y-104340095D02*
X122578570Y-103921047D01*
X122578570Y-103921047D02*
X122540475Y-103844857D01*
X122540475Y-103844857D02*
X122464284Y-103806761D01*
X122464284Y-103806761D02*
X122311903Y-103806761D01*
X122311903Y-103806761D02*
X122235713Y-103844857D01*
X122578570Y-104302000D02*
X122502379Y-104340095D01*
X122502379Y-104340095D02*
X122311903Y-104340095D01*
X122311903Y-104340095D02*
X122235713Y-104302000D01*
X122235713Y-104302000D02*
X122197617Y-104225809D01*
X122197617Y-104225809D02*
X122197617Y-104149619D01*
X122197617Y-104149619D02*
X122235713Y-104073428D01*
X122235713Y-104073428D02*
X122311903Y-104035333D01*
X122311903Y-104035333D02*
X122502379Y-104035333D01*
X122502379Y-104035333D02*
X122578570Y-103997238D01*
X122845237Y-103806761D02*
X123149999Y-103806761D01*
X122959523Y-103540095D02*
X122959523Y-104225809D01*
X122959523Y-104225809D02*
X122997618Y-104302000D01*
X122997618Y-104302000D02*
X123073808Y-104340095D01*
X123073808Y-104340095D02*
X123149999Y-104340095D01*
X123759523Y-104340095D02*
X123759523Y-103921047D01*
X123759523Y-103921047D02*
X123721428Y-103844857D01*
X123721428Y-103844857D02*
X123645237Y-103806761D01*
X123645237Y-103806761D02*
X123492856Y-103806761D01*
X123492856Y-103806761D02*
X123416666Y-103844857D01*
X123759523Y-104302000D02*
X123683332Y-104340095D01*
X123683332Y-104340095D02*
X123492856Y-104340095D01*
X123492856Y-104340095D02*
X123416666Y-104302000D01*
X123416666Y-104302000D02*
X123378570Y-104225809D01*
X123378570Y-104225809D02*
X123378570Y-104149619D01*
X123378570Y-104149619D02*
X123416666Y-104073428D01*
X123416666Y-104073428D02*
X123492856Y-104035333D01*
X123492856Y-104035333D02*
X123683332Y-104035333D01*
X123683332Y-104035333D02*
X123759523Y-103997238D01*
X121969048Y-106132095D02*
X122235715Y-106932095D01*
X122235715Y-106932095D02*
X122502381Y-106132095D01*
X123111905Y-106894000D02*
X123035714Y-106932095D01*
X123035714Y-106932095D02*
X122883333Y-106932095D01*
X122883333Y-106932095D02*
X122807143Y-106894000D01*
X122807143Y-106894000D02*
X122769048Y-106855904D01*
X122769048Y-106855904D02*
X122730952Y-106779714D01*
X122730952Y-106779714D02*
X122730952Y-106551142D01*
X122730952Y-106551142D02*
X122769048Y-106474952D01*
X122769048Y-106474952D02*
X122807143Y-106436857D01*
X122807143Y-106436857D02*
X122883333Y-106398761D01*
X122883333Y-106398761D02*
X123035714Y-106398761D01*
X123035714Y-106398761D02*
X123111905Y-106436857D01*
X123797619Y-106894000D02*
X123721428Y-106932095D01*
X123721428Y-106932095D02*
X123569047Y-106932095D01*
X123569047Y-106932095D02*
X123492857Y-106894000D01*
X123492857Y-106894000D02*
X123454762Y-106855904D01*
X123454762Y-106855904D02*
X123416666Y-106779714D01*
X123416666Y-106779714D02*
X123416666Y-106551142D01*
X123416666Y-106551142D02*
X123454762Y-106474952D01*
X123454762Y-106474952D02*
X123492857Y-106436857D01*
X123492857Y-106436857D02*
X123569047Y-106398761D01*
X123569047Y-106398761D02*
X123721428Y-106398761D01*
X123721428Y-106398761D02*
X123797619Y-106436857D01*
X159099048Y-72148095D02*
X159365715Y-72948095D01*
X159365715Y-72948095D02*
X159632381Y-72148095D01*
X160241905Y-72910000D02*
X160165714Y-72948095D01*
X160165714Y-72948095D02*
X160013333Y-72948095D01*
X160013333Y-72948095D02*
X159937143Y-72910000D01*
X159937143Y-72910000D02*
X159899048Y-72871904D01*
X159899048Y-72871904D02*
X159860952Y-72795714D01*
X159860952Y-72795714D02*
X159860952Y-72567142D01*
X159860952Y-72567142D02*
X159899048Y-72490952D01*
X159899048Y-72490952D02*
X159937143Y-72452857D01*
X159937143Y-72452857D02*
X160013333Y-72414761D01*
X160013333Y-72414761D02*
X160165714Y-72414761D01*
X160165714Y-72414761D02*
X160241905Y-72452857D01*
X160927619Y-72910000D02*
X160851428Y-72948095D01*
X160851428Y-72948095D02*
X160699047Y-72948095D01*
X160699047Y-72948095D02*
X160622857Y-72910000D01*
X160622857Y-72910000D02*
X160584762Y-72871904D01*
X160584762Y-72871904D02*
X160546666Y-72795714D01*
X160546666Y-72795714D02*
X160546666Y-72567142D01*
X160546666Y-72567142D02*
X160584762Y-72490952D01*
X160584762Y-72490952D02*
X160622857Y-72452857D01*
X160622857Y-72452857D02*
X160699047Y-72414761D01*
X160699047Y-72414761D02*
X160851428Y-72414761D01*
X160851428Y-72414761D02*
X160927619Y-72452857D01*
X158565713Y-75540095D02*
X158565713Y-74740095D01*
X158565713Y-74740095D02*
X158756189Y-74740095D01*
X158756189Y-74740095D02*
X158870475Y-74778190D01*
X158870475Y-74778190D02*
X158946665Y-74854380D01*
X158946665Y-74854380D02*
X158984760Y-74930571D01*
X158984760Y-74930571D02*
X159022856Y-75082952D01*
X159022856Y-75082952D02*
X159022856Y-75197238D01*
X159022856Y-75197238D02*
X158984760Y-75349619D01*
X158984760Y-75349619D02*
X158946665Y-75425809D01*
X158946665Y-75425809D02*
X158870475Y-75502000D01*
X158870475Y-75502000D02*
X158756189Y-75540095D01*
X158756189Y-75540095D02*
X158565713Y-75540095D01*
X159708570Y-75540095D02*
X159708570Y-75121047D01*
X159708570Y-75121047D02*
X159670475Y-75044857D01*
X159670475Y-75044857D02*
X159594284Y-75006761D01*
X159594284Y-75006761D02*
X159441903Y-75006761D01*
X159441903Y-75006761D02*
X159365713Y-75044857D01*
X159708570Y-75502000D02*
X159632379Y-75540095D01*
X159632379Y-75540095D02*
X159441903Y-75540095D01*
X159441903Y-75540095D02*
X159365713Y-75502000D01*
X159365713Y-75502000D02*
X159327617Y-75425809D01*
X159327617Y-75425809D02*
X159327617Y-75349619D01*
X159327617Y-75349619D02*
X159365713Y-75273428D01*
X159365713Y-75273428D02*
X159441903Y-75235333D01*
X159441903Y-75235333D02*
X159632379Y-75235333D01*
X159632379Y-75235333D02*
X159708570Y-75197238D01*
X159975237Y-75006761D02*
X160279999Y-75006761D01*
X160089523Y-74740095D02*
X160089523Y-75425809D01*
X160089523Y-75425809D02*
X160127618Y-75502000D01*
X160127618Y-75502000D02*
X160203808Y-75540095D01*
X160203808Y-75540095D02*
X160279999Y-75540095D01*
X160889523Y-75540095D02*
X160889523Y-75121047D01*
X160889523Y-75121047D02*
X160851428Y-75044857D01*
X160851428Y-75044857D02*
X160775237Y-75006761D01*
X160775237Y-75006761D02*
X160622856Y-75006761D01*
X160622856Y-75006761D02*
X160546666Y-75044857D01*
X160889523Y-75502000D02*
X160813332Y-75540095D01*
X160813332Y-75540095D02*
X160622856Y-75540095D01*
X160622856Y-75540095D02*
X160546666Y-75502000D01*
X160546666Y-75502000D02*
X160508570Y-75425809D01*
X160508570Y-75425809D02*
X160508570Y-75349619D01*
X160508570Y-75349619D02*
X160546666Y-75273428D01*
X160546666Y-75273428D02*
X160622856Y-75235333D01*
X160622856Y-75235333D02*
X160813332Y-75235333D01*
X160813332Y-75235333D02*
X160889523Y-75197238D01*
X159441903Y-77370190D02*
X159365713Y-77332095D01*
X159365713Y-77332095D02*
X159251427Y-77332095D01*
X159251427Y-77332095D02*
X159137141Y-77370190D01*
X159137141Y-77370190D02*
X159060951Y-77446380D01*
X159060951Y-77446380D02*
X159022856Y-77522571D01*
X159022856Y-77522571D02*
X158984760Y-77674952D01*
X158984760Y-77674952D02*
X158984760Y-77789238D01*
X158984760Y-77789238D02*
X159022856Y-77941619D01*
X159022856Y-77941619D02*
X159060951Y-78017809D01*
X159060951Y-78017809D02*
X159137141Y-78094000D01*
X159137141Y-78094000D02*
X159251427Y-78132095D01*
X159251427Y-78132095D02*
X159327618Y-78132095D01*
X159327618Y-78132095D02*
X159441903Y-78094000D01*
X159441903Y-78094000D02*
X159479999Y-78055904D01*
X159479999Y-78055904D02*
X159479999Y-77789238D01*
X159479999Y-77789238D02*
X159327618Y-77789238D01*
X159822856Y-77598761D02*
X159822856Y-78132095D01*
X159822856Y-77674952D02*
X159860951Y-77636857D01*
X159860951Y-77636857D02*
X159937141Y-77598761D01*
X159937141Y-77598761D02*
X160051427Y-77598761D01*
X160051427Y-77598761D02*
X160127618Y-77636857D01*
X160127618Y-77636857D02*
X160165713Y-77713047D01*
X160165713Y-77713047D02*
X160165713Y-78132095D01*
X160889523Y-78132095D02*
X160889523Y-77332095D01*
X160889523Y-78094000D02*
X160813332Y-78132095D01*
X160813332Y-78132095D02*
X160660951Y-78132095D01*
X160660951Y-78132095D02*
X160584761Y-78094000D01*
X160584761Y-78094000D02*
X160546666Y-78055904D01*
X160546666Y-78055904D02*
X160508570Y-77979714D01*
X160508570Y-77979714D02*
X160508570Y-77751142D01*
X160508570Y-77751142D02*
X160546666Y-77674952D01*
X160546666Y-77674952D02*
X160584761Y-77636857D01*
X160584761Y-77636857D02*
X160660951Y-77598761D01*
X160660951Y-77598761D02*
X160813332Y-77598761D01*
X160813332Y-77598761D02*
X160889523Y-77636857D01*
X158749048Y-97276095D02*
X159015715Y-98076095D01*
X159015715Y-98076095D02*
X159282381Y-97276095D01*
X159891905Y-98038000D02*
X159815714Y-98076095D01*
X159815714Y-98076095D02*
X159663333Y-98076095D01*
X159663333Y-98076095D02*
X159587143Y-98038000D01*
X159587143Y-98038000D02*
X159549048Y-97999904D01*
X159549048Y-97999904D02*
X159510952Y-97923714D01*
X159510952Y-97923714D02*
X159510952Y-97695142D01*
X159510952Y-97695142D02*
X159549048Y-97618952D01*
X159549048Y-97618952D02*
X159587143Y-97580857D01*
X159587143Y-97580857D02*
X159663333Y-97542761D01*
X159663333Y-97542761D02*
X159815714Y-97542761D01*
X159815714Y-97542761D02*
X159891905Y-97580857D01*
X160577619Y-98038000D02*
X160501428Y-98076095D01*
X160501428Y-98076095D02*
X160349047Y-98076095D01*
X160349047Y-98076095D02*
X160272857Y-98038000D01*
X160272857Y-98038000D02*
X160234762Y-97999904D01*
X160234762Y-97999904D02*
X160196666Y-97923714D01*
X160196666Y-97923714D02*
X160196666Y-97695142D01*
X160196666Y-97695142D02*
X160234762Y-97618952D01*
X160234762Y-97618952D02*
X160272857Y-97580857D01*
X160272857Y-97580857D02*
X160349047Y-97542761D01*
X160349047Y-97542761D02*
X160501428Y-97542761D01*
X160501428Y-97542761D02*
X160577619Y-97580857D01*
X158215713Y-100668095D02*
X158215713Y-99868095D01*
X158215713Y-99868095D02*
X158406189Y-99868095D01*
X158406189Y-99868095D02*
X158520475Y-99906190D01*
X158520475Y-99906190D02*
X158596665Y-99982380D01*
X158596665Y-99982380D02*
X158634760Y-100058571D01*
X158634760Y-100058571D02*
X158672856Y-100210952D01*
X158672856Y-100210952D02*
X158672856Y-100325238D01*
X158672856Y-100325238D02*
X158634760Y-100477619D01*
X158634760Y-100477619D02*
X158596665Y-100553809D01*
X158596665Y-100553809D02*
X158520475Y-100630000D01*
X158520475Y-100630000D02*
X158406189Y-100668095D01*
X158406189Y-100668095D02*
X158215713Y-100668095D01*
X159358570Y-100668095D02*
X159358570Y-100249047D01*
X159358570Y-100249047D02*
X159320475Y-100172857D01*
X159320475Y-100172857D02*
X159244284Y-100134761D01*
X159244284Y-100134761D02*
X159091903Y-100134761D01*
X159091903Y-100134761D02*
X159015713Y-100172857D01*
X159358570Y-100630000D02*
X159282379Y-100668095D01*
X159282379Y-100668095D02*
X159091903Y-100668095D01*
X159091903Y-100668095D02*
X159015713Y-100630000D01*
X159015713Y-100630000D02*
X158977617Y-100553809D01*
X158977617Y-100553809D02*
X158977617Y-100477619D01*
X158977617Y-100477619D02*
X159015713Y-100401428D01*
X159015713Y-100401428D02*
X159091903Y-100363333D01*
X159091903Y-100363333D02*
X159282379Y-100363333D01*
X159282379Y-100363333D02*
X159358570Y-100325238D01*
X159625237Y-100134761D02*
X159929999Y-100134761D01*
X159739523Y-99868095D02*
X159739523Y-100553809D01*
X159739523Y-100553809D02*
X159777618Y-100630000D01*
X159777618Y-100630000D02*
X159853808Y-100668095D01*
X159853808Y-100668095D02*
X159929999Y-100668095D01*
X160539523Y-100668095D02*
X160539523Y-100249047D01*
X160539523Y-100249047D02*
X160501428Y-100172857D01*
X160501428Y-100172857D02*
X160425237Y-100134761D01*
X160425237Y-100134761D02*
X160272856Y-100134761D01*
X160272856Y-100134761D02*
X160196666Y-100172857D01*
X160539523Y-100630000D02*
X160463332Y-100668095D01*
X160463332Y-100668095D02*
X160272856Y-100668095D01*
X160272856Y-100668095D02*
X160196666Y-100630000D01*
X160196666Y-100630000D02*
X160158570Y-100553809D01*
X160158570Y-100553809D02*
X160158570Y-100477619D01*
X160158570Y-100477619D02*
X160196666Y-100401428D01*
X160196666Y-100401428D02*
X160272856Y-100363333D01*
X160272856Y-100363333D02*
X160463332Y-100363333D01*
X160463332Y-100363333D02*
X160539523Y-100325238D01*
X159510952Y-103183904D02*
X159472856Y-103222000D01*
X159472856Y-103222000D02*
X159358571Y-103260095D01*
X159358571Y-103260095D02*
X159282380Y-103260095D01*
X159282380Y-103260095D02*
X159168094Y-103222000D01*
X159168094Y-103222000D02*
X159091904Y-103145809D01*
X159091904Y-103145809D02*
X159053809Y-103069619D01*
X159053809Y-103069619D02*
X159015713Y-102917238D01*
X159015713Y-102917238D02*
X159015713Y-102802952D01*
X159015713Y-102802952D02*
X159053809Y-102650571D01*
X159053809Y-102650571D02*
X159091904Y-102574380D01*
X159091904Y-102574380D02*
X159168094Y-102498190D01*
X159168094Y-102498190D02*
X159282380Y-102460095D01*
X159282380Y-102460095D02*
X159358571Y-102460095D01*
X159358571Y-102460095D02*
X159472856Y-102498190D01*
X159472856Y-102498190D02*
X159510952Y-102536285D01*
X159968094Y-103260095D02*
X159891904Y-103222000D01*
X159891904Y-103222000D02*
X159853809Y-103145809D01*
X159853809Y-103145809D02*
X159853809Y-102460095D01*
X160272857Y-103260095D02*
X160272857Y-102460095D01*
X160349047Y-102955333D02*
X160577619Y-103260095D01*
X160577619Y-102726761D02*
X160272857Y-103031523D01*
X159091903Y-105090190D02*
X159015713Y-105052095D01*
X159015713Y-105052095D02*
X158901427Y-105052095D01*
X158901427Y-105052095D02*
X158787141Y-105090190D01*
X158787141Y-105090190D02*
X158710951Y-105166380D01*
X158710951Y-105166380D02*
X158672856Y-105242571D01*
X158672856Y-105242571D02*
X158634760Y-105394952D01*
X158634760Y-105394952D02*
X158634760Y-105509238D01*
X158634760Y-105509238D02*
X158672856Y-105661619D01*
X158672856Y-105661619D02*
X158710951Y-105737809D01*
X158710951Y-105737809D02*
X158787141Y-105814000D01*
X158787141Y-105814000D02*
X158901427Y-105852095D01*
X158901427Y-105852095D02*
X158977618Y-105852095D01*
X158977618Y-105852095D02*
X159091903Y-105814000D01*
X159091903Y-105814000D02*
X159129999Y-105775904D01*
X159129999Y-105775904D02*
X159129999Y-105509238D01*
X159129999Y-105509238D02*
X158977618Y-105509238D01*
X159472856Y-105318761D02*
X159472856Y-105852095D01*
X159472856Y-105394952D02*
X159510951Y-105356857D01*
X159510951Y-105356857D02*
X159587141Y-105318761D01*
X159587141Y-105318761D02*
X159701427Y-105318761D01*
X159701427Y-105318761D02*
X159777618Y-105356857D01*
X159777618Y-105356857D02*
X159815713Y-105433047D01*
X159815713Y-105433047D02*
X159815713Y-105852095D01*
X160539523Y-105852095D02*
X160539523Y-105052095D01*
X160539523Y-105814000D02*
X160463332Y-105852095D01*
X160463332Y-105852095D02*
X160310951Y-105852095D01*
X160310951Y-105852095D02*
X160234761Y-105814000D01*
X160234761Y-105814000D02*
X160196666Y-105775904D01*
X160196666Y-105775904D02*
X160158570Y-105699714D01*
X160158570Y-105699714D02*
X160158570Y-105471142D01*
X160158570Y-105471142D02*
X160196666Y-105394952D01*
X160196666Y-105394952D02*
X160234761Y-105356857D01*
X160234761Y-105356857D02*
X160310951Y-105318761D01*
X160310951Y-105318761D02*
X160463332Y-105318761D01*
X160463332Y-105318761D02*
X160539523Y-105356857D01*
X122198572Y-71046095D02*
X122465239Y-71846095D01*
X122465239Y-71846095D02*
X122731905Y-71046095D01*
X123341429Y-71808000D02*
X123265238Y-71846095D01*
X123265238Y-71846095D02*
X123112857Y-71846095D01*
X123112857Y-71846095D02*
X123036667Y-71808000D01*
X123036667Y-71808000D02*
X122998572Y-71769904D01*
X122998572Y-71769904D02*
X122960476Y-71693714D01*
X122960476Y-71693714D02*
X122960476Y-71465142D01*
X122960476Y-71465142D02*
X122998572Y-71388952D01*
X122998572Y-71388952D02*
X123036667Y-71350857D01*
X123036667Y-71350857D02*
X123112857Y-71312761D01*
X123112857Y-71312761D02*
X123265238Y-71312761D01*
X123265238Y-71312761D02*
X123341429Y-71350857D01*
X124027143Y-71808000D02*
X123950952Y-71846095D01*
X123950952Y-71846095D02*
X123798571Y-71846095D01*
X123798571Y-71846095D02*
X123722381Y-71808000D01*
X123722381Y-71808000D02*
X123684286Y-71769904D01*
X123684286Y-71769904D02*
X123646190Y-71693714D01*
X123646190Y-71693714D02*
X123646190Y-71465142D01*
X123646190Y-71465142D02*
X123684286Y-71388952D01*
X123684286Y-71388952D02*
X123722381Y-71350857D01*
X123722381Y-71350857D02*
X123798571Y-71312761D01*
X123798571Y-71312761D02*
X123950952Y-71312761D01*
X123950952Y-71312761D02*
X124027143Y-71350857D01*
X124370000Y-71427047D02*
X124979524Y-71427047D01*
X124979524Y-71655619D02*
X124370000Y-71655619D01*
X125817619Y-71846095D02*
X125550952Y-71465142D01*
X125360476Y-71846095D02*
X125360476Y-71046095D01*
X125360476Y-71046095D02*
X125665238Y-71046095D01*
X125665238Y-71046095D02*
X125741428Y-71084190D01*
X125741428Y-71084190D02*
X125779523Y-71122285D01*
X125779523Y-71122285D02*
X125817619Y-71198476D01*
X125817619Y-71198476D02*
X125817619Y-71312761D01*
X125817619Y-71312761D02*
X125779523Y-71388952D01*
X125779523Y-71388952D02*
X125741428Y-71427047D01*
X125741428Y-71427047D02*
X125665238Y-71465142D01*
X125665238Y-71465142D02*
X125360476Y-71465142D01*
X121779523Y-74438095D02*
X121779523Y-73638095D01*
X121779523Y-73638095D02*
X121969999Y-73638095D01*
X121969999Y-73638095D02*
X122084285Y-73676190D01*
X122084285Y-73676190D02*
X122160475Y-73752380D01*
X122160475Y-73752380D02*
X122198570Y-73828571D01*
X122198570Y-73828571D02*
X122236666Y-73980952D01*
X122236666Y-73980952D02*
X122236666Y-74095238D01*
X122236666Y-74095238D02*
X122198570Y-74247619D01*
X122198570Y-74247619D02*
X122160475Y-74323809D01*
X122160475Y-74323809D02*
X122084285Y-74400000D01*
X122084285Y-74400000D02*
X121969999Y-74438095D01*
X121969999Y-74438095D02*
X121779523Y-74438095D01*
X122922380Y-74438095D02*
X122922380Y-74019047D01*
X122922380Y-74019047D02*
X122884285Y-73942857D01*
X122884285Y-73942857D02*
X122808094Y-73904761D01*
X122808094Y-73904761D02*
X122655713Y-73904761D01*
X122655713Y-73904761D02*
X122579523Y-73942857D01*
X122922380Y-74400000D02*
X122846189Y-74438095D01*
X122846189Y-74438095D02*
X122655713Y-74438095D01*
X122655713Y-74438095D02*
X122579523Y-74400000D01*
X122579523Y-74400000D02*
X122541427Y-74323809D01*
X122541427Y-74323809D02*
X122541427Y-74247619D01*
X122541427Y-74247619D02*
X122579523Y-74171428D01*
X122579523Y-74171428D02*
X122655713Y-74133333D01*
X122655713Y-74133333D02*
X122846189Y-74133333D01*
X122846189Y-74133333D02*
X122922380Y-74095238D01*
X123189047Y-73904761D02*
X123493809Y-73904761D01*
X123303333Y-73638095D02*
X123303333Y-74323809D01*
X123303333Y-74323809D02*
X123341428Y-74400000D01*
X123341428Y-74400000D02*
X123417618Y-74438095D01*
X123417618Y-74438095D02*
X123493809Y-74438095D01*
X124103333Y-74438095D02*
X124103333Y-74019047D01*
X124103333Y-74019047D02*
X124065238Y-73942857D01*
X124065238Y-73942857D02*
X123989047Y-73904761D01*
X123989047Y-73904761D02*
X123836666Y-73904761D01*
X123836666Y-73904761D02*
X123760476Y-73942857D01*
X124103333Y-74400000D02*
X124027142Y-74438095D01*
X124027142Y-74438095D02*
X123836666Y-74438095D01*
X123836666Y-74438095D02*
X123760476Y-74400000D01*
X123760476Y-74400000D02*
X123722380Y-74323809D01*
X123722380Y-74323809D02*
X123722380Y-74247619D01*
X123722380Y-74247619D02*
X123760476Y-74171428D01*
X123760476Y-74171428D02*
X123836666Y-74133333D01*
X123836666Y-74133333D02*
X124027142Y-74133333D01*
X124027142Y-74133333D02*
X124103333Y-74095238D01*
X124484286Y-74019047D02*
X125093810Y-74019047D01*
X125093810Y-74247619D02*
X124484286Y-74247619D01*
X125627143Y-74057142D02*
X125627143Y-74438095D01*
X125360476Y-73638095D02*
X125627143Y-74057142D01*
X125627143Y-74057142D02*
X125893809Y-73638095D01*
X122846190Y-76953904D02*
X122808094Y-76992000D01*
X122808094Y-76992000D02*
X122693809Y-77030095D01*
X122693809Y-77030095D02*
X122617618Y-77030095D01*
X122617618Y-77030095D02*
X122503332Y-76992000D01*
X122503332Y-76992000D02*
X122427142Y-76915809D01*
X122427142Y-76915809D02*
X122389047Y-76839619D01*
X122389047Y-76839619D02*
X122350951Y-76687238D01*
X122350951Y-76687238D02*
X122350951Y-76572952D01*
X122350951Y-76572952D02*
X122389047Y-76420571D01*
X122389047Y-76420571D02*
X122427142Y-76344380D01*
X122427142Y-76344380D02*
X122503332Y-76268190D01*
X122503332Y-76268190D02*
X122617618Y-76230095D01*
X122617618Y-76230095D02*
X122693809Y-76230095D01*
X122693809Y-76230095D02*
X122808094Y-76268190D01*
X122808094Y-76268190D02*
X122846190Y-76306285D01*
X123303332Y-77030095D02*
X123227142Y-76992000D01*
X123227142Y-76992000D02*
X123189047Y-76915809D01*
X123189047Y-76915809D02*
X123189047Y-76230095D01*
X123608095Y-77030095D02*
X123608095Y-76230095D01*
X123684285Y-76725333D02*
X123912857Y-77030095D01*
X123912857Y-76496761D02*
X123608095Y-76801523D01*
X124255714Y-76611047D02*
X124865238Y-76611047D01*
X124865238Y-76839619D02*
X124255714Y-76839619D01*
X125169999Y-76230095D02*
X125360475Y-77030095D01*
X125360475Y-77030095D02*
X125512856Y-76458666D01*
X125512856Y-76458666D02*
X125665237Y-77030095D01*
X125665237Y-77030095D02*
X125855714Y-76230095D01*
X122541427Y-78860190D02*
X122465237Y-78822095D01*
X122465237Y-78822095D02*
X122350951Y-78822095D01*
X122350951Y-78822095D02*
X122236665Y-78860190D01*
X122236665Y-78860190D02*
X122160475Y-78936380D01*
X122160475Y-78936380D02*
X122122380Y-79012571D01*
X122122380Y-79012571D02*
X122084284Y-79164952D01*
X122084284Y-79164952D02*
X122084284Y-79279238D01*
X122084284Y-79279238D02*
X122122380Y-79431619D01*
X122122380Y-79431619D02*
X122160475Y-79507809D01*
X122160475Y-79507809D02*
X122236665Y-79584000D01*
X122236665Y-79584000D02*
X122350951Y-79622095D01*
X122350951Y-79622095D02*
X122427142Y-79622095D01*
X122427142Y-79622095D02*
X122541427Y-79584000D01*
X122541427Y-79584000D02*
X122579523Y-79545904D01*
X122579523Y-79545904D02*
X122579523Y-79279238D01*
X122579523Y-79279238D02*
X122427142Y-79279238D01*
X122922380Y-79088761D02*
X122922380Y-79622095D01*
X122922380Y-79164952D02*
X122960475Y-79126857D01*
X122960475Y-79126857D02*
X123036665Y-79088761D01*
X123036665Y-79088761D02*
X123150951Y-79088761D01*
X123150951Y-79088761D02*
X123227142Y-79126857D01*
X123227142Y-79126857D02*
X123265237Y-79203047D01*
X123265237Y-79203047D02*
X123265237Y-79622095D01*
X123989047Y-79622095D02*
X123989047Y-78822095D01*
X123989047Y-79584000D02*
X123912856Y-79622095D01*
X123912856Y-79622095D02*
X123760475Y-79622095D01*
X123760475Y-79622095D02*
X123684285Y-79584000D01*
X123684285Y-79584000D02*
X123646190Y-79545904D01*
X123646190Y-79545904D02*
X123608094Y-79469714D01*
X123608094Y-79469714D02*
X123608094Y-79241142D01*
X123608094Y-79241142D02*
X123646190Y-79164952D01*
X123646190Y-79164952D02*
X123684285Y-79126857D01*
X123684285Y-79126857D02*
X123760475Y-79088761D01*
X123760475Y-79088761D02*
X123912856Y-79088761D01*
X123912856Y-79088761D02*
X123989047Y-79126857D01*
X124370000Y-79203047D02*
X124979524Y-79203047D01*
X124979524Y-79431619D02*
X124370000Y-79431619D01*
X125627142Y-79203047D02*
X125741428Y-79241142D01*
X125741428Y-79241142D02*
X125779523Y-79279238D01*
X125779523Y-79279238D02*
X125817619Y-79355428D01*
X125817619Y-79355428D02*
X125817619Y-79469714D01*
X125817619Y-79469714D02*
X125779523Y-79545904D01*
X125779523Y-79545904D02*
X125741428Y-79584000D01*
X125741428Y-79584000D02*
X125665238Y-79622095D01*
X125665238Y-79622095D02*
X125360476Y-79622095D01*
X125360476Y-79622095D02*
X125360476Y-78822095D01*
X125360476Y-78822095D02*
X125627142Y-78822095D01*
X125627142Y-78822095D02*
X125703333Y-78860190D01*
X125703333Y-78860190D02*
X125741428Y-78898285D01*
X125741428Y-78898285D02*
X125779523Y-78974476D01*
X125779523Y-78974476D02*
X125779523Y-79050666D01*
X125779523Y-79050666D02*
X125741428Y-79126857D01*
X125741428Y-79126857D02*
X125703333Y-79164952D01*
X125703333Y-79164952D02*
X125627142Y-79203047D01*
X125627142Y-79203047D02*
X125360476Y-79203047D01*
X122251903Y-84774190D02*
X122175713Y-84736095D01*
X122175713Y-84736095D02*
X122061427Y-84736095D01*
X122061427Y-84736095D02*
X121947141Y-84774190D01*
X121947141Y-84774190D02*
X121870951Y-84850380D01*
X121870951Y-84850380D02*
X121832856Y-84926571D01*
X121832856Y-84926571D02*
X121794760Y-85078952D01*
X121794760Y-85078952D02*
X121794760Y-85193238D01*
X121794760Y-85193238D02*
X121832856Y-85345619D01*
X121832856Y-85345619D02*
X121870951Y-85421809D01*
X121870951Y-85421809D02*
X121947141Y-85498000D01*
X121947141Y-85498000D02*
X122061427Y-85536095D01*
X122061427Y-85536095D02*
X122137618Y-85536095D01*
X122137618Y-85536095D02*
X122251903Y-85498000D01*
X122251903Y-85498000D02*
X122289999Y-85459904D01*
X122289999Y-85459904D02*
X122289999Y-85193238D01*
X122289999Y-85193238D02*
X122137618Y-85193238D01*
X122632856Y-85002761D02*
X122632856Y-85536095D01*
X122632856Y-85078952D02*
X122670951Y-85040857D01*
X122670951Y-85040857D02*
X122747141Y-85002761D01*
X122747141Y-85002761D02*
X122861427Y-85002761D01*
X122861427Y-85002761D02*
X122937618Y-85040857D01*
X122937618Y-85040857D02*
X122975713Y-85117047D01*
X122975713Y-85117047D02*
X122975713Y-85536095D01*
X123699523Y-85536095D02*
X123699523Y-84736095D01*
X123699523Y-85498000D02*
X123623332Y-85536095D01*
X123623332Y-85536095D02*
X123470951Y-85536095D01*
X123470951Y-85536095D02*
X123394761Y-85498000D01*
X123394761Y-85498000D02*
X123356666Y-85459904D01*
X123356666Y-85459904D02*
X123318570Y-85383714D01*
X123318570Y-85383714D02*
X123318570Y-85155142D01*
X123318570Y-85155142D02*
X123356666Y-85078952D01*
X123356666Y-85078952D02*
X123394761Y-85040857D01*
X123394761Y-85040857D02*
X123470951Y-85002761D01*
X123470951Y-85002761D02*
X123623332Y-85002761D01*
X123623332Y-85002761D02*
X123699523Y-85040857D01*
X122670952Y-88051904D02*
X122632856Y-88090000D01*
X122632856Y-88090000D02*
X122518571Y-88128095D01*
X122518571Y-88128095D02*
X122442380Y-88128095D01*
X122442380Y-88128095D02*
X122328094Y-88090000D01*
X122328094Y-88090000D02*
X122251904Y-88013809D01*
X122251904Y-88013809D02*
X122213809Y-87937619D01*
X122213809Y-87937619D02*
X122175713Y-87785238D01*
X122175713Y-87785238D02*
X122175713Y-87670952D01*
X122175713Y-87670952D02*
X122213809Y-87518571D01*
X122213809Y-87518571D02*
X122251904Y-87442380D01*
X122251904Y-87442380D02*
X122328094Y-87366190D01*
X122328094Y-87366190D02*
X122442380Y-87328095D01*
X122442380Y-87328095D02*
X122518571Y-87328095D01*
X122518571Y-87328095D02*
X122632856Y-87366190D01*
X122632856Y-87366190D02*
X122670952Y-87404285D01*
X123128094Y-88128095D02*
X123051904Y-88090000D01*
X123051904Y-88090000D02*
X123013809Y-88013809D01*
X123013809Y-88013809D02*
X123013809Y-87328095D01*
X123432857Y-88128095D02*
X123432857Y-87328095D01*
X123509047Y-87823333D02*
X123737619Y-88128095D01*
X123737619Y-87594761D02*
X123432857Y-87899523D01*
X121375713Y-90720095D02*
X121375713Y-89920095D01*
X121375713Y-89920095D02*
X121566189Y-89920095D01*
X121566189Y-89920095D02*
X121680475Y-89958190D01*
X121680475Y-89958190D02*
X121756665Y-90034380D01*
X121756665Y-90034380D02*
X121794760Y-90110571D01*
X121794760Y-90110571D02*
X121832856Y-90262952D01*
X121832856Y-90262952D02*
X121832856Y-90377238D01*
X121832856Y-90377238D02*
X121794760Y-90529619D01*
X121794760Y-90529619D02*
X121756665Y-90605809D01*
X121756665Y-90605809D02*
X121680475Y-90682000D01*
X121680475Y-90682000D02*
X121566189Y-90720095D01*
X121566189Y-90720095D02*
X121375713Y-90720095D01*
X122518570Y-90720095D02*
X122518570Y-90301047D01*
X122518570Y-90301047D02*
X122480475Y-90224857D01*
X122480475Y-90224857D02*
X122404284Y-90186761D01*
X122404284Y-90186761D02*
X122251903Y-90186761D01*
X122251903Y-90186761D02*
X122175713Y-90224857D01*
X122518570Y-90682000D02*
X122442379Y-90720095D01*
X122442379Y-90720095D02*
X122251903Y-90720095D01*
X122251903Y-90720095D02*
X122175713Y-90682000D01*
X122175713Y-90682000D02*
X122137617Y-90605809D01*
X122137617Y-90605809D02*
X122137617Y-90529619D01*
X122137617Y-90529619D02*
X122175713Y-90453428D01*
X122175713Y-90453428D02*
X122251903Y-90415333D01*
X122251903Y-90415333D02*
X122442379Y-90415333D01*
X122442379Y-90415333D02*
X122518570Y-90377238D01*
X122785237Y-90186761D02*
X123089999Y-90186761D01*
X122899523Y-89920095D02*
X122899523Y-90605809D01*
X122899523Y-90605809D02*
X122937618Y-90682000D01*
X122937618Y-90682000D02*
X123013808Y-90720095D01*
X123013808Y-90720095D02*
X123089999Y-90720095D01*
X123699523Y-90720095D02*
X123699523Y-90301047D01*
X123699523Y-90301047D02*
X123661428Y-90224857D01*
X123661428Y-90224857D02*
X123585237Y-90186761D01*
X123585237Y-90186761D02*
X123432856Y-90186761D01*
X123432856Y-90186761D02*
X123356666Y-90224857D01*
X123699523Y-90682000D02*
X123623332Y-90720095D01*
X123623332Y-90720095D02*
X123432856Y-90720095D01*
X123432856Y-90720095D02*
X123356666Y-90682000D01*
X123356666Y-90682000D02*
X123318570Y-90605809D01*
X123318570Y-90605809D02*
X123318570Y-90529619D01*
X123318570Y-90529619D02*
X123356666Y-90453428D01*
X123356666Y-90453428D02*
X123432856Y-90415333D01*
X123432856Y-90415333D02*
X123623332Y-90415333D01*
X123623332Y-90415333D02*
X123699523Y-90377238D01*
X121909048Y-92512095D02*
X122175715Y-93312095D01*
X122175715Y-93312095D02*
X122442381Y-92512095D01*
X123051905Y-93274000D02*
X122975714Y-93312095D01*
X122975714Y-93312095D02*
X122823333Y-93312095D01*
X122823333Y-93312095D02*
X122747143Y-93274000D01*
X122747143Y-93274000D02*
X122709048Y-93235904D01*
X122709048Y-93235904D02*
X122670952Y-93159714D01*
X122670952Y-93159714D02*
X122670952Y-92931142D01*
X122670952Y-92931142D02*
X122709048Y-92854952D01*
X122709048Y-92854952D02*
X122747143Y-92816857D01*
X122747143Y-92816857D02*
X122823333Y-92778761D01*
X122823333Y-92778761D02*
X122975714Y-92778761D01*
X122975714Y-92778761D02*
X123051905Y-92816857D01*
X123737619Y-93274000D02*
X123661428Y-93312095D01*
X123661428Y-93312095D02*
X123509047Y-93312095D01*
X123509047Y-93312095D02*
X123432857Y-93274000D01*
X123432857Y-93274000D02*
X123394762Y-93235904D01*
X123394762Y-93235904D02*
X123356666Y-93159714D01*
X123356666Y-93159714D02*
X123356666Y-92931142D01*
X123356666Y-92931142D02*
X123394762Y-92854952D01*
X123394762Y-92854952D02*
X123432857Y-92816857D01*
X123432857Y-92816857D02*
X123509047Y-92778761D01*
X123509047Y-92778761D02*
X123661428Y-92778761D01*
X123661428Y-92778761D02*
X123737619Y-92816857D01*
D11*
X133031427Y-82692857D02*
X132031427Y-81264285D01*
X131317141Y-82692857D02*
X131317141Y-79692857D01*
X131317141Y-79692857D02*
X132459998Y-79692857D01*
X132459998Y-79692857D02*
X132745713Y-79835714D01*
X132745713Y-79835714D02*
X132888570Y-79978571D01*
X132888570Y-79978571D02*
X133031427Y-80264285D01*
X133031427Y-80264285D02*
X133031427Y-80692857D01*
X133031427Y-80692857D02*
X132888570Y-80978571D01*
X132888570Y-80978571D02*
X132745713Y-81121428D01*
X132745713Y-81121428D02*
X132459998Y-81264285D01*
X132459998Y-81264285D02*
X131317141Y-81264285D01*
X135602856Y-82692857D02*
X135602856Y-81121428D01*
X135602856Y-81121428D02*
X135459998Y-80835714D01*
X135459998Y-80835714D02*
X135174284Y-80692857D01*
X135174284Y-80692857D02*
X134602856Y-80692857D01*
X134602856Y-80692857D02*
X134317141Y-80835714D01*
X135602856Y-82550000D02*
X135317141Y-82692857D01*
X135317141Y-82692857D02*
X134602856Y-82692857D01*
X134602856Y-82692857D02*
X134317141Y-82550000D01*
X134317141Y-82550000D02*
X134174284Y-82264285D01*
X134174284Y-82264285D02*
X134174284Y-81978571D01*
X134174284Y-81978571D02*
X134317141Y-81692857D01*
X134317141Y-81692857D02*
X134602856Y-81550000D01*
X134602856Y-81550000D02*
X135317141Y-81550000D01*
X135317141Y-81550000D02*
X135602856Y-81407142D01*
X136602856Y-80692857D02*
X137745713Y-80692857D01*
X137031427Y-79692857D02*
X137031427Y-82264285D01*
X137031427Y-82264285D02*
X137174284Y-82550000D01*
X137174284Y-82550000D02*
X137459999Y-82692857D01*
X137459999Y-82692857D02*
X137745713Y-82692857D01*
X140031428Y-82692857D02*
X140031428Y-81121428D01*
X140031428Y-81121428D02*
X139888570Y-80835714D01*
X139888570Y-80835714D02*
X139602856Y-80692857D01*
X139602856Y-80692857D02*
X139031428Y-80692857D01*
X139031428Y-80692857D02*
X138745713Y-80835714D01*
X140031428Y-82550000D02*
X139745713Y-82692857D01*
X139745713Y-82692857D02*
X139031428Y-82692857D01*
X139031428Y-82692857D02*
X138745713Y-82550000D01*
X138745713Y-82550000D02*
X138602856Y-82264285D01*
X138602856Y-82264285D02*
X138602856Y-81978571D01*
X138602856Y-81978571D02*
X138745713Y-81692857D01*
X138745713Y-81692857D02*
X139031428Y-81550000D01*
X139031428Y-81550000D02*
X139745713Y-81550000D01*
X139745713Y-81550000D02*
X140031428Y-81407142D01*
X141459999Y-82692857D02*
X141459999Y-80692857D01*
X141459999Y-80978571D02*
X141602856Y-80835714D01*
X141602856Y-80835714D02*
X141888571Y-80692857D01*
X141888571Y-80692857D02*
X142317142Y-80692857D01*
X142317142Y-80692857D02*
X142602856Y-80835714D01*
X142602856Y-80835714D02*
X142745714Y-81121428D01*
X142745714Y-81121428D02*
X142745714Y-82692857D01*
X142745714Y-81121428D02*
X142888571Y-80835714D01*
X142888571Y-80835714D02*
X143174285Y-80692857D01*
X143174285Y-80692857D02*
X143602856Y-80692857D01*
X143602856Y-80692857D02*
X143888571Y-80835714D01*
X143888571Y-80835714D02*
X144031428Y-81121428D01*
X144031428Y-81121428D02*
X144031428Y-82692857D01*
X146745714Y-80692857D02*
X146745714Y-82692857D01*
X145459999Y-80692857D02*
X145459999Y-82264285D01*
X145459999Y-82264285D02*
X145602856Y-82550000D01*
X145602856Y-82550000D02*
X145888571Y-82692857D01*
X145888571Y-82692857D02*
X146317142Y-82692857D01*
X146317142Y-82692857D02*
X146602856Y-82550000D01*
X146602856Y-82550000D02*
X146745714Y-82407142D01*
X148031428Y-82550000D02*
X148317142Y-82692857D01*
X148317142Y-82692857D02*
X148888571Y-82692857D01*
X148888571Y-82692857D02*
X149174285Y-82550000D01*
X149174285Y-82550000D02*
X149317142Y-82264285D01*
X149317142Y-82264285D02*
X149317142Y-82121428D01*
X149317142Y-82121428D02*
X149174285Y-81835714D01*
X149174285Y-81835714D02*
X148888571Y-81692857D01*
X148888571Y-81692857D02*
X148460000Y-81692857D01*
X148460000Y-81692857D02*
X148174285Y-81550000D01*
X148174285Y-81550000D02*
X148031428Y-81264285D01*
X148031428Y-81264285D02*
X148031428Y-81121428D01*
X148031428Y-81121428D02*
X148174285Y-80835714D01*
X148174285Y-80835714D02*
X148460000Y-80692857D01*
X148460000Y-80692857D02*
X148888571Y-80692857D01*
X148888571Y-80692857D02*
X149174285Y-80835714D01*
X151745713Y-82550000D02*
X151459999Y-82692857D01*
X151459999Y-82692857D02*
X150888571Y-82692857D01*
X150888571Y-82692857D02*
X150602856Y-82550000D01*
X150602856Y-82550000D02*
X150459999Y-82264285D01*
X150459999Y-82264285D02*
X150459999Y-81121428D01*
X150459999Y-81121428D02*
X150602856Y-80835714D01*
X150602856Y-80835714D02*
X150888571Y-80692857D01*
X150888571Y-80692857D02*
X151459999Y-80692857D01*
X151459999Y-80692857D02*
X151745713Y-80835714D01*
X151745713Y-80835714D02*
X151888571Y-81121428D01*
X151888571Y-81121428D02*
X151888571Y-81407142D01*
X151888571Y-81407142D02*
X150459999Y-81692857D01*
D12*
%TO.C,J2*%
X155280000Y-107760000D02*
X157940000Y-107760000D01*
X155280000Y-84840000D02*
X157940000Y-84840000D01*
X155280000Y-82240000D02*
X156610000Y-82240000D01*
X155280000Y-84840000D02*
X155280000Y-107760000D01*
X157940000Y-84840000D02*
X157940000Y-107760000D01*
X155280000Y-83570000D02*
X155280000Y-82240000D01*
D13*
%TO.C,J3*%
X108980000Y-107920000D02*
X108980000Y-97920000D01*
X120980000Y-107920000D02*
X108980000Y-107920000D01*
X108980000Y-97920000D02*
X120980000Y-97920000D01*
X120980000Y-97920000D02*
X120980000Y-107920000D01*
D12*
%TO.C,J1*%
X125080000Y-82240000D02*
X126410000Y-82240000D01*
X125080000Y-83570000D02*
X125080000Y-82240000D01*
X125080000Y-84840000D02*
X125080000Y-107760000D01*
X125080000Y-84840000D02*
X127740000Y-84840000D01*
X125080000Y-107760000D02*
X127740000Y-107760000D01*
X127740000Y-84840000D02*
X127740000Y-107760000D01*
D13*
%TO.C,J8*%
X108850000Y-80330000D02*
X108850000Y-70330000D01*
X120850000Y-80330000D02*
X108850000Y-80330000D01*
X108850000Y-70330000D02*
X120850000Y-70330000D01*
X120850000Y-70330000D02*
X120850000Y-80330000D01*
%TO.C,J7*%
X173730000Y-69020000D02*
X173730000Y-79020000D01*
X161730000Y-69020000D02*
X173730000Y-69020000D01*
X173730000Y-79020000D02*
X161730000Y-79020000D01*
X161730000Y-79020000D02*
X161730000Y-69020000D01*
%TO.C,J4*%
X108900000Y-94080000D02*
X108900000Y-84080000D01*
X120900000Y-94080000D02*
X108900000Y-94080000D01*
X108900000Y-84080000D02*
X120900000Y-84080000D01*
X120900000Y-84080000D02*
X120900000Y-94080000D01*
%TO.C,J6*%
X173730000Y-82820000D02*
X173730000Y-92820000D01*
X161730000Y-82820000D02*
X173730000Y-82820000D01*
X173730000Y-92820000D02*
X161730000Y-92820000D01*
X161730000Y-92820000D02*
X161730000Y-82820000D01*
%TO.C,J5*%
X173710000Y-96580000D02*
X173710000Y-106580000D01*
X161710000Y-96580000D02*
X173710000Y-96580000D01*
X173710000Y-106580000D02*
X161710000Y-106580000D01*
X161710000Y-106580000D02*
X161710000Y-96580000D01*
%TD*%
M02*
