%TF.GenerationSoftware,KiCad,Pcbnew,7.0.2*%
%TF.CreationDate,2024-04-10T14:05:27+02:00*%
%TF.ProjectId,Support_TTGO_invers_,53757070-6f72-4745-9f54-54474f5f696e,rev?*%
%TF.SameCoordinates,Original*%
%TF.FileFunction,Soldermask,Top*%
%TF.FilePolarity,Negative*%
%FSLAX46Y46*%
G04 Gerber Fmt 4.6, Leading zero omitted, Abs format (unit mm)*
G04 Created by KiCad (PCBNEW 7.0.2) date 2024-04-10 14:05:27*
%MOMM*%
%LPD*%
G01*
G04 APERTURE LIST*
G04 Aperture macros list*
%AMRoundRect*
0 Rectangle with rounded corners*
0 $1 Rounding radius*
0 $2 $3 $4 $5 $6 $7 $8 $9 X,Y pos of 4 corners*
0 Add a 4 corners polygon primitive as box body*
4,1,4,$2,$3,$4,$5,$6,$7,$8,$9,$2,$3,0*
0 Add four circle primitives for the rounded corners*
1,1,$1+$1,$2,$3*
1,1,$1+$1,$4,$5*
1,1,$1+$1,$6,$7*
1,1,$1+$1,$8,$9*
0 Add four rect primitives between the rounded corners*
20,1,$1+$1,$2,$3,$4,$5,0*
20,1,$1+$1,$4,$5,$6,$7,0*
20,1,$1+$1,$6,$7,$8,$9,0*
20,1,$1+$1,$8,$9,$2,$3,0*%
G04 Aperture macros list end*
%ADD10RoundRect,0.250000X0.625000X-0.350000X0.625000X0.350000X-0.625000X0.350000X-0.625000X-0.350000X0*%
%ADD11O,1.750000X1.200000*%
%ADD12O,1.700000X1.700000*%
%ADD13R,1.700000X1.700000*%
%ADD14RoundRect,0.200000X-0.275000X0.200000X-0.275000X-0.200000X0.275000X-0.200000X0.275000X0.200000X0*%
%ADD15RoundRect,0.150000X-0.587500X-0.150000X0.587500X-0.150000X0.587500X0.150000X-0.587500X0.150000X0*%
%ADD16RoundRect,0.250000X0.350000X0.625000X-0.350000X0.625000X-0.350000X-0.625000X0.350000X-0.625000X0*%
%ADD17O,1.200000X1.750000*%
%ADD18C,1.500000*%
G04 APERTURE END LIST*
D10*
%TO.C,J9*%
X172550000Y-80090000D03*
D11*
X172550000Y-78090000D03*
%TD*%
D12*
%TO.C,J10*%
X156610000Y-73410000D03*
D13*
X156610000Y-75950000D03*
%TD*%
%TO.C,J1*%
X126410000Y-83570000D03*
D12*
X126410000Y-86110000D03*
X126410000Y-88650000D03*
X126410000Y-91190000D03*
X126410000Y-93730000D03*
X126410000Y-96270000D03*
X126410000Y-98810000D03*
X126410000Y-101350000D03*
X126410000Y-103890000D03*
X126410000Y-106430000D03*
%TD*%
D14*
%TO.C,R1*%
X163620000Y-86735000D03*
X163620000Y-88385000D03*
%TD*%
D13*
%TO.C,J2*%
X156610000Y-83570000D03*
D12*
X156610000Y-86110000D03*
X156610000Y-88650000D03*
X156610000Y-91190000D03*
X156610000Y-93730000D03*
X156610000Y-96270000D03*
X156610000Y-98810000D03*
X156610000Y-101350000D03*
X156610000Y-103890000D03*
X156610000Y-106430000D03*
%TD*%
D15*
%TO.C,Q1*%
X160642500Y-74070000D03*
X160642500Y-75970000D03*
X162517500Y-75020000D03*
%TD*%
D16*
%TO.C,J11*%
X170960000Y-70610000D03*
D17*
X168960000Y-70610000D03*
%TD*%
D18*
%TO.C,J3*%
X113630000Y-97590000D03*
X113630000Y-100090000D03*
X113630000Y-102590000D03*
X113630000Y-105090000D03*
%TD*%
D16*
%TO.C,J9*%
X163850000Y-70600000D03*
D17*
X161850000Y-70600000D03*
%TD*%
D18*
%TO.C,J8*%
X113710000Y-78060000D03*
X113710000Y-75560000D03*
X113710000Y-73060000D03*
X113710000Y-70560000D03*
%TD*%
%TO.C,J7*%
X168980000Y-85370000D03*
X168980000Y-87870000D03*
X168980000Y-90370000D03*
X168980000Y-92870000D03*
%TD*%
%TO.C,J4*%
X113670000Y-91420000D03*
X113670000Y-88920000D03*
X113670000Y-86420000D03*
X113670000Y-83920000D03*
%TD*%
%TO.C,J5*%
X169010000Y-98620000D03*
X169010000Y-101120000D03*
X169010000Y-103620000D03*
X169010000Y-106120000D03*
%TD*%
M02*
