%TF.GenerationSoftware,KiCad,Pcbnew,7.0.2*%
%TF.CreationDate,2024-03-22T08:16:19+01:00*%
%TF.ProjectId,NB_Iot,4e425f49-6f74-42e6-9b69-6361645f7063,rev?*%
%TF.SameCoordinates,Original*%
%TF.FileFunction,Legend,Top*%
%TF.FilePolarity,Positive*%
%FSLAX46Y46*%
G04 Gerber Fmt 4.6, Leading zero omitted, Abs format (unit mm)*
G04 Created by KiCad (PCBNEW 7.0.2) date 2024-03-22 08:16:19*
%MOMM*%
%LPD*%
G01*
G04 APERTURE LIST*
%ADD10C,0.150000*%
%ADD11C,0.120000*%
G04 APERTURE END LIST*
D10*
X124188095Y-57047619D02*
X124188095Y-57857142D01*
X124188095Y-57857142D02*
X124235714Y-57952380D01*
X124235714Y-57952380D02*
X124283333Y-58000000D01*
X124283333Y-58000000D02*
X124378571Y-58047619D01*
X124378571Y-58047619D02*
X124569047Y-58047619D01*
X124569047Y-58047619D02*
X124664285Y-58000000D01*
X124664285Y-58000000D02*
X124711904Y-57952380D01*
X124711904Y-57952380D02*
X124759523Y-57857142D01*
X124759523Y-57857142D02*
X124759523Y-57047619D01*
X125711904Y-58047619D02*
X125235714Y-58047619D01*
X125235714Y-58047619D02*
X125235714Y-57047619D01*
X131550476Y-55221904D02*
X132026666Y-55221904D01*
X131455238Y-55507619D02*
X131788571Y-54507619D01*
X131788571Y-54507619D02*
X132121904Y-55507619D01*
X132455238Y-55126666D02*
X133217143Y-55126666D01*
X132836190Y-55507619D02*
X132836190Y-54745714D01*
X126518095Y-55073809D02*
X126851428Y-55073809D01*
X126994285Y-55597619D02*
X126518095Y-55597619D01*
X126518095Y-55597619D02*
X126518095Y-54597619D01*
X126518095Y-54597619D02*
X126994285Y-54597619D01*
X127422857Y-55216666D02*
X128184762Y-55216666D01*
X123958095Y-55063809D02*
X124291428Y-55063809D01*
X124434285Y-55587619D02*
X123958095Y-55587619D01*
X123958095Y-55587619D02*
X123958095Y-54587619D01*
X123958095Y-54587619D02*
X124434285Y-54587619D01*
X124862857Y-55206666D02*
X125624762Y-55206666D01*
X125243809Y-55587619D02*
X125243809Y-54825714D01*
X140169523Y-60377619D02*
X139836190Y-59901428D01*
X139598095Y-60377619D02*
X139598095Y-59377619D01*
X139598095Y-59377619D02*
X139979047Y-59377619D01*
X139979047Y-59377619D02*
X140074285Y-59425238D01*
X140074285Y-59425238D02*
X140121904Y-59472857D01*
X140121904Y-59472857D02*
X140169523Y-59568095D01*
X140169523Y-59568095D02*
X140169523Y-59710952D01*
X140169523Y-59710952D02*
X140121904Y-59806190D01*
X140121904Y-59806190D02*
X140074285Y-59853809D01*
X140074285Y-59853809D02*
X139979047Y-59901428D01*
X139979047Y-59901428D02*
X139598095Y-59901428D01*
X132934285Y-58027619D02*
X132458095Y-58027619D01*
X132458095Y-58027619D02*
X132458095Y-57027619D01*
X133743809Y-58027619D02*
X133267619Y-58027619D01*
X133267619Y-58027619D02*
X133267619Y-57027619D01*
X139961428Y-65103809D02*
X140104285Y-65151428D01*
X140104285Y-65151428D02*
X140151904Y-65199047D01*
X140151904Y-65199047D02*
X140199523Y-65294285D01*
X140199523Y-65294285D02*
X140199523Y-65437142D01*
X140199523Y-65437142D02*
X140151904Y-65532380D01*
X140151904Y-65532380D02*
X140104285Y-65580000D01*
X140104285Y-65580000D02*
X140009047Y-65627619D01*
X140009047Y-65627619D02*
X139628095Y-65627619D01*
X139628095Y-65627619D02*
X139628095Y-64627619D01*
X139628095Y-64627619D02*
X139961428Y-64627619D01*
X139961428Y-64627619D02*
X140056666Y-64675238D01*
X140056666Y-64675238D02*
X140104285Y-64722857D01*
X140104285Y-64722857D02*
X140151904Y-64818095D01*
X140151904Y-64818095D02*
X140151904Y-64913333D01*
X140151904Y-64913333D02*
X140104285Y-65008571D01*
X140104285Y-65008571D02*
X140056666Y-65056190D01*
X140056666Y-65056190D02*
X139961428Y-65103809D01*
X139961428Y-65103809D02*
X139628095Y-65103809D01*
X122369523Y-60647619D02*
X122036190Y-60171428D01*
X121798095Y-60647619D02*
X121798095Y-59647619D01*
X121798095Y-59647619D02*
X122179047Y-59647619D01*
X122179047Y-59647619D02*
X122274285Y-59695238D01*
X122274285Y-59695238D02*
X122321904Y-59742857D01*
X122321904Y-59742857D02*
X122369523Y-59838095D01*
X122369523Y-59838095D02*
X122369523Y-59980952D01*
X122369523Y-59980952D02*
X122321904Y-60076190D01*
X122321904Y-60076190D02*
X122274285Y-60123809D01*
X122274285Y-60123809D02*
X122179047Y-60171428D01*
X122179047Y-60171428D02*
X121798095Y-60171428D01*
X139512857Y-61877619D02*
X139750952Y-62877619D01*
X139750952Y-62877619D02*
X139941428Y-62163333D01*
X139941428Y-62163333D02*
X140131904Y-62877619D01*
X140131904Y-62877619D02*
X140370000Y-61877619D01*
X129090476Y-55271904D02*
X129566666Y-55271904D01*
X128995238Y-55557619D02*
X129328571Y-54557619D01*
X129328571Y-54557619D02*
X129661904Y-55557619D01*
X129995238Y-55176666D02*
X130757143Y-55176666D01*
X128389523Y-69317619D02*
X128056190Y-68841428D01*
X127818095Y-69317619D02*
X127818095Y-68317619D01*
X127818095Y-68317619D02*
X128199047Y-68317619D01*
X128199047Y-68317619D02*
X128294285Y-68365238D01*
X128294285Y-68365238D02*
X128341904Y-68412857D01*
X128341904Y-68412857D02*
X128389523Y-68508095D01*
X128389523Y-68508095D02*
X128389523Y-68650952D01*
X128389523Y-68650952D02*
X128341904Y-68746190D01*
X128341904Y-68746190D02*
X128294285Y-68793809D01*
X128294285Y-68793809D02*
X128199047Y-68841428D01*
X128199047Y-68841428D02*
X127818095Y-68841428D01*
X129246666Y-69317619D02*
X129246666Y-68793809D01*
X129246666Y-68793809D02*
X129199047Y-68698571D01*
X129199047Y-68698571D02*
X129103809Y-68650952D01*
X129103809Y-68650952D02*
X128913333Y-68650952D01*
X128913333Y-68650952D02*
X128818095Y-68698571D01*
X129246666Y-69270000D02*
X129151428Y-69317619D01*
X129151428Y-69317619D02*
X128913333Y-69317619D01*
X128913333Y-69317619D02*
X128818095Y-69270000D01*
X128818095Y-69270000D02*
X128770476Y-69174761D01*
X128770476Y-69174761D02*
X128770476Y-69079523D01*
X128770476Y-69079523D02*
X128818095Y-68984285D01*
X128818095Y-68984285D02*
X128913333Y-68936666D01*
X128913333Y-68936666D02*
X129151428Y-68936666D01*
X129151428Y-68936666D02*
X129246666Y-68889047D01*
X129580000Y-68650952D02*
X129960952Y-68650952D01*
X129722857Y-68317619D02*
X129722857Y-69174761D01*
X129722857Y-69174761D02*
X129770476Y-69270000D01*
X129770476Y-69270000D02*
X129865714Y-69317619D01*
X129865714Y-69317619D02*
X129960952Y-69317619D01*
X130722857Y-69317619D02*
X130722857Y-68793809D01*
X130722857Y-68793809D02*
X130675238Y-68698571D01*
X130675238Y-68698571D02*
X130580000Y-68650952D01*
X130580000Y-68650952D02*
X130389524Y-68650952D01*
X130389524Y-68650952D02*
X130294286Y-68698571D01*
X130722857Y-69270000D02*
X130627619Y-69317619D01*
X130627619Y-69317619D02*
X130389524Y-69317619D01*
X130389524Y-69317619D02*
X130294286Y-69270000D01*
X130294286Y-69270000D02*
X130246667Y-69174761D01*
X130246667Y-69174761D02*
X130246667Y-69079523D01*
X130246667Y-69079523D02*
X130294286Y-68984285D01*
X130294286Y-68984285D02*
X130389524Y-68936666D01*
X130389524Y-68936666D02*
X130627619Y-68936666D01*
X130627619Y-68936666D02*
X130722857Y-68889047D01*
X131199048Y-69317619D02*
X131199048Y-68650952D01*
X131199048Y-68746190D02*
X131246667Y-68698571D01*
X131246667Y-68698571D02*
X131341905Y-68650952D01*
X131341905Y-68650952D02*
X131484762Y-68650952D01*
X131484762Y-68650952D02*
X131580000Y-68698571D01*
X131580000Y-68698571D02*
X131627619Y-68793809D01*
X131627619Y-68793809D02*
X131627619Y-69317619D01*
X131627619Y-68793809D02*
X131675238Y-68698571D01*
X131675238Y-68698571D02*
X131770476Y-68650952D01*
X131770476Y-68650952D02*
X131913333Y-68650952D01*
X131913333Y-68650952D02*
X132008572Y-68698571D01*
X132008572Y-68698571D02*
X132056191Y-68793809D01*
X132056191Y-68793809D02*
X132056191Y-69317619D01*
X132960952Y-68650952D02*
X132960952Y-69317619D01*
X132532381Y-68650952D02*
X132532381Y-69174761D01*
X132532381Y-69174761D02*
X132580000Y-69270000D01*
X132580000Y-69270000D02*
X132675238Y-69317619D01*
X132675238Y-69317619D02*
X132818095Y-69317619D01*
X132818095Y-69317619D02*
X132913333Y-69270000D01*
X132913333Y-69270000D02*
X132960952Y-69222380D01*
X133389524Y-69270000D02*
X133484762Y-69317619D01*
X133484762Y-69317619D02*
X133675238Y-69317619D01*
X133675238Y-69317619D02*
X133770476Y-69270000D01*
X133770476Y-69270000D02*
X133818095Y-69174761D01*
X133818095Y-69174761D02*
X133818095Y-69127142D01*
X133818095Y-69127142D02*
X133770476Y-69031904D01*
X133770476Y-69031904D02*
X133675238Y-68984285D01*
X133675238Y-68984285D02*
X133532381Y-68984285D01*
X133532381Y-68984285D02*
X133437143Y-68936666D01*
X133437143Y-68936666D02*
X133389524Y-68841428D01*
X133389524Y-68841428D02*
X133389524Y-68793809D01*
X133389524Y-68793809D02*
X133437143Y-68698571D01*
X133437143Y-68698571D02*
X133532381Y-68650952D01*
X133532381Y-68650952D02*
X133675238Y-68650952D01*
X133675238Y-68650952D02*
X133770476Y-68698571D01*
X134627619Y-69270000D02*
X134532381Y-69317619D01*
X134532381Y-69317619D02*
X134341905Y-69317619D01*
X134341905Y-69317619D02*
X134246667Y-69270000D01*
X134246667Y-69270000D02*
X134199048Y-69174761D01*
X134199048Y-69174761D02*
X134199048Y-68793809D01*
X134199048Y-68793809D02*
X134246667Y-68698571D01*
X134246667Y-68698571D02*
X134341905Y-68650952D01*
X134341905Y-68650952D02*
X134532381Y-68650952D01*
X134532381Y-68650952D02*
X134627619Y-68698571D01*
X134627619Y-68698571D02*
X134675238Y-68793809D01*
X134675238Y-68793809D02*
X134675238Y-68889047D01*
X134675238Y-68889047D02*
X134199048Y-68984285D01*
X128178095Y-57127619D02*
X128178095Y-57937142D01*
X128178095Y-57937142D02*
X128225714Y-58032380D01*
X128225714Y-58032380D02*
X128273333Y-58080000D01*
X128273333Y-58080000D02*
X128368571Y-58127619D01*
X128368571Y-58127619D02*
X128559047Y-58127619D01*
X128559047Y-58127619D02*
X128654285Y-58080000D01*
X128654285Y-58080000D02*
X128701904Y-58032380D01*
X128701904Y-58032380D02*
X128749523Y-57937142D01*
X128749523Y-57937142D02*
X128749523Y-57127619D01*
X129797142Y-58127619D02*
X129463809Y-57651428D01*
X129225714Y-58127619D02*
X129225714Y-57127619D01*
X129225714Y-57127619D02*
X129606666Y-57127619D01*
X129606666Y-57127619D02*
X129701904Y-57175238D01*
X129701904Y-57175238D02*
X129749523Y-57222857D01*
X129749523Y-57222857D02*
X129797142Y-57318095D01*
X129797142Y-57318095D02*
X129797142Y-57460952D01*
X129797142Y-57460952D02*
X129749523Y-57556190D01*
X129749523Y-57556190D02*
X129701904Y-57603809D01*
X129701904Y-57603809D02*
X129606666Y-57651428D01*
X129606666Y-57651428D02*
X129225714Y-57651428D01*
X121712857Y-62147619D02*
X121950952Y-63147619D01*
X121950952Y-63147619D02*
X122141428Y-62433333D01*
X122141428Y-62433333D02*
X122331904Y-63147619D01*
X122331904Y-63147619D02*
X122570000Y-62147619D01*
X136894285Y-57957619D02*
X136418095Y-57957619D01*
X136418095Y-57957619D02*
X136418095Y-56957619D01*
X137799047Y-57957619D02*
X137465714Y-57481428D01*
X137227619Y-57957619D02*
X137227619Y-56957619D01*
X137227619Y-56957619D02*
X137608571Y-56957619D01*
X137608571Y-56957619D02*
X137703809Y-57005238D01*
X137703809Y-57005238D02*
X137751428Y-57052857D01*
X137751428Y-57052857D02*
X137799047Y-57148095D01*
X137799047Y-57148095D02*
X137799047Y-57290952D01*
X137799047Y-57290952D02*
X137751428Y-57386190D01*
X137751428Y-57386190D02*
X137703809Y-57433809D01*
X137703809Y-57433809D02*
X137608571Y-57481428D01*
X137608571Y-57481428D02*
X137227619Y-57481428D01*
X122161428Y-65373809D02*
X122304285Y-65421428D01*
X122304285Y-65421428D02*
X122351904Y-65469047D01*
X122351904Y-65469047D02*
X122399523Y-65564285D01*
X122399523Y-65564285D02*
X122399523Y-65707142D01*
X122399523Y-65707142D02*
X122351904Y-65802380D01*
X122351904Y-65802380D02*
X122304285Y-65850000D01*
X122304285Y-65850000D02*
X122209047Y-65897619D01*
X122209047Y-65897619D02*
X121828095Y-65897619D01*
X121828095Y-65897619D02*
X121828095Y-64897619D01*
X121828095Y-64897619D02*
X122161428Y-64897619D01*
X122161428Y-64897619D02*
X122256666Y-64945238D01*
X122256666Y-64945238D02*
X122304285Y-64992857D01*
X122304285Y-64992857D02*
X122351904Y-65088095D01*
X122351904Y-65088095D02*
X122351904Y-65183333D01*
X122351904Y-65183333D02*
X122304285Y-65278571D01*
X122304285Y-65278571D02*
X122256666Y-65326190D01*
X122256666Y-65326190D02*
X122161428Y-65373809D01*
X122161428Y-65373809D02*
X121828095Y-65373809D01*
D11*
%TO.C,J4*%
X134330000Y-66410000D02*
X133000000Y-66410000D01*
X134330000Y-65080000D02*
X134330000Y-66410000D01*
X134330000Y-63810000D02*
X134330000Y-58670000D01*
X134330000Y-63810000D02*
X131670000Y-63810000D01*
X134330000Y-58670000D02*
X131670000Y-58670000D01*
X131670000Y-63810000D02*
X131670000Y-58670000D01*
%TO.C,J1*%
X126330000Y-66590000D02*
X125000000Y-66590000D01*
X126330000Y-65260000D02*
X126330000Y-66590000D01*
X126330000Y-63990000D02*
X126330000Y-58850000D01*
X126330000Y-63990000D02*
X123670000Y-63990000D01*
X126330000Y-58850000D02*
X123670000Y-58850000D01*
X123670000Y-63990000D02*
X123670000Y-58850000D01*
%TO.C,J2*%
X123290000Y-53320000D02*
X123290000Y-51990000D01*
X124620000Y-53320000D02*
X123290000Y-53320000D01*
X125890000Y-53320000D02*
X138650000Y-53320000D01*
X125890000Y-53320000D02*
X125890000Y-50660000D01*
X138650000Y-53320000D02*
X138650000Y-50660000D01*
X125890000Y-50660000D02*
X138650000Y-50660000D01*
%TO.C,J5*%
X138330000Y-66410000D02*
X137000000Y-66410000D01*
X138330000Y-65080000D02*
X138330000Y-66410000D01*
X138330000Y-63810000D02*
X138330000Y-58670000D01*
X138330000Y-63810000D02*
X135670000Y-63810000D01*
X138330000Y-58670000D02*
X135670000Y-58670000D01*
X135670000Y-63810000D02*
X135670000Y-58670000D01*
%TO.C,J3*%
X130330000Y-66590000D02*
X129000000Y-66590000D01*
X130330000Y-65260000D02*
X130330000Y-66590000D01*
X130330000Y-63990000D02*
X130330000Y-58850000D01*
X130330000Y-63990000D02*
X127670000Y-63990000D01*
X130330000Y-58850000D02*
X127670000Y-58850000D01*
X127670000Y-63990000D02*
X127670000Y-58850000D01*
%TD*%
M02*
